<svg viewBox="0 0 72 72" xmlns="http://www.w3.org/2000/svg"><circle cx="36.081" cy="25.744" r="2"/><circle cx="43.681" cy="49.953" r="2"/><circle cx="28.405" cy="51.924" r="2"/><circle cx="41.681" cy="38.674" r="2"/><circle cx="32.405" cy="34.199" r="2"/><circle cx="34.405" cy="45.055" r="2"/><path fill="#a57939" d="M39.156 68.035h-6.312a2.446 2.446 0 0 1-2.293-2.57v-7.584a1 1 0 0 1 1-1h8.898a1 1 0 0 1 1 1v7.584a2.446 2.446 0 0 1-2.293 2.57z"/><path fill="#b1cc33" d="M54.766 61.207c-.022 0-.043 0-.065-.002L36 60.005l-18.701 1.2a1.025 1.025 0 0 1-.898-.445.999.999 0 0 1-.06-1.001l7.543-15.043-3.23.403a1 1 0 0 1-.987-1.497l7.073-12.093-1.926.236a.975.975 0 0 1-.97-.46 1 1 0 0 1 .008-1.074L35.16 12.716a1.036 1.036 0 0 1 1.68 0L48.148 30.23a.999.999 0 0 1 .008 1.074.974.974 0 0 1-.97.46l-1.925-.236 7.073 12.093a1 1 0 0 1-.987 1.497l-3.23-.403 7.543 15.043a1 1 0 0 1-.894 1.448z"/><path fill="#5c9e31" d="M37.697 29.291h5.682l7.723 13.624-4.238.249 7.902 18.043-17.375-1.114.306-30.802z"/><circle cx="36.081" cy="25.744" r="2" fill="#fcea2b"/><circle cx="43.681" cy="49.953" r="2" fill="#d22f27"/><circle cx="28.405" cy="51.924" r="2" fill="#fcea2b"/><circle cx="41.681" cy="38.674" r="2" fill="#fcea2b"/><circle cx="32.405" cy="34.199" r="2" fill="#d22f27"/><circle cx="34.405" cy="45.055" r="2" fill="#d22f27"/><path fill="#fcea2b" d="M32.5 16.27a.738.738 0 0 1-.728-.862l.603-3.515-2.554-2.49a.737.737 0 0 1 .409-1.258l3.53-.514 1.579-3.2a.767.767 0 0 1 1.322 0l1.579 3.2 3.53.513a.737.737 0 0 1 .41 1.258l-2.556 2.49.603 3.516a.737.737 0 0 1-1.07.777L36 14.525l-3.158 1.66a.732.732 0 0 1-.343.085z"/><path d="m39.778 19.109 7.53 11.665-3.93-.483 8.093 13.836-5.087-.636 8.382 16.716-12.834-.834m-11.864 0-12.834.834 8.382-16.716-5.087.636 8.093-13.836-3.93.483 7.53-11.665m8.228 43.314v3.042a1.456 1.456 0 0 1-1.293 1.57h-6.313a1.456 1.456 0 0 1-1.293-1.57v-3.042M36 4.758l1.87 3.79 4.182.607-3.026 2.95.714 4.165L36 14.304l-3.74 1.966.714-4.165-3.026-2.95 4.182-.607L36 4.758z" fill="none" stroke="#000" stroke-linecap="round" stroke-linejoin="round" stroke-width="2"/></svg>