<svg viewBox="0 0 72 72" xmlns="http://www.w3.org/2000/svg"><path fill="#9b9b9a" d="m36.804 28.439 7.127 7.058 3.03-3.03-7.092-7.093-3.065 3.065z"/><path fill="#d0cfce" d="M42.743 11.987 59.677 28.92l-8.13 8.13-16.935-16.933zM32.174 33.07l7.695-7.696 7.092 7.093-27.546 27.546-7.093-7.092L32.174 33.07"/><path fill="#9b9b9a" d="m33.007 32.236 7.092 7.093-1.36 1.36-7.093-7.092zm-9.523 9.522 7.093 7.092-1.36 1.36-7.093-7.091zm-2.04 2.042 7.092 7.092-1.36 1.36-7.093-7.092zm-2.041 2.04 7.093 7.092-1.36 1.36-7.093-7.092z"/><path fill="#d0cfce" d="m26.723 31.428 14.185 14.185-5.32 5.32-14.185-14.185z"/><path d="M42.743 11.987 59.677 28.92l-8.13 8.13-16.935-16.933zm-9.988 20.501 7.114-7.114 7.092 7.093-7.078 7.079m-10.241 10.24-9.086 9.087-2.029.253-5.352-5.352-.001-1.705 9.201-9.201m4.348-11.44 14.185 14.185-5.32 5.32-14.185-14.185z" fill="none" stroke="#000" stroke-linecap="round" stroke-linejoin="round" stroke-width="2"/></svg>