<svg viewBox="0 0 72 72" xmlns="http://www.w3.org/2000/svg"><path fill="#d0cfce" d="M32.4 25.2a4.913 4.913 0 0 0 4.7-5.1 4.828 4.828 0 0 0-4.3-4.6 3.828 3.828 0 0 0-3.6-3.8 3.458 3.458 0 0 0-3.3 2.3 4.703 4.703 0 0 0-7 4 4.013 4.013 0 0 0-1.5-.3 3.805 3.805 0 0 0 0 7.6h15z"/><path fill="#fcea2b" d="M36 17.6A18.4 18.4 0 1 0 54.4 36 18.352 18.352 0 0 0 36 17.6z"/><path fill="#fff" d="M18.4 54.4a6.736 6.736 0 0 1-.6-13.4 5.038 5.038 0 0 1 4.9-5.2 4.847 4.847 0 0 1 4.5 3.2 5.614 5.614 0 0 1 3.1-.9 6.424 6.424 0 0 1 6.3 6.4 4.552 4.552 0 0 1 2-.5 5.17 5.17 0 0 1 4.9 5.5 5.115 5.115 0 0 1-4.9 4.9z"/><path fill="#d0cfce" d="M53.3 59.9a6.744 6.744 0 0 0 6.8-6.8 6.841 6.841 0 0 0-6.2-6.8 5.335 5.335 0 0 0-5.3-5.3 5.502 5.502 0 0 0-4.9 3.2 6.697 6.697 0 0 0-9.2 2.5 8.017 8.017 0 0 0-.9 3 5.28 5.28 0 0 0-4.4 9.6 5.45 5.45 0 0 0 2.2.5h21.9z"/><path fill="#fff" d="M38.2 27.1a5.549 5.549 0 0 1-5.5-5.5 5.61 5.61 0 0 1 5-5.5 4.268 4.268 0 0 1 4.3-4.3 4.136 4.136 0 0 1 3.9 2.6 5.432 5.432 0 0 1 8.2 4.5 4.21 4.21 0 0 1 5.6 2.1 4.296 4.296 0 0 1-2.1 5.6 3.922 3.922 0 0 1-1.8.4H38.2z"/><path fill="none" stroke="#000" stroke-linecap="round" stroke-linejoin="round" stroke-width="2" d="M53.4 29.9a18.149 18.149 0 0 1 1 6.1 17.702 17.702 0 0 1-.1 2.3m-36.6-4.2A18.27 18.27 0 0 1 30 18.6"/><path d="M31.2 32a2.4 2.4 0 1 1-2.4-2.4 2.433 2.433 0 0 1 2.4 2.4m14.4 0a2.4 2.4 0 1 1-2.4-2.4 2.433 2.433 0 0 1 2.4 2.4"/><path fill="none" stroke="#000" stroke-linecap="round" stroke-linejoin="round" stroke-width="2" d="M31.9 15.3a3.495 3.495 0 0 0-6.7-1.4 4.46 4.46 0 0 0-6.1 1.7 6.637 6.637 0 0 0-.6 2 3.468 3.468 0 1 0-2.9 6.3 3.194 3.194 0 0 0 1.4.3m4.9 29.3h-3.7a6.11 6.11 0 0 1-.5-12.2h0a4.695 4.695 0 0 1 4.7-4.7 4.786 4.786 0 0 1 4.4 2.9 6.114 6.114 0 0 1 7.6 1.3m18.9 19.1a6.744 6.744 0 0 0 6.8-6.8 6.841 6.841 0 0 0-6.2-6.8h0a5.335 5.335 0 0 0-5.3-5.3 5.502 5.502 0 0 0-4.9 3.2 6.697 6.697 0 0 0-9.2 2.5 8.017 8.017 0 0 0-.9 3 5.28 5.28 0 0 0-4.4 9.6 5.45 5.45 0 0 0 2.2.5h21.9zM38.2 27.1a5.549 5.549 0 0 1-5.5-5.5 5.61 5.61 0 0 1 5-5.5h0a4.268 4.268 0 0 1 4.3-4.3 4.136 4.136 0 0 1 3.9 2.6 5.432 5.432 0 0 1 8.2 4.5 4.21 4.21 0 0 1 5.6 2.1 4.296 4.296 0 0 1-2.1 5.6 3.922 3.922 0 0 1-1.8.4H38.2z"/></svg>