<svg viewBox="0 0 72 72" xmlns="http://www.w3.org/2000/svg"><path fill="#d0cfce" d="M48.867 30.378s-24 23-27 20 20-27 20-27 4-5 8-1-1 8-1 8z"/><path fill="#e27022" d="m31.847 55.208-2.17 3.25a.751.751 0 0 1-1.17.09l-7.45-8.12-8.25-7.56a.751.751 0 0 1 .09-1.17l3.25-2.17a.753.753 0 0 1 .86.03l8.52 6.41 6.29 8.38a.753.753 0 0 1 .03.86zm27.14-3.7-5.56 3.01a1.62 1.62 0 0 1-1.71-.38l-18.06-14.89-.62-.5-.5-.62-14.89-18.06a1.62 1.62 0 0 1-.38-1.71l3.01-5.56c.38-.69 1.49-.56 2.28.27l17.55 18.61 18.61 17.55c.83.79.96 1.9.27 2.28z"/><path fill="#92d3f5" d="M42.911 33.32a.997.997 0 0 1-.71-.296l-2.991-3.019a1 1 0 0 1-.027-1.38l1.372-1.415a1.885 1.885 0 0 1 1.358-.607 1.976 1.976 0 0 1 1.387.562l1.774 1.775a1.92 1.92 0 0 1 .56 1.39 1.886 1.886 0 0 1-.61 1.36l-1.438 1.369a.999.999 0 0 1-.675.261z"/><g fill="none" stroke="#000" stroke-linecap="round" stroke-linejoin="round"><path stroke-width="2" d="m49.267 32.978-1.53-1.53m-6.94-6.94-1.53-1.53m.592-2.399-3 3m14.702 8.702-3 3m-14.904 3.967 2.78 2.29a97.783 97.783 0 0 1-9.02 6.94l-1.89-2.51-1.68-1.26a97.388 97.388 0 0 1 6.82-8.85l1.87 2.27.5.62zm15.21-8.87s-.41.39-1.13 1.07c-.9.85-2.3 2.15-3.98 3.67l-3.65-3.44-3-3.18c1.54-1.69 2.84-3.08 3.69-3.99.68-.72 1.07-1.13 1.07-1.13s4-5 8-1-1 8-1 8z"/><path stroke-width="2" d="M40.631 28.6c.236-.257.456-.494.655-.708a.905.905 0 0 1 1.306-.02l1.775 1.775a.905.905 0 0 1-.021 1.308l-.724.665M31.847 55.208l-2.17 3.25a.751.751 0 0 1-1.17.09l-7.45-8.12-8.25-7.56a.751.751 0 0 1 .09-1.17l3.25-2.17a.753.753 0 0 1 .86.03l6.84 5.15 1.68 1.26 1.89 2.51 4.4 5.87a.753.753 0 0 1 .03.86zm27.14-3.7-5.56 3.01a1.62 1.62 0 0 1-1.71-.38l-15.28-12.6-2.78-2.29-.62-.5-.5-.62-1.87-2.27-13.02-15.79a1.62 1.62 0 0 1-.38-1.71l3.01-5.56c.38-.69 1.49-.56 2.28.27l14.55 15.43 3 3.18 3.65 3.44 14.96 14.11c.83.79.96 1.9.27 2.28z"/><path stroke-width="1.798" d="m45.086 13.534 13.812 13.813m-5.687-8.125-2.657 2.656"/></g></svg>