<svg viewBox="0 0 72 72" xmlns="http://www.w3.org/2000/svg"><path fill="none" stroke="#000" stroke-miterlimit="10" stroke-width="2" d="M48.127 18.358a13.242 13.242 0 0 1 1.722.32c1.562.48 2.272 1.823 2.633 3.456a11.798 11.798 0 0 1-.116 5.172c-.498 2.207-1.105 4.386-1.712 6.56a14.1 14.1 0 0 0-.312 4.373 22.593 22.593 0 0 1-.025 4.527 3.432 3.432 0 0 1-.87 1.784 11.858 11.858 0 0 1-1.006.994 5.053 5.053 0 0 0-1.633 2.883 16.513 16.513 0 0 1-.57 2.003 5.683 5.683 0 0 1-2.434 3.007 2.787 2.787 0 0 1-1.987.243 1.812 1.812 0 0 0-1.762.534 10.752 10.752 0 0 1-2.771 2.202 3.013 3.013 0 0 1-2.28.39 2.222 2.222 0 0 1-.804-.443 3.868 3.868 0 0 0-2.908-.875c-.93.05-1.862.105-2.794.104a5.566 5.566 0 0 1-5.235-3.48 25.295 25.295 0 0 1-1.306-3.551 5.018 5.018 0 0 0-1.691-2.604 8.33 8.33 0 0 1-1.126-1.084 4.993 4.993 0 0 1-1.129-2.998 6.649 6.649 0 0 1 2.44-5.896 5.097 5.097 0 0 1 .495-.411 3.393 3.393 0 0 0 1.444-2.141 3.043 3.043 0 0 1 1.475-1.96c.555-.33 1.135-.61 1.671-.974a4.194 4.194 0 0 0 1.19-1.026 13.348 13.348 0 0 1 4.201-3.92 66.184 66.184 0 0 1 10.463-5.58 23.35 23.35 0 0 1 5.188-1.473c.442-.064.89-.08 1.55-.136z"/><path fill="#a57939" d="M34.407 62.864a4.476 4.476 0 0 1-1.15-.149 4.264 4.264 0 0 1-1.485-.734 4.832 4.832 0 0 0-3.424-.893l-.155.008c-1.239.06-2.518.124-3.79.124h-.028a8.902 8.902 0 0 1-8.23-4.9 30.285 30.285 0 0 1-1.9-4.614 5.305 5.305 0 0 0-2.001-2.782 12.206 12.206 0 0 1-1.725-1.482 6.864 6.864 0 0 1-1.867-4.382 8.973 8.973 0 0 1 3.814-8.298l.171-.137a5.341 5.341 0 0 1 .624-.449 3.309 3.309 0 0 0 1.571-2.093A4.888 4.888 0 0 1 17.4 29c.299-.16.602-.311.905-.46.492-.245.956-.474 1.392-.739l.108-.065a4.697 4.697 0 0 0 1.282-.97 18.864 18.864 0 0 1 6.215-5.204 98.525 98.525 0 0 1 14.846-7.089 36.392 36.392 0 0 1 7.49-1.9c.427-.056.859-.084 1.378-.118.257-.017.537-.035.85-.06l.12-.008.117.019c.168.027.36.05.57.077a13.896 13.896 0 0 1 1.953.35c2.276.624 3.716 2.283 4.403 5.07a14.18 14.18 0 0 1-.163 6.989c-.726 2.877-1.626 5.76-2.42 8.302a15.304 15.304 0 0 0-.393 5.163c.017.403.04.806.064 1.208a19.408 19.408 0 0 1-.115 4.706 5.166 5.166 0 0 1-1.502 2.775 17.017 17.017 0 0 1-1.503 1.328 5.245 5.245 0 0 0-1.933 3.066 19.894 19.894 0 0 1-.841 2.65 8.377 8.377 0 0 1-3.86 4.292 5.27 5.27 0 0 1-3.414.426 1.76 1.76 0 0 0-1.66.41 15.762 15.762 0 0 1-4.155 2.946 6.499 6.499 0 0 1-2.727.7z"/><path fill="#fff" d="M35.646 57.9a3.194 3.194 0 0 1-2.1-.781 2.893 2.893 0 0 0-2.2-.633l-.14.008a49.06 49.06 0 0 1-2.683.097h-.026a6.554 6.554 0 0 1-6.134-4.043 25.968 25.968 0 0 1-1.362-3.691 4.025 4.025 0 0 0-1.349-2.11 9.18 9.18 0 0 1-1.264-1.213 5.923 5.923 0 0 1-1.374-3.578A7.645 7.645 0 0 1 19.8 35.22l.12-.106a4.278 4.278 0 0 1 .476-.382 2.382 2.382 0 0 0 1.022-1.54 4.022 4.022 0 0 1 1.936-2.584c.216-.13.436-.25.656-.371.327-.181.654-.36.966-.572a3.54 3.54 0 0 0 .918-.755 14.21 14.21 0 0 1 4.506-4.212 67.717 67.717 0 0 1 10.624-5.662 24.11 24.11 0 0 1 5.41-1.532c.317-.046.636-.07 1.022-.097l.718-.057.13.023c.116.02.25.04.394.06a9.362 9.362 0 0 1 1.443.29c1.725.529 2.81 1.9 3.318 4.196a12.676 12.676 0 0 1-.118 5.608c-.513 2.275-1.157 4.577-1.724 6.609a13.441 13.441 0 0 0-.276 4.067c.012.318.029.637.045.955a17.187 17.187 0 0 1-.083 3.77 4.436 4.436 0 0 1-1.115 2.294 12.798 12.798 0 0 1-1.093 1.078 4.075 4.075 0 0 0-1.308 2.333 17.31 17.31 0 0 1-.605 2.125 6.691 6.691 0 0 1-2.846 3.525 3.708 3.708 0 0 1-2.667.385c-.498-.076-.671.007-.89.236a11.644 11.644 0 0 1-3.037 2.4 4.578 4.578 0 0 1-2.096.596z"/><path fill="#f4aa41" d="M32.064 50.596a8.459 8.459 0 0 1-5.957-2.863 5.348 5.348 0 0 1-1.599-4.586c.93-8.147 18.29-19.072 19.028-19.534a1.065 1.065 0 0 1 1.46.328 3.93 3.93 0 0 0 3.237 1.864 1.069 1.069 0 0 1 1.062 1.376c-.266.857-6.602 20.992-15.564 23.208a6.912 6.912 0 0 1-1.667.207z"/><circle cx="31.001" cy="37.023" r="5" fill="#fff"/><path fill="#d0cfce" d="M29.33 32.671a4.564 4.564 0 0 1 1.099 8.74 4.612 4.612 0 0 1-.463.162 4.565 4.565 0 1 0-.635-8.902z"/><path fill="none" stroke="#d0cfce" stroke-miterlimit="10" stroke-width="2" d="M48.127 18.358a13.242 13.242 0 0 1 1.722.32c1.562.48 2.272 1.823 2.633 3.456a11.798 11.798 0 0 1-.116 5.172c-.498 2.207-1.105 4.386-1.712 6.56a14.1 14.1 0 0 0-.312 4.373 22.593 22.593 0 0 1-.025 4.527 3.432 3.432 0 0 1-.87 1.784 11.858 11.858 0 0 1-1.006.994 5.053 5.053 0 0 0-1.633 2.883 16.513 16.513 0 0 1-.57 2.003 5.683 5.683 0 0 1-2.434 3.007 2.787 2.787 0 0 1-1.987.243 1.812 1.812 0 0 0-1.762.534 10.752 10.752 0 0 1-2.771 2.202 3.013 3.013 0 0 1-2.28.39 2.222 2.222 0 0 1-.804-.443 3.868 3.868 0 0 0-2.908-.875c-.93.05-1.862.105-2.794.104a5.566 5.566 0 0 1-5.235-3.48 25.295 25.295 0 0 1-1.306-3.551 5.018 5.018 0 0 0-1.691-2.604 8.33 8.33 0 0 1-1.126-1.084 4.993 4.993 0 0 1-1.129-2.998 6.649 6.649 0 0 1 2.44-5.896 5.097 5.097 0 0 1 .495-.411 3.393 3.393 0 0 0 1.444-2.141 3.043 3.043 0 0 1 1.475-1.96c.555-.33 1.135-.61 1.671-.974a4.194 4.194 0 0 0 1.19-1.026 13.348 13.348 0 0 1 4.201-3.92 66.184 66.184 0 0 1 10.463-5.58 23.35 23.35 0 0 1 5.188-1.473c.442-.064.89-.08 1.55-.136z"/><g fill="none" stroke="#000"><path stroke-miterlimit="10" stroke-width="2" d="M51.943 13.393a20.529 20.529 0 0 1 2.418.403c2.194.602 3.19 2.292 3.697 4.346a13.328 13.328 0 0 1-.162 6.504c-.7 2.776-1.551 5.516-2.405 8.25a15.933 15.933 0 0 0-.437 5.5 25.466 25.466 0 0 1-.035 5.694 4.156 4.156 0 0 1-1.222 2.244 15.905 15.905 0 0 1-1.413 1.25 6.231 6.231 0 0 0-2.294 3.626 19.127 19.127 0 0 1-.8 2.518 7.371 7.371 0 0 1-3.418 3.783 4.323 4.323 0 0 1-2.79.305 2.739 2.739 0 0 0-2.475.672 14.958 14.958 0 0 1-3.892 2.769 4.652 4.652 0 0 1-3.202.491 3.243 3.243 0 0 1-1.129-.558 5.878 5.878 0 0 0-4.085-1.1c-1.306.064-2.615.132-3.922.13a7.888 7.888 0 0 1-7.352-4.375 29.761 29.761 0 0 1-1.835-4.466 6.299 6.299 0 0 0-2.376-3.275 11.248 11.248 0 0 1-1.58-1.363 5.912 5.912 0 0 1-1.586-3.771 7.979 7.979 0 0 1 3.426-7.415 7.08 7.08 0 0 1 .695-.517 4.286 4.286 0 0 0 2.03-2.693 3.906 3.906 0 0 1 2.072-2.464c.778-.416 1.593-.77 2.346-1.226a5.757 5.757 0 0 0 1.67-1.29 18.107 18.107 0 0 1 5.9-4.93 97.006 97.006 0 0 1 14.694-7.02 35.79 35.79 0 0 1 7.285-1.851c.622-.08 1.252-.1 2.177-.171z"/><path stroke-linecap="round" stroke-linejoin="round" stroke-width="2.127" d="M44.1 24.516a92.913 92.913 0 0 0-10.802 8.065m-6.443 7.237c-1.577 2.67-1.948 5.212.003 7.163C38.451 58.573 48.28 26.867 48.28 26.867"/><circle cx="31.001" cy="37.023" r="5" stroke-linecap="round" stroke-linejoin="round" stroke-width="2.435"/></g></svg>