<svg viewBox="0 0 72 72" xmlns="http://www.w3.org/2000/svg"><path fill="#fff" fill-rule="evenodd" d="m34.46 20.63 8.395.16 9.035 4.038c-2.104 3.297-19.32 7.674-26.09.11zm-23.02 6.96 7.677 5.663-1.251 11.29c-5.338-7.938-2.193-7.998-10.62-16.39zm8.17 1.53 24.84 2.985 2.639 23.31c-11.72 1.044-22.89 1.456-29.79-2.95z"/><path fill="#d0cfce" d="M60.08 50.35c-1.663-7.488-1.856-16.36-2.695-23.85-.9-2.183-4.368-3.677-13.11-3.85 6.846.18 7.639 1.312 7.639 3.042 0 1.853-6.112 2.406-13.65 2.406s-12.67-.815-12.67-2.668c0-1.731.338-2.647 7.184-2.827-10.44.206-13.66 2.564-13.66 5.461 0 3.033 8.017 5.258 19.15 5.258 1.926 0 3.559-.098 5.286-.235l2.626 22v.004l.001.007a1 1 0 0 0 .993.89c3.785-.665 7.676-1.066 11.15-2.782 1.284-.648 1.914-1.425 1.763-2.855z"/><g fill="none" stroke="#000" stroke-linecap="round" stroke-linejoin="round" stroke-width="2"><path d="M26.91 31.33a56.83 56.83 0 0 0 11.38 1.055c2.161 0 4.236-.1 6.165-.284l2.299 19.29"/><path d="M32.29 22.65c-7.285.674-12.52 2.539-12.52 4.735l-2.545 22.98a2.426 2.426 0 0 0 1.106 2.319c2.148 1.368 7.571 3.575 19.97 3.252 11.94-.312 17.41-2.133 19.72-3.298a2.442 2.442 0 0 0 1.339-2.451l-2.538-22.8c0-2.155-5.043-3.992-12.12-4.696"/><path d="M44.72 22.74c4.001.514 6.723 1.525 6.723 2.69 0 1.684-5.693 3.049-12.72 3.049s-12.71-1.365-12.71-3.049c0-1.123 2.532-2.104 6.302-2.633"/><path d="M32.62 25.12v-1.476a3.614 3.614 0 0 1 3.614-3.614h4.987a3.614 3.614 0 0 1 3.614 3.614v1.782M17.86 44.54l-6.463-11.59a14.77 14.77 0 0 0-1.062-1.787l-3.14-2.687a.19.19 0 0 1 .047-.329l4.192-.56 7.678 5.663"/></g></svg>