<svg viewBox="0 0 72 72" xmlns="http://www.w3.org/2000/svg"><path fill="none" stroke="#000" stroke-linecap="round" stroke-linejoin="round" stroke-width="2" d="M46.188 18.367C42.97 23.263 41 31.007 41 34c0-2.408 3.12-7.637 7.396-12M34.2 17.037C30.976 21.733 29 29.3 29 32.895c0-3.02 3.406-8.558 7.977-12.878m-16.087.307C18.45 24.93 17 30.921 17 34c0-3.048 3.47-8.663 8.108-13"/><path fill="#6A462F" d="M64 41c0 10.493-12.536 14-28 14S8 51.493 8 41s8-24 28-24 28 13.507 28 24z"/><path fill="#A57939" d="M46.188 18.367a28.006 28.006 0 0 1 4.307 1.65C45.18 24.645 41 31.213 41 34c0-2.992 1.97-10.736 5.188-15.633zm-5.83-1.14A40.71 40.71 0 0 0 36 17c-.611 0-1.21.013-1.8.037C30.976 21.733 29 29.3 29 32.895c0-3.727 5.19-11.295 11.358-15.668zm-10.762.279C22.902 21.685 17 30.026 17 34c0-3.079 1.449-9.07 3.89-13.676 2.497-1.288 5.39-2.266 8.706-2.818z"/><path fill="none" stroke="#A57939" stroke-linejoin="round" stroke-width="2" d="M46.188 18.367a28.006 28.006 0 0 1 4.307 1.65C45.18 24.645 41 31.213 41 34c0-2.992 1.97-10.736 5.188-15.633zm-5.83-1.14A40.71 40.71 0 0 0 36 17c-.611 0-1.21.013-1.8.037C30.976 21.733 29 29.3 29 32.895c0-3.727 5.19-11.295 11.358-15.668zm-10.762.279C22.902 21.685 17 30.026 17 34c0-3.079 1.449-9.07 3.89-13.676 2.497-1.288 5.39-2.266 8.706-2.818z"/><path fill="none" stroke="#000" stroke-width="2" d="M64 41c0 10.493-12.536 14-28 14S8 51.493 8 41s8-24 28-24 28 13.507 28 24z"/></svg>