<svg viewBox="0 0 72 72" xmlns="http://www.w3.org/2000/svg"><rect x="19.693" y="20.941" rx="6.783" width="32.615" height="38.612" fill="#a57939"/><path fill="#b1cc33" d="M33.427 38.127c1.806-2.92 5.868-3.617 5.868-3.617s1.118 3.996-.67 6.839-5.869 3.616-5.869 3.616-1.136-3.919.67-6.838z"/><g fill="none" stroke="#000" stroke-width="2"><path d="M33.645 38.054c1.806-2.92 5.868-3.616 5.868-3.616s1.118 3.996-.67 6.838-5.869 3.617-5.869 3.617-1.136-3.919.67-6.839zM32.1 46.457l.807-1.658" stroke-linecap="round" stroke-linejoin="round"/><g stroke-miterlimit="10"><path stroke-linecap="round" d="M28.157 25.663c0-7.445 3.416-13.48 7.63-13.48s7.631 6.035 7.631 13.48"/><rect x="19.693" y="20.941" rx="6.783" width="32.615" height="38.612"/></g></g></svg>