<svg viewBox="0 0 72 72" xmlns="http://www.w3.org/2000/svg"><path fill="none" stroke="#000" stroke-linecap="round" stroke-linejoin="round" stroke-width="2" d="M16.5 4.8h39v62.4h-39z"/><path fill="none" stroke="#000" stroke-linecap="round" stroke-linejoin="round" stroke-width="2" d="M21.02 23.286c-.672.15 3.942-6.425 11.427-2.527 0 0 4.5-10.779 14.41-6.75 0 0-8.169 6.263-6.026 5.992 8.258-1.042 9.357 4.385 9.357 4.385-10.071-2.839-4.378 5.601-4.378 5.601-6.854-6.84-14.474-5.717-19.954-.724 0 0 2.964-7.716-4.835-5.977zm4.976 19.494c-1.21.004-6.32 3.438-6.32 5.003 0 0 6.57-1.77 8.254-1.168 0 0-1.94 3.815-1.819 5.86 0 0 6.372-3.142 9.882-3.142m9.997-6.553c1.211.004 6.32 3.438 6.32 5.003 0 0-6.57-1.77-8.254-1.168 0 0 1.94 3.815 1.819 5.86 0 0-6.372-3.142-9.882-3.142M23.37 7.35v4.5a2.5 2.5 0 0 1-2.5 2.5h0a2.49 2.49 0 0 1-1.673-.642M48.63 64.216v-4.5a2.5 2.5 0 0 1 2.5-2.5h0a2.49 2.49 0 0 1 1.673.642"/><circle cx="50.782" cy="27.475" r="1.949"/><circle cx="48.833" cy="16.482" r="1.949"/><circle cx="20.68" cy="26.467" r="1.949"/><path d="M41.772 31.097a1.949 1.949 0 1 1-1.95-1.95 1.95 1.95 0 0 1 1.95 1.95m-7.796 0a1.949 1.949 0 1 1-1.949-1.95 1.95 1.95 0 0 1 1.95 1.95m1.948 9.746a7.457 7.457 0 0 1-3.36-.836.975.975 0 1 1 .873-1.743 5.24 5.24 0 0 0 4.974 0 .975.975 0 1 1 .872 1.743 7.457 7.457 0 0 1-3.359.836z"/></svg>