<svg viewBox="0 0 72 72" xmlns="http://www.w3.org/2000/svg"><path d="M66.4 13.9a10.89 10.89 0 0 0-3.1-.8h0a7.395 7.395 0 0 0-14.2-2.9A8.684 8.684 0 0 0 44.4 9M6.2 4.9a8.188 8.188 0 0 1 7.5 5 10.457 10.457 0 0 1 13.2 2.4m26.4 10.4a7.098 7.098 0 0 1 10-.4 6.822 6.822 0 0 1 2.3 5.2h0M33.4 38V9.3h5.3v30.1m7.1-14.7v18.5m14.4-4.6c-3.3-2.7-6.9-5.8-8.8-7.7-2.8-2.8-8.9-10.1-12.5-14.4m-.2-5.6s10.8 13.2 14.8 17.2c4.1 4.1 13.3 11.5 13.3 11.5M24.1 36v-9M56 41.4v-6.2m-41.8 9.5v-7.6m-4.5 3.4c3.1-2.6 8.2-7 10.9-9.7 2.8-2.8 9-10.1 12.6-14.4m.1-5.4S22.5 24.1 18.5 28.2c-4.1 4-13.2 11.7-13.2 11.7m13 5.4a4.196 4.196 0 0 1 2.4-.7h0a5.122 5.122 0 0 1 5.1-5.1 5.022 5.022 0 0 1 4.7 3.1 6.575 6.575 0 0 1 9 2.5 7.502 7.502 0 0 1 .9 3m-7.3 18.3a6.452 6.452 0 0 0-.2-8.7 1.756 1.756 0 0 0-.5-.4 6.258 6.258 0 0 0-6.8-.9 8.792 8.792 0 0 0-1-3.6 8.16 8.16 0 0 0-7.2-4.2 8.686 8.686 0 0 0-4.1 1.1 6.321 6.321 0 0 0-5.9-3.9 5.867 5.867 0 0 0-2.3.4m31.2 8.5h.2c.1 0 .3-.1.4-.1a.601.601 0 0 0 .4-.1h.9a7.173 7.173 0 0 1 2.9.6 10.039 10.039 0 0 1 .4-2.4 4.18 4.18 0 0 1 .4-1 9.202 9.202 0 0 1 5.5-4.9 9.54 9.54 0 0 1 7.4.7 7.134 7.134 0 0 1 9.3-3.8 6.342 6.342 0 0 1 2.3 1.6M21.6 19.9a7.36 7.36 0 0 0-6.5-4.4 6.963 6.963 0 0 0-2.5.5h0A7.109 7.109 0 0 0 8 22.6h0a4.53 4.53 0 0 0-1.6.3 4.15 4.15 0 0 0-1.3.7" fill="none" stroke="#000" stroke-linecap="round" stroke-linejoin="round" stroke-width="2"/></svg>