<svg viewBox="0 0 72 72" xmlns="http://www.w3.org/2000/svg"><g fill="none" stroke="#000" stroke-linecap="round" stroke-linejoin="round" stroke-width="2"><path d="M50.923 66.944v-30h16v30m-62 0v-21h34v21"/><path d="M34.923 42.944v-10h12v34m-36-24v-14h8v14m38 3h-2v-5m8 15h-2v-5m-32 4h-2v-5m8 5h-2v-5m2 15h-2v-5m-16-5h-2v-5m-4 5h-2v-5m2 15h-2v-5m14 5h-2v-5m36 6h-2v-5m8 5h-2v-5m-46-29v11m24-7v7m4-7v31M14 12.842a2 2 0 0 1 0-4m8 14a2 2 0 0 1 0-4m11-2a2 2 0 1 1 0-4m1 15a2 2 0 0 1 0-4m22 2c-.484.527-9.016-2.397-9-9 .01-4.4 3.813-8.554 9-9a22.137 22.137 0 0 0-2.078 2.087A10.451 10.451 0 0 0 51 16.842c.063 2.889 1.758 5.223 3.16 6.797 1.102 1.235 2.024 2.003 1.84 2.203z"/></g></svg>