<svg viewBox="0 0 72 72" xmlns="http://www.w3.org/2000/svg"><g fill="none" stroke="#000" stroke-linecap="round" stroke-linejoin="round" stroke-miterlimit="10"><path stroke-width="2" d="M68 47.896v20.062H4V27.833C4 13.148 13.579 4 27.836 3.997"/><path stroke-width="2" d="M68 37.506C64.353 39.423 60.656 40.7 56.4 41 26.25 43.125 15 19.125 27.836 3.997"/><path stroke-width="2" d="M68 47.896c-4.833 2.687-11.25 3.371-19.016 2.988-34.993-3.259-37.603-36.5-21.148-46.887"/><path stroke-width="1.9" d="M44.857 9.722c1.674 1.907 1.579 4.722-.21 6.293s-4.596 1.298-6.27-.608c0 0-2.07-2.286-3.018-8.876 0 0-.251-1.32.979-.96 6.412 1.79 8.519 4.151 8.519 4.151"/><path stroke-width="2" d="M63.875 63.278c-3.424 0-3.424-2.055-6.848-2.055-3.421 0-3.421 2.055-6.843 2.055-3.425 0-3.425-2.055-6.85-2.055-3.427 0-3.427 2.055-6.855 2.055s-3.427-2.055-6.854-2.055"/></g></svg>