<svg viewBox="0 0 72 72" xmlns="http://www.w3.org/2000/svg"><g fill="none" stroke="#000" stroke-linecap="round" stroke-width="2"><path stroke-linejoin="round" d="M51.013 66.981v-30h16v30m-62 0v-21h34v21"/><path stroke-linejoin="round" d="M35.013 42.981v-10h12v34m-36-24v-14h8v14m38 3h-2v-5m8 15h-2v-5m-32 4h-2v-5m8 5h-2v-5m2 15h-2v-5m-16-5h-2v-5m-4 5h-2v-5m2 15h-2v-5m14 5h-2v-5m36 6h-2v-5m8 5h-2v-5m-46-29v11m24-7v7m4-7v31"/><path stroke-miterlimit="10" d="M23.875 42.982a15.002 15.002 0 1 1 28.091-9.037"/></g></svg>