<svg viewBox="0 0 72 72" xmlns="http://www.w3.org/2000/svg"><g stroke="#000" stroke-linecap="round" stroke-linejoin="round"><path stroke-width=".25" d="M34 37h4v2h-4z"/><path fill="none" stroke-width="2" d="M36 64a28 28 0 0 1 0-56m0 0a28 28 0 0 1 0 56"/><path fill="none" stroke-width="2" d="M36 39.5c1.105 0 2.5-.895 2.5-2H34a2 2 0 0 0 2 2zm-9.08 6.42s3.705 3.389 9.652 3.771c6.942.314 10.42-3.695 10.42-3.695"/><circle cx="26.5" cy="27.5" r="5" fill="none" stroke-width="2"/><circle cx="45.5" cy="27.5" r="5" fill="none" stroke-width="2"/><circle cx="45.5" cy="27.5" r="5" fill="none"/><circle cx="43.45" cy="27.75" r="1.75" stroke-width="2"/><circle cx="26.5" cy="27.5" r="5" fill="none"/><circle cx="24.25" cy="27.75" r="1.75" stroke-width="2"/></g></svg>