<svg viewBox="0 0 72 72" xmlns="http://www.w3.org/2000/svg"><circle cx="36" cy="27.25" r="3"/><path fill="none" stroke="#000" stroke-linecap="round" stroke-linejoin="round" stroke-miterlimit="10" stroke-width="2" d="M35.696 46c-1.75 1.946-4.075 2.277-5.706 2.216-1.313-.05-2.603-.445-3.646-1.244-.964-.739-1.85-1.907-.688-3.16 2.775-3.081-.5-3.437-.5-3.437s-7.938-.563-3.563-5.375c2.598-2.858 4.089-6.126 4.92-8.605.81-2.412.652-5.038-.404-7.353-2.11-4.623-5.052-8.645-8.737-12.192-.923-.888-.416-2.431.855-2.59A33.28 33.28 0 0 1 22.369 4C40.446 4 55.1 18.327 55.1 36S40.446 68 22.37 68c-1.288 0-2.558-.075-3.805-.219-1.384-.16-1.861-1.948-.706-2.727 7-4.717 9.385-9.417 9.797-13.6m-1.827-4.939c-3.264 2.861 1.827 4.94 1.827 4.94"/><path fill="none" stroke="#000" stroke-linecap="round" stroke-linejoin="round" stroke-miterlimit="10" stroke-width="2" d="M31.219 19.875s4.781-3 9.562 1.906"/></svg>