<svg viewBox="0 0 72 72" xmlns="http://www.w3.org/2000/svg"><circle cx="36" cy="27.25" r="3"/><path fill="none" stroke="#000" stroke-linecap="round" stroke-linejoin="round" stroke-miterlimit="10" stroke-width="2" d="M44.344 51.455c.412 4.182 2.797 8.882 9.797 13.6 1.155.778.678 2.567-.706 2.726a33.24 33.24 0 0 1-3.804.219C31.554 68 16.9 53.673 16.9 36c0-17.673 14.654-32 32.73-32 1.405 0 2.787.09 4.143.26 1.271.159 1.778 1.702.855 2.59-3.685 3.547-6.627 7.57-8.737 12.192a10.023 10.023 0 0 0-.405 7.353c.832 2.479 2.323 5.747 4.92 8.605 4.376 4.813-3.562 5.375-3.562 5.375s-3.146.583-.5 3.438c1.161 1.252.276 2.42-.688 3.159-1.043.799-2.333 1.194-3.646 1.244-1.631.061-3.955-.27-5.706-2.216m8.04 5.455s5.091-2.079 1.827-4.94"/><path fill="none" stroke="#000" stroke-linecap="round" stroke-linejoin="round" stroke-miterlimit="10" stroke-width="2" d="M40.781 19.875s-4.781-3-9.562 1.906"/></svg>