<svg viewBox="0 0 72 72" xmlns="http://www.w3.org/2000/svg"><g fill="none" stroke="#000" stroke-linecap="round" stroke-linejoin="round" stroke-miterlimit="10" stroke-width="2"><path d="M38.387 35.913c-.721.16-1.974.266-3.4.266-2.236 0-4.049-.26-4.049-.582m7.449 8.013c-.721.16-1.974.266-3.4.266-2.236 0-4.049-.26-4.049-.581m7.449-15.079c-.721.16-1.974.266-3.4.266-2.236 0-4.049-.261-4.049-.582m7.449-7.382c-.721.16-1.974.266-3.4.266-2.236 0-4.049-.26-4.049-.582"/><path d="M29.663 49.462c1.294-.963 1.276-2.236 1.276-2.236V8.639a5.082 5.082 0 1 1 10.165 0v38.587s.005 1.286 1.298 2.249a10.146 10.146 0 0 1 3.788 7.916c0 5.614-4.55 10.165-10.165 10.165S25.86 63.005 25.86 57.391c0-1.536.34-2.992.95-4.297"/><path d="M38.387 12.82c-.721.16-1.974.266-3.4.266-2.236 0-4.049-.26-4.049-.581"/></g></svg>