<svg viewBox="0 0 72 72" xmlns="http://www.w3.org/2000/svg"><g fill="none" stroke="#000" stroke-linecap="round" stroke-linejoin="round" stroke-miterlimit="10"><path stroke-width="1.8" d="M22.353 51.674c-.752 1.163-2.135 1.603-3.09.985-.956-.618-1.122-2.061-.37-3.224 0 0 .876-1.508 4.006-3.039 0 0 .617-.353.573.32-.192 3.5-1.12 4.958-1.12 4.958m30.105 0c-.751 1.163-2.134 1.603-3.09.985s-1.121-2.061-.37-3.224c0 0 .876-1.508 4.007-3.039 0 0 .617-.353.572.32-.191 3.5-1.119 4.958-1.119 4.958m-15.052 0c-.752 1.163-2.134 1.603-3.09.985s-1.122-2.061-.37-3.224c0 0 .876-1.508 4.006-3.039 0 0 .617-.353.573.32-.191 3.5-1.119 4.958-1.119 4.958m-8.026 7.571c-.752 1.163-2.134 1.603-3.09.985-.956-.617-1.122-2.061-.37-3.224 0 0 .876-1.508 4.006-3.039 0 0 .617-.353.573.32-.192 3.5-1.12 4.958-1.12 4.958m15.053 0c-.751 1.163-2.134 1.603-3.09.985s-1.122-2.061-.37-3.224c0 0 .876-1.508 4.007-3.039 0 0 .616-.353.572.32-.191 3.5-1.119 4.958-1.119 4.958"/><path stroke-width="2" d="M19.279 22.317a.756.756 0 0 1-.672.678c-4.3.46-7.607 4.694-7.607 9.847 0 5.46 3.787 9.888 8.459 9.888h32.248c5.132 0 9.293-4.678 9.293-10.45 0-5.53-3.821-10.057-8.657-10.424a.805.805 0 0 1-.74-.65c-1.08-5.547-6.064-9.716-11.956-9.716-3.829 0-7.24 1.734-9.455 4.491-.216.27-.58.393-.899.26-.852-.358-1.752-.531-2.76-.531-3.806 0-6.93 2.905-7.254 6.607z"/></g></svg>