<svg viewBox="0 0 72 72" xmlns="http://www.w3.org/2000/svg"><g fill="none" stroke="#000" stroke-linecap="round" stroke-linejoin="round" stroke-miterlimit="10"><path stroke-width="1.9" d="m11.265 40.762-3.2 1.796 1.666-7.976-8.064-1.162 6.035-5.473-5.84-5.682 8.103-.877-1.393-8.03 7.072 4.056 3.595-7.318 3.336 7.437 7.208-3.804-1.666 7.976 8.065 1.162-2.924 2.383"/><path stroke-width="1.9" d="M14.255 37.865a10.783 10.783 0 0 1-6.113-9.722c0-5.955 4.827-10.782 10.782-10.782 5.59 0 10.187 4.254 10.729 9.701"/><path stroke-width="2" d="M20.963 37.749a.895.895 0 0 1-.795.802c-5.088.545-9.001 5.554-9.001 11.652 0 6.462 4.481 11.7 10.01 11.7h38.16c6.073 0 10.996-5.535 10.996-12.364 0-6.544-4.521-11.901-10.244-12.336a.952.952 0 0 1-.876-.769c-1.278-6.564-7.175-11.497-14.147-11.497-4.531 0-8.567 2.051-11.188 5.315-.257.319-.686.465-1.065.306-1.008-.423-2.073-.628-3.265-.628-4.504 0-8.201 3.438-8.585 7.819z"/></g></svg>