<svg viewBox="0 0 72 72" xmlns="http://www.w3.org/2000/svg"><g fill="none" stroke="#000" stroke-linecap="round" stroke-linejoin="round" stroke-miterlimit="10"><path stroke-width="1.9" d="m14.524 33.667-3.2 1.796 1.666-7.976-8.064-1.162 6.035-5.473-5.84-5.682 8.103-.877-1.394-8.03 7.073 4.056 3.595-7.318 3.335 7.437 7.21-3.804-1.667 7.976 8.065 1.162-2.924 2.383"/><path stroke-width="1.9" d="M32.912 19.968c-.542-5.448-5.139-9.702-10.729-9.702-5.955 0-10.782 4.828-10.782 10.783 0 4.282 2.496 7.98 6.113 9.721"/><path stroke-width="2" d="M25.62 30.56a.756.756 0 0 1-.673.678c-4.3.46-7.607 4.694-7.607 9.847 0 5.46 3.788 9.888 8.46 9.888h32.247c5.133 0 9.293-4.678 9.293-10.45 0-5.53-3.82-10.057-8.656-10.425a.805.805 0 0 1-.741-.649c-1.08-5.547-6.064-9.716-11.955-9.716-3.83 0-7.24 1.734-9.455 4.491-.217.27-.58.393-.9.26-.852-.358-1.752-.531-2.76-.531-3.805 0-6.93 2.905-7.254 6.607z"/><path stroke-width="1.8" d="M28.693 59.223c-.751 1.164-2.134 1.603-3.09.986-.956-.618-1.121-2.062-.37-3.225 0 0 .876-1.508 4.007-3.038 0 0 .617-.354.572.32-.191 3.5-1.119 4.957-1.119 4.957m30.105 0c-.752 1.164-2.134 1.603-3.09.986-.956-.618-1.122-2.062-.37-3.225 0 0 .876-1.508 4.006-3.038 0 0 .617-.354.573.32-.192 3.5-1.119 4.957-1.119 4.957m-15.052 0c-.752 1.164-2.135 1.603-3.09.986-.956-.618-1.122-2.062-.37-3.225 0 0 .876-1.508 4.006-3.038 0 0 .617-.354.572.32-.19 3.5-1.118 4.957-1.118 4.957m-8.026 7.571c-.752 1.164-2.135 1.603-3.09.986-.957-.618-1.122-2.062-.37-3.225 0 0 .876-1.508 4.006-3.038 0 0 .617-.354.572.32-.191 3.5-1.118 4.957-1.118 4.957m15.052 0c-.752 1.164-2.134 1.603-3.09.986-.956-.618-1.122-2.062-.37-3.225 0 0 .876-1.508 4.006-3.038 0 0 .617-.354.573.32-.192 3.5-1.12 4.957-1.12 4.957"/></g></svg>