<svg viewBox="0 0 72 72" xmlns="http://www.w3.org/2000/svg"><path d="M5.3 11.8c1.3-1.5 3.2-1.9 5.2-1.9a6.943 6.943 0 0 1 5.1 2.1 5.415 5.415 0 0 1 1.5 2.2 9.54 9.54 0 0 1 7.4-.7c.1 0 .2.1.3.1a10.092 10.092 0 0 1 1.5.7 5.582 5.582 0 0 1 .8.5M24.5 24a7.302 7.302 0 0 1 8-6.6 10.548 10.548 0 0 1 2.4.6 9.57 9.57 0 0 1 9.9-9.1 10.635 10.635 0 0 1 4.3 1.2 7.342 7.342 0 0 1 9.7-3.9 7.439 7.439 0 0 1 4.5 6.8h0c.3 0 .5.1.8.1a4.331 4.331 0 0 1 .5.1h.1a.367.367 0 0 1 .3.1 6.373 6.373 0 0 0 .7.2c.2.1.5.2.7.3.1.1.3.1.4.2M38.2 30.3c0-2.5 1.3-4.4 4.2-6.3a10.815 10.815 0 0 1 5-1.5 8.923 8.923 0 0 1 4.5 1.2 7.134 7.134 0 0 1 9.3-3.8 7.36 7.36 0 0 1 4.4 6.5h0m-23.2 12a4.432 4.432 0 0 0-5.7-.7c-1.4-6.8-5.6-7.6-6.6-8.1a4.923 4.923 0 0 0-1.7-.6h0a8.524 8.524 0 0 0-2.3-.3 9.954 9.954 0 0 0-3.8.8h0a2.506 2.506 0 0 0-.7.4 7.36 7.36 0 0 0-6.5-4.4 6.963 6.963 0 0 0-2.5.5h0A7.109 7.109 0 0 0 8 32.6h0a4.53 4.53 0 0 0-1.6.3 4.15 4.15 0 0 0-1.3.7m42.8 7.5a7.306 7.306 0 0 1 7.7-7 7.487 7.487 0 0 1 3.3 1 5.752 5.752 0 0 1 7.4-3.1m-48 12.3a4.196 4.196 0 0 1 2.4-.7h0a5.122 5.122 0 0 1 5.1-5.1 5.022 5.022 0 0 1 4.7 3.1 6.575 6.575 0 0 1 9 2.5 7.502 7.502 0 0 1 .9 3m-7.3 19.3a6.452 6.452 0 0 0-.2-8.7 1.756 1.756 0 0 0-.5-.4 6.258 6.258 0 0 0-6.8-.9 8.792 8.792 0 0 0-1-3.6 8.16 8.16 0 0 0-7.2-4.2 8.686 8.686 0 0 0-4.1 1.1 6.321 6.321 0 0 0-5.9-3.9 5.867 5.867 0 0 0-2.3.4m31.3 8.5a12.252 12.252 0 0 1 1.9-.2 5.829 5.829 0 0 1 2.9.6 10.039 10.039 0 0 1 .4-2.4 4.18 4.18 0 0 1 .4-1 .098.098 0 0 1 .1-.1l.3-.6a9.52 9.52 0 0 1 2.5-2.8 5.582 5.582 0 0 1 .8-.5 10.092 10.092 0 0 1 1.5-.7c.1 0 .2-.1.3-.1a9.54 9.54 0 0 1 7.4.7 5.415 5.415 0 0 1 1.5-2.2 6.943 6.943 0 0 1 5.1-2.1c2 0 3.9.4 5.2 1.9" fill="none" stroke="#000" stroke-linecap="round" stroke-linejoin="round" stroke-width="2"/></svg>