<svg viewBox="0 0 72 72" xmlns="http://www.w3.org/2000/svg"><g fill="none" stroke="#000" stroke-linecap="round" stroke-linejoin="round" stroke-miterlimit="10" stroke-width="2"><path d="M15.148 53.001a2 2 0 0 1-2-2c0-12.702 10.298-23 23-23s23 10.298 23 23a2 2 0 0 1-2 2h-42z"/><path d="M62.072 46.912a2.997 2.997 0 0 0 2.121-3.674 2.981 2.981 0 0 0-1.709-1.964c1.366-1.565 1.676-3.873.58-5.772a4.996 4.996 0 0 0-5.748-2.282 2.974 2.974 0 0 0-.754-2.93 2.975 2.975 0 0 0-2.46-.847c.398-2.039-.487-4.192-2.385-5.289a4.994 4.994 0 0 0-6.118.897 2.976 2.976 0 0 0-2.118-2.16 2.98 2.98 0 0 0-2.554.497C40.253 21.423 38.409 20 36.216 20c-2.359 0-4.323 1.639-4.85 3.835a2.987 2.987 0 0 0-2.915-.813 2.978 2.978 0 0 0-1.963 1.708c-1.566-1.364-3.873-1.673-5.772-.577a4.99 4.99 0 0 0-2.282 5.746 2.988 2.988 0 0 0-2.932.754 2.98 2.98 0 0 0-.846 2.461c-2.039-.398-4.191.487-5.288 2.386-1.179 2.043-.742 4.564.898 6.118a2.985 2.985 0 0 0-2.164 2.117 3.001 3.001 0 0 0 2.122 3.675m4.773-22.216a4.92 4.92 0 0 0-3.042 1.426 4.908 4.908 0 0 0-1.406 2.88m20.145-10.762a4.927 4.927 0 0 0-3.28-.257 4.92 4.92 0 0 0-2.708 1.854m16.599-1.597a4.927 4.927 0 0 1 3.28-.257 4.92 4.92 0 0 1 2.708 1.854m9.709 4.859a4.92 4.92 0 0 1 3.041 1.426 4.908 4.908 0 0 1 1.406 2.88"/></g></svg>