<svg viewBox="0 0 72 72" xmlns="http://www.w3.org/2000/svg"><g fill="none" stroke="#000" stroke-linecap="round" stroke-linejoin="round" stroke-miterlimit="10" stroke-width="2"><path d="M48.14 15.906a3.004 3.004 0 0 0-1.936-.886c.49-.534.796-1.239.796-2.02a3 3 0 0 0-3-3 3 3 0 0 0-3-3c-.87 0-1.647.376-2.193.967C38.384 6.82 37.292 6 36 6s-2.384.821-2.807 1.967A2.981 2.981 0 0 0 31 7a3 3 0 0 0-3 3 3 3 0 0 0-3 3c0 .781.307 1.486.796 2.02a3.002 3.002 0 0 0-1.933.884m12.117 32.15C34.758 52.794 32.43 57.269 29 61"/><path d="M43 61c-10.666-11.598-10.666-30.402 0-42h2a3 3 0 0 1 3 3v39a5 5 0 0 1-5 5H29a5 5 0 0 1-5-5V22a3 3 0 0 1 3-3h2c3.435 3.734 5.764 8.217 6.986 12.965m6.001-15.971A4.967 4.967 0 0 0 39 15c-.323 0-.638.037-.944.095A4.984 4.984 0 0 0 34 13a4.97 4.97 0 0 0-4.397 2.661"/></g></svg>