<svg viewBox="0 0 72 72" xmlns="http://www.w3.org/2000/svg"><g fill="none" stroke="#000" stroke-miterlimit="10" stroke-width="2"><path stroke-linecap="round" d="M55.232 24.336S57.41 11.25 45.324 11.25"/><path stroke-linejoin="round" d="M31.02 57.7c-.05.01-.09.01-.14.02"/><path stroke-linecap="round" stroke-linejoin="round" d="M60.136 35.753C56.902 48.383 45.45 57.72 31.808 57.72a29.104 29.104 0 0 1-17.5-5.808c-.98-.667-3.61-2.055-2.77-3.696.841-1.642 4.076-.329 4.257-.286.095.032.19.063.286.106 5.543 1.88 11.543 1.954 15.727 1.954 3.82 0 15.18-2.72 17.153-15.747"/><path stroke-linejoin="round" d="M48.605 28.432a1.042 1.042 0 0 0 1.238 1.478c1.5-.45 3.41-.64 4.297.857 1.237 2.087 5.339.529 7.038-.234.461-.207.713-.708.587-1.197-.418-1.616-1.86-5-6.607-5-3.694 0-5.607 2.257-6.553 4.096z"/><path stroke-linejoin="round" d="M61.18 30.53c-.07.03-.14.06-.21.1-1.36.59-3.88 1.51-5.54 1.06-.54-.14-1-.43-1.29-.92-.89-1.5-2.8-1.31-4.3-.86-.2.06-.4.06-.57.02-.61-.16-.99-.85-.66-1.5.89-1.74 2.64-3.84 5.95-4.06a5.736 5.736 0 0 1 1.16 0c4.3.24 5.65 3.42 6.04 4.97.13.48-.12.99-.58 1.19z"/></g></svg>