<svg viewBox="0 0 72 72" xmlns="http://www.w3.org/2000/svg"><g fill="none" stroke="#000" stroke-linecap="round" stroke-linejoin="round" stroke-width="2"><path d="M23.697 59.43s-8.769-5.362-9.193-14.698c-.436-9.587 9.214-26.947 9.214-26.947s-4.72 20.706-.021 41.645zm10.391-18.141c-3.438 3.548-7.676 10.246-5.83 20.735m28.826-32.152c1.343 2.493-3.056 13.578-9.733 14.835-2.153.405-3.875-.063-5.729-1.462-.998-.754-1.823-1.721-2.458-2.8v0c-1.554-2.366-.844-5.708.939-7.908 4.278-5.277 15.426-5.031 16.98-2.665m-3.546-7.53c2.163-.503 4.295-.322 4.838.362m0 0c.387.585.232 2.163-.377 3.833m-23.432 9.391c-2.132-1.863-1.89-4.848-.761-7.445 2.706-6.232 13.512-8.983 15.645-7.12"/><path d="M49.304 21.195c.506.527.797 1.59.846 3.102"/></g></svg>