<svg viewBox="0 0 72 72" xmlns="http://www.w3.org/2000/svg"><path fill="none" stroke="#000" stroke-linecap="round" stroke-linejoin="round" stroke-width="2" d="M20.559 46.521c-1.335-.73-2.621-1.694-3.66-2.964-3.992-4.886-2.804-12.462-2.804-12.462s5.013.23 9.042 2.902"/><path fill="none" stroke="#000" stroke-linecap="round" stroke-linejoin="round" stroke-miterlimit="10" stroke-width="2" d="M34.07 24.62c-1.77-3.312-2.951-8.311 2.202-13.98l1.557 1.558h.003m0 0h.002l1.558-1.557c5.153 5.668 3.972 10.667 2.202 13.98h.165c2.273-2.7 6.275-5.22 13.297-2.554l-.879 2.02v.003l2.02.879c-3.08 6.248-8.694 7.398-12.2 7.163M34.07 24.62c-2.273-2.698-6.18-5.218-13.201-2.553l.878 2.02v.003l-2.02.879c3.08 6.248 8.694 7.398 12.2 7.163"/><path fill="none" stroke="#000" stroke-linecap="round" stroke-linejoin="round" stroke-miterlimit="10" stroke-width="2" d="M31.927 32.132c-3.335 1-7.979 4-8.83 10.658l2.197.175.001.002-.174 2.196c11.572.368 12.444-9.358 12.444-9.358h.699s.972 9.726 12.544 9.358l-.175-2.196.002-.002 2.196-.175c-.85-6.658-5.494-9.657-8.83-10.658"/><path fill="none" stroke="#000" stroke-linecap="round" stroke-linejoin="round" stroke-miterlimit="10" stroke-width="2" d="M37.874 33.008a3.495 3.495 0 1 1 1.078-6.847m-.689 3.352 2.482-1.03"/><circle cx="43.937" cy="27.073" transform="rotate(-24.122 43.938 27.073)" r="1.398"/><path fill="none" stroke="#000" stroke-linecap="round" stroke-linejoin="round" stroke-miterlimit="10" stroke-width="2" d="m38.263 29.514 2.457 2.46"/><path fill="none" stroke="#000" stroke-linecap="round" stroke-linejoin="round" stroke-width="2" d="M37.163 43.893c-3.438 3.548-7.676 10.246-5.83 20.735"/></svg>