<svg viewBox="0 0 72 72" xmlns="http://www.w3.org/2000/svg"><g fill="none" stroke="#000" stroke-miterlimit="10" stroke-width="2"><path d="M55.444 43.14c3.919 3.918 3.726 10.4-.577 14.067-3.821 3.256-9.589 2.787-13.17-.732-9.193-9.032-20.466-9.496-21.8-9.52-.051 0-.078-.058-.044-.095 1.404-1.495 19.344-19.945 35.19-4.098.138.126.27.246.4.377z"/><path stroke-linecap="round" d="M37.487 32.46a34.16 34.16 0 0 1 2.076-3.802c2.607-4.148 5.518-6.958 6.076-7.485.03-.03.09-.01.09.04.02.871.22 5.946 2.844 11.916l.262.56M36.105 25.2c-5.649-5.65-11.308-8.997-15.568-9.778a10.523 10.523 0 0 0-1.805-.172c-1.572 0-2.87.456-3.793 1.37-3.458 3.468-.253 12.332 8.58 21.165"/></g></svg>