<svg viewBox="0 0 72 72" xmlns="http://www.w3.org/2000/svg"><g fill="none" stroke="#000" stroke-linecap="round" stroke-width="2"><path stroke-linejoin="round" d="M35.79 63.943V52.776l-7.631-7.516m7.63 7.516 4.368-4.546"/><path stroke-miterlimit="10" d="M63.374 25.773c0-5-5.289-9.06-11.813-9.06a15.38 15.38 0 0 0-1.63.1c-2.764-5.217-8.763-8.84-15.739-8.84-9.593 0-17.369 6.836-17.369 15.268.002.558.038 1.114.108 1.667-4.288 1.36-7.306 4.595-7.306 8.374 0 5 5.29 9.061 11.813 9.061 2.48.021 4.922-.607 7.084-1.822 2.791 2.23 7.257 3.681 12.307 3.681 8.461 0 15.32-4.057 15.32-9.06a5.464 5.464 0 0 0-.094-.987c4.294-1.36 7.32-4.598 7.32-8.382z"/></g></svg>