<svg viewBox="0 0 72 72" xmlns="http://www.w3.org/2000/svg"><g fill="none" stroke="#000" stroke-width="2"><path stroke-miterlimit="10" d="m16.927 23.498.084.194C34.508 34.184 57 23.614 57 23.614a23.843 23.843 0 0 0-19.356-10.108"/><path stroke-miterlimit="10" d="M16 23.614c17.497 10.492 41 0 41 0"/><path stroke-miterlimit="10" d="M46.473 27.544s4.606 13.533-1.184 25.301"/><path stroke-miterlimit="10" d="M46.473 27.544s4.606 13.533-1.184 25.301"/><path stroke-linecap="round" stroke-linejoin="round" d="M21.977 17.807c-6.157 3.983-10.244 10.39-9.866 17.742.389 7.565 6.78 14.68 13.547 16.362 4.101 1.018 8.704 4.838 10.017 5.983a.625.625 0 0 0 .773.04 69.433 69.433 0 0 1 8.549-4.984c8.574-4.202 13.503-9.836 14.977-17.4 2.29-11.762-10.085-22.043-23.302-22.043a27.39 27.39 0 0 0-11.383 2.485"/><path stroke-miterlimit="10" d="M27.026 27.544a113.756 113.756 0 0 0 1.184 25.301"/></g></svg>