<svg viewBox="0 0 72 72" xmlns="http://www.w3.org/2000/svg"><g fill="none" stroke="#000" stroke-linecap="round" stroke-linejoin="round" stroke-width="2"><path stroke-miterlimit="10" d="M49.867 30.398c-.442.635-1.258 1.02-2.02 1.253a7.055 7.055 0 0 1-3.132.235 8.703 8.703 0 0 1-4.818-2.452 8.707 8.707 0 0 1-2.393-4.485m2.499-2.127c0-1.63 1.653-2.953 3.692-2.953 2.04 0 3.692 1.322 3.692 2.953"/><path stroke-miterlimit="10" d="M49.41 24.987c0 1.16-1.176 2.102-2.627 2.102-.753 0-1.461-.34-1.998-.834-.833-.764-1.107-2.018-.635-3.045.069-.15.152-.284.252-.388m8.906-6.92c.98-.623 2.405-.137 3.185 1.087.78 1.224.617 2.722-.362 3.346m-1.936 15.589a4.363 4.363 0 0 1-7.63 4.233m-8.402-23.964c-2.253-.855-5.918 1.231-6.512 3.676-.57 2.341.9 6.214 3.153 7.069m16.063-6.104c5.416.628 6.396 6.461 5.802 8.774-.882 3.435-5.39 5.401-8.12 4.69m2.318-13.464a6.762 6.762 0 1 0-12.704-4.64m-3.359 10.744a7.796 7.796 0 1 0 13.745 7.36"/><path d="M25.93 32.31c3.991 4.885 2.804 12.461 2.804 12.461s-7.66-.347-11.653-5.233-2.805-12.462-2.805-12.462 7.661.351 11.653 5.233zm11.174 8.554c-3.438 3.548-7.676 10.246-5.829 20.735"/></g></svg>