<svg viewBox="0 0 72 72" xmlns="http://www.w3.org/2000/svg"><g fill="none" stroke="#000" stroke-linecap="round" stroke-linejoin="round" stroke-width="2"><circle cx="41.438" cy="25.537" r="5"/><path d="M20.837 32.54C24.829 37.424 23.642 45 23.642 45s-7.66-.347-11.653-5.233-2.805-12.462-2.805-12.462 7.66.347 11.653 5.233zm11.173 8.55c-3.437 3.548-7.675 10.246-5.828 20.735m21.007-48.382.533 1.21 1.313-.144a6.285 6.285 0 0 1 5.75 9.961l-.78 1.066.78 1.066a6.285 6.285 0 0 1-5.75 9.961l-1.313-.143-.533 1.21a6.285 6.285 0 0 1-11.5 0l-.533-1.21-1.313.143a6.285 6.285 0 0 1-5.751-9.96l.78-1.067-.78-1.066a6.285 6.285 0 0 1 5.75-9.96l1.314.142.533-1.209a6.285 6.285 0 0 1 11.5 0z"/></g></svg>