<svg viewBox="0 0 72 72" xmlns="http://www.w3.org/2000/svg"><path fill="none" stroke="#000" stroke-linecap="round" stroke-linejoin="round" stroke-width="2" d="M21.818 33.276c3.992 4.886 2.805 12.462 2.805 12.462s-7.66-.347-11.653-5.233c-3.993-4.886-2.805-12.462-2.805-12.462s7.661.351 11.653 5.233zm11.175 8.555c-3.438 3.548-7.676 10.246-5.829 20.735m15.848-36.193c-.001 0 3.03-3.917-.072-7.5m3.47 10.152a3 3 0 1 1-6 0m0 0a3 3 0 0 1-.736-5.909m-8.909-.677c-1.784-2.219-.74-5.933 2.333-8.296 3.072-2.362 7.01-2.477 8.794-.258"/><path fill="none" stroke="#000" stroke-linecap="round" stroke-linejoin="round" stroke-width="2" d="M30.765 22.439c-1.784-2.219-.74-5.933 2.333-8.296 3.072-2.362 7.01-2.477 8.794-.258m-6.487 21.886c-2.675.977-5.857-1.206-7.107-4.874-1.25-3.669-.094-7.434 2.581-8.411m11.108-8.496c1.628-2.337 5.486-2.379 8.617-.094 3.13 2.284 4.348 6.03 2.72 8.366m.152-.03c2.748.747 4.085 4.366 2.987 8.083-1.099 3.716-4.216 6.123-6.964 5.376m-.031-.023c.098 2.846-2.964 5.193-6.839 5.242-3.875.049-7.096-2.218-7.194-5.064"/><circle cx="47.825" cy="25.042" r="1"/><circle cx="47.731" cy="19.443" r="1"/></svg>