<svg viewBox="0 0 72 72" xmlns="http://www.w3.org/2000/svg"><g fill="none" stroke="#000" stroke-linecap="round" stroke-linejoin="round" stroke-miterlimit="10" stroke-width="2"><path d="M27.124 46.732v8.04s-.117 1.357 2.527 1.357h11.77s2.254.397 2.254-1.72v-7.677m17.321-12.774c0 8.837-11.193 9-25 9s-25-.163-25-9 11.193-23 25-23 25 14.164 25 23z"/><path d="M60.996 33.958c0 8.837-11.193 9-25 9s-25-.163-25-9 11.193-23 25-23 25 14.164 25 23z"/><path d="M22.742 15.387s4.692 14.121-10.925 14.012c0 0 3.005-9.064 10.925-14.012z"/><ellipse cx="35.996" cy="30.149" rx="8.021" ry="6.176" transform="rotate(-2.189 35.99 30.143)"/><path d="M49.155 15.387S44.463 29.508 60.08 29.399c0 0-3.005-9.064-10.925-14.012z"/></g></svg>