<svg viewBox="0 0 72 72" xmlns="http://www.w3.org/2000/svg"><g fill="none" stroke="#000" stroke-linecap="round" stroke-linejoin="round" stroke-width="2"><path d="M30.366 41.03c-3.438 3.547-7.676 10.245-5.829 20.734"/><path stroke-miterlimit="10" d="m45.102 29.335 4.599 1.44c2.418.538 4.676.427 5.836-1.636s.428-4.676-1.635-5.836l-1.868-1.05.35-.623.7-1.245c1.16-2.063.429-4.676-1.634-5.836s-4.013-.1-5.837 1.635l-3.182 3.619M35.57 32.006l-1.44 4.6c-.55 2.007-.428 4.675 1.635 5.835s4.676.428 5.836-1.635l1.05-1.867.623.35 1.245.7c2.064 1.16 4.677.428 5.837-1.635s.344-4.06-1.635-5.836l-3.62-3.183M33.77 22.963l-4.518-1.593c-.877-.309-1.786-.538-2.714-.594-1.651-.1-3.07.3-3.956 1.695-1.332 2.096-.457 4.925 1.708 6.142l1.676.943-.35.622-.608 1.081c-1.196 2.128-.488 4.95 1.678 6.074 2.015 1.046 3.965.116 5.7-1.708l3.183-3.62m6.862-12.202 1.44-4.6c.542-2.353.427-4.676-1.636-5.836S37.56 8.94 36.4 11.002l-1.05 1.868-.623-.35-1.245-.7a4.286 4.286 0 0 0-5.836 1.635c-1.16 2.063-.287 4.177 1.635 5.836l4.49 3.672"/></g></svg>