<svg viewBox="0 0 72 72" xmlns="http://www.w3.org/2000/svg"><path fill="none" stroke="#000" stroke-miterlimit="10" stroke-width="2.251" d="M52.01 12.6c.168.168.333.337.495.508 10.49 11.02 10.32 28.47-.498 39.29-10.99 10.99-28.81 10.99-39.8.002z"/><path fill="none" stroke="#000" stroke-miterlimit="10" stroke-width="2.251" d="M49.11 15.44c8.167 8.299 9.065 22.67-.053 32.99-8.942 10.13-25.08 8.628-33.27.357z"/><path fill="none" stroke="#000" stroke-miterlimit="10" stroke-width="2.345" d="M41.09 23.53a12.9 12.9 0 0 1-17.94 17.94z"/><path fill="none" stroke="#000" stroke-linecap="round" stroke-linejoin="round" stroke-width="2.251" d="M31.79 51.06c3.369.537 9.099-.913 13.52-5.585 3.186-3.371 5.996-9.423 5.673-13.39"/><circle cx="50.54" cy="28.03" r="1.173"/></svg>