<svg viewBox="0 0 72 72" xmlns="http://www.w3.org/2000/svg"><g fill="none" stroke="#000" stroke-linecap="round" stroke-linejoin="round" stroke-miterlimit="10" stroke-width="2"><path d="M60.276 30.418c-.1 1.84-.54 3.813-.925 5.646-3.308 15.922-18.608 26.532-34.937 24.742a27.02 27.02 0 0 1-2.413-.363c-7.472-1.718-12.25-8.905-10.719-16.248 1.568-7.526 9.126-12.39 16.868-10.865 0 0 7.748 1.97 12.85-3.182m9.793-18.165C50.19 10.953 49.072 10 47 10"/><path d="M61.69 26.22s-3.72.53-6.8-1.81c-.54 3.78-3.52 6.01-3.52 6.01s-2.97-2.23-3.51-6.01c-.71.54-1.46.93-2.19 1.2-2.42.92-4.62.61-4.62.61s-.63-4.47 2.55-7.66c.65-.66 1.36-1.15 2.07-1.52 2.76-1.44 10.28-1.68 13.48 1.52 3.19 3.19 2.54 7.66 2.54 7.66zM41 30.148c.13-.13.256-.264.381-.403"/></g></svg>