<svg viewBox="0 0 72 72" xmlns="http://www.w3.org/2000/svg"><g fill="none" stroke="#000" stroke-linejoin="round" stroke-miterlimit="10" stroke-width="2"><path stroke-linecap="round" d="M50.307 19.346c6.375 4.057 10.533 10.72 10.533 18.252 0 12.36-11.2 22.381-25.015 22.381S10.81 49.96 10.81 37.597c0-7.374 3.986-13.915 10.136-17.993"/><path d="M46.325 15.849c-.385 1.382-.994 3.031-2.436 4.235C38 25 30.25 23.288 26.817 20.084c-1.36-1.284-2.04-2.853-2.424-4.235-.637-2.282-.362-4.17-.362-4.17s2.282-.328 4.838.582a9.71 9.71 0 0 1 2.622 1.405c.483-3.369 2.732-5.618 3.555-6.342l.307-.252.307.252c.823.724 3.072 2.973 3.555 6.342a9.716 9.716 0 0 1 2.622-1.405c2.557-.91 4.839-.581 4.839-.581s.285 1.887-.352 4.169z"/></g></svg>