<svg viewBox="0 0 72 72" xmlns="http://www.w3.org/2000/svg"><g fill="none" stroke="#000" stroke-linecap="round" stroke-miterlimit="10" stroke-width="2"><path d="M16.03 55.937a5.479 5.479 0 0 1-1.018-6.081c-4.257-8.348-1.675-20.26 6.954-28.89s20.542-11.21 28.89-6.954a5.48 5.48 0 0 1 6.175 1.11 5.48 5.48 0 0 1 1.11 6.175c4.266 8.357 1.675 20.26-6.954 28.89s-20.533 11.22-28.89 6.954a5.48 5.48 0 0 1-6.267-1.204"/><path d="M16.03 55.937a5.479 5.479 0 0 1-1.018-6.081c-4.257-8.348-1.675-20.26 6.954-28.89s20.542-11.21 28.89-6.954a5.48 5.48 0 0 1 6.175 1.11 5.48 5.48 0 0 1 1.11 6.175c4.266 8.357 1.675 20.26-6.954 28.89s-20.533 11.22-28.89 6.954a5.48 5.48 0 0 1-6.267-1.204"/></g></svg>