<svg viewBox="0 0 72 72" xmlns="http://www.w3.org/2000/svg"><g fill="none" stroke="#000"><path stroke-linecap="round" stroke-linejoin="round" stroke-width="2" d="M37.01 21.82c-1.343-7.331-6.229-22.43-22.85-7.574"/><path stroke-miterlimit="10" d="M54.34 32.9a6.679 6.672 0 1 0-8.112-10.32"/><path stroke-miterlimit="10" stroke-width="2" d="M30.48 40.42a6.625 6.619 0 0 1-.949-3.418 6.706 6.699 0 0 1 5.462-6.562"/><ellipse cx="36.57" cy="57.34" rx="6.721" ry="6.715" stroke-miterlimit="10" stroke-width="2"/><path stroke-miterlimit="10" stroke-width="2" d="M36.57 50.62a6.721 6.715 0 0 0 0 13.43m5.6-10.07q.255 0 .506-.019m-.006-.001a6.718 6.711 0 1 0-6.551-3.756"/><path stroke-miterlimit="10" stroke-width="2" d="M36.37 43.28a6.721 6.715 0 1 0-6.042 10.67M43.13 33.73a6.732 6.725 0 0 0-.28 6.416"/><path stroke-miterlimit="10" stroke-width="2" d="M47.91 43.84a6.721 6.715 0 1 0-4.783-10.11m-12.717-.98a6.721 6.715 0 1 0-6.157 11.06m-.003 0a6.775 6.768 0 0 0 1.112.091"/><path stroke-miterlimit="10" stroke-width="2" d="M54.5 32.93a6.721 6.715 0 1 0-8.322-10.35"/><path stroke-miterlimit="10" stroke-width="2" d="M46.68 30.78a6.708 6.701 0 1 0-3.669 2.765"/><path stroke-miterlimit="10" stroke-width="2" d="M35.83 22.48a6.723 6.716 0 0 0-10.9 7.582"/><path stroke-miterlimit="10" stroke-width="2" d="M25.64 22.37a6.721 6.715 0 1 0-6.216 11.3"/><path stroke-linecap="round" stroke-linejoin="round" stroke-width="2" d="M50.57 9.212s-3.357 7.635-15.68 5.496"/></g></svg>