<svg viewBox="0 0 72 72" xmlns="http://www.w3.org/2000/svg"><g fill="none" stroke="#000" stroke-linecap="round" stroke-linejoin="round" stroke-miterlimit="10" stroke-width="2"><path d="M32.88 49.3H16a2 2 0 0 1-2-2v-6.75a2 2 0 0 1 2-2h40a2 2 0 0 1 2 2v6.75a2 2 0 0 1-2 2H39.21zm0 .17H15c-1.104 0-2 .701-2 1.566v4.699c0 .865.896 1.566 2 1.566h42c1.104 0 2-.701 2-1.566v-4.699c0-.865-.895-1.566-2-1.566H39.21zM59 27.93c0 .724-.895 1.312-2 1.312H15c-1.104 0-2-.587-2-1.312 1.484-7.465 11.21-13.23 23-13.23s21.52 5.765 23 13.23z"/><path d="M43.24 38.93H28.76l7.242 7.164z"/><path d="M59.19 34.1c-.762.396-1.358.82-2.487 1.002-1.368.359-3.178.22-4.602 0-1.928-.311-2.302-1.326-4.602-1.708a16.163 16.163 0 0 0-4.602 0c-2.299.382-2.673 1.396-4.602 1.708-1.424.22-3.178.22-4.602 0-1.928-.311-2.302-1.326-4.602-1.708a16.163 16.163 0 0 0-4.602 0c-2.299.382-2.673 1.396-4.602 1.708-1.424.22-3.178.22-4.602 0-1.129-.182-1.725-.606-2.487-1.002" paint-order="stroke fill markers"/></g></svg>