<svg viewBox="0 0 72 72" xmlns="http://www.w3.org/2000/svg"><path d="M21.738 21.593s-5.271-5.163-10.488.054m13.63-2.728a8.378 8.378 0 0 1 8.648 1.997c3.05 3.05 7.587 4.64 12.043 6.24 1.658.592 3.3 1.184 4.848 1.842 2.117.918 4.07 1.97 5.64 3.36.185.17.363.334.54.511 6.344 6.344 6.336 16.625 0 22.96-6.343 6.344-16.617 6.344-22.96 0-.177-.177-.34-.355-.51-.54a16.056 16.056 0 0 1-3.361-5.64c-.659-1.547-1.25-3.19-1.843-4.848-1.599-4.456-3.19-8.993-6.24-12.043a8.368 8.368 0 0 1-2.205-7.95" fill="none" stroke="#000" stroke-linecap="round" stroke-linejoin="round" stroke-miterlimit="10" stroke-width="2"/></svg>