<svg viewBox="0 0 72 72" xmlns="http://www.w3.org/2000/svg"><g fill="none" stroke="#000" stroke-width="2"><circle cx="36" cy="36" r="28" stroke-miterlimit="10"/><path stroke-linecap="round" stroke-linejoin="round" d="M41.6 43.33a3.062 3.062 0 0 0-3.15-2.965 3.275 3.275 0 0 0-1.382.312 2.794 2.794 0 0 0 .332-1.3 2.85 2.85 0 0 0-.817-1.977 2.85 2.85 0 0 0 .817-1.977 2.799 2.799 0 0 0-.23-1.102 2.994 2.994 0 0 0 2.33-2.85 3.062 3.062 0 0 0-3.15-2.965 3.275 3.275 0 0 0-1.382.313 2.795 2.795 0 0 0 .332-1.301 3.062 3.062 0 0 0-3.15-2.965 3.275 3.275 0 0 0-1.382.313 2.794 2.794 0 0 0 .332-1.301 3.156 3.156 0 0 0-6.3 0 2.794 2.794 0 0 0 .332 1.3 3.275 3.275 0 0 0-1.382-.312 3.115 3.115 0 0 0-3.029 2.193 3.306 3.306 0 0 0-1.171-.217 3.062 3.062 0 0 0-3.15 2.965 2.994 2.994 0 0 0 2.33 2.85 2.8 2.8 0 0 0-.23 1.103 2.85 2.85 0 0 0 .818 1.977 2.798 2.798 0 0 0 0 3.953 2.85 2.85 0 0 0-.818 1.976 2.994 2.994 0 0 0 2.33 2.85 2.8 2.8 0 0 0-.23 1.103 2.85 2.85 0 0 0 .818 1.976 2.85 2.85 0 0 0-.818 1.977 3.062 3.062 0 0 0 3.15 2.965 3.237 3.237 0 0 0 2.1-.77 3.237 3.237 0 0 0 2.1.77 3.304 3.304 0 0 0 1.171-.217A3.115 3.115 0 0 0 32.15 54.2a3.062 3.062 0 0 0 3.15-2.965 2.794 2.794 0 0 0-.332-1.3 3.275 3.275 0 0 0 1.382.312 3.062 3.062 0 0 0 3.15-2.965 2.8 2.8 0 0 0-.23-1.102 2.994 2.994 0 0 0 2.33-2.85z"/><path stroke-linecap="round" stroke-linejoin="round" d="M39.19 54.196c4.72.176 8.775-5.02 9.224-11.69 4.614-.042 8.415-3.144 8.58-7.145.171-4.139-3.606-7.64-8.435-7.821a10.047 10.047 0 0 0-2.174.178 6.341 6.341 0 0 0 .11-.69c.17-4.14-3.606-7.641-8.436-7.822a10.012 10.012 0 0 0-3.427.462"/></g></svg>