<svg viewBox="0 0 72 72" xmlns="http://www.w3.org/2000/svg"><g fill="none" stroke="#000" stroke-linecap="round" stroke-linejoin="round" stroke-width="2"><path d="M10.867 41.749a25.133 25.133 0 1 0 50.266 0zm2.6-2.6a13.002 13.002 0 0 1 25.477 0"/><path d="M17.936 39.149a8.669 8.669 0 0 1 16.538 0"/><path d="M22.759 39.149a4.295 4.295 0 0 1 6.894 0m8.953-8.233a13.004 13.004 0 0 1 19.927 8.233"/><path d="M41.02 34.515a8.67 8.67 0 0 1 13.044 4.634m-11.136-.631a4.287 4.287 0 0 1 6.313.63M61 15.595l-19.412-.554h0c-.741 1.287-2.603 2.19-5.571 2.19-3.948 0-8.106-.11-8.106-.11m0-7.311s4.159-.11 8.106-.11c2.961 0 4.82.9 5.565 2.18h0L61 11.862m-33.089 1.603h9.585m-2.626.057v18.537m-4.333-18.537v12.161"/></g></svg>