<svg viewBox="0 0 72 72" xmlns="http://www.w3.org/2000/svg"><path d="M62.878 32.414a1.971 1.971 0 0 0 0-1.367 1.988 1.988 0 0 0-.595-.827 1.99 1.99 0 0 0 .397-2.034 1.993 1.993 0 0 0-1.931-1.292 1.99 1.99 0 0 0 .034-1.47 1.987 1.987 0 0 0-.998-1.093 1.997 1.997 0 0 0 .074-1.563 1.998 1.998 0 0 0-2.106-1.283 1.953 1.953 0 0 0-.003-1.333 2 2 0 0 0-2.572-1.175c-.095.035-.179.083-.265.13a1.986 1.986 0 0 0-.085-1.067 1.99 1.99 0 0 0-1.17-1.165c.265-.49.332-1.083.122-1.647a2.001 2.001 0 0 0-2.572-1.175 2 2 0 0 0-.862.634c-.02-.094-.04-.19-.075-.285a1.996 1.996 0 0 0-1.915-1.293 2 2 0 0 0-2.642-2.344 1.98 1.98 0 0 0-.863.635 1.861 1.861 0 0 0-.075-.285 2 2 0 0 0-2.156-1.28A1.994 1.994 0 0 0 41 9c-.873 0-1.607.563-1.88 1.343A1.993 1.993 0 0 0 38 10c-.09 0-.177.015-.263.026C37.394 9.417 36.75 9 36 9s-1.395.417-1.737 1.026C34.177 10.016 34.09 10 34 10c-.415 0-.8.127-1.12.343A1.993 1.993 0 0 0 31 9c-.669 0-1.257.332-1.62.835a2 2 0 0 0-2.156 1.28c-.036.094-.055.19-.075.285a1.98 1.98 0 0 0-.863-.634 2 2 0 0 0-2.642 2.343 1.996 1.996 0 0 0-1.915 1.293c-.035.095-.054.19-.075.285a1.993 1.993 0 0 0-.862-.634 2.001 2.001 0 0 0-2.572 1.175 1.987 1.987 0 0 0 .122 1.647 1.99 1.99 0 0 0-1.17 1.165c-.132.354-.15.72-.085 1.067-.086-.047-.17-.095-.265-.13a2 2 0 0 0-2.572 1.175 1.95 1.95 0 0 0-.003 1.333 1.998 1.998 0 0 0-2.106 1.283 1.99 1.99 0 0 0 .074 1.563 1.987 1.987 0 0 0-.998 1.094 1.99 1.99 0 0 0 .034 1.47 1.993 1.993 0 0 0-1.93 1.291 1.99 1.99 0 0 0 .396 2.034 1.98 1.98 0 0 0-.596.827c-.17.46-.153.938.001 1.367M65 36c0 16.016-12.983 29-29 29S7 52.016 7 36h58z" fill="none" stroke="#000" stroke-linecap="round" stroke-linejoin="round" stroke-miterlimit="10" stroke-width="2"/></svg>