<svg viewBox="0 0 72 72" xmlns="http://www.w3.org/2000/svg"><g fill="none" stroke="#000" stroke-linecap="round" stroke-linejoin="round" stroke-miterlimit="10" stroke-width="2"><path d="M33 17a5 5 0 0 1 5 5c0 1.636-.797 3.075-2.012 3.987a1.826 1.826 0 0 0-.298.217c-.42.366-.69.898-.69 1.5V53a2 2 0 0 1-2 2"/><path d="M10 17h52a5 5 0 0 1 5 5c0 1.636-.797 3.075-2.012 3.987a1.826 1.826 0 0 0-.299.217c-.42.366-.689.898-.689 1.5V53a2 2 0 0 1-2 2H10a2 2 0 0 1-2-2V27.703c0-.6-.27-1.133-.69-1.499a1.822 1.822 0 0 0-.298-.217C5.797 25.075 5 23.636 5 22a5 5 0 0 1 5-5z"/></g></svg>