<svg viewBox="0 0 72 72" xmlns="http://www.w3.org/2000/svg"><g fill="none" stroke="#000" stroke-linecap="round" stroke-linejoin="round" stroke-width="2"><path d="M24.994 34.744v-2.016m8 2.016v-2.016m7 2.016v-2.016m7 2.016v-2.016m-3 10.426v-2.015m-8 2.015v-2.015m-8 2.015v-2.015m4 11.613v-2.016m8 2.016v-2.016m5.441-27.387c7.838.4 9.11-1.883 9.11-1.883a17.06 17.06 0 0 0-16.78-3.312v-2.301a1.044 1.044 0 0 0-1.044-1.044H35.47a1.044 1.044 0 0 0-1.044 1.044v2.237a17.031 17.031 0 0 0-16.575 3.377s1.272 2.282 9.11 1.883a5.016 5.016 0 0 0 0 3.378s6.28-.778 9.237-2.957c0 0 4.795 2.957 8.965 2.957a5.55 5.55 0 0 0 .272-3.379z"/><path d="M53.003 25.702a13.698 13.698 0 0 1 1.19 1.589c2.56 3.995 2.674 9.003.31 13.74-2.814 6.093-10.277 17.763-18.29 18.138l-.045.002-.045-.002c-7.992-.379-15.438-12.063-18.258-18.188a13.592 13.592 0 0 1 .375-13.711 13.802 13.802 0 0 1 1.171-1.566"/></g></svg>