<svg viewBox="0 0 72 72" xmlns="http://www.w3.org/2000/svg"><g fill="none" stroke="#000" stroke-linecap="round" stroke-linejoin="round" stroke-miterlimit="10" stroke-width="2"><path d="M39.1 42.3c1.2-.5 2.5-.8 3.9-.8 5.5 0 9.9 4.4 9.9 9.9s-4.4 9.9-9.9 9.9M19.5 10.7v1c.1 17.1 3.2 27.7 4.3 31"/><path d="M43 61.2c-1.5 0-2.9-.3-4.2-.9"/><circle cx="28.5" cy="51.4" r="9.9"/><path d="M35.2 15.7c4.5 4 5.7 11.6 5.7 11.6s-7.7-.4-12.1-4.4c-4.5-4-5.7-11.6-5.7-11.6s7.7.4 12.1 4.4z"/><circle cx="28.5" cy="51.4" r="9.9"/><path d="M39 42.3S19.5 32.2 19.5 10.7"/></g></svg>