<svg viewBox="0 0 72 72" xmlns="http://www.w3.org/2000/svg"><g fill="none" stroke="#000" stroke-linecap="round" stroke-linejoin="round" stroke-miterlimit="10"><path stroke-width="2" d="M17 40h38v10H17zm36-4a3 3 0 0 0-3-3l-2.219-.016"/><path stroke-width="2.04" d="M30.571 12.456c-1.68.387-2.738 2.01-2.366 3.625.373 1.614 2.036 2.608 3.716 2.22l9.509-2.195c1.68-.387 2.738-2.01 2.365-3.625-.372-1.614-2.035-2.608-3.715-2.22l-9.509 2.195z"/><path stroke-width="2.04" d="M27.648 19.24c-1.68.388-2.739 2.01-2.366 3.625.372 1.614 2.035 2.61 3.715 2.221l15.355-3.544c1.68-.388 2.739-2.012 2.366-3.626-.372-1.614-2.036-2.608-3.716-2.22L27.647 19.24z"/><path stroke-width="2.04" d="M49.64 23.355c-.372-1.614-2.035-2.609-3.714-2.22l-21.201 4.894c-1.68.388-2.739 2.011-2.367 3.625.373 1.615 2.037 2.609 3.716 2.221l21.201-4.894c1.68-.388 2.739-2.011 2.366-3.626z"/><path stroke-width="2.04" d="M35.942 35.717 50.2 32.426c1.679-.388 2.738-2.011 2.365-3.625-.373-1.614-2.036-2.61-3.714-2.222l-27.048 6.245c-1.523.35-2.535 1.717-2.433 3.173"/><path stroke-width="2" d="M34 5h3c1.657 0 3 1.343 3 3s-1 2.521-2.688 2.896"/><path stroke-width="2" d="M34 5c2 2-.145 6.688-2.167 7.167M52 50l-4 12c-.873 2.62-2.24 5-5 5H29c-2.76 0-4.127-2.38-5-5l-4-12"/></g></svg>