<svg viewBox="0 0 72 72" xmlns="http://www.w3.org/2000/svg"><g fill="none" stroke="#000" stroke-linecap="round" stroke-linejoin="round" stroke-miterlimit="10" stroke-width="2"><path d="M32.667 22.084C29.211 23.53 21 29 17 38c-2.291 5.154-5 22-5 22s6.44-3.095 13-4.333c4.417-.834 7.428-1.718 9.417-2.5 7-2.751 16.25-10.667 18.833-16.334C56.066 30.654 60 12 60 12s-3.5 2.167-11.75 5.167c-5.282 1.92-12 3.416-15.583 4.916z"/><path d="M50 22a2 2 0 0 1 2 2m-11 0a2 2 0 0 1 2 2m0 7a2 2 0 0 1 2 2m-13-6a2 2 0 0 1 2 2m1 10a2 2 0 0 1 2 2m-12-6a2 2 0 0 1 2 2"/></g></svg>