<svg viewBox="0 0 72 72" xmlns="http://www.w3.org/2000/svg"><g fill="none" stroke="#000" stroke-linecap="round" stroke-linejoin="round" stroke-miterlimit="10"><path stroke-width="2" d="M26 21c0-5.523 4.477-10 10-10s10 4.477 10 10"/><path stroke-width="2" d="M36.066 26.503A10 10 0 0 1 45 21c5.522 0 10 4.477 10 10a9.982 9.982 0 0 1-3.795 7.842"/><path stroke-width="2" d="M20.64 38.717A9.98 9.98 0 0 1 17 31c0-5.523 4.477-10 10-10s10 4.477 10 10a9.982 9.982 0 0 1-3.795 7.842"/><path stroke-width="1.947" d="M33 60v-6a5 5 0 0 0-5-5h-7a5 5 0 0 1-5-5v-3a2 2 0 0 1 2-2h36a2 2 0 0 1 2 2v3a5 5 0 0 1-5 5h-7a5 5 0 0 0-5 5v6m-10 0h14"/></g></svg>