<svg viewBox="0 0 72 72" xmlns="http://www.w3.org/2000/svg"><g fill="none" stroke="#000" stroke-linecap="round" stroke-linejoin="round" stroke-miterlimit="10" stroke-width="2"><path d="M25.032 41.273A12.977 12.977 0 0 1 20 31V12a5 5 0 1 0-10 0l1 28c0 5.45 1.744 10.492 4.705 14.6"/><path d="M63.657 35.12a1.992 1.992 0 0 0 0-2.24C64.437 32.608 65 31.874 65 31s-.563-1.607-1.343-1.88a1.992 1.992 0 0 0-1-3 1.993 1.993 0 0 0-1-3A2 2 0 0 0 60 20c-.1 0-.197.015-.294.03A1.98 1.98 0 0 0 60 19a2 2 0 0 0-2-2c-.1 0-.197.015-.294.03A1.98 1.98 0 0 0 58 16a2 2 0 0 0-2-2 1.99 1.99 0 0 0-1.03.293c.015-.096.03-.192.03-.293a2 2 0 0 0-3.12-1.657A1.993 1.993 0 0 0 50 11a1.99 1.99 0 0 0-1.03.293c.015-.096.03-.192.03-.293a2 2 0 0 0-3.12-1.657 1.993 1.993 0 0 0-3-1 1.993 1.993 0 0 0-3-1C39.607 6.563 38.873 6 38 6s-1.607.563-1.88 1.343a1.997 1.997 0 0 0-2.775.535c-.22.003-.428.047-.625.116A1.993 1.993 0 0 0 29 9a2 2 0 0 0-2 2 2 2 0 0 0-1.657 3.12A1.995 1.995 0 0 0 24 16c0 .6.27 1.133.69 1.5-.42.367-.69.9-.69 1.5 0 .885.58 1.628 1.376 1.891.001.072.014.141.021.212A1.994 1.994 0 0 0 26 25c.1 0 .196-.015.294-.03A1.982 1.982 0 0 0 26 26a2 2 0 0 0 2 2 1.99 1.99 0 0 0 1.03-.293c-.015.096-.03.192-.03.293a2 2 0 0 0 3.12 1.657A1.992 1.992 0 0 0 34 31c.6 0 1.134-.27 1.5-.69.366.42.9.69 1.5.69.378 0 .728-.111 1.03-.293-.015.096-.03.192-.03.293a2 2 0 0 0 2 2c.231 0 .448-.049.653-.122.09.151.192.295.316.418-.58.349-.969.978-.969 1.704a2 2 0 0 0 2 2 2 2 0 0 0-2 2c0 .378.111.729.294 1.03-.098-.014-.193-.03-.294-.03a2 2 0 0 0-2 2c0 .1.015.197.03.293A1.994 1.994 0 0 0 37 42a2 2 0 0 0-2 2c-.415 0-.8.127-1.12.343A1.992 1.992 0 0 0 32 43c-.6 0-1.134.27-1.5.69-.366-.42-.9-.69-1.5-.69a2 2 0 0 0-2 2 2 2 0 0 0-2 2c0 .378.111.729.294 1.03-.098-.014-.193-.03-.294-.03a2 2 0 0 0-2 2 2 2 0 0 0-2 2c0 .378.111.729.294 1.03-.098-.014-.193-.03-.294-.03a1.993 1.993 0 0 0-.624 3.89c.001.073.014.142.021.212A1.994 1.994 0 0 0 21 61c.415 0 .8-.127 1.12-.343A1.992 1.992 0 0 0 24 62c.378 0 .728-.111 1.03-.293-.015.096-.03.192-.03.293a2 2 0 0 0 2 2c.6 0 1.134-.27 1.5-.69a1.987 1.987 0 0 0 2.62.347 1.992 1.992 0 0 0 3.715.135c.118.033.24.054.365.065A1.995 1.995 0 0 0 37 65c.6 0 1.134-.27 1.5-.69.366.42.9.69 1.5.69.873 0 1.607-.563 1.88-1.343a1.992 1.992 0 0 0 3-1 1.992 1.992 0 0 0 3-1A2 2 0 0 0 51 60c0-.1-.015-.197-.03-.293A1.99 1.99 0 0 0 52 60a2 2 0 0 0 2-2 2 2 0 0 0 2-2 2 2 0 0 0 2-2 2 2 0 0 0 2-2c0-.378-.111-.729-.294-1.03.097.014.193.03.294.03a2 2 0 0 0 2-2c0-.378-.111-.729-.294-1.03.097.014.193.03.294.03a2 2 0 0 0 2-2c0-.6-.27-1.133-.69-1.5a1.989 1.989 0 0 0 .347-2.62A1.995 1.995 0 0 0 65 40c0-.6-.27-1.133-.69-1.5.42-.367.69-.9.69-1.5 0-.873-.563-1.607-1.343-1.88z"/></g></svg>