<svg viewBox="0 0 72 72" xmlns="http://www.w3.org/2000/svg"><g fill="none" stroke="#000" stroke-linecap="round" stroke-linejoin="round" stroke-miterlimit="10" stroke-width="2"><circle cx="36" cy="36" transform="rotate(-45.001 35.998 36)" r="15"/><path d="M51.929 25.356 63 23.142l1.414-1.414a2 2 0 1 0-2.829-2.829 2 2 0 1 1-2.828-2.828 2 2 0 0 0-2.828-2.828 2 2 0 0 1-2.828-2.828 2 2 0 0 0-2.828-2.83L48.858 9l-2.214 11.07M20.071 46.643 9 48.857l-1.415 1.414a2.001 2.001 0 0 0 2.83 2.83 2 2 0 1 1 2.827 2.827 2 2 0 0 0 2.828 2.83 2.001 2.001 0 0 1 2.828-.002 2.001 2.001 0 0 1 0 2.83 2 2 0 1 0 2.829 2.828L23.142 63l2.215-11.072"/><circle cx="36.001" cy="35.958" transform="rotate(-45.001 36.001 35.959)" r="15"/></g></svg>