<svg viewBox="0 0 72 72" xmlns="http://www.w3.org/2000/svg"><g fill="none" stroke="#000" stroke-linecap="round" stroke-linejoin="round" stroke-miterlimit="10" stroke-width="2"><circle cx="14" cy="31" r="2"/><circle cx="20" cy="39" r="2"/><circle cx="52" cy="40" r="2"/><circle cx="58" cy="32" r="2"/><circle cx="50" cy="25" r="2"/><circle cx="42" cy="14" r="2"/><circle cx="33" cy="20" r="2"/><circle cx="21" cy="20" r="2"/><circle cx="36" cy="36" r="29"/><circle cx="36" cy="36" r="10"/><path d="M8 41h2a5 5 0 0 1 5 5 5 5 0 0 0 10 0 3 3 0 0 1 3-3h.667m30.158 10.76A3 3 0 0 1 57 51a3 3 0 0 0-6 0 5 5 0 0 1-10 0 5 5 0 0 0-5-5"/></g></svg>