<svg viewBox="0 0 72 72" xmlns="http://www.w3.org/2000/svg"><g fill="none" stroke="#000" stroke-linecap="round" stroke-linejoin="round" stroke-width="2"><path d="M41.807 29.534c5.221-.622 8.884-2.077 8.884-3.774 0-2.262-6.515-4.096-14.551-4.096s-14.133 1.415-14.552 4.096l-3.19 19.334"/><path d="M51.21 28.9c0 2.263-6.748 4.097-15.07 4.097s-15.07-1.834-15.07-4.096m32.812 16.193L50.69 25.76m2.665 16.139c4.713 1.5 7.645 3.604 7.645 5.934 0 4.554-11.193 8.245-25 8.245s-25-3.691-25-8.245c0-2.378 3.054-4.522 7.94-6.027"/></g></svg>