<svg viewBox="0 0 72 72" xmlns="http://www.w3.org/2000/svg"><g fill="none" stroke="#000" stroke-linecap="round" stroke-linejoin="round" stroke-width="2"><path d="M57.809 36.404a6.574 6.574 0 0 1 5.229 2.45 7.282 7.282 0 0 1 1.205 2.853 7.984 7.984 0 0 1-.284 3.4 6.873 6.873 0 0 1-4.438 4.508 6.134 6.134 0 0 1-2.9.14 7.341 7.341 0 0 1-2.749-1.223l-.458.61"/><path d="M53.414 49.142a6.427 6.427 0 0 1 2.774 5.046 6 6 0 0 1-.7 3.014 8.489 8.489 0 0 1-.91 1.414 9.534 9.534 0 0 1-1.308 1.174 7.19 7.19 0 0 1-3.14 1.325 6.59 6.59 0 0 1-3.087-.264 6.488 6.488 0 0 1-3.942-4.205l-.717.254"/><path d="M42.385 56.9a6.51 6.51 0 0 1-.725 5.71 6.878 6.878 0 0 1-2.345 2.019 8.146 8.146 0 0 1-3.315.799 8.146 8.146 0 0 1-3.315-.8 6.878 6.878 0 0 1-2.345-2.017 6.51 6.51 0 0 1-.724-5.711l-.717-.254m0 0a6.488 6.488 0 0 1-3.943 4.206 6.59 6.59 0 0 1-3.087.263 7.19 7.19 0 0 1-3.139-1.325 9.534 9.534 0 0 1-1.307-1.174 8.489 8.489 0 0 1-.91-1.414 6 6 0 0 1-.7-3.014 6.427 6.427 0 0 1 2.774-5.046l-.458-.61m-.001.001a7.341 7.341 0 0 1-2.749 1.223 6.134 6.134 0 0 1-2.9-.14 6.873 6.873 0 0 1-4.438-4.509 7.984 7.984 0 0 1-.284-3.4 7.282 7.282 0 0 1 1.205-2.853 6.574 6.574 0 0 1 5.23-2.45v-.38m39.68-12.129a7.047 7.047 0 0 1 2.749-1.223 6.133 6.133 0 0 1 2.9.14 6.873 6.873 0 0 1 4.438 4.509 7.984 7.984 0 0 1 .284 3.4 7.282 7.282 0 0 1-1.205 2.853 6.574 6.574 0 0 1-5.23 2.45v.38"/><path d="M43.101 15.782a6.488 6.488 0 0 1 3.943-4.206 6.59 6.59 0 0 1 3.087-.263 7.19 7.19 0 0 1 3.139 1.325 9.534 9.534 0 0 1 1.307 1.174 8.486 8.486 0 0 1 .91 1.414 6 6 0 0 1 .7 3.014 6.428 6.428 0 0 1-2.773 5.046l.458.61m-24.256-8.368a6.51 6.51 0 0 1 .724-5.71 6.879 6.879 0 0 1 2.345-2.019A8.144 8.144 0 0 1 36 7a8.144 8.144 0 0 1 3.315.799 6.879 6.879 0 0 1 2.345 2.018 6.51 6.51 0 0 1 .724 5.71l.717.255m-24.515 7.504a6.428 6.428 0 0 1-2.774-5.046 6 6 0 0 1 .7-3.014 8.486 8.486 0 0 1 .91-1.414 9.534 9.534 0 0 1 1.308-1.174 7.19 7.19 0 0 1 3.14-1.325 6.59 6.59 0 0 1 3.086.263 6.488 6.488 0 0 1 3.943 4.206l.717-.254M14.191 36.023a6.574 6.574 0 0 1-5.229-2.449 7.282 7.282 0 0 1-1.205-2.853 7.984 7.984 0 0 1 .284-3.4 6.873 6.873 0 0 1 4.438-4.508 6.132 6.132 0 0 1 2.9-.14 7.338 7.338 0 0 1 2.749 1.223l.458-.61"/></g></svg>