<svg viewBox="0 0 72 72" xmlns="http://www.w3.org/2000/svg"><g fill="none" stroke="#000" stroke-linecap="round" stroke-linejoin="round" stroke-miterlimit="10" stroke-width="2"><path d="m61.621 44.046 4.233-.582a2.857 2.857 0 0 0 2.433-3.21L66.93 30.38a2.857 2.857 0 0 0-3.21-2.434l-4.232.582m-8.5-2.758 7.341-1.01 3.566 25.94-20.457 2.81-1.975-14.366m-3.333-7.717.111.809c.106.777.792 1.332 1.524 1.232l.665-.091c.144-.02.28-.064.403-.127"/><path d="M38.833 33.25c.506-.258.82-.844.734-1.469l-.154-1.128c.439.207.928.302 1.433.233l1.308-.179c.848-.115 1.539-.653 1.936-1.38.874.988 2.162 1.54 3.504 1.357 2.196-.3 3.73-2.454 3.412-4.787l7.705-1.053c.087-.462.107-.949.039-1.445-.32-2.342-2.367-3.997-4.571-3.696-.92.126-1.72.575-2.318 1.223-.849-1.276-2.315-2.03-3.862-1.818a3.81 3.81 0 0 0-1.54.568c-.937-.965-2.26-1.489-3.642-1.3-2.079.284-3.6 2.08-3.731 4.214a3.15 3.15 0 0 0-.775.002c-1.148.157-2.076.913-2.545 1.935M10.503 45.046l-4.232-.582a2.857 2.857 0 0 1-2.434-3.21l1.358-9.876a2.857 2.857 0 0 1 3.21-2.433l4.232.582m8.499-2.757-7.34-1.01-3.568 25.94 20.457 2.812 1.975-14.366"/><path d="M33.291 34.25c-.506-.258-.819-.844-.734-1.469l.155-1.128a2.535 2.535 0 0 1-1.434.233l-1.308-.178c-.848-.116-1.538-.653-1.936-1.382-.873.989-2.162 1.542-3.504 1.358-2.195-.3-3.73-2.454-3.412-4.786l-7.705-1.053a4.497 4.497 0 0 1-.039-1.446c.32-2.342 2.367-3.997 4.571-3.696.92.126 1.72.575 2.318 1.223.85-1.276 2.316-2.03 3.862-1.818a3.81 3.81 0 0 1 1.54.568c.938-.965 2.26-1.489 3.642-1.3 2.08.284 3.6 2.08 3.731 4.214a3.15 3.15 0 0 1 .775.002c1.837.251 3.11 2.037 2.843 3.989l-.773 5.655c-.106.777-.792 1.332-1.523 1.232l-.666-.091a1.262 1.262 0 0 1-.403-.127"/></g></svg>