<svg viewBox="0 0 72 72" xmlns="http://www.w3.org/2000/svg"><g fill="none" stroke="#000" stroke-linecap="round" stroke-linejoin="round" stroke-miterlimit="10"><path stroke-width="2" d="M49.5 50.5h6c2.2 0 4-1.8 4-4v-14c0-2.2-1.8-4-4-4h-6"/><path stroke-width="2.018" d="M38.594 23.23H49V60H20V39.635"/><path stroke-width="2" d="M20.252 31.312c.753-.262 1.3-1.018 1.301-1.903l.001-1.599a3.56 3.56 0 0 0 1.95.599l1.854.001c1.203.001 2.266-.614 2.959-1.552 1.025 1.543 2.712 2.559 4.615 2.56 3.111.003 5.66-2.7 5.662-6.007l10.921.009c.21-.627.33-1.3.33-2.004.003-3.32-2.527-6.014-5.652-6.016a5.415 5.415 0 0 0-3.458 1.258c-.938-1.938-2.834-3.267-5.026-3.268-.8-.001-1.56.177-2.251.495-1.12-1.521-2.86-2.503-4.82-2.505-2.946-.002-5.405 2.205-5.996 5.15a4.423 4.423 0 0 0-1.079-.146c-2.603-.002-4.716 2.24-4.718 5.006l-.006 8.016c-.001 1.102.847 2.004 1.884 2.005h.943c.204 0 .4-.034.585-.099"/></g></svg>