<svg viewBox="0 0 72 72" xmlns="http://www.w3.org/2000/svg"><path d="M34 66.636c10 .364 29.7 0 31 0C64 52 64 37 58 24M37.547 38.248c1.15-5.812 2.64-10.806 4.379-14.662l.207-.374m-4.586 15.036a121.14 121.14 0 0 0-1.266 7.788M18.04 51h16.33c0 6.952-2.286 12.776-7.116 15.68h-14.4C8.023 63.776 5.736 57.952 5.736 51h12.305zM64.37 8c0 6.778-2.173 12.483-6.758 15.456m-15.635-.354c-4.23-3.059-6.24-8.584-6.24-15.102" fill="none" stroke="#000" stroke-linecap="round" stroke-linejoin="round" stroke-miterlimit="10" stroke-width="2"/></svg>