<svg viewBox="0 0 72 72" xmlns="http://www.w3.org/2000/svg"><g fill="none" stroke="#000" stroke-linecap="round" stroke-linejoin="round" stroke-miterlimit="10" stroke-width="2"><path d="M61.879 5.879 50.135 17.862a23.17 23.17 0 0 1 4.002 4.003L66.12 10.121a3 3 0 1 0-4.24-4.241z"/><path d="M54.137 21.865a23.134 23.134 0 0 0-4.002-4.003A22.9 22.9 0 0 0 36 13c-12.703 0-23 10.298-23 23s10.297 23 23 23 23-10.298 23-23a22.889 22.889 0 0 0-4.863-14.135z"/><circle cx="36" cy="35.875" r="5"/><path d="M47.225 37.55c-.073-.035-.144-.07-.217-.102-.634-.336-1.057-1.087-1.057-1.853l-.015-.03a9.977 9.977 0 0 0-4.227-7.738 2.1 2.1 0 0 1-.767-1.594 5.003 5.003 0 0 0-9.75-.605c-.051.178-.119.41-.134.596-.05.591-.277 1.114-.683 1.48A9.99 9.99 0 0 0 25.959 36c0 5.522 4.476 10 10 10a9.96 9.96 0 0 0 3.818-.759 1.99 1.99 0 0 1 1.764.356c.06.047.125.091.18.147l-.008.01A4.956 4.956 0 0 0 45 47a5 5 0 0 0 5-5c0-1.958-1.137-3.632-2.775-4.45z"/></g></svg>