<svg viewBox="0 0 72 72" xmlns="http://www.w3.org/2000/svg"><g fill="none" stroke="#000" stroke-miterlimit="10" stroke-width="2"><path d="m62.334 5.334 1.838 1.838 2.345 2.345c.845.845.034 3.039-1.802 4.875-1.836 1.836-4.03 2.647-4.875 1.802l-.138-.138-4.044-4.045c-.825-.824.003-3.001 1.839-4.837 1.836-1.836 4.013-2.664 4.837-1.84z"/><path stroke-linecap="round" d="M56.021 20.502c.303.906-.143 2.234-1.183 3.274-.897.898-2.003 1.34-2.873 1.254l-8.68 8.68a6.965 6.965 0 0 0-1.1 1.433 6.34 6.34 0 0 0-.656 1.615 5.57 5.57 0 0 0-.165 1.12l-.127 2.923c-.104 2.382-1.214 4.79-3.058 6.635l-.194.193-17.014 17.015h0c-1.543 1.543-3.84 1.749-5.129.46l-9.197-9.198c-.806-.806-1.028-2.005-.704-3.167a4.496 4.496 0 0 1 1.163-1.961L24.312 33.57c1.845-1.845 4.253-2.955 6.635-3.058l2.923-.128v0a5.765 5.765 0 0 0 1.671-.33 6.73 6.73 0 0 0 2.498-1.591l8.555-8.556c-.242-.902.198-2.17 1.202-3.173 1.167-1.167 2.696-1.586 3.586-1.038"/><path stroke-linecap="round" stroke-linejoin="round" d="m22 37 13 13m-26.5.5 13 13"/></g></svg>