<svg viewBox="0 0 72 72" xmlns="http://www.w3.org/2000/svg"><g fill="none" stroke="#000" stroke-miterlimit="10" stroke-width="2"><path stroke-linejoin="round" d="m51.533 37.384-16.3-16.3c6.286-6.285 8.585 1.422 15.941-5.934l1.574-1.573a4.45 4.45 0 1 1 6.294 6.293l-1.574 1.574c-7.356 7.357.35 9.655-5.935 15.94z"/><path d="m57.52 12.584.025.007c.237.095.464.218.685.355.034.021.071.033.105.055a4.463 4.463 0 0 1 1.684 2.048c.326.803.408 1.683.245 2.524a4.43 4.43 0 0 1-1.222 2.297l-1.574 1.574c-2.299 2.3-3.127 4.104-3.37 5.691a7.608 7.608 0 0 0-.083.928c-.018.605.029 1.183.084 1.753.07.712.152 1.412.136 2.133-.006.288-.028.58-.073.877-.133.892-.472 1.835-1.206 2.888-.24.345-.524.701-.856 1.071a5.476 5.476 0 0 1-1.592 3.746L32.02 59.019c-2.143 2.142-5.648 2.142-7.79 0L13.958 48.748l-.179-.18c-2.143-2.142-2.143-5.648 0-7.79l4.622-4.622 4.622-4.623 4.622-4.621 4.622-4.622c.929-.929 2.115-1.43 3.334-1.554 6.009-5.628 8.363 1.624 15.573-5.586l1.574-1.573a4.448 4.448 0 0 1 4.773-.993z"/><path stroke-linecap="round" stroke-linejoin="round" d="m34.021 35.021-7-7m2.5 11.5-7-7m2 12-7-7"/></g></svg>