<svg viewBox="0 0 72 72" xmlns="http://www.w3.org/2000/svg"><g fill="none" stroke="#000" stroke-miterlimit="10"><path stroke-width="1.992" d="M59.056 16.104a3.548 3.548 0 0 0-1.762-.485c-2.217 0-5.2.965-8.214 2.454"/><path stroke-width="1.992" d="M40.357 36.245c11.59 3.596 14.485 12.515 20.195 4.937 5.861-7.78 3.5-22.252-1.496-25.078m-9.976 1.969c-3.727 1.84-7.498 4.478-9.92 7.078m-9.05 3.339v.46c.01 1.54.01 2.7 0 3.58 0 1.02-.01 1.67 0 2.14 0 .57.03.88.11 1.24 0 .02.01.03.01.05.02.04.03.09.04.14h-.01c-7.18 2.23-11.02 6.5-14.26 7.62-1.7.59-3.24.32-5-1.56-.3-.32-.61-.7-.93-1.12-1.51-2.01-2.48-4.46-2.99-7.04-.14-.72-.25-1.44-.32-2.17-.05-.44-.09-.88-.1-1.32-.03-.43-.04-.87-.04-1.3 0-5.56 1.77-10.85 4.38-12.87.16-.13.32-.24.49-.34.58-.34 1.2-.53 1.84-.53.61 0 1.27.07 1.98.21.23.04.46.09.69.15.21.05.43.11.65.17 4.76 1.32 10.85 4.96 14.43 8.61"/><path stroke-linecap="round" stroke-linejoin="round" stroke-width="2" d="M30.297 36.82a23.23 23.23 0 0 0-3.4 1.556c-2.209 2.938-6.122 8.834-10.311 18.22-.334.747.177 1.643.854 1.495l4.82-1.054c.7-.153 1.4.264 1.744 1.038l2.171 4.893c.38.856 1.407.686 1.592-.265.942-4.824 3.101-15.242 5.718-22.267-1.543-.328-2.787-1.759-3.188-3.616zm13.849 1.613a22.025 22.025 0 0 0-3.443-1.613c-.4 1.857-1.645 3.288-3.188 3.616 2.617 7.025 4.776 17.442 5.718 22.267.185.95 1.212 1.121 1.592.265l2.171-4.893c.344-.774 1.044-1.19 1.743-1.038l4.821 1.054c.678.148 1.189-.748.855-1.496-4.163-9.325-8.053-15.205-10.27-18.162z"/><path stroke-width="2" d="M35.84 22.718h-1.68c-2.233 0-4.05 2.381-4.05 5.309v6.645c0 2.927 1.817 5.309 4.05 5.309h1.68c2.233 0 4.05-2.382 4.05-5.31v-6.644c0-2.928-1.817-5.309-4.05-5.309z"/></g></svg>