<svg viewBox="0 0 72 72" xmlns="http://www.w3.org/2000/svg"><g fill="none" stroke="#000" stroke-linecap="round" stroke-linejoin="round" stroke-miterlimit="10" stroke-width="2"><path d="M39.4 17.66c-.68-2.34-.98-4.83-.3-7.02.39-1.24 1.1-2.5 2.31-3.14 1.36-.72 3.45-.16 2.96 1.75-.09.37-.42.56-.62.86-.89 1.39.35 2.32 1.66 1.99 1.64-.42 2.4-1.63 2.46-3.03l.03.06c0-.09-.02-.18-.02-.27 0-.17-.02-.34-.04-.51l-.03-.27a5.21 5.21 0 0 0-.27-.99c-1.45-3.74-5.96-4.92-9.27-2.86-2.54 1.58-3.97 4.47-4.87 7.23a32.18 32.18 0 0 0-1.36 6.26"/><path d="M7.135 33.932c-.052.235-.097.47-.142.707-.015.08-.034.16-.048.24-.05.284-.094.567-.133.85l-.017.103a23.106 23.106 0 0 0 .076 6.645c.17 1.098.414 2.186.744 3.25a24.028 24.028 0 0 0 1.779 4.232 22.05 22.05 0 0 0 2.23 3.39c.082.103.171.2.256.3.178.213.354.427.54.632l.002.002c.25.275.498.536.744.787.082.084.164.163.245.244a27.474 27.474 0 0 0 .774.741 24.174 24.174 0 0 0 1.202 1.03c.082.066.165.134.247.197.206.16.411.311.614.456l.081.06c.228.16.454.31.677.453.078.05.154.095.231.142a16.41 16.41 0 0 0 .702.41 15.31 15.31 0 0 0 1.06.53c.079.035.157.072.235.105.167.071.331.137.494.2.04.014.081.032.12.047.2.073.396.14.59.2l.202.06a11.98 11.98 0 0 0 .608.161 11.36 11.36 0 0 0 .905.175l.195.03c.139.017.275.032.41.044.034.003.07.008.105.01.167.014.33.023.489.028.051.002.1.001.15.002.11.002.22.003.326.001.057 0 .113-.003.17-.004a9.799 9.799 0 0 0 .734-.053l.135-.015c.115-.014.227-.03.336-.049l.057-.008a9.17 9.17 0 0 0 .374-.072l.08-.018c.091-.02.181-.041.268-.064l.099-.026a5.65 5.65 0 0 0 .227-.064l.087-.026a8.18 8.18 0 0 0 .222-.072l.061-.021c.184-.065.349-.13.492-.19l.003-.002a6.89 6.89 0 0 0 .151-.067s0 0 0 0c.343-.158.529-.279.529-.279 1.454 1.464 7.593 1.716 8.008 1.731h.044c.415-.015 6.553-.267 8.008-1.73 0 0 6.776 4.436 15.433-5.086 6.967-7.045 7.821-20.524 1.996-28.668a16.758 16.758 0 0 0-1.824-2.15 17.298 17.298 0 0 0-3.494-2.702c-3.596-2.084-7.746-2.377-11.609-.892 0 0-2.008-2.489-8.532-2.489s-8.532 2.49-8.532 2.49c-.109-.042-.215-.074-.324-.113"/><path d="m27.027 19.757.01-.005c-.124-.045-.247-.079-.371-.12-.15-.05-.299-.1-.447-.144a14.43 14.43 0 0 0-.528-.142c-.15-.039-.298-.078-.446-.11-.173-.04-.344-.07-.516-.101-.148-.027-.297-.055-.444-.077-.169-.025-.336-.042-.504-.06-.147-.016-.294-.033-.44-.043a11.637 11.637 0 0 0-.492-.022c-.145-.005-.291-.011-.435-.011-.163 0-.323.008-.483.014-.143.006-.286.01-.427.022-.16.012-.317.03-.474.05-.14.016-.28.03-.418.051-.156.024-.31.054-.465.084-.136.026-.272.05-.407.08-.154.036-.306.077-.458.118-.132.036-.264.069-.395.108-.151.047-.3.1-.45.15-.128.045-.255.086-.381.134-.15.057-.297.12-.444.183-.123.052-.246.102-.366.157-.148.068-.293.142-.439.216-.116.059-.234.115-.348.177-.146.079-.29.164-.432.248-.111.065-.223.128-.333.197-.143.089-.283.185-.424.28-.106.07-.212.139-.316.213-.142.1-.28.206-.418.312-.099.075-.2.148-.296.226-.14.111-.274.228-.41.344-.093.08-.188.158-.28.24-.135.12-.267.247-.398.373-.088.083-.178.165-.264.251-.133.132-.262.269-.39.406-.082.086-.165.169-.245.257-.129.142-.254.29-.38.436-.075.088-.152.174-.226.264M20 48s15 10 32 0c0 0-16 20-32 0zm15.896-.072-1.711-2.964L32.473 42h6.846l-1.712 2.964zm13.078-10.083a5 5 0 0 0 2.956-6.424l-9.38 3.468a5 5 0 0 0 6.424 2.956zm-26.156 0a5 5 0 0 1-2.956-6.424l9.38 3.468a5 5 0 0 1-6.424 2.956z"/></g></svg>