<svg viewBox="0 0 72 72" xmlns="http://www.w3.org/2000/svg"><circle cx="36.081" cy="25.744" r="2"/><circle cx="43.681" cy="49.953" r="2"/><circle cx="28.405" cy="51.924" r="2"/><circle cx="41.681" cy="38.674" r="2"/><circle cx="32.405" cy="34.199" r="2"/><circle cx="34.405" cy="45.055" r="2"/><path d="m39.778 19.109 7.53 11.665-3.93-.483 8.093 13.836-5.087-.636 8.382 16.716-12.834-.834m-11.864 0-12.834.834 8.382-16.716-5.087.636 8.093-13.836-3.93.483 7.53-11.665m8.228 43.314v3.042a1.456 1.456 0 0 1-1.293 1.57h-6.313a1.456 1.456 0 0 1-1.293-1.57v-3.042M36 4.758l1.87 3.79 4.182.607-3.026 2.95.714 4.165L36 14.304l-3.74 1.966.714-4.165-3.026-2.95 4.182-.607L36 4.758z" fill="none" stroke="#000" stroke-linecap="round" stroke-linejoin="round" stroke-width="2"/></svg>