<svg viewBox="0 0 72 72" xmlns="http://www.w3.org/2000/svg"><g fill="none" stroke="#000" stroke-linecap="round" stroke-linejoin="round" stroke-miterlimit="10" stroke-width="2"><path d="m50.663 45.64.168.168-21.87 9.3L7.09 64.41l9.3-21.87 9.301-21.87m.11.108 12.46 12.46L50.664 45.64M25.692 20.669l.109.109M46.49 7.367c.235.449.403.943.49 1.473.451 2.747-1.447 5.414-4.239 5.957"/><path d="M42.933 14.776a4.875 4.875 0 0 0-1.51.364c-2.569 1.072-3.827 4.093-2.81 6.75m23.18 4.827a4.875 4.875 0 0 1-.543 1.454c-1.372 2.423-4.523 3.31-7.037 1.98"/><path d="M54.374 30.256a4.876 4.876 0 0 0-1.403-.663c-2.673-.778-5.549.787-6.422 3.493"/></g></svg>