<svg viewBox="0 0 72 72" xmlns="http://www.w3.org/2000/svg"><g fill="none" stroke="#000" stroke-miterlimit="10" stroke-width="2"><path stroke-linecap="round" stroke-linejoin="round" d="M54.091 21.357H17.356m0 0H14V35.5h2.357v25.143h39.286V35.5H58V21.357h-3.909M16.357 35.5h40.072m-5.468-17.25c.384-.98.492-2.393-.49-4.229-1.608-3.009-3.536-4.534-5.728-4.534-2.525 0-5.146 2.063-7.794 6.133a36.644 36.644 0 0 0-.95 1.545 36.02 36.02 0 0 0-.949-1.545c-2.647-4.07-5.269-6.133-7.793-6.133-2.193 0-4.12 1.525-5.73 4.534-.901 1.69-.883 3.021-.574 3.987"/><path d="M42.286 60V44.273m-12.572-2.487V60m12.572-25V22m-12.572 0v13m12.572 9.707V35.5l-12.572.02v7.354"/></g></svg>