<svg viewBox="0 0 72 72" xmlns="http://www.w3.org/2000/svg"><g stroke="#000" stroke-width="2"><path fill="none" stroke-linecap="round" stroke-linejoin="round" d="M35 38.915h2v25h-2z"/><path fill="none" stroke-linecap="round" stroke-miterlimit="10" d="M15.995 32.911h0m39.994-.009h0M35.978 12.915h0"/><path fill="none" stroke-linecap="round" stroke-linejoin="round" d="m21.849 18.771 9.9 9.9m8.485-.001 9.899-9.899m0 28.284-9.899-9.899m-8.485 0-9.9 9.899"/><path fill="none" stroke-linecap="round" stroke-miterlimit="10" d="M29.991 32.913h-9m15-15v9m15 6h-9m-28.904-9.486 6.556 2.716M13.088 42.41l6.556-2.717m6.869 16.137 2.714-6.557m16.268 6.552-2.718-6.556m16.136-6.873-6.558-2.712m6.548-16.269-6.554 2.719M45.472 10l-2.711 6.558m-16.269-6.534 2.724 6.553"/><path stroke-linejoin="round" d="m36 34.315 1.7 1.215-.631-1.992 1.681-1.24-2.089-.016L36 30.3l-.661 1.982-2.089.016 1.681 1.24-.631 1.992 1.7-1.215z"/></g><path fill="none" stroke="#000" stroke-linecap="round" stroke-linejoin="round" stroke-width="2" d="M35 58.915v-20h2"/></svg>