<svg viewBox="0 0 72 72" xmlns="http://www.w3.org/2000/svg"><path fill="none" stroke="#000" stroke-linecap="round" stroke-linejoin="round" stroke-miterlimit="10" stroke-width="2" d="M41 12c3.344-.501 6.746-.48 10.5 2.051 7.869 5.306 8.144 17.168 8.153 17.67.005.385-.138.75-.384.98a.838.838 0 0 1-.573.238.782.782 0 0 1-.288-.056C57.874 32.673 46.657 28.21 39 18m1.445 9.99-5.42 2.693c-.645.32-.979 1.086-.775 1.804 1.238 4.368 5.941 19.198 15.146 28.946.512.543 1.345.562 1.91.067l9.246-8.115c.705-.618.703-1.763-.014-2.349-3.125-2.553-10.873-9.648-18.287-22.467-.375-.649-1.15-.905-1.806-.58z"/><path d="M15.95 13.574c.013-2.93-.532-5.707-1.54-7.885a3.511 3.511 0 0 1 1.266-.184l13.16.059c.574.002 1.003.099 1.265.195-1.029 2.17-1.598 4.941-1.611 7.871a26.646 26.646 0 0 0 .315 4.115c.18 1.167.432 2.257.733 3.24h2.102a20.397 20.397 0 0 1-.858-3.546 24.586 24.586 0 0 1-.292-3.8c.012-2.819.582-5.445 1.603-7.394a1.43 1.43 0 0 0-.044-1.43c-.551-.915-2.016-1.246-3.204-1.252l-13.16-.058c-1.21.02-2.655.313-3.215 1.223a1.43 1.43 0 0 0-.057 1.428c1.003 1.96 1.55 4.59 1.537 7.41-.012 2.601-.511 5.39-1.254 7.419h2.118c.693-2.155 1.124-4.818 1.136-7.411zm-.1 22.166c.012-2.53-.4-5.312-1.102-7.533h-2.111c.037.103.076.199.113.306.7 2.072 1.112 4.77 1.1 7.218-.01 2.533-.485 5.24-1.195 7.254h2.118c.66-2.124 1.066-4.72 1.078-7.245zm14.54.065c.012-2.677.538-5.558 1.317-7.598h-2.12c-.727 2.186-1.185 4.922-1.196 7.589-.012 2.497.362 5.071.99 7.189h2.111c-.675-2.012-1.113-4.683-1.101-7.18zm-1.865 18.844a25.903 25.903 0 0 0-.234 3.312c-.013 2.93.532 5.708 1.541 7.886-.262.094-.69.18-1.267.184l-13.16-.06c-.573-.002-1.003-.099-1.264-.195 1.028-2.17 1.597-4.94 1.61-7.87.013-2.708-.434-5.491-1.162-7.699h-2.113c.776 2.051 1.288 4.979 1.275 7.689-.012 2.819-.582 5.445-1.603 7.394a1.43 1.43 0 0 0 .044 1.43c.551.915 2.017 1.247 3.205 1.252l13.16.06h.028c1.182 0 2.63-.32 3.186-1.224a1.43 1.43 0 0 0 .058-1.429c-1.004-1.959-1.55-4.59-1.538-7.41a24.02 24.02 0 0 1 .217-3.055v-.002c.237-1.775.653-3.426 1.162-4.705h-2.133c-.442 1.29-.793 2.797-1.012 4.442z"/></svg>