<svg viewBox="0 0 72 72" xmlns="http://www.w3.org/2000/svg"><circle cx="16.134" cy="51.502" r="1"/><circle cx="30.38" cy="51.502" r="1"/><circle cx="41.777" cy="51.446" r="1"/><circle cx="56.023" cy="51.446" r="1"/><g fill="none" stroke="#000" stroke-linecap="round" stroke-linejoin="round"><path stroke-width="2" d="M20.214 17.61a7.996 7.996 0 0 1-1.678-5.118c0-3.643 2.036-6.596 4.547-6.596s4.546 2.953 4.546 6.596a7.992 7.992 0 0 1-1.678 5.118"/><ellipse cx="23.082" cy="26.265" rx="7.523" ry="9.361" stroke-width="2"/><path stroke-width="2" d="M45.315 17.98h0c-1.892-.775-3.15-2.144-3.15-3.703 0-2.416 3.016-4.374 6.735-4.374s6.733 1.958 6.733 4.374c0 1.56-1.256 2.928-3.148 3.701"/><ellipse cx="48.9" cy="26.21" rx="7.523" ry="9.361" stroke-width="2"/><path stroke-width="2" d="M42.123 29.489a8.676 8.676 0 0 1 2.413-4.273 1.439 1.439 0 0 1 .904-.386 1.505 1.505 0 0 1 .765.154 6.014 6.014 0 0 0 5.39 0 1.48 1.48 0 0 1 1.668.232 8.672 8.672 0 0 1 2.414 4.273"/><path d="M50.453 28.558s1.493-2.239 2.985 0m-8.954 0s1.492-2.239 2.985 0"/><path stroke-width="2" d="M16.305 29.545v0a8.677 8.677 0 0 1 2.414-4.273 1.44 1.44 0 0 1 .904-.386 1.505 1.505 0 0 1 .765.154 6.014 6.014 0 0 0 5.389 0 1.48 1.48 0 0 1 1.669.232 8.672 8.672 0 0 1 2.414 4.272v.001"/><path d="M24.636 28.613s1.493-2.238 2.985 0m-8.954 0s1.492-2.238 2.984 0"/><path stroke-width="2" d="M29.378 36.148a9.252 9.252 0 0 1 4.787 8.106v15.704H12V44.254a9.252 9.252 0 0 1 4.787-8.107m38.408.001a9.252 9.252 0 0 1 4.788 8.106v15.704H37.817V44.254a9.252 9.252 0 0 1 4.787-8.107"/><path stroke-width="2" d="m22.163 55-3.06-14.826h7.959L24.126 55h-1.963m35.164-10.155a9.876 9.876 0 0 0-16.854 0l8.427 10.1z"/><path stroke-width="2" d="M12 59.958s6.078-3.147 9.413-8.594m12.752 8.594a27.068 27.068 0 0 1-9.342-8.479m12.994 8.479a27.626 27.626 0 0 0 8.834-7.709m13.332 7.709a27.626 27.626 0 0 1-8.834-7.709"/></g></svg>