<svg viewBox="0 0 72 72" xmlns="http://www.w3.org/2000/svg"><g fill="none" stroke="#000" stroke-linecap="round" stroke-linejoin="round" stroke-miterlimit="10" stroke-width="2"><path d="M56.464 59.843H14.776a3 3 0 0 1-3-3V15.155a3 3 0 0 1 3-3h41.688a3 3 0 0 1 3 3v41.688a3 3 0 0 1-3 3z"/><path d="M51.653 25.764a5 5 0 1 1-4.8-5.193m-19.126 8.718a5 5 0 1 1 .382-7.061m22.083 29.168a5 5 0 1 1 0-7.071M24.387 42.86a5 5 0 1 1-5 5m5 .001-5.605-4.294m34.71 4.513-6.836-.219m-15.31-22.062-7.18-.284m27.49-4.435-5 4.487"/></g></svg>