<svg viewBox="0 0 72 72" xmlns="http://www.w3.org/2000/svg"><g fill="none" stroke="#000" stroke-linecap="round" stroke-linejoin="round" stroke-miterlimit="10" stroke-width="2"><path d="M32.733 23.097v-9.139a3 3 0 0 1 3-3h.34a3 3 0 0 1 3 3v9.139m0 10.315v24.546a3 3 0 0 1-3 3h-.34a3 3 0 0 1-3-3V33.412m-3.631-9.965h13.797v9.699H29.102zm3.919 4.886h5.889"/><path d="M51.885 67.092H19.95a3 3 0 0 1-3-3V7.95a3 3 0 0 1 3-3h31.935a3 3 0 0 1 3 3v56.142a3 3 0 0 1-3 3zM47.911 18.26h2.648m-2.648-5.629h2.648m-2.637 10.837h2.637m-2.648 4.735h2.648m-2.637 5.209h2.637m-2.648 5.629h2.648m-2.647 5.208h2.647m-2.658 4.735h2.658m-2.667 5.209h2.667m-2.652 4.716h2.652M21.282 18.26h2.648m-2.648-5.629h2.648m-2.637 10.837h2.637m-2.648 4.735h2.648m-2.637 5.209h2.637m-2.648 5.629h2.648m-2.647 5.208h2.647m-2.658 4.735h2.658m-2.667 5.209h2.667m-2.653 4.716h2.653"/></g></svg>