<svg viewBox="0 0 72 72" xmlns="http://www.w3.org/2000/svg"><path d="m29.392 18.596 4.387-4.386c2.776-2.777 7.32-2.777 10.096 0l3.578 3.577c2.776 2.777 2.776 7.32 0 10.097l-4.387 4.386M29.72 44.009a7.15 7.15 0 0 1-6.568-1.92l-3.578-3.578c-2.777-2.777-2.777-7.32 0-10.096l4.303-4.304m9.693 30.577V31.845a2.25 2.25 0 0 1 2.251-2.25h.543a2.25 2.25 0 0 1 2.25 2.25v22.843m-16.174 0h27.305v5.297H22.44zm-1.444-14.189-2.423 2.469m23.063-6.664.534.534M24.823 19.491l7.597 7.597" fill="none" stroke="#000" stroke-linecap="round" stroke-linejoin="round" stroke-miterlimit="10" stroke-width="2"/></svg>