<svg viewBox="0 0 72 72" xmlns="http://www.w3.org/2000/svg"><g fill="none" stroke="#000" stroke-linecap="round" stroke-width="2"><path stroke-miterlimit="10" d="M32.55 5v18.16m5-18.16v17"/><path stroke-linejoin="round" d="M26.55 24c-1-1-2.5-3.5-5-6a14.39 14.39 0 0 0-3-2l-2-3m30 17s-1 3 0 5c1.2 2.4 5.8 8 5.8 9l-2.8 3s-1.1.7-1.1 1.4a1.563 1.563 0 0 0 1.9 1.6s6.4-5.6 6.2-6c-.5-1.3-1.4-3.7-2-5-1-2 4-5 4-8 0-1.6-1-6-5-7a19.32 19.32 0 0 0-6-.3m-23 30.3a19.44 19.44 0 0 1-5-3 3.054 3.054 0 0 1 0-3l3-6a7.812 7.812 0 0 1-3-2c-1-1-.9-5-1-7-.1-1.8-2-8-2-8a37.46 37.46 0 0 0-8 1c-.7.2-2.6-1.6-2-2a79.74 79.74 0 0 1 8-6m12 33a11.35 11.35 0 0 1 1.2 1.2 1.758 1.758 0 0 1-2.2 2.7c-.6-.5-1-.9-1-.9"/><path stroke-linejoin="round" d="M47.55 38s-7.4 3.4-10 4a79.17 79.17 0 0 1-9 1c-4 4-5 6-5 6a20.04 20.04 0 0 0 3 2m21.998-12s-2.1 6.8-3 9c-.5 1.2-.6 1.9-1.5 4-.8 1.8-.9 2.1-.9 2.1a1.85 1.85 0 0 0 1 2.4 2.158 2.158 0 0 0 2.4-1.3l1-2.1M15.55 52v2c0 1.1-.7 2-1.5 2a1.56 1.56 0 0 1-1.5-1.6V52m6-12a61.25 61.25 0 0 0-6 4 3.881 3.881 0 0 0-1 3 46.19 46.19 0 0 0 1 5m44-27h2c3 0 7 3 6 7-.7 2.9-5 6 0 11"/><path stroke-miterlimit="10" d="M32.55 46v21m5-22v22"/><path stroke-linejoin="round" d="M29.55 25c-.2 2.269.385 3.392 1 4 1.432 1.416 3.389.387 5 2 1.149 1.15.813 2.332 2 3a3.718 3.718 0 0 0 3 0m-25 14v4"/></g></svg>