<svg viewBox="0 0 72 72" xmlns="http://www.w3.org/2000/svg"><g fill="none" stroke="#000" stroke-linecap="round" stroke-linejoin="round" stroke-miterlimit="10" stroke-width="2"><path d="M31.161 40.634a3.026 3.026 0 0 1 1.643 2.688v15.504c0 1.23-.74 2.285-1.8 2.748m-3.462-21.95s-6.354 1.785-7.068 11.489 6.973 11.424 6.973 11.424l.095-22.913zm13.317 1.002a3.022 3.022 0 0 0-1.446 2.542l-.173 15.504a2.997 2.997 0 0 0 1.816 2.788m3.66-21.93s6.334 1.855 6.939 11.566c.605 9.71-7.1 11.346-7.1 11.346l.161-22.913z"/><path d="M58.047 53.808c3.21-5.058 5.09-11.17 5.09-18.189 0-15.759-11.353-28.536-27.106-28.552v0H36v0C20.247 7.083 8.895 19.86 8.895 35.619c0 7.019 1.88 13.13 5.088 18.19"/><path d="M50.214 20.194c-3.133-4.444-8.167-7.312-14.189-7.318v-.001h-.02v0c-5.996.007-11.013 2.85-14.148 7.262"/></g></svg>