<svg viewBox="0 0 72 72" xmlns="http://www.w3.org/2000/svg"><g fill="none" stroke="#000" stroke-width="2"><path stroke-linecap="round" stroke-linejoin="round" d="m31.703 55.464 1.473-18.139m-2.484 25.309-.594 4.212H17.31l5.268-9.802m10.598-19.719-8.679 16.148m13.757 1.991-2.162-18.371m3.197 25.711.57 4.042h12.788L48.929 60M36.092 37.093l8.184 14.294m16.37-14.549a26.132 26.132 0 0 1-8.409 15.7m-4.956-42.457a26.226 26.226 0 0 1 13.022 17.327M14.44 16.524a26.13 26.13 0 0 1 20.294-9.64 26.484 26.484 0 0 1 2.677.135M10.457 42.887A26.305 26.305 0 0 1 9.7 25.373M43.763 57.65a26.215 26.215 0 0 1-28.123-6.67"/><path stroke-linecap="round" stroke-miterlimit="10" d="M37.163 36.16a3.876 3.876 0 1 1 1.738-3.234"/><path stroke-linecap="round" stroke-linejoin="round" d="M37.969 29.602 50.24 17.331M18.909 48.69l13.093-13.092m-.153-4.941L18.895 17.703m31.359 31.332L37.271 36.052m-6.122-2.599h-18.56m43.687-.02H38.901m-3.876-4.382V10.492"/><circle cx="11.682" cy="20.785" r="4.588" stroke-miterlimit="10"/><circle cx="42.121" cy="9.418" r="4.588" stroke-miterlimit="10"/><path stroke-miterlimit="10" d="M65.556 32.206a4.64 4.64 0 0 1-4.64 4.64q-.137 0-.27-.008a4.64 4.64 0 1 1 4.91-4.632zM52.55 55.464a4.64 4.64 0 1 1-4.64-4.64 4.641 4.641 0 0 1 4.64 4.64z"/><circle cx="13.141" cy="47.132" r="4.588" stroke-miterlimit="10"/></g></svg>