<svg viewBox="0 0 72 72" xmlns="http://www.w3.org/2000/svg"><g fill="none" stroke="#000" stroke-width="2"><path stroke-linecap="round" stroke-linejoin="round" d="m43.96 46.28 7.63 6.22a1.09 1.09 0 0 0 1.778-.845V33.477a1.09 1.09 0 0 0-1.778-.844l-7.63 6.18"/><circle cx="23.647" cy="24.253" r="5" stroke-linejoin="round"/><circle cx="38.749" cy="24.253" r="5" stroke-linejoin="round"/><path stroke-linejoin="round" d="M41.773 52.486H20.82a2.188 2.188 0 0 1-2.188-2.188V34.833a2.188 2.188 0 0 1 2.188-2.188h20.953a2.188 2.188 0 0 1 2.187 2.188v15.465a2.188 2.188 0 0 1-2.187 2.188z"/><rect x="11" y="10.958" rx="1.921" width="50" height="50" stroke-miterlimit="10"/></g></svg>