<svg viewBox="0 0 72 72" xmlns="http://www.w3.org/2000/svg"><path fill="none" stroke="#000" stroke-linecap="round" stroke-miterlimit="10" stroke-width="2" d="M62.359 6.195S36.534 62.135 7.178 42.17"/><path fill="none" stroke="#000" stroke-linecap="round" stroke-linejoin="round" stroke-width="2" d="m47.718 36.383-6.405 6.413v21.139h6.405V36.383zM30.613 48.78l-6.405 1.693v13.42h6.405V48.78zm-17.03 1.254-6.405-2.562v16.421h6.405V50.034zM39.86 16.45c5.55-3.93 8.755-.634 8.755-.634a2.323 2.323 0 0 1 .232 3.267l-9.966 11.495a2.323 2.323 0 0 1-3.267.233l-3.713-3.22a2.323 2.323 0 0 1-.233-3.267l1.632-1.882 3.234 2.804 5.812-6.703z"/><circle cx="48.575" cy="20.77" r="1.55"/><circle cx="46.884" cy="22.991" r="1.55"/><circle cx="40.021" cy="30.636" r="1.55"/><circle cx="42.21" cy="28.608" r="1.55"/><path fill="none" stroke="#000" stroke-linecap="round" stroke-linejoin="round" stroke-width="2" d="m64.822 11.896-6.405 10.482v41.515h6.405V11.896z"/></svg>