<svg viewBox="0 0 72 72" xmlns="http://www.w3.org/2000/svg"><g fill="none" stroke="#000" stroke-linecap="round" stroke-linejoin="round" stroke-miterlimit="10" stroke-width="2"><path d="m27.92 46.898-3.951 1.058c-3.786 1.015-7.852-3.043-9.798-6.445-.918-1.604-3.357-4.551-4.054-6.182-.92-2.156-3.383-8.707-3.383-8.707-.941-2.204.995-5.955 3.31-6.575 0 0 6.315-1.369 8.071-1.84 1.756-.47 7.91-2.442 7.91-2.442 2.314-.62 5.866 1.66 6.153 4.04 0 0 1.143 6.905 1.424 9.233.212 1.76-.427 5.532-.42 7.38.016 3.918-1.477 9.466-5.262 10.48z"/><path d="M28.35 39.018c.643 2.4-2.412-1.217-4.813-.574-2.4.643-3.237 5.304-3.88 2.903a4.5 4.5 0 1 1 8.693-2.329z"/><ellipse cx="25.726" cy="27.298" rx="2" ry="1.5" transform="rotate(-14.999 25.727 27.298)"/><path d="M21.67 23.436c2.135-.765 4.022-1.181 5.1-.914 1.252.31 2.224 1.03 3.124 2.106"/><ellipse cx="15.87" cy="29.938" rx="2" ry="1.5" transform="rotate(-14.999 15.87 29.939)"/><path d="M17.454 24.565c-2.232.405-4.074.989-4.873 1.759-.93.896-1.412 2.005-1.654 3.386m37.104 26.246-3.95-1.058c-3.786-1.015-5.28-6.562-5.263-10.48.007-1.849-.632-5.621-.42-7.382.28-2.328 1.424-9.232 1.424-9.232.287-2.379 3.839-4.66 6.153-4.04 0 0 6.154 1.973 7.91 2.443 1.756.471 8.072 1.84 8.072 1.84 2.314.62 4.25 4.371 3.309 6.575 0 0-2.463 6.552-3.384 8.709-.696 1.63-3.136 4.576-4.053 6.18-1.946 3.402-6.013 7.46-9.798 6.445z"/><ellipse cx="55.93" cy="37.887" rx="1.5" ry="2" transform="rotate(-75.001 55.932 37.888)"/><path d="M54.35 32.512c2.231.406 4.073.99 4.872 1.76.93.895 1.412 2.004 1.654 3.385"/><ellipse cx="46.074" cy="35.245" rx="1.5" ry="2" transform="rotate(-75.001 46.075 35.246)"/><path d="M50.134 31.383c-2.136-.765-4.023-1.181-5.1-.914-1.253.311-2.225 1.03-3.125 2.106m2.705 10.845c.643-2.4 1.48 2.26 3.88 2.904 2.402.643 5.457-2.975 4.813-.574a4.5 4.5 0 1 1-8.693-2.33z"/></g></svg>