<svg viewBox="0 0 72 72" xmlns="http://www.w3.org/2000/svg"><g fill="none" stroke="#000" stroke-linecap="round" stroke-linejoin="round" stroke-miterlimit="10" stroke-width="2"><path d="m17.74 28.643 33.348-12.815-2.307-6.003-36.324 13.96 1.738 4.52m2.393 9.092V54.97a3 3 0 0 0 3 3H52.5a3 3 0 0 0 3-3V37.397H16.588zm2.309-6.431H55.5v6.431m-38.912-.347v-3.092"/><path d="M19.7 37.397h4.683l5.729-6.43h-4.683zm12 0h4.683l5.729-6.43h-4.683zm12 0h4.683l5.729-6.43h-4.683z"/><circle cx="15.799" cy="30.966" r="2.511"/><path d="m47.879 17.084-7.655-3.947 4.37-1.68 6.003 3.094m-9.826 5.26L36.4 21.49l-7.653-3.953 4.373-1.677zM29.71 24.073l-4.384 1.646-7.625-4.006 4.384-1.646z"/></g></svg>