<svg viewBox="0 0 72 72" xmlns="http://www.w3.org/2000/svg"><g fill="none" stroke="#000" stroke-linecap="round" stroke-linejoin="round" stroke-miterlimit="10" stroke-width="2"><path d="m20.899 46.91 2.363 2.29m29.077-26.936s1.342-.018 2.236-.58c.894-.562 1.071-1.066 1.063-1.542s.736-2.326 2.307-2.73c1.57-.402 2.487-1.299 2.128-2.25-.36-.95-2.115-.696-2.554-.69-.44.007-3.188 1.672-3.188 1.672s-3.51 2.347-3.967 2.92c-.455.573-.52 1.02-.52 1.02l-23.64 23.07"/><circle cx="22.752" cy="47.779" transform="rotate(-.81 22.793 47.676)" r="5.47"/><path d="M30.167 38.34a7.47 7.47 0 0 1-.076-5.179c.844-2.405 3.214-5.47 3.206-5.529-.036-.256-2.465-.665-4.076 1.216-1.61 1.881-1.974 3.572-2.492 4.795-.517 1.223-.64 1.487-1.47 2.775-.781 1.212-2.348 2.224-3.71 2.414-1.363.19-3.567.627-6.243 2.645-3.2 2.413-5.34 8.513-1.546 13.664 1.734 2.355 6.314 5.256 11.43 3.318 3.765-1.427 5.095-3.635 5.512-4.644.57-1.378.89-3.167.955-3.636.11-.78-.048-1.655 1.755-2.36 1.803-.705 3.987-1.71 4.57-2.395.657-.773.72-1.514.47-2.173-.137.021-1.168.37-3.165-.097-1.996-.467-2.068-1.123-2.312-1.287"/></g></svg>