<svg viewBox="0 0 72 72" xmlns="http://www.w3.org/2000/svg"><path d="m39.674 30.278 1.534-.946m-.921 5.444 1.863-1.064m-1.23 5.602 1.827-1.355m-1.067 6.293 1.75-1.747m4.549 24.669-.247.013c-1.948.097-4.529-.647-6.052-3.858-1.383-2.915-1.945-6.796-2.723-13.161-1.786-14.617-3.558-35.488-6.106-37.167-3.658-2.41-16.42-2.705-15.94-3.24.103-.113.442-.215 1.615-.257.46-.017.036-1.48.61-1.484 1.164-.007 3.797.229 5.24.28.246.008.5 1.058.751 1.069 4.39.185 8.964.855 11.033 1.726.575.243 1.292.562 1.824 2.54 2.067 7.67 8.153 43.217 9.847 43.217 1.693 0 1.324-18.904.105-21.022-1.219-2.118 10.448 6.92 10.448 6.92s-2.068 1.25-2.892 4.036c-.824 2.785-.38 12.909-.38 12.909a7.5 7.5 0 0 1-7.332 7.498" fill="none" stroke="#000" stroke-linecap="round" stroke-linejoin="round" stroke-miterlimit="10" stroke-width="2"/></svg>