<svg viewBox="0 0 72 72" xmlns="http://www.w3.org/2000/svg"><path d="M57.838 30.228h-3.532m9.504 5.205h1.465v-8.838h-1.461M30.222 37.492l.066 6.685m6.273 0-.066-6.685m5.907 6.685-.066-6.685m-.621-14.841h1.375m-7.216 0h1.375m-7.648 0h1.374m-4.867 14.992s-2.042 2.664-2.042 4.734c0 2.563 1.38 4.072 3.218 4.648 1.96.616 18.128.202 19.35-.154 1.387-.403 3.313-1.11 3.456-5.99.143-4.881-1.762-6.25-2.57-6.75-1.254-.773-19.45-.157-19.45-.157s-5.19.363-7.658 1.036c-9.129 2.493-8.005 11.507-8.005 11.507H9.265V17.11h3.08s-1.647 9.711 8.477 12.178c2.164.528 6.989.783 6.989.783s19.023-.096 20.35.153c1.326.249 2.759.868 4.225 2.723 2.213 2.798 2.373 7.826 1.191 12.25-1.083 4.057-4.745 5.056-6.551 5.53-1.85.487-18.989.53-20.934 0-1.283-.348-3.306-.54-5.237-3.82-2.243-3.813-.492-8.022.558-9.032m38.42-9.983a3.381 3.381 0 0 0-.02 6.251m-29.525-7.887v.503m6.273 0v-.503m5.841.503v-.503M30.288 54.529v.546m6.273 0v-.546m5.841.546v-.546" fill="none" stroke="#000" stroke-linecap="round" stroke-linejoin="round" stroke-miterlimit="10" stroke-width="2"/></svg>