<svg viewBox="0 0 72 72" xmlns="http://www.w3.org/2000/svg"><circle cx="19.998" cy="52.092" r="15" fill="none" stroke="#000" stroke-linecap="round" stroke-linejoin="round" stroke-width="2"/><circle cx="16.197" cy="47.652" r="2"/><circle cx="19.777" cy="51.652" r="2"/><circle cx="12.457" cy="53.652" r="2"/><path fill="none" stroke="#000" stroke-linecap="round" stroke-linejoin="round" stroke-width="2.303" d="M8.703 37.842a19.06 19.06 0 0 1 5.269-10.398c6.823-6.823.444-11.226.335-16.164l.005.026a6.322 6.322 0 0 1 6.322-6.322 6.495 6.495 0 0 1 6.322 6.322c-.106 4.775-6.074 9.05-.297 15.497m-.259 8.204a18.48 18.48 0 0 1 4.572-7.563c6.823-6.823.444-11.226.335-16.164l.005.026a6.322 6.322 0 0 1 6.322-6.322 6.495 6.495 0 0 1 6.322 6.322c-.106 4.767-6.054 9.035-.326 15.464M49 67c-6.944-14.467-10.287-30.298-1.028-39.556 6.823-6.823.444-11.226.335-16.164l.005.026a6.322 6.322 0 0 1 6.322-6.322 6.495 6.495 0 0 1 6.322 6.322c-.11 4.938-6.488 9.34.336 16.164 9.258 9.258 5.827 25.063-1.116 39.53z"/><path fill="none" stroke="#000" stroke-linecap="round" stroke-linejoin="round" stroke-width="2.097" d="m32.321 65.557.382 1.345h9.844l1.237-3.573"/></svg>