<svg viewBox="0 0 72 72" xmlns="http://www.w3.org/2000/svg"><g fill="none" stroke="#000" stroke-linecap="round" stroke-linejoin="round" stroke-miterlimit="10" stroke-width="2"><path d="M20.2 59.516c-1.404.72-3.007 1.178-4.712 1.178-5.523 0-10-4.288-10-9.576m49.487-11.554L20.141 59.55m-6.908-8.432c0 2.675 2.816 5.804 5.954 4.33L58.1 33.172l.052.017c1.425.446 2.269 2.055 1.927 3.448l-1.639.94"/><path d="M5.488 51.118a3.872 3.872 0 0 1 7.745 0m34.981-26.186 13.402-7.682M46.7 30.384l20.112-11.507m-27.521 6.625 25.144-14.419m-41.113 37.17c-2.202 1.262-5.096.35-6.464-2.038s-.693-5.345 1.509-6.607c3.92-2.247 6.113-5.958 4.078-9.508l-5.489-9.671s1.407-2.24 3.498-1.876c.379.067.742-.1.887-.455.807-1.994 3.928-9.148 7.126-3.57l12.729 22.209c.303.529.153 1.184-.335 1.464L23.322 48.253m-2.777-21.501L31.78 20.31M19.578 38.826l1.803 3.146m1.108-6.333 2.444 4.263m-2.38-9.608 4.256-2.44"/></g></svg>