<svg viewBox="0 0 72 72" xmlns="http://www.w3.org/2000/svg"><g fill="none" stroke="#000" stroke-linecap="round" stroke-linejoin="round" stroke-width="2"><path d="M52.537 11.832s0-.519-3.667 17.814c-1.588 7.942-5.5 12.572-12.833 12.572s-11.245-4.5-12.833-12.443c-3.667-18.333-3.667-17.943-3.667-17.943h33zM23.044 31.479s.08-.261-5.42-3.928c-2.529-1.683-5.46-3.9-5.46-6.943s2.5-5.11 5.54-5.11h1.512m29.495 16.268s.08-.261 5.58-3.928c2.527-1.683 5.54-3.9 5.54-6.943a5.146 5.146 0 0 0-5.46-5.11h-2.155M26.55 50.332h18.333v9.167H26.55z"/><circle cx="36.037" cy="24.581" r="5"/><path d="M36.037 50.332v-8.114"/></g></svg>