<svg viewBox="0 0 72 72" xmlns="http://www.w3.org/2000/svg"><g stroke-miterlimit="10" fill="none" stroke="#000" stroke-width="2"><circle cx="21.6" cy="20.81" r="2.969"/><path stroke-linecap="round" stroke-linejoin="round" d="M25.37 28.59c3.052-.03 6.105.485 4.513-1.838-2.223-2.713-2.706-1.703-2.425-4.755.423-1.015 1.382-2.002 2.482-2.016 4.442-.107 8.627.786 12.82 1.604.81.261 1.704.644 2.312 1.698.542.958.802 1.671.709 2.766 0 0-.107 1.838-.74 2.659-2.226 2.886-8.516 4.081-9.837 5.261l-.248 4.9c-.073 1.487-.202 3.366-1.573 3.496-1.683.16-2.163-1.292-2.203-2.852 0 0-.173-5.068-.177-5.869-.005-.801.785-2.355 1.535-3.049s.215-.412 1.889-1.168l4.747-2.148c1.495-1.187.913-1.546.075-1.779-.838-.232-5.126-.647-5.126-.647M27 35c-1-1-3.451-4.45-6-7-1-1-3-2-3-2l-2-3m30 17s-1 3 0 5c1.188 2.377 5.791 8 5.791 9L49 57s-1.138.748-1.124 1.376C47.917 60.293 49.791 60 49.791 60s6.378-5.564 6.209-6c-.51-1.319-1.367-3.735-2-5-1-2 4-5 4-8 0-1.601-1-6-5-7-1.725-.432-3.773-.491-5.958-.349M24 64c-1.8-.76-3.957-1.957-5-3-.353-.353-.633-1.735 0-3l3-6s-1.419-.419-3-2c-1-1-.887-5.003-1-7-.102-1.817-2-8-2-8s-4 0-8 1c-.685.172-2.553-1.558-2-2 5-4 5-4 8-6m12 33 1.23 1.166a1.69 1.69 0 0 1 .042 2.396c-.654.676-1.656.825-2.23.333L24 64"/><path stroke-linecap="round" stroke-linejoin="round" d="M47 48s-7.385 3.359-10 4c-2.44.598-9 1-9 1-4 4-5 6-5 6s1.629 1.342 3 2m22-12s-2.143 6.789-3 9c-.47 1.213-.618 1.922-1.542 3.958-.824 1.816-.91 2.118-.91 2.118-.302 1.059.127 2.148.952 2.424s1.9-.307 2.389-1.292l1.049-2.114M15 62v2c0 1.1-.675 2-1.5 2s-1.5-.7-1.5-1.557v-2.401M18 50s-5 3-6 4-1 2.21-1 3c0 .518.483 2.854 1 5.042M55.68 35.03l2.32-.032s7 3 6 7c-.728 2.91-5 6 0 11M15 58v4"/></g></svg>