<svg viewBox="0 0 72 72" xmlns="http://www.w3.org/2000/svg"><g fill="none" stroke="#000" stroke-miterlimit="10" stroke-width="2"><circle cx="19.386" cy="33.063" r="2.969"/><path stroke-linecap="round" stroke-linejoin="round" d="M5 36c3 0 9 3 15 3s10-3 16-3 11 3 16 3 7-3 15-3m-20.994 7.964C48.045 44.53 50.023 45 52 45c2.744 0 4.585-.904 7.009-1.72m-46.232.607C15.044 44.488 17.523 45 20 45c6 0 10-3 16-3m-9.999 8.959c3.208-.883 6.203-2.084 9.999-2.084 4.406 0 8.273 1.618 11.997 2.478"/><path stroke-linecap="round" stroke-linejoin="round" d="M26 38c1-3 .991-5.991 4-9 2-2 5-6 7-6s7 3 7 3"/><path stroke-linecap="round" stroke-linejoin="round" d="M43 37s-5.157-3.89-7-5c-1.916-1.153-2-2-2-2"/></g></svg>