<svg viewBox="0 0 72 72" xmlns="http://www.w3.org/2000/svg"><g fill="none" stroke="#000" stroke-width="2"><path stroke-linecap="round" stroke-linejoin="round" d="M4.822 31.349c2.86 0 8.58 2.86 14.299 2.86s9.532-2.86 15.252-2.86 10.486 2.86 15.252 2.86 6.673-2.86 14.3-2.86m-20.019 7.626a19.967 19.967 0 0 0 5.72.953c2.574 0 4.385-.858 6.673-1.62m-44.043.572a26.505 26.505 0 0 0 6.864 1.048c5.72 0 9.533-2.86 15.252-2.86m-9.532 8.58c3.05-.858 5.91-2.002 9.533-2.002 4.194 0 7.912 1.525 11.439 2.383"/><circle cx="18.548" cy="28.583" r="3" stroke-miterlimit="10"/><path stroke-linecap="round" stroke-linejoin="round" d="M24.84 33.255c.953-2.86.953-5.72 3.813-8.58 1.907-1.906 4.766-5.72 6.673-5.72s6.673 2.86 6.673 2.86"/><path stroke-linecap="round" stroke-linejoin="round" d="M41.046 32.302s-4.957-3.718-6.673-4.767c-1.811-1.144-1.907-1.906-1.907-1.906"/></g></svg>