<svg viewBox="0 0 72 72" xmlns="http://www.w3.org/2000/svg"><g fill="none" stroke="#000" stroke-width="2"><path stroke-linecap="round" stroke-linejoin="round" d="M5.724 52.696s2.288 1.24 8.77 2.669a210.288 210.288 0 0 0 21.734 3.05m15.443-10.676s.954-3.676 2.86-3.676a2.17 2.17 0 0 1 1.274.49 2.516 2.516 0 0 1 .598 2.669M50.501 57.49a4.698 4.698 0 0 1 5.044-.766m2.888 1.936s3.146 2.192 4.195.667c.572-.858.858-2.86-2.002-3.718m-27.933 5.517a13.63 13.63 0 0 0 9.193-1.084c3.527-2.383 5.972-8.49 14.552-9.443"/><circle cx="33.559" cy="8.75" r="3" stroke-miterlimit="10"/><path stroke-linecap="round" stroke-linejoin="round" d="M10.585 21.047h4.862a18.63 18.63 0 0 0 8.58-2.383 22.68 22.68 0 0 1 7.625-2.86 77.446 77.446 0 0 1 8.58-.476 13.669 13.669 0 0 1 7.626 2.383 30.16 30.16 0 0 0 6.196 3.813 291.5 291.5 0 0 1 3.337 1.43"/><path stroke-linecap="round" stroke-linejoin="round" d="M40.766 20.044s-1.052 7.93-.993 10.03a21.208 21.208 0 0 0 .51 3.842 92.371 92.371 0 0 1 .537 10.963l-1.098 8.58c-.172 1.048-.86 1.906-1.55 1.906s-1.291-.858-1.291-1.907V44.88a17.505 17.505 0 0 0-.43-3.718l-.861-3.908c-.258-1.049-.603-1.811-.86-1.811s-5.796 5.412-6.352 7.316c-.4 1.374-1.872 7.865-1.872 7.865-.258.964-.945 1.62-1.692 1.47-.763-.153-1.004-1.194-.96-2.136a77.064 77.064 0 0 1 .991-8.334c.65-1.93 4.636-8.084 4.636-8.084a15.248 15.248 0 0 0 1.674-3.789 21.395 21.395 0 0 0 .647-5.652 5.33 5.33 0 0 0-.861-2.86 5.107 5.107 0 0 0-.861-.953M37.512 7.72s.597-.277.954.019c.421.348.707 1.649 1.205 2.212a3.363 3.363 0 0 0 1.87 1.105"/></g></svg>