<svg viewBox="0 0 72 72" xmlns="http://www.w3.org/2000/svg"><g fill="none" stroke="#000" stroke-miterlimit="10" stroke-width="2"><circle cx="36" cy="45.021" r="23"/><circle cx="36" cy="45.021" r="23" stroke-linecap="round" stroke-linejoin="round"/><circle cx="36" cy="45.021" r="23"/><path stroke-linecap="round" stroke-linejoin="round" d="M29 19v-2.979M43 19v-2.979m-14 0h14M25.99 13.01l-9.022-9.022M31.99 12.01l-8.007-8.006M34 8l3.921-3.983M46 13l8.999-8.978m-38.031-.034h7.015m13.938.029h17.078"/><circle cx="36" cy="45.021" r="23"/><path stroke-linecap="round" stroke-linejoin="round" d="m35.986 28-5.128 10.401-11.477 1.672 8.308 8.092-1.956 11.431 10.263-5.4 10.267 5.393-1.965-11.43 8.302-8.098-11.477-1.663z"/></g></svg>