<svg viewBox="0 0 72 72" xmlns="http://www.w3.org/2000/svg"><g fill="none" stroke="#000" stroke-miterlimit="10" stroke-width="2"><circle cx="35.969" cy="11.094" r="3"/><path stroke-linecap="round" stroke-linejoin="round" d="M11.875 24 17 23.993c2.75-.004 6.8-1.13 9-2.5 2.2-1.371 5.8-2.718 8-2.993 2.2-.275 6.25-.5 9-.5h0c2.75 0 6.35 1.125 8 2.5 1.65 1.375 4.575 3.175 6.5 4L61 26"/><path stroke-linecap="round" stroke-linejoin="round" d="M45 23v22c0 1.1-.137 2.89-.304 3.977l-1.392 9.046C43.137 59.11 42.325 60 41.5 60c-.825 0-1.5-.9-1.5-2v-9c0-1.1-.219-2.873-.485-3.94l-1.03-4.12c-.266-1.067-.71-1.94-.985-1.94s-1.04.72-1.7 1.6l-3.6 4.8c-.66.88-1.535 2.436-1.943 3.457l-2.515 6.286C27.334 56.164 26.324 57 25.5 57c-.824 0-1.363-.89-1.195-1.977l1.39-9.046c.168-1.087.804-2.726 1.414-3.641l3.782-5.672c.61-.915 1.443-2.5 1.851-3.521l.516-1.286C33.666 30.836 34 29.1 34 28v-1c0-1.1-.45-2.45-1-3l-1-1m24 30s0-4 2-4 2 2 1 3m-6 11.444s1.105-1.552 2-2c2-1 3 0 3 0m4 1.3s3.269 2.305 4.42.67c.645-.914.913-3.028-2.115-3.94M6.813 57.188S9.165 58.48 16 60c9 2 22.813 3.188 22.813 3.188M33 66c4 1 9 1 12-1 3.72-2.48 6-9 15-10"/></g></svg>