<svg viewBox="0 0 72 72" xmlns="http://www.w3.org/2000/svg"><g fill="none" stroke="#000"><path stroke-linecap="round" stroke-linejoin="round" stroke-width="2.04" d="M15.997 29.551a1.006 1.006 0 0 1-.916.954h-1.832a1.006 1.006 0 0 1-.917-.954V14.3a1.006 1.006 0 0 1 .916-.953h1.833a1.006 1.006 0 0 1 .916.953zm40.306 0a1.006 1.006 0 0 1-.916.954h-1.832a1.006 1.006 0 0 1-.916-.954V14.3a1.006 1.006 0 0 1 .916-.953h1.832a1.006 1.006 0 0 1 .916.953z"/><path stroke-linecap="round" stroke-linejoin="round" stroke-width="2.05" d="M39.814 20.971c3.664 0 12.825.954 12.825.954"/><path stroke-linecap="round" stroke-linejoin="round" stroke-width="2.03" d="M15.996 21.925a99.932 99.932 0 0 1 12.826-.953"/><circle cx="34.318" cy="17.114" r="3" stroke-miterlimit="10" stroke-width="2.04"/><path stroke-linecap="round" stroke-linejoin="round" stroke-width="2.04" d="m19.661 21.925 1.924 5.91c.458 1.525 1.557 1.62 2.473.381l1.374-2.001a5.202 5.202 0 0 1 4.306-2.002l1.832.286a26.484 26.484 0 0 0 5.496 0l1.832-.286a4.855 4.855 0 0 1 4.306 2.002l1.374 2.002c.916 1.239 2.015 1.143 2.473-.382l1.924-5.91"/><path stroke-linecap="round" stroke-linejoin="round" stroke-width="2" d="M28.821 28.598s.183 1.049.459 2.383a26.307 26.307 0 0 1 .457 4.29 2.198 2.198 0 0 1-.515 1.68 14.936 14.936 0 0 1-2.476 1.595 2.709 2.709 0 0 0-1.096 2.531l1.43 12.182a1.985 1.985 0 0 0 1.741 2.031c1.008 0 1.55-.69 1.55-1.739 0 0 .005-7.836.092-8.824a3.806 3.806 0 0 1 .607-1.83 2.184 2.184 0 0 1 1.087-.746 7.34 7.34 0 0 1 1.97-.262 7.725 7.725 0 0 1 2.02.262 2.193 2.193 0 0 1 1.086.746 3.816 3.816 0 0 1 .607 1.83c.087.988.091 8.824.091 8.824 0 1.049.543 1.739 1.55 1.739a1.986 1.986 0 0 0 1.742-2.03l1.43-12.182a2.709 2.709 0 0 0-1.095-2.532 14.976 14.976 0 0 1-2.477-1.595 2.198 2.198 0 0 1-.516-1.68 26.218 26.218 0 0 1 .459-4.29c.274-1.335.457-2.383.457-2.383"/></g></svg>