<svg viewBox="0 0 72 72" xmlns="http://www.w3.org/2000/svg"><g fill="none" stroke="#000" stroke-linecap="round" stroke-linejoin="round" stroke-miterlimit="10" stroke-width="2"><path d="m20.18 61.26-.037.037a4.12 4.12 0 0 1-5.81 0l-1.815-1.815-1.815-1.815a4.12 4.12 0 0 1 0-5.81L41.2 21.36a4.103 4.103 0 0 1 3.263-1.183 4.096 4.096 0 0 1 2.034.749.804.804 0 0 0 1.023-.077l.014-.014 10.73-10.73a2.06 2.06 0 0 1 2.905 0l.363.363.363.363a2.06 2.06 0 0 1 0 2.905L51.163 24.468a.802.802 0 0 0-.1 1.02l.014.017c.436.61.685 1.314.747 2.032a4.103 4.103 0 0 1-1.183 3.262L32.746 48.694"/><circle cx="27.508" cy="56.001" r="5"/></g></svg>