<svg viewBox="0 0 72 72" xmlns="http://www.w3.org/2000/svg"><g fill="none" stroke="#000" stroke-linecap="round"><path stroke-linejoin="round" stroke-width="2" d="M45 56.435V52m13 1.435V49"/><path stroke-linejoin="round" stroke-miterlimit="10" stroke-width="2" d="m28.676 31.135-2.703-5.405-2.703-2.027L20.568 21l-4.73 12.838-1.351 8.108L11.784 46"/><path stroke-linejoin="round" stroke-miterlimit="10" stroke-width="2" d="m24.622 25.054.675 6.081h6.757l5.405 4.054"/><path stroke-linejoin="round" stroke-miterlimit="10" stroke-width="2" d="m32.054 31.135 2.027 4.054.676 4.054-2.703 4.057L28 46"/><path stroke-miterlimit="10" stroke-width="2" d="M55.542 44.325c.86.707 2.236 1.167 3.792 1.167 2.607 0 4.72-1.287 4.72-2.874 0-.105-.01-.21-.029-.313 1.323-.431 2.255-1.458 2.255-2.659 0-1.586-1.63-2.874-3.64-2.874a4.59 4.59 0 0 0-.502.032c-.851-1.655-2.7-2.804-4.849-2.804-2.509 0-4.614 1.562-5.193 3.67"/><path stroke-miterlimit="10" stroke-width="1.9" d="M52.898 42.9c0-1.586-1.63-2.874-3.64-2.874a4.59 4.59 0 0 0-.502.032c-.851-1.655-2.7-2.804-4.849-2.804-2.955 0-5.351 2.168-5.351 4.843 0 .177.011.353.033.529-1.321.43-2.251 1.457-2.251 2.656 0 1.586 1.63 2.874 3.64 2.874a4.282 4.282 0 0 0 2.182-.578c.86.708 2.236 1.168 3.792 1.168 2.607 0 4.72-1.287 4.72-2.874 0-.105-.01-.21-.029-.313 1.323-.432 2.255-1.459 2.255-2.659z"/><path stroke-linejoin="round" stroke-miterlimit="10" stroke-width="2" d="M6 53c3.091.591 3.947-3.523 8-4 3.61-.425 4.056 2.411 6.667 3.546 1.03.447 1.947.452 2.333.454 3.662.018 4.995-3.595 8-4 1.33-.179 3.301.227 6 3"/></g></svg>