<svg viewBox="0 0 72 72" xmlns="http://www.w3.org/2000/svg"><g fill="none" stroke="#000" stroke-linecap="round" stroke-linejoin="round" stroke-miterlimit="10" stroke-width="2"><path d="m66 34-4 15H41c0-10.49-2.9-12-5-12s-5 1.51-5 12H10L6 34c0-4.88 4.23-6.95 9.81-7.78 2.31-2.16 6.51-2.36 10.68-2.08 2.55-4.75 7.65.26 9.51.26 1.85 0 7.47-4.98 10.32-.31 3.9-.19 7.71.11 9.87 2.13 5.58.83 9.81 2.9 9.81 7.78zM41 49H31"/><path d="M58 31c0-2.18-.68-3.71-1.81-4.78m-40.38 0C14.68 27.29 14 28.82 14 31m34 2.57c0-3.54-.35-6.06-.94-7.82l-.74-1.66m-19.83.05-.64 1.61c-.53 1.76-.85 4.28-.85 7.82M13 49v-6c0-.55.45-1 1-1m5 7v-6c0-.55.45-1 1-1m5 7v-6c0-.55.45-1 1-1m31 7v-6c0-.55.45-1 1-1m-7 7v-6c0-.55.45-1 1-1m-7 7v-6c0-.55.45-1 1-1m-5 7H31c0-10.49 2.9-12 5-12s5 1.51 5 12z"/></g></svg>