<svg viewBox="0 0 72 72" xmlns="http://www.w3.org/2000/svg"><g fill="none" stroke="#000" stroke-linecap="round" stroke-linejoin="round" stroke-miterlimit="10" stroke-width="2"><path d="M29.386 51.208c.485-1.085 1.625-.897 1.625-.897l.078.009c6.72 1.564 13.048 1.247 18.032-2.468m-26.696-.348a1.485 1.485 0 0 0-.113-1.793l-.036-.039c-7.274-6.678-10.968-14.912-5.736-24.8C22.638 9.346 34.492-.916 48.563 6.528c11.3 5.98 12.478 16.317 9.665 26.01M45.545 49.869l-31.092-16.45"/><path d="m21.352 69.316 3.993-9.047 7.618-17.057-5.932-3.138-9.834 15.884-4.46 7.149c-.277.469-.285.72-.229 1.103v0c.058.396.376.8.8 1.177 0 0 1.656 1.521 4.168 2.613"/><circle cx="54.822" cy="40.881" r="5"/></g></svg>