<svg viewBox="0 0 72 72" xmlns="http://www.w3.org/2000/svg"><g fill="none" stroke="#000" stroke-linecap="round" stroke-linejoin="round" stroke-miterlimit="10" stroke-width="2"><path d="M12 54.5c1.742-2.03 4.338-4.426 7-4 2.888.462 3.303 3.484 6 4 3.091.591 4.947-3.523 9-4 3.61-.425 4.056 2.411 6.667 3.546 1.03.447 1.947.452 2.333.454 3.662.018 4.995-3.595 8-4 1.33-.179 3.301.227 6 3m-15.313-9.42C50.723 46.144 56.747 48.5 60 48.5M10 49c3.572-.357 9.749-8.879 22.823-6.7l.989.17m18.414-8.982C53.377 26.962 48.8 20.698 42 19.5s-13.243 3.12-14.394 9.647l24.62 4.341z"/><path d="M44.84 32.186C45.991 25.659 44.72 19.98 42 19.5s-5.857 4.423-7.008 10.95l9.848 1.736zM37.312 46.09h0l2.604-14.772h0z"/></g></svg>