<svg viewBox="0 0 72 72" xmlns="http://www.w3.org/2000/svg"><path d="M48 49V26a3 3 0 0 0-3-3h0a3 3 0 0 0-3 3v23m-1-14a2 2 0 0 1-2-2v-2a2 2 0 0 0-2-2h0a2 2 0 0 0-2 2v2a6 6 0 0 0 6 6m8 0a2 2 0 0 0 2-2v-5a2 2 0 0 1 2-2h0a2 2 0 0 1 2 2v5a6 6 0 0 1-6 6m16 10c-1 0-5.177-.836-6-1-5-1-9.15-1.194-15 1-8 3-8.943 2.26-10 2-2.158-.53-5.197-3.87-9-5-4.706-1.399-6.102-1.111-9-1-1.848.07-5.126.523-9 3m0-12c.526-1.02 1.728-2.967 4-4 2.61-1.186 3-2 6-4 4.746-3.164 6.792-9.028 11-9 1.72.011 4 3 5 6m32 10s-3 0-6 1c-.865.288-2 0-2 0" fill="none" stroke="#000" stroke-linecap="round" stroke-linejoin="round" stroke-miterlimit="10" stroke-width="2"/></svg>