<svg viewBox="0 0 72 72" xmlns="http://www.w3.org/2000/svg"><g fill="none" stroke="#000" stroke-linecap="round" stroke-linejoin="round" stroke-width="2"><path stroke-miterlimit="10" d="M22.5 10h27v52h-27z"/><path stroke-miterlimit="10" d="M27 52h10v10H27zm5 10V52"/><path d="m36 25.825-4.87-6.244-.156-.232A2.863 2.863 0 1 1 36 16.621a2.863 2.863 0 1 1 4.888 2.936L36 25.825z"/><path stroke-miterlimit="10" d="M37 36h-2v-5m-6 5h-2v-5m18 5h-2v-5m-6 16h-2v-5m-6 5h-2v-5m18 5h-2v-5m2 16h-2v-5"/></g></svg>