<svg viewBox="0 0 72 72" xmlns="http://www.w3.org/2000/svg"><g fill="none" stroke="#000" stroke-linecap="round" stroke-linejoin="round" stroke-width="2"><path stroke-miterlimit="10" d="M8.5 18h55v35h-55z"/><path stroke-miterlimit="10" d="M27.5 40h17v13h-17zM36 53V40"/><circle cx="36" cy="28.5" r="6.5"/><path d="M36 29v-4m0 4 2-1"/><path stroke-miterlimit="10" d="M22 48h-2v-5m-5 5h-2v-5m9-5h-2v-5m-5 5h-2v-5m9-5h-2v-5m-5 5h-2v-5m46 25h-2v-5m-5 5h-2v-5m9-5h-2v-5m-5 5h-2v-5m9-5h-2v-5m-5 5h-2v-5"/></g></svg>