<svg viewBox="0 0 72 72" xmlns="http://www.w3.org/2000/svg"><g fill="none" stroke="#000" stroke-linecap="round" stroke-linejoin="round" stroke-width="2"><path d="M13 14h46v46H13z"/><path d="M43 36.9 41 39a11.184 11.184 0 0 1-3.8 1 3 3 0 1 0-.4 0 9.289 9.289 0 0 1-3.8-1l-.3.3-1.5-4A6.027 6.027 0 0 1 43 36.9zM29.5 50h13v10h-13zM36 60V50"/><path d="m32.7 39.3-1.4 1.4-4.6-1.9 4.3-4.3.2.8 1.5 4zM47 37l-4 4-2-2 2-2.1 1.9-1.9 2.1 2z"/><path d="M43 41a8.813 8.813 0 0 1-5.5 2h-.9a8.88 8.88 0 0 1-5.6-2l2-2a11.184 11.184 0 0 0 3.8 1h.4a9.289 9.289 0 0 0 3.8-1zM21 25h-2v-5m34 15h-2v-5m-6-5h-2v-5m10 5h-2v-5m-14 5h-2v-5m-6 5h-2v-5m-6 15h-2v-5m2 15h-2v-5m34 5h-2v-5m2 15h-2v-5m-30 5h-2v-5"/></g></svg>