<svg viewBox="0 0 72 72" xmlns="http://www.w3.org/2000/svg"><g fill="none" stroke="#000" stroke-miterlimit="10"><path stroke-linecap="round" stroke-linejoin="round" stroke-width="2" d="M16 26h40v34H16zm-2-4h44v4H14z"/><path stroke-linecap="round" stroke-linejoin="round" stroke-width="2" d="M19.5 26h3v34h-3m5.433-34h3v34h-3m22.134 0h-3V26h3M52.5 60h-3V26h3M36 12l-17 9.75h34zm-4.5 38h9v10h-9zM36 60V50"/><circle cx="36" cy="35" r="5" stroke-width="2"/><path stroke-linecap="round" stroke-linejoin="round" d="M36.948 34.262c-.098-.38-.52-.666-1.027-.666h0c-.579 0-1.048.373-1.048.834 0 .461.47.835 1.048.835l-.021.003c.579 0 1.048.374 1.048.835 0 .46-.469.835-1.048.835h0c-.507 0-.93-.287-1.027-.667m1.038-2.675V32.8m0 4.933v-.795"/></g></svg>