<svg viewBox="0 0 72 72" xmlns="http://www.w3.org/2000/svg"><g fill="none" stroke="#000" stroke-linecap="round" stroke-linejoin="round" stroke-miterlimit="10" stroke-width="2"><path d="M17 50h38v10H17zm17.14-17-9.28 10H22V33zM50 33v10h-2.86l-9.28-10zM27 16h18v10H27zm27 17H37.86L36 31l-1.86 2H18l4-3 2-4h24l2 4zm5.5 17h-47l4-3 2-4h6.36L23 45h26l-1.86-2h6.36l2 4zM49 16H23l4-3 2-4h14l2 4z"/><path d="M41.5 60h-11v-7h11z"/><path d="M34.063 60v-7h4v7M49 45H23l1.86-2 9.28-10L36 31l1.86 2 9.28 10zM25 57h-2v-4m10-30h-2v-4m10 4h-2v-4m10 38h-2v-4"/><path d="M34 42h-2v-2m8 2h-2v-2"/></g></svg>