<svg viewBox="0 0 72 72" xmlns="http://www.w3.org/2000/svg"><path d="M5 40.5V55h26V40.5H5zm13.521 2.478a.686.686 0 0 1 .686.686v4.824h.203c.064-.483.27-.913.584-1.234.364-.374.839-.617 1.359-.772a.519.519 0 0 1 .147-.021.519.519 0 0 1 .498.371.519.519 0 0 1-.35.645c-.4.118-.711.293-.912.5-.14.144-.218.314-.266.511h.205a.503.503 0 0 1 .504.502.503.503 0 0 1-.504.504h-1.468v1.299a.686.686 0 0 1-.686.685.686.686 0 0 1-.686-.685v-1.299h-1.47a.503.503 0 0 1-.502-.504.503.503 0 0 1 .502-.502h.2a1.063 1.063 0 0 0-.265-.511c-.2-.207-.513-.382-.912-.5a.519.519 0 0 1-.35-.645.519.519 0 0 1 .465-.37.519.519 0 0 1 .18.02c.52.155.997.398 1.361.772.313.321.518.75.582 1.234h.21v-4.824a.686.686 0 0 1 .685-.686zM41 40.5V55h26V40.5H41zm12.521 2.478a.686.686 0 0 1 .686.686v4.824h.203c.064-.483.27-.913.584-1.234.364-.374.839-.617 1.359-.772a.519.519 0 0 1 .147-.021.519.519 0 0 1 .498.371.519.519 0 0 1-.35.645c-.4.118-.711.293-.912.5-.14.144-.218.314-.266.511h.205a.503.503 0 0 1 .504.502.503.503 0 0 1-.504.504h-1.468v1.299a.686.686 0 0 1-.686.685.686.686 0 0 1-.686-.685v-1.299h-1.47a.503.503 0 0 1-.502-.504.503.503 0 0 1 .502-.502h.2a1.063 1.063 0 0 0-.265-.511c-.2-.207-.513-.382-.912-.5a.519.519 0 0 1-.35-.645.519.519 0 0 1 .465-.37.519.519 0 0 1 .18.02c.52.155.997.398 1.361.772.313.321.518.75.582 1.234h.21v-4.824a.686.686 0 0 1 .685-.686zM5 17v14.5h26V17H5zm13.521 3.478a.686.686 0 0 1 .686.686v4.822h.203c.065-.482.271-.911.584-1.232.364-.374.839-.617 1.359-.772a.519.519 0 0 1 .147-.021.519.519 0 0 1 .498.371.519.519 0 0 1-.35.645c-.4.118-.711.293-.912.5-.14.143-.218.313-.266.51h.205a.503.503 0 0 1 .504.503.503.503 0 0 1-.504.502h-1.468v1.301a.686.686 0 0 1-.686.686.686.686 0 0 1-.686-.686v-1.3h-1.47a.503.503 0 0 1-.502-.503.503.503 0 0 1 .502-.504h.2a1.063 1.063 0 0 0-.265-.51c-.2-.206-.513-.38-.912-.5a.519.519 0 0 1-.35-.644.519.519 0 0 1 .465-.37.519.519 0 0 1 .18.02c.52.155.997.398 1.361.772.313.321.518.75.582 1.232h.21v-4.822a.686.686 0 0 1 .685-.686zM41 17v14.5h26V17H41zm12.521 3.478a.686.686 0 0 1 .686.686v4.822h.203c.065-.482.271-.911.584-1.232.364-.374.839-.617 1.359-.772a.519.519 0 0 1 .147-.021.519.519 0 0 1 .498.371.519.519 0 0 1-.35.645c-.4.118-.711.293-.912.5-.14.143-.218.313-.266.51h.205a.503.503 0 0 1 .504.503.503.503 0 0 1-.504.502h-1.468v1.301a.686.686 0 0 1-.686.686.686.686 0 0 1-.686-.686v-1.3h-1.47a.503.503 0 0 1-.502-.503.503.503 0 0 1 .502-.504h.2a1.063 1.063 0 0 0-.265-.51c-.2-.206-.513-.38-.912-.5a.519.519 0 0 1-.35-.644.519.519 0 0 1 .465-.37.519.519 0 0 1 .18.02c.52.155.997.398 1.361.772.313.321.518.75.582 1.232h.21v-4.822a.686.686 0 0 1 .685-.686z"/><path fill="none" stroke="#000" stroke-linecap="round" stroke-linejoin="round" stroke-width="2" d="M67 17H5v38h62z"/></svg>