<svg viewBox="0 0 72 72" xmlns="http://www.w3.org/2000/svg"><g fill="none" stroke="#000" stroke-linecap="round" stroke-linejoin="round"><path stroke-width="2" d="M21.035 45.209h29.93m-31.763-4.938h33.596M41.19 60.958c6.246-8.246 12.492-18.377 12.492-26.398a14.292 14.292 0 0 0-6.246-12.007S42.734 19.538 42.734 16a7.303 7.303 0 0 1 2.328-4.954 1.116 1.116 0 0 0-.819-1.88H27.757a1.116 1.116 0 0 0-.819 1.88A7.303 7.303 0 0 1 29.266 16c0 3.538-4.702 6.553-4.702 6.553a14.292 14.292 0 0 0-6.246 12.007c0 8.02 6.246 18.151 12.492 26.398z"/><path stroke-width="1.939" d="M30.59 60.945s-4.442 1.46-4.442 4.055h19.704c0-2.595-4.441-4.055-4.441-4.055"/><path stroke-width="2" d="M29.098 14.649a6.072 6.072 0 0 0-8.789 7.613l1.55 2.682m21.046-10.295a6.072 6.072 0 0 1 8.789 7.613l-1.55 2.682"/><path d="M18.547 37.338h5.296v-1.957h-2.044v-1.957h3.914v3.914h3.914v-2.044H27.67v-1.87h4.001v3.914h3.914v-1.957h-2.044v-1.957h3.914v3.914h3.914v-1.957h-1.957v-1.957h4.001v3.914h3.914v-1.957h-2.044v-1.957h3.914v3.914h4.256"/><path stroke-width="2" d="M32.723 14.649h10.182"/></g></svg>