<svg viewBox="0 0 72 72" xmlns="http://www.w3.org/2000/svg"><path fill-rule="evenodd" d="M5 17h62v38H5V17zm17.724 1.83c.701.157 1.308.628 1.731 1.306.574.909.192 1.76-.21 2.28a3.754 3.754 0 0 1-.435.469c.314.304.762.748 1.278 1.307a.5.5 0 0 1 .003.675l-2.22 2.449a.5.5 0 0 1-.725.018l-1.397-1.398a5.129 5.129 0 0 1-.449.28c-.445.245-1.148.537-1.83.342-.535-.15-.981-.435-1.271-.863-.291-.429-.389-.95-.321-1.508a.506.506 0 0 1 .012-.064c.346-1.346 1.505-2.16 2.798-2.146-.076-.927.229-1.894.874-2.576a.498.498 0 0 1 .058-.053c.653-.502 1.396-.677 2.104-.518zm26.665.006c.725-.134 1.488.053 2.14.555.021.016.04.034.059.053.648.685.92 1.622.836 2.528 1.284-.025 2.483.72 2.834 2.084a.37.37 0 0 1 .012.065c.146 1.207-.627 2.15-1.724 2.458-.685.196-1.38-.106-1.816-.358a4.894 4.894 0 0 1-.426-.278l-1.32 1.32a.5.5 0 0 1-.739-.034l-2.117-2.55a.5.5 0 0 1 .019-.66l1.069-1.149c-.141-.13-.3-.293-.444-.485-.394-.522-.757-1.368-.187-2.272.435-.694 1.08-1.142 1.804-1.277zM22.931 44.344a.5.5 0 0 1 .372.246l1.747 3.029a.5.5 0 0 1-.079.603l-1.055 1.058c.355.38.544.788.622 1.192.1.52.007.994-.056 1.296a.502.502 0 0 1-.057.15c-.421.728-1.067 1.169-1.8 1.267-.724.096-1.472-.15-2.102-.67a.512.512 0 0 1-.045-.043c-.383-.405-.677-.855-.83-1.368a2.873 2.873 0 0 1-.116-1.002c-1.287-.051-2.414-.799-2.77-2.178a.489.489 0 0 1-.011-.065c-.069-.563.038-1.105.325-1.552.287-.448.734-.77 1.289-.927a2.53 2.53 0 0 1 2.589.72l1.557-1.608a.5.5 0 0 1 .42-.148zm26.228.09a.5.5 0 0 1 .402.13c.643.6 1.128 1.13 1.453 1.493.62-.675 1.554-.936 2.488-.658 1.139.323 1.819 1.381 1.678 2.544a.517.517 0 0 1-.012.065c-.357 1.39-1.603 2.049-2.879 2.004.083.898-.191 1.818-.836 2.5a.526.526 0 0 1-.045.043c-.636.525-1.393.757-2.122.647-.733-.11-1.381-.56-1.802-1.288a.536.536 0 0 1-.022-.043 2.16 2.16 0 0 1-.115-1.555c.124-.4.366-.78.725-1.133l-1.05-1.05a.5.5 0 0 1-.067-.626l1.845-2.849a.5.5 0 0 1 .359-.224zM35.2 23.42c-10.3-.095-14.89 12.67-7.6 19.66l.068.068a4.497 4.497 0 0 1 1.433 2.593v2.866c.005.303-.917.642-1.22.638.713.51 1.81.945 3.119 1.266v-1.859a.5.5 0 0 1 1 0v2.074c.637.12 1.31.214 2 .28v-2.354a.5.5 0 0 1 1 0v2.427a23.38 23.38 0 0 0 2 .021v-2.448a.5.5 0 0 1 1 0v2.393a18.29 18.29 0 0 0 2-.266v-2.127a.5.5 0 0 1 1 0v1.899c1.276-.34 2.406-.846 3.26-1.545a12.044 12.044 0 0 0-1.22-1.447c-.87-.912-1.058-1.109.57-2.55 9.337-8.94 1.888-21.5-8.415-21.59l.005.001zm-.88 16.12a3 3 0 1 1-6 0 3 3 0 0 1 6 0zm6.36 3a3 3 0 1 0 0-6 3 3 0 0 0 0 6zm-2.409 2.34c.34.574-.521 1.084-.861.51l-1.516-2.561-1.516 2.561c-.34.574-1.2.064-.86-.51l1.977-3.343c.09-.16.263-.256.4-.245.135-.01.309.084.398.245l1.978 3.343z" clip-rule="evenodd"/><path d="M43.36 51.61a1 1 0 0 1-.999-.975l-.073-4.865a4.328 4.328 0 0 1 1.61-2.757l.27-.276a10.43 10.43 0 0 0 2.94-7.407 11.08 11.08 0 0 0-11.12-11.03c-.752.001-1.502.065-2.242.191a10.94 10.94 0 0 0-5.866 18.25c.767.806 1.732 1.817 1.732 3.004v5.866a1 1 0 0 1-2 0v-5.866c0-.386-.782-1.208-1.116-1.558l-.073-.076a12.94 12.94 0 0 1 6.96-21.59 15.45 15.45 0 0 1 2.605-.224 13.08 13.08 0 0 1 13.12 13.01 12.42 12.42 0 0 1-3.485 8.804l-.305.31c-.28.283-1.024 1.033-1.03 1.324l.073 4.84a1.001 1.001 0 0 1-.974 1.025h-.027z"/><path d="M67 56H5a1 1 0 0 1-1-1V17a1 1 0 0 1 1-1h62a1 1 0 0 1 1 1v38a1 1 0 0 1-1 1zM6 54h60V18H6v36z"/></svg>