<svg viewBox="0 0 72 72" xmlns="http://www.w3.org/2000/svg"><g fill="none" stroke="#000" stroke-width="1.5"><path stroke-linecap="round" stroke-linejoin="round" d="M48.4 52.237a2.429 2.429 0 1 0-4.8 0v3.598l-2.05 4.098-.495.991L38 67.035h3.2l1.6-1.6 1.6 1.6 1.6-1.6 1.6 1.6 1.6-1.6 1.6 1.6 3.2.001-3.063-6.126-.563-1.126-1.973-3.947v-3.155z"/><path stroke-miterlimit="10" d="M48.4 53.437v2.4s-4.8-.011-4.8 0v-2.4z"/></g><path fill="none" stroke="#000" stroke-linecap="round" stroke-linejoin="round" stroke-width="2" d="m24.22 48.658-.579 4.545v13.834h3.729V53.203"/><path d="M24.752 29.507h1.5v16h-1.5z"/><ellipse cx="25.752" cy="16.842" rx="9" ry="11.842" fill="none" stroke="#000" stroke-miterlimit="10" stroke-width="2"/></svg>