<svg viewBox="0 0 72 72" xmlns="http://www.w3.org/2000/svg"><g fill="none" stroke="#000" stroke-linecap="round" stroke-linejoin="round" stroke-miterlimit="10" stroke-width="2"><path d="M23.886 35.532c-2.365 5.113-13.238 1.023-13.238 1.023a2 2 0 0 1-1.141-1.46l-.37-2.013a2 2 0 0 1 .254-1.394l1.94-3.217a9.439 9.439 0 0 1 3.9-3.588l3.716-1.837s3.548-10.851 9.321-11.756c0 0 4.591 4.661-3.478 15.026 0 0 2.025 1.387 3.618 4.034 0 0 15.255-8.88 24.902 10.365C62.256 58.56 44.975 57.45 39.1 56.612c-1.49-.212-2.836-1.102-3.465-2.469-.657-1.426-.517-3.123 3.347-3.62"/><path d="M15 41.164c.333 2.917 2.075 6.155 6.667 6.82 0 0 1.46 1.808 0 3.338 0 0-1.351 1.168-2.448 2.256C17.952 54.837 18.844 57 20.63 57h3.893a2 2 0 0 0 1.692-.932l3.719-5.893 1.257-3.965M59 47.983s4.905-.104 3.375 3.861-5.042 3.633-5.042 3.633m-41.02-35.273c-.155-3.054.75-7.227 4.025-8.914 0 0 1.938-.233 3.16 3.188"/></g></svg>