<svg viewBox="0 0 72 72" xmlns="http://www.w3.org/2000/svg"><g fill="none" stroke="#000" stroke-linecap="round" stroke-linejoin="round" stroke-miterlimit="10" stroke-width="2"><path d="M53.593 45.388c-.889.843-1.964 1.543-3.322 2.108-2.21.92-4.653 1.136-7.026.81l-8.931-1.226m5.763-23.588c2-1 5-2 10 0 3.828 1.531 10 8 7.02 15.95a32.018 32.018 0 0 1-.66 1.633m-19.767.542c-.515 1.875-4.37 6.555-5.815 8.323-1.607 1.966-6.7.552-4.858-3.11.738-1.47 1.914-2.697 2.152-4.323.052-.351.082-.692.097-1.018"/><path d="M22.381 49.219c-.69-.73-.825-1.977.4-3.678.617-.858 2.155-2.664 2.277-4.74 0 0-2.908-.23-4.216-.234-13.839-.042-12.042-5.166-11.858-5.69.299-.854 4.015-6.565 6.905-8.01 4.37-2.185 9.685-1.636 9.685-1.636 1.503-5.74 10.525-9.672 14.202-1.092 3.277 7.647-4.7 10.353-7.7 10.353m24.361 6.582c2 0 3.64 3.418 2.64 6.418s-1.822 3.957-6.192 6.142c-8.74 4.37-19.663 2.185-29.644.36-6.311-1.154-9.236.64-10.164 2.498-1.093 2.185 1.68 5.86 7.035 4.79"/><path d="M22.65 21.698c.158-.851.464-1.624.843-2.185 2.206-3.269 6.834-1.815 7.642 0"/></g></svg>