<svg viewBox="0 0 72 72" xmlns="http://www.w3.org/2000/svg"><g fill="none" stroke="#000" stroke-linecap="round" stroke-linejoin="round" stroke-miterlimit="10" stroke-width="2"><path d="M19.927 36.034c-6.75 2.406-9.636-1.217-9.636-1.217-3.069 0-4.272-2.486-4.7-3.844a.998.998 0 0 1 .535-1.206l6.256-2.895c.907-.42 1.87-.707 2.86-.852l4.18-.612s5.173-6.46 5.588.043c0 0 .334 5.667-2.82 4.454m10.309 5.743c2.49 3.528 0 11 0 11l-7.963 7.09a2 2 0 0 1-1.859.544l-.086-.02a1.994 1.994 0 0 1-1.35-2.836c1.478-2.97 2.817-6.646 2.817-6.646-1.41-.705-2.209-2.694-2.912-4.83"/><path d="M10.333 62.338c13.5-7.395 30.167-3.963 42.344-2.22 8.219 1.175 18.358-6.344 12.178-20.273-8.773-19.77-26.268-13.607-29.035-12.569-2.768 1.038-10.81-1.825-10.81-1.825"/><path d="M60.677 50.375c-5.302 6.375-14.536 1.722-14.536 1.722s-4.798 2.445-5.417 2.445h-.165c-1.53 0-2.493-1.648-1.743-2.98l2.361-4.778c-5.688-8.58 6.243-12.935 6.243-12.935"/></g></svg>