<svg viewBox="0 0 72 72" xmlns="http://www.w3.org/2000/svg"><g fill="none" stroke="#000" stroke-linecap="round" stroke-linejoin="round" stroke-miterlimit="10" stroke-width="2"><path d="M59.853 33.259c.548 2.178.198 5.686-1.043 8.387l-.814 5.16-2.506 7.667c-.267.815-1.008 1.364-1.842 1.364h-.258c-1.322 0-2.258-1.33-1.848-2.627l1.626-6.987s-4.133-7.661-2.999-11.212M31.05 31.863l1.531 8.158-2.536 15.127c-.124.984-.927 1.726-1.888 1.746l-.307.006c-1.333.028-2.298-1.297-1.892-2.607.826-2.664.982-6.971-.241-9.911-1.398-3.358-.753-4.959-.753-4.959"/><path d="M35.748 44.501s12.096 1.311 15.378-1.44M65.2 44.382s-2.168-3.667-1.24-9.248c1.72-10.327-6.446-11.446-6.446-11.446l-.34-.131-24.593-.62-9.3 1.014m35.475 18.036 3.153 3.836-.065 8.347c0 .921-.723 1.667-1.616 1.667h-1.68M7.79 22.27c1.99 2.537 3.982 2.537 3.982 2.537"/><path d="M18.975 20.695c1.418 2.843-1.738 4.302-1.738 4.302s-2.717-3.778-5.465-.19l-2.061 2.5s-2.111 3.47-3.59 5.462c-.411.554.33 2.425.686 3.018.66 1.106 5.352 1.787 9.723.213 0 0 3.645.327 4.33 7.06.131 1.281 2.738 3.017 4.884 2.732"/><path d="M18.654 31.505c4.756 1.553 4.995-2.458 4.995-2.458v-.258c-2.314-2.76-4.456-.777-4.456-.777"/></g></svg>