<svg viewBox="0 0 72 72" xmlns="http://www.w3.org/2000/svg"><g fill="none" stroke="#000" stroke-linecap="round" stroke-linejoin="round" stroke-miterlimit="10" stroke-width="2"><path d="m30.565 25.193.519.26s8.402 3.575 16.954.756c0 0 8.105-2.475 12.27 5.5 2.706 5.185.673 8.54-1.082 10.255-1.083 1.057-1.66 2.527-1.466 4.028l.465 3.594-.38 10.996a2 2 0 0 1-1.998 1.93h-.58a2 2 0 0 1-1.986-2.232l.232-5.41a8.182 8.182 0 0 0-1.32-4.818l-3.486-5.347s-2.826-5.157-.52-8.801"/><path d="M36.086 46.127c3.531.458 9.227.915 11.654-.46M63.038 28.96s3.198.137 3.347 4.812M19.558 18.221s2.751-1.386 3.049 1.387c.149 1.386-.679 1.995-1.348 2.548-.99.817-3.381.023-4.75-.54-.497-.203-1.031.235-.913.758.352 1.556 1.564 3.714 4.217 4.126 6.437 1 11.048-7.785 4.876-11.91-6.72-4.493-9.741 2.68-9.741 2.68l-2.736 1.445-1.116 1.512S5 21.861 7 25.167l1.75 2.25 4.196.395a2.259 2.259 0 0 1 2.046 2.185l1.028 4.543 3.644 7.767a4.535 4.535 0 0 0 2.52 2.323l2.799 1.044c.456 1.177.747 2.125.747 2.125l-1.177 11.058a2 2 0 0 0 1.988 2.212h.743a2 2 0 0 0 1.965-1.624l2.77-14.464c.07-.366.087-.74.05-1.11l-.539-5.492"/></g></svg>