<svg viewBox="0 0 72 72" xmlns="http://www.w3.org/2000/svg"><g fill="none" stroke="#000" stroke-linecap="round" stroke-linejoin="round" stroke-miterlimit="10" stroke-width="2"><path d="M16.31 22.62c-.264 3.606-4.25 3.438-4.25 3.438l-1.571 1.736c-1.304 2.826-4.804.826-4.804-1.236 1.508-3.415 3.062-5.75 3.062-5.75-.125-2.792 3.312-4.625 3.312-4.625l-1.278-1.772a.907.907 0 0 1 .642-1.455c1.253-.119 3.615-.146 4.574 1.977 0 0 8.865.933 13.96 10.43.238.444 9.877 2.308 16.07.442 4.284-1.29 17.05-2.062 17.28 10.5.117 6.406-1.252 15.1 2.998 19.52"/><path d="M59.19 37.02c-.442 1.631-1.221 3.426-2.589 4.642 0 0 1.096 4.786 3.172 6.804l-2.71 12.17-1.062 1.927a1.737 1.737 0 0 1-1.522.899v0c-1.252 0-2.096-1.276-1.594-2.423.968-2.212 2.16-5.956 2.389-11.3 0 0-6.722-6.584-6.104-12.48M17.78 27.49l2.668 5.633s-1.153 6.343 3.287 9.168l2.422 1.557 2.513 9.234.917 6.833-.484 1.213a1.696 1.696 0 0 0 1.576 2.325v0c.712 0 1.349-.445 1.594-1.115l.746-2.045c.24-.658.299-1.368.17-2.056l-1.331-7.089-.16-8.684s7.241 2.141 14.32-.602M23.51 47.21l.604 4.42-1.74 7.287-.368.92a1.837 1.837 0 0 0 1.706 2.518h0c.734 0 1.397-.436 1.687-1.11l.79-1.83m22.711.845-1.452 1.652a1.737 1.737 0 0 1-1.68.55v0c-1.223-.27-1.771-1.699-1.033-2.71 1.422-1.952 3.394-5.35 4.771-10.52 0 0-.905-2.134-1.716-4.967"/></g></svg>