<svg viewBox="0 0 72 72" xmlns="http://www.w3.org/2000/svg"><g fill="none" stroke="#000" stroke-linecap="round" stroke-linejoin="round" stroke-width="2"><path d="m12.112 37.505-2.425 1.592a2.568 2.568 0 0 1-1.41.421h-.855a2.569 2.569 0 0 1-1.862-.8h0a2.569 2.569 0 0 1-.663-2.238l.89-4.796 3.258-2.51s1.363-5.254 4.768-2.637c3.884 2.984-1.776 5.223-1.776 5.223"/><path d="M14.852 27.619s5.568-2.715 9.088-2.219a13.166 13.166 0 0 0 4.28-.187c5.371-1.018 16.796-2.646 22.562.537 0 0 8.774 2.519 9.787 17.66a5.08 5.08 0 0 0 1.713 3.537c1.244 1.058 4.302 1.886 5.052-2.198m-43.078-7.416s.908 5.381-1.59 6.917c-2.797 1.72-8.776 5.486-8.776 5.486s.695 5.782-3.759 3.541m6.665-20s-2.022 2.655-.632 8.726l-4.414 4.33"/><path d="M24.629 42.003s12.571-.92 14.909-2.014 3.09-.955 3.09-.955"/><path d="M42.774 34.5s-1.784 5.154 3.459 14.26l-1.2 5.203a1.86 1.86 0 0 0 1.812 2.278h.003a1.86 1.86 0 0 0 1.755-1.247l2.18-6.233s-2.654-4.964.063-9.727 1.988-7.45 1.988-7.45"/><path d="M49.872 41.514s4.065 5.277 7.101 6.777c2.11 1.042 1.944 4.459 1.944 4.459v.173a2 2 0 0 0 2.087 1.998l.75-.032a2 2 0 0 0 1.913-1.999v-.108M24.629 46.7a18.495 18.495 0 0 1 0 6.36h0a1.666 1.666 0 0 0 1.466 2.458h.41a1.666 1.666 0 0 0 1.61-1.24l1.052-4.61-.385-8.018m-1.985-16.154s4.036 3.337 2.37 12.67m4.221 2.991s2.279-6.574.623-11.74m3.115-5.344s2.091 2.51 2.175 8.094m3.854-8.223S45.5 25.667 45.333 30M21.5 32.662a11.927 11.927 0 0 0-1.68-6.856"/></g></svg>