<svg viewBox="0 0 72 72" xmlns="http://www.w3.org/2000/svg"><g fill="none" stroke="#000" stroke-linecap="round" stroke-linejoin="round" stroke-miterlimit="10" stroke-width="2"><path d="M14.33 24.51h6.259c.754 0 1.498.162 2.184.474l.916.417a8.163 8.163 0 0 0 4.383.676c5.479-.678 18.85-.993 23.896 1.306 6.932 3.158 6.484 7.376 7.348 9.645.865 2.27 2.959 9.006 9.667 8.6M18.18 35.127c.417 2.15 1.456 4.678 3.62 7.448v11.151a2 2 0 0 0 2 2h.19a1.996 1.996 0 0 0 1.999-1.95c.09-3.968 1.478-15.208 2.473-16.835 0 0-.637-2.563-1.25-4.25M12.2 35.006c.416.638 1.656 1.466 2.487 1.852.438.204.753.607.878 1.074l1.243 4.637s-7.353 3.973-4.451 10.976c.297.718 1.084 1.426 2.126 1.587 1.09.17 3.001-.67 2.325-2.67"/><path d="M27.997 40.685s7.56 2.948 14.029-2.947c0 0 .103 1.744 6.283 6.085 0 0 3.75 2.899 7.631 4.713l.551 5.655c.09.93 1.18 1.536 2.114 1.536h0a1.817 1.817 0 0 0 1.811-1.956l-.615-7.999c-.042-.552-.44-.955-.953-1.165-1.323-.541-3.417-4.166-4.782-7.229l-.416-3.316"/><path d="M38.567 40.083s1.352 4.126 6.27 8.545l-.872 4.074a1.876 1.876 0 0 0 1.834 2.269h0c.735 0 1.4-.426 1.705-1.095.607-1.332 1.347-3.521 2.02-4.54m-35.699-23.27c1.735-2.766-1.675-4.625-3.754-2.907-1.529 1.264-2.38 1.224-2.38 1.224-3.822 1.069-3.553 3.92-3.553 3.92l-1.699 4.644a.859.859 0 0 0 .299.91l1.67 1.302a1.79 1.79 0 0 0 1.787.24c1.68-.69 5.34-2.685 5.34-5.647M21.8 44.209s-2.943 1.59-4.316 3.738M49.18 35.69a1.5 1.5 0 1 1 .897-2.701m-17.94-.725a1.5 1.5 0 1 1 .897-2.703m7.45 3.316a1.5 1.5 0 1 1 2.386-1.553m-25.356.776a1.5 1.5 0 1 1 2.386-1.553m14.495 5.031a1.5 1.5 0 1 1 1.449 2.45m-13.838-3.305a1.5 1.5 0 1 1 1.449 2.45"/></g></svg>