<svg viewBox="0 0 72 72" xmlns="http://www.w3.org/2000/svg"><g fill="none" stroke="#000" stroke-linecap="round" stroke-width="2"><path stroke-linejoin="round" d="M44.97 59c2.193.007 9.421-.092 12.49-.183a1.187 1.187 0 0 0 .5-2.241l-9.472-3.638M19.454 50.74l1.126-.014c3.85.102 7.676-.617 11.226-2.107 7.82-3.319 3.55-27.92 3.55-27.92v-.224a6.57 6.57 0 0 1 6.57-6.57h0c3.627 0 8.961 2.964 8.961 6.592 0 4.333-7.5 4.5-7.5 4.5 2.935 13.6 1.708 30.419-2.772 32.428-5.794 2.6-16.262 2.959-23.923 2.163-5.217-.542-5.83-3.608-5.278-7.068"/><path stroke-linejoin="round" d="M29.687 44.563c-13.33-5.972-18.322 6.062-18.275 7.957"/><path stroke-miterlimit="10" d="M48.74 24.452s3.792 4.054 7.584 4.577"/><path stroke-miterlimit="10" d="m56.873 33.606-1.046-4.577 4.838-2.223"/></g></svg>