<svg viewBox="0 0 72 72" xmlns="http://www.w3.org/2000/svg"><g fill="none" stroke="#000" stroke-linecap="round" stroke-linejoin="round" stroke-miterlimit="10" stroke-width="2"><path d="M8.91 17.555s-3.967 3.548-1.703 5.051c.918.609 2.936-.414 3.5-1.022.85-.917 3.753-3.65 8.224-.34 1.174.87 2.635 2.563 5.069 1.387 1.516-.733 3.64-3.586.26-5.53m-5.107 9.411s2.32-.7 4.668 1.561c0 0 .006 3.013-4.535 3.03m9.882-10.618s2.689-2.57 9.67-.857c5.31 1.302 12.498.383 15.637-.132 1.037-.17 11.713.262 11.018 9.283-.49 6.352-1.922 11.048.757 14.386m-38.913-2.109c-3.325.423-5.887.405-7.65-.812-1.875-1.577-2.948-3.57-3.785-5.687-1.626 1.117-6.527 1.979-7.785 1.363-2.603-1.276-1.614-3.958-1.614-3.958l4.122-6.218"/><path d="m34.584 27.613.434 9.448s-2.766 4.918-1.976 10.495l-1.466 6.793a1.964 1.964 0 0 1-1.92 1.55h-.116c-1.292 0-2.246-1.228-1.897-2.472.633-2.256 1.266-5.76.497-9.244-1.523-6.906-.411-8.597-.411-8.597"/><path d="M33.438 41.29s10.494-1.2 15.544 1.304c0 0 3.118-3.689 5.05-3.996"/><path d="M50.233 30.102s5.384 11.087 5.998 13.063c.487 1.565.428 7.989.436 10.492.01 3.026 4.366 2.658 4.485.233.094-1.91.304-5.693.912-8.528.18-.836.3-1.685-.105-2.438-.94-1.75-1.9-5.17-.987-9.683.833-4.123.777-5.066.777-5.066M39.314 41.154s-1.35 10.33-1.412 12.725c-.019.743-.993 1.361-1.736 1.361h-1.148"/></g></svg>