<svg viewBox="0 0 72 72" xmlns="http://www.w3.org/2000/svg"><g fill="none" stroke="#000" stroke-linecap="round" stroke-linejoin="round" stroke-miterlimit="10" stroke-width="2"><path d="M8.987 37.652s2.017 1.435 4.267-.155l3.108.223a4.25 4.25 0 0 0 3.281-1.206l3.267-3.207m-9.317-.035c-.862-.66-1.343-2.584-.467-4.21"/><path d="M15.232 32.222c-2.69 2.346-8.169 2.527-8.169 2.527l-.917-2.481c1.212-4.971 8.479-7.705 8.479-7.705l2.158-1.455.842-2.227c4.622-3.72 9.956-5.127 16.068-4.094 0 0 22.688 2.947 27.53 12.165 0 0 1.592 2.319-2.967 12.894l.834 3.247-.696 9.795c-.07.974-.88 1.73-1.857 1.73h-.858a1.862 1.862 0 0 1-1.853-2.038l.771-8.124-3.67-4.24s-2.068 3.984-9.545 1.58"/><path d="m23.816 22.565 3.774-1.682a.76.76 0 0 1 .945.703c.103 2.055.232 7.379-3.84 7.767M22.24 38.66c1.966 1.593 5.411 4.047 8.558 4.113l1.692 7.755-.407 4.79a1.862 1.862 0 0 0 1.855 2.02h.432a1.856 1.856 0 0 0 1.86-1.926c-.141-3.487.032-10.858 3.59-14.851"/><path d="M27.622 45.575c.416 1.917.697 4.735-.418 8.203-.344 1.07.435 2.168 1.558 2.168h.005m35.804-24.869c.557 1.02 1.515 6.215-.448 7.421-1.964 1.206.59 3.34.59 3.34"/></g></svg>