<svg viewBox="0 0 72 72" xmlns="http://www.w3.org/2000/svg"><g fill="none" stroke="#000" stroke-linecap="round" stroke-linejoin="round" stroke-miterlimit="10" stroke-width="2"><path d="M58.667 35.917c.666 1.698.85 2.963.516 4.5L58.05 45.62 60 51.725s.12 4.77.001 8.28a2.058 2.058 0 0 1-2.037 1.974h-.353c-1.346 0-1.925-1.325-1.925-2.671l-.853-8.391s-7.49-5.467-6.458-13.605M33.516 46.5c3.833-.205 11.234 0 14.984-2.688"/><path d="M51.625 13.25c5.76 1.546 8.075 4.29 8.65 7.205 1.039 5.269-4.012 9.798-9.224 8.502-2.526-.628-4.649-.443-4.649-.443L28 28.375c-1.688-8.125-6.447-9.565-6.447-9.565-.866-5.56-4.303-5.56-4.303-5.56l-.7 4.84-1.464.25a4.065 4.065 0 0 0-2.093 1.038l-1.353 1.265-4.114.443a1.145 1.145 0 0 0-.933 1.58l.88 2.102a2.24 2.24 0 0 0 1.643 1.333l6.467.732S14.583 40 18.313 42c8.13 4.36 4.407 16.522 4.407 16.522-.822 1.436-.187 3.457 1.468 3.457h.001c.794 0 1.524-.437 1.899-1.136l2.1-5.468 1.377-9.145c.108-.718-.036-1.443-.365-2.09-.576-1.133-1.254-3.36-.137-6.525"/><path d="m16.235 40.3-4.352 6.656a2.997 2.997 0 0 0-.52 1.618c-.043 1.755-.254 5.542 3 7.69.855.564 2.464.64 3.314.112.718-.446 1.303-1.291.774-2.892m2.083-8.047-4.409 3.079m30.292 0c.433 1.567 3.077 3.003 4.25 3.734l-1.07 7.143c0 .652.187 1.28.59 1.732 1.063 1.188 2.43.665 2.43.665"/></g></svg>