<svg viewBox="0 0 72 72" xmlns="http://www.w3.org/2000/svg"><g fill="none" stroke="#000" stroke-linecap="round" stroke-linejoin="round"><path stroke-width="2" d="M16.487 37.35S5.702 38.819 11.97 49.097a8.632 8.632 0 0 0 7.15 3.755"/><path stroke-width="2" d="M10.012 42.938c-1.862.018-5.438.76-4.016 6.45 0 0 1.749 6.429 9.495 2.769M28.613 32.27S14.091 29.868 16.95 43.248c1.7 7.96 6.015 8.902 9.15 8.41"/><path stroke-width="2" d="M37.617 30.993c-3.314-.99-12.08-2.466-10.95 10.068.86 9.546 4.309 10.53 6.81 9.896"/><path stroke-width="2" d="M46.815 32.467s-12.373-9.055-11.597 8.171c.187 4.165.904 6.834 1.874 8.495l.027.045a31.683 31.683 0 0 1 1.459 3.223c.319 1.034.612 3.268 3.508 2.628a1.846 1.846 0 0 0 .539-.21"/><path stroke-width="2" d="M54.27 35.069s-11.295-9.24-11.677 6.717c-.092 3.858.421 6.373 1.245 7.975l.023.044a28.896 28.896 0 0 1 1.19 3.079c.24.977.374 3.06 3.2 2.675a1.762 1.762 0 0 0 .933-.417"/><path stroke-width="2" d="M55.73 55.96a1.782 1.782 0 0 1-.941.288c-2.794.09-2.8-1.777-2.975-2.668a24.986 24.986 0 0 0-.98-2.848l-.02-.04c-.71-1.5-1.062-3.786-.736-7.212 1.345-14.172 11.862-4.936 11.862-4.936s6.269 3.58-3.94 15.02m-38.882-.711s1.363.4 0 2.688m6.981-3.888s1.362.4 0 2.688m7.378-3.383s1.363.4 0 2.689"/><path stroke-width="1.881" d="M59.804 52.44c1.159 1.938 3.52.346 3.52.346 5.708-4.829 1.69-7.865 1.69-7.865a6.681 6.681 0 0 0-1.052-.612"/></g></svg>