<svg viewBox="0 0 72 72" xmlns="http://www.w3.org/2000/svg"><g fill="none" stroke="#000" stroke-linecap="round" stroke-linejoin="round" stroke-miterlimit="10" stroke-width="2"><path d="M60 30c2-6-3-6-3-6-7 1-2 7-2 7s6 11-4.583 10.614C39.833 41.228 43 31 43 31c6.07-5.097 4-11 4-11-3-10-11-9-11-9s-8-1-11 8c0 0-3 9 4 12 0 0 4 11-8 11 0 0-10 0-4-13 0 0 2-7-4-5 0 0-3 1-2 6"/><path d="M33 33s4 11-7 14c0 0-7-1-7 5s4 6 6 5 3-4 3-4m10.71-20s-4 11 7 14c0 0 7-1 7 5s-4 6-6 5-3-4-3-4m-24.594-8s-2 1-4-1-4-1-4-1-4 1-1 5c0 0 1 2 4 1M54 45s2 1 4-1 4-1 4-1 4 1 1 5c0 0-1 2-4 1"/></g></svg>