<svg viewBox="0 0 72 72" xmlns="http://www.w3.org/2000/svg"><g fill="none" stroke="#000" stroke-linecap="round" stroke-linejoin="round" stroke-miterlimit="10" stroke-width="2"><path d="M55.311 42s0 10-4.677 10c0 0 2.806-6-.936-9M32.236 54.083l-.701 5.334S29.118 60 29.118 61m4.678-1s0-1-1.871-1m8.731-4.917-.702 5.334S37.537 60 37.537 61m4.678-1s0-1-1.871-1M26.312 36s-3.742 9 3.742 13 14.967 1 15.903-3c.935-4-2.027-3.667-5.223-5.833m-15.567-21S31.414 15.166 26 13c-5-2-5.419-.581-7 1-1 1-1 3-2 5-.158.316-.313.5-.266.734.195.971-.103 1.97-.967 2.453C13.657 23.367 11.083 25 13 25c1.428 0 2.586.612 3.427 1.283a2.165 2.165 0 0 1 .458 2.872c-.582.88-.972 2.215.115 3.845 1.781 2.672 3.73.154 4.573-1.229a2.231 2.231 0 0 1 1.273-.977C26.761 29.642 25 27 25 27"/><path d="M28 22s3 0 3 7c0 9.055 8.408 7 8.408 6s.936-12 10.29-10 13.097 9.667 7.484 22.333m-8.887 1.834S39.408 60 24.441 50c0 0-6.548-3-3.742-13"/></g></svg>