<svg viewBox="0 0 72 72" xmlns="http://www.w3.org/2000/svg"><g fill="none" stroke="#000" stroke-linecap="round" stroke-linejoin="round" stroke-width="2"><path d="M15.002 22.168c-.5-2.27-.41-3.76.11-4.66.65-1.06 1.87-1.35 3.52-1.12 5.45.88 15.1 7.92 19.94 11.67M57.67 30.66l.89-.14a7.237 7.237 0 0 1 2.93-.08l2.3.32 2.45.39M38.367 42.794l.95 3.089a3.974 3.974 0 0 1 .159.95v2.455a3.475 3.475 0 0 1-.713 2.138L37.1 53.564m11.087-13.462.633 1.821a4.355 4.355 0 0 1 .158 1.742l-.395 2.693M35.516 43.27l.159 5.147a1.743 1.743 0 0 1-.08.634l-.554 3.326a3.256 3.256 0 0 1-1.346 2.138l-1.584 1.188m12.512-14.967.95 2.058a3.523 3.523 0 0 1 0 3.089l-.713 1.504m7.92-17.58 1.109-1.108a9.588 9.588 0 0 1 4.91-2.772l6.335-1.425M23 36.3a23.47 23.47 0 0 0-6.81 11.8v.08a2.688 2.688 0 0 0-.08.79 3.925 3.925 0 0 0 3.96 3.96 1.988 1.988 0 0 0 .64-.08 22.065 22.065 0 0 0 2.29-.31"/><path d="M54.28 38.52a6.273 6.273 0 0 0 1.35-1.19l.08-.08.08-.08v-.08a7.655 7.655 0 0 0 1.98-5.22 6.894 6.894 0 0 0-.1-1.21 7.734 7.734 0 0 0-1.6-3.69c-.07-.1-.16-.2-.24-.3a7.835 7.835 0 0 0-4.79-2.64 6.005 6.005 0 0 0-1.19-.08 7.926 7.926 0 0 0-5.86 2.61h-1.35a7.886 7.886 0 0 0-4.07 1.5m1.852 2.778s-1.24-.55-3.26-1.49a.142.142 0 0 1-.06-.02c-.56-.23-1.11-.55-1.74-.79-5.29-2.31-13.82-5.62-20.37-6.37a19.7 19.7 0 0 0-3.63-.12c-3.01.24-5.15 1.42-5.54 4.12-.79 5.7 6.1 8.39 13.3 9.58 1.27.24 2.62.39 3.88.55a93.757 93.757 0 0 0 11.33.48"/></g></svg>