<svg viewBox="0 0 72 72" xmlns="http://www.w3.org/2000/svg"><g fill="none" stroke="#000" stroke-linecap="round" stroke-linejoin="round" stroke-miterlimit="10" stroke-width="2"><path d="M23.057 22.93s3.66-3.458 6.193-.867c0 0 4.343-1.855 6.5.437 0 0 3.833-1.776 6.083.417 0 0 3.51-2.54 6.417.25 0 0 4.25-2.5 7.417.416 0 0 4.583-1 4.623 3.802 0 0 3.752 2.121 1.782 5.808 0 0 1.761 3.974-1.313 7.55 0 0-.076 4.777 1.684 7.043.436.56.58 1.296.49 2.001l-1.3 10.296a1.956 1.956 0 0 1-1.94 1.711h0a1.956 1.956 0 0 1-1.93-2.278l-.013-10.1s-1.489-3.305-3.083-5c0 0-1.786-.56-3.38-2.553"/><path d="M31.583 40.12c.991 1.833.76 6.256.76 6.256v13.092c0 1.01-.819 1.828-1.828 1.828h0a1.827 1.827 0 0 1-1.817-1.634l-.858-8.033-.562-4.085c-1.595-3.389-4.596-3.588-4.596-3.588-3.47-.2-2.907-3.787-2.907-3.787-2.907-.797-1.97-4.584-1.97-4.584C14 34.917 14.667 30.5 14.667 30.5L12.3 26.672c-.967-.132-1.955-.05-2.847.347-.492.219-1.153.395-1.99.38-1.278-.023-2.054-.439-2.526-.939-.678-.718-.686-1.844-.12-2.653l2.747-3.932 2.533-1.92a6.501 6.501 0 0 1 3.927-1.32h.597s5.612-2.26 5.563 2.3c-.051 4.741-3.562 3.239-3.562 3.239m18.711 23.381s.917.821 2.95-.098c.2.01 4.67 2.193 6.377-.16 0 0 2.25 1.754 4.69-.339"/><path d="M24.277 45.555c-.086.815.532 5.035-.72 12.914-.195 1.218.736 2.329 1.97 2.329m39.202-33.413c.375.327 3.939-2.164 1.313 17.468"/></g></svg>