<svg viewBox="0 0 72 72" xmlns="http://www.w3.org/2000/svg"><g fill="none" stroke="#000" stroke-linecap="round" stroke-linejoin="round" stroke-miterlimit="10" stroke-width="2"><path d="M18.267 40.365S19 37 18 35c-.825-1.65-5-4-5-4-.9 2.25-.662 6.006-.28 7.046L13 39l-.522.89a10.88 10.88 0 0 1-4.516 4.22l-1.281.64c-.527.264-.74.905-.477 1.432L8 50s6.75 1.688 11.445.332M15.633 32.13c4.98-7.1 36.828-22.24 46.05 3.138a15.617 15.617 0 0 1 .578 8.573l-2.52 11.88A1.614 1.614 0 0 1 58.16 57h-.013c-1.066 0-1.352-.849-1.553-1.895C56 52 56.128 47.22 52.304 40.62"/><path d="M30.039 34.735s3.583 5.63 1.024 9.725c-2.01 3.216-4.651 8.64-5.692 10.822-.278.581-.865.95-1.509.95h-.025a1.669 1.669 0 0 1-1.583-2.207c.758-2.242 1.568-5.964.62-10.077m8.7 1.024s15.867 1.536 20.985-2.047M48 45s0 4-1.2 8.417c-.303 1.118.13 2.256 1.289 2.256h0c.584 0 1.116-.34 1.36-.87L52 50m-20.985 1.578-.198 2.185c-.137 1.504 1.43 2.574 2.781 1.898l.018-.009a1.927 1.927 0 0 0 1.06-1.586L35 46m26.284-18.071s6.142-1.536 2.56 3.071"/></g></svg>