<svg viewBox="0 0 72 72" xmlns="http://www.w3.org/2000/svg"><g fill="none" stroke="#000" stroke-linecap="round" stroke-linejoin="round" stroke-width="2"><path d="M55.85 16c-6.2-10.1-13.9-5.7-14.6-2.5-.6 2.8.5 6.2 9.3 8.6a9.79 9.79 0 0 1 6.3 4.6 2.828 2.828 0 0 1-1.1 3.9 2.648 2.648 0 0 1-2.3.2c-4.7-1.6-9.4-5-15-.9"/><path d="M35.25 35.7c5 .3 2.8-9.7 2.8-9.7-.5-.8-2.3-1.8-4.6 1.2a4.478 4.478 0 0 0-1.2-2 4.717 4.717 0 0 0-6.2-.2 7.38 7.38 0 0 0-3.1 7.6"/><path d="M24.05 36.6s-3-3.8.8-4.6 5.3 0 5.3 0 3 .8 0 4.6c0 0 1.1 3.4-2.7 3.4a3.05 3.05 0 0 1-3.4-2.7.855.855 0 0 1 0-.7zm7.1 10.2-3.3 6s-7.9 1.8-10.3 2.4c-1.8.5-5.4 1.6-7 2.2a2.833 2.833 0 0 1-2.2-.2c-1.1-.6-1.9-2.8 5.8-5.2 6.9-2.2 11.8-7.6 12.1-12m12.9-2.1s7.9 7.9 5.4 11.5c-1.8 2.7-4.5 7.6-5.9 10.1a2.824 2.824 0 0 1-2.5 1.5h-5.1c-2.6 0-2.9-4-.3-4.2h.5c1.1 0 4.1-.6 4.6-1.6l3.1-6.9s-2.9-4.3-6.1-4.9m25.7-7.3s3 6.7-9.1 12.1a45.334 45.334 0 0 1-1.3 11 1.893 1.893 0 0 1-2.2 1.4h-3.3"/><path d="M52.25 53c1 3 6 4.2 8 4v2.8a2.348 2.348 0 0 0 2.4 2.3h.1a2.14 2.14 0 0 0 2.1-1.7 26.208 26.208 0 0 0-.7-7.4c-9.7-1.8-9.3-7.2-9.3-7.2m-12.9 11.3a4.72 4.72 0 0 0 3-1l-1-5"/></g></svg>