<svg viewBox="0 0 72 72" xmlns="http://www.w3.org/2000/svg"><g fill="none" stroke="#000" stroke-miterlimit="10" stroke-width="2"><path stroke-linecap="round" d="M40.82 41.566c.21.623 1.752 4.76 1.883 5.115a2.291 2.291 0 0 1 .139.898c-.264 5.499-1.66 6.987-2.015 7.279-.023.016.021-.018 0 0m2.224 2.819c3.874-3.454 3.544-13.176 3.544-13.176"/><path d="M40.826 54.858a2.221 2.221 0 0 0-.742 1.297 1.875 1.875 0 0 0 1.68 1.996 1.716 1.716 0 0 0 1.457-.628l.002.002M29.08 46.477l.896 2.64c1.191 3.388.69 4.974.164 5.683l-.61.529a1.827 1.827 0 0 0-.308 1.885 1.999 1.999 0 0 0 2.685.847 2.22 2.22 0 0 0 1.197-1.253c.002-.01.008-.02.01-.028a1.802 1.802 0 0 0 .103-.673 69.326 69.326 0 0 0 .161-7.313 10.11 10.11 0 0 0-.112-2.305 9.876 9.876 0 0 0-.96-2.986"/><g stroke-linecap="round"><path d="M18.466 47.75a3.505 3.505 0 0 0 .204 2.508 1.893 1.893 0 0 0 2.436 1.084c.885-.405.864-1.798.56-2.826m-.046-.15a4.585 4.585 0 0 1 3.71-1.612 1.99 1.99 0 0 1 .548.083 3.027 3.027 0 0 0 3.67-1.374M53.42 33.055l-.296 5.633s-.21 3.692.808 4.541a7.093 7.093 0 0 1 1.272 4.753s.536 5.758.697 7.991"/><path d="M48.447 23.824c2.543-6.457 5.18-3.19 5.18-3.19 3.178 3.94-.993 6.362-2.83 7.188a1.763 1.763 0 0 1-1.39-.02c-2.562-1.029-8.826.18-8.826.18-7.852.733-9.478-2.557-9.478-2.557a48.824 48.824 0 0 1-3.064-7.227 1.842 1.842 0 0 0-1.048-1.163 20.72 20.72 0 0 0-5.153-1.034c-3.137-.36-3.515 1.65-3.515 1.65-.532 1.37-1.437 1.324-1.437 1.324l-1.864.007c-2.311.13-1.331 2.503-1.331 2.503-.586 3.089 3.088 3.727 3.088 3.727a4.77 4.77 0 0 1 3.195 1.332 18.136 18.136 0 0 1 2.929 7.827c.213 3.674 1.734 4.962 1.734 4.962 2.855 2.77 0 3.82 0 3.82-4.208 1.524-5.75 3.231-6.143 4.606M55.9 55.973c.186 1.666-.982 2.09-2.084 2.019a1.893 1.893 0 0 1-1.88-1.89 9.116 9.116 0 0 1 .338-1.459m3.626 1.33.027.39"/><path d="M52.125 55.257c.373-1.245 1.089-4.493-.628-7.015a1.726 1.726 0 0 0-.481-.467c-1.13-.742-5.418-3.653-7.326-6.34a1.524 1.524 0 0 0-1.12-.623c-2.488-.218-10.334-.441-13.208 4.982"/></g></g></svg>