<svg viewBox="0 0 72 72" xmlns="http://www.w3.org/2000/svg"><g fill="none" stroke="#000" stroke-linecap="round" stroke-linejoin="round" stroke-miterlimit="10" stroke-width="2"><path d="M21.202 46.717c1.284 2.3.67 4.168-.307 5.095-1.058 1.003-3.124 1.452-4.534 1.08-12.645-3.333-3.947-25.157-3.947-25.157.615-9.228 8.085-8.876 8.085-8.876s6.91-4.57 11.018.166c1.23 1.417 1.776 3.3 1.72 5.175-.087 2.928 2.882 6.958-1.652 10.359-1.75 1.312-.947 5.108-4.5 5.583 0 0-5.092.52-5.18-7.478"/><path d="M25.315 40.546s-.311 2.452 1.095 12.47l-1.51 2.598c-.51.875.063 1.987 1.07 2.071 1.226.102 3.95.178 5.262.013 1.012-.126 1.826-1.03 1.703-2.041-.855-7.046.621-11.03.621-11.03 4.661 3.573 11.223.196 14.915-.156.738-.07 2.038.167 2.652.344 2.313.664 3.853 2.123 3.795 8.59l-1.554 2.563c-.49.906.157 2.037 1.165 2.252 1.1.235 4.16-.052 5.069-.252 1.73-.382 1.65-2.209 1.757-3.977.228-3.77-.097-9.014-.305-11.744a13.31 13.31 0 0 1 .102-2.972c.37-2.5 3.19-12.548-8.172-19.209-6.574-3.854-13.192 4.242-20.624-.55m-14.23 16.392s.176 10.81-13.007 11.16M64.134 29.81c1.05 2.414 1.768 6.245 1.203 12.3"/><path d="m47.96 45.424.4 4.851c.065.77-.128 1.54-.545 2.184l-.883 1.362c-.213.33-.373.825-.464 1.368-.237 1.415.847 2.703 2.243 2.703h1.123"/></g></svg>