<svg viewBox="0 0 72 72" xmlns="http://www.w3.org/2000/svg"><g fill="none" stroke="#000" stroke-linecap="round" stroke-linejoin="round" stroke-miterlimit="10" stroke-width="2"><path d="M10.952 31.352c2.177-4.129-.826-4.955-.826-4.955-1.726.826-2.777-.3-2.777-.3-1.802-1.727 0-3.453 0-3.453 4.054-2.853 4.022-3.973 4.022-3.973L9.643 15.96s2.435-2.325 4.913 1.054c0 0 5.93-8.409 12.463-.6"/><path d="M13.956 25.736s3.903.436 3.978-3.768m.396-4.258s2.293.311 3.876 3.874c.789 1.776 4.416 7.5 4.813 7.73 0 0 25.525-5.62 30.556 2.79 0 0 1.726.525 2.777-2.328 1.051-2.853 3.604-3.228 3.604-3.228"/><path d="M46.401 45.394c-8.934 4.88-15.554-1.354-15.554-1.354l.484 8.897.5 6.022-1.672 3.712a1 1 0 0 1-.912.589h-1.464a1 1 0 0 1-.901-1.434l1.163-2.987s-.05-1.735-.501-5.414-2.327-8.709-2.327-8.709c-4.505-2.553-3.754-7.168-3.754-7.168-5.706-4.151-5.316-12.316-5.316-12.316"/><path d="M48.678 39.198s-5.058 6.448-.16 12.699c0 0 .102 5.416-1.812 8.062l-1.159 1.748a1 1 0 0 0 .834 1.553h1.445c.294 0 .57-.127.761-.35.917-1.071 3.494-4.551 3.494-9.826 0-5.24 1.045-9.044 1.045-9.044 5.068-4.448 5.257-7.859 5.257-7.859M56.04 46.52s-1.066 3.233 1.374 5.335l-4.25 11.208"/></g></svg>