<svg viewBox="0 0 72 72" xmlns="http://www.w3.org/2000/svg"><path d="M47.34 34.618s.06 2.342-1.204 3.16c-1.265.817-3.376-.2-3.376-.2s-.06-2.342 1.204-3.16 3.375.2 3.375.2zm-21.41 0s-.06 2.342 1.204 3.16c1.265.817 3.375-.2 3.375-.2s.061-2.342-1.203-3.16-3.376.2-3.376.2z"/><path fill="none" stroke="#000" stroke-linecap="round" stroke-linejoin="round" stroke-miterlimit="10" stroke-width="2" d="M24.198 47.367s-1.667 12.708 11.958 7.583v-3.344M21.24 28.492c-.167.333-4.667 9.166.917 16.25"/><path fill="none" stroke="#000" stroke-linecap="round" stroke-linejoin="round" stroke-miterlimit="10" stroke-width="2" d="M22.155 23.24c-4.665 2.775-12.117 9.782-5.249 24.127m10.417 1.625s-11.167.75-12.75 6.833m14.333-3.667c-.25.167-10.333 5.75-8.583 10.667m9.254-3.673c1.98 2.05 7.412 6.378 13.517.13M17.49 22.325c-7.929-9.061-3.076-11.658-.224-12.877a2.969 2.969 0 0 1 2.865.317l5.799 6.06s9.324-6.394 20.14 0l5.8-6.06a2.97 2.97 0 0 1 2.864-.317c2.852 1.219 7.705 3.816-.224 12.877M40.719 47.742s1 2.875-3.417 3.625h-2.604c-4.417-.75-3.417-3.625-3.417-3.625"/><path fill="none" stroke="#000" stroke-linecap="round" stroke-linejoin="round" stroke-miterlimit="10" stroke-width="2" d="M47.802 47.367s1.667 12.708-11.958 7.583v-3.583M50.76 28.492c.167.333 4.667 9.166-.917 16.25"/><path fill="none" stroke="#000" stroke-linecap="round" stroke-linejoin="round" stroke-miterlimit="10" stroke-width="2" d="M49.883 23.263c4.668 2.79 12.06 9.798 5.21 24.103m-10.416 1.626s11.167.75 12.75 6.833m-14.333-3.667c.25.167 10.333 5.75 8.583 10.667m-22.1-38.718s7.077-3.333 13.183.417m-11.24 4.762s4.99-3.333 9.296.417"/></svg>