<svg viewBox="0 0 72 72" xmlns="http://www.w3.org/2000/svg"><g fill="none" stroke="#000" stroke-linecap="round" stroke-linejoin="round" stroke-miterlimit="10" stroke-width="2"><path d="M59.335 35.672c-1.033 1.863-2.138 4.257-1.875 5.575.474 2.367 1.717 6.233 1.717 6.233l-5.098 11.106a1.93 1.93 0 0 1-1.754 1.125h-.012c-1.487 0-2.42-1.606-1.67-2.89 1.913-3.283 4.087-9.126 1.44-16.315a8.116 8.116 0 0 1-.04-5.492l2.498-7.103m8.709 15.024c.464.69 1.523 4.618 1.328 5.427l-2.27 9.439a2 2 0 0 1-1.944 1.532h-2.449"/><path d="m38.375 31.438.7 6.81-1.138 9.564 7 5.567a2 2 0 0 1 .786 1.224l.004.016c.361 1.794-1.678 3.092-3.15 2.003L34.814 50.4 33.21 39.04l-2.895-2.607C19.348 39.905 13.5 26.917 13.5 26.917l-5.25-1-1.917.5c-.47.088-1.057-.73-1.25-1.168-.888-2.018 1.573-3.19 1.573-3.19l8.356-1.448c.572-.1 1.14.177 1.405.694 1.359 2.645 5.926 10.218 12.163 6.606 0 0 1.447-4.843 8.048-6.948 1.56-.498 2.93-1.464 3.812-2.843.662-1.035 1.516-2.084 2.344-2.281 1.295-.31 3.732-.541 5.414-.597a2.432 2.432 0 0 1 2.276 1.36c.786 1.614 11.412 9.105 11.412 9.105a5.753 5.753 0 0 1 1.963 4.543c-.086 2.24.821 6.25 1.964 9"/><path d="m30 41.188-1.14 16.63A1 1 0 0 0 29.845 59h1.531a2 2 0 0 0 2-2v-2.563m9.574-14.5c2.814-.282 6.65-.871 8.04-1.926"/></g></svg>