<svg viewBox="0 0 72 72" xmlns="http://www.w3.org/2000/svg"><g fill="none" stroke="#000" stroke-linecap="round" stroke-linejoin="round" stroke-miterlimit="10" stroke-width="2.378"><path d="M40.26 44.23s8.323 0 10.7-1.189c2.378-1.189 4.236.818 4.236.818.669-1.562-.669-3.197-.669-3.197 4.756 2.379 7.134 0 7.134 0 3.567 0 3.567-14.27-5.945-15.46s-9.512 10.7-9.512 10.7l-2.378 1.19s0 2.378-3.567 7.134z"/><path d="M43.83 35.9s-10.7-10.7-22.59-5.945c-11.89 4.756-10.7 16.65-10.7 16.65s8.323 5.945 19.02 2.378 12.04-6.688 12.04-6.688 2.229-1.635 2.229-6.391"/><path d="M11.72 42.4s17.15 10.5 29.73-7.688"/><path d="M18.86 44.23s3.567-5.202-4.756-8.323m5.94 3.561 9.44-2.949 1.261-6.563M34.02 41.25l-4.46-4.16M16.67 50.25l-8.529 3.043s4.525 3.856 9.346 2.964c4.821-.891 5.116-5.638 5.116-5.638l-5.934-.37M33.05 47.65l3.641 7.283s5.945 1.189 9.512 0-6.391-9.661-9.141-8.992"/></g></svg>