<svg viewBox="0 0 72 72" xmlns="http://www.w3.org/2000/svg"><g fill="none" stroke="#000" stroke-miterlimit="10" stroke-width="2"><ellipse cx="30.321" cy="22.573" rx="2.168" ry="3.125" transform="rotate(-10.248 30.33 22.579)"/><path stroke-linecap="round" stroke-linejoin="round" d="M29.718 29.872c3.059-.206 7.15-1.816 8.384-3.56 1.233-1.742.671-4.816.671-4.816 4.166-.085 3.894-3.115 3.94-6.698.047-3.612-4.22-3.342-4.22-3.342-1.881-.085-4.86 2.364-4.86 2.364-5.399-.68-9.105 1.528-9.19 1.655 0 0-2.089-2.001-4.206-1.505 0 0-5.223 1.06-2.935 6.096 2.56 5.631 5.09 3.718 5.09 3.718s.931 6.517 7.326 6.088zm3.414 2.311c-.085.255-4.165 2.408-1.812 10.179l-2.113 6.122a13.003 13.003 0 0 0-.689 5.013l.082 1.38c.116 1.955.952 3.885 2.543 5.029 4.146 2.982 6.26-1.681 6.775-2.756.636-1.327-.446-3.048-2.177-2.616m4.579-21.312.723 3.592a4.656 4.656 0 0 1-.492 3.178l-2.078 3.747"/><path stroke-linecap="round" stroke-linejoin="round" d="M46.88 50.056s-9.098-5.739-12.457-.255c-.72 1.175-1.09 2.256-1.227 3.23m-6.16-23.159s-5.557 8.124-.175 15.656m13.177 15.386a11.307 11.307 0 0 1-4.297-.366"/><path stroke-linecap="round" stroke-linejoin="round" d="M42 24.833c2.488.783 3.621 2.04 4.88 5.06 7.787 8.587 7.953 20.106 1.36 26.752 0 0-3.214 3.728-8.202 4.269"/></g></svg>