<svg viewBox="0 0 72 72" xmlns="http://www.w3.org/2000/svg"><g fill="none" stroke="#000" stroke-linecap="round" stroke-linejoin="round" stroke-miterlimit="10" stroke-width="2"><path d="M53.805 29.225s.386 10.65 5.072 18.508c.772 1.294.986 2.845.51 4.275l-1.01 6.027a2 2 0 0 0 1.898 2.632h.684c.954 0 1.774-.67 1.96-1.605.517-2.6.677-6.966 1.26-9.116a3.806 3.806 0 0 0-.007-2.072c-.826-2.817-1.868-12.05-2.322-16.336a5.142 5.142 0 0 0-2.032-3.574l-1.07-.803a15.424 15.424 0 0 1-4.169-4.741l-2.162-5.587c-.444-.784-2.258-1.24-3.16-1.24h-.345c-.9 0-1.696.582-1.963 1.441-.452 1.454-1.25 3.607-2.231 4.483-.966.862-2.748.647-3.949.364a2.112 2.112 0 0 1-1.545-1.5l-1.011-3.663a1.808 1.808 0 0 0-1.507-1.314c-1.227-.16-3.035-.297-3.62.19-.935.778-1.168 2.499-1.855 4.34-.482 1.292-1.332 2.416-2.404 3.284-3.217 2.604-9.569 7.167-8.009 1.19 1.953-7.482-2.706-8.393-2.706-8.393l-10.91 2.431S4.236 19.814 5.2 22.373c.244.647.954.995 1.628.845l1.99-.443s2.971 1.92 6.443.59"/><path d="m52.73 43.93.437 2.031c.728 3.372-2.637 10.82-2.637 10.82-.815 1.27.016 2.95 1.519 3.073l1.846.115M13.333 27.167S12.25 35.5 19.001 37.949c0 0 2.906.949 5.46.067 1.829-.63 3.861.15 4.593 1.94l.034.083c.126.317.924 5.056 1.396 7.9.232 1.401.272 2.825.117 4.235l-.69 6.291a2 2 0 0 0 1.968 2.219l.87.008a2 2 0 0 0 2.019-2v-10.02s-.682-7.27 1.771-11.45m2.154 4.432c1.987.598 8.143 1.646 12.003-.979 0 0 2.768-1.826 4.502-1.487m9.572-7.286c.356.11 1.743 1.999 1.82 10.57"/></g></svg>