<svg viewBox="0 0 72 72" xmlns="http://www.w3.org/2000/svg"><g fill="none" stroke="#000" stroke-linecap="round" stroke-linejoin="round" stroke-miterlimit="10" stroke-width="2"><path d="M13 20S48.5 7.75 57.75 34.375C57.75 34.375 59 39 64 38c0 0-2 2 0 3 0 0-4.5-1-6.75 2.5S56 54 41 60l2-3s-7 3-14 1c0 0 3.5-5.5 1.25-8.75S30 44 30 44s-4 9-8 8c0 0 2.5-7.5.25-11.25S15 30 16 30s8 1 12 5c0 0 2-5.5 2.5-8.25S32 18 13 20z"/><path d="M48 39s-4-12-7-9-1.625 9-.813 9c.813 0 .079 1.186 4.946 2.093"/><path d="M33.573 18.009s14.521 21.52-3.119 39.44m14.16-37.441s14.499 20.413-3.16 37.44m12.613-6.888s3.311-14.291-.878-24.426m-32.441 4.923s8.146 5.74 5.476 18.886"/></g></svg>