<svg viewBox="0 0 72 72" xmlns="http://www.w3.org/2000/svg"><path d="M26.162 31.06s-3.048-.22-3.829-1a2 2 0 0 1 2.829-2.829c.78.781 1 3.828 1 3.828z"/><path fill="none" stroke="#000" stroke-linecap="round" stroke-linejoin="round" stroke-miterlimit="10" stroke-width="2" d="m19.62 26.235 2.037-9.248s-7.68-.627-6.505-7.445c0 0 9.953 3.292 12.775.47 0 0 6.237-6.664 16.195-.043 3.323 2.21 12.775-.47 12.775-.47 1.176 6.818-6.505 7.445-6.505 7.445l2.038 9.248M28.483 46h15.726c.272 0 .532.114.708.321.847 1 3.144 4.347 2.094 10.297a1.895 1.895 0 0 1-2.203 1.55c-3.476-.64-11.324-1.79-16.76-.326a1.87 1.87 0 0 1-2.343-1.591c-.302-2.511-.315-6.628 2.01-9.868a.945.945 0 0 1 .768-.383z"/><path fill="none" stroke="#000" stroke-linecap="round" stroke-linejoin="round" stroke-miterlimit="10" stroke-width="2" d="M29.867 50.277s-.686 2.855 3.154 2.926m-3.893 8.263s6.348 7.916 13.793.314M17.518 20.154c-3.064-1.957-7.38-4.587-12.436-3.342 0 0-1.489 14.029 15.362 15.518l1.213.88s-2.29 8.918 1.262 16.102"/><path d="M45.887 31.014s3.047-.22 3.828-1a2 2 0 1 0-2.828-2.828c-.78.78-1 3.828-1 3.828z"/><path fill="none" stroke="#000" stroke-linecap="round" stroke-linejoin="round" stroke-miterlimit="10" stroke-width="2" d="M43.182 50.234s.686 2.855-3.154 2.926m14.746-33.201c3.048-1.888 7.269-4.402 12.192-3.19 0 0 1.49 14.029-15.36 15.518l-1.214.88s2.538 7.978-1.014 15.162"/></svg>