<svg viewBox="0 0 72 72" xmlns="http://www.w3.org/2000/svg"><g fill="none" stroke="#000" stroke-linecap="round" stroke-linejoin="round" stroke-miterlimit="10" stroke-width="2"><path d="M28.035 37.938c-.442 5.693 3.805 9.32 3.611 5.318-.18-3.709 2.9-5.1 3.9-5.209l-.08-.109h-7.43"/><path d="M42.202 39.165c3.082 1.228 6.694 3.67 9.298 8.523.295.579.504 1.204.627 1.736 1.048 4.048-5.547 2.433-6.649 5.254-.403 1.032-1.154 4.168-.564 4.587.04.028.085.044.137.047.19.009.47-.168.863-.6 2.06-1.533 4.998.512 6.986-.652.8-.468 1.203-1.224 1.492-1.792.461.74 1.075 2.269 2.124 2.623 1.835.55 4.588.375 5.896 3.841 1.192-3.637 2.383-6.23-2.059-9.292-1.56-1.057-3.95-2.688-4.008-4.125-.01-.18.398-10.23-5.575-18.566.208-2.229 1.823-5.315 4.11-5.817 2.055-.45-3.405-4.51-11.388-.883-10.758-6.16-23.196.029-23.548 6.733-3.125-.25-7.87.23-7.97 3.068.016.547-.146 4.087 16.026 4.087h8l.056-.001"/><path d="M43.469 36.098c-.76.661-2.492 3.56-.225 6.503 3.31 4.296-8.064 1.793-7.599-9.2"/></g></svg>