<svg viewBox="0 0 72 72" xmlns="http://www.w3.org/2000/svg"><g fill="none" stroke="#000" stroke-linecap="round" stroke-linejoin="round" stroke-width="2"><path d="m49.447 51.455-4.21-9.544-3.864-.522M59.02 19.82c.398-5.398-4.406-4.947-5.882-4.901 0 0-3.922 0-3.922 3.921s3.922 4.902 3.922 4.902c0 5.883-3.922 7.843-3.922 7.843.242.007-7.945-1.935-11.765-.98l-2.941-5.882c0 .98-.98-4.902-.98-4.902-1.96-10.785-8.823-8.824-8.823-8.824-5.883 0-6.863 6.863-6.863 6.863L10 18.84l.98 3.922 7.843.98c-4.901 10.785-2.333 21.158 6.863 22.55 0 0 7.843 1.96 11.765-3.922a11.895 11.895 0 0 0 .98-4.902"/><path d="M24.706 18.84c-.298.78-3.92 19.477 7.843 9.804m20.412 21.869-.804-12.065M31.569 54.135c0 1.624-1.756 2.94-3.922 2.94s-3.921-1.316-3.921-2.94a3.066 3.066 0 0 1 2.395-2.71 5.057 5.057 0 0 1 1.526-.232c2.166 0 3.922 1.317 3.922 2.942zm-2.024-2.942.063-3.921m-3.922 3.921-.98-4.902"/><path d="M24.986 57.076c-1.098.235-2.24.942-2.24 1.96v1.961h7.842v-4.213m18.908.292c-1.098.235-2.241.942-2.241 1.96v1.961h7.843v-4.213"/><path d="M56.078 54.135c0 1.624-1.755 2.94-3.921 2.94s-3.922-1.316-3.922-2.94a3.066 3.066 0 0 1 2.395-2.71 5.057 5.057 0 0 1 1.527-.232 5.222 5.222 0 0 1 .79.06c1.787.274 3.131 1.46 3.131 2.882z"/></g></svg>