<svg viewBox="0 0 72 72" xmlns="http://www.w3.org/2000/svg"><circle cx="26.782" cy="38.62" r="3"/><path fill="none" stroke="#000" stroke-linecap="round" stroke-linejoin="round" stroke-miterlimit="10" stroke-width="2" d="M37 54.469v3.022m5.062 2.442 10.408-4.514c10.572-5.464 5.345-20.667 5.345-20.667 4.395-1.782 6.84-6.092 6.84-6.092 6.34-12.319-.216-16.744-3.687-18.15a2.845 2.845 0 0 0-3.075.626l-8.333 7.7c-8.374-4.94-16.747-4.94-25.12 0l-8.333-7.7a2.845 2.845 0 0 0-3.076-.626c-3.47 1.406-10.027 5.831-3.686 18.15 0 0 2.445 4.31 6.84 6.092 0 0-5.227 15.204 5.345 20.667l10.408 4.514c2.741 2.534 7.383 2.534 10.124 0z"/><path fill="none" stroke="#000" stroke-linecap="round" stroke-linejoin="round" stroke-miterlimit="10" stroke-width="2" d="M13.453 14.728s8.077 3.872 5.226 16.521"/><circle cx="47.218" cy="38.62" r="3"/><path fill="none" stroke="#000" stroke-linecap="round" stroke-linejoin="round" stroke-miterlimit="10" stroke-width="2" d="M60.547 14.728S52.47 18.6 55.321 31.249"/><path d="M34.449 50.265c1.417-.261 3.142-.405 4.971-.166 1.81.237 2.604 1.922 1.472 3.042l-1.9 1.88c-.94.93-2.732.978-3.751.102l-2.022-1.738c-1.242-1.067-.574-2.788 1.23-3.12z"/></svg>