<svg viewBox="0 0 72 72" xmlns="http://www.w3.org/2000/svg"><path d="M29.506 30.109s-1.805 1.242-2.748.668a2 2 0 0 1 2.08-3.417c.943.575.668 2.749.668 2.749z"/><path fill="none" stroke="#000" stroke-linecap="round" stroke-linejoin="round" stroke-miterlimit="10" stroke-width="2" d="M33.109 37.006h6.146a1 1 0 0 1 .92.609l1.158 2.724-2.18 1.146a1 1 0 0 1-1.456-.754m-2.937.032a1 1 0 0 1-1.364.747l-2.313-.952 1.09-2.903a1 1 0 0 1 .936-.649m-2.673 13.021s-.718 8.793 3.008 9.937c2.645.813 5.15.533 6.062-.25.875-.75 2.632-4.474 1.827-9.687"/><path d="M44.264 30.109s1.805 1.242 2.748.668a2 2 0 0 0-2.08-3.417c-.944.575-.668 2.749-.668 2.749z"/><path fill="none" stroke="#000" stroke-linecap="round" stroke-linejoin="round" stroke-miterlimit="10" stroke-width="2" d="M25.625 42.84c-.475 3.602 2.234 5.75 4.284 6.84a3.415 3.415 0 0 0 3.718-.317l2.58-2.024 2.582 2.024a3.416 3.416 0 0 0 3.717.318c2.05-1.091 4.76-3.24 4.285-6.842"/><path fill="none" stroke="#000" stroke-linecap="round" stroke-linejoin="round" stroke-miterlimit="10" stroke-width="2" d="M19.95 28.357c-2.316 5.16-.507 13.025.12 15.376a1.98 1.98 0 0 1-.127 1.363l-1.988 4.194c-.623 1.315-2.393 1.553-3.33.44-3.193-3.786-8.559-11.39-6.55-16.685 7.063-18.61 15.869-18.143 15.869-18.143 2.845-1.934 13.104-6.938 24.812.875 0 0 8.632-1.718 14.938 16.937 1.803 5.337-3.43 12.867-6.551 16.645-.931 1.127-2.716.893-3.342-.428l-1.975-4.165a1.978 1.978 0 0 1-.127-1.363c.628-2.351 2.436-10.216.12-15.376"/><path fill="none" stroke="#000" stroke-linecap="round" stroke-linejoin="round" stroke-miterlimit="10" stroke-width="2" d="M52.63 46.463s-3.077 6.721-7.804 8.271m-25.389-7.765s3.078 6.082 7.805 7.632m8.966-7.262v-3.03"/></svg>