<svg viewBox="0 0 72 72" xmlns="http://www.w3.org/2000/svg"><path fill="none" stroke="#000" stroke-linecap="round" stroke-linejoin="round" stroke-width="2" d="M36.872 48.399a6.847 6.847 0 0 1-1.066.08h.125c-3.074.007-5.808-1.463-9-3.591-12 0-10 13-10 13"/><path fill="none" stroke="#000" stroke-linecap="round" stroke-linejoin="round" stroke-width="2" d="M35.467 52.133h-8.538l.002-7.245m-4.666.869v12.11m12.882 1.905h24.99l6.95-16.349h-24.99l-6.95 16.349zm-10.97.001h10.97"/><path fill="none" stroke="#000" stroke-linecap="round" stroke-linejoin="round" stroke-width="1.8" d="m38.294 35.589-2.444-3.014m-2.443 3.014 2.443-3.014m-2.443 0h4.887"/><path fill="none" stroke="#000" stroke-linecap="round" stroke-linejoin="round" stroke-width="2" d="m49.767 23.869.438 4.184a13.664 13.664 0 0 1-1.017 5.19m-26.676-.001a13.664 13.664 0 0 1-1.017-5.189l2.138-18.99 6.45 6.211a14.175 14.175 0 0 1 5.462-1.086h.61a14.182 14.182 0 0 1 5.464 1.086l6.448-6.21.666 6.398"/><path fill="none" stroke="#000" stroke-linecap="round" stroke-linejoin="round" stroke-width="1.8" d="M28.112 39.722a14.12 14.12 0 0 0 7.433 2.097h.61a14.12 14.12 0 0 0 7.433-2.097"/><ellipse cx="28.52" cy="27.752" rx="1.222" ry="1.206"/><ellipse cx="43.181" cy="27.752" rx="1.222" ry="1.206"/><path fill="none" stroke="#000" stroke-linecap="round" stroke-linejoin="round" stroke-width="1.6" d="M47.072 24.947s-8.168 3.408-7.783 3.84c7.815 7.016 8.428-2.862 7.783-3.84zm3.85 12.248-5.498-3.015m3.254 5.629-5.497-3.014M24.628 24.947s7.557 4.01 7.784 3.84c-7.545 7.384-8.546-2.236-7.784-3.84zm-3.849 12.248 5.497-3.015m-3.254 5.629 5.498-3.014m18.478-18.511L22.652 17.7l-.487 4.728 24.84-1.502"/><path fill="none" stroke="#000" stroke-linecap="round" stroke-linejoin="round" stroke-width="1.6" d="M50.497 19.6a2 2 0 1 1-2-2 2 2 0 0 1 2 2"/></svg>