<svg viewBox="0 0 72 72" xmlns="http://www.w3.org/2000/svg"><circle cx="26.25" cy="40.275" r="2"/><circle cx="44.294" cy="40.511" r="2"/><path fill="none" stroke="#000" stroke-linecap="round" stroke-linejoin="round" stroke-miterlimit="10" stroke-width="2" d="m29.312 53.975 2.375 1.396s.49 2.966 3.27 2.748v3.562s-3.468 1.76-6.343-.53c-2.237-1.784-3.594-4.688-3.594-4.688m-3.281-3.125c-3.83-1.078-6.303-3.08-7.846-5.504L9.87 42.326c2.774-7.05 2.576-14.134 2.576-14.134-4.708-8.667-1.625-17.459-1.625-17.459 2.542-8.291 6.792-5.041 6.792-5.041 3.042 5.166 9.875 8.916 9.875 8.916"/><path fill="none" stroke="#000" stroke-linecap="round" stroke-linejoin="round" stroke-miterlimit="10" stroke-width="2" d="M15.614 9.213s.375 7.5 7.313 10.375c0 0-6.699 1.679-7.782 6.345m39.711-16.72s-.375 7.5-7.313 10.375c0 0 6.698 1.679 7.782 6.345M30.947 40.51s2.711-4.38-1.25-5.668c-2.791-.908-6.208 1.058-6.208 1.058m11.843 25.781s3.469 1.76 6.344-.53c2.237-1.784 3.594-4.688 3.594-4.688m-4.583-2.488-2.791 1.396s-.157 2.966-2.938 2.748"/><path fill="none" stroke="#000" stroke-linecap="round" stroke-linejoin="round" stroke-miterlimit="10" stroke-width="2" d="M42.8 14.95s6.834-3.75 9.876-8.916c0 0 4.25-3.25 6.792 5.041 0 0 3.083 8.792-1.626 17.459 0 0-.067 7.318 2.63 13.792l-4.697 6.736c-1.56 2.022-3.872 3.674-7.224 4.617"/><path fill="none" stroke="#000" stroke-linecap="round" stroke-linejoin="round" stroke-miterlimit="10" stroke-width="2" d="M39.343 40.852s-2.711-4.38 1.25-5.668c2.791-.908 6.208 1.058 6.208 1.058M24.688 11.451s7.953-5.577 21.352 0M31.353 65.869c2.72 1.485 5.29 1.353 7.75 0"/></svg>