<svg viewBox="0 0 72 72" xmlns="http://www.w3.org/2000/svg"><path fill="none" stroke="#000" stroke-linecap="round" stroke-linejoin="round" stroke-miterlimit="10" stroke-width="2" d="M60.57 9.813s-12.5-.305-16.786 19.858M41.03 50.553l-5.19 3.401-5.276-3.401m.813 10.467 4.42-2.033 4.623 2.032m-4.58-7.065-.043 5.033"/><ellipse cx="45.121" cy="39.918" rx="1.646" ry="2.812"/><path fill="none" stroke="#000" stroke-linecap="round" stroke-linejoin="round" stroke-miterlimit="10" stroke-width="2" d="M22.333 36.734C5.67 23.727 7.904 6.282 7.904 6.282 23.96.726 31.377 27.995 31.377 27.995s4.413-3.56 9.043 0c0 0 7.418-27.27 23.473-21.713 0 0 2.235 17.445-14.43 30.452"/><path fill="none" stroke="#000" stroke-linecap="round" stroke-linejoin="round" stroke-miterlimit="10" stroke-width="2" d="M11.227 9.813s12.499-.305 16.784 19.858m-5.678 14.074s-10.872 8.23-4.776 17.985c0 0 2.846 5.284 13.21 4.98H41.03c10.364.304 13.21-4.98 13.21-4.98 6.096-9.754-4.777-17.985-4.777-17.985"/><ellipse cx="26.879" cy="39.918" rx="1.646" ry="2.812"/></svg>