<svg viewBox="0 0 72 72" xmlns="http://www.w3.org/2000/svg"><circle cx="27.634" cy="29.677" r="2"/><path fill="none" stroke="#000" stroke-linecap="round" stroke-linejoin="round" stroke-miterlimit="10" stroke-width="2" d="M23.04 27.954s4.725-6.544 9.451.102M30.897 40.17s.648 2.3 3.537 2.712m-6.445 8.885 1.292.805a7.436 7.436 0 0 0 3.938 1.14h5.622a7.424 7.424 0 0 0 3.79-1.05l1.51-.895M31.056 35.588c-2.616 1.508-5.969 4.829-5.58 11.876m1.342 8.562.28.67a9.325 9.325 0 0 0 5.773 5.279l.786.25a9.325 9.325 0 0 0 6.833-.465h0a9.326 9.326 0 0 0 4.52-4.644l.486-1.095M16.08 18.845l-1.77-1.228a4.35 4.35 0 0 0-5.296.256h0a4.325 4.325 0 0 0-1.464 2.531c-.62 3.446-1.574 11.572 2.67 13.712"/><circle cx="43.366" cy="29.913" r="2"/><path fill="none" stroke="#000" stroke-linecap="round" stroke-linejoin="round" stroke-miterlimit="10" stroke-width="2" d="M48.017 28.176s-4.726-6.543-9.452.102"/><path fill="none" stroke="#000" stroke-linecap="round" stroke-linejoin="round" stroke-miterlimit="10" stroke-width="2" d="M49.96 41.42c2.516-1.751 2.7-5.969 3.302-10.18.413-2.89-.472-5.896-3.596-8.49-3.132-2.6-7.315-2.148-9.39-1.699-1.022.221-2.06.315-3.106.276l-2.727-.101a13.2 13.2 0 0 1-2.497-.347c-1.986-.462-6.364-1.047-9.612 1.65-3.124 2.593-4.009 5.6-3.596 8.488.602 4.212.786 8.43 3.301 10.18"/><path fill="none" stroke="#000" stroke-linecap="round" stroke-linejoin="round" stroke-miterlimit="10" stroke-width="2" d="M41.103 40.17s-.648 2.3-3.537 2.712m3.687-6.887c2.563 1.588 5.645 4.919 5.271 11.691m-5.271-11.691a12.791 12.791 0 0 0-1.771-.896 9.518 9.518 0 0 0-3.914-.72l-.052.001c-1.544.037-3.07.415-4.412 1.18l-.048.028"/><path fill="none" stroke="#000" stroke-linecap="round" stroke-linejoin="round" stroke-miterlimit="10" stroke-width="2" d="M54.463 54.76s12.676-6.052 3.951-28.462S36.066 9.71 36.066 9.71 22.31 3.665 13.585 26.075s3.952 28.462 3.952 28.462m38.383-35.47 1.77-1.228a4.35 4.35 0 0 1 5.296.257h0a4.325 4.325 0 0 1 1.464 2.53c.62 3.446 1.574 11.572-2.67 13.712"/></svg>