<svg viewBox="0 0 72 72" xmlns="http://www.w3.org/2000/svg"><path fill="none" stroke="#000" stroke-linecap="round" stroke-linejoin="round" stroke-miterlimit="10" stroke-width="2" d="M57.205 36.868c1.768 2.362 6.545 6.682 6.045 16.238m-32-12.136s8.478 6.783 0 18.765"/><path fill="none" stroke="#000" stroke-linecap="round" stroke-linejoin="round" stroke-miterlimit="10" stroke-width="2" d="M33.946 29.955c.55 8.355-9.322 9.703-11.954 10.335-.332.08-.632.25-.873.492l-2.223 2.222c-.35.35-.824.546-1.318.546h-3.512a2.795 2.795 0 0 1-2.651-1.911l-.531-1.593a2.795 2.795 0 0 1 .255-2.322l8.786-14.643 4.724-4.724-2.116-6.906s7.803-.698 8.414 5.331c0 0 16.928 2.442 10.553 19.383 0 0-1.625 5.949 2.375 11.185"/><path fill="none" stroke="#000" stroke-linecap="round" stroke-linejoin="round" stroke-miterlimit="10" stroke-width="2" d="M29.667 13.106s22.244-4.02 19.958 19.959"/><path fill="none" stroke="#000" stroke-linecap="round" stroke-linejoin="round" stroke-miterlimit="10" stroke-width="2" d="M48.669 22.24s14.766 6.587 5.456 22.22c0 0-5.375 6.563.625 13.605"/><circle cx="23.167" cy="28.016" r="2"/></svg>