<svg viewBox="0 0 72 72" xmlns="http://www.w3.org/2000/svg"><g fill="none" stroke="#000" stroke-linecap="round" stroke-linejoin="round" stroke-miterlimit="10" stroke-width="2"><path d="m50.405 55.377-11.742-4.412a4.727 4.727 0 0 0-3.326 0l-11.742 4.412c-6.498 2.441-13.433-2.361-13.433-9.303v-7.273a17.994 17.994 0 0 1 8.522-15.3l7.03-4.352a21.438 21.438 0 0 1 22.571 0l7.031 4.353A17.994 17.994 0 0 1 63.838 38.8v7.274c0 6.94-6.935 11.743-13.433 9.302z"/><ellipse cx="22.328" cy="41.021" rx="7.964" ry="4.9" transform="rotate(-70.567 22.33 41.023)"/><ellipse cx="51.672" cy="41.021" rx="4.9" ry="7.964" transform="rotate(-19.433 51.667 41.018)"/></g></svg>