<svg viewBox="0 0 72 72" xmlns="http://www.w3.org/2000/svg"><circle cx="28.634" cy="36.999" r="2"/><path fill="none" stroke="#000" stroke-linecap="round" stroke-linejoin="round" stroke-miterlimit="10" stroke-width="2" d="M26.009 19.895S18.32 8.27 11.07 13.082c-6.6 4.382-3.91 13.959.603 16.915"/><path fill="none" stroke="#000" stroke-linecap="round" stroke-linejoin="round" stroke-miterlimit="10" stroke-width="2" d="M21.071 58.582c-15.937-6.312-7.85-24.013-7.85-24.013s3.645-9.359 9.341-11.609m28.536 35.622c15.937-6.312 7.85-24.013 7.85-24.013s-3.645-9.359-9.341-11.609"/><circle cx="43.366" cy="36.999" r="2"/><path fill="none" stroke="#000" stroke-linecap="round" stroke-linejoin="round" stroke-miterlimit="10" stroke-width="2" d="m43.495 43.331 1.56 4.804c.22.817.086 1.682-.367 2.396-1.22 1.924-4.054 5.119-8.26 2.239h-.857c-4.205 2.88-7.04-.315-8.26-2.239a3.007 3.007 0 0 1-.367-2.396l1.56-4.804"/><path fill="none" stroke="#000" stroke-linecap="round" stroke-linejoin="round" stroke-miterlimit="10" stroke-width="2" d="M40.172 47.924c-.101 3.008-2.805 1.656-2.805 1.656L36 48.904l-1.367.676s-2.704 1.352-2.805-1.656m14.163-28.029S53.68 8.27 60.93 13.082c6.6 4.382 3.91 13.959-.603 16.915M29.946 57.148s5.188 6.601 12.108.562M24.665 17.951s8.71-4.93 22.326 0M36 52.77v-3.19"/></svg>