<svg viewBox="0 0 72 72" xmlns="http://www.w3.org/2000/svg"><g fill="none" stroke="#000" stroke-linecap="round" stroke-linejoin="round" stroke-miterlimit="10" stroke-width="2"><path d="M20.4 32.493c-3.017 2.23-6.565 1.993-8.831 1.49-1.597-.356-2.615-1.97-2.235-3.56.286-1.2.862-2.866 1.962-5.148 3.118-6.473 8.438-6.488 8.438-6.488.408-1.036 1.866-3.7 3.007-4.195 0 0 7.13 7.371 1.028 11.344M11.678 43.593c-1.804-.749-2.843-6.56 6.743-4.5.58.124 1.599.236 2.172.083 1.795-.477 5.645-.646 5.645-4.583m7.879.493c.141.095 4.583 9.875-3.119 10.442s-13.796-2.032-13.796-2.032"/><path d="M30.123 49.402s-1.125 3.97 1.9 6.993l-2.784.81a4.823 4.823 0 0 0-3.011 2.57v0a1.89 1.89 0 0 0 1.049 2.583c1.608.596 4.311.877 8.12-1.11 0 0 9.347 2.556 12.421-3.908 0 0 5.515-9.213 1.735-22.254-2.675-9.231-10.61-11.326-15.016-11.762-1.626-.16-3.175-.69-4.665-1.36-1.852-.834-3.512-1.005-3.512-1.005m12.254-.368s.11-13.112 10.127-13.868 13.866 9.616 13.866 9.616"/><path d="M55.866 16.593c-2.188-1.25-7.437 1.888-3.563 8.125s13.355 10.569 10.304 18.779c-3.59 9.662-13.116 10.72-13.116 10.72M34.053 27.802s15.438 4.603 9.876 23.728M26.36 45.61s-2.098 4.712.485 9.212c0 0-6.917.75-4.735 5.244"/></g></svg>