<svg viewBox="0 0 72 72" xmlns="http://www.w3.org/2000/svg"><path fill="none" stroke="#000" stroke-linecap="round" stroke-linejoin="round" stroke-miterlimit="10" stroke-width="2" d="m40.535 55.624-3.976-1.494a1.6 1.6 0 0 0-1.126 0l-3.977 1.494c-2.2.827-4.548-.8-4.548-3.15v-2.463a6.09 6.09 0 0 1 2.885-5.18l2.381-1.475a7.26 7.26 0 0 1 7.643 0l2.38 1.474a6.093 6.093 0 0 1 2.886 5.181v2.463c0 2.35-2.348 3.977-4.548 3.15z"/><ellipse cx="32.185" cy="49.709" rx="2.611" ry="1.607" transform="rotate(-70.567 32.188 49.711)"/><ellipse cx="39.806" cy="49.709" rx="1.607" ry="2.611" transform="rotate(-19.433 39.802 49.705)"/><circle cx="26.083" cy="36.086" r="2"/><circle cx="46.042" cy="36.086" r="2"/><path fill="none" stroke="#000" stroke-linecap="round" stroke-linejoin="round" stroke-miterlimit="10" stroke-width="2" d="M25.833 61.419c-10.083-6.5-5.166-23.167-5.166-23.167-7.777 2.916-9.022-3.74-10.92-8.206-.746-1.753-1.075-3.637-1.164-5.539-.16-3.397-1.613-8.076-2.494-10.639a2 2 0 0 1 2.062-2.642c1.165.1 2.453.51 3.58.967 1.898.77 3.873 1.355 5.907 1.59 8.42.975 9.27 7.303 9.27 7.303s10.57-1.75 17.759.25c0 0 .828-6.911 9.247-7.886 2.035-.235 4.01-.821 5.908-1.59 1.127-.457 2.415-.868 3.58-.967a2 2 0 0 1 2.062 2.642c-.881 2.563-2.334 7.242-2.494 10.639-.09 1.902-.418 3.786-1.164 5.539-1.898 4.465-3.144 11.122-10.92 8.206 0 0 4.917 16.666-5.167 23.166"/><path fill="none" stroke="#000" stroke-linecap="round" stroke-linejoin="round" stroke-miterlimit="10" stroke-width="2" d="M30.833 59.336s4.667 4 10.667 0M23.063 26.023s-1.375-6.438-7.188-8c-5.813-1.563-5.5-2.188-5.5-2.188m37.452 10.188s1.375-6.438 7.187-8 5.5-2.188 5.5-2.188"/></svg>