<svg viewBox="0 0 72 72" xmlns="http://www.w3.org/2000/svg"><circle cx="27.814" cy="32.086" r="3"/><circle cx="44.439" cy="32.086" r="3"/><path fill="none" stroke="#000" stroke-linecap="round" stroke-linejoin="round" stroke-miterlimit="10" stroke-width="2" d="M32.377 43.756s.75 2.584 3.75 2.917c3 .333 4-2.917 4-2.917"/><path fill="none" stroke="#000" stroke-linecap="round" stroke-linejoin="round" stroke-miterlimit="10" stroke-width="2" d="m36.127 46.673.125 4.333c1.629 1.046 2.572 1.51 5.041 1m-9.916 0c1.958.334 2.917 0 4.875-1m5.63 5.667c5.397 2.775 9.685 1.722 12.752-.243M11.03 44.478c-3.785-13.524 9.014-18.722 9.014-18.722-3-1-8.334-9.583-3.917-13.583s10.5 3.333 10.5 3.333 9.844-4.166 20.005 0c0 0 6.084-7.333 10.5-3.333s-.916 12.583-3.916 13.583c0 0 12.581 5.093 9.106 18.378M19.221 56.791c3.018 1.722 7.1 2.481 12.156-.118"/><path fill="none" stroke="#000" stroke-linecap="round" stroke-linejoin="round" stroke-miterlimit="10" stroke-width="2" d="M26.627 43.506s-17 2.667-19.75 11.75m20.5-8.029s-12.252 2.217-14.5 13.28m33.755-17.001s17 2.667 19.75 11.75m-20.5-8.029s11.743 3.78 14.5 13.28"/></svg>