<svg viewBox="0 0 72 72" xmlns="http://www.w3.org/2000/svg"><circle cx="28.602" cy="38.999" r="2"/><path fill="none" stroke="#000" stroke-linecap="round" stroke-linejoin="round" stroke-miterlimit="10" stroke-width="2" d="M35.968 49.135s-4.07 1.797-4.172-1.21m-5.819-29.03S18.29 7.27 11.04 12.082c-6.601 4.382-3.912 13.959.603 16.915"/><path fill="none" stroke="#000" stroke-linecap="round" stroke-linejoin="round" stroke-miterlimit="10" stroke-width="2" d="M21.04 57.582C5.102 51.27 13.19 33.57 13.19 33.57s3.644-9.359 9.34-11.609m28.536 35.621c15.938-6.312 7.85-24.013 7.85-24.013s-3.644-9.359-9.34-11.609"/><circle cx="43.334" cy="38.999" r="2"/><path fill="none" stroke="#000" stroke-linecap="round" stroke-linejoin="round" stroke-miterlimit="10" stroke-width="2" d="M44.657 51.531c-1.22 1.924-4.055 5.119-8.26 2.239h-.857c-4.206 2.88-7.04-.315-8.26-2.239m8.688-2.396s4.07 1.797 4.172-1.21m5.82-29.03s7.687-11.625 14.937-6.813c6.601 4.382 3.911 13.959-.603 16.915m-35.66-12.046s8.71-4.93 22.325 0M30.602 59.582c3.592 1.222 7.17 1.231 10.732 0m-5.366-10.447L36 53.77m7.938-7.934s7.369 1.613 7.413-4.207c.023-3.021-1.897-5.68-4.607-7.015-3.522-1.735-8.432-2.576-8.432 6.221m-10.055 5.001s-7.369 1.613-7.413-4.207c-.023-3.021 1.897-5.68 4.607-7.015 3.522-1.735 8.431-2.576 8.431 6.221"/></svg>