<svg viewBox="0 0 72 72" xmlns="http://www.w3.org/2000/svg"><g fill="none" stroke="#000" stroke-linecap="round" stroke-linejoin="round" stroke-miterlimit="10" stroke-width="2"><path d="M34.204 25.041a8.134 8.134 0 0 0-.134-.662c-1.012-4.017-4.87-6.507-8.62-5.563-3.749.944-5.968 4.966-4.956 8.982.056.221.123.436.196.647-1.153 1.179-1.692 2.968-1.237 4.772.674 2.678 3.247 4.338 5.746 3.709 1.684-.424 3.709-3.513 3.915-3.564.206-.052 3.453 1.708 5.136 1.284 2.5-.63 3.979-3.31 3.304-5.988-.454-1.804-1.776-3.125-3.35-3.617z"/><ellipse cx="19.013" cy="12.433" rx="2.688" ry="3.763" transform="rotate(-21.14 19.016 12.433)"/><ellipse cx="14.124" cy="21.55" rx="2.688" ry="3.763" transform="rotate(-34.045 14.122 21.549)"/><ellipse cx="36.132" cy="14.827" rx="3.763" ry="2.688" transform="rotate(-85.71 36.131 14.827)"/><ellipse cx="27.703" cy="10.244" rx="2.688" ry="3.763" transform="rotate(-8.389 27.699 10.246)"/><path d="M52.016 56.906c.077-.21.15-.423.211-.642 1.109-3.991-1.012-8.065-4.737-9.1-3.725-1.035-7.643 1.36-8.752 5.352-.061.22-.108.44-.15.659-1.586.453-2.939 1.742-3.437 3.534-.739 2.66.675 5.377 3.158 6.067 1.673.464 4.96-1.217 5.166-1.16s2.154 3.194 3.827 3.658c2.483.69 5.095-.907 5.835-3.568.498-1.792.003-3.594-1.121-4.8z"/><ellipse cx="45.056" cy="38.431" rx="3.763" ry="2.688" transform="rotate(-81.478 45.055 38.43)"/><ellipse cx="36.296" cy="43.934" rx="2.688" ry="3.763" transform="rotate(-4.365 36.292 43.913)"/><ellipse cx="58.746" cy="48.985" rx="3.763" ry="2.688" transform="rotate(-56.043 58.743 48.982)"/><ellipse cx="53.69" cy="40.83" rx="3.763" ry="2.688" transform="rotate(-68.715 53.691 40.83)"/></g></svg>