<svg viewBox="0 0 72 72" xmlns="http://www.w3.org/2000/svg"><g fill="none" stroke="#000" stroke-width="2"><path stroke-linecap="round" stroke-linejoin="round" d="M35.236 59.6h-9c-8.321 0-14-6.68-14-15 .02-4.799 1.8-9.424 5-13m17.389 0h-4.389l7-18c.811-2.083-2.79-3.8-5-1l-15 19m20.212 3.5a3.786 3.786 0 0 0 4 3.5h13a3.531 3.531 0 1 0 0-7h-13a3.786 3.786 0 0 0-4 3.5zm.857 21.337a3.786 3.786 0 0 0 4 3.5h7a3.531 3.531 0 1 0 0-7h-7a3.786 3.786 0 0 0-4 3.5zm-5.069-14a3.786 3.786 0 0 0 4 3.5h19a3.531 3.531 0 1 0 0-7h-19a3.786 3.786 0 0 0-4 3.5z"/><path stroke-linecap="round" stroke-linejoin="round" d="M35.236 49.437a3.786 3.786 0 0 0 4 3.5h15a3.531 3.531 0 1 0 0-7h-15a3.786 3.786 0 0 0-4 3.5z"/><path stroke-miterlimit="10" d="M14.136 36.263a19.457 19.457 0 0 0-1.906 7.839c0 8.56 4.625 15.5 15.125 15.5"/></g></svg>