<svg viewBox="0 0 72 72" xmlns="http://www.w3.org/2000/svg"><g fill="none" stroke="#000" stroke-width="2"><path stroke-linecap="round" stroke-linejoin="round" d="M17.236 40.316c-3.2-3.576-4.98-8.2-5-13 0-8.319 5.679-15 14-15h9m-18 28 15 19c2.21 2.8 5.811 1.084 5-1l-7-18h4.389m6.823 0h13a3.53 3.53 0 1 0 0-7h-13a3.786 3.786 0 0 0-4 3.5 3.786 3.786 0 0 0 4 3.5zm.857-21.336h7a3.53 3.53 0 1 0 0-7h-7a3.786 3.786 0 0 0-4 3.5 3.786 3.786 0 0 0 4 3.5zm-5.069 14h19a3.53 3.53 0 1 0 0-7h-19a3.786 3.786 0 0 0-4 3.5 3.786 3.786 0 0 0 4 3.5z"/><path stroke-linecap="round" stroke-linejoin="round" d="M39.236 25.98h15a3.53 3.53 0 1 0 0-7h-15a3.786 3.786 0 0 0-4 3.5 3.786 3.786 0 0 0 4 3.5z"/><path stroke-miterlimit="10" d="M27.355 12.315c-10.5 0-15.125 6.94-15.125 15.5.08 2.717.73 5.388 1.906 7.839"/></g></svg>