<svg viewBox="0 0 72 72" xmlns="http://www.w3.org/2000/svg"><g fill="none" stroke="#000" stroke-linecap="round" stroke-linejoin="round" stroke-miterlimit="10" stroke-width="2"><path d="M16.52 37.257V24.383c0-9.088 7.368-16.456 16.457-16.456s16.455 7.368 16.455 16.456M23.513 37.55a3.5 3.5 0 1 1-6.994-.293m13.991.526a3.5 3.5 0 1 1-6.994-.293"/><path d="M30.506 37.917a3.5 3.5 0 1 1-6.977-.561m14.019.905a3.5 3.5 0 0 1-6.986-.448m23.939-1.775a3.5 3.5 0 1 1-5.035 4.863m-4.918 19.733a3.5 3.5 0 1 1-7 0m0-22.336v22.336m7 0V32.843m2.96 5.844 1.958 2.214m3.268-7.183c-1.953-2.144-3.374-5.168-3.302-9.522m5.069 11.842-1.821-2.381"/></g></svg>