<svg viewBox="0 0 72 72" xmlns="http://www.w3.org/2000/svg"><g fill="none" stroke="#000" stroke-linecap="round" stroke-linejoin="round" stroke-miterlimit="10" stroke-width="2"><path d="M55.48 47.647c0 9.089-7.368 16.456-16.457 16.456s-16.455-7.367-16.455-16.456m32.911-.873v-12m-6.992-.294a3.5 3.5 0 1 1 6.994.294m-13.991-.526a3.5 3.5 0 1 1 6.994.293"/><path d="M41.494 34.114a3.5 3.5 0 1 1 6.977.56m-14.019-.904a3.5 3.5 0 0 1 6.986.447m-23.939 1.776a3.5 3.5 0 1 1 5.035-4.863m4.918-19.733a3.5 3.5 0 1 1 7 0m0 22.335V11.397m-7 0v27.791m-2.96-5.845-1.958-2.213m-3.268 7.183c1.953 2.143 3.374 5.167 3.302 9.521m-5.069-11.841 1.821 2.38"/></g></svg>