<svg viewBox="0 0 72 72" xmlns="http://www.w3.org/2000/svg"><g fill="none" stroke="#000" stroke-linecap="round" stroke-linejoin="round" stroke-width="2"><path d="M15.458 50.2v-8.14a3.52 3.52 0 0 1 3.04-3.96 3.526 3.526 0 0 1 3.96 3.96v5.392m34.003-8.276a19.53 19.53 0 0 1 1.085 6.456c0 11.084-8.986 20.07-20.07 20.07-5.056.264-11.122-2.475-15.508-5.806-1.903-1.86-3.746-3.654-4.927-5.05-.8-.6-1.424-2.462-1.512-4.423"/><path d="M33.681 42.216c-1.325 3.837-1.248 6.124-3.299 7.182-3.912-1.38-7.924-1.946-7.924-1.946M28.03 35.11l-8.88 1.3a3.52 3.52 0 0 1-4.34-2.48 3.53 3.53 0 0 1 2.48-4.33c.3-.08.61-.12.93-.12l10.08-1.47c.65-.12 1.28-.08 1.87.11m3.511 14.096L28.03 35.11m2.14-6.99c.7.1 1.37.4 1.92.91.23.21.43.45.59.72l6.27 7.432m-7.558-13.035L26.06 15.01a3.524 3.524 0 0 1 .68-4.94 3.536 3.536 0 0 1 4.95.67c.16.21 8.11 13.57 10.71 17.93v.01m8.06 2.511c-1.42-5.66-5.64-21.641-5.73-21.871a3.529 3.529 0 0 0-4.54-2.08 3.538 3.538 0 0 0-2.07 4.55l1.713 6.755m9.917-.575a3.528 3.528 0 0 1 3.17-3.86 3.534 3.534 0 0 1 3.86 3.17c.03.31-.3 21.34-.3 21.34 0 .19 0 .37-.03.55M41.825 27.792l3.581 5.655"/></g></svg>