<svg viewBox="0 0 72 72" xmlns="http://www.w3.org/2000/svg"><g fill="none" stroke="#000" stroke-linecap="round" stroke-linejoin="round" stroke-miterlimit="10" stroke-width="2.434"><path d="M8.167 34.6c4.981 1.66 6.255 1.889 14.07.177M63.83 34.6c-4.981 1.66-6.255 1.889-14.07.177"/><path d="M8.167 34.6c4.981 1.66 6.255 1.889 14.07.177"/><path d="m8.167 34.6 14.91 14.25c2.51 2.434 5.782 4.487 12.93 4.487s10.42-2.053 12.93-4.487l14.91-14.25m-55.68 0c4.525-2.941 9.886-9.214 15.56-14.2 1.318-1.16 2.902-2.548 5.805-1.16l3.821 2.034c.881.51 1.182.684 2.643.684s1.761-.174 2.643-.684l3.821-2.034c2.902-1.388 4.487 0 5.805 1.16 5.678 4.981 11.04 11.25 15.56 14.2"/><path d="M63.83 34.6c-4.981 1.66-6.255 1.889-14.07.177M36 39.03c-7.608 0-9.715-4.867-13.76-4.259 6.711-5.057 10.4-.608 13.76-.608s7.053-4.45 13.76.608c-4.049-.608-6.156 4.259-13.76 4.259z"/></g></svg>