<svg viewBox="0 0 72 72" xmlns="http://www.w3.org/2000/svg"><g fill="none" stroke="#000" stroke-linecap="round" stroke-linejoin="round" stroke-width="2"><path d="M41.94 37.24v7.074a4.59 4.59 0 0 0 3.936 5.156 4.584 4.584 0 0 0 5.148-5.155v-20.48c.334-2.512-1.429-4.82-3.937-5.156s-4.813 1.43-5.148 3.942v1.301c.335-2.512-1.428-4.82-3.936-5.156s-4.813 1.43-5.148 3.942v2.427c.335-2.512-1.428-4.82-3.936-5.156s-4.813 1.43-5.148 3.942c-.026.875-.024 1.613-.08 2.513.334-2.512-1.428-4.82-3.936-5.156s-4.813 1.43-5.148 3.942a5.6 5.6 0 0 0-.02 1.214l.02 11.19a4.59 4.59 0 0 0 3.936 5.156 4.584 4.584 0 0 0 5.148-5.155v-1.341l.04-3.517-.04 11.27c-.335 2.512 1.428 4.82 3.936 5.156s4.813-1.43 5.148-3.942c.054-.403.054-3.548 0-3.951v-5.012l-.04-4.248.04 14.6a4.589 4.589 0 0 0 3.936 5.156 4.584 4.584 0 0 0 5.148-5.155l.08-15.82zm15.49 14.84a5.594 5.594 0 0 1-5.497 5.19h-12.98m18.477-5.19V33.52"/><path stroke-miterlimit="10" d="M38.95 57.27c-2.625 0-7.445.615-7.445-3.105M57.43 33.52c0-1.938 0-4.201-2.049-4.201"/></g></svg>