<svg viewBox="0 0 72 72" xmlns="http://www.w3.org/2000/svg"><g fill="none" stroke="#000" stroke-linecap="round" stroke-linejoin="round" stroke-miterlimit="10" stroke-width="2"><path d="M24.368 55.495c-9.088 0-16.456-7.368-16.456-16.456s7.368-16.456 16.456-16.456m.873 32.912h12.001m.293-6.993a3.5 3.5 0 1 1-.293 6.994m.526-13.991a3.5 3.5 0 1 1-.294 6.994"/><path d="M37.902 41.51a3.5 3.5 0 1 1-.562 6.977m.906-14.019a3.5 3.5 0 0 1-.448 6.985m-1.776-23.939a3.5 3.5 0 1 1 4.863 5.035m19.733 4.919a3.5 3.5 0 1 1 0 7m-22.335 0h22.335m0-7h-27.79m5.844-2.961 2.214-1.958m-7.183-3.267c-2.144 1.952-5.168 3.373-9.522 3.3m11.841-5.068-2.38 1.821"/></g></svg>