<svg viewBox="0 0 72 72" xmlns="http://www.w3.org/2000/svg"><g fill="none" stroke="#000" stroke-linecap="round" stroke-linejoin="round" stroke-miterlimit="10" stroke-width="2"><path d="M26.125 19.625C30.75 2.083 61 7.875 49.688 35.958c-14.592 35.792-31.876 25-28.813 13.323"/><path d="M35.103 28c4.439 7 7.397 13.542 1.397 16.25-1.397.574-2.877.413-4.382 1.173-1.535.723-1.82 1.327-3.639 3.285-2.562 2.063-5.77-1.546-3.958-3.687 3.073-3.396 6.448-3.927 4.667-7.209-1.22-2.204-.407-5.28 3.5-4.156m-3.006-9.718c3.974-15.875 24.832-10.259 15.24 11.118"/></g></svg>