<svg viewBox="0 0 72 72" xmlns="http://www.w3.org/2000/svg"><g fill="none" stroke="#000" stroke-linecap="round" stroke-linejoin="round" stroke-miterlimit="10"><path stroke-width="2.096" d="m56.588 17.04 7.79 7.79s-1.83 3.292-7.755 5.417M16.412 17.04l-7.79 7.79s1.83 3.292 7.755 5.417"/><path stroke-width="2.096" d="M36.377 60.958h-20S20.285 53.697 20.285 39s-3.908-21.96-3.908-21.96h9.89c0 6.082 5.336 6.603 5.336 6.603l4.774 10.205h.245l4.775-10.205s5.336-.521 5.336-6.603h9.89s-3.91 7.262-3.91 21.96 3.908 21.958 3.908 21.958h-20"/><path stroke-width="2" d="M43.798 17c0 1.377-3.213 2.494-7.175 2.494S29.447 18.378 29.447 17"/></g></svg>