<svg viewBox="0 0 72 72" xmlns="http://www.w3.org/2000/svg"><path d="M39.66 33.44s6.605 3.51 14.22 0c-.046-8.313-6.972-12.73-6.972-12.73s-7.2 4.414-7.245 12.73zm-21.54 0s6.605 3.51 14.22 0c-.046-8.313-6.972-12.73-6.972-12.73s-7.2 4.414-7.245 12.73zm16.51-.35 2.74.01M25.23 11.77v8.4m21.54-8.16v8.7M35.76 42.86H18.6v2.445s7.12 2.194 11.2 6.873c4.082 4.68 5.957 8.172 5.957 8.172h.064s1.332-3.312 5.414-7.99c4.082-4.68 12.17-7.055 12.17-7.055V42.86h-17.59" fill="none" stroke="#000" stroke-linecap="round" stroke-linejoin="round" stroke-miterlimit="10" stroke-width="2"/></svg>