<svg viewBox="0 0 72 72" xmlns="http://www.w3.org/2000/svg"><g fill="none" stroke="#000" stroke-linecap="round" stroke-linejoin="round" stroke-miterlimit="10" stroke-width="2"><path d="M36 27.893H18.294C18.294 38.84 11 41.936 11 49s11.193 12.3 25 12.3S61 56.063 61 49s-7.294-10.159-7.294-21.106H36z"/><path d="M14.537 28.893V24.42s11.726-1 21.463-1 21.478 1 21.478 1v4.474m-38.779-8.532h6.254l3.402-2.966m21.746 2.966h-6.254l-1.7-1.483"/><circle cx="33.012" cy="13.702" r="3"/><path d="M38.522 12a3 3 0 0 1-1.661 5.766M36 27.893H18.294C18.294 38.84 11 41.936 11 49s11.193 12.3 25 12.3S61 56.063 61 49s-7.294-10.159-7.294-21.106H36z"/></g></svg>