<svg viewBox="0 0 72 72" xmlns="http://www.w3.org/2000/svg"><circle cx="20.002" cy="21.83" r="1"/><circle cx="20.002" cy="25.568" r="1"/><circle cx="18.133" cy="23.699" r="1"/><circle cx="21.87" cy="23.699" r="1"/><circle cx="54.893" cy="22.83" r="1"/><circle cx="54.893" cy="26.568" r="1"/><circle cx="53.024" cy="24.699" r="1"/><circle cx="56.762" cy="24.699" r="1"/><circle cx="40.581" cy="52.283" r="1"/><circle cx="40.581" cy="56.021" r="1"/><circle cx="38.712" cy="54.152" r="1"/><circle cx="42.45" cy="54.152" r="1"/><circle cx="16.529" cy="28.436" r="1"/><circle cx="16.529" cy="32.174" r="1"/><circle cx="14.66" cy="30.305" r="1"/><circle cx="18.397" cy="30.305" r="1"/><g fill="none" stroke="#000" stroke-linecap="round" stroke-linejoin="round" stroke-width="2"><path d="M46.499 30.439s.956 24.37-.597 29.388c0 0-1.645 1.131-9.902 1.131h-.029c-8.232-.002-9.872-1.131-9.872-1.131-1.553-5.018-.598-29.388-.598-29.388"/><path d="M21.87 43.46H11V22.377a3.13 3.13 0 0 1 2.235-3l15.916-4.752a1.97 1.97 0 0 0 1.044-.75l1.495-2.112a1.905 1.905 0 0 1 1.555-.805h5.51a1.905 1.905 0 0 1 1.555.805l1.496 2.113a1.97 1.97 0 0 0 1.043.749l15.917 4.753a3.13 3.13 0 0 1 2.234 3V43.46H50.364"/><path d="M28.843 15.227s3.6 6.643 7.468 9.877"/><path d="M42.937 15.007s-1.927 6.786-13.435 16.76"/><path d="M25.41 33.129c1.08-.49 10.973-4.713 21.12.045m.252 8.804s-10.59 5.041-21.468 0m0-4.404H46.53"/></g></svg>