<svg viewBox="0 0 72 72" xmlns="http://www.w3.org/2000/svg"><g fill="none" stroke="#000" stroke-linecap="round" stroke-linejoin="round" stroke-miterlimit="10" stroke-width="2"><path d="M7 52.06c-2.248-1.852-3-8.255-3-11.396 0-2.79 1.13-10.315 2.959-12.143 0 0 2.658-1.132 4.041 0 4.529 3.71 13.658 12.215 25.004 0 0 0 17.578 8.342 22.32 9.546 8.143 2.067 8.417 4.12 8.417 6.822 0 8.652-10.084 7.54-16.81 7.172-3.707-.203-38.801.225-42.931 0"/><path d="M8 46.816s15.134-2.46 24.496.11 28.345 1.23 28.345 1.23M40.442 35.958l-5.072 5.938m10.156-4.135-3.532 4.135"/><path d="M7 52.06c-2.248-1.852-3-8.255-3-11.396 0-2.79 1.13-10.315 2.959-12.143 0 0 2.658-1.132 4.041 0 4.529 3.71 13.658 12.215 25.004 0 0 0 17.578 8.342 22.32 9.546 8.143 2.067 8.417 4.12 8.417 6.822 0 8.652-10.084 7.54-16.81 7.172-3.707-.203-38.801.225-42.931 0"/></g></svg>