<svg viewBox="0 0 72 72" xmlns="http://www.w3.org/2000/svg"><g fill="none" stroke="#000" stroke-linecap="round" stroke-linejoin="round" stroke-miterlimit="10"><path stroke-width="2" d="M30.699 41.712c-2.246 3.325-7.05 5.511-11.365 5.511-6.904 0-12.5-5.596-12.5-12.5l-.105-4.914-1.895.05v-4.127s18.931-16.179 29.48 5.321h6.424c10.549-21.5 29.48-5.321 29.48-5.321v4.127l-1.895-.05-.105 4.914c0 6.904-5.596 12.5-12.5 12.5-4.314 0-9.119-2.186-11.365-5.51"/><path stroke-width="2" d="M34.761 37.706a3 3 0 1 1 6 0"/><circle cx="19.766" cy="33.558" r="9.58" stroke-width="1.846"/><circle cx="55.286" cy="33.558" r="9.58" stroke-width="1.846"/></g></svg>