<svg viewBox="0 0 72 72" xmlns="http://www.w3.org/2000/svg"><path fill="none" stroke="#000" stroke-miterlimit="10" stroke-width="2" d="M31.5 25.569v.644c0 5.7-3.586 10.39-8 10.39s-8-4.69-8-10.39v-.644"/><path fill="none" stroke="#000" stroke-linecap="round" stroke-linejoin="round" stroke-width="2" d="M13.929 21.39c.533-7.734 6.4-7.823 9.335-7.379.266.09 1.067 0 1.333 0 5.334-.711 8.002 5.334 8.002 8.002 0 .978.225 3.365-1.108 4.699 0 0-3.249-3.721-3.427-5.855 0 0-10.135 3.823-10.846.533 0 0-.711 2.667-1.334 3.379 0 0-.328 2.044-.328 2.667 0 0-1.894-2.667-1.627-6.046z"/><path d="M22.25 26.5c0 .714-.536 1.25-1.25 1.25s-1.25-.536-1.25-1.25.536-1.25 1.25-1.25 1.25.536 1.25 1.25m5 0c0 .714-.536 1.25-1.25 1.25s-1.25-.536-1.25-1.25.536-1.25 1.25-1.25 1.25.536 1.25 1.25"/><path fill="none" stroke="#000" stroke-linecap="round" stroke-linejoin="round" stroke-width="2" d="M21.633 31.533a3.968 3.968 0 0 0 3.734 0"/><path d="M54.098 45.702a.9.9 0 1 1-.898-.84.87.87 0 0 1 .898.84z"/><path fill="none" stroke="#000" stroke-linecap="round" stroke-linejoin="round" stroke-width="1.6" d="M50.164 49.186a2.093 2.093 0 0 0 2.672 0"/><path fill="none" stroke="#000" stroke-miterlimit="10" stroke-width="1.6" d="M57.044 48.407c-.814 2.827-3 4.422-5.544 4.422-2.544 0-4.73-1.595-5.544-4.422"/><path d="M49.8 44.862a.9.9 0 1 1-.898.84.87.87 0 0 1 .898-.84z"/><path fill="none" stroke="#000" stroke-linecap="round" stroke-linejoin="round" stroke-width="1.6" d="M23 60.2v-1.733C23 56 25.502 54 28.004 54c2.975 2.467 5.95 2.467 8.992 0C39.498 54 42 56 42 58.467V60.2m0 0v-1.733C42 56 44.502 54 47.004 54c2.975 2.467 5.95 2.467 8.993 0C58.499 54 61 56 61 58.467V60.2"/><path d="M35.098 45.702a.9.9 0 1 1-.898-.84.87.87 0 0 1 .898.84z"/><path fill="none" stroke="#000" stroke-linecap="round" stroke-linejoin="round" stroke-width="1.6" d="M31.164 49.186a2.093 2.093 0 0 0 2.672 0"/><path fill="none" stroke="#000" stroke-miterlimit="10" stroke-width="1.6" d="M38.044 48.407c-.814 2.827-3 4.422-5.544 4.422-2.544 0-4.73-1.595-5.544-4.422"/><path d="M30.8 44.862a.9.9 0 1 1-.898.84.87.87 0 0 1 .898-.84z"/><path fill="none" stroke="#000" stroke-linecap="round" stroke-linejoin="round" stroke-width="1.6" d="M32.5 40.704c3.864 1.37 5.567 5.827 5.694 9.63 1.423.308 2.883-.39 3.806-1.46a7.198 7.198 0 0 1-2.15-3.136c.737-5.725-2.03-9.58-7.35-8.486-5.32-1.093-8.088 2.76-7.35 8.486A7.198 7.198 0 0 1 23 48.873c.923 1.072 2.383 1.77 3.806 1.461.127-3.803 1.83-8.26 5.694-9.63zm19 0c3.864 1.37 5.567 5.827 5.695 9.63 1.422.308 2.882-.39 3.805-1.46a7.198 7.198 0 0 1-2.15-3.136c.738-5.725-2.03-9.58-7.35-8.486-5.32-1.093-8.087 2.76-7.35 8.486A7.198 7.198 0 0 1 42 48.873c.923 1.072 2.384 1.77 3.806 1.461.127-3.803 1.83-8.26 5.694-9.63z"/><path fill="none" stroke="#000" stroke-linecap="round" stroke-linejoin="round" stroke-miterlimit="10" stroke-width="2" d="M11 60V44.955C11 41.665 14.292 39 17.584 39c1.491 1.253 2.983 2.029 4.479 2.327"/></svg>