<svg viewBox="0 0 72 72" xmlns="http://www.w3.org/2000/svg"><path d="M49.361 55.995a2 2 0 1 1-2-2 2 2 0 0 1 2 2"/><path fill="none" stroke="#000" stroke-linecap="round" stroke-linejoin="round" stroke-width="2" d="M16.958 58.675s-2-13 10-13c3.16 2.09 5.86 3.55 8.88 3.59h.12c2.96-.04 5.63-1.44 8.7-3.47l.18-.12c12 0 10 13 10 13"/><path fill="none" stroke="#000" stroke-linecap="round" stroke-linejoin="round" stroke-width="2" d="m26.958 45.675 3.75 8.88 2.56-2.64 2.57-2.65m2.55 2.62-2.55-2.62m8.87-3.59-.05.12-3.69 8.76-2.58-2.66m-4.96.17c.14 1.5.72 3.01 2.47 3.01 1.83 0 2.38-1.62 2.49-3.18v-.01m-3.34 3.19-2.41 3.6m4.11-3.6 2.42 3.6"/><path d="M26.963 58.129h-5.845a1 1 0 0 1 0-2h5.845a1 1 0 1 1 0 2zm13.01-32.314a2 2 0 1 1-2 2 2 2 0 0 1 2-2zm-8 0a2 2 0 1 1-2 2 2 2 0 0 1 2-2zm4.049 12.005a7.652 7.652 0 0 1-3.447-.857 1 1 0 1 1 .895-1.79 5.378 5.378 0 0 0 5.105 0 1 1 0 1 1 .895 1.79 7.653 7.653 0 0 1-3.448.858z"/><path d="M36.023 44.352c-6.417 0-11.699-5.915-12.287-13.76l1.994-.15c.501 6.68 5.022 11.91 10.292 11.91 5.258 0 9.673-5.013 10.272-11.662.045-.5.067-1.008.067-1.51h2c0 .56-.025 1.13-.075 1.689-.692 7.687-5.964 13.483-12.264 13.483zm.07-25.796c-2.935 0-3.476-4.334-3.528-4.829a1 1 0 0 1 .38-.894 5.13 5.13 0 0 1 6.319.137 1.002 1.002 0 0 1 .292.799c-.044.49-.51 4.782-3.458 4.787zm0-2 .003 1-.002-1c.754 0 1.212-1.458 1.391-2.42a3.408 3.408 0 0 0-2.835-.02c.22 1.071.733 2.44 1.443 2.44zm.205 7.903c-4.697 0-9.207-1.529-11.67-3.995a1 1 0 0 1 .709-1.707h21.068a1 1 0 0 1 .762 1.648c-2.031 2.392-5.679 3.863-10.006 4.037q-.432.017-.863.017zm-7.824-3.702a17.99 17.99 0 0 0 8.607 1.686 14.34 14.34 0 0 0 6.538-1.686z"/><path d="M47.732 24.46a1 1 0 0 1-.77-1.637l2.248-2.72a3.63 3.63 0 0 0 .809-1.943 12.222 12.222 0 0 1-5.64-3.84c-1.982-2.032-3.854-3.951-8.313-3.951s-6.332 1.919-8.313 3.95a12.224 12.224 0 0 1-5.64 3.84 3.645 3.645 0 0 0 .809 1.943l2.011 2.434a1 1 0 0 1-1.54 1.275l-2.011-2.435c-.672-.813-1.58-2.594-1.156-3.915a1.775 1.775 0 0 1 1.271-1.207c2.126-.564 3.437-1.908 4.825-3.33 2.082-2.136 4.443-4.556 9.745-4.556s7.662 2.42 9.744 4.555c1.39 1.423 2.7 2.767 4.826 3.331a1.772 1.772 0 0 1 1.271 1.208c.424 1.322-.484 3.103-1.156 3.915l-2.248 2.72a.997.997 0 0 1-.772.363z"/><path d="M24.55 32.078a1 1 0 0 1-.784-.38 7.286 7.286 0 0 1-1.777-5.695 8.626 8.626 0 0 1 3.406-5.25 1 1 0 0 1 1.137 1.646 6.675 6.675 0 0 0-2.568 3.915 4.638 4.638 0 0 0 .458 2.703 12.774 12.774 0 0 1 9.429-6.545.988.988 0 0 1 1.13.85 1 1 0 0 1-.85 1.13 11.195 11.195 0 0 0-8.636 6.951.999.999 0 0 1-.777.66.983.983 0 0 1-.168.015zm22.54 0a1 1 0 0 1-.946-.679c-1.004-2.96-3.26-7.403-4.913-7.541a1 1 0 0 1 .165-1.993c2.675.222 4.81 4.33 5.909 6.963a4.566 4.566 0 0 0 .372-2.513 6.676 6.676 0 0 0-2.568-3.916 1 1 0 0 1 1.137-1.645 8.626 8.626 0 0 1 3.406 5.25 7.286 7.286 0 0 1-1.777 5.694 1 1 0 0 1-.784.38z"/></svg>