<svg viewBox="0 0 72 72" xmlns="http://www.w3.org/2000/svg"><path d="M41.929 27.064a2 2 0 1 1-4.002-.002 2 2 0 0 1 4.002.002m-8 0a2 2 0 1 1-4.002-.002 2 2 0 0 1 4.002.002m2 10.002c-1.152 0-2.304-.286-3.447-.858a1 1 0 1 1 .894-1.789c1.718.86 3.388.86 5.106 0a1 1 0 0 1 .894 1.79c-1.143.571-2.295.857-3.447.857zm18.817 21.849a1 1 0 0 1-.99-1.15c.009-.057.827-5.74-2.129-9.177-1.476-1.715-3.69-2.612-6.586-2.67-3.31 2.187-6.028 3.547-9.126 3.59-.021.002-.043 0-.064 0h-.153c-3.1-.043-5.816-1.403-9.126-3.59-2.896.058-5.11.955-6.586 2.67-2.956 3.436-2.137 9.12-2.129 9.178a1 1 0 0 1-.837 1.138 1.008 1.008 0 0 1-1.14-.836c-.04-.27-.972-6.633 2.582-10.775 1.923-2.241 4.75-3.377 8.407-3.377a1 1 0 0 1 .555.168c3.153 2.102 5.66 3.41 8.383 3.425 2.721-.014 5.228-1.323 8.383-3.425a1 1 0 0 1 .554-.168c3.656 0 6.485 1.136 8.407 3.377 3.554 4.143 2.622 10.506 2.581 10.775a.999.999 0 0 1-.986.847zM21.3 21.113a1 1 0 0 1-1-1v-8.121a1 1 0 1 1 2 0v8.121a1 1 0 0 1-1 1z"/><path d="M19.273 23.693a1 1 0 0 1-.786-1.618l2.027-2.58a1 1 0 0 1 1.572 1.235l-2.026 2.58a.998.998 0 0 1-.787.383z"/><path d="M21.3 25.213a1 1 0 0 1-1-1v-4.1a1 1 0 1 1 2 0v4.1a1 1 0 0 1-1 1z"/><path d="M20.321 44.066a1 1 0 0 1-.902-.567c-.226-.47-.424-.948-.589-1.422-2.978-8.564 4.26-18.812 6.639-22.18l.166-.235a1 1 0 0 1 1.634 1.152l-.166.237c-2.233 3.16-9.025 12.776-6.384 20.369.14.402.31.81.503 1.214a1 1 0 0 1-.9 1.432zm31.215 0a1 1 0 0 1-.9-1.433c.193-.403.362-.81.503-1.214 2.64-7.592-4.152-17.208-6.384-20.368l-.167-.237a1 1 0 1 1 1.635-1.152l.166.235c2.379 3.368 9.617 13.616 6.638 22.18-.165.474-.363.952-.589 1.422a1 1 0 0 1-.902.567z"/><path d="M24.62 28.628a1 1 0 0 1-.487-1.872l.015-.008c4.172-2.265 4.172-2.265 8.157-6.322l1.458 1.37c-4.187 4.263-4.267 4.325-8.661 6.71a1.009 1.009 0 0 1-.482.122zm22.627.007a.99.99 0 0 1-.475-.121c-.182-.099-4.5-2.464-8.677-6.718a1 1 0 0 1 1.428-1.401c3.968 4.042 8.16 6.338 8.202 6.36a1 1 0 0 1-.478 1.88z"/><path d="M35.929 43.598c-7.15 0-12.34-6.62-12.34-15.74a1 1 0 1 1 2 0c0 7.961 4.348 13.74 10.34 13.74 5.7 0 10.339-5.91 10.339-13.174 0-.25-.006-.498-.017-.744a1 1 0 0 1 .954-1.044c.54-.012 1.019.402 1.044.954.013.277.019.555.019.834 0 8.367-5.536 15.174-12.34 15.174z"/><path fill="none" stroke="#000" stroke-linecap="round" stroke-linejoin="round" stroke-miterlimit="10" stroke-width="2" d="m21.299 11.761 5.44.53 9.07.89 9.31-.91 5.19-.51"/><path fill="none" stroke="#000" stroke-linecap="round" stroke-linejoin="round" stroke-miterlimit="10" stroke-width="2" d="M26.739 11.761v8.48s6.72-.27 9.19 2.63m9.19-11.11v8.48s-6.72-.27-9.19 2.63m14.38-11.11-15.13-2.52-13.88 2.52"/></svg>