<svg viewBox="0 0 72 72" xmlns="http://www.w3.org/2000/svg"><path fill="none" stroke="#000" stroke-miterlimit="10" stroke-width="2" d="M31.5 25.569v.644c0 5.7-3.586 10.39-8 10.39s-8-4.69-8-10.39v-.644"/><path fill="none" stroke="#000" stroke-linecap="round" stroke-linejoin="round" stroke-width="2" d="M13.929 21.39c.533-7.734 6.4-7.823 9.335-7.379.266.09 1.067 0 1.333 0 5.334-.711 8.002 5.334 8.002 8.002 0 .978.225 3.365-1.108 4.699 0 0-3.249-3.721-3.427-5.855 0 0-10.135 3.823-10.846.533 0 0-.711 2.667-1.334 3.379 0 0-.328 2.044-.328 2.667 0 0-1.894-2.667-1.627-6.046z"/><path fill="none" stroke="#000" stroke-linecap="round" stroke-linejoin="round" stroke-miterlimit="10" stroke-width="2" d="M46.257 41.119c2.697.848 5.407.141 8.16-2.12 3.291 0 6.583 2.667 6.583 5.956V60m-50 0V44.955C11 41.665 14.292 39 17.584 39c2.682 2.253 5.364 2.963 8.075 2.128"/><path fill="none" stroke="#000" stroke-linecap="round" stroke-linejoin="round" stroke-width="2" d="M46.633 31.533a3.968 3.968 0 0 0 3.734 0"/><path d="M22.25 26.5c0 .714-.536 1.25-1.25 1.25s-1.25-.536-1.25-1.25.536-1.25 1.25-1.25 1.25.536 1.25 1.25m5 0c0 .714-.536 1.25-1.25 1.25s-1.25-.536-1.25-1.25.536-1.25 1.25-1.25 1.25.536 1.25 1.25"/><path fill="none" stroke="#000" stroke-linecap="round" stroke-linejoin="round" stroke-width="2" d="M21.633 31.533a3.968 3.968 0 0 0 3.734 0"/><path fill="none" stroke="#000" stroke-miterlimit="10" stroke-width="2" d="M56.5 25.569v.644c0 5.7-3.586 10.39-8 10.39s-8-4.69-8-10.39v-.644"/><path fill="none" stroke="#000" stroke-linecap="round" stroke-linejoin="round" stroke-width="2" d="M56.444 27.436c0-.623-.328-2.667-.328-2.667-.623-.712-1.334-3.379-1.334-3.379-.711 3.29-10.846-.533-10.846-.533-.178 2.134-3.426 5.855-3.426 5.855-1.334-1.334-1.109-3.721-1.109-4.7 0-2.667 2.668-8.712 8.002-8 .267 0 1.067.088 1.333 0 2.934-.445 8.802-.356 9.335 7.378.267 3.379-1.627 6.046-1.627 6.046z"/><path d="M49.75 26.5c0-.714.536-1.25 1.25-1.25s1.25.536 1.25 1.25-.536 1.25-1.25 1.25-1.25-.536-1.25-1.25m-5 0c0-.714.536-1.25 1.25-1.25s1.25.536 1.25 1.25-.536 1.25-1.25 1.25-1.25-.536-1.25-1.25"/><path fill="none" stroke="#000" stroke-linecap="round" stroke-linejoin="round" stroke-width="1.6" d="M26.5 60.2v-1.733C26.5 56 29.002 54 31.504 54c2.975 2.467 5.95 2.467 8.993 0 2.502 0 5.003 2 5.003 4.467V60.2"/><path d="M38.598 45.702a.9.9 0 1 1-.898-.84.87.87 0 0 1 .898.84z"/><path fill="none" stroke="#000" stroke-linecap="round" stroke-linejoin="round" stroke-width="1.6" d="M34.664 49.186a2.093 2.093 0 0 0 2.672 0"/><path fill="none" stroke="#000" stroke-miterlimit="10" stroke-width="1.6" d="M41.544 48.407c-.814 2.827-3 4.422-5.544 4.422-2.543 0-4.73-1.595-5.544-4.422"/><path d="M34.3 44.862a.9.9 0 1 1-.898.84.87.87 0 0 1 .898-.84z"/><path fill="none" stroke="#000" stroke-linecap="round" stroke-linejoin="round" stroke-width="1.6" d="M36 40.704c3.864 1.37 5.567 5.827 5.695 9.63 1.422.308 2.882-.39 3.805-1.46a7.198 7.198 0 0 1-2.15-3.136c.738-5.725-2.03-9.58-7.35-8.486-5.32-1.093-8.087 2.76-7.35 8.486a7.198 7.198 0 0 1-2.15 3.135c.923 1.072 2.384 1.77 3.806 1.461.127-3.803 1.83-8.26 5.694-9.63z"/></svg>