<svg viewBox="0 0 72 72" xmlns="http://www.w3.org/2000/svg"><path d="M25.33 15.91c-.53.64-.99 1.32-1.39 2H11.83V50.2h2.06c.55 0 1 .44 1 1 0 .55-.45 1-1 1h-3.06c-.55 0-1-.45-1-1V16.91c0-.55.45-1 1-1h14.5zm36.44 1V51.2c0 .55-.45 1-1 1h-2.59c-.55 0-1-.45-1-1 0-.56.45-1 1-1h1.59V17.91h-12.4c-.38-.77-.8-1.44-1.25-2h14.65c.55 0 1 .45 1 1zM41.972 27.148a2 2 0 1 1-4.001-.001 2 2 0 0 1 4.001.001m-8 0a2 2 0 1 1-4.001-.001 2 2 0 0 1 4.001.001m2 10.002c-1.152 0-2.304-.286-3.447-.857a1 1 0 1 1 .895-1.79c1.717.86 3.387.86 5.105 0a1 1 0 0 1 .895 1.79c-1.144.572-2.296.858-3.448.858z"/><path d="M35.973 43.683c-6.804 0-12.34-6.807-12.34-15.174 0-1.684.223-3.34.66-4.919l1.929.535a16.363 16.363 0 0 0-.588 4.384c0 7.264 4.638 13.174 10.339 13.174 5.7 0 10.338-5.91 10.338-13.174a16.236 16.236 0 0 0-.588-4.384l1.927-.533c.123.446.232.901.322 1.365.224 1.159.339 2.353.339 3.552 0 8.367-5.536 15.174-12.338 15.174z"/><path d="M41.395 32.336H39.39a3.822 3.822 0 0 1-3.482-2.253 3.822 3.822 0 0 1-3.481 2.253H30.42a3.82 3.82 0 0 1-3.816-3.816v-1.238h-1.828a1 1 0 1 1 0-2h2.827a1 1 0 0 1 1 1v2.238c0 1.002.815 1.816 1.817 1.816h2.007a1.818 1.818 0 0 0 1.816-1.816v-1.104a1 1 0 0 1 1-1h1.33a1 1 0 0 1 1 1v1.104c0 1.002.815 1.816 1.817 1.816h2.007a1.818 1.818 0 0 0 1.816-1.816v-2.238a1 1 0 0 1 1-1h2.957a1 1 0 1 1 0 2h-1.957v1.238a3.82 3.82 0 0 1-3.817 3.816zm5.29-7.477a.982.982 0 0 1-.118-.007c-4.886-.57-7.24-3.26-8.236-4.892-1.908 1.488-6.407 4.387-12.991 4.896a.994.994 0 0 1-1.074-.92 1 1 0 0 1 .92-1.074c8.02-.62 12.72-5.156 12.766-5.202a1 1 0 0 1 1.648.392c.058.164 1.527 4.152 7.2 4.814a1 1 0 0 1-.115 1.993z"/><path d="M51.62 42.79c-.06.55-.54.95-1.11.89-.54-.06-.94-.56-.88-1.11.63-5.68.71-11.74.22-15.82-.42-3.45-1.31-6.56-2.48-8.84-.38-.77-.8-1.44-1.25-2a7.78 7.78 0 0 0-.77-.83c-2.16-1.97-4.84-.4-4.86-.38-.43.26-.99.16-1.3-.24-.18-.22-4.54-5.48-10.76-1.39-1.23.8-2.25 1.78-3.1 2.84-.53.64-.99 1.32-1.39 2-2.49 4.2-2.89 8.74-2.9 8.8-.01.1-.76 7.2.59 15.82.08.54-.29 1.06-.84 1.14-.05.01-.1.01-.15.01a1 1 0 0 1-.99-.84c-1.39-8.89-.63-16.02-.6-16.32.02-.24.37-4.38 2.58-8.61.34-.67.74-1.34 1.19-2 1.13-1.67 2.6-3.26 4.51-4.51 6.35-4.17 11.26-.35 12.86 1.22 1.6-.66 4.29-1.03 6.5.98.67.6 1.29 1.38 1.86 2.31.37.6.72 1.27 1.05 2 1.05 2.37 1.84 5.33 2.23 8.6.52 4.22.43 10.46-.21 16.28z"/><path fill="none" stroke="#000" stroke-linecap="round" stroke-linejoin="round" stroke-miterlimit="10" stroke-width="2" d="M16.839 57.997s-2-13 10-13c.05.04.11.07.16.1 3.08 2.05 5.75 3.46 8.72 3.5h.12c2.93-.04 5.56-1.41 8.59-3.41.09-.06.19-.12.29-.19 5.17 0 7.74 2.42 8.99 5.17"/><path fill="none" stroke="#000" stroke-linecap="round" stroke-linejoin="round" stroke-miterlimit="10" stroke-width="2" d="m35.689 57.167.09.13-.09.03-5.89 1.61.09-4.8-5.62.24 2.57-9.04z"/><path fill="none" stroke="#000" stroke-linecap="round" stroke-linejoin="round" stroke-miterlimit="10" stroke-width="2" d="m35.689 57.167-.1.13.1.03 5.88 1.61-.09-4.8 5.62.24-2.57-9.04z"/><path d="M53.143 58.786a.842.842 0 0 1-.834-.954L55.68 31.33l-1.413 26.672c-.03.442-.68.785-1.124.785z"/><path d="M53.144 59.536a1.593 1.593 0 0 1-1.579-1.804l3.371-26.498a.74.74 0 0 1 .812-.652.75.75 0 0 1 .682.787l-1.414 26.672c-.065.966-1.148 1.495-1.872 1.495zm.71-7.901-.801 6.292.09.11a.737.737 0 0 0 .38-.157l.33-6.245z"/></svg>