<svg viewBox="0 0 72 72" xmlns="http://www.w3.org/2000/svg"><g fill="none" stroke="#000" stroke-linecap="round" stroke-linejoin="round" stroke-width="2"><path d="M26.843 22.207c.027.255.061.51.101.767 1.02 6.52 5.755 11.194 10.576 10.44s7.9-6.652 6.88-13.172a8.44 8.44 0 0 1-8.696-4.288c-2.131 2.642-5.194 5.506-8.852 6.253"/><path d="M48.795 38.111V20.87c-.32-6.908-3.699-13.503-12.508-13.562h-.574c-9.018.06-12.346 6.971-12.526 14.055V33.49"/><path d="M43.805 41.066c.154-1.595.193-3.2.116-4.8m-15.136-.001a29.03 29.03 0 0 0 1.345 10.512"/><path d="M21.315 46.17c1.233-3.416 2.414-6.607 3.035-8.059.943-1.923 2.432-1.78 3.676-1.928a2.682 2.682 0 0 1 1.715.383A11.902 11.902 0 0 0 36 38.343h.975c2.21 0 4.378-.615 6.259-1.777a2.682 2.682 0 0 1 1.714-.383c1.245.148 2.733.005 3.677 1.928 1.65 3.86 6.47 17.689 6.47 17.689s1.965 4.68-2.62 6.533l-.025.01c-4.398 1.191-9.874-10.963-11.65-15.235"/><circle cx="25.332" cy="52.214" r="7.257"/><path d="M18.7 60.646a42.85 42.85 0 0 0 12.8 5.24m9.714-17.802-4.338 1.506a1.7 1.7 0 0 1-2.158-1.046l-.79-2.276a1.7 1.7 0 0 1 1.046-2.157l8.583-2.98a1.7 1.7 0 0 1 2.158 1.046l.79 2.276M32.552 51.48c1.425.017 2.847.153 4.25.405a23.532 23.532 0 0 1 7.526 2.641m2.229-3.539a49.605 49.605 0 0 0 4.929 6.767"/><path d="M31.326 48.122a2.002 2.002 0 0 1 2.512-2.36m1.042 3.119a2 2 0 0 1-2.972.26"/></g></svg>