<svg viewBox="0 0 72 72" xmlns="http://www.w3.org/2000/svg"><path fill="none" stroke="#000" stroke-linecap="round" stroke-linejoin="round" stroke-miterlimit="10" stroke-width="2" d="M24.624 26.728a17.867 17.867 0 0 0-.078 1.666c0 7.828 5.077 14.173 11.339 14.173 6.262 0 11.339-6.345 11.339-14.173 0-1.158-.112-2.284-.321-3.361"/><path d="M41.885 27.033a2 2 0 1 1-4.001-.001 2 2 0 0 1 4.001.001m-8 0a2 2 0 1 1-4.001-.001 2 2 0 0 1 4.001.001m2 10.003c-1.152 0-2.304-.286-3.447-.858a1 1 0 1 1 .894-1.79c1.718.86 3.388.86 5.106 0a1 1 0 0 1 .894 1.79c-1.143.572-2.295.858-3.447.858z"/><path fill="none" stroke="#000" stroke-linecap="round" stroke-linejoin="round" stroke-miterlimit="10" stroke-width="2" d="M62.618 60.962H48.01V42.326h11.826v2.112h2.782z"/><path fill="none" stroke="#000" stroke-linecap="round" stroke-linejoin="round" stroke-miterlimit="10" stroke-width="2" d="M51.214 38.863H66.04V57.5m-6.204-15.174 2.782 2.112m-11.663 4.097h8.433m-8.433 4.096h8.433m-8.433 3.584h8.433m-25.933-7.68s-1.206 6.021 2.307 6.021 2.308-6.021 2.308-6.021m6.63 7.094-5.74 2.178m-11.586-39.02s10.136 7.96 10.511 2.44c0 0 5.335 3.806 9.018 3.806 6.433 0-.131-12.48-11.14-15.12-3.145-.752-9.893-1.755-9.893 4.46 0 0-7.618 4.231-1.324 12.55l.091-.334c.314-3.08 2.737-7.802 2.737-7.802z"/><path fill="none" stroke="#000" stroke-linecap="round" stroke-linejoin="round" stroke-miterlimit="10" stroke-width="2" d="M16.825 57.886s-2-13 10-13c3.192 2.128 5.926 3.598 9 3.592H35.7c3.074.006 5.808-1.464 9-3.592"/><path fill="none" stroke="#000" stroke-linecap="round" stroke-linejoin="round" stroke-miterlimit="10" stroke-width="2" d="m34.912 54.556-2.415 3.245-5.672-12.915-3.957 8.484 9.457 4.431M44.7 44.886l-5.672 12.915-2.415-3.245"/></svg>