<svg viewBox="0 0 72 72" xmlns="http://www.w3.org/2000/svg"><path d="M41.97 27.01a2 2 0 1 1-4.001-.002 2 2 0 0 1 4.001.001m-8 .001a2 2 0 1 1-4.001-.002 2 2 0 0 1 4.001.001m2 10.003c-1.152 0-2.304-.287-3.447-.858a1 1 0 1 1 .894-1.79c1.718.86 3.388.86 5.106 0a1 1 0 0 1 .894 1.79c-1.143.571-2.295.858-3.447.858z"/><path fill="none" stroke="#000" stroke-miterlimit="10" stroke-width="2" d="M24.726 26.53a17.835 17.835 0 0 0-.095 1.84c0 7.828 5.077 14.173 11.339 14.173s11.339-6.345 11.339-14.173c0-1.158-.111-2.284-.321-3.361-.782-4.018-2.933-7.366-5.802-9.227"/><path fill="none" stroke="#000" stroke-linecap="round" stroke-linejoin="round" stroke-miterlimit="10" stroke-width="2" d="M49.933 45.941c6.206 3.118 4.852 11.92 4.852 11.92M28.61 45.953c2.498 1.523 4.785 2.506 7.3 2.501h-.125c2.367.005 4.532-.866 6.86-2.238M16.91 57.862s-1.435-9.325 5.416-12.18m18.86-29.9c-2.047 3.673-11.675 8.615-16.373 10.756"/><path fill="none" stroke="#000" stroke-linecap="round" stroke-linejoin="round" stroke-miterlimit="10" stroke-width="2" d="m18.351 44.285-.56-.92c-2.661-6.076 2.497-11.675 2.57-15.827-.865-24.07 20.897-19 22.651-14.92 7.162-.248 7.943 8.392 8.066 14.6 3.987 7.769 4.48 12.602 2.323 16.15l-.28.717"/><circle cx="24.631" cy="54.744" r="3" fill="none" stroke="#000" stroke-linecap="round" stroke-linejoin="round" stroke-miterlimit="10" stroke-width="2"/><path fill="none" stroke="#000" stroke-linecap="round" stroke-linejoin="round" stroke-miterlimit="10" stroke-width="2" d="M24.631 51.744s-1.327-5.46 2.28-9.202m17.564 0c1.585 1.645 2.427 5.32 2.427 5.32-3.424.113-3.31 3.882-3.31 3.882s-.779 5.563 1.656 5.432l-.165 1.616.284-2.963m1.942-7.968c3.424.114 3.31 3.883 3.31 3.883s.779 5.563-1.656 5.432l.165 1.616-.284-2.963m-18.949-9.1 5.658 11.133m5.657-10.863-5.657 10.863"/></svg>