<svg viewBox="0 0 72 72" xmlns="http://www.w3.org/2000/svg"><g fill="none" stroke="#000" stroke-linecap="round" stroke-linejoin="round" stroke-miterlimit="10" stroke-width="2"><path d="m19.962 33.086-2 27.872h-3.84V32.086l-2.912-5.982s6.65 3.811 10.526 6.911l-1.774.07z"/><path d="M25.501 34.561c2.916 2.372 5.458 5.385 6.764 9.15 4.333 12.493 1.03 12.728 4.333 17.345 3.98 5.56 40.725 5.177 23.375-7.08 0 0-12.254 2.98-16.94-1.355 0 0-5.427-17.955-26.14-38.379 0 0-4.5 2.328-6.243 8.046"/><path d="M25.501 34.561c2.916 2.372 5.458 5.385 6.764 9.15 4.333 12.493 1.03 12.728 4.333 17.345 3.98 5.56 40.725 5.177 23.375-7.08 0 0-12.254 2.98-16.94-1.355 0 0-5.427-17.955-26.14-38.379 0 0-4.5 2.328-6.243 8.046"/></g></svg>