<svg viewBox="0 0 72 72" xmlns="http://www.w3.org/2000/svg"><path d="M28.474 14.629a.999.999 0 0 1-.863-.492l-.136-.23c-.373-.617-.693-1.15-.693-2.248 0-3.309 2.692-6 6-6s6 2.691 6 6a1 1 0 1 1-2 0c0-2.206-1.794-4-4-4s-4 1.794-4 4c0 .543.086.686.406 1.217l.146.245a1 1 0 0 1-.86 1.508zm13.507 12.329a2 2 0 1 1-4.001-.001 2 2 0 0 1 4.002.001m-8.001 0a2 2 0 1 1-4.001-.001 2 2 0 0 1 4.001.001m2 10.002c-1.152 0-2.303-.285-3.447-.857a1 1 0 1 1 .895-1.79c1.717.86 3.387.86 5.105 0a1 1 0 0 1 .895 1.79c-1.144.572-2.296.858-3.448.858z"/><path d="M35.981 43.492c-3.786 0-7.307-2.087-9.662-5.725A1 1 0 1 1 28 36.68c1.978 3.057 4.888 4.811 7.982 4.811 5.702 0 10.34-5.909 10.34-13.173 0-1.147-.117-2.286-.346-3.387a1 1 0 1 1 1.957-.409c.258 1.235.388 2.513.388 3.796 0 8.366-5.535 15.173-12.339 15.173zM17.045 58.81a.999.999 0 0 1-.986-.846c-.041-.27-.973-6.633 2.58-10.776 1.88-2.19 4.626-3.325 8.163-3.375a.996.996 0 0 1 1.021.314c3.05 2.016 5.502 3.263 8.161 3.276 2.723-.013 5.23-1.321 8.383-3.424a1 1 0 0 1 1.413 1.345c-1.652 2.77-7.233 11.865-9.64 12.563-1.953.553-5.2-3.493-9.662-12.065-2.762.107-4.885 1-6.314 2.661-2.956 3.437-2.138 9.12-2.129 9.178a1 1 0 0 1-.99 1.15zm12.694-11.187c2.363 4.17 4.902 7.922 5.925 8.309.991-.488 3.646-4.112 6.231-8.135-1.95.998-3.796 1.577-5.802 1.605-.022.001-.043.002-.065.001h-.066a.294.294 0 0 0-.042 0h-.044c-2.121-.03-4.062-.675-6.137-1.78z"/><path fill="none" stroke="#000" stroke-linecap="round" stroke-linejoin="round" stroke-miterlimit="10" stroke-width="2" d="m57.43 48.017-5.5 11.38c-.44.91-1.46 1.45-2.43 1.17a2.027 2.027 0 0 1-1.26-2.83l5.54-11.48"/><path fill="none" stroke="#000" stroke-linecap="round" stroke-linejoin="round" stroke-miterlimit="10" stroke-width="2" d="m56.55 38.096-1.93-1.59c-1.52-.74-3.36-.1-4.09 1.43l-1.64 3.38c-.73 1.53-.1 3.36 1.43 4.1l2.52.54.96.21h.02l3.65 1.76.02.02.53.45 2.05 1.73c1.52.73 3.36.09 4.1-1.43l1.63-3.39c.74-1.52.1-3.36-1.43-4.09l-2.54-.51-.8-.16-3.64-1.76-.84-.69zm5.239 2.811-3.4 7.049m-5.42-2.61 3.41-7.049"/><path d="M32.16 54.446a1 1 0 0 1-.8-1.598l3.76-5.042c.193-.256.512-.392.814-.403a1 1 0 0 1 .803.421l3.378 4.76a1 1 0 0 1-1.63 1.158l-2.584-3.64-2.938 3.942a.998.998 0 0 1-.803.402zM46.661 25.86a2.83 2.83 0 0 1-.328-.02c-6.531-.778-10.17-3.989-11.58-5.545-3.39 2.68-6.483 3.831-8.088 4.288-.95.271-1.521.346-1.583.354a1 1 0 0 1-.247-1.985c.005 0 .48-.064 1.281-.292 1.574-.449 4.722-1.633 8.128-4.534a1.002 1.002 0 0 1 1.476.199c.029.043 3.278 4.627 10.85 5.529.246.029.305-.04.373-.147.466-.734.24-3.23-1.384-5.824-1.091-1.742-4.282-5.714-10.192-5.046-8.302.946-9.816 5.806-10.082 7.272a1 1 0 0 1-1.969-.357c.33-1.81 2.154-7.8 11.825-8.902 7.039-.804 10.82 3.908 12.113 5.97 1.85 2.953 2.43 6.3 1.379 7.958a2.27 2.27 0 0 1-1.972 1.081z"/><path d="M25.106 35.172c-.137 0-.274-.01-.41-.033a1 1 0 0 1 .33-1.973c.413.076 1.134-.45 1.309-1.143.167-.659-.247-1.163-1.23-1.5-1.813-.622-2.806-1.56-2.952-2.792-.267-2.27 2.635-4.235 3.22-4.606l.433-.315a1 1 0 0 1 1.17 1.623l-.483.348c-1.071.685-2.441 1.981-2.353 2.717.045.378.648.802 1.613 1.133 2.377.815 2.86 2.54 2.52 3.883-.385 1.525-1.778 2.658-3.167 2.658z"/></svg>