<svg viewBox="0 0 72 72" xmlns="http://www.w3.org/2000/svg"><g fill="none" stroke="#000" stroke-linecap="round" stroke-linejoin="round" stroke-width="2"><path d="M21.315 45.913c1.233-3.416 2.414-6.607 3.035-8.058.943-1.924 2.432-1.78 3.676-1.929a2.682 2.682 0 0 1 1.715.383A11.902 11.902 0 0 0 36 38.086h.975a11.902 11.902 0 0 0 6.259-1.777 2.682 2.682 0 0 1 1.714-.383c1.245.148 2.733.005 3.677 1.928 1.65 3.86 6.47 17.689 6.47 17.689s1.965 4.68-2.62 6.534l-.025.01c-4.399 1.19-9.874-10.964-11.65-15.236m2.67-26.678a32.96 32.96 0 0 0-1.58-5.676h0c-11.672 7.853-15.406 2.947-15.406 2.947a11.811 11.811 0 0 0-.47 5.46c1.02 6.52 5.755 11.195 10.575 10.44s7.901-6.65 6.88-13.17"/><circle cx="25.332" cy="51.964" r="7.257"/><path d="M18.7 60.396a42.852 42.852 0 0 0 12.8 5.241m9.714-17.802-4.338 1.505a1.7 1.7 0 0 1-2.158-1.046l-.79-2.276a1.7 1.7 0 0 1 1.046-2.157l8.583-2.98a1.7 1.7 0 0 1 2.158 1.046l.79 2.276M32.552 51.23a25.701 25.701 0 0 1 4.25.405 23.532 23.532 0 0 1 7.526 2.641m2.229-3.539a49.614 49.614 0 0 0 4.929 6.767"/><path d="M31.326 47.872a2.002 2.002 0 0 1 2.512-2.359m1.042 3.118a2 2 0 0 1-2.972.26M28.677 29.46s-4.181-2.3-6.005-11.906C20.748 7.421 38.803 7.421 38.803 7.421s10.017 0 4.862 17.338"/></g></svg>