<svg viewBox="0 0 72 72" xmlns="http://www.w3.org/2000/svg"><g fill="none" stroke="#000" stroke-linecap="round" stroke-linejoin="round" stroke-width="2"><path d="M50.69 56.273c1.202 0 2.002-1.177 2.002-2.946 0 0-.552-10.183-.741-12.623s-2.335-3.934-5.714-3.934m2.287 17.174c.243 1.625 1.024 2.33 2.165 2.33m-24.023-9a5.524 5.524 0 1 0 5.595-5.452h0m3.475-18.632-4.211-.53c-1.656-.198-2.778.05-3.246.994l-3.285 7.429a1.24 1.24 0 0 0-.106.501v7.283c0 1.517.726 2.17 1.684 2.17"/><path d="M32.093 22.732c-1.656-.199-3.304.15-3.772 1.094l-3.284 7.428a1.242 1.242 0 0 0-.106.502v7.282c0 1.518.726 2.171 1.684 2.171m3.747-9.274h1.598a25.341 25.341 0 0 1 6.57 1.474"/><circle cx="34.319" cy="16.028" r="3.543"/><path d="M22.604 39.745a12.242 12.242 0 1 0 7.467-4.367m3.7-12.435c1.965.248 2.477 0 3.646 1.553a5.298 5.298 0 0 1 .851 3.192 4.285 4.285 0 0 1-.851 2.51l.017 2.236m-7.266-19.44s-.578-.27-.925.018c-.408.337-.686 1.599-1.168 2.145a3.26 3.26 0 0 1-1.813 1.071"/></g></svg>