<svg viewBox="0 0 72 72" xmlns="http://www.w3.org/2000/svg"><path fill="none" stroke="#000" stroke-linecap="round" stroke-linejoin="round" stroke-miterlimit="10" stroke-width="2" d="m18.163 44.36-.56-.92c-2.662-6.076 2.496-11.675 2.57-15.826-.866-24.072 20.896-19 22.65-14.922 7.163-.247 7.943 8.393 8.067 14.6 1.51 2.944 2.519 5.466 3.072 7.657"/><path fill="none" stroke="#000" stroke-linecap="round" stroke-linejoin="round" stroke-miterlimit="10" stroke-width="2" d="M40.998 15.858c-2.048 3.672-11.675 8.614-16.374 10.756l.087.01a17.805 17.805 0 0 0-.118 2.056c0 7.827 5.077 14.173 11.339 14.173 6.262 0 11.338-6.346 11.338-14.173 0-1.159-.11-2.284-.32-3.362-.782-4.018-2.934-7.365-5.802-9.226"/><path d="M41.932 26.996a2 2 0 1 1-4.002-.001 2 2 0 0 1 4.002.001m-8 0a2 2 0 1 1-4.002-.001 2 2 0 0 1 4.002.001m2 10.003c-1.152 0-2.304-.286-3.448-.858a1 1 0 1 1 .895-1.79c1.718.86 3.388.86 5.105 0a1 1 0 0 1 .895 1.79c-1.144.572-2.295.858-3.447.858z"/><path fill="none" stroke="#000" stroke-linecap="round" stroke-linejoin="round" stroke-miterlimit="10" stroke-width="2" d="M33.457 48.498s-1.206 6.021 2.308 6.021c3.513 0 2.307-6.021 2.307-6.021m6.63 7.094-5.74 2.288"/><path fill="none" stroke="#000" stroke-linecap="round" stroke-linejoin="round" stroke-miterlimit="10" stroke-width="2" d="M16.827 57.85s-2-13 10-13c3.192 2.127 5.926 3.597 9 3.591h-.125c3.074.006 5.808-1.464 9-3.592"/><path fill="none" stroke="#000" stroke-linecap="round" stroke-linejoin="round" stroke-miterlimit="10" stroke-width="2" d="M34.914 54.52 32.5 57.873l-5.672-12.985-3.957 8.444 9.457 4.54M44.702 44.85 39.03 57.873l-2.415-3.355m26.05 6.407H48.057V42.289h11.825v2.112h2.783z"/><path fill="none" stroke="#000" stroke-linecap="round" stroke-linejoin="round" stroke-miterlimit="10" stroke-width="2" d="M51.261 38.826h14.825v18.636m-6.204-15.173 2.783 2.112m-11.663 4.097h8.432m-8.432 4.096h8.432m-8.432 3.584h8.432"/></svg>