<svg viewBox="0 0 72 72" xmlns="http://www.w3.org/2000/svg"><path d="M41.972 26.945a2 2 0 1 1-4.001-.002 2 2 0 0 1 4.001.002m-8 0a2 2 0 1 1-4.001-.002 2 2 0 0 1 4.001.002m2 10.002c-1.152 0-2.304-.286-3.447-.858a1 1 0 1 1 .894-1.789c1.718.86 3.388.86 5.106 0a1 1 0 0 1 .894 1.79c-1.143.57-2.295.857-3.447.857z"/><path d="M35.972 43.478c-6.804 0-12.34-6.806-12.34-15.173 0-.222.005-.443.013-.662l1.999.075c-.007.195-.011.39-.011.587 0 7.264 4.637 13.173 10.339 13.173S46.31 35.57 46.31 28.305c0-.198-.003-.396-.01-.592l1.999-.066c.008.218.011.438.011.658 0 8.367-5.535 15.173-12.338 15.173zm12.531-23.883H48.5l-25.66-.04a1.005 1.005 0 0 1-.633-.228c-.15-.124-.903-.792-.887-1.785.003-.184.033-.404.124-.64-.522-.457-1.082-1.114-1.17-1.882-.067-.596.153-1.168.62-1.612 1.026-.976 7.914-4.337 14.814-5.1 2.639-.288 9.196-.584 13.122 2.958.335.259 2.26 1.868 2.023 3.688-.06.458-.274 1.04-.885 1.564.294.508.508 1.14.323 1.769-.11.376-.462 1.043-1.577 1.285a.997.997 0 0 1-.212.023zm-25.138-2.04 24.913.04a3.248 3.248 0 0 0-.482-.643 1 1 0 0 1 .312-1.626c.217-.093.725-.34.763-.63.066-.497-.744-1.44-1.328-1.902-2.358-2.125-6.677-3.043-11.615-2.497-6.753.746-13.029 4.037-13.646 4.553.11.242.612.706 1.07.977a.998.998 0 0 1 .1 1.654.844.844 0 0 0-.087.074z"/><path d="M35.818 10.303a1 1 0 0 1-1-1V6.217a1 1 0 1 1 2 0v3.086a1 1 0 0 1-1 1zM47.162 28.69c-.435 0-.854-.149-1.225-.438-.683-.533-1.148-1.554-1.46-2.58a2.277 2.277 0 0 1-.329.146c-1.467.514-3.247-.638-4.49-1.7a1.62 1.62 0 0 1-.166.134c-1.052.746-2.925.052-4.66-.93a1.232 1.232 0 0 1-.1.096c-.363.313-1.176 1.011-4.944-1.307-1.023 2.12-3.021 5.818-4.781 6.501a1.001 1.001 0 0 1-1.03-.187c-3.93-3.524-.371-10.04-.218-10.317a1 1 0 0 1 .874-.513h23.061a1 1 0 0 1 .734.32c2.352 2.537 1.781 6.723.823 8.918-.516 1.182-1.145 1.802-1.871 1.845a1.929 1.929 0 0 1-.218.012zm.023-2 .014.006c.046-.007.051-.016.098-.016a.646.646 0 0 0-.111.01zm-2.284-5.01a1 1 0 0 1 .994.896c.184 1.747.755 3.634 1.206 4.052.3-.434.841-1.687.956-3.346.061-.898.023-2.503-.833-3.687H25.252c-.595 1.28-1.914 4.656-.45 6.763 1.012-1.02 2.576-3.722 3.651-6.115a.999.999 0 0 1 1.465-.424c1.083.718 2.272 1.373 3.058 1.708a.998.998 0 0 1 1.55-.743c1.341.892 2.91 1.65 3.63 1.778a2.896 2.896 0 0 0-.028-.122 1 1 0 0 1 1.702-.927c1.331 1.435 3.104 2.604 3.656 2.418.115-.04.35-.369.418-1.322a1 1 0 0 1 .997-.928z"/><path fill="none" stroke="#000" stroke-linecap="round" stroke-linejoin="round" stroke-miterlimit="10" stroke-width="2" d="M42.23 50.802a2.89 2.89 0 0 0 1.26-1.2c.21-.37.34-.78.37-1.2.06-.54-.04-1.1-.3-1.62l-.3-.77m-1.03 4.79c-.27.14-.56.23-.85.27-.19.04-.39.06-.58.04a2.99 2.99 0 0 1-2.6-1.64l-.48-1.09"/><path fill="none" stroke="#000" stroke-linecap="round" stroke-linejoin="round" stroke-miterlimit="10" stroke-width="2" d="M50.93 46.542c-1.45-.97-3.4-1.59-6.03-1.59-.56.37-1.1.72-1.64 1.05-1.9 1.17-3.69 2.03-5.54 2.37-.56.11-1.12.16-1.69.17h-.13c-2.735-.027-5.207-1.227-7.99-3.013m14.74 5.233.56.44c2.87 3.06.43 6.44.43 6.44s-3.56-1.91-2.45-5.91l.19-.64m-11.917-.981c.396.363.856.7 1.39.994a8.182 8.182 0 0 0 1.839.725c.208.055.424.105.647.148 1.871.363 4.297.288 7.441-.526m2.69-1.89.02.04.34.59c2.28 3.89 6.18 3.07 6.18 3.07s-.61-3.96-5.1-4.71l-1.04-.15"/><path d="M25.66 63.716c-3.484 0-7.183-1.098-10.014-3.254a16.34 16.34 0 0 1-2.17-1.973c-3.242-3.526-4.468-8.195-3.28-12.488a8.563 8.563 0 0 1 4.072-5.202 8.768 8.768 0 0 1 6.71-.814l.31.084c2.19.58 7.87 2.083 9.242 11.244 2.09-.256 4.148.496 5.264 2.007 1.195 1.618 1.1 3.701-.263 5.716-.476.706-1.112 1.407-1.89 2.085-1.995 1.74-4.905 2.595-7.98 2.595zm-8.802-4.846c4.559 3.474 11.933 3.826 15.47.743.646-.563 1.166-1.134 1.547-1.697.871-1.289.981-2.499.31-3.407-.814-1.1-2.587-1.535-4.218-1.04a.998.998 0 0 1-1.286-.85c-.924-8.77-5.816-10.063-7.905-10.616l-.334-.09a6.778 6.778 0 0 0-5.19.626 6.578 6.578 0 0 0-3.129 3.995c-1.002 3.623.054 7.587 2.824 10.602a14.259 14.259 0 0 0 1.911 1.734z"/><path fill="none" stroke="#000" stroke-linecap="round" stroke-linejoin="round" stroke-miterlimit="10" stroke-width="2" d="m58.085 40.003-.48-.9c-1.965-5.465 3.703-7.212 3.703-7.212s3.955 4.36-.44 8.057l-.73.586m.137 3.661-3.87 14.967a2.121 2.121 0 0 1-4.106-1.061l3.871-14.968"/><path fill="none" stroke="#000" stroke-linecap="round" stroke-linejoin="round" stroke-miterlimit="10" stroke-width="2" d="m60.275 44.195.879-3.399-1.017-.263-2.052-.53-1.036-.268-.879 3.398z"/></svg>