<svg viewBox="0 0 72 72" xmlns="http://www.w3.org/2000/svg"><path d="M49.361 54.995a2 2 0 1 1-4.001-.001 2 2 0 0 1 4.001.001"/><path fill="none" stroke="#000" stroke-linecap="round" stroke-linejoin="round" stroke-miterlimit="10" stroke-width="2" d="M16.958 57.675s-2-13 10-13c3.16 2.09 5.86 3.55 8.88 3.59h.12c2.96-.04 5.63-1.44 8.7-3.47l.18-.12c12 0 10 13 10 13"/><path fill="none" stroke="#000" stroke-linecap="round" stroke-linejoin="round" stroke-miterlimit="10" stroke-width="2" d="m26.958 44.675 3.75 8.88 2.56-2.64 2.57-2.65m2.55 2.62-2.55-2.62m8.87-3.59-.05.12-3.69 8.76-2.58-2.66m-4.96.17c.14 1.5.72 3.01 2.47 3.01 1.83 0 2.38-1.62 2.49-3.18v-.01m-3.34 3.19-2.41 3.6m4.11-3.6 2.42 3.6"/><path d="M26.963 57.129h-5.845a1 1 0 1 1 0-2h5.845a1 1 0 1 1 0 2zm13.01-32.314a2 2 0 0 1 2 2c0 1.11-.89 2-2 2a2 2 0 1 1 0-4zm-8 0a2 2 0 0 1 2 2c0 1.11-.89 2-2 2a2 2 0 1 1 0-4zm4.049 12.005c-1.151 0-2.303-.285-3.447-.857a1 1 0 1 1 .895-1.79c1.717.86 3.387.86 5.105 0a1 1 0 0 1 .895 1.79c-1.144.572-2.296.858-3.448.858z"/><path d="M36.023 43.352c-6.417 0-11.699-5.915-12.287-13.76l1.994-.15c.501 6.68 5.022 11.91 10.292 11.91 5.258 0 9.673-5.013 10.272-11.662.045-.5.067-1.009.067-1.51h2c0 .56-.025 1.129-.075 1.688-.692 7.688-5.964 13.485-12.264 13.485zm.07-25.796c-2.935 0-3.476-4.334-3.528-4.829a1 1 0 0 1 .38-.894c1.982-1.542 4.97-1.2 6.319.137.21.21.318.502.292.799-.044.49-.51 4.782-3.458 4.787h-.005zm0-2 .003 1-.002-1c.754 0 1.212-1.458 1.391-2.42-.669-.337-1.846-.499-2.835-.02.22 1.071.733 2.44 1.443 2.44z"/><path d="M24.632 31.018a.998.998 0 0 1-.783-.38c-1.47-1.856-2.067-3.771-1.778-5.693.482-3.202 3.287-5.168 3.406-5.25l.725-.55a1 1 0 1 1 1.207 1.595l-.76.576c-.056.04-2.258 1.601-2.602 3.94-.131.891.026 1.802.468 2.722 1.268-2.198 4.135-5.818 9.52-6.576a.99.99 0 0 1 1.13.851 1 1 0 0 1-.852 1.13c-6.46.908-8.65 6.728-8.74 6.975a1.001 1.001 0 0 1-.941.66z"/><path d="M36.298 23.459c-4.697 0-9.207-1.529-11.67-3.995a1.001 1.001 0 0 1 .708-1.707h21.07a1 1 0 0 1 .761 1.648c-2.031 2.392-5.679 3.863-10.006 4.037a22.23 22.23 0 0 1-.863.017zm-7.824-3.702c2.333 1.18 5.431 1.813 8.607 1.686 2.563-.103 4.827-.697 6.538-1.686H28.474z"/><path d="M47.732 23.46a1 1 0 0 1-.77-1.637l2.249-2.721c.516-.625.836-1.57.808-1.943-2.596-.72-4.143-2.306-5.64-3.84-1.98-2.031-3.853-3.95-8.312-3.95-4.46 0-6.332 1.919-8.313 3.95-1.497 1.535-3.044 3.12-5.64 3.84-.026.372.293 1.318.809 1.943l2.012 2.434a1 1 0 1 1-1.541 1.274l-2.012-2.434c-.672-.813-1.58-2.594-1.156-3.915a1.775 1.775 0 0 1 1.271-1.207c2.126-.564 3.437-1.908 4.825-3.33 2.082-2.136 4.443-4.556 9.745-4.556s7.662 2.42 9.744 4.555c1.39 1.423 2.7 2.767 4.826 3.331a1.772 1.772 0 0 1 1.271 1.208c.424 1.322-.484 3.103-1.156 3.915l-2.248 2.72a.997.997 0 0 1-.772.362z"/><path d="M47.175 31.019a1.002 1.002 0 0 1-.947-.679c-1.004-2.96-3.261-7.404-4.914-7.541a1 1 0 0 1-.913-1.08.986.986 0 0 1 1.08-.913c2.673.223 4.807 4.33 5.908 6.962.368-.848.492-1.689.37-2.512-.343-2.339-2.545-3.9-2.568-3.916l-.724-.59a1 1 0 0 1 1.27-1.546l.66.542c.051.031 2.857 1.997 3.338 5.199.29 1.922-.308 3.837-1.776 5.694a1 1 0 0 1-.784.38z"/></svg>