<svg viewBox="0 0 72 72" xmlns="http://www.w3.org/2000/svg"><path d="M36.035 37.005c-1.152 0-2.304-.286-3.447-.858a1 1 0 1 1 .894-1.789c1.718.86 3.388.86 5.106 0a1 1 0 0 1 .894 1.79c-1.143.571-2.295.857-3.447.857z"/><path fill="none" stroke="#000" stroke-linecap="round" stroke-linejoin="round" stroke-miterlimit="10" stroke-width="2" d="M47.438 28.86c-.2 7.61-5.2 13.71-11.34 13.71-6.26 0-11.34-6.34-11.34-14.17v-1.02m24.27-2.27c.93-1.78 2.7-6.54-5.9-12.53-5.48-3.95-13.73-2.8-16 .09-.69.95-.82 2.19-.41 3.29.71 1.86 2.01 5.11 9.44 6.05 2.86.36 4.61.38 9.58-.15"/><path fill="none" stroke="#000" stroke-linecap="round" stroke-linejoin="round" stroke-miterlimit="10" stroke-width="2" d="M27.428 23.33c.67-2.32.89-4.38.89-4.38m-2.29-4.24c-3.56 4.39-2.74 7.9-2.15 9.75"/><path d="M37.562 58.953a1 1 0 0 1-1-1v-4.425c-6.164-1.165-10.689-7.72-10.888-8.012a1 1 0 0 1 1.653-1.126c.046.067 4.65 6.722 10.332 7.278a1 1 0 0 1 .902.995v5.29a1 1 0 0 1-1 1z"/><path d="M16.993 58.952a1 1 0 0 1-.986-.846c-.041-.27-.973-6.633 2.58-10.776 1.924-2.241 4.752-3.377 8.408-3.377a1 1 0 0 1 .555.168c3.153 2.103 5.66 3.41 8.383 3.424 2.722-.013 5.23-1.321 8.382-3.424a.997.997 0 0 1 .555-.168c1.907 0 3.61.316 5.06.937a.999.999 0 0 1 .525 1.312.998.998 0 0 1-1.312.526c-1.127-.483-2.463-.742-3.976-.772-3.31 2.186-6.027 3.546-9.128 3.588-.015 0-.031.003-.044 0h-.125c-.018.003-.03 0-.044 0-3.1-.042-5.817-1.402-9.128-3.588-2.896.057-5.11.954-6.586 2.669-2.956 3.437-2.137 9.12-2.129 9.178a1 1 0 0 1-.99 1.15z"/><path d="M49.982 60.808c-.58 0-1.08-.227-1.41-.64-.593-.737-.402-1.762-.357-1.959a1.01 1.01 0 0 1 .06-.184l3.782-8.635v-5.291h-.086a1 1 0 1 1 0-2h1.086a1 1 0 0 1 1 1v6.5a1 1 0 0 1-.084.401l-3.817 8.714c-.003.03-.005.061-.006.093l10.05-.011a1.037 1.037 0 0 0-.007-.095l-3.815-8.723a.992.992 0 0 1-.084-.4v-6.48a1 1 0 0 1 1-1h1.18a1 1 0 1 1 0 2h-.18v5.27l3.782 8.647a.883.883 0 0 1 .06.182c.045.197.235 1.221-.357 1.96-.33.412-.832.639-1.412.639l-10.385.012z"/><path d="M57.294 44.099h-4.237a1 1 0 1 1 0-2h4.237a1 1 0 1 1 0 2zM30.33 33.016c-1.484 0-2.604-.182-2.713-.2a1 1 0 0 1-.66-.424l-4.636-6.827a.998.998 0 0 1 .344-1.437c.538-.298 13.356-7.205 27.233.811a.998.998 0 0 1 .341 1.407l-3.883 6.026a1.003 1.003 0 0 1-.703.448c-.68.095-6.306.796-9.373-1.295-1.718 1.212-4.113 1.49-5.95 1.49zm-1.968-2.113c1.763.215 5.532.293 7.204-1.38a1 1 0 0 1 1.414 0c1.652 1.653 5.939 1.582 7.95 1.37l3.048-4.73c-10.415-5.5-20.252-2.1-23.347-.757l3.731 5.497z"/><path d="M42.035 27.003A2 2 0 1 1 38.034 27a2 2 0 0 1 4.001.002m-8 .001A2 2 0 1 1 30.034 27a2 2 0 0 1 4.001.002"/></svg>