<svg viewBox="0 0 72 72" xmlns="http://www.w3.org/2000/svg"><g fill="none" stroke="#000" stroke-width="2"><circle cx="41.226" cy="10.127" r="3" stroke-miterlimit="10"/><path stroke-linecap="round" stroke-linejoin="round" d="m46.258 23.033 2.568 39.004a1.715 1.715 0 0 1-1.518 1.996 2.183 2.183 0 0 1-1.92-1.982l-2.86-21.037c-.15-1.09-.72-1.981-1.27-1.981s-1.122.891-1.27 1.981l-2.861 21.037a2.183 2.183 0 0 1-1.92 1.982 1.715 1.715 0 0 1-1.518-1.996l2.568-39.004"/><path stroke-linecap="round" stroke-linejoin="round" d="m24.258 22.033 3.707 4.237c1.811 2.07 3.663 1.543 4.115-1.17l.355-2.135c.453-2.713 2.622-5.157 4.823-5.432a38.905 38.905 0 0 1 8 0c2.2.275 4.37 2.719 4.822 5.432l.355 2.136c.453 2.712 2.38 13.643 2.593 15.724"/><path stroke-linecap="round" stroke-miterlimit="10" d="m24.2 22.101-4.465 39.571"/></g></svg>