<svg viewBox="0 0 72 72" xmlns="http://www.w3.org/2000/svg"><path d="M41.953 27.047a2 2 0 1 1-4.002-.002 2 2 0 0 1 4.002.002m-8 0a2 2 0 1 1-4.002-.002 2 2 0 0 1 4.002.002m2 10.003c-1.152 0-2.304-.287-3.448-.859a1 1 0 1 1 .895-1.789c1.718.86 3.388.86 5.106 0a1 1 0 0 1 .894 1.79c-1.144.571-2.295.857-3.447.857z"/><path fill="none" stroke="#000" stroke-linecap="round" stroke-linejoin="round" stroke-miterlimit="10" stroke-width="2" d="M47.231 26.943c.04.481.06.97.06 1.465 0 7.827-5.076 14.173-11.338 14.173s-11.339-6.346-11.339-14.173l-.124-1.458"/><path fill="none" stroke="#000" stroke-linecap="round" stroke-linejoin="round" stroke-miterlimit="10" stroke-width="2" d="M31.46 13.942c-5.826-2.362-9.846 6.39-6.97 13.308 1.895-.736 4.72-7.028 4.72-7.028s6.044 4.012 4.607.965c0 0 6 3.996 5.125.576 0 0 5.42 5.857 5.804.487 0 0 .548 5.266 2.396 5C52.404 16.577 34.89 5.182 31.461 13.942z"/><circle cx="24.614" cy="54.782" r="3" fill="none" stroke="#000" stroke-linecap="round" stroke-linejoin="round" stroke-miterlimit="10" stroke-width="2"/><path fill="none" stroke="#000" stroke-linecap="round" stroke-linejoin="round" stroke-miterlimit="10" stroke-width="2" d="M24.614 51.782s-1.327-5.46 2.28-9.202m23.022 3.399c6.206 3.118 4.852 11.92 4.852 11.92M28.593 45.99c2.497 1.523 4.785 2.507 7.3 2.502h-.125c2.366.005 4.532-.866 6.86-2.238M16.893 57.9s-1.435-9.325 5.416-12.18m22.149-3.14c1.584 1.644 2.427 5.319 2.427 5.319-3.425.113-3.31 3.883-3.31 3.883s-.779 5.562 1.655 5.431l-.164 1.617.283-2.963m1.942-7.968c3.425.113 3.31 3.883 3.31 3.883s.78 5.562-1.655 5.431l.165 1.617-.284-2.963m-18.874-9.1L35.611 57.9m5.657-10.903L35.611 57.9"/></svg>