<svg viewBox="0 0 72 72" xmlns="http://www.w3.org/2000/svg"><path fill="none" stroke="#000" stroke-linecap="round" stroke-linejoin="round" stroke-width="2.025" d="M38.339 23.545c2.38 3.577.685 6.183.032 8.1a33.787 33.787 0 0 0-.909 5.682c-.608 6.05-1.015 24.301-1.015 24.301-.056 1.114.582 2.025 1.417 2.025a2.102 2.102 0 0 0 1.75-2.011l2.57-22.304c.128-1.106.688-2.011 1.245-2.011s1.113.905 1.244 2.011l2.574 22.304a2.102 2.102 0 0 0 1.75 2.011c.835 0 1.473-.911 1.417-2.025 0 0-.529-18.062-1.086-24.056a36.322 36.322 0 0 0-.837-5.928c-.625-1.926-2.446-4.798-.03-8.099"/><path fill="none" stroke="#000" stroke-linecap="round" stroke-linejoin="round" stroke-width="2.025" d="m52.544 41.768-.802-19.235a5.34 5.34 0 0 0-5.272-5.062h-6.075m-13.209 4.585 3.753 4.29c1.834 2.095 3.708 1.562 4.166-1.184l.36-2.162c.457-2.747 2.64-5.242 4.867-5.52"/><path fill="none" stroke="#000" stroke-linecap="round" stroke-miterlimit="10" stroke-width="2.025" d="m27.127 22.125-4.52 40.061"/><circle cx="43.852" cy="10.786" r="2.954" fill="none" stroke="#000" stroke-miterlimit="10" stroke-width="1.97"/><path fill="none" stroke="#000" stroke-linecap="round" stroke-linejoin="round" stroke-width="2" d="M47.092 7.575s.579-.27.925.018c.408.337.686 1.6 1.168 2.145a3.26 3.26 0 0 0 1.813 1.072"/></svg>