<svg viewBox="0 0 72 72" xmlns="http://www.w3.org/2000/svg"><path d="M41.923 27.067a2 2 0 1 1-4.002-.002 2 2 0 0 1 4.002.002m-8 0a2 2 0 1 1-4.002-.002 2 2 0 0 1 4.002.002m1.999 10.003c-1.151 0-2.303-.287-3.447-.859a1 1 0 1 1 .895-1.789c1.718.86 3.387.86 5.105 0a1 1 0 0 1 .895 1.79c-1.144.571-2.296.857-3.447.857z"/><path fill="none" stroke="#000" stroke-linecap="round" stroke-linejoin="round" stroke-miterlimit="10" stroke-width="2" d="M25.008 32.28c1.343 5.956 5.72 10.32 10.915 10.32 4.97 0 9.195-3.998 10.725-9.564m8.089 24.884s2-13-10-13c-3.191 2.127-5.926 3.598-9 3.592h.125c-3.073.006-5.808-1.465-9-3.592-12 0-10 13-10 13m38.383-17.072 2.828-2.829 7.375 7.375-2.828 2.829z"/><circle cx="53.622" cy="36.586" fill="none" stroke="#000" stroke-linecap="round" stroke-linejoin="round" stroke-miterlimit="10" stroke-width="2" r="4"/><path fill="none" stroke="#000" stroke-linecap="round" stroke-linejoin="round" stroke-miterlimit="10" stroke-width="2" d="m64.252 46.992 2.846 2.846m-8.245-5.049v14M38.66 14.672s-3.623-6.169-10.065-.815S21.106 24.32 20.56 26.55c-.545 2.23-.326 4.414-2.074 4.632-1.748.219-2.623 3.125-1.748 4.51.874 1.386.656 4.362-1.2 4.894-1.856.532-3.494 3.698-1.42 5.882m24.84-32.079s2.35-2.209 4.68-.532c6.797 4.896 7.488 10.463 8.034 12.693.101.414.176.827.242 1.226.076.454.14.89.218 1.29"/><path fill="none" stroke="#000" stroke-linecap="round" stroke-linejoin="round" stroke-miterlimit="10" stroke-width="2" d="M47.201 33.475c-1.965-1.529-.043-6.925-.043-6.925-2.228-.483-8.215-8.166-8.215-8.166s-.695 2.207-2.66 3.08l-.764-4.803s-6.25 8.969-11.04 9.889c0 0 3.615 4.305.121 6.052-3.494 1.747-2.553 4.913-1.024 5.24m21.494 7.066s-.278 11.844-8.918 12.958h-.85c-8.64-1.114-8.918-12.958-8.918-12.958m-4.877 1.393v11.617M50.49 46.301v11.674"/></svg>