<svg viewBox="0 0 72 72" xmlns="http://www.w3.org/2000/svg"><path d="M41.903 27.1a2 2 0 1 1-4.002-.001 2 2 0 0 1 4.002.001m-8 0a2 2 0 1 1-4.002-.001 2 2 0 0 1 4.002.001m2 10.002c-1.152 0-2.304-.286-3.448-.857a1 1 0 1 1 .895-1.79c1.718.86 3.388.86 5.105 0a1 1 0 0 1 .895 1.79c-1.144.571-2.296.857-3.447.857z"/><path fill="none" stroke="#000" stroke-linecap="round" stroke-linejoin="round" stroke-miterlimit="10" stroke-width="2" d="m26.903 45.054 5.803 10.187 3.197-5.295m9-4.892-5.804 10.187-3.196-5.295"/><path fill="none" stroke="#000" stroke-linecap="round" stroke-linejoin="round" stroke-miterlimit="10" stroke-width="2" d="M54.84 57.954s2-13-10-13c-3.192 2.128-5.926 3.599-9 3.592h.125c-3.074.007-5.808-1.464-9-3.592-12 0-10 13-10 13m5.067-12.048V58.11m27.491-12.204V58.11"/><path fill="none" stroke="#000" stroke-linecap="round" stroke-linejoin="round" stroke-miterlimit="10" stroke-width="2" d="M27.17 45.21v12.9l17.45-.014V45.189m-28.263-6.717c-1.223-.775-1.218-2.11-.443-3.333.775-1.223 1.908-1.688 3.131-.913m-.12 6.814a2.568 2.568 0 1 1-2.568-2.568m-6.644 10.18c6.352-.394 4.558-5.676 4.558-5.676s-5.545-.611-4.558 5.676zM23.291 38.15s.873 2.585-1.079 3.548c-1.299.64-2.605.62-3.287-.658m8.137-24.665V8.173l8.785 1.418 8.786-1.418v8.202M27.062 12.87h17.571m-18.25 3.505s-12 8.752-7.338 17.851m33.6 6.814c0 .806.371 1.526.953 1.997m-5.32-4.887s-.872 2.585 1.08 3.548c1.298.64 2.605.62 3.287-.658m-7.458-24.665s2.96 2.16 5.369 5.447M53.13 25.1s-2.377 15.415 7.084 15.658V25.1m7.085 0s2.376 15.415-7.085 15.658V25.1m-2.653 15.658h5.48v4.245h-5.48zm4.74 17.196v-12.91h-4v12.91M19.39 16.375h32.568m-25.447 4.142c-1.229 2.266-1.947 5-1.947 7.944 0 7.828 5.077 14.173 11.339 14.173S47.24 36.288 47.24 28.461c0-2.77-.635-5.353-1.734-7.536l-.236-.886-.52 2.624H27.116l-.634-2.057"/></svg>