<svg viewBox="0 0 72 72" xmlns="http://www.w3.org/2000/svg"><path d="M42.023 26.877a2 2 0 1 1-4.001-.001 2 2 0 0 1 4.001.001m-8 0a2 2 0 1 1-4.001-.001 2 2 0 0 1 4.001.001m2 10.003c-1.152 0-2.304-.286-3.447-.858a1 1 0 1 1 .895-1.79c1.717.86 3.387.86 5.105 0a1 1 0 0 1 .895 1.79c-1.144.572-2.296.858-3.448.858zm11.579-13.362a1 1 0 0 1-.77-1.637l2.248-2.72c.577-.7.689-1.647.283-2.414-1.205-2.285-4.539-6.195-13.34-6.75-8.8.555-12.135 4.465-13.34 6.75-.406.767-.294 1.714.284 2.414l1.845 2.234a1 1 0 1 1-1.54 1.274l-1.846-2.234c-1.095-1.324-1.295-3.138-.513-4.622 1.405-2.661 5.228-7.215 15.049-7.817a.872.872 0 0 1 .123 0c9.823.602 13.644 5.156 15.048 7.818.783 1.483.582 3.297-.512 4.621l-2.248 2.72a.997.997 0 0 1-.771.363z"/><path d="M35.94 43.411c-6.417 0-11.7-5.916-12.287-13.76l1.995-.149c.5 6.678 5.02 11.91 10.292 11.91 5.257 0 9.672-5.015 10.27-11.664.045-.49.067-.997.067-1.51h2c0 .573-.025 1.142-.075 1.69-.691 7.686-5.963 13.483-12.262 13.483z"/><path d="M24.55 31.078a1 1 0 0 1-.784-.38c-1.47-1.857-2.067-3.773-1.778-5.695.482-3.201 3.287-5.167 3.407-5.25a1 1 0 0 1 1.137 1.645v.001c-.022.016-2.223 1.577-2.568 3.915-.13.885.023 1.79.458 2.703 1.248-2.202 4.066-5.791 9.429-6.545a.988.988 0 0 1 1.13.85 1 1 0 0 1-.851 1.13c-6.487.912-8.613 6.89-8.635 6.951a.998.998 0 0 1-.945.675zm22.54 0a1.005 1.005 0 0 1-.946-.679c-1.004-2.96-3.26-7.403-4.913-7.541a1 1 0 0 1-.914-1.08.99.99 0 0 1 1.08-.913c2.674.222 4.808 4.33 5.908 6.963.368-.85.493-1.69.372-2.513-.345-2.34-2.546-3.9-2.568-3.916a1 1 0 0 1 1.137-1.645c.12.082 2.925 2.048 3.406 5.25.29 1.921-.308 3.837-1.777 5.694a1 1 0 0 1-.784.38zm-8.067-11.962a1 1 0 0 1-1-1c0-1.103-.897-2-2-2-1.102 0-2 .897-2 2a1 1 0 1 1-2 0c0-2.205 1.794-4 4-4s4 1.795 4 4a1 1 0 0 1-1 1zm-3.366 35.681c-1.41 0-2.216-.646-2.642-1.187-1.383-1.753-.717-4.747-.637-5.083a1 1 0 0 1 1.945.465c-.143.61-.404 2.54.263 3.382.144.182.411.423 1.071.423.661 0 .929-.242 1.074-.425.62-.787.444-2.616.261-3.379a1 1 0 1 1 1.946-.465c.08.335.745 3.33-.637 5.082-.428.541-1.233 1.187-2.644 1.187zm19.08 4.138a1 1 0 0 1-.99-1.15c.005-.036.536-3.691-.772-6.912a1 1 0 1 1 1.853-.752c1.52 3.743.922 7.797.896 7.968a.999.999 0 0 1-.987.846z"/><path d="M30.082 54.731c-.028 0-.058 0-.087-.004a1 1 0 0 1-.83-.6L25.39 45.38a1 1 0 0 1 .833-1.393l.552-.047a.98.98 0 0 1 .64.164c3.153 2.103 5.66 3.412 8.383 3.424 2.72-.012 5.227-1.321 8.383-3.424.184-.122.4-.176.624-.166l.677.047a1 1 0 0 1 .837 1.42l-4.075 8.748a1.001 1.001 0 0 1-1.764.091l-2.908-4.869c-.547.093-1.1.144-1.668.152-.014.001-.029.004-.044.001h-.125c-.016.003-.029 0-.044 0a10.843 10.843 0 0 1-1.56-.134l-3.213 4.887c-.187.282-.501.45-.836.45zm-1.805-7.708 1.989 4.61 1.815-2.76c-1.242-.43-2.486-1.06-3.804-1.85zm11.309 1.824 1.643 2.75 2.147-4.608c-1.314.791-2.554 1.422-3.79 1.858zM16.858 58.935a.999.999 0 0 1-.986-.846c-.026-.17-.617-4.165.861-7.886a1.001 1.001 0 0 1 1.86.738c-1.274 3.203-.75 6.809-.744 6.845a1 1 0 0 1-.99 1.15z"/><path d="M31.878 58.894a.998.998 0 0 1-.853-1.519l2.239-3.69a.996.996 0 0 1 1.373-.335.998.998 0 0 1 .336 1.373l-2.24 3.69a.997.997 0 0 1-.855.48zm7.56 0a.997.997 0 0 1-.856-.482l-2.24-3.69a.998.998 0 0 1 .337-1.372.998.998 0 0 1 1.373.336l2.239 3.689a.998.998 0 0 1-.853 1.519zM23.7 48.272a1 1 0 0 1-1-1v-1.953a1 1 0 1 1 2 0v1.953a1 1 0 0 1-1 1zm-3.396 0a1 1 0 0 1-1-1v-1.953a1 1 0 1 1 2 0v1.953a1 1 0 0 1-1 1zm-3.397 0a1 1 0 0 1-1-1v-1.953a1 1 0 1 1 2 0v1.953a1 1 0 0 1-1 1zm30.865 0a1 1 0 0 1-1-1v-1.953a1 1 0 1 1 2 0v1.953a1 1 0 0 1-1 1zm3.395 0a1 1 0 0 1-1-1v-1.953a1 1 0 1 1 2 0v1.953a1 1 0 0 1-1 1zm3.396 0a1 1 0 0 1-1-1v-1.953a1 1 0 1 1 2 0v1.953a1 1 0 0 1-1 1zm-18.22-24.754c-4.699 0-9.208-1.53-11.67-3.995a1.001 1.001 0 0 1 .708-1.707h21.068a1 1 0 0 1 .762 1.647c-2.031 2.392-5.678 3.864-10.005 4.037a20.74 20.74 0 0 1-.863.018zm-7.825-3.702c2.333 1.18 5.433 1.817 8.608 1.686 2.564-.103 4.826-.698 6.538-1.686H28.518z"/></svg>