<svg viewBox="0 0 72 72" xmlns="http://www.w3.org/2000/svg"><path d="M41.964 27.01a2 2 0 1 1-4.001 0 2 2 0 0 1 4.001 0m-8 0a2 2 0 1 1-4.001 0 2 2 0 0 1 4.001 0m2 10.003c-1.152 0-2.304-.286-3.447-.858a1 1 0 1 1 .894-1.789c1.718.86 3.388.86 5.106 0a1 1 0 0 1 .894 1.79c-1.143.571-2.295.857-3.447.857z"/><path d="M35.964 43.545c-6.803 0-12.338-6.807-12.338-15.173 0-1.114.099-2.225.292-3.305l1.969.353a16.76 16.76 0 0 0-.261 2.952c0 7.264 4.638 13.173 10.338 13.173 5.701 0 10.339-5.91 10.339-13.173 0-.894-.072-1.788-.211-2.659l1.974-.317c.158.975.237 1.976.237 2.976 0 8.366-5.535 15.173-12.34 15.173zm12.531-23.884h-.002l-25.66-.04c-.23 0-.454-.081-.633-.227-.15-.124-.903-.793-.887-1.786.003-.184.034-.404.124-.64-.522-.456-1.082-1.113-1.17-1.882-.067-.595.153-1.168.62-1.612 1.025-.975 7.912-4.337 14.814-5.099 2.64-.29 9.197-.585 13.122 2.958.335.258 2.26 1.867 2.024 3.687-.06.459-.275 1.04-.886 1.564.294.508.508 1.14.323 1.769-.11.376-.462 1.043-1.577 1.285a.997.997 0 0 1-.212.023zm-25.138-2.04 24.913.04a3.244 3.244 0 0 0-.482-.642 1 1 0 0 1 .313-1.626c.216-.093.724-.34.762-.63.066-.497-.744-1.44-1.328-1.902-2.36-2.126-6.679-3.043-11.615-2.498-6.756.746-13.03 4.038-13.646 4.553.11.243.612.706 1.07.977a.998.998 0 0 1 .1 1.654.844.844 0 0 0-.087.075z"/><path d="M35.81 10.37a1 1 0 0 1-1-1V6.283a1 1 0 1 1 2 0v3.085a1 1 0 0 1-1 1zm11.346 16.173a.964.964 0 0 1-.248-.032c-7.453-1.903-11.5-4.97-13.09-6.422-1.408 1.485-4.71 4.618-8.834 6.2a1 1 0 1 1-.717-1.867c4.91-1.883 8.709-6.38 8.747-6.425a1 1 0 0 1 .765-.358h.002a1 1 0 0 1 .765.355c.033.04 3.715 4.244 12.856 6.58a1 1 0 0 1-.246 1.968z"/><path fill="none" stroke="#000" stroke-linecap="round" stroke-linejoin="round" stroke-miterlimit="10" stroke-width="2" d="M42.23 50.712a2.89 2.89 0 0 0 1.26-1.2c.21-.37.34-.78.37-1.2.06-.54-.04-1.1-.3-1.62l-.3-.77m-1.03 4.79c-.27.14-.56.23-.85.27-.19.04-.39.06-.58.04a2.99 2.99 0 0 1-2.6-1.64l-.48-1.09"/><path fill="none" stroke="#000" stroke-linecap="round" stroke-linejoin="round" stroke-miterlimit="10" stroke-width="2" d="M50.93 46.452c-1.45-.97-3.4-1.59-6.03-1.59-.56.37-1.1.72-1.64 1.05-1.9 1.17-3.69 2.03-5.54 2.37-.56.11-1.12.16-1.69.17h-.13c-3.02-.03-5.72-1.49-8.87-3.59m15.62 5.81.56.44c2.87 3.06.43 6.44.43 6.44s-3.56-1.91-2.45-5.91l.19-.64"/><path fill="none" stroke="#000" stroke-linecap="round" stroke-linejoin="round" stroke-miterlimit="10" stroke-width="2" d="M27.03 44.862s.34 9.97 13.75 6.5m2.69-1.89.02.04.34.59c2.28 3.89 6.18 3.07 6.18 3.07s-.61-3.96-5.1-4.71l-1.04-.15"/><path d="M25.66 63.626c-3.484 0-7.183-1.098-10.014-3.254h-.002a17.91 17.91 0 0 1-1.351-1.145c-.287-.27-.56-.546-.818-.828-3.24-3.526-4.467-8.195-3.28-12.488a8.563 8.563 0 0 1 4.073-5.202 8.769 8.769 0 0 1 6.71-.814l.311.084c2.188.58 7.87 2.083 9.241 11.245 2.09-.258 4.148.496 5.264 2.007 1.195 1.618 1.1 3.7-.263 5.715-.477.706-1.113 1.409-1.89 2.084-1.995 1.74-4.905 2.596-7.98 2.596zm-8.802-4.846c4.557 3.472 11.93 3.827 15.47.742.646-.562 1.166-1.132 1.547-1.696.871-1.289.981-2.499.31-3.407-.814-1.1-2.587-1.535-4.218-1.04a1 1 0 0 1-1.286-.852c-.924-8.767-5.815-10.061-7.904-10.614l-.335-.09a6.779 6.779 0 0 0-5.19.626 6.578 6.578 0 0 0-3.129 3.995c-1.002 3.623.054 7.587 2.824 10.602a14.259 14.259 0 0 0 1.911 1.734z"/><path fill="none" stroke="#000" stroke-linecap="round" stroke-linejoin="round" stroke-miterlimit="10" stroke-width="2" d="m58.085 39.913-.48-.9c-1.965-5.465 3.703-7.212 3.703-7.212s3.955 4.36-.44 8.057l-.73.586m.137 3.661-3.87 14.967a2.121 2.121 0 0 1-4.106-1.061l3.871-14.968"/><path fill="none" stroke="#000" stroke-linecap="round" stroke-linejoin="round" stroke-miterlimit="10" stroke-width="2" d="m60.275 44.105.879-3.399-1.017-.263-2.052-.53-1.036-.268-.879 3.398z"/><path d="M23.061 37.981h-2.18c-1.312 0-1.987-.674-2.321-1.24-2.217-3.744 4.348-16.118 5.687-18.56a.999.999 0 0 1 .874-.52l8.657-.023h.003a1 1 0 0 1 .003 2l-8.064.022c-3.045 5.668-6.609 14.088-5.44 16.062.058.097.155.26.6.26h2.181a1 1 0 0 1 0 2zm27.313 0h-1.789a1 1 0 1 1 0-2h1.789c.436 0 .566-.152.654-.295 1.233-2.006-1.957-10.382-4.75-16.026l-8.042-.022a1 1 0 0 1 .003-2h.003l8.657.023a1 1 0 0 1 .89.548c1.231 2.433 7.258 14.758 4.942 18.524-.35.57-1.043 1.248-2.357 1.248z"/></svg>