<svg viewBox="0 0 72 72" xmlns="http://www.w3.org/2000/svg"><path fill="none" stroke="#000" stroke-linecap="round" stroke-linejoin="round" stroke-width="2" d="M12.297 36.747c-1.572-2.167-1.861-5-.8-7.533 1.601-3.734 2.046-3.734 2.312-8.535.09-2.756 2.223-5.067 4.979-5.334 0 0 1.69-2.045 5.334-2.045 4.268 0 8.18 2.312 9.157 5.957 1.067 3.734-.178 5.245.89 8.09.819 2.106 2.023 4.058 1.99 6.287"/><path fill="none" stroke="#000" stroke-linejoin="round" stroke-miterlimit="10" stroke-width="2" d="m30.88 26.814-.09-.623c0-1.333-8.001-4.712-10.668-7.379-2.667 2.667-4.001 4.623-4.001 8.002 0 5.334 3.378 9.335 7.379 9.335s7.38-4.001 7.38-9.335z"/><path d="M24.75 26.5c0-.714.536-1.25 1.25-1.25s1.25.536 1.25 1.25-.536 1.25-1.25 1.25-1.25-.536-1.25-1.25m-5 0c0-.714.536-1.25 1.25-1.25s1.25.536 1.25 1.25-.536 1.25-1.25 1.25-1.25-.536-1.25-1.25"/><path fill="none" stroke="#000" stroke-linecap="round" stroke-linejoin="round" stroke-width="2" d="M21.633 31.533a3.968 3.968 0 0 0 3.734 0"/><path fill="none" stroke="#000" stroke-linecap="round" stroke-linejoin="round" stroke-width="1.6" d="M26.5 60.2v-1.733C26.5 56 29.002 54 31.504 54c2.975 2.467 5.95 2.467 8.993 0 2.502 0 5.003 2 5.003 4.467V60.2"/><path d="M38.798 45.702a.9.9 0 1 1-.898-.84.87.87 0 0 1 .898.84z"/><path fill="none" stroke="#000" stroke-linecap="round" stroke-linejoin="round" stroke-width="1.6" d="M34.664 49.186a2.093 2.093 0 0 0 2.672 0"/><path d="M34.1 44.862a.9.9 0 1 1-.898.84.87.87 0 0 1 .898-.84z"/><path fill="none" stroke="#000" stroke-miterlimit="10" stroke-width="1.6" d="M42.55 45.268c.007.141.011.283.011.426a6.776 6.776 0 0 1-6.488 7.031 6.776 6.776 0 0 1-6.489-7.03c0-.096.002-.19.005-.285"/><path fill="none" stroke="#000" stroke-linecap="round" stroke-linejoin="round" stroke-width="1.6" d="M33.636 42.272c.47 3.363 4.487-.871 4.487-.871.549 1.574 4.425 3.867 4.425 3.867 1.033-.955.526-2.852.372-3.513a5.12 5.12 0 0 0-5.808-4.115 6.447 6.447 0 0 1-1.032 0c-2.27-.337-6.03-.148-7.12 4.644-.532 2.338.624 2.984.624 2.984s3.764-5.059 4.052-2.996z"/><path fill="none" stroke="#000" stroke-linecap="round" stroke-linejoin="round" stroke-miterlimit="10" stroke-width="2" d="M11 60V44.955C11 41.665 14.292 39 17.584 39c2.682 2.253 5.364 2.963 8.075 2.128"/></svg>