<svg viewBox="0 0 72 72" xmlns="http://www.w3.org/2000/svg"><path d="M42.019 26.867a2 2 0 1 1-4.002-.001 2 2 0 0 1 4.002.001m-8 0a2 2 0 1 1-4.002-.001 2 2 0 0 1 4.002.001m1.999 10.003c-1.151 0-2.303-.286-3.447-.858a1 1 0 1 1 .895-1.79c1.717.86 3.387.86 5.105 0a1 1 0 0 1 .895 1.79c-1.144.572-2.296.858-3.448.858z"/><path d="M36.019 43.401c-6.804 0-12.34-6.806-12.34-15.173 0-.485.02-.964.055-1.437l1.994.152a16.92 16.92 0 0 0-.048 1.285c0 7.264 4.637 13.173 10.339 13.173 5.7 0 10.337-5.909 10.337-13.173 0-1.076-.101-2.142-.301-3.17-.124-.64-.29-1.273-.49-1.885l1.9-.623c.227.69.413 1.406.553 2.126.224 1.153.338 2.348.338 3.552 0 8.367-5.535 15.173-12.337 15.173z"/><path d="M41.516 32.492h-2.007a3.822 3.822 0 0 1-3.482-2.253 3.822 3.822 0 0 1-3.481 2.253h-2.007a3.82 3.82 0 0 1-3.816-3.816v-1.238h-.693a1 1 0 1 1 0-2h1.693a1 1 0 0 1 1 1v2.238c0 1.002.814 1.816 1.816 1.816h2.007a1.818 1.818 0 0 0 1.816-1.816v-1.104a1 1 0 0 1 1-1h1.33a1 1 0 0 1 1 1v1.104c0 1.002.815 1.816 1.817 1.816h2.007a1.818 1.818 0 0 0 1.816-1.816v-2.238a1 1 0 0 1 1-1h1.156a1 1 0 1 1 0 2h-.156v1.238a3.82 3.82 0 0 1-3.816 3.816z"/><path d="M24.733 27.867a.999.999 0 0 1-.437-1.9c.927-.45 2.964-4.903 4.285-8.78a1 1 0 0 1 1.94.432c.001 0-.016.686.808 1.51 1.222 1.219 4.821 3.197 15.139 2.735a1 1 0 1 1 .09 1.998c-8.627.387-14.27-.78-16.78-3.462a4.896 4.896 0 0 1-.169-.188c-1.094 2.836-2.858 6.786-4.44 7.555a.992.992 0 0 1-.436.1z"/><path d="M16.285 46.03a1 1 0 0 1-.88-.523c-1.81-3.344-2.144-5.62-1.022-6.961.93-1.11 2.521-1.133 3.664-.968.179-3.4 1.56-9.954 4.193-19.921 1.37-4.027 2.255-5.569 3.529-6.176.718-.342 1.444-.302 2.082-.147 1.568-1.65 5.602-3.886 10.007-3.603 3.648.242 8.735 2.31 12.254 10.786 1.818 5.74 3.036 10.403 3.654 13.943.07.406.542 3.342.787 4.87.944.008 2.317.274 3.3 1.538a1 1 0 1 1-1.578 1.229c-.815-1.05-2.315-.725-2.33-.72a1 1 0 0 1-1.22-.813s-.834-5.211-.93-5.761c-.602-3.452-1.799-8.029-3.56-13.602-2.48-5.961-6.026-9.177-10.51-9.475-4.278-.278-8.102 2.316-8.655 3.267-.244.42-.755.601-1.21.436-.76-.28-1.048-.23-1.231-.142-.83.396-1.717 2.723-2.476 4.948-2.91 11.03-4.301 17.956-4.111 20.519a.997.997 0 0 1-1.311 1.023c-.913-.296-2.399-.445-2.816.054-.132.16-.695 1.134 1.25 4.723a1.002 1.002 0 0 1-.88 1.476z"/><path d="M16.867 58.719a.998.998 0 0 1-.986-.847c-.041-.27-.973-6.633 2.58-10.775 1.924-2.241 4.752-3.377 8.408-3.377a1 1 0 0 1 .555.168c3.162 2.108 5.675 3.418 8.406 3.425h.04a1 1 0 0 1 1 .998.993.993 0 0 1-1.02 1.002h-.106c-.016 0-.03 0-.046-.002-3.1-.042-5.816-1.403-9.126-3.588-2.896.056-5.11.954-6.586 2.669-2.956 3.436-2.137 9.12-2.129 9.177a1 1 0 0 1-.99 1.15z"/><path d="M33.946 55.083a.995.995 0 0 1-.781-.375L25.9 45.637a.999.999 0 0 1 .156-1.406.997.997 0 0 1 1.405.156l7.265 9.071a.999.999 0 0 1-.78 1.625z"/><path d="M32.957 57.156c-.074 0-.15-.008-.226-.025l-4.897-1.128a.999.999 0 0 1-.735-1.256l.458-1.56h-3.238c-.25 0-.492-.095-.676-.264-1.405-1.292-1.62-2.646-1.554-3.555.213-2.927 3.459-5.222 3.828-5.474a1 1 0 0 1 1.128 1.651c-.783.538-2.843 2.3-2.962 3.972-.042.591.17 1.14.65 1.67h4.16a1.002 1.002 0 0 1 .96 1.28l-.537 1.825 3.865.89a1 1 0 0 1-.224 1.974z"/><path fill="none" stroke="#000" stroke-linecap="round" stroke-linejoin="round" stroke-miterlimit="10" stroke-width="2" d="M35.097 59.572h24.99l6.95-16.35h-24.99zm-10.97 0h10.97"/></svg>