<svg viewBox="0 0 72 72" xmlns="http://www.w3.org/2000/svg"><g fill="none" stroke="#000" stroke-linecap="round" stroke-linejoin="round" stroke-miterlimit="10"><path stroke-width="2" d="M19.92 47.53c-.98-6.527-8.351-23.23-8.295-25.26.159-5.812 10.49-9.177 12.76-6.249.756.754 1.984 4.935 1.528 9.273-1.062 10.12 1.628 15.72 3.893 19.89 1.22 2.848-.222 5.898-3.228 6.571-3.006.673-5.888-.766-6.661-4.224z"/><circle cx="9.235" cy="18.07" r="1.04" transform="rotate(-1.534)" stroke-width="1.04"/><circle cx="3.285" cy="18.74" r="1.04" transform="rotate(-28.82)" stroke-width="1.04"/><circle cx="5.978" cy="18.35" r="1.04" transform="rotate(-31.53)" stroke-width="1.04"/><circle cx="17.66" cy="11.5" r="1.04" transform="rotate(-1.534)" stroke-width="1.04"/><path stroke-width="2" d="M50.09 59.53c.98-6.527 8.713-22.96 8.658-24.99-.159-5.812-10.79-9.193-12.81-6.392-1.142.898-1.935 5.439-1.647 9.219.66 8.697-1.694 14.58-3.913 19.27-1.22 2.848.041 6.441 3.047 7.114 3.006.673 5.888-.766 6.661-4.224z"/><circle cx="60.55" cy="29.94" r="1.04" stroke-width="1.04"/><circle cx="2.783" cy="64.35" r="1.04" transform="rotate(-62.71)" stroke-width="1.04"/><circle cx="6.263" cy="60.5" r="1.04" transform="rotate(-60)" stroke-width="1.04"/><circle cx="52.26" cy="23.39" r="1.04" stroke-width="1.04"/><ellipse cx="49.94" cy="18.91" rx="1.893" ry="2.332" transform="matrix(.9973 .07399 -.1025 .9947 0 0)" stroke-width="1.155"/><ellipse cx="20.93" cy="12.69" rx="1.888" ry="2.374" transform="rotate(-6.686) skewX(.831)" stroke-width="1.164"/></g></svg>