<svg viewBox="0 0 72 72" xmlns="http://www.w3.org/2000/svg"><path fill="none" stroke="#000" stroke-linecap="round" stroke-linejoin="round" stroke-width="2" d="M18.8 46.6c-3.7-5.9-.6-10.1 1.2-14.7 1.6-4.2-.2-6.5 1.3-12s7.3-9 13.7-9c5.4 0 8 3 8 3 4.2.4 7.4 3.9 7.4 8 .4 7.2 1 7.2 3.4 12.8 1.7 3.9 1.1 8.3-1.4 11.7M17 59.9v-3c0-5 5-9 10-9 6 5 12 5 18 0 5 0 10 4 10 9v3"/><path d="M42 29.9c0 1.1-.9 2-2 2s-2-.9-2-2 .9-2 2-2 2 .9 2 2m-8 0c0 1.1-.9 2-2 2s-2-.9-2-2 .9-2 2-2 2 .9 2 2"/><path fill="none" stroke="#000" stroke-linejoin="round" stroke-width="2" d="M25 30.9c0 8 5 14 11 14s11-6 11-14c0-5-2-8-6-12-4 4-16 9-16 11v1z"/><path fill="none" stroke="#000" stroke-linecap="round" stroke-linejoin="round" stroke-width="2" d="M33 38.1c1.9 1 4.1 1 6 0"/></svg>