<svg viewBox="0 0 72 72" xmlns="http://www.w3.org/2000/svg"><ellipse cx="36.9" cy="16.2" rx="16.4" ry="2.2" fill="none" stroke="#000" stroke-linecap="round" stroke-linejoin="round" stroke-width="2"/><path fill="none" stroke="#000" stroke-linecap="round" stroke-linejoin="round" stroke-width="2" d="M19.2 52.9H9s1.6 8.9 8 8.9h10.5"/><ellipse cx="36" cy="43" rx="18.9" ry="21" fill="none" stroke="#000" stroke-linecap="round" stroke-linejoin="round" stroke-width="2"/><path fill="none" stroke="#000" stroke-linecap="round" stroke-linejoin="round" stroke-width="2" d="M52.8 52.9H63s-1.6 8.9-8 8.9H44.4m-4.4-39s1.8 1.8-.9 6.2-8 2.7-8 2.7 3.9-.4 4.4-3.5a5.332 5.332 0 0 0-1.8-5.3"/><path d="M31.9 41.8a2.795 2.795 0 0 1-2.8 2.8 2.862 2.862 0 0 1-2.8-2.8 2.795 2.795 0 0 1 2.8-2.8 2.862 2.862 0 0 1 2.8 2.8m13.6 0a2.8 2.8 0 1 1-2.8-2.8 2.795 2.795 0 0 1 2.8 2.8"/><path fill="none" stroke="#000" stroke-linecap="round" stroke-linejoin="round" stroke-width="2" d="M31.4 52.7s5 2.8 9.6 0"/></svg>