<svg viewBox="0 0 72 72" xmlns="http://www.w3.org/2000/svg"><g fill="none" stroke="#000" stroke-miterlimit="10" stroke-width="2"><path stroke-linecap="round" stroke-linejoin="round" d="M30.747 53.669c.429.405 2.333 2.11 5.101 1.927 2.246-.148 3.752-1.452 4.251-1.927"/><path d="M22.57 42.348c1.992 3.7 5.344 5.712 7.486 4.494 2.142-1.217 2.263-5.204.27-8.904s-5.344-5.712-7.486-4.494-2.263 5.204-.27 8.904z"/><path stroke-linecap="round" stroke-linejoin="round" d="M35.943 63c-10 0-13.51-11.778-13.51-11.778s-7.275-5.889-7.275-18.844C15.158 17.417 25.55 10 35.943 10s20.784 7.417 20.784 22.378c0 12.955-7.07 18.38-7.275 18.844C45.295 60.644 40.322 63 35.942 63z"/><path d="M49.032 42.348c-1.993 3.7-5.344 5.712-7.486 4.494-2.142-1.217-2.263-5.204-.27-8.904s5.344-5.712 7.485-4.494c2.142 1.217 2.263 5.204.27 8.904z"/></g></svg>