<svg viewBox="0 0 72 72" xmlns="http://www.w3.org/2000/svg"><path d="M32.03 40.84a2.839 2.839 0 1 1-2.839-2.839 2.847 2.847 0 0 1 2.839 2.839m13.62 0a2.839 2.839 0 1 1-2.839-2.839 2.847 2.847 0 0 1 2.839 2.839"/><path fill="none" stroke="#000" stroke-linecap="round" stroke-miterlimit="10" stroke-width="2" d="M31.19 52.74c-.047.01 5.015 2.831 9.591 0M25.9 34.07a11.61 11.61 0 0 1 6.596 0m7.014 0a11.61 11.61 0 0 1 6.596 0"/><path fill="none" stroke="#000" stroke-linecap="round" stroke-linejoin="round" stroke-width="2" d="M56.99 22S54.054 7.95 35.74 7.95 14.66 22 14.66 22m28.01-1V9.596"/><path fill="none" stroke="#000" stroke-linecap="round" stroke-linejoin="round" stroke-width="2" d="M60 31.03c-23.55-4.592-48.21-.183-48.18 0-.508-2.755-.106-5.38 1.004-7.903 29.86-4.891 45.62.183 46.17 0 .515 1.408.95 2.817 1.144 4.225.17 1.226.158 2.452-.14 3.678zM28.85 8.951V21.22M55.9 41.34c-.172.078 4.626-2.616 3.092-10.3"/><path fill="none" stroke="#000" stroke-linecap="round" stroke-linejoin="round" stroke-width="2" d="M18.63 30.03a15.556 15.556 0 0 0-1.568 5.008 31.834 31.834 0 0 0-.51 5.788v.34c.17 13.28 8.681 23.83 19.25 23.83s19.08-10.56 19.25-23.83v-.34a31.834 31.834 0 0 0-.511-5.788 15.573 15.573 0 0 0-1.568-5.008m-40.363 1c-1.534 7.687 3.264 10.38 3.092 10.3"/><circle cx="36" cy="24.98" r="3.953" fill="none" stroke="#000" stroke-miterlimit="10" stroke-width="2"/></svg>