<svg viewBox="0 0 72 72" xmlns="http://www.w3.org/2000/svg"><path fill="none" stroke="#000" stroke-linecap="round" stroke-linejoin="round" stroke-width="2" d="M16.2 59.958s-2.094-13.61 10.469-13.61c3.342 2.228 6.204 3.767 9.422 3.76h-.131c3.218.008 6.08-1.532 9.422-3.76 12.563 0 10.469 13.61 10.469 13.61"/><path fill="none" stroke="#000" stroke-linecap="round" stroke-linejoin="round" stroke-width="2" d="M51.216 59.958c-5.732-8.02-6.951-4.534-15.19-4.534-7.838 0-9.31-3.486-15.043 4.534m-1.738-32.425s-9.878 22.022-4.736 23.925m38.305-23.895c.4.896 9.752 22.025 4.725 23.894M26.1 37.462c-3 0-4-7-4-14 0-6 5-12 14-12s14 6 14 12c0 7-1 14-4 14"/><path d="M41.972 29.462a2 2 0 1 1-2-2 2 2 0 0 1 2 2m-8 0a2 2 0 1 1-2-2 2 2 0 0 1 2 2"/><path fill="none" stroke="#000" stroke-linejoin="round" stroke-width="2" d="M37.972 22.561a10.22 10.22 0 0 1-10.805-.297 21.15 21.15 0 0 0-2.131 8.198c-.102 7.999 4.936 14 11 14 5.936 0 11.063-6 11.063-14a26.518 26.518 0 0 0-2.211-9.234s-.878-1.969-6.916 1.333z"/><path fill="none" stroke="#000" stroke-linecap="round" stroke-linejoin="round" stroke-width="2" d="M32.972 37.712a8.274 8.274 0 0 0 6 0M27.828 17.168s7.575 3.58 14.9 0"/></svg>