<svg viewBox="0 0 72 72" xmlns="http://www.w3.org/2000/svg"><path d="M40.098 25.253a2 2 0 1 1-2 2 2.006 2.006 0 0 1 2-2zm-.11 9.81a.994.994 0 0 1-.45 1.34 7.33 7.33 0 0 1-6.89 0 1.01 1.01 0 0 1-.45-1.34.994.994 0 0 1 1.34-.45 5.383 5.383 0 0 0 5.11 0 .994.994 0 0 1 1.34.45zm-7.89-9.81a2 2 0 1 1-2 2 2.026 2.026 0 0 1 .45-1.27 2 2 0 0 1 1.55-.73z"/><path fill="none" stroke="#000" stroke-miterlimit="10" d="M26.018 35.123a18.572 18.572 0 0 1 6.73-3.72c3.8-1.09 8.67-.82 13.08 4.48"/><path d="M40.098 25.253a2 2 0 1 1-2 2 2.006 2.006 0 0 1 2-2zm-.11 9.81a.994.994 0 0 1-.45 1.34 7.33 7.33 0 0 1-6.89 0 1.01 1.01 0 0 1-.45-1.34.994.994 0 0 1 1.34-.45 5.383 5.383 0 0 0 5.11 0 .994.994 0 0 1 1.34.45zm-7.89-9.81a2 2 0 1 1-2 2 2.026 2.026 0 0 1 .45-1.27 2 2 0 0 1 1.55-.73z"/><path fill="none" stroke="#000" stroke-linecap="round" stroke-linejoin="round" stroke-width="2" d="M24.848 26.773c-.06.61-.09 1.22-.09 1.84a16.973 16.973 0 0 0 1.26 6.51 17.597 17.597 0 0 0 9.52 9.15 1.45 1.45 0 0 0 1.12-.01 17.201 17.201 0 0 0 9.17-8.38 16.804 16.804 0 0 0 1.61-7.27 17.142 17.142 0 0 0-.09-1.76m-2.44 18.259c12 0 10 13 10 13m-13.44-10.93a35.334 35.334 0 0 0 3.33-2m-27.76 12.93s-2-13 10-13c3.14 2.09 5.84 3.55 8.87 3.59h.13a12.202 12.202 0 0 0 5.42-1.51m-5.35-38.499c0-.01-.01-.02-.01-.03a13.103 13.103 0 0 0-3.84.54c-15.84 4.84-7.5 17.63-7.5 17.63l.09-.06c.33-.22 1.59-1.07 3.17-2.35a39.454 39.454 0 0 0 4.08-3.79 18.72 18.72 0 0 0 4.07-6.24 9.079 9.079 0 0 0 .47-1.95 6.892 6.892 0 0 0-.53-3.75z"/><path fill="none" stroke="#000" stroke-linecap="round" stroke-linejoin="round" stroke-width="2" d="M23.408 22.962a40.62 40.62 0 0 0 9.66-10.11m3.1-4.19a13.217 13.217 0 0 1 3.85.54c10.25 3.13 10.37 9.6 9.18 13.76a15.582 15.582 0 0 1-1.69 3.87l-.1-.07a46.092 46.092 0 0 1-6.98-6.13 21.353 21.353 0 0 1-4.13-6.19"/><path fill="none" stroke="#000" stroke-linecap="round" stroke-linejoin="round" stroke-width="2" d="M48.858 22.962a49.712 49.712 0 0 1-9.3-10.11m-7.46 7.781s4.59 3.57 8.33 0h.01m-14.42 14.49a18.572 18.572 0 0 1 6.73-3.72c3.8-1.09 8.67-.82 13.08 4.48m-.92 9.229a.932.932 0 0 0-.11.07c-.37.21-1.64.96-3.33 2a.01.01 0 0 1-.01.01c-5.09 3.14-14.05 8.95-14.05 10.92"/></svg>