<svg viewBox="0 0 72 72" xmlns="http://www.w3.org/2000/svg"><path d="M41.989 27a2 2 0 1 1-4.002-.001A2 2 0 0 1 41.99 27m-8.001 0a2 2 0 1 1-4.002-.001A2 2 0 0 1 33.99 27m1.999 10.002c-1.152 0-2.304-.286-3.448-.858a1 1 0 1 1 .895-1.789c1.718.86 3.388.86 5.105 0a1 1 0 0 1 .895 1.79c-1.144.571-2.295.857-3.447.857z"/><path fill="none" stroke="#000" stroke-miterlimit="10" stroke-width="2" d="M24.949 31.605c1.173 6.264 5.67 10.929 11.04 10.929 5.252 0 9.67-4.464 10.958-10.522"/><path fill="none" stroke="#000" stroke-linecap="round" stroke-linejoin="round" stroke-miterlimit="10" stroke-width="2" d="M16.929 57.853s-2-13 10-13c3.192 2.128 5.926 3.598 9 3.592h-.125c3.073.006 5.808-1.464 9-3.592 12 0 10 13 10 13"/><path fill="none" stroke="#000" stroke-linecap="round" stroke-linejoin="round" stroke-miterlimit="10" stroke-width="2" d="M50.376 57.853c-5.475-7.662-12.44-1.668-14.44-.362-1.998-1.306-8.963-7.3-14.439.362M45.58 18.856s-3.624 1.93-9.845 1.93-9.849-1.93-9.849-1.93m5.73 2.281c-2.093 2.214-4.657 4.412-6.902 4.843 0 0 3.616 4.305.122 6.051-3.494 1.748-2.553 4.914-1.025 5.241M40.16 21.137c2.091 2.214 4.656 4.412 6.9 4.843 0 0-3.615 4.305-.121 6.051 3.494 1.748 2.553 4.914 1.024 5.241"/><path fill="none" stroke="#000" stroke-linecap="round" stroke-linejoin="round" stroke-miterlimit="10" stroke-width="2" d="M21.497 25s.555-13.405 14.367-13.405 14.27 13.946 14.27 13.946M30.816 11.525a5 5 0 0 1 10 0M14.033 51.286c-7 0 7.464-26.286 7.464-26.286s-.477 3.23.4 4.915"/><path fill="none" stroke="#000" stroke-linecap="round" stroke-linejoin="round" stroke-miterlimit="10" stroke-width="2" d="M57.3 51.286c7 0-7.225-26.286-7.225-26.286s.477 3.23-.4 4.915"/></svg>