<svg viewBox="0 0 72 72" xmlns="http://www.w3.org/2000/svg"><path fill="none" stroke="#000" stroke-linecap="round" stroke-linejoin="round" stroke-width="2" d="M47.917 27.805a43.366 43.366 0 0 0-.738-7.718h0a26.09 26.09 0 0 1-21.338 0 22.928 22.928 0 0 0-1.167 7.233c-.181 8.682 4.875 15.828 11.294 15.962s11.768-6.795 11.95-15.477"/><path fill="none" stroke="#000" stroke-linecap="round" stroke-linejoin="round" stroke-width="2" d="M46.362 35.26c10.856-5.606 5.86-19.567 5.86-19.567a4.98 4.98 0 0 0-4.198-2.925 6.72 6.72 0 0 0-4.434 1.389s-9.113-12.102-19.588-.867a8.345 8.345 0 0 1-7.596 2.768s.714 4.088 3.186 4.528c0 0-3.915 3.204-.416 6.947 0 0 3.687 8.996 7.847 9.669"/><path d="M42 29.773a2 2 0 1 1-2-2 2 2 0 0 1 2 2m-8 0a2 2 0 1 1-2-2 2 2 0 0 1 2 2m2 10.002a7.652 7.652 0 0 1-3.447-.858 1 1 0 0 1 .894-1.789 5.377 5.377 0 0 0 5.106 0 1 1 0 1 1 .894 1.79 7.653 7.653 0 0 1-3.447.857z"/><path fill="none" stroke="#000" stroke-linecap="round" stroke-linejoin="round" stroke-width="2" d="M16.13 59.958s-2.093-13.61 10.47-13.61c3.341 2.228 6.204 3.767 9.422 3.76h-.131c3.218.008 6.08-1.532 9.422-3.76 12.563 0 10.469 13.61 10.469 13.61"/><path fill="none" stroke="#000" stroke-linecap="round" stroke-linejoin="round" stroke-width="2" d="M51.147 59.958c-5.732-8.02-6.951-4.534-15.19-4.534-7.838 0-9.31-3.486-15.043 4.534m3.756-43.482s12.118 5.786 23.262 0M19.176 27.533S9.298 49.555 14.44 51.458m38.305-23.895c.4.896 9.752 22.025 4.725 23.894"/></svg>