<svg viewBox="0 0 72 72" xmlns="http://www.w3.org/2000/svg"><path d="M55.807 58.888a.996.996 0 0 1-.99-1.15c.008-.057.827-5.74-2.13-9.177-1.475-1.715-3.69-2.613-6.585-2.67-3.31 2.185-6.028 3.546-9.126 3.589h-.217c-3.1-.043-5.817-1.404-9.126-3.588-2.897.056-5.11.954-6.586 2.669-2.956 3.436-2.138 9.12-2.129 9.177a1 1 0 0 1-1.976.303c-.041-.27-.973-6.633 2.58-10.775 1.923-2.242 4.752-3.377 8.408-3.377a1.002 1.002 0 0 1 .555.168c3.152 2.101 5.659 3.409 8.382 3.424 2.723-.014 5.23-1.322 8.383-3.424a1.002 1.002 0 0 1 .555-.168c3.656 0 6.484 1.135 8.407 3.377 3.554 4.142 2.622 10.506 2.581 10.775a1 1 0 0 1-.986.847z"/><path d="M34.766 58.889a.998.998 0 0 1-.848-.47 97.57 97.57 0 0 1-6.907-13.136 1 1 0 0 1 1.838-.789 95.718 95.718 0 0 0 6.762 12.863 1 1 0 0 1-.845 1.532zm4.447 0a1 1 0 0 1-.846-1.532 95.694 95.694 0 0 0 6.763-12.863 1 1 0 1 1 1.838.79A97.57 97.57 0 0 1 40.06 58.42a.998.998 0 0 1-.847.469zm-15.608 0a1 1 0 0 1-1-1V45.615a1 1 0 0 1 2 0V57.89a1 1 0 0 1-1 1zm26.54 0a1 1 0 0 1-1-1V45.615a1 1 0 0 1 2 0V57.89a1 1 0 0 1-1 1zm-9.158-33.857a2 2 0 1 1-2 2 2 2 0 0 1 2-2zm-.1 9.81a1.01 1.01 0 0 1-.45 1.34 7.33 7.33 0 0 1-6.89 0 1 1 0 0 1 .89-1.79 5.383 5.383 0 0 0 5.11 0 .994.994 0 0 1 1.34.45zm-7.9-9.81a2 2 0 1 1-2 2 2 2 0 0 1 2-2z"/><path fill="none" stroke="#000" stroke-miterlimit="10" stroke-width="2" d="M25.96 25.1a17.255 17.255 0 0 0-.313 3.292c0 7.83 5.08 14.18 11.34 14.18s11.34-6.35 11.34-14.18a17.644 17.644 0 0 0-.32-3.36"/><path fill="none" stroke="#000" stroke-linecap="round" stroke-linejoin="round" stroke-width="2" d="M27.327 20.992c-.59.17-1.12.35-1.59.53a15.057 15.057 0 0 0-2.65 1.22"/><path fill="none" stroke="#000" stroke-miterlimit="10" stroke-width="2" d="M27.327 20.982v.01"/><path fill="none" stroke="#000" stroke-linecap="round" stroke-linejoin="round" stroke-width="2" d="M50.887 22.742a15.991 15.991 0 0 0-3-1.36q-.57-.195-1.23-.39a30.417 30.417 0 0 0-8.56-1.16c-.34 0-.68.01-1.03.02h-.16c-.03 0-.06-.01-.08 0a31.162 31.162 0 0 0-9.5 1.13m13.72-9.68v-.08c-.63-2.07-6.41-2.81-8 0l-.06 6.04h8z"/><path fill="none" stroke="#000" stroke-miterlimit="10" stroke-width="2" d="M25.647 21.282s.05-9.2 7.4-10.06m14.88 10.06s-.04-8.77-6.88-9.98c-.16-.03-.34-.06-.51-.08"/><g fill="none" stroke="#000" stroke-linecap="round" stroke-width="2"><path stroke-linejoin="round" d="M28.132 37.972c-2.806 1.713-4.747.796-5.888-.289a1.53 1.53 0 0 1-.15-2.07c1.956-2.298 2.099-12.87 2.099-12.87m25.505-.001s.143 10.572 2.099 12.87a1.53 1.53 0 0 1-.15 2.07c-1.14 1.085-3.082 2.003-5.888.29"/><path stroke-miterlimit="10" d="M33.873 19.895C32.48 23.034 25 26 25 26m14-6.105C40.55 23.034 48.873 26 48.873 26"/></g></svg>