<svg viewBox="0 0 72 72" xmlns="http://www.w3.org/2000/svg"><g fill="none" stroke="#000" stroke-width="2"><path stroke-linecap="round" stroke-miterlimit="10" d="M27 28s1-1 2-1 2 1 2 1m10 0s1-1 2-1 2 1 2 1"/><path stroke-linecap="round" stroke-linejoin="round" d="M51 29.3c3 3 4 21.7 4 29.7v2.5m-38 0V59c0-8 1-26.7 4-29.7"/><path stroke-linecap="round" stroke-miterlimit="10" d="m32 16-1 1m5-2-1 2m5-1 1 1"/><circle cx="36" cy="35.5" r="3" stroke-miterlimit="10"/><path stroke-linecap="round" stroke-linejoin="round" stroke-miterlimit="10" d="M32.7 35.6c-1.1-.3-1.7-.6-1.7-.6m10 0s-.5.3-1.5.6"/><path stroke-linecap="round" stroke-linejoin="round" d="M44 42c8-3 7-12 7-15.8C51 17.3 44.8 11 36 11s-15 6.3-15 15.2C21 30 20 39 28.1 42c3.7 1.4 12.1 1.3 15.9 0z"/></g></svg>