<svg viewBox="0 0 72 72" xmlns="http://www.w3.org/2000/svg"><path d="M41.985 26.98a2 2 0 1 1-4.001 0 2 2 0 0 1 4.001 0m-8 0a2 2 0 1 1-4.001 0 2 2 0 0 1 4.001 0m2 10.003c-1.152 0-2.304-.286-3.447-.858a1 1 0 1 1 .894-1.789c1.718.86 3.388.86 5.106 0a1 1 0 0 1 .894 1.79c-1.143.571-2.295.857-3.447.857z"/><path fill="none" stroke="#000" stroke-miterlimit="10" stroke-width="2" d="M24.967 24.98a17.607 17.607 0 0 0-.32 3.362c0 7.827 5.076 14.173 11.338 14.173s11.338-6.346 11.338-14.173c0-1.159-.11-2.284-.32-3.362"/><path fill="none" stroke="#000" stroke-linecap="round" stroke-linejoin="round" stroke-miterlimit="10" stroke-width="2" d="M16.925 57.834s-2-13 10-13c3.192 2.128 5.926 3.598 9 3.592H35.8c3.074.006 5.808-1.464 9-3.592 12 0 10 13 10 13M31.44 17.56l.002-9.743 3.115 2.652 1.415-3.546 1.469 3.41 2.844-2.516v9.743z"/><path fill="none" stroke="#000" stroke-linecap="round" stroke-linejoin="round" stroke-miterlimit="10" stroke-width="2" d="M17.643 50.713s3.863 3.115 3.863 7.127m30.307-10.484c-4.425-.48-6.06 8.766-6.06 8.766-3.681-4.637-9.89.17-9.89.17s-6.37-4.807-10.053-.17c0 0-1.634-9.246-6.059-8.766m34.169 3.357s-3.862 3.125-3.862 7.137M44.27 15.055c14.568 14.536-6.296 9.346-8.257 4.325-1.96 5.021-22.825 10.21-8.256-4.325"/><path fill="none" stroke="#000" stroke-linecap="round" stroke-linejoin="round" stroke-miterlimit="10" stroke-width="2" d="M23.056 23.826c-1.19 4.054-3.998 14.961-.898 18.434m26.746-18.434c1.19 4.054 3.998 14.961.898 18.434"/></svg>