<svg viewBox="0 0 72 72" xmlns="http://www.w3.org/2000/svg"><path fill="none" stroke="#000" stroke-linecap="round" stroke-linejoin="round" stroke-width="2" d="M17.1 59.89v-3c0-5 5-9 10-9q9 7.5 18 0c5 0 10 4 10 9v3M43.05 19.5a10.59 10.59 0 0 0-13.78-.02"/><path fill="none" stroke="#000" stroke-linejoin="round" stroke-width="2" d="M25.28 33.75c.85 6.528 4.67 11.14 10.72 11.14 6.243 0 10.09-4.64 10.93-11.2"/><path fill="none" stroke="#000" stroke-linecap="round" stroke-linejoin="round" stroke-width="2" d="M38.1 37.89a3.629 3.629 0 0 1-4 0m-3-2a3.491 3.491 0 0 1-1 2m11-2a3.491 3.491 0 0 0 1 2"/><path d="M42 28.89a2 2 0 1 1-2-2 2.006 2.006 0 0 1 2 2m-8 0a2 2 0 1 1-2-2 2.006 2.006 0 0 1 2 2"/><path fill="none" stroke="#000" stroke-linecap="round" stroke-linejoin="round" stroke-width="2" d="M29.28 25.72v-6.218s-6.523-.34-6.523 6.523 2.652 8.687 2.652 8.687.314-8.991 3.87-8.991zm13.63 0v-6.218s6.523-.34 6.523 6.523-2.652 8.687-2.652 8.687-.314-8.991-3.871-8.991z"/></svg>