<svg viewBox="0 0 72 72" xmlns="http://www.w3.org/2000/svg"><path fill="none" stroke="#000" stroke-linecap="round" stroke-linejoin="round" stroke-width="2" d="M15.5 42V11h41v21.201"/><path fill="none" stroke="#000" stroke-linecap="round" stroke-miterlimit="10" stroke-width="2" d="M56.418 43.85c-1.023 11.278-10.993 19.59-22.269 18.567C23.59 61.458 15.501 52.604 15.5 42"/><path fill="none" stroke="#000" stroke-linecap="round" stroke-miterlimit="10" stroke-width="2" d="M43.813 50.541a20.571 20.571 0 0 0-15.627 0"/><path d="M33.63 28.925a3 3 0 1 1-3-3c1.656 0 3 1.344 3 3m12 0a3 3 0 1 1-3-3 3 3 0 0 1 3 3"/><path fill="none" stroke="#000" stroke-linecap="round" stroke-linejoin="round" stroke-width="2" d="m25.313 17 7 6m15-6-7 6m15.058 12H39.254m21.059 0H55.43m1.07 6h4.813s4 0 4-3a2.938 2.938 0 0 0-3-3h-2m-24 6H56.5m-20.187 4s4-3 8 0a6.422 6.422 0 0 0 2.615 1.264m-11-1.264s-4-3-8 0a6.422 6.422 0 0 1-2.615 1.264"/></svg>