<svg viewBox="0 0 72 72" xmlns="http://www.w3.org/2000/svg"><path fill="none" d="m24.651 45.472 3.489 13.425"/><path d="M54.807 58.888a1 1 0 0 1-.99-1.15c.008-.057.827-5.74-2.13-9.177-1.475-1.715-3.689-2.613-6.585-2.67-3.31 2.185-6.028 3.546-9.126 3.589h-.217c-3.1-.043-5.818-1.404-9.126-3.588-2.897.056-5.11.954-6.586 2.669-2.956 3.436-2.138 9.12-2.129 9.177a1 1 0 0 1-.838 1.139 1.005 1.005 0 0 1-1.139-.836c-.04-.27-.972-6.633 2.582-10.775 1.922-2.242 4.75-3.377 8.407-3.377.197 0 .39.058.554.168 3.153 2.101 5.66 3.409 8.383 3.424 2.723-.014 5.23-1.322 8.383-3.424a.995.995 0 0 1 .555-.168c3.656 0 6.484 1.135 8.407 3.377 3.554 4.142 2.622 10.506 2.581 10.775a1 1 0 0 1-.986.847z"/><path d="M33.766 58.889a.998.998 0 0 1-.848-.47c-1.831-2.915-4.516-7.563-6.907-13.136a1 1 0 0 1 1.838-.789c2.34 5.455 4.97 10.006 6.762 12.863a.999.999 0 0 1-.845 1.532zm4.447 0a.999.999 0 0 1-.846-1.531c1.793-2.858 4.422-7.409 6.763-12.864a.999.999 0 1 1 1.838.79c-2.392 5.572-5.076 10.22-6.907 13.136a.998.998 0 0 1-.848.469zm-15.608 0a1 1 0 0 1-1-1V45.615a1 1 0 1 1 2 0V57.89a1 1 0 0 1-1 1zm26.54 0a1 1 0 0 1-1-1V45.615a1 1 0 1 1 2 0V57.89a1 1 0 0 1-1 1zm-9.158-33.857a2 2 0 0 1 2 2c0 1.11-.89 2-2 2a2 2 0 1 1 0-4zm-.1 9.81c.24.49.04 1.09-.45 1.34-1.14.57-2.3.86-3.45.86s-2.3-.29-3.44-.86c-.5-.25-.7-.85-.45-1.34.24-.5.84-.7 1.34-.45 1.72.86 3.39.86 5.11 0a.993.993 0 0 1 1.34.45zm-7.9-9.81a2 2 0 0 1 2 2c0 1.11-.89 2-2 2a2 2 0 1 1 0-4z"/><path fill="none" stroke="#000" stroke-miterlimit="10" stroke-width="2" d="M26.327 20.992c-.47.95-.85 1.98-1.13 3.07-.36 1.36-.55 2.82-.55 4.33 0 7.83 5.08 14.18 11.34 14.18s11.34-6.35 11.34-14.18a17.644 17.644 0 0 0-.54-4.34c-.28-1.08-.66-2.11-1.13-3.06"/><path fill="none" stroke="#000" stroke-linecap="round" stroke-linejoin="round" stroke-miterlimit="10" stroke-width="2" d="M26.327 20.992c-.59.17-1.12.35-1.59.53-1.74.64-2.65 1.22-2.65 1.22"/><path fill="none" stroke="#000" stroke-miterlimit="10" stroke-width="2" d="M26.327 20.982v.01"/><path fill="none" stroke="#000" stroke-linecap="round" stroke-linejoin="round" stroke-miterlimit="10" stroke-width="2" d="M49.887 22.742s-1.03-.66-3-1.36c-.38-.13-.79-.26-1.23-.39-2.11-.62-4.99-1.16-8.56-1.16-.34 0-.68.01-1.03.02h-.16c-.03 0-.06-.01-.08 0-4.02-.11-7.21.47-9.5 1.13m13.72-9.68v-.08c-.63-2.07-6.41-2.81-8 0l-.06 6.04h8l.06-5.96z"/><path fill="none" stroke="#000" stroke-miterlimit="10" stroke-width="2" d="M24.647 21.282s.05-9.2 7.4-10.06m14.88 10.06s-.04-8.77-6.88-9.98c-.16-.03-.34-.06-.51-.08"/><path fill="none" stroke="#000" stroke-linecap="round" stroke-miterlimit="10" stroke-width="2" d="M36.067 19.852s-.04.04-.12.11c-.92.79-6.87 5.73-10.22 4.31l-.53-.21h-.01"/><path fill="none" stroke="#000" stroke-linecap="round" stroke-miterlimit="10" stroke-width="2" d="M35.827 19.852s.04.04.12.11c.92.79 6.87 5.73 10.22 4.31l.62-.22"/></svg>