<svg viewBox="0 0 72 72" xmlns="http://www.w3.org/2000/svg"><path fill="none" stroke="#000" stroke-linecap="round" stroke-linejoin="round" stroke-width="2" d="m49.211 24.646-7.644 2.253m-23.359-15.26c-4.942 1.976-6.202 4.363-6.202 4.363s3.831-.943 6.704 0c0 0-8.62.944-10.536 13.207 0 0 3.832-2.83 6.705-2.83 0 0-10.536 3.774-6.705 20.754 0 0 1.916-4.717 4.79-5.66 0 0-3.832 8.49 5.746 17.924 0 0 1.505-4.314 2.463-5.258 0 0 1.338 8.088 7.085 9.031 0 0-.927-1.887.989-4.717A13.75 13.75 0 0 0 39.783 66s-1.654-6.964 3.135-7.907c0 0 1.654.36 1.654 4.134 0 0 5.264-4.314 5.264-8.088a5.69 5.69 0 0 1 4.314 4.314s4.551-4.854 3.594-16.174c0 0 4.069-1.75 6.942 3.91 0 0 2.636-10.246-6.943-18.736a7.356 7.356 0 0 1 5.986.813s.957-6.604-8.62-11.32c0 0 3.83-1.887 5.747-.944 0 0-4.732-3.328-6.887-3.846"/><path fill="none" stroke="#000" stroke-linecap="round" stroke-miterlimit="2" stroke-width="2" d="m31.303 43.223-.49 3.482m9.884-3.482.49 3.482"/><path fill="none" stroke="#000" stroke-linecap="round" stroke-linejoin="round" stroke-width="2" d="m30.431 26.899-7.643-2.253m8.944-14.216a13.336 13.336 0 0 1 8.22 0M27.599 42.279h16.802"/><path fill="none" stroke="#000" stroke-linecap="round" stroke-miterlimit="10" stroke-width="2" d="M53.38 20.805c8.092 9.6 6.871 23.941-2.728 32.034s-23.94 6.872-32.033-2.727c-7.242-8.59-7.123-21.181.28-29.633"/><path fill="none" stroke="#000" stroke-linecap="round" stroke-linejoin="round" stroke-width="2" d="M18.903 20.483s4.978-1.294 9.189.051a22.343 22.343 0 0 0 7.86 1.134"/><path fill="none" stroke="#000" stroke-linecap="round" stroke-linejoin="round" stroke-width="2" d="M52.754 20.483s-4.977-1.294-9.188.051a22.343 22.343 0 0 1-7.86 1.134m-6.717-9.457C26.585 10.61 25.784 8.205 26.586 5c-5.609 1.603-4.808 8.012-2.404 12.018 4.247.802 4.807-4.807 4.807-4.807zm18.167 4.807C49.559 13.012 50.36 6.602 44.752 5c.801 3.205 0 5.609-2.404 7.211-3.605 2.404.56 5.609 4.808 4.807z"/><path d="M30 32a3.001 3.001 0 0 1-6 0c0-1.655 1.345-3 3-3s3 1.345 3 3m18 0a3.001 3.001 0 0 1-6 0c0-1.655 1.345-3 3-3s3 1.345 3 3"/></svg>