<svg viewBox="0 0 72 72" xmlns="http://www.w3.org/2000/svg"><g fill="none" stroke="#000" stroke-linecap="round" stroke-linejoin="round" stroke-miterlimit="10" stroke-width="2"><ellipse cx="39.878" cy="23.212" rx="1.707" ry="3.187"/><path d="M13.975 51.377c-.962-2.069 3.403-6.224 6.017-12.082 1.127-2.525 1.23-4.707.738-6.384-1.282-2.57-2.356-3.62-3.417-6.123-.844-1.99 8.174-.29 8.393-.376.885-.786 3.264-9.554 5.426-12.24.988-1.227 3.396-2.642 5.781-2.502 2.018.119 4.101 1.302 4.96 2.375 2.171 2.713 4.714 12.206 5.431 12.354 1.93.4 7.969-1.897 8.321.412.077.506-1.92 5.775-2.244 6.115-.569 1.348-1.165 3.373-.316 5.48 1.213 3.012 6.055 8.586 6.054 14.024 0 .192-.926 5.52-7.69 3.647-.151-.042-4.981-1.976-7.878-1.12-3.417 1.01-2.811 2.978-6.954 4.723-1.084.457-3.111 1.284-5.773 1.05-.715-.063-2.779-.267-4.812-1.606-2.915-1.92-2.36-3.929-4.788-5.7-3.215-2.349-6.552-.549-7.249-2.047z"/><ellipse cx="36.499" cy="30.341" rx="1.774" ry="2.125"/><ellipse cx="33.081" cy="23.212" rx="1.707" ry="3.187"/></g></svg>