<svg viewBox="0 0 72 72" xmlns="http://www.w3.org/2000/svg"><path d="M41.873 29.994a2 2 0 1 1-2-2 2 2 0 0 1 2 2m-8 0a2 2 0 1 1-2-2 2 2 0 0 1 2 2"/><path fill="none" stroke="#000" stroke-linecap="round" stroke-linejoin="round" stroke-width="2" d="M50.239 31.908c-.285 3.927-1.54 7.086-4.239 7.086m-16.84-25.6a15.8 15.8 0 0 1 6.84-1.4 15.971 15.971 0 0 1 6.593 1.285M26 38.994c-1.648 0-2.675-1.21-3.288-3.045A16.901 16.901 0 0 1 22 31.994m-5 28v-3c0-4.994 5.008-9 10-9q9 7.5 18 0c4.994 0 10 4.006 10 9v3"/><path d="M41.873 29.994a2 2 0 1 1-2-2 2 2 0 0 1 2 2m-8 0a2 2 0 1 1-2-2 2 2 0 0 1 2 2"/><path fill="none" stroke="#000" stroke-linecap="round" stroke-linejoin="round" stroke-width="2" d="M36 17.994a10.618 10.618 0 0 0-2.457.859M26 27.102a40.313 40.313 0 0 0-1.063 6.892c0 5 4.936 11 11 11 5.936 0 11.063-6 11.063-11a35.913 35.913 0 0 0-1-6.892"/><path fill="none" stroke="#000" stroke-linecap="round" stroke-linejoin="round" stroke-width="2" d="M33 37.994a6.553 6.553 0 0 0 6 0m-22-32c0 3 1 10 1 10v12c1 4 4 4 4 4 0-6 3-12 3-12l4 4c1 1 3 0 2-2a66.766 66.766 0 0 0-4-6 7.495 7.495 0 0 0-4-3v-7m32.273 0c0 3-1 10-1 10v12c-1 4-4 4-4 4 0-6-3-12-3-12l-4 4c-1 1-3 0-2-2a66.766 66.766 0 0 1 4-6 7.495 7.495 0 0 1 4-3v-7M36 17.993a7.288 7.288 0 0 1 2.334.667"/></svg>