<svg viewBox="0 0 72 72" xmlns="http://www.w3.org/2000/svg"><path fill="none" stroke="#000" stroke-linecap="round" stroke-linejoin="round" stroke-miterlimit="10" stroke-width="2" d="M65.086 55.5H6.877A2.877 2.877 0 0 1 4 52.623V17.248A2.248 2.248 0 0 1 6.248 15h59.446A2.306 2.306 0 0 1 68 17.306v35.28a2.914 2.914 0 0 1-2.914 2.914z"/><path fill="none" stroke="#000" stroke-linecap="round" stroke-miterlimit="10" stroke-width="2" d="m5 16 15 16m47-16L52 32"/><path fill="none" stroke="#000" stroke-linejoin="round" stroke-miterlimit="10" stroke-width="2" d="M47.064 33.552A5.885 5.885 0 0 0 36 30.755a5.885 5.885 0 0 0-11.064 2.797c0 1.398.49 2.68 1.304 3.69l-.002.002L36 49.342l9.761-12.098-.002-.002a5.858 5.858 0 0 0 1.305-3.69z"/></svg>