<svg viewBox="0 0 72 72" xmlns="http://www.w3.org/2000/svg"><path d="M41.877 29.969a2 2 0 1 1-2-2 2 2 0 0 1 2 2m-8 0a2 2 0 1 1-2-2 2 2 0 0 1 2 2"/><path fill="none" stroke="#000" stroke-linecap="round" stroke-linejoin="round" stroke-width="2" d="M29.163 13.368a15.8 15.8 0 0 1 6.84-1.4 15.971 15.971 0 0 1 6.594 1.285M17.004 59.969v-3c0-4.994 5.008-9 10-9q9 7.5 18 0c4.994 0 10 4.006 10 9v3"/><path d="M41.877 29.969a2 2 0 1 1-2-2 2 2 0 0 1 2 2m-8 0a2 2 0 1 1-2-2 2 2 0 0 1 2 2"/><path fill="none" stroke="#000" stroke-linecap="round" stroke-linejoin="round" stroke-width="2" d="M36.004 17.968a10.618 10.618 0 0 0-2.457.86m-7.543 8.248a40.313 40.313 0 0 0-1.064 6.893c0 5 4.936 11 11 11 5.936 0 11.063-6 11.063-11a35.913 35.913 0 0 0-1-6.892"/><path fill="none" stroke="#000" stroke-linecap="round" stroke-linejoin="round" stroke-width="2" d="M33.004 37.969a6.553 6.553 0 0 0 6 0m-22-32c0 3 1 10 1 10v12c1 4 4 4 4 4 0-6 3-12 3-12l4 4c1 1 3 0 2-2a66.766 66.766 0 0 0-4-6 7.495 7.495 0 0 0-4-3v-7m32.273 0c0 3-1 10-1 10v12c-1 4-4 4-4 4 0-6-3-12-3-12l-4 4c-1 1-3 0-2-2a66.766 66.766 0 0 1 4-6 7.495 7.495 0 0 1 4-3v-7M36.004 17.968a7.288 7.288 0 0 1 2.334.667"/><path fill="none" stroke="#000" stroke-linecap="round" stroke-linejoin="round" stroke-width="2" d="M25.337 36.529c-1.78-1.348-2.78-1.512-3.267-5.94m28.105.039c-.487 4.427-1.488 4.592-3.267 5.94"/></svg>