<svg viewBox="0 0 72 72" xmlns="http://www.w3.org/2000/svg"><path d="M47.588 12.274c3.1 0 6.2 1.176 8.552 3.528 4.703 4.703 4.703 12.4 0 17.104l-23.62 23.62a12.057 12.057 0 0 1-8.552 3.527c-3.1 0-6.2-1.176-8.552-3.528-4.703-4.703-4.703-12.4 0-17.104l23.62-23.62a12.057 12.057 0 0 1 8.552-3.527m0-2c-3.774 0-7.314 1.461-9.966 4.114l-23.62 23.62c-5.495 5.494-5.495 14.436 0 19.931 2.653 2.653 6.192 4.114 9.966 4.114 3.774 0 7.314-1.461 9.966-4.114l23.62-23.62c5.495-5.494 5.495-14.436 0-19.931-2.653-2.653-6.192-4.114-9.966-4.114z"/><path fill="none" stroke="#000" stroke-linecap="round" stroke-miterlimit="10" stroke-width="2" d="m28.563 30.406 12.859 12.86"/></svg>