<svg viewBox="0 0 72 72" xmlns="http://www.w3.org/2000/svg"><circle cx="58.875" cy="31.75" r="2"/><path fill="none" stroke="#000" stroke-linecap="round" stroke-linejoin="round" stroke-width="2" d="M42.942 37.273c-1.749 2.443-4.515 2.696-6.895 2.362M27.125 12c10 0 13.122 7.018 17 14a10.233 10.233 0 0 1 .723 6.387M8.125 60v-3c0-4.994 5.008-9 10-9q9 7.5 18 0c4.994 0 10 4.006 10 9v3"/><path d="M32.998 30a2 2 0 1 1-2-2 2 2 0 0 1 2 2m-8 0a2 2 0 1 1-2-2 2 2 0 0 1 2 2"/><path fill="none" stroke="#000" stroke-linecap="round" stroke-linejoin="round" stroke-width="2" d="M24.125 38a6.553 6.553 0 0 0 6 0m23.75-6.25a5.035 5.035 0 0 0 .1 1l-15.85.25s.75 3.75 3.75 3.75h17a5 5 0 1 0-5-5zm4.144 8.2a5 5 0 1 1-8.145-.2"/><path fill="none" stroke="#000" stroke-linecap="round" stroke-linejoin="round" stroke-width="2" d="M44.603 26.74a3.064 3.064 0 0 1 .75.444 3.218 3.218 0 0 1 .265.238l2.573 2.574"/><circle cx="53.875" cy="42.75" r="2"/><path fill="none" stroke="#000" stroke-linejoin="round" stroke-width="2" d="M16.062 31c-.101 7.999 4.937 14 11 14C33 45 38.126 39 38.126 31c0-5-3-11-3-11-8 0-10 3-16 1 0 0-3 5-3.064 10z"/><path fill="none" stroke="#000" stroke-linecap="round" stroke-linejoin="round" stroke-width="2" d="M17.093 38c-3 0-4-7-4-14 0-6 5-12 14-12"/></svg>