<svg viewBox="0 0 72 72" xmlns="http://www.w3.org/2000/svg"><g fill="none" stroke="#000" stroke-width="2"><path stroke-linecap="round" stroke-linejoin="round" d="m48.023 56.664-.069-4.944c0-1.45 1.65-3.035 2.58-4.1a21.547 21.547 0 0 0 5.291-14.242c0-11.6-8.894-21.006-19.856-20.983a19.68 19.68 0 0 0-3.924.407c-7.89 1.618-14.177 8.457-15.548 16.842a21.754 21.754 0 0 0 5.043 18.041c.917 1.037 2.382 2.62 2.382 4.04l-.022 4.983m3.964-1.706v4.78m5.714-3.715v4.781m10.634-5.846v4.78m-5.184-3.715v4.781"/><path stroke-linecap="round" stroke-linejoin="round" d="m33.036 52.209 2.932-5.849 3.505 5.849"/><circle cx="27.864" cy="40.817" r="5" stroke-miterlimit="10"/><circle cx="44.212" cy="40.817" r="5" stroke-miterlimit="10"/></g></svg>