<svg viewBox="0 0 72 72" xmlns="http://www.w3.org/2000/svg"><path fill="none" stroke="#000" stroke-linecap="round" stroke-linejoin="round" stroke-width="2" d="M11.945 60v-3c0-4.994 5.008-9 10-9q9 7.5 18 0a10.271 10.271 0 0 1 4.003.84"/><path d="M36.818 30a2 2 0 1 1-2-2 2 2 0 0 1 2 2m-8 0a2 2 0 1 1-2-2 2 2 0 0 1 2 2"/><path fill="none" stroke="#000" stroke-linecap="round" stroke-linejoin="round" stroke-width="2" d="M27.945 38a6.553 6.553 0 0 0 6 0m21 22-1.937-13.305.937-1.25 6-2 5-6a1.414 1.414 0 0 0-2-2l-3 3c-1 1-4 0-7 1s-5 3.232-5 5V60M20.95 38c-3 0-4-7-4-14 0-6 5-12 14-12s14 6 14 12c0 7-1 14-4 14"/><path fill="none" stroke="#000" stroke-linejoin="round" stroke-width="2" d="M19.886 31c-.102 7.999 4.936 14 11 14 5.936 0 11.063-6 11.063-14 0-5-3-11-3-11-8 0-10 3-16 1 0 0-3 5-3.063 10z"/></svg>