<svg viewBox="0 0 72 72" xmlns="http://www.w3.org/2000/svg"><circle cx="39.24" cy="46.402" r="1"/><circle cx="32.76" cy="46.402" r="1"/><path d="M30.056 29.092a2 2 0 1 0 2-2 2 2 0 0 0-2 2m8 0a2 2 0 1 0 2-2 2 2 0 0 0-2 2"/><path fill="none" stroke="#000" stroke-linecap="round" stroke-linejoin="round" stroke-width="2" d="M46.952 27.09a17.148 17.148 0 0 1 .37 3.559c0 7.715-5.053 13.97-11.286 13.97S24.75 38.364 24.75 30.649a17.144 17.144 0 0 1 .38-3.608M43.654 46.31a11.336 11.336 0 0 1-15.235.001"/><path fill="none" stroke="#000" stroke-linecap="round" stroke-linejoin="round" stroke-width="1.944" d="M42.458 5.24c4.547.501 3.592 3.438 3.592 3.438 3.441 1.352 1.565 6.325 1.565 6.325 2.776 2.938-.266 6.669-.266 6.669a3.89 3.89 0 0 1-.943 5.846l-20.712-.022a3.89 3.89 0 0 1-.944-5.846s-3.042-3.73-.266-6.67c0 0-1.876-4.972 1.565-6.324 0 0-.986-2.745 3.592-3.438a51.714 51.714 0 0 1 12.817.022z"/><path fill="none" stroke="#000" stroke-linecap="round" stroke-linejoin="round" stroke-width="2" d="M16.939 59.949v-4.387c0-5.11 3.823-9.252 8.54-9.252h3.641v-4.622m25.941 18.261v-4.387c0-5.11-3.823-9.252-8.54-9.252H42.88v-4.553m-8.849 7.409v10.783m4.01-10.783v10.783M25.13 27.04S26.733 40.999 36 40.999c9.925 0 10.952-13.909 10.952-13.909"/><path fill="none" stroke="#000" stroke-linecap="round" stroke-linejoin="round" stroke-width="2" d="M36.062 35.044s1.2-2 3.6 0a2.362 2.362 0 0 0 1.387.688m-4.999-.688s-1.2-2-3.6 0a2.361 2.361 0 0 1-1.388.688"/></svg>