<svg viewBox="0 0 72 72" xmlns="http://www.w3.org/2000/svg"><circle cx="58.564" cy="31.813" r="2"/><path fill="none" stroke="#000" stroke-linecap="round" stroke-linejoin="round" stroke-width="2" d="M44.814 37.063c-.042 1.108-.692 4-2 4h-7m-19-2c-4 0-4-6-4-13s4-14 14-14 13.122 7.018 17 14c.706 1.272 1 3 1 6m-37 28v-3c0-4.994 5.008-9 10-9q9 7.5 18 0c4.994 0 10 4.006 10 9v3"/><path d="M32.687 30.063a2 2 0 1 1-2-2 2 2 0 0 1 2 2m-8 0a2 2 0 1 1-2-2 2 2 0 0 1 2 2"/><path fill="none" stroke="#000" stroke-linejoin="round" stroke-width="2" d="M15.75 31.063c0 9 4.937 14 11 14 5.937 0 11.064-5 11.064-14a12.133 12.133 0 0 0-1-5c-3-3-7-8-7-8-4 3-7 6-13 7 0 0-1.063 1-1.063 6z"/><path fill="none" stroke="#000" stroke-linecap="round" stroke-linejoin="round" stroke-width="2" d="M23.814 38.063a6.553 6.553 0 0 0 6 0m23.75-6.25a5.035 5.035 0 0 0 .1 1l-15.85.25s.75 3.75 3.75 3.75h17a5 5 0 1 0-5-5zm4.144 8.201a5 5 0 1 1-8.145-.202"/><path fill="none" stroke="#000" stroke-linecap="round" stroke-linejoin="round" stroke-width="2" d="M44.293 26.803a3.064 3.064 0 0 1 .749.444 3.218 3.218 0 0 1 .266.238l2.573 2.574"/><circle cx="53.564" cy="42.813" r="2"/></svg>