<svg viewBox="0 0 72 72" xmlns="http://www.w3.org/2000/svg"><g fill="none" stroke="#000" stroke-miterlimit="10" stroke-width="1.8"><rect x="15.325" y="40.826" rx="1.949" width="3.898" height="4.931"/><rect x="20.643" y="37.339" rx="1.949" width="3.898" height="4.931"/><rect x="25.805" y="39.222" rx="1.949" width="3.898" height="4.931"/><rect x="31.104" y="46.795" rx="1.949" width="3.898" height="4.931"/></g><g fill="none" stroke="#000" stroke-linecap="round" stroke-linejoin="round" stroke-width="2"><path d="m20.191 56.532-.213-13.461a2.717 2.717 0 0 0-2.655-2.573 2.495 2.495 0 0 0-2.569 2.568l.058 16.625m15.77-2.896-.17-15.172s-.254-2.584-2.548-2.583c-2.3 0-2.7 2.587-2.7 2.587m10.602 18.064-.138-10.939a2.443 2.443 0 0 0-2.5-2.108 2.558 2.558 0 0 0-2.636 2.11"/><path d="m25.249 55.233-.137-16.085a2.443 2.443 0 0 0-2.499-2.108 2.558 2.558 0 0 0-2.637 2.11l.028 5.6M39 36.562l6.418-9.655m-9.336 16.625s1.87-1.39 2.44-1.915A3.975 3.975 0 0 0 40 38.167a1.82 1.82 0 0 0-2.07-1.514m5.222-11.245 9.664-14.395 5.214 2.753-9.829 14.981-2.783-1.84-2.266-1.499z"/></g></svg>