<svg viewBox="0 0 72 72" xmlns="http://www.w3.org/2000/svg"><path d="M41.88 32.087a2 2 0 1 1-2-2 2 2 0 0 1 2 2m-8 0a2 2 0 1 1-2-2 2 2 0 0 1 2 2m2 10.003a7.653 7.653 0 0 1-3.447-.858 1 1 0 0 1 .894-1.789 5.377 5.377 0 0 0 5.106 0 1 1 0 0 1 .894 1.79 7.653 7.653 0 0 1-3.447.857z"/><path fill="none" stroke="#000" stroke-linecap="round" stroke-linejoin="round" stroke-width="2" d="M16.936 62.943s-1.62-10.56 6.84-12.64a13.08 13.08 0 0 1 3.16-.36c3.16 2.09 5.86 3.55 8.88 3.59h.12c3.02-.04 5.73-1.5 8.88-3.59a13.167 13.167 0 0 1 3.17.36c8.45 2.09 6.83 12.64 6.83 12.64"/><path fill="none" stroke="#000" stroke-linecap="round" stroke-linejoin="round" stroke-width="2" d="M23.776 50.303c5.39 7.44 16.72 9.31 24.21 0"/><path d="M34.22 63.953a1 1 0 0 1-1-1v-6.401a1 1 0 0 1 2 0v6.401a1 1 0 0 1-1 1zm3.56 0a1 1 0 0 1-1-1V56.52a1 1 0 0 1 2 0v6.433a1 1 0 0 1-1 1zm8.664-34.927H25.172a1 1 0 0 1-1-1v-13.44a8.362 8.362 0 0 1 8.352-8.352h6.569a8.361 8.361 0 0 1 8.351 8.352v13.44a1 1 0 0 1-1 1zm-20.272-2h19.272v-12.44a6.36 6.36 0 0 0-6.351-6.352h-6.569a6.36 6.36 0 0 0-6.352 6.352zm15.704 5.054a2 2 0 1 1-2-2 2 2 0 0 1 2 2m-8 0a2 2 0 1 1-2-2 2 2 0 0 1 2 2m2 10.002a7.654 7.654 0 0 1-3.448-.858 1 1 0 0 1 .895-1.79 5.377 5.377 0 0 0 5.105 0 1 1 0 0 1 .895 1.79 7.654 7.654 0 0 1-3.447.858z"/><path d="M35.876 48.613c-6.804 0-12.339-6.806-12.339-15.173a18.26 18.26 0 0 1 .82-5.457 1 1 0 1 1 1.908.598 16.255 16.255 0 0 0-.728 4.859c0 7.264 4.637 13.173 10.339 13.173s10.338-5.909 10.338-13.173a16.62 16.62 0 0 0-.302-3.17 15.84 15.84 0 0 0-.42-1.672 1 1 0 0 1 1.91-.594 17.86 17.86 0 0 1 .473 1.884 18.619 18.619 0 0 1 .339 3.552c0 8.367-5.535 15.173-12.338 15.173z"/><path fill="none" stroke="#000" stroke-linecap="round" stroke-linejoin="round" stroke-width="2" d="M17.715 49.463a15.076 15.076 0 0 1 6.352-2.398m30.218 2.398a15.076 15.076 0 0 0-6.352-2.398m-19.801-3.019c-2.806 1.58-4.747.733-5.888-.267a1.333 1.333 0 0 1-.15-1.909C24.05 39.75 25 28 25 28m18.759 16.046c2.806 1.58 4.747.733 5.888-.267a1.333 1.333 0 0 0 .15-1.909C47.84 39.75 46.89 28 46.89 28"/></svg>