<svg viewBox="0 0 72 72" xmlns="http://www.w3.org/2000/svg"><path fill="none" stroke="#000" stroke-linecap="round" stroke-linejoin="round" stroke-width="2" d="M20.934 38.985c-4 0-4-6-4-13s4-14 14-14 14 7 14 14 0 13-4 13m-29 21v-3c0-4.994 5.008-9 10-9q9 7.5 18 0a10.271 10.271 0 0 1 4.003.84"/><path d="M36.807 29.985a2 2 0 1 1-2-2 2 2 0 0 1 2 2m-7.999 0a2 2 0 1 1-2-2 2 2 0 0 1 2 2"/><path fill="none" stroke="#000" stroke-linejoin="round" stroke-width="2" d="M19.871 30.985c0 9 4.936 14 11 14 5.936 0 11.063-5 11.063-14a12.137 12.137 0 0 0-1-5c-3-3-7-8-7-8-4 3-7 6-13 7 0 0-1.063 1-1.063 6z"/><path fill="none" stroke="#000" stroke-linecap="round" stroke-linejoin="round" stroke-width="2" d="M27.934 37.985a6.553 6.553 0 0 0 6 0m21 22L52.998 46.68l.938-1.25 6-2 5-6a1.414 1.414 0 0 0-2-2l-3 3c-1 1-4 0-7 1s-5 3.233-5 5v15.556"/></svg>