<svg viewBox="0 0 72 72" xmlns="http://www.w3.org/2000/svg"><path d="M41.865 29.997a2 2 0 1 1-2-2 2 2 0 0 1 2 2m-8 0a2 2 0 1 1-2-2 2 2 0 0 1 2 2"/><path fill="none" stroke="#000" stroke-linecap="round" stroke-linejoin="round" stroke-width="2" d="M29.152 13.397a15.8 15.8 0 0 1 6.84-1.4 15.971 15.971 0 0 1 6.593 1.284M16.992 59.997v-3c0-4.994 5.008-9 10-9q9 7.5 18 0c4.995 0 10 4.006 10 9v3"/><path d="M41.865 29.997a2 2 0 1 1-2-2 2 2 0 0 1 2 2m-8 0a2 2 0 1 1-2-2 2 2 0 0 1 2 2"/><path fill="none" stroke="#000" stroke-linecap="round" stroke-linejoin="round" stroke-width="2" d="M35.992 17.996a10.618 10.618 0 0 0-2.456.86m-7.544 8.249a40.313 40.313 0 0 0-1.063 6.892c0 5 4.936 11 11 11 5.936 0 11.063-6 11.063-11a35.913 35.913 0 0 0-1-6.892"/><path fill="none" stroke="#000" stroke-linecap="round" stroke-linejoin="round" stroke-width="2" d="M32.992 37.997a6.553 6.553 0 0 0 6 0m-22-32c0 3 1 10 1 10v12c1 4 4 4 4 4 0-6 3-12 3-12l4 4c1 1 3 0 2-2a66.766 66.766 0 0 0-4-6 7.495 7.495 0 0 0-4-3v-7m32.274 0c0 3-1 10-1 10v12c-1 4-4 4-4 4 0-6-3-12-3-12l-4 4c-1 1-3 0-2-2a66.766 66.766 0 0 1 4-6 7.495 7.495 0 0 1 4-3v-7M35.992 17.996a7.288 7.288 0 0 1 2.335.667m15.448 15.331a11.599 11.599 0 0 1-1.446 11.663m-33.567.203c-3.002-4.722-1.572-8.383.042-12.058"/></svg>