<svg viewBox="0 0 72 72" xmlns="http://www.w3.org/2000/svg"><circle cx="58.681" cy="31.733" r="2"/><path fill="none" stroke="#000" stroke-linecap="round" stroke-linejoin="round" stroke-width="2" d="M7.93 59.983v-3c0-4.994 5.009-9 10-9q9 7.5 18 0c4.995 0 10 4.006 10 9v3"/><path d="M32.804 29.983a2 2 0 1 1-2-2 2 2 0 0 1 2 2m-8 0a2 2 0 1 1-2-2 2 2 0 0 1 2 2"/><path fill="none" stroke="#000" stroke-linecap="round" stroke-linejoin="round" stroke-width="2" d="M23.93 37.983a6.553 6.553 0 0 0 6 0m23.75-6.25a5.035 5.035 0 0 0 .101 1l-15.85.25s.75 3.75 3.75 3.75h17a5 5 0 1 0-5-5zm4.144 8.201a5 5 0 1 1-8.144-.202"/><path fill="none" stroke="#000" stroke-linecap="round" stroke-linejoin="round" stroke-width="2" d="M44.41 26.724a3.064 3.064 0 0 1 .748.443 3.218 3.218 0 0 1 .266.238l2.573 2.574"/><circle cx="53.681" cy="42.733" r="2"/><path fill="none" stroke="#000" stroke-linecap="round" stroke-linejoin="round" stroke-width="2" d="M9.682 46.805c-3.722-5.857-.628-10.08 1.18-14.725 1.636-4.2-.209-6.451 1.291-12.034 1.48-5.5 7.278-8.966 13.71-8.966 5.4 0 8 3 8 3 4.168.374 9.027 3.703 9.991 8.686.4 2.235.133 6.176 1.57 9.597"/><path fill="none" stroke="#000" stroke-linejoin="round" stroke-width="2" d="M15.862 31.08c0 8 5 14 11 14s11-6 11-14c0-5-2-8-6-12-4 4-16 9-16 11z"/><path fill="none" stroke="#000" stroke-linecap="round" stroke-linejoin="round" stroke-width="2" d="M53.303 47.983a11.582 11.582 0 0 1-2.02 4.13"/></svg>