<svg viewBox="0 0 72 72" xmlns="http://www.w3.org/2000/svg"><path fill="none" stroke="#000" stroke-linecap="round" stroke-linejoin="round" stroke-width="2" d="M11.948 59.982v-3c0-4.994 5.008-9 10-9q9 7.5 18 0a10.271 10.271 0 0 1 4.003.84"/><path d="M36.821 29.982a2 2 0 1 1-2-2 2 2 0 0 1 2 2m-8 0a2 2 0 1 1-2-2 2 2 0 0 1 2 2"/><path fill="none" stroke="#000" stroke-linecap="round" stroke-linejoin="round" stroke-width="2" d="M27.948 37.982a6.553 6.553 0 0 0 6 0m21 22-1.937-13.306.937-1.25 6-2 5-6a1.414 1.414 0 0 0-2-2l-3 3c-1 1-4 0-7 1s-5 3.233-5 5v15.556"/><path fill="none" stroke="#000" stroke-linecap="round" stroke-linejoin="round" stroke-width="2" d="M13.652 46.713c-3.722-5.857-.628-10.08 1.18-14.725 1.636-4.2-.209-6.45 1.291-12.034 1.48-5.5 7.278-8.966 13.71-8.966 5.4 0 8 3 8 3a8.132 8.132 0 0 1 7.405 8.037c.386 7.18 1.024 7.153 3.428 12.823a11.6 11.6 0 0 1 .736 2.37"/><path fill="none" stroke="#000" stroke-linejoin="round" stroke-width="2" d="M19.832 30.988c0 8 5 14 11 14s11-6 11-14c0-5-2-8-6-12-4 4-16 9-16 11z"/></svg>