<svg viewBox="0 0 72 72" xmlns="http://www.w3.org/2000/svg"><g fill="none" stroke="#000" stroke-linecap="round" stroke-linejoin="round" stroke-miterlimit="10" stroke-width="2"><path d="M29.15 50.05 36 58.54l20.734-25.698-.004-.003A12.44 12.44 0 0 0 59.5 25M45.25 12.622A12.51 12.51 0 0 0 36 19.06a12.497 12.497 0 0 0-11-6.56c-6.904 0-12.5 5.596-12.5 12.5 0 2.97 1.04 5.694 2.77 7.839l-.004.003 2.16 2.678"/><path d="m22.556 32.45 1.546-8.06.506 3.016 1.682 10.043c.19 1.127 1.187 2.033 2.543 2.309L37 41.42l-8.173 1.663c-1.352.275-2.348 1.181-2.537 2.308L24.103 58.45l-2.188-13.058c-.189-1.128-1.185-2.034-2.537-2.309l-8.173-1.663 8.173-1.663c1.352-.275 2.267-1.847 2.455-2.974m27.015-22.516 1.234-6.428.403 2.406 1.341 8.008c.151.899.947 1.622 2.028 1.841l6.512 1.326-6.517 1.326c-1.078.22-1.872.942-2.023 1.84L50.082 35l-1.745-10.413c-.15-.899-.944-1.621-2.023-1.84l-6.517-1.327 6.517-1.326c1.079-.22 1.808-1.473 1.958-2.371"/></g></svg>