<svg viewBox="0 0 72 72" xmlns="http://www.w3.org/2000/svg"><path fill="none" stroke="#000" stroke-linecap="round" stroke-linejoin="round" stroke-miterlimit="10" stroke-width="2" d="M28.263 48.95 36 58.54l20.734-25.698-.004-.003A12.44 12.44 0 0 0 59.5 25c0-6.904-5.596-12.5-12.5-12.5a12.497 12.497 0 0 0-11 6.56 12.497 12.497 0 0 0-11-6.56c-6.904 0-12.5 5.596-12.5 12.5 0 2.97 1.04 5.694 2.77 7.839l-.004.003 7.853 9.733M34.5 37.5 21 51M62.092 9.908 58 14M20.596 51.454h-6.95l-6.453 6.453h6.95v6.95l6.453-6.453zM68.18 3.628 66.924 8.48l-1.254 4.85-3.596-3.596-3.596-3.596 4.851-1.255z"/></svg>