<svg viewBox="0 0 72 72" xmlns="http://www.w3.org/2000/svg"><g fill="none" stroke="#000" stroke-linecap="round" stroke-linejoin="round"><path stroke-width="2" d="M37.194 66.466a151.073 151.073 0 0 0-11.454-35"/><path stroke-width="2" d="M35.661 30.455s4.177 21.626-2.002 33.081"/><path stroke-width="2" d="M46.718 30.455s-5.335 22.94-14.586 35.264"/><path stroke-width="2.105" d="M31.977 54.954s-3.083 2.95 5.92 4.047c6.424.783 4.569-2.806 4.569-2.806"/></g><g fill="none" stroke="#000" stroke-linecap="round" stroke-linejoin="round" stroke-width="2"><path d="M40.657 11.17c2.165.647 5.937 9.384 2.879 13.86a5.371 5.371 0 0 1-4.057 2.407 7.64 7.64 0 0 1-2.967-.193h0c-2.212-.458-3.696-2.744-3.931-4.99-.565-5.392 5.864-11.543 8.076-11.085m-6.249-2.247c.936-1.504 2.241-2.605 2.934-2.525m0 0c.548.112 1.351 1.09 1.949 2.375M31.37 27.29c-2.255.152-3.802-1.669-4.63-3.77-1.99-5.043 2.555-12.692 4.81-12.844"/><path d="M31.373 10.663a3.892 3.892 0 0 1 2.227 1.273m12.413 15.556a7.814 7.814 0 0 0 2.409-.248h0c2.212-.457 3.697-2.744 3.932-4.99.476-4.56-4.047-9.662-6.793-10.851m4.965-2.481c-.936-1.504-2.24-2.605-2.933-2.525m0 0c-.549.112-1.352 1.09-1.95 2.375m7.922 18.518c2.254.152 3.8-1.669 4.63-3.77 1.988-5.043-2.556-12.692-4.81-12.844"/><path d="M53.562 10.663a3.892 3.892 0 0 0-2.228 1.273m-24.895-.533c-2.746 1.19-7.27 6.291-6.792 10.85.235 2.247 1.72 4.533 3.931 4.991h0a7.814 7.814 0 0 0 2.409.248m-1.58-21.095c-.692-.08-1.997 1.021-2.934 2.525m4.884-.15c-.598-1.286-1.401-2.263-1.95-2.375m-5.792 4.279c-2.254.152-6.798 7.8-4.81 12.843.83 2.102 2.376 3.923 4.63 3.771"/><path d="M20.666 11.936a3.892 3.892 0 0 0-2.227-1.273"/></g></svg>