<svg viewBox="0 0 72 72" xmlns="http://www.w3.org/2000/svg"><path fill="none" stroke="#000" stroke-miterlimit="10" stroke-width="2" d="M49.835 36.794c6.839 2.122 8.547 7.385 11.917 2.914 3.458-4.592 2.065-13.131-.883-14.799a2.093 2.093 0 0 0-1.04-.286c-1.308 0-3.069.57-4.847 1.448-2.199 1.086-4.424 2.643-5.854 4.177"/><path fill="none" stroke="#000" stroke-linecap="round" stroke-linejoin="round" stroke-miterlimit="10" stroke-width="2" d="M44.224 36.794c-.733.266-1.398.58-2.006.918-1.304 1.734-3.613 5.213-6.085 10.752-.197.44.105.97.504.882l2.845-.622c.413-.09.826.156 1.029.613l1.28 2.887c.225.506.831.405.94-.156.556-2.847 1.83-8.994 3.374-13.14-.91-.194-1.644-1.038-1.88-2.134zm7.643.952a12.994 12.994 0 0 0-2.032-.952c-.236 1.096-.97 1.94-1.881 2.134 1.544 4.146 2.818 10.293 3.374 13.14.11.56.715.662.94.156l1.28-2.887c.204-.457.617-.703 1.03-.613l2.844.622c.4.088.701-.441.504-.882-2.456-5.503-4.752-8.973-6.06-10.718z"/><path fill="none" stroke="#000" stroke-miterlimit="10" stroke-width="2" d="M47.495 28.812h-.99c-1.319 0-2.391 1.405-2.391 3.133v3.92c0 1.728 1.072 3.133 2.39 3.133h.99c1.319 0 2.391-1.405 2.391-3.132v-3.921c0-1.728-1.072-3.133-2.39-3.133z"/><path fill="none" stroke="#000" stroke-miterlimit="10" stroke-width="2" d="M44.372 29.89c-2.586-2.774-7.235-5.353-10.16-5.353-3.617 0-5.767 9.981-1.923 15.084 3.37 4.472 5.078-.791 11.917-2.913"/><path fill="none" stroke="#000" stroke-linecap="round" stroke-linejoin="round" stroke-miterlimit="10" stroke-width="2" d="M58.648 20.454C56.829 15.798 52.3 12.5 47 12.5a12.497 12.497 0 0 0-11 6.56 12.497 12.497 0 0 0-11-6.56c-6.904 0-12.5 5.596-12.5 12.5 0 2.97 1.04 5.694 2.77 7.839l-.004.003L36 58.54l3.101-3.844"/></svg>