<svg viewBox="0 0 72 72" xmlns="http://www.w3.org/2000/svg"><g fill="none" stroke="#000" stroke-linecap="round" stroke-linejoin="round" stroke-miterlimit="10" stroke-width="2"><path d="M27.468 40.552c-.428-4.28-1.132-12.72-1.954-13.754 0 0 5.2 1.11 7.811-2.974m1.178 29.264s10.802 2.701 19.287-4.327"/><path d="M27.72 50.631s2.868-14.473 16.368-16.393S64.3 42.753 64.3 42.753s.23.275.527.77c2.073 3.456 1.25 7.934-1.803 10.564-10.992 9.464-26.426 11.712-46.518 11.597 0 0-3.75 1.145-4.61-3.574 0 0-.769-20.94 3.818-35.627 0 0-.197-6 .03-9.928a2.59 2.59 0 0 1 .827-1.752c5.78-5.332 8.375-6.115 8.375-6.115l8.388-1.484c1.436.984 4.725 4.739 3.57 11.495"/><path d="M25.589 19.295s1.816 2.59 3.632-.284V16l-.46-1.658-.36-.278m1.143 5.231s1.816 2.59 3.633-.284V16l-.873-2.125m4.516 5.136c-1.961 1.89-3.32 0-3.32 0m-13.199-2.564a3.732 3.732 0 0 1 1.278 2.432c.033.288.131.57.336.774.595.594 1.959 1.517 3.323-.642V16l-.636-1.268m15.754 3.557c1.926.57 2.262 3.427-.702 4.1l-6.329 1.435"/></g></svg>