<svg viewBox="0 0 72 72" xmlns="http://www.w3.org/2000/svg"><path fill="none" stroke="#000" stroke-linecap="round" stroke-linejoin="round" stroke-width="2" d="M19 45c-.1-.2-2.6-4.1-1-7 1.3-2.3 4.6-2.9 5-3m20-8c.3-.9 1.5-3.4 1-5-.4-1.3-.9-3-5-5l-8-4c.193.99.193 2.01 0 3-.2 1.1-.7 3.3-1 5m24 24c.6.1 4.8.5 6 4 1 3-2 7-6 7-4.3 0-7.5-1.2-11.7-1.6M23.6 35.1c-.2 0-.4-.1-.6-.1a7.195 7.195 0 0 1-1-4 7.332 7.332 0 0 1 4-6c1.9-.9 2.7-.1 5-1a9.33 9.33 0 0 0 4-3m13.5 14.7c.199-.208.367-.444.5-.7.2-.2 1.7-2.9 1-5-1-3-6-2.9-7-3a18.08 18.08 0 0 1-5 5 17.497 17.497 0 0 1-6.2 2.7m-.5 10a26.856 26.856 0 0 0 8.5-2.4M24.2 45h.7M50 35a6.174 6.174 0 0 1 4 2c1.3 1.7 2.5 4.5 0 7a23.158 23.158 0 0 1-10 6c-6 2-15 5-21 5-5.1 0-9-1-9-5 0-4.4 7.7-4.9 10.2-5"/><path fill="none" stroke="#000" stroke-miterlimit="10" stroke-width="2.436" d="M30.9 44.6a4.135 4.135 0 0 1-3.2 1.7c-2.7 0-4.9-3.1-4.9-6.9s2.2-6.9 4.9-6.9 4.9 3.1 4.9 6.9a8.516 8.516 0 0 1-1.7 5.2m8.9-2.3a9.342 9.342 0 0 1-.6-3.4c0-3.8 2.2-6.9 4.9-6.9s4.9 3 4.9 6.9-2.2 6.9-4.9 6.9c-1.8 0-3.4-1.4-4.3-3.5"/><path d="M46.1 39a2 2 0 1 1-4 0 2 2 0 0 1 4 0m-16.4.4a2 2 0 1 1-4 0 2 2 0 0 1 4 0"/></svg>