<svg viewBox="0 0 72 72" xmlns="http://www.w3.org/2000/svg"><path d="M30.555 63.641a1 1 0 0 1-.998-.929l-1.079-15.106a1 1 0 0 1 1.995-.143l.794 11.108 6.28-14.156a1 1 0 0 1 1.765-.12l6.059 9.78-.943-11.058a1.002 1.002 0 0 1 .789-1.064l12.35-2.627-13.913-3.386a1 1 0 0 1-.336-1.792l7.44-5.19-9.583 2.319a1.001 1.001 0 0 1-1.212-1.186l3.077-14.016-7.311 11.206a1 1 0 1 1-1.675-1.092l10.297-15.784a1 1 0 0 1 1.814.76L42.26 28.956l13.196-3.193a1 1 0 0 1 .808 1.792l-9.984 6.966 16.02 3.9a1 1 0 0 1-.028 1.95l-15.776 3.356 1.223 14.344a1 1 0 0 1-1.847.611l-7.264-11.726-7.139 16.09a1 1 0 0 1-.914.595z"/><path d="M16.63 48.535a1 1 0 0 1-.674-1.74l7.866-7.16-13.36-3.703a1 1 0 0 1 .091-1.948l12.704-2.26L15.94 21.69a.999.999 0 0 1 1.304-1.458l9.994 5.696-2.509-15.883a1.001 1.001 0 0 1 1.867-.634l6.907 12.682a1 1 0 0 1-1.757.957l-4.138-7.598 1.93 12.22a.999.999 0 0 1-1.483 1.025l-7.752-4.42 5.514 7.564a.998.998 0 0 1-.633 1.573l-9.942 1.768 10.86 3.01a1 1 0 0 1 .407 1.704l-5.335 4.856 7.613-2.873a1 1 0 1 1 .705 1.871l-12.51 4.72a.99.99 0 0 1-.352.065z"/></svg>