<svg viewBox="0 0 72 72" xmlns="http://www.w3.org/2000/svg"><path d="m5 42.273 14.352 6.108c0 .024-.003.047-.003.07.001 6.654 5.396 12.047 12.05 12.046 4.818-.001 8.962-2.837 10.889-6.923a7.986 7.986 0 0 0 4.37 1.297 8.032 8.032 0 0 0 7.876-6.475c.317.025.634.048.957.048 6.654-.002 12.047-5.397 12.045-12.05s-5.396-12.047-12.05-12.045c-.39 0-.774.022-1.154.058a8.034 8.034 0 0 0-11.53-4.696c-1.604-4.77-6.103-8.209-11.414-8.208-6.653.002-12.046 5.397-12.045 12.05 0 .55.05 1.089.122 1.62L5 31.327m0-5.83 9-4s-1-5 4-8m-13 34 9 4s-1 5 4 8" fill="none" stroke="#000" stroke-linecap="round" stroke-linejoin="round" stroke-miterlimit="10" stroke-width="2"/></svg>