<svg viewBox="0 0 72 72" xmlns="http://www.w3.org/2000/svg"><g stroke="#000" stroke-linecap="round" stroke-linejoin="round" stroke-miterlimit="10"><path fill="none" stroke-width="2" d="M52.55 23.75c0 3.985-1.785 5.908-3.754 10.5-.503 1.172-4.211 13.38-4.211 13.38h-17.17s-2.981-11.67-3.546-12.62c-2.37-3.998-4.419-6.91-4.419-11.26C19.45 14.609 26.86 7.2 36 7.2c9.141 0 16.55 7.41 16.55 16.55z"/><path stroke-width="2" d="M36 47.22V35.28m5.97 0H30.03"/><path fill="none" stroke-width="1.696" d="M44.16 58.79c0 3.24-3.651 5.867-8.155 5.867S27.85 62.03 27.85 58.79z"/><path stroke-width="1.965" d="m27.99 54.98 16.02-3.47"/><path stroke-width="2" d="m38.2 56.07 5.78-1.18M28.02 51.6l5.78-1.18"/></g></svg>