<svg viewBox="0 0 72 72" xmlns="http://www.w3.org/2000/svg"><g fill="none" stroke="#000" stroke-miterlimit="10" stroke-width="2"><circle cx="46.302" cy="34.578" r="5.933"/><path stroke-linecap="round" stroke-linejoin="round" d="M37.494 21.951V51.05c0 .104-.02.2-.05.295a1 1 0 0 1-.95.656h-15.34a1 1 0 0 1-.95-.656.963.963 0 0 1-.05-.295V21.952c0-.105.02-.2.05-.295a1 1 0 0 1 .95-.657h15.34a1 1 0 0 1 .95.656c.03.096.05.19.05.296z"/><path stroke-linecap="round" stroke-linejoin="round" d="M29.037 41v-3.87l2.58-5.16-2.58 5.16-2.58-5.16m.131 4.498h4.863M15.706 52.079h-3.63a1 1 0 0 1-1-1v-29.2a1 1 0 0 1 1-1h3.63M42 21l17.446-.122a1 1 0 0 1 1 1V51.08a1 1 0 0 1-1 1L42 52"/><path stroke-linecap="round" stroke-linejoin="round" d="M42 25.156h13.817V47.83H42M15.706 48V25.156"/></g></svg>