<svg viewBox="0 0 72 72" xmlns="http://www.w3.org/2000/svg"><g fill="none" stroke="#000" stroke-linecap="round" stroke-linejoin="round" stroke-miterlimit="10" stroke-width="2"><path d="M11 10.958h50v50H11z"/><path d="M52.55 47.117c-3.587 5.31-9.66 8.8-16.55 8.8-11.023 0-19.958-8.936-19.958-19.959S24.977 16 36 16c6.857 0 12.906 3.458 16.5 8.725"/><path d="M52.55 47.046c-3.587 5.309-9.66 8.8-16.55 8.8-11.023 0-19.958-8.936-19.958-19.96S24.977 15.93 36 15.93c6.857 0 12.906 3.457 16.5 8.724"/><circle cx="36" cy="35.958" r="5"/><path d="M44 36.5v5.475l17 2.458V28.5l-17 2.458v5.475"/></g></svg>