<svg viewBox="0 0 72 72" xmlns="http://www.w3.org/2000/svg"><g fill="none" stroke="#000" stroke-linecap="round" stroke-linejoin="round" stroke-miterlimit="10"><path stroke-width="2" d="M50.24 53.57V59c0 .55-.44 1-1 1H31.41a2.5 2.5 0 0 1-2.5-2.5v-3.93c.48.31 1.05.5 1.67.5h18c.61 0 1.18-.19 1.66-.5z"/><path stroke-width="2" d="M51.58 48.15v2.92c0 1.05-.54 1.96-1.34 2.5-.48.31-1.05.5-1.66.5h-18c-.62 0-1.19-.19-1.67-.5-.8-.54-1.33-1.46-1.33-2.5v-2.92h24zM28.84 25.64l-.39.12-.68.21a.996.996 0 0 1-1.25-.65l-3.34-10.63c-.16-.52.13-1.09.66-1.25l.49-.16h.01l.57-.18c.52-.16 1.09.13 1.25.66l3.34 10.62c.16.53-.13 1.09-.66 1.26z"/><path stroke-width="2" d="M52.91 43.22v3.93c0 .55-.45 1-1 1H27.25c-.56 0-1-.45-1-1v-3.66l-8.64-27.51c-.16-.53.13-1.09.66-1.26l5.16-1.62c.15-.05.3-.05.45-.03.06.01.11.03.16.05.11.03.2.09.29.16l-.49.16c-.53.16-.82.73-.66 1.25l3.34 10.63c.16.52.73.82 1.25.65l.68-.21 2.38 7.58h-1.87c-.53 0-.96.42-.96.95v2.53c0 .53.43.96.96.96h3.27l1.39 4.44h18.29c.55 0 1 .45 1 1z"/><path stroke-width="1.914" d="M46.99 34.29v2.53c0 .53-.43.96-.96.96H28.96a.96.96 0 0 1-.96-.96v-2.53c0-.53.43-.95.96-.95h17.07c.53 0 .96.42.96.95z"/></g></svg>