<svg viewBox="0 0 72 72" xmlns="http://www.w3.org/2000/svg"><g fill="none" stroke="#000" stroke-linecap="round" stroke-miterlimit="10" stroke-width="2"><path d="M13.98 56.778c.364.364.853.519 1.324.467 0 0 8.902.052 13.962-4.802.064-.056.124-.116.184-.176a4.693 4.693 0 1 0-6.638-6.638l-8.833 8.833a1.638 1.638 0 0 0 0 2.316zm3.256.361-.009-.01"/><path d="M22.146 53.02c.12.81-.36 1.98-1.31 2.98-.29.3-.59.56-.9.76m-1.97-1.1c-.08.58-.36 1.11-.8 1.49"/><path stroke-linejoin="round" d="M41.055 53.358 22.442 34.745a1 1 0 0 1 0-1.414l11.243-11.243a1 1 0 0 1 1.414 0l18.613 18.613a1 1 0 0 1 0 1.414L42.469 53.358a1 1 0 0 1-1.414 0z"/><path stroke-linejoin="round" d="M47.425 35.192 35.692 46.925a.545.545 0 0 1-.139.099.574.574 0 0 1-.65-.12L28.68 40.68a.573.573 0 0 1-.12-.65.547.547 0 0 1 .098-.139l11.733-11.733a.547.547 0 0 1 .14-.098.574.574 0 0 1 .65.12l6.222 6.223a.573.573 0 0 1 .12.65.545.545 0 0 1-.098.14z"/><path d="M57.186 13.571c.364.365.519.854.467 1.325 0 0 .051 8.902-4.803 13.962-.055.064-.115.124-.175.184a4.693 4.693 0 1 1-6.638-6.637l8.833-8.833a1.638 1.638 0 0 1 2.316 0zm.361 3.258-.01-.01"/><path d="M53.427 21.739c.81.12 1.98-.36 2.98-1.31.3-.29.56-.59.76-.9m-1.1-1.97c.58-.08 1.11-.36 1.49-.8"/></g></svg>