<svg viewBox="0 0 72 72" xmlns="http://www.w3.org/2000/svg"><path d="M16.486 34.819c.091-.459.199-.911.325-1.355-.128.473-.235.925-.325 1.355zm.599-2.289c-.105.306-.185.622-.274.934.083-.305.172-.616.274-.934zm-.77 3.17c.048-.278.107-.575.171-.881-.058.293-.128.58-.171.881zm-.25 2.21c-.02.27-.03.53-.03.8 0-.15 0-.42.03-.8z"/><path fill="none" stroke="#000" stroke-linecap="round" stroke-miterlimit="10" stroke-width="2" d="M42.358 19.833H29.525"/><path fill="none" stroke="#000" stroke-linecap="round" stroke-linejoin="round" stroke-miterlimit="10" stroke-width="2" d="M56.72 40.042c0 11.437-9.278 20.715-20.715 20.715-11.447 0-20.725-9.278-20.725-20.715v-.135c0-.28.01-.55.03-.83 0-.114.011-.239.022-.373.01-.177.03-.374.052-.582.03-.26.062-.55.114-.861.02-.156.052-.311.072-.478a24.92 24.92 0 0 1 .8-3.29 21.4 21.4 0 0 1 .207-.612c.218-.58.457-1.183.737-1.795.031-.073.062-.145.104-.208.674-1.432 2.688-4.13 2.688-4.13a20.593 20.593 0 0 1 3.954-3.643c.114-.083.238-.166.353-.239.03-.02.072-.052.103-.072 2.958-2.19 2.003-4.141.851-5.304a3.1 3.1 0 0 1-1.453-1.11c-.02-.01-.03-.02-.03-.02a3.201 3.201 0 0 1-.623-1.9v-.02a3.249 3.249 0 0 1 3.238-3.239h18.93a3.249 3.249 0 0 1 3.237 3.238v.02c0 .738-.26 1.433-.685 1.983a3.202 3.202 0 0 1-1.287.996h-.01c-1.173 1.163-2.2 3.135.8 5.355l.103.073c.114.073.239.156.353.239a20.596 20.596 0 0 1 3.954 3.643 20.323 20.323 0 0 1 2.688 4.13c.041.062.073.135.104.208a20.129 20.129 0 0 1 .726 1.785c.104.28.187.55.27.81 0 .01.01.02.01.03.073.25.146.509.218.758.01.041.031.093.042.135.03.114.062.218.083.332.041.156.083.311.114.477.031.156.073.301.104.457.03.124.062.26.083.394 0 .01 0 .031.01.042.052.29.104.56.145.82.052.363.094.695.125.996.02.208.041.405.052.581.062.841.052 1.34.052 1.34z"/><path fill="none" stroke="#000" stroke-linecap="round" stroke-linejoin="round" stroke-miterlimit="10" stroke-width="2" d="M39.19 36.357c-.271-1.056-1.445-1.851-2.853-1.851h0c-1.608 0-2.912 1.038-2.912 2.319s1.304 2.318 2.912 2.318l-.059.009c1.608 0 2.912 1.038 2.912 2.319s-1.304 2.319-2.912 2.319h0c-1.407 0-2.581-.795-2.853-1.852m2.883-7.432v-2.211m0 13.705v-2.211M22 20s-6 0-6 6m1-8s-2 0-2-2"/></svg>