<svg viewBox="0 0 72 72" xmlns="http://www.w3.org/2000/svg"><g fill="none" stroke="#000" stroke-linecap="round" stroke-linejoin="round" stroke-miterlimit="10" stroke-width="2"><path d="M47.906 52.066 37.261 30.593l-7.352 3.644L21.15 22.14l3.197-2.405 7.01 9.32 4.126-2.046-.013-.027 3.584-1.777L51.49 50.289z"/><path d="M12.052 12.015h47.897v47.897H12.052zm39.787 24.07h7.966m-47.066 0H26.04m29.167 11.908h4.476m-46.944 0h28.622m6.873 8.088.017 3.289m-.218-47.311.12 22.446m-11.969 3.677v21.391m0-47.243v9.955M24.225 33.302v26.271m0-47.453v3.532m19.03 8.525h15.971m-46.962 0h5.288"/></g></svg>