<svg viewBox="0 0 72 72" xmlns="http://www.w3.org/2000/svg"><g fill="none" stroke="#000" stroke-linecap="round" stroke-linejoin="round" stroke-miterlimit="10" stroke-width="2"><path d="M57.008 20.304v-3.356l-27.338-.002a.364.364 0 0 1-.36-.369l-.068-1.517c-.116-1.787-1.34-3.003-2.996-3.003H14.959a3 3 0 0 0-3 3V56"/><path d="M17.027 55.568c-.59 1.954-2.222 4.139-3.896 4.394l43.915.01c1.657 0 2.323-.438 3-3 .677-2.56 7-31.657 7-31.657a1 1 0 0 0-1-1H24.965a1 1 0 0 0-1 1s-6.348 28.299-6.938 30.253z"/></g></svg>