<svg viewBox="0 0 72 72" xmlns="http://www.w3.org/2000/svg"><g fill="none" stroke="#000" stroke-linecap="round" stroke-linejoin="round" stroke-miterlimit="10" stroke-width="2"><path d="M53.35 12.273H60v16H12v-16h8.46m5.106 0H48.48"/><path d="m53.35 12.275-1.965 3.122s.994 2.767 1.085 2.9a3 3 0 1 1-4.94.003c.08-.12-.91-2.903-.91-2.903l1.86-3.134m-23.15.012-1.965 3.122s.994 2.767 1.085 2.9a3 3 0 1 1-4.94.003c.081-.12-.91-2.903-.91-2.903l1.86-3.134" clip-rule="evenodd"/><path d="M34.336 38.092a5.63 5.63 0 0 1 5.513-4.494h0c1.554 0 2.96.63 3.98 1.649 1.584 1.584 1.437 4.217-.05 5.893l-9.558 10.78h4.76M23.276 37.398l5.073-3.8V51.92"/><path d="M11.997 28.092v32l31.66-.006 16.34-12.048V28.092"/><path d="M59.746 48.038H43.138v5.48"/></g></svg>