<svg viewBox="0 0 72 72" xmlns="http://www.w3.org/2000/svg"><g fill="none" stroke="#000" stroke-linecap="round" stroke-linejoin="round" stroke-miterlimit="10" stroke-width="2"><path d="M49.686 11.952h4.983v52.021a3 3 0 0 1-3 3H19.82a3 3 0 0 1-3-3V11.952h4.615m29.362 3.893V54.96"/><path d="M43.417 56.377v-1.413l7.379-.004-7.36 6.462H20.9V15.846m3.681 6.769h12.766m-12.766 4h16.982m-16.982 4h20.2m-20.2 4h13.552m-13.552 4h16.411m-16.411 4h7.122m10.573-31.671H38.48a2.725 2.725 0 1 0-5.042 0h-4.061a4.286 4.286 0 0 0-4.286 4.286h21.471a4.286 4.286 0 0 0-4.286-4.286z"/></g></svg>