<svg viewBox="0 0 72 72" xmlns="http://www.w3.org/2000/svg"><g fill="none" stroke="#000" stroke-linecap="round" stroke-linejoin="round" stroke-miterlimit="10" stroke-width="2"><circle cx="22" cy="19.849" transform="rotate(-89.45 22 19.848)" clip-rule="evenodd" r="3"/><path d="M26.006 12.122h20.05m7.96 0H60v16H12v-16h6.032"/><path clip-rule="evenodd" d="M22.015 8.688v10.31"/><circle cx="50.001" cy="19.849" transform="rotate(-89.45 50 19.848)" clip-rule="evenodd" r="3"/><path clip-rule="evenodd" d="M50.016 8.688v10.31"/><path d="M34.336 38.092a5.63 5.63 0 0 1 5.513-4.494h0c1.554 0 2.96.63 3.98 1.649 1.584 1.584 1.437 4.217-.05 5.893l-9.558 10.78h4.76M23.276 37.398l5.073-3.8V51.92"/><path d="M11.997 28.092v32l31.66-.006 16.34-12.048V28.092"/><path d="M59.746 48.038H43.138v5.48"/></g></svg>