<svg viewBox="0 0 72 72" xmlns="http://www.w3.org/2000/svg"><g fill="none" stroke="#000" stroke-linecap="round" stroke-linejoin="round" stroke-miterlimit="10" stroke-width="2"><path d="M16.12 12.01c0-.55.447-.998.998-.998h43.003c.552 0 .999.447.999.999v43.003a.999.999 0 0 1-.999.998"/><path d="M55.134 61H12.13a.999.999 0 0 1-.999-.999V16.998A1 1 0 0 1 12.13 16h43.003c.551 0 .998.447.998.999V60a.999.999 0 0 1-.998.999zM7 23.411h8.712M7 29.447h8.712M7 35.482h8.712m0 6.036H7m0 6.035h8.712M7 53.589h8.712"/></g></svg>