<svg viewBox="0 0 72 72" xmlns="http://www.w3.org/2000/svg"><path d="m38.07 47.191 2.386 2.386-3.464 1.28z"/><path fill="none" stroke="#000" stroke-linecap="round" stroke-linejoin="round" stroke-miterlimit="10" stroke-width="2" d="M22.322 19.875h27m-27 8h25.6m-25.6 8h17.109m-17.109 8h12.206m-12.206 8h10.146"/><path d="m38.07 47.191 2.386 2.386-3.464 1.28z"/><path fill="none" stroke="#000" stroke-linecap="round" stroke-linejoin="round" stroke-miterlimit="10" stroke-width="2" d="m40.692 49.591 5.664-1.967 15.59-15.59-6.454-6.454-15.59 15.59-1.974 5.671zm17.394-26.605 1.555-1.555 6.454 6.454-1.632 1.632M40.279 40.793l6.454 6.454"/><path fill="none" stroke="#000" stroke-linecap="round" stroke-linejoin="round" stroke-miterlimit="10" stroke-width="2" d="m37.932 46.828-1.383 4.149 4.159-1.392m10.594-19.428 6.202 6.202"/><path fill="none" stroke="#000" stroke-linecap="round" stroke-linejoin="round" stroke-miterlimit="10" stroke-width="2.021" d="M55.322 44.228v15.647h-39v-48h39v8.456"/></svg>