<svg viewBox="0 0 72 72" xmlns="http://www.w3.org/2000/svg"><g fill="none" stroke="#000" stroke-linecap="round" stroke-linejoin="round"><path transform="matrix(1.059 0 0 1.058 -8.462 -4.752)" stroke-width="1.889" d="M60 28.75V17H49.32"/><path stroke-width="2" d="M55.06 45.53V31.68"/><path transform="matrix(1.059 0 0 1.058 -8.462 -4.752)" stroke-width="1.889" d="M22 63.09V65h38V53.33"/><path transform="matrix(1.059 0 0 1.058 -8.462 -4.752)" stroke-width="1.889" d="M55 48V22.68L44.32 12H17v48h38v-7"/><path transform="matrix(1.059 0 0 1.058 -8.462 -4.752)" stroke-width="1.889" d="M55 23H44.3l.02-11m15.23 22-1.84-2.48 1.84-2.48H67V34zm-5 18.96-1.84-2.48L54.55 48H62v4.96z"/><path stroke-width="2" d="M15.89 17.48h14.82m-14.82 8.46h27.52m-27.52 7.41h27.52m-27.52 8.47h27.52m-27.52 8.47h27.52"/></g></svg>