<svg viewBox="0 0 72 72" xmlns="http://www.w3.org/2000/svg"><g fill="none" stroke="#000" stroke-linecap="round" stroke-miterlimit="10" stroke-width="2"><path d="M53.774 13.502v39.62a2.704 2.704 0 0 1-2.701 2.702H20.456a2.698 2.698 0 0 1-2.701-2.701V13.502a2.698 2.698 0 0 1 2.701-2.702h30.617a2.704 2.704 0 0 1 2.701 2.701z"/><path d="M53.774 13.502v39.62a2.704 2.704 0 0 1-2.701 2.702H20.456a2.698 2.698 0 0 1-2.701-2.701V13.502a2.698 2.698 0 0 1 2.701-2.702h30.617a2.704 2.704 0 0 1 2.701 2.701z"/><path d="M22.658 29.653c-.79-.042-1.413-.629-1.413-1.349v-6.079h28.8v6.08c0 .747-.673 1.35-1.505 1.35"/><path d="M50.064 19.14v4.043h-28.8v-4.042c0-.895.673-1.617 1.506-1.617h25.79c.832 0 1.504.722 1.504 1.617z"/><path d="M50.064 19.14v4.043h-28.8v-4.042c0-.895.673-1.617 1.506-1.617h25.79c.832 0 1.504.722 1.504 1.617z"/><path stroke-linejoin="round" d="M30 60.25V69h11v-8.938M34.93 26.73l-2.081 2.226c-.11.12-.211.24-.292.358-.915 1.224-.915 2.647.01 3.86.08.12.181.24.282.349l2.113 2.258 7.475 8.019H28.946c-.443 0-.845-.1-1.157-.279-.393-.209-.644-.537-.644-.895L27 26.594"/><path stroke-linejoin="round" d="M43 26.837v16.107c0 .289-.181.577-.463.786l-.1.07-7.475-8.019-2.113-2.258c-.1-.11-.201-.23-.282-.349-.925-1.213-.925-2.636-.01-3.86.08-.12.181-.238.292-.358l2.103-2.248.041-.045"/></g></svg>