<svg viewBox="0 0 72 72" xmlns="http://www.w3.org/2000/svg"><g fill="none" stroke="#000" stroke-width="2"><path stroke-linecap="round" stroke-linejoin="round" d="M40 15.346c-7.5-.125-15.804-.044-15.804-.044m1.381 26.394L58.7 41.6v-14c0-5.4-2.963-10.422-7.3-11.6a30.007 30.007 0 0 0-4.8-.463"/><path stroke-linejoin="round" d="M41.2 33h.9a1.12 1.12 0 0 0 1.2-1V22h2.1a1.12 1.12 0 0 0 1.2-1v-7.4a1.126 1.126 0 0 0-1.2-1h-4.2a1.12 1.12 0 0 0-1.2 1V32a1.126 1.126 0 0 0 1.2 1z"/><path stroke-miterlimit="10" d="M34.6 27.6v11.8a2.163 2.163 0 0 1-2.1 2.3H15.3a2.15 2.15 0 0 1-2-2.3V26.6a12.27 12.27 0 0 1 4.6-9.1 9.502 9.502 0 0 1 6.1-2.2 13.552 13.552 0 0 1 2 .2c4.9 1.1 8.6 6.1 8.6 12.1z"/><path stroke-linecap="round" stroke-linejoin="round" d="M39.3 59.4V41.653l-6.813.009.013 4.738v13m-4.213-24.94-4.969 4.72a2.44 2.44 0 0 1-.266-1.054V25.982"/><path stroke-linecap="round" stroke-linejoin="round" d="M34.253 39.73h-10.18a1.049 1.049 0 0 1-.799-.55l5.368-5.087m5.529-8.661H23.806a.901.901 0 0 0-.71.459c0 .045-.044.045-.044.091l7.009 6.737 1.996 1.878c.089.092.222.184.31.275a2.85 2.85 0 0 0 1.803.612"/></g></svg>