<svg viewBox="0 0 72 72" xmlns="http://www.w3.org/2000/svg"><g fill="none" stroke="#000" stroke-linecap="round" stroke-linejoin="round" stroke-width="2"><path d="M19.64 25.98s24.79 1.289 40-9.142m-40 28.042s24.79-1.289 40 9.142M12.85 25.98h6.787v18.63H12.85a2 2 0 0 1-2-2V27.98a2 2 0 0 1 2-2z"/><rect x="59.64" y="15.29" rx="2" ry="2" width="6" height="40.01"/><path d="m19.636 44.92.877 4.648h-1.5l1.564 8.299h.5l.38 2.016-5.476.076-2.835-15.04M19.64 25.98s24.79 1.289 40-9.142m-40 28.042s24.79-1.289 40 9.142M10.85 28.79H8.365a2 2 0 0 0-2 2v8.922a2 2 0 0 0 2 2h2.485M13.64 41h3"/></g></svg>