<svg viewBox="0 0 72 72" xmlns="http://www.w3.org/2000/svg"><g fill="none" stroke="#000" stroke-linecap="round" stroke-linejoin="round" stroke-width="2"><path d="M61.262 21.168 35.572 6.336 9.882 21.168v29.664l25.69 14.832 25.69-14.832V21.168zm-25.69 14.865v29.631m.058-29.631L9.94 21.201m42.577 5.049 8.745-5.049m-25.69 14.832 8.616-4.974"/><path d="m26.884 11.457 25.638 14.801v6.025a2.28 2.28 0 0 1-1.14 1.975l-4.944 2.854a1.497 1.497 0 0 1-2.245-1.296v-4.749L18.623 16.25m12.46 22.667-8.298-4.653v7.442l8.298 4.653v-7.442zm23.084 15.749V51.66a.847.847 0 0 0-1.271-.734l-6.073 3.506a1.97 1.97 0 0 0-.985 1.707v3.336m-1.411-13.529v.869a1.497 1.497 0 0 0 2.245 1.296l6.805-3.76a2.28 2.28 0 0 0 1.14-1.975v-1.118a1.444 1.444 0 0 0-2.166-1.25l-6.745 3.724a2.557 2.557 0 0 0-1.279 2.214z"/></g></svg>