<svg viewBox="0 0 72 72" xmlns="http://www.w3.org/2000/svg"><g fill="none" stroke="#000" stroke-miterlimit="10" stroke-width="2"><path d="M27.815 13.764c-.684 0-1.358.073-2.01.22h-.01a8.861 8.861 0 0 0-1.99-.22h4.01z"/><path stroke-linecap="round" stroke-linejoin="round" d="M35.87 13.77h-11.8m27.28.66c4.22 1.63 7.25 6.19 7.25 11.55v10.14c0 2.03-1.34 3.72-3.07 3.95-.14.02-.27.03-.42.03l-29.56-.03c.07 0 .14 0 .21-.01"/><path d="M34.52 25.972V37.75c0 1.274-.916 2.316-2.053 2.316H15.175c-1.137 0-2.042-1.042-2.042-2.316V25.036c.242-3.768 1.99-7.063 4.578-9.104 1.716-1.358 3.831-2.168 6.094-2.168.684 0 1.347.073 1.99.22h.01c4.957 1.064 8.714 6.031 8.714 11.988z"/><path stroke-linecap="round" d="M21.553 17.405v3.115c0 .58.473 1.053 1.052 1.053h2.105c.58 0 1.053-.474 1.053-1.053v-3.178"/><path stroke-linejoin="round" d="M41.087 31.354h.934c.643 0 1.169-.44 1.169-.979v-9.98h2.103c.643 0 1.168-.441 1.168-.98V11.98c0-.539-.525-.98-1.168-.98h-4.206c-.643 0-1.169.441-1.169.98v18.396c0 .538.526.979 1.169.979z"/><path stroke-linecap="round" d="M39.23 44.875V57.78c0 1.85-1.51 3.37-3.36 3.37-.93 0-1.77-.38-2.38-.99s-.99-1.46-.99-2.38V44.844"/></g></svg>