<svg viewBox="0 0 72 72" xmlns="http://www.w3.org/2000/svg"><g fill="none" stroke="#000" stroke-linecap="round" stroke-linejoin="round"><path stroke-width="2" d="M8.61 30.693c-.523-1.947-.803-3.873-.803-5.693h-5c0 6.053 2.339 13.15 6.162 18.921m47.897-14.454C54.051 19.947 45.241 13 34.807 13c-12.702 0-23 10.297-23 23a22.89 22.89 0 0 0 3.859 12.756"/><path stroke-width="2" d="M46.157 26.193A14.966 14.966 0 0 0 34.807 21c-8.284 0-15 6.716-15 15 0 2.346.54 4.567 1.5 6.544m26.096.896.39-.59c1.82-2.72 2.28-6.27 1.26-9.4 0-.01 0-.02-.01-.03-.24-.75-.56-1.46-.98-2.14-.13-.23-.28-.46-.44-.67-.06-.1-.14-.2-.21-.3l.04-.03.15-.12 3.19-2.45 7.02 9.12.92 1.2 10.43 13.57-3.38 2.6a10.3 10.3 0 0 0-12.06-3.25"/><path stroke-width="2.143" d="M49.843 54.61c-14.54 9.47-27.82 2.42-31.8-.17-.61-.39-.72-1.22-.28-1.77.02-.04.06-.08.09-.11l.47-.57 3.11-3.74 1.68-2.02c.39-.39.99-.45 1.47-.18.38.21.77.41 1.14.6 8.25 3.99 15.14.76 17.41-.57.43-.26.97-.22 1.36.08.04.03.08.06.12.1l.36.43.01.01 3.09 3.71 1.86 2.23.08.1c.02.02.03.03.04.05.09.1.16.2.21.32.23.52.08 1.17-.42 1.5z"/></g></svg>