<svg viewBox="0 0 72 72" xmlns="http://www.w3.org/2000/svg"><g fill="none" stroke="#000" stroke-linecap="round" stroke-linejoin="round" stroke-miterlimit="10" stroke-width="2"><path d="M63.843 54.9H8.28a3 3 0 0 1-3-3V17.059h61.563v34.84a3 3 0 0 1-3 3z"/><path d="M22.684 30.348a8.706 8.706 0 0 0 0 17.412V30.348zM49.187 47.76a8.706 8.706 0 0 0 0-17.413V47.76z"/><path d="M22.684 35.274a3.78 3.78 0 0 0 0 7.559v-7.559zm4.39-3.398H44.63v13.58H27.074zM11 28.115v-7.04h49.983v7.04M49.187 42.833a3.78 3.78 0 0 0 0-7.559v7.559zM16.783 25.812h39.339"/></g></svg>