<svg viewBox="0 0 72 72" xmlns="http://www.w3.org/2000/svg"><g fill="none" stroke="#000" stroke-linecap="round" stroke-linejoin="round" stroke-miterlimit="10" stroke-width="2"><path d="M12.126 33.197v16.004c0 1.691 1.407 3.063 3.144 3.063h41.66c1.737 0 3.144-1.372 3.144-3.063V25.98c0-1.691-1.407-3.062-3.144-3.062H29.467m17.685 10.279h12.466"/><path d="M30.614 28.127a9.987 9.987 0 0 1 3.238-.536c5.523 0 10 4.477 10 10 0 5.522-4.477 10-10 10-5.522 0-10-4.478-10-10 0-1.029.156-2.021.444-2.955"/><circle cx="33.852" cy="37.591" r="5"/><path d="m13.874 22.56-8.263 9.613 10.124-5.476 1.34 12.332 3.945-11.31 6.924 4.17-5.51-8.976L31.89 17.4l-11.613 3.18-1.042-10.673-3.127 10.179-10.496-4.312z"/></g></svg>