<svg viewBox="0 0 72 72" xmlns="http://www.w3.org/2000/svg"><g fill="none" stroke="#000" stroke-linecap="round" stroke-linejoin="round" stroke-miterlimit="10" stroke-width="2"><path d="m45.346 29.138.33-.588c.638-1.06.444-2.274-.379-2.879s-2.284-.09-2.921.97l-1.164 1.787m7.396-7-.969 1.026m-5.992-1.997.881 1.255m4.37 10.313.045.161m-9.296-6.66 1.198.263m11.807 2.164-1.288-.443M21.956 43.993h12.307m-12.307 4h12.307m-12.307 4h12.307m-12.307-8h12.307m-12.307 4h12.307m-12.307 4h12.307m8.415-1.65v-5.61h-.013l-.026-12.87-12.371.065-13.43 10.537v13.487h32.485v-5.61zm19.085-3.849h-6.856v-6.556h6.856s-.295.822-.295 3.278.294 3.278.294 3.278z"/><path d="M56.06 46.494h-8.01v-6.556h8.01m-41.746.657c-4.003-2.14-6.159-6.822-4.937-11.397 1.426-5.336 6.907-8.506 12.242-7.08a9.997 9.997 0 0 1 7.112 7.19"/><path d="m22.753 33.62-1.593-1.762c-.802-.942-2.015-1.145-2.85-.558s-.813 2.136-.012 3.078l1.324 1.672m-1.387-10.51.15 1.404m-5.413 3.255 1.526.145m-.275 6.19.979-.74m9.32-7.564-1.174.69m23.729 6.758c.612-.173 1.363-.466 2.5-1.1 1.994-1.114 2.991-2.726 2.991-2.726a9.997 9.997 0 0 0 .841-10.078c-2.386-4.98-8.358-7.085-13.339-4.699-4.27 2.046-6.426 6.728-5.45 11.161"/></g></svg>