<svg viewBox="0 0 72 72" xmlns="http://www.w3.org/2000/svg"><g fill="none" stroke="#000" stroke-linejoin="round" stroke-width="2"><path d="M13.697 34.307c0-7.532 2.924-15.258 10.12-15.258 6.898 0 10.274 6.055 10.585 15.258"/><path stroke-linecap="round" d="M37.48 50.39v1.554H10.561V34.3H37.48"/><path stroke-linecap="round" d="m41.799 44.313-1.686 2.293-5.412 1.267-.595-5.048 1.757-2.303m1.225 4.18-1.686 2.293M61.44 17.03l-2.188-1.35-2.16-1.386s-7.148 5.727-11.397 11.742a109.015 109.015 0 0 0-7.93 12.493l2.828 1.78 2.659 1.674a138.853 138.853 0 0 0 10.09-11.135 63.418 63.418 0 0 0 8.097-13.817z"/><path d="m43.208 29.643 7.405 4.658"/></g></svg>