<svg viewBox="0 0 72 72" xmlns="http://www.w3.org/2000/svg"><g fill="none" stroke="#000" stroke-linecap="round" stroke-width="2"><path stroke-miterlimit="10" d="M33.013 23.093V8.21a3.307 3.307 0 0 0-3.307-3.307h0a3.307 3.307 0 0 0-3.307 3.307h0v14.883m23.151 0V8.21a3.307 3.307 0 0 0-3.307-3.307h0a3.307 3.307 0 0 0-3.307 3.307h0v14.883"/><path stroke-linejoin="round" d="M19.435 23.189v11.48c0 10.046 8.144 18.19 18.19 18.19s18.19-8.144 18.19-18.19v-11.48h-36.38z"/><path stroke-linejoin="round" d="M31.011 51.81 32.665 58h9.921l1.654-6.166m-10.622 14.25V58h8.063v8.084"/></g></svg>