<svg viewBox="0 0 72 72" xmlns="http://www.w3.org/2000/svg"><g fill="none" stroke="#000" stroke-linecap="round" stroke-linejoin="round" stroke-width="2"><circle cx="36" cy="36" r="30"/><path d="M36.29 27.28a6.789 6.751 0 0 1 2.35-8.026 6.789 6.751 0 0 1 8.398.4 6.789 6.751 0 0 1 1.569 8.212 6.789 6.751 0 0 1-7.666 3.433"/><path d="M40.75 31.64a11.31 11.25 0 0 1 9.863 3.175 11.31 11.25 0 0 1 3.123 9.831M45.74 53.55a11.31 11.25 0 0 1-11.15-2.844 11.31 11.25 0 0 1-2.874-11.09"/><path stroke-miterlimit="10" d="M26.5 18.09v.041m0 16.13v19.72"/><path d="M55.66 51.44A24.99 24.99 0 0 0 20.6 16.31zM16.99 19.77a24.99 24.99 0 0 0 35.2 35.27z"/></g></svg>