<svg viewBox="0 0 72 72" xmlns="http://www.w3.org/2000/svg"><g fill="none" stroke="#000" stroke-linecap="round" stroke-linejoin="round" stroke-miterlimit="10" stroke-width="2"><path d="M39.467 33.42c.581-8.034-5.889-14.587-12.82-14.369-6.872.217-12.45 7.083-12.45 14.37m27.501 2.899h1.63v23.372H10.283V36.32h1.63z"/><path d="M17.825 33.42c0-5.509 3.979-10.7 8.88-10.864 4.944-.165 9.559 4.79 9.144 10.864m20.176 2.606.257 20.446-4.561 4.56-4.766-4.765 2.921-2.921-3.228-3.228 3.69-3.69-3.212-3.211v-3.03l2.745-2.745-1.27-1.27"/><circle cx="51.535" cy="18.109" transform="rotate(-45.001 51.535 18.11)" r="3.521"/><path d="M56.017 31.636c3.57-1.769 6.027-5.59 5.993-10-.046-6.057-4.772-10.932-10.556-10.888-5.784.044-10.435 4.99-10.39 11.047.038 4.898 3.134 9.022 7.376 10.399"/></g></svg>