<svg viewBox="0 0 72 72" xmlns="http://www.w3.org/2000/svg"><g fill="none" stroke="#000" stroke-linecap="round" stroke-linejoin="round" stroke-miterlimit="10" stroke-width="2"><path d="M37.232 41.013A5 5 0 0 1 31 36.166v-17a5 5 0 0 1 10 0v3"/><path d="M37.36 46.074c-.445.06-.899.092-1.36.092-5.523 0-10-4.477-10-10v-17c0-5.523 4.477-10 10-10s10 4.477 10 10v7"/><path d="M34.76 30.32A5 5 0 0 1 41 35.166v17.001a5 5 0 0 1-10 0v-3"/><path d="M34.75 25.244a9.93 9.93 0 0 1 1.25-.078c5.523 0 10 4.477 10 10v17c0 5.523-4.477 10-10 10s-10-4.477-10-10v-6"/></g></svg>