<svg viewBox="0 0 72 72" xmlns="http://www.w3.org/2000/svg"><path d="M14.5 27.5 27.156 39v-8.433H43.5m-16.344-6.134V16L14.5 27.5m29 3.067V39l12.656-11.5m0 0L43.5 16v8.433H27.156m6.236 29.95v-10l7.142 10v-10m-13.571 9.962h0a3.571 3.571 0 0 1-3.571-3.571v-2.858a3.571 3.571 0 0 1 3.571-3.571h0a3.571 3.571 0 0 1 3.571 3.571v2.858a3.571 3.571 0 0 1-3.57 3.57zM46.329 44v5.929" fill="none" stroke="#000" stroke-linecap="round" stroke-linejoin="round" stroke-width="2"/><circle cx="46.329" cy="53.599" r="1.371"/></svg>