<svg viewBox="0 0 72 72" xmlns="http://www.w3.org/2000/svg"><path d="M21.63 61.556c3.479 3.611 8.67 5.476 13.992 5.476 5.055 0 10.708-1.963 14.241-5.468M21.51 57.456s-10.531-11.201-.454-25.98c0 0 .197 4.06 1.255 6.582.484 1.036 1.212 1.957 2.349 1.957 1.335 0 2.418-.897 2.418-2.57v-.92c.105-3.099-.525-7.665 3.57-17.19 0 0 7.037 3.784 3.992-14.611 0 0 14.88 10.442 14.276 28.217 0 1.269.968 2.298 2.162 2.298s2.161-1.029 2.161-2.298c.075.134 6.322 13.078-2.514 24.515M22.82 22.973a5.694 5.694 0 0 1 1.923-3.319s1.902-1.635 1.595-3.83" fill="none" stroke="#000" stroke-linecap="round" stroke-linejoin="round" stroke-miterlimit="10" stroke-width="2"/></svg>