<svg viewBox="0 0 72 72" xmlns="http://www.w3.org/2000/svg"><g fill="none" stroke="#000" stroke-linecap="round" stroke-linejoin="round" stroke-width="2"><path d="M32.265 37.58a1.894 1.894 0 0 1-2.433.282 2.001 2.001 0 0 1-.879-2.294m9.909-3.677-3.986 6.734-7.7-4.659L38.293 15.38l7.7 4.659-.879 1.453M17.713 43.07l.818-1.825 19.163 8.59-.819 1.825zm-.737 11.913h37v5h-37zm23.578-38.51 1.69-2.793 3.422 2.071-1.69 2.793zm.628 34.327a7.081 7.081 0 0 1 12.794 4.183m-16.715-4.184h3.921"/><path d="m48.238 48.03.245-.75c3.204-9.796-2.122-15.52-5.572-18.057"/><path d="M45.114 25.952c4.302 3.194 11.134 10.453 7.172 22.572l-.454 1.385"/><circle cx="42.138" cy="26.325" r="3"/></g></svg>