<svg viewBox="0 0 72 72" xmlns="http://www.w3.org/2000/svg"><path fill="none" stroke="#000" stroke-linecap="round" stroke-linejoin="round" stroke-miterlimit="10" stroke-width="2" d="M40.157 67.005v-8.472a10.95 10.95 0 0 0 5.5 1.472c4.784 0 9.192-2.01 10.496-6.94.31-1.177.35-2.41.235-3.623l-.176-.781a66.513 66.513 0 0 1-1.555-17.656h3l-4.503-7.84-4.497 7.84h3l-.48 9.125-.267 5.077a10.774 10.774 0 0 1-.99 3.977h0c-1.702 3.658-6.902 3.66-8.606.002h0a11.732 11.732 0 0 1-1.057-3.98l-1.6-19.2-.033-.34h3l-4.497-7.841-4.503 7.84h3v.197l-1.6 19.2a11.731 11.731 0 0 1-1.057 3.98h0c-1.703 3.658-6.904 3.656-8.605-.002h0c-.582-1.25-.918-2.6-.99-3.977l-.267-5.077-.48-9.124h3l-4.497-7.84-4.504 7.84h3a66.513 66.513 0 0 1-1.555 17.655l-.176.782c-.114 1.212-.075 2.445.236 3.622 1.303 4.931 5.71 6.94 10.495 6.94a10.95 10.95 0 0 0 5.5-1.471l.012 8.573"/></svg>