<svg viewBox="0 0 72 72" xmlns="http://www.w3.org/2000/svg"><g fill="none" stroke="#000"><rect x="41.967" y="15.008" height="3" stroke-miterlimit="10"/><path stroke-linecap="round" stroke-linejoin="round" stroke-width="2" d="M54.475 32a8.28 8.28 0 0 1-1.04 4h-22.92a8.28 8.28 0 0 1-1.04-4c0-5.52 5.6-10 12.5-10s12.5 4.48 12.5 10zm.5 24h-38.5m12.5-3.076V36h26v16.924m-33.5-11.504h7.5"/><circle cx="41.967" cy="20.008" r="2" stroke-linecap="round" stroke-linejoin="round" stroke-width="2"/><rect x="41.967" y="15.008" height="3" stroke-linecap="round" stroke-linejoin="round" stroke-width="2"/><path stroke-linecap="round" stroke-linejoin="round" stroke-width="2" d="M45.975 47.91V56h-8v-8.09a3.11 3.11 0 0 1 .5-1.67l2.84-4.25.66-.99.66.99 2.84 4.25a3.11 3.11 0 0 1 .5 1.67zm-29.5 5.014V41.42m5 0v11.504m-5-31.608V16h5v5.316m.433 5.877H16l-1.975-5.877h9.899l-2.016 5.877zm0 14.212H16l-1.975-5.876h9.899l-2.016 5.876zM16.475 16l2.5-8.137 2.5 8.137m-5 11.193v8.336m5-8.336v8.336"/></g></svg>