<svg viewBox="0 0 72 72" xmlns="http://www.w3.org/2000/svg"><g fill="none" stroke="#000" stroke-linecap="round" stroke-linejoin="round" stroke-miterlimit="10" stroke-width="2"><path d="M29.297 40.715c-2.246 3.325-7.05 5.512-11.365 5.512-6.904 0-12.5-5.597-12.5-12.5l-.105-4.914-1.895.05v-4.128s18.931-16.179 29.48 5.321h6.424c10.549-21.5 29.48-5.32 29.48-5.32v4.127l-1.895-.05-.105 4.914c0 6.903-5.596 12.5-12.5 12.5-4.314 0-9.119-2.187-11.365-5.512"/><path d="M33.359 36.71a3 3 0 1 1 6 0"/><circle cx="18.364" cy="32.561" r="9.58"/><circle cx="53.884" cy="32.561" r="9.58"/></g></svg>