<svg viewBox="0 0 72 72" xmlns="http://www.w3.org/2000/svg"><g fill="none" stroke="#000" stroke-linecap="round" stroke-linejoin="round" stroke-miterlimit="10" stroke-width="2"><path d="M8.112 36H63.89M36 8.112V63.89m19.72-47.61L16.28 55.72m39.44 0L16.28 16.28m19.86 39.6s-6.289-6.553-14.69-5.373c0 0 .191-9.123-5.838-14.25 0 0 6.442-6.65 5.997-14.67 0 0 9.38-.112 14.32-6.1 0 0 6.289 6.553 14.31 6.108 0 0 .112 9.38 6.214 14.68 0 0-6.44 6.649-5.995 14.09 0 0-9.38-.469-14.32 5.519z"/><path d="M49.25 35.48s-3.624 4.594-3.49 9.856c0 0-6.702.507-10.04 3.803 0 0-3.846-3.97-9.214-3.803 0 0-.909-6.074-4.256-9.612 0 0 4.338-4.547 4.091-9.856 0 0 6.501-.124 10.12-4.052 0 0 3.352 4.093 9.297 4.052 0 0 .142 6.365 3.49 9.612z"/></g></svg>