<svg viewBox="0 0 72 72" xmlns="http://www.w3.org/2000/svg"><path d="M54.727 58.852a1 1 0 0 1-.99-1.15c.002-.013.184-1.246.082-2.898a1 1 0 0 1 1.996-.123c.116 1.88-.092 3.265-.101 3.323a1 1 0 0 1-.986.848zm-5.112 1.118a1.002 1.002 0 0 1-.933-1.357l3.364-8.798a.999.999 0 1 1 1.867.714l-3.364 8.8a.998.998 0 0 1-.934.642zm-9.579-34.974a2 2 0 1 1 .001 4.001 2 2 0 0 1-.001-4.001zm-.11 9.81c.25.49.05 1.09-.44 1.34-1.15.57-2.3.86-3.45.86-1.15 0-2.3-.29-3.45-.86a.998.998 0 0 1-.44-1.34c.24-.5.84-.7 1.34-.45 1.71.86 3.38.86 5.1 0 .5-.25 1.1-.05 1.34.45zm-7.89-9.81a2 2 0 1 1 .001 4.001 2 2 0 0 1-.001-4.001z"/><path fill="none" stroke="#000" stroke-linecap="round" stroke-linejoin="round" stroke-miterlimit="10" stroke-width="2" d="M25.026 24.986c.2-1.03.49-2.01.86-2.93v-.01m20.4.24c.23.62.43 1.27.59 1.94.07.25.13.51.18.77.21 1.08.32 2.21.32 3.36 0 7.83-5.08 14.18-11.34 14.18s-11.34-6.35-11.34-14.18c0-1.16.11-2.28.33-3.36"/><path fill="none" stroke="#000" stroke-linecap="round" stroke-linejoin="round" stroke-miterlimit="10" stroke-width="2" d="M35.736 16.566c-3.01-.12-6.05.45-8.41 1.89-.02.01-.05.03-.07.04-.99.62-1.86 1.38-2.54 2.31.33.43.62 1.07 1.17 1.25.03.01.06.02.1.03 2.96.62 6.31.94 9.51.9"/><path fill="none" stroke="#000" stroke-linecap="round" stroke-linejoin="round" stroke-miterlimit="10" stroke-width="2" d="M27.196 18.406c1.76-4.76 6.05-9.05 8.54-9.71-14.44 1.61-13.32 12.16-10.71 16.29v.01m10.71-8.43c3.01-.12 6.05.45 8.41 1.89.02.01.05.03.07.04.99.62 1.86 1.38 2.54 2.31-.35.46-.65 1.15-1.27 1.28-2.96.62-6.3.94-9.51.9"/><path fill="none" stroke="#000" stroke-linecap="round" stroke-linejoin="round" stroke-miterlimit="10" stroke-width="2" d="M44.276 18.406c-1.76-4.76-6.05-9.05-8.54-9.71 13.63 1.52 13.4 11 11.15 15.53m-11.15-15.53v-1.42"/><path d="M38.599 58.97a1 1 0 0 1-1-1v-5.767a1 1 0 0 1 .363-.771c1.991-1.643 3.732-2.15 5.177-1.508 1.542.685 2.233 2.497 2.543 3.907l2.353-1.828a.997.997 0 0 1 1.403.176.998.998 0 0 1-.176 1.402l-3.719 2.89a1 1 0 0 1-1.612-.744c-.05-1.087-.51-3.49-1.606-3.976-.611-.269-1.568.06-2.726.935v5.285a1 1 0 0 1-1 1z"/><path fill="none" stroke="#000" stroke-linecap="round" stroke-linejoin="round" stroke-miterlimit="10" stroke-width="2" d="M46.436 45.026c-.7-.11-.89-.17-1.71-.17-3.15 2.09-5.86 3.55-8.88 3.59h-.12c-3.02-.04-5.72-1.5-8.88-3.59-4.72 0-7.28 2.01-8.64 4.46-2.1 3.76-1.36 8.54-1.36 8.54"/><path fill="none" stroke="#000" stroke-linecap="round" stroke-linejoin="round" stroke-miterlimit="10" stroke-width="2" d="M32.736 57.966v-5.76c-5.97-4.93-6.33 3.48-6.33 3.48l-8.19-6.37m14.52 2.89-5.89-7.35"/><path d="M38.598 53.203a1 1 0 0 1-.768-1.64l6.127-7.351a1.001 1.001 0 0 1 1.537 1.281l-6.127 7.35a.999.999 0 0 1-.77.36zm16.161-1.701a5.949 5.949 0 0 1-2.137-.397 5.962 5.962 0 0 1-3.335-3.156 5.956 5.956 0 0 1-.126-4.59 5.962 5.962 0 0 1 3.156-3.336 5.969 5.969 0 0 1 4.591-.125 5.959 5.959 0 0 1 3.335 3.157c.655 1.464.7 3.093.126 4.59a6.009 6.009 0 0 1-5.61 3.857zm.004-10.002a3.99 3.99 0 0 0-1.63.35 3.98 3.98 0 0 0-2.105 2.223 3.973 3.973 0 0 0 .085 3.06 3.975 3.975 0 0 0 2.224 2.105c.998.38 2.084.35 3.06-.084a3.98 3.98 0 0 0 2.105-2.223 3.977 3.977 0 0 0-.084-3.06 4.014 4.014 0 0 0-3.655-2.371z"/></svg>