<svg viewBox="0 0 72 72" xmlns="http://www.w3.org/2000/svg"><g stroke="#000"><path fill="none" stroke-linecap="round" stroke-linejoin="round" stroke-width="2.28" d="M34.318 19.38v9.444"/><circle cx="34.319" cy="10.412" r="3" fill="none" stroke-miterlimit="10" stroke-width="2"/><path fill="none" stroke-linecap="round" stroke-linejoin="round" stroke-width="2" d="m38.494 21.221 1.588 31.749c.046.919-.48 1.671-1.17 1.671a1.734 1.734 0 0 1-1.445-1.66l-2.123-18.407c-.108-.913-.567-1.66-1.027-1.66s-.922.747-1.027 1.66l-2.12 18.407a1.735 1.735 0 0 1-1.445 1.66c-.689 0-1.215-.752-1.17-1.671l1.588-31.749"/><path fill="none" stroke-linecap="round" stroke-linejoin="round" stroke-width="2" d="m26.662 36.26.662-15.874a4.406 4.406 0 0 1 4.35-4.178h5.014a4.406 4.406 0 0 1 4.351 4.178l.936 16.193"/><ellipse cx="34.319" cy="59.411" rx="8.256" ry="1.294" stroke-linecap="round" stroke-linejoin="round" stroke-width="1.56"/></g></svg>