<svg viewBox="0 0 72 72" xmlns="http://www.w3.org/2000/svg"><g fill="none" stroke="#000" stroke-linecap="round" stroke-linejoin="round" stroke-miterlimit="10"><path stroke-width="2" d="m16.887 57.924-2.422 2.423m33.45-43.194 9.651 9.65M44.751 14.022h0c-1.156-1.156-3.143-1.044-4.438.25L27.81 26.777M18.033 59.07c7.31-1.718 14.455-7.194 18.033-10.1 5.284-4.29 15.682-15.02 22.025-21.693 2.98-3.137 3.175-7.81.442-10.544h0l-.488-.487h0c-2.733-2.733-7.406-2.54-10.543.442-6.674 6.343-17.402 16.74-21.694 22.024-2.905 3.578-8.38 10.723-10.1 18.034l2.325 2.324"/><path stroke-width="1.961" d="m24.786 56.059-5.998-5.998"/></g></svg>