<svg viewBox="0 0 72 72" xmlns="http://www.w3.org/2000/svg"><path d="M45.856 36.851c-7.048 6.516-12.476 10.431-15.87 12.607l-7.639-7.675c2.18-3.395 6.092-8.815 12.593-15.848 4.77-5.16 9.764-9.914 13.802-12.448 2.944-1.848 6.597-1.572 8.866.697h0c2.269 2.268 2.545 5.922.697 8.866-2.535 4.037-7.289 9.032-12.449 13.801m-26.213 7.512s-4.79 2.473-4.209 6.133c.458 2.871-.894 3.723-3.202 6.031-1.72 1.72 6.489 3.411 9.504 1.81s4.554-3.14 5.685-6.196m.009-16.884 9.139 9.139" fill="none" stroke="#000" stroke-linecap="round" stroke-linejoin="round" stroke-miterlimit="10" stroke-width="2"/></svg>