<svg viewBox="0 0 72 72" xmlns="http://www.w3.org/2000/svg"><g fill="none" stroke="#000" stroke-linecap="round" stroke-linejoin="round" stroke-miterlimit="10" stroke-width="2"><path d="M40.326 34.262a3.5 3.5 0 1 1 6.993.293m6.997.233-.001 12.874M23.011 34.788c-1.343-1.39-3.463-1.343-4.853 0-1.39 1.343-.96 3.274.382 4.664 1.77 1.875 2.935 4.043 2.863 8.397v-.187c0 9.088 7.368 16.455 16.456 16.455s16.456-7.367 16.456-16.455"/><path d="M54.316 34.788a3.5 3.5 0 1 0-6.993-.293l-.016.194a3.5 3.5 0 1 0-6.977-.561l-.05.427V11.411l-.006.112a3.5 3.5 0 0 0-6.986-.448v22.671a3.5 3.5 0 1 0-7 0"/></g></svg>