<svg viewBox="0 0 72 72" xmlns="http://www.w3.org/2000/svg"><g fill="none" stroke="#000" stroke-linecap="round" stroke-linejoin="round" stroke-miterlimit="10"><path stroke-width="2" d="M63.194 56H9.232a5.075 5.075 0 0 1-5.074-5.075V16.033a5.075 5.075 0 0 1 5.074-5.075h53.962a5.075 5.075 0 0 1 5.075 5.075v34.892A5.075 5.075 0 0 1 63.194 56z"/><path stroke-width=".919" d="M68.269 47.563s.168 4.855-1.55 6.83-.722 1.604-3.525 1.604H9.232c-2.802 0-4.164-1.852-4.164-2.444l-.91-5.99"/><path stroke-width="2" d="M63.194 56H9.232a5.075 5.075 0 0 1-5.074-5.075V16.033a5.075 5.075 0 0 1 5.074-5.075h53.962a5.075 5.075 0 0 1 5.075 5.075v34.892A5.075 5.075 0 0 1 63.194 56zM7.213 48.492h58m-22.03 12.466c0 4.959 8.84 7.042 8.84 7.042h-31.62s8.84-2.083 8.84-7.042"/></g></svg>