<svg viewBox="0 0 72 72" xmlns="http://www.w3.org/2000/svg"><g fill="none" stroke="#000" stroke-linecap="round" stroke-linejoin="round" stroke-miterlimit="10" stroke-width="2"><path d="m11.751 21.62.012 20.692H59.75l-.012-20.693"/><path d="M11.726 15.003h48.011v6.617H11.726zm.037 27.309h47.986v17.362H11.763z"/><path d="M28.61 47.061h14.426v6.848H28.61zm-.507-18.341c-.3-.214-.667-.34-1.064-.34h-7.977a1.83 1.83 0 0 0-1.83 1.829v.852m23.738 1.396a1.83 1.83 0 0 0-1.645-1.027h-7.977a1.83 1.83 0 0 0-1.83 1.83v1.273H17.234m36.769 3.846v-1.153c0-.914-.819-1.655-1.829-1.655h-7.977c-1.01 0-1.83.741-1.83 1.655v1.153H17.233"/></g></svg>