<svg viewBox="0 0 72 72" xmlns="http://www.w3.org/2000/svg"><g fill="none" stroke="#000" stroke-linecap="round" stroke-linejoin="round" stroke-width="2"><path d="M48.074 16.79c1.554-.913 3.278-2.048 5.137-1.685A11.643 11.643 0 0 1 62 24.316c.559 2.917-1.341 5.611-3.423 7.295M28.666 44.583s-2.967-5.306-10.406-8.998L48.074 16.79M26.918 56.914 58.577 31.61"/><path d="M21.91 48.852c.085-3.117-2.231-2.997-2.231-2.997-1.623-.103-2.34 1.397-2.656 2.697a5.237 5.237 0 0 0 .344 3.504c2.09 4.31 6.576 1.964 6.576 1.964a5.825 5.825 0 0 0 2.566-5.673 3.953 3.953 0 0 0-.334-1.308 7.697 7.697 0 0 0-5.41-4.759 6.46 6.46 0 0 0-7.188 3.845 11.613 11.613 0 0 0-.592 1.667 4.935 4.935 0 0 0-.158.921 9.557 9.557 0 0 0 4 8.653c7.245 4.439 11.747-2.462 11.747-2.462a9.206 9.206 0 0 0 .876-8.6c-2.271-6.444-11.19-10.72-11.19-10.72"/><path d="M16.347 43.011c.343-.189 6.306-3.93 6.306-3.93m30.687-3.496c.158-9.66-7.006-12.987-7.006-12.987m12.243 9.012a11.36 11.36 0 0 0-5.42-10.75m-6.513 19.955a12.54 12.54 0 0 0-5.19-14.202l-11.586 7.189s9.455 5.754 6.823 15.345z"/></g></svg>