<svg viewBox="0 0 72 72" xmlns="http://www.w3.org/2000/svg"><circle cx="21.997" cy="19.941" transform="matrix(.0096 -1 1 .0096 1.847 41.746)" fill="none" stroke="#000" stroke-linecap="round" stroke-linejoin="round" stroke-miterlimit="10" stroke-width="2" clip-rule="evenodd" r="3"/><path fill="none" stroke="#000" stroke-linecap="round" stroke-linejoin="round" stroke-miterlimit="10" stroke-width="2" d="M11.997 12.214h48v16h-48z"/><circle cx="49.998" cy="19.941" transform="matrix(.0096 -1 1 .0096 29.58 69.745)" fill="none" stroke="#000" stroke-linecap="round" stroke-linejoin="round" stroke-miterlimit="10" stroke-width="2" clip-rule="evenodd" r="3"/><path fill="none" stroke="#000" stroke-linecap="round" stroke-linejoin="round" stroke-miterlimit="10" stroke-width="2" d="M11.997 28.092v32l31.66-.006 16.34-12.048V28.092"/><circle cx="18.217" cy="33.673" transform="rotate(-89.45 18.217 33.671)" r="2"/><circle cx="24.217" cy="33.673" transform="matrix(.0096 -1 1 .0096 -9.686 57.566)" r="2"/><circle cx="30.217" cy="33.673" transform="matrix(.0096 -1 1 .0096 -3.743 63.566)" r="2"/><circle cx="36.217" cy="33.673" transform="matrix(.0096 -1 1 .0096 2.2 69.566)" r="2"/><circle cx="18.217" cy="39.673" transform="matrix(.0096 -1 1 .0096 -21.628 57.51)" r="2"/><circle cx="24.217" cy="39.673" transform="matrix(.0096 -1 1 .0096 -15.685 63.51)" r="2"/><circle cx="30.217" cy="39.673" transform="matrix(.0096 -1 1 .0096 -9.743 69.509)" r="2"/><circle cx="36.217" cy="39.673" transform="matrix(.0096 -1 1 .0096 -3.8 75.509)" r="2"/><circle cx="18.217" cy="45.673" transform="rotate(-89.45 18.217 45.671)" r="2"/><path fill="none" stroke="#000" stroke-linecap="round" stroke-linejoin="round" stroke-miterlimit="10" stroke-width="2" d="M59.87 48.038H43.137v5.48"/></svg>