<svg viewBox="0 0 72 72" xmlns="http://www.w3.org/2000/svg"><g fill="none" stroke="#000" stroke-linejoin="round" stroke-width="2"><path d="M49.273 31.214c-.096-.796-.743-2.11-.618-3.102 0 0 3.906-.713 2.359-2.726-.866-1.128-2.58-3.35-2.477-4.344C49 16.597 47 9.597 38 9.597c-11 0-14 7-14 12 0 5.808 2.988 8 4 11 1.441 4.272 5 7 11 8 3.944.657 10 1 9.398-3-.16-1.065.375-2.417.498-3.397l-2.85-1.377 3.227-1.61z"/><path stroke-linecap="round" d="m54 28.597 2-2m0 4.885h2M54 34l2 2m2 23.886s0-2-1-6c-1.21-4.846-6-8-12-8H28c-6 0-11.79 3.154-13 8-1 4-1 6-1 6"/></g></svg>