<svg viewBox="0 0 72 72" xmlns="http://www.w3.org/2000/svg"><g fill="none" stroke="#000" stroke-width="2"><path stroke-linecap="round" stroke-linejoin="round" d="M27.44 43.196h17.12l-1.041 5.5H28.385l-.945-5.5zM5.019 62.5h61.962V67H5.019z"/><path stroke-miterlimit="10" d="M29.786 62c0-5.314 2.845-9.622 6.356-9.622s6.356 4.308 6.356 9.622"/><path stroke-linecap="round" stroke-linejoin="round" d="M42.877 49.5a17.042 17.042 0 0 0 3.03 5.827A25.634 25.634 0 0 0 54.57 62M40.255 34.591c-.1-.929-.255-2.521-.36-4.527-.176-3.41-.1-6.118-.084-6.14a104.18 104.18 0 0 0 1.61 19.158m-12.589 6.243a17.874 17.874 0 0 1-3.364 7.002 18.536 18.536 0 0 1-7.691 5.537m14.17-27.273c.1-.929.255-2.521.359-4.527.177-3.41.1-6.118.085-6.14a104.18 104.18 0 0 1-1.61 19.158M36.182 17.5h-5.437l-.543 5.886h11.96l-.543-5.886h-5.437m-1.738-.5V6h3.348v11"/></g></svg>