<svg viewBox="0 0 72 72" xmlns="http://www.w3.org/2000/svg"><g fill="none" stroke="#000" stroke-linecap="round" stroke-linejoin="round" stroke-width="2"><path d="M37.261 20.382s2.023 5.834 5.714 7.546c2.75 1.275 1.495 3.138 1.495 3.138a7.038 7.038 0 0 1-2.066 2.165"/><path d="M39.868 25.226a9.27 9.27 0 0 0 1.738-4.844c0-2.535-4.35-8.976-10.827-8.655-6.24.309-6.237 3.119-6.237 3.119s-.899 11.201 1.078 18.386a5.11 5.11 0 0 0 .845 1.724"/><path d="M27.045 18.864c.92 4.847 2.511 14.954 1.656 23.292 0 0 10.18 9.077 18.74 4.002l-2.185-8.395s-2.188-1.034-6.14 0c0 0 6.14 0 7.325 4.553"/><path d="M37.261 31.29s4.66-2.43 3.283-.263m7.802 29.967c-8.56 5.076-18.74-4.001-18.74-4.001m18.74 3.965c0-5.054-4.072-13.523-4.072-13.523M29.69 42.956a10.843 10.843 0 0 1-3.17 4.09 8.043 8.043 0 0 0-2.866 3.374"/></g></svg>