<svg viewBox="0 0 72 72" xmlns="http://www.w3.org/2000/svg"><g fill="none" stroke="#000" stroke-linecap="round" stroke-linejoin="round" stroke-width="2"><path d="M13.364 15.056h10.102v4.408H13.364zm2.918-1.319a3.543 3.543 0 0 1-.231-2.35c.348-1.192 1.336-1.56 3.178-2.913 2.84-2.088 3.307-3.284 4.006-3.013.942.365.96 2.898.53 4.601a7.437 7.437 0 0 1-.729 1.821m-6.458 7.959q1.313 11.966 2.482 11.952 1.02-.012 1.93-9.148m-1.418 12.811c.58 1.981 1.17 4 2.34 8.04 1.437 4.966 1.481 5.164 1.794 5.922 2.437 5.899 5.014 6.542 4.666 9.6a43.512 43.512 0 0 1-1.436 5.563c-.182.619-.34 1.128-.448 1.47M22.987 29.1a51.056 51.056 0 0 1 2.872 8.116c1.276 4.519.834 4.78 1.885 6.73 2.274 4.223 5.048 4.298 7.088 8.793a6.001 6.001 0 0 0 1.615 2.392 6.777 6.777 0 0 0 4.845 1.286c1.968-.203 3.216-1.083 4.897-1.342a5.382 5.382 0 0 1 5.063 2.24c1.096 1.003 1.912 3.135 3.5 7.357"/><ellipse cx="41.903" cy="46.206" rx="5" ry="6.101"/><path d="M50.289 41.717h6.101m-9.772-3.84 4.314-4.314m-9.314 3.051v-6.101m-8.101 11.204h-3.605m7.276-3.856-4.314-4.314"/></g></svg>