<svg viewBox="0 0 72 72" xmlns="http://www.w3.org/2000/svg"><g fill="none" stroke="#000" stroke-linecap="round" stroke-linejoin="round" stroke-miterlimit="10" stroke-width="2"><path d="m66.316 54.565-5.37-4.636L57 45m-5-4 5 4M5.233 54.565l7.37-6.636L18 41m0 0 6-5 5-5 3-3h4l1.683-.082 6.24 5.093 5.096 4.426L52 41"/><path d="M42 47c3-1 1-4 2-4 .802 0 1.545.684 3 2 .96.869 1.103 1.357 2 2 .825.591 1.61 1.24 2 1 .622-.383.307-3.026-1-5-.52-.785-.555-1.445 0-2 1-1 1-.734 1-1m-33 1c.43.394 3 1 4 0 .932-.932 1.774-1.16 2-1 .288.203-.444 1.536-1 4-.283 1.253-.276 2.717 0 3 .443.454 1 0 2-1l1-1c1-1 2-3 3-3s1 1.2 1 2c0 1-.117 1.989 0 3 .101.872 0 2 1 2 .945 0 2-4 3-5s3-1 4 0 3 4 4 3"/><path d="m52 41-2.981-3.563-5.096-4.426-6.24-5.093L36 28h-4l-3 3-5 5-6 5c.43.394 3 1 4 0 .932-.932 1.774-1.16 2-1 .288.203-.444 1.536-1 4-.283 1.253-.276 2.717 0 3 .443.454 1 0 2-1l1-1c1-1 2-3 3-3s1 1.2 1 2c0 1-.117 1.989 0 3 .101.872 0 2 1 2 .945 0 2-4 3-5s3-1 4 0 3 4 4 3c3-1 1-4 2-4 .802 0 1.545.684 3 2 .96.869 1.103 1.357 2 2 .825.591 1.61 1.24 2 1 .622-.383.307-3.026-1-5-.52-.785-.555-1.445 0-2 1-1 1-.734 1-1"/></g></svg>