<svg viewBox="0 0 72 72" xmlns="http://www.w3.org/2000/svg"><g fill="none" stroke="#000" stroke-linecap="round" stroke-linejoin="round" stroke-miterlimit="10" stroke-width="2"><circle cx="35.887" cy="36.056" r="23"/><path d="M45.702 44.862c-6.574 3.525-14.045 3.658-19.63 0m-7.189-14.398s-.953 8.55 6.86 7.918c2.62-.212 7.817-.65 7.867-8.342.005-.698-.007-1.6-.81-2.63-1.065-1.367-3.572-1.971-9.945-1.422 0 0-3.446-.1-3.972 4.476z"/><path d="m18.953 29.93-.433-3.37 3.833-.528m30.388 4.432s.953 8.55-6.86 7.918c-2.62-.212-7.817-.65-7.868-8.342-.004-.698.008-1.6.811-2.63 1.065-1.367 3.572-1.971 9.945-1.422 0 0 3.446-.1 3.972 4.476z"/><path d="M31.505 26.416s4.124 2.534 8.657 0m-6.626 4.902s2.202-3.751 4.536 0m14.592-1.385.433-3.371-3.833-.528"/><path d="M33.955 30.027s1.795-3.75 3.699 0"/></g></svg>