<svg viewBox="0 0 72 72" xmlns="http://www.w3.org/2000/svg"><circle cx="36" cy="36" r="23" fill="none" stroke="#000" stroke-miterlimit="10" stroke-width="2"/><path fill="none" stroke="#000" stroke-linecap="round" stroke-linejoin="round" stroke-miterlimit="10" stroke-width="2" d="M40 31.725c.413-.344 2.246-1.791 4.91-1.636 2.16.126 3.61 1.233 4.09 1.636M30.752 45.79c-2.2-1.073-3.978-2.807-4.917-4.972m20.33 0c-.87 2.023-2.479 3.685-4.497 4.775m-15.595-4.775c1.806.902 5.463 1.496 9.517 1.543 4.417.05 8.59-.558 10.575-1.543"/><path fill="none" stroke="#000" stroke-miterlimit="10" stroke-width="2" d="M41.66 41.818c0 6.075-2.533 11-5.656 11s-5.657-4.925-5.657-11"/><path d="M30 31a3.001 3.001 0 0 1-6 0c0-1.655 1.345-3 3-3s3 1.345 3 3"/></svg>