<svg viewBox="0 0 72 72" xmlns="http://www.w3.org/2000/svg"><path d="M42.847 45.658c0-2.592-3.834-4.694-6.869-4.694s-6.869 2.101-6.869 4.694 3.66.925 6.694.925 7.044 1.667 7.044-.925z"/><path fill="none" stroke="#000" stroke-linecap="round" stroke-linejoin="round" stroke-width="2" d="M29.356 22.669a8.44 8.44 0 0 0-9.066 4.498m31.374 0a8.44 8.44 0 0 0-9.066-4.498"/><circle cx="35.977" cy="35.958" r="23" fill="none" stroke="#000" stroke-miterlimit="10" stroke-width="2"/><path fill="none" stroke="#000" stroke-miterlimit="10" stroke-width="2" d="M42.847 45.658c0-2.592-3.834-4.694-6.869-4.694s-6.869 2.101-6.869 4.694 3.66.925 6.694.925 7.044 1.667 7.044-.925z"/><path d="M29.977 32.958a3 3 0 1 1-3-3 3.001 3.001 0 0 1 3 3m18 0a3 3 0 1 1-3-3 3.001 3.001 0 0 1 3 3"/></svg>