<svg viewBox="0 0 72 72" xmlns="http://www.w3.org/2000/svg"><path fill="none" stroke="#000" stroke-linecap="round" stroke-linejoin="round" stroke-width="2" d="M28 41.771v7m5-7v7m5-7v7m5-7v7"/><circle cx="36" cy="36" r="23" fill="none" stroke="#000" stroke-miterlimit="10" stroke-width="2"/><path fill="none" stroke="#000" stroke-miterlimit="2" stroke-width="2" d="M44.5 49.27h-17a4.012 4.012 0 0 1-4-4 4.012 4.012 0 0 1 4-4h17a4.012 4.012 0 0 1 4 4 4.012 4.012 0 0 1-4 4z"/><path d="M30 31a3.001 3.001 0 0 1-6 0c0-1.655 1.345-3 3-3s3 1.345 3 3m18 0a3.001 3.001 0 0 1-6 0c0-1.655 1.345-3 3-3s3 1.345 3 3"/></svg>