<svg viewBox="0 0 72 72" xmlns="http://www.w3.org/2000/svg"><path d="M52 52.38c.877-1.631 1-5.38 1-7.38 0-4-4-11-4-11m-5 2s3 6.728 3 10c0 3.065-1 8-1 10m-26-3.6c-.877-1.631-1-5.4-1-7.4 0-4 4-11 4-11m5 2s-3 6.728-3 10c0 3.065 1 8 1 10" fill="none" stroke="#000" stroke-linecap="round" stroke-linejoin="round" stroke-miterlimit="10" stroke-width="2"/><g fill="none" stroke="#000" stroke-miterlimit="10" stroke-width="2"><path stroke-linecap="round" stroke-linejoin="round" d="M40.5 32.82c.413-.344 2.246-1.792 4.909-1.636 2.161.126 3.61 1.233 4.091 1.636m-27 0c.413-.344 2.246-1.792 4.909-1.636 2.161.126 3.61 1.233 4.091 1.636"/><circle cx="36" cy="36" r="23"/><circle cx="36" cy="46.6" r="4.759" stroke-linecap="round" stroke-linejoin="round"/></g></svg>