<svg viewBox="0 0 72 72" xmlns="http://www.w3.org/2000/svg"><g fill="none" stroke="#000" stroke-linecap="round" stroke-width="2"><path stroke-linejoin="round" d="m33.603 43.563-2.334 4.461h-.027c-2.542 0-4.603 1.677-4.602 3.745a3.778 3.778 0 0 0 2.645 3.385 2.164 2.164 0 0 0-.496 1.358 2.694 2.694 0 0 0 2.475 2.449c-.01.098-.019.197-.019.297 0 2.068 2.062 3.745 4.605 3.744s4.602-1.677 4.602-3.745a3.097 3.097 0 0 0-.022-.36 2.622 2.622 0 0 0 2.17-2.387 2.132 2.132 0 0 0-.375-1.196 3.902 3.902 0 0 0 3.136-3.548c0-2.068-2.062-3.745-4.605-3.744a5.657 5.657 0 0 0-.618.038l-2.352-4.497"/><path stroke-linejoin="round" d="M23.226 50.731a23 23 0 1 1 26.696-.576"/><path stroke-miterlimit="10" d="M40.476 26.312a4.726 4.726 0 0 0 8.638 0m-25.888 0a4.726 4.726 0 0 0 8.638 0"/><path stroke-linejoin="round" d="M31.105 42.688a1.516 1.516 0 0 1-.822-1.394c0-2.197 3.493-3.424 5.691-3.424s5.52 1.227 5.52 3.425a1.685 1.685 0 0 1-1.376 1.655"/></g></svg>