<svg viewBox="0 0 72 72" xmlns="http://www.w3.org/2000/svg"><circle cx="36" cy="36" r="23" fill="none" stroke="#000" stroke-miterlimit="10" stroke-width="2"/><path fill="none" stroke="#000" stroke-linecap="round" stroke-linejoin="round" stroke-miterlimit="10" stroke-width="2" d="M28 46c1.58-2.558 4.904-4.135 8.421-4.004C39.65 42.116 42.562 43.66 44 46"/><path d="M30 32.925a3.001 3.001 0 0 1-6 0c0-1.655 1.345-3 3-3s3 1.345 3 3m18 0a3.001 3.001 0 0 1-6 0c0-1.655 1.345-3 3-3s3 1.345 3 3"/><path fill="none" stroke="#000" stroke-linecap="round" stroke-linejoin="round" stroke-miterlimit="10" stroke-width="2" d="m23 24 7 4m19-4-7 4"/></svg>