<svg viewBox="0 0 72 72" xmlns="http://www.w3.org/2000/svg"><circle cx="36" cy="36" r="23" fill="none" stroke="#000" stroke-miterlimit="10" stroke-width="2"/><path fill="none" stroke="#000" stroke-linecap="round" stroke-linejoin="round" stroke-miterlimit="10" stroke-width="2" d="M26.5 48c1.877-3.833 5.824-6.197 10-6 3.834.18 7.293 2.493 9 6"/><path fill="none" stroke="#000" stroke-miterlimit="10" stroke-width="2" d="M20.387 41.63a2.8 2.8 0 0 1-.826-1.994c0-2.479 2.344-4.85 2.443-4.95a.53.53 0 0 1 .75 0c.1.1 2.444 2.472 2.444 4.951a2.822 2.822 0 0 1-2.818 2.818c-.753 0-1.46-.293-1.993-.825z"/><path d="M30 31a3.001 3.001 0 0 1-6 0c0-1.655 1.345-3 3-3s3 1.345 3 3m18 0a3.001 3.001 0 0 1-6 0c0-1.655 1.345-3 3-3s3 1.345 3 3"/></svg>