<svg viewBox="0 0 72 72" xmlns="http://www.w3.org/2000/svg"><g fill="none" stroke="#000" stroke-linecap="round" stroke-linejoin="round" stroke-miterlimit="10" stroke-width="2"><path d="M23.24 32.01s3.439-2.888 7.849-1.546M48.76 32.01s-3.439-2.888-7.849-1.546M58.91 33.52l-8.427 4.775"/><path d="M58.23 30.14C55.642 20.298 46.69 13.03 36.04 13c-10.68-.025-19.68 7.237-22.29 17.1m.74 14.11C17.788 52.84 26.14 58.98 35.93 59c9.833.023 18.24-6.128 21.55-14.8"/><path d="m21.52 38.4 28.96-.106c0 22.21-28.96 22.25-28.96.112zm37.44-1.05-10.59 10.3M13.05 33.52l8.427 4.775M13 37.35l10.59 10.3"/></g></svg>