<svg viewBox="0 0 72 72" xmlns="http://www.w3.org/2000/svg"><g fill="none" stroke="#000" stroke-linecap="round" stroke-linejoin="round" stroke-miterlimit="10" stroke-width="2"><path d="m62.019 54.059-9.47-4.981m5.254 10.285-9.352-5.196M13.29 48.043a23.828 23.828 0 0 1-1.731-8.945l3.637-32.735 10.97 10.707a23.849 23.849 0 0 1 9.294-1.874h1.04c3.296 0 6.437.668 9.294 1.874l10.97-10.707 3.637 32.735c0 3.162-.614 6.182-1.73 8.945M22.816 59.385A23.786 23.786 0 0 0 35.46 63h1.04c4.643 0 8.977-1.323 12.645-3.615M10 54.167l9.353-5.196m-5.196 10.392 9.353-5.196"/><path d="M23.882 31.397c-1.364-3.616-6.944-3.847-6.594 1.42.046.7.303 1.372.691 1.956l5.733 6.923h0l5.63-6.755c.624-.75.994-1.701.975-2.68-.093-4.691-5.445-4.35-6.606-.866m24.893.002c-1.364-3.616-6.943-3.847-6.594 1.42.047.7.303 1.372.692 1.956l5.733 6.923h0l5.629-6.755c.624-.75.994-1.701.975-2.68-.093-4.691-5.445-4.35-6.606-.866M31.637 45.466h8.321m-14.56 3.12s7.8 4.16 10.4-3.12c2.6 7.28 10.804 3.07 10.804 3.07s-2.693 4.381-3.487 5.234c-4.017 4.313-9.4 4.053-13.672.116-.935-.862-4.046-5.3-4.046-5.3z"/></g></svg>