<svg viewBox="0 0 72 72" xmlns="http://www.w3.org/2000/svg"><g fill="none" stroke="#000" stroke-linecap="round" stroke-linejoin="round" stroke-miterlimit="10" stroke-width="2"><path d="m62 54.16-9.36-5.2m5.2 10.4-9.36-5.2m-35.188-6.128a23.845 23.845 0 0 1-1.732-8.952L15.2 6.32l10.98 10.715a23.858 23.858 0 0 1 9.3-1.875h1.04c3.299 0 6.442.668 9.3 1.875L56.8 6.32l3.64 32.76c0 3.165-.614 6.186-1.732 8.952m-35.883 11.35A23.806 23.806 0 0 0 35.48 63h1.04c4.646 0 8.985-1.324 12.655-3.618M10 54.16l9.36-5.2m-5.2 10.4 9.36-5.2"/><path d="M55.24 38.93c-3.12-4.16-9.36-4.16-11.44 0m-27.04 0c3.12-4.16 9.36-4.16 11.44 0m7.448 8.754s10.945 3.323 0 5.786c0 0 10.876 3.108 0 5.109"/></g></svg>