<svg viewBox="0 0 72 72" xmlns="http://www.w3.org/2000/svg"><path fill="none" stroke="#000" stroke-linecap="round" stroke-linejoin="round" stroke-miterlimit="10" stroke-width="2" d="M21 24c1-1 4.998-5.603 11-1.002"/><path fill="none" stroke="#000" stroke-miterlimit="10" stroke-width="2" d="M33.25 31.46c0 3.452-2.802 6.25-6.25 6.25s-6.25-2.798-6.25-6.25c0-3.448 2.802-6.25 6.25-6.25s6.25 2.802 6.25 6.25"/><path d="M29 31.46a2 2 0 1 1-4 0 2 2 0 0 1 4 0"/><path fill="none" stroke="#000" stroke-miterlimit="10" stroke-width="2" d="M51.25 31.46A6.252 6.252 0 0 1 45 37.71a6.252 6.252 0 0 1-6.25-6.25A6.255 6.255 0 0 1 45 25.21a6.255 6.255 0 0 1 6.25 6.25"/><path d="M47 31.46a2 2 0 1 1-4 0 2 2 0 0 1 4 0"/><path fill="none" stroke="#000" stroke-linecap="round" stroke-linejoin="round" stroke-miterlimit="10" stroke-width="2" d="M28 50c.27-.356 1-8 8.421-8.004C43 41.993 43.65 49.537 44 50H28zm19.33 6.02A22.9 22.9 0 0 1 36 58.999a22.886 22.886 0 0 1-11.02-2.808M13.21 39.07c-.108-1.378-.245-1.638-.212-3.073.295-12.7 10.3-23 23-23s23 10.3 23 23a23.24 23.24 0 0 1-.215 3.163M49.81 64.32c1.208-3.956.913-2.154 1.359-4.899-.388-1.364-.83-3.474-.663-5.992.131-1.973 2.418-3.208 2.841-7.757.418-4.077.429-5.896 1.137-5.899 1.271-.006 3.125 4.327 3.762 8.028.677 3.93-1.667 9.391-1.667 9.391l1.365 4.535M22.57 64.32c-1.208-3.956-.913-2.154-1.359-4.899.388-1.364.83-3.474.663-5.992-.131-1.973-2.418-3.208-2.841-7.757-.418-4.077-.429-5.896-1.137-5.899-1.271-.006-3.125 4.327-3.762 8.028-.677 3.93 1.667 9.391 1.667 9.391l-1.365 4.535"/><path fill="none" stroke="#000" stroke-linecap="round" stroke-linejoin="round" stroke-miterlimit="10" stroke-width="2" d="M51.48 24c-1-1-4.998-5.603-11-1.002"/></svg>