<svg viewBox="0 0 72 72" xmlns="http://www.w3.org/2000/svg"><g fill="none" stroke="#000" stroke-linecap="round" stroke-linejoin="round" stroke-miterlimit="10" stroke-width="2"><path d="m62 54.128-9.36-5.2m5.2 10.4-9.36-5.2M13.292 48a23.845 23.845 0 0 1-1.732-8.952l3.64-32.76 10.98 10.715a23.858 23.858 0 0 1 9.3-1.875h1.04c3.299 0 6.442.668 9.3 1.875L56.8 6.288l3.64 32.76c0 3.164-.614 6.186-1.732 8.951M10 54.128l9.36-5.2m-5.2 10.4 9.36-5.2m8.117-8.662h8.321"/><path d="M25.398 48.586s7.8 4.16 10.4-3.12c2.6 7.28 10.804 3.07 10.804 3.07s-2.693 4.381-3.487 5.234c-4.017 4.313-9.4 4.053-13.672.116-.935-.862-4.046-5.3-4.046-5.3zM22.851 59.39A23.76 23.76 0 0 0 35.481 63h1.038a23.76 23.76 0 0 0 12.63-3.61m6.054-21.632c-3.114-4.151-9.342-4.151-11.418 0m-26.987 0c3.114-4.151 9.342-4.151 11.418 0"/></g></svg>