<svg viewBox="0 0 72 72" xmlns="http://www.w3.org/2000/svg"><path d="M50.384 47.206c-1.74 1.451-3.545 2.014-3.826 2.096 1.277 3.9 1.531 7.334.856 9.363M23.741 31.407c4.081-1.403 9.826.106 12.418 4.545 2.525-4.21 7.887-5.739 11.822-4.717m-22.26 28.34c-.71-2.818-.848-5.518.32-10.835-.222-.045-2.222-.485-4.122-1.928" fill="none" stroke="#000" stroke-linecap="round" stroke-linejoin="round" stroke-miterlimit="10" stroke-width="2"/><circle cx="26.838" cy="38.251" r="3"/><circle cx="45.395" cy="38.251" r="3"/><path fill="none" stroke="#000" stroke-linecap="round" stroke-linejoin="round" stroke-miterlimit="10" stroke-width="2" d="M41.98 49.017c-.204.268-.753 6.022-6.34 6.025-4.952.002-5.44-5.677-5.704-6.025h12.043z"/><circle cx="34.099" cy="44.558" r="1"/><circle cx="37.738" cy="44.558" r="1"/><path fill="none" stroke="#000" stroke-linecap="round" stroke-linejoin="round" stroke-miterlimit="10" stroke-width="2" d="M11.684 20.184c-1.206.646-2.345 1.703-3.212 3.391-1.708 3.328-1.274 6.252.084 8.822m51.986-12.136c1.153.652 2.238 1.692 3.071 3.314 1.603 3.122 1.32 5.89.157 8.343m-13.758 22.29A22.9 22.9 0 0 1 35.957 59a22.897 22.897 0 0 1-13.654-4.49m1.535-38.062A22.892 22.892 0 0 1 35.958 13a22.89 22.89 0 0 1 12.453 3.66M18.945 56.9c-.48-6.04.04-6.425-.441-12.464a31.458 31.458 0 0 0 2.059-8.442c.288-2.88-.015-3.956-.412-10.3-.523-8.345-.239-10.29-1.03-10.496-1.419-.369-4.444 5.346-5.97 10.496-1.621 5.468-1.236 13.594-1.236 13.594l-1.2 5.27m42.687 13.429c.48-6.04-.04-7.512.441-13.551a31.458 31.458 0 0 1-2.059-8.442c-.288-2.88.014-3.956.412-10.3.523-8.345.239-10.29 1.03-10.496 1.419-.369 4.444 5.346 5.97 10.496 1.621 5.468 1.236 13.594 1.236 13.594l1.49 6.547"/></svg>