<svg viewBox="0 0 72 72" xmlns="http://www.w3.org/2000/svg"><path fill="none" stroke="#000" stroke-linecap="round" stroke-linejoin="round" stroke-width="2" d="M17 59.958v-3c0-4.994 5.008-9 10-9q9 7.5 18 0c4.994 0 10 4.006 10 9v3"/><path d="M41.873 29.958a2 2 0 0 1-4 0c0-1.104 2.022-2 3.127-2a3.263 3.263 0 0 1 .873 2m-7.873 0a2 2 0 0 1-4 0 3.118 3.118 0 0 1 1-2c1.105 0 3 .896 3 2"/><path fill="none" stroke="#000" stroke-linecap="round" stroke-linejoin="round" stroke-width="2" d="M39 37.958c-1-2-5-2-6 0"/><path fill="none" stroke="#000" stroke-linecap="round" stroke-linejoin="round" stroke-width="2" d="M18.863 46.69c-3.722-5.857-.628-10.08 1.18-14.725 1.636-4.2-.209-6.451 1.291-12.034 1.48-5.5 7.278-8.966 13.71-8.966 5.4 0 8 3 8 3a8.132 8.132 0 0 1 7.405 8.037c.386 7.18 1.024 7.152 3.428 12.822a11.599 11.599 0 0 1-1.446 11.663"/><path fill="none" stroke="#000" stroke-linejoin="round" stroke-width="2" d="M25.043 30.965c0 8 5 14 11 14s11-6 11-14c0-5-2-8-6-12-4 4-16 9-16 11z"/></svg>