<svg viewBox="0 0 72 72" xmlns="http://www.w3.org/2000/svg"><path d="M41.865 31.958a2 2 0 1 1-2-2 2 2 0 0 1 2 2m-8 0a2 2 0 1 1-2-2 2 2 0 0 1 2 2"/><path fill="none" stroke="#000" stroke-linecap="round" stroke-linejoin="round" stroke-width="2" d="M38.992 39.458c-1 2-5 2-6 0m17.5-13.781a48.822 48.822 0 0 0-4.5-8.719 3.491 3.491 0 0 0-2-1c-3 0-4-2-6-3a52.19 52.19 0 0 0-7.555-.993 1.327 1.327 0 0 1-1.403-1.324s-.042-1.479 2.079-1.445a49.99 49.99 0 0 1 9.879.762c.98.197 6.024 1.051 8 2a11.067 11.067 0 0 1 2 2s7 11 7 15v13.968"/><path fill="none" stroke="#000" stroke-linecap="round" stroke-linejoin="round" stroke-width="2" d="M39.933 14.41a.831.831 0 0 1-.941.548c-6 0-8 2-11 2h-2a60.788 60.788 0 0 0-4.236 8.61"/><path fill="none" stroke="#000" stroke-linecap="round" stroke-linejoin="round" stroke-width="2" d="M13.992 41.958v-13c0-4 7-15 7-15a11.464 11.464 0 0 1 4-2 13.369 13.369 0 0 1 4.736-.187M19.159 40.888l-7.167 2.07 4 17m36.84-18.772 7.16 2.772-4 16"/><path fill="none" stroke="#000" stroke-linejoin="round" stroke-width="2" d="M24.945 32.976c0 8 5 14 11 14s11-6 11-14c0-5-2-8-6-12-4 4-16 9-16 11z"/><path fill="none" stroke="#000" stroke-linecap="round" stroke-linejoin="round" stroke-width="2" d="M48.675 42.696c9.678-.496 2.793-14.08 1.726-17.293m-28.639.154c-1.202 3.33-7.645 14.15 1.33 17.496"/></svg>