<svg viewBox="0 0 72 72" xmlns="http://www.w3.org/2000/svg"><path d="M48.332 32.972a2 2 0 1 1-2-2 2 2 0 0 1 2 2m-8 0a2 2 0 1 1-2-2 2 2 0 0 1 2 2"/><path fill="none" stroke="#000" stroke-linecap="round" stroke-linejoin="round" stroke-width="2" d="M39.46 40.972a6.553 6.553 0 0 0 6 0M22.474 63.99a2.982 2.982 0 0 0-.842-2.698c-3.158-2.446-4.158-3.302-4.158-3.302l5-12M20.183 6.782c-.71 3.924-1.125 6.631-1.71 11.208m3.069 3.375c.293-2.162 1.098-6.75 1.557-11.375"/><path fill="none" stroke="#000" stroke-linecap="round" stroke-linejoin="round" stroke-width="2" d="M61.474 63.99s.09-2.25.09-3c0-7-9.09-10-9.09-10-7 2-11 2-16 1-3.276-.655-10.027-4.59-15-8 0 0-3.91-9.5-3.91-13.5 0-.583 5.552-1.994 7-6.5.782-2.431 1.811-5.674 1.811-5.674m-11.901-.326c.86-5.076 1.564-8.621 2-10m2.154 47.231c-5-4-6.588-5.12-7.154-8.231-2-11-1-14.582-1-18 0-1 .015 0 .015-6 .001-.812.508-4.394.985-7a25.278 25.278 0 0 1 1-4"/><path fill="none" stroke="#000" stroke-linecap="round" stroke-linejoin="round" stroke-width="2" d="M24.141 40.242c.615-1.773 1.498-3.493 2.192-5.275 1.635-4.2-.21-6.452 1.29-12.035 1.48-5.5 7.278-8.965 13.71-8.965 5.4 0 8 3 8 3a8.132 8.132 0 0 1 7.405 8.037c.387 7.18 1.024 7.152 3.429 12.822a11.599 11.599 0 0 1-1.447 11.663"/><path fill="none" stroke="#000" stroke-linejoin="round" stroke-width="2" d="M31.333 33.967c0 8 5 14 11 14s11-6 11-14c0-5-2-8-6-12-4 4-16 9-16 11z"/></svg>