<svg viewBox="0 0 72 72" xmlns="http://www.w3.org/2000/svg"><path fill="none" stroke="#000" stroke-linecap="round" stroke-linejoin="round" stroke-miterlimit="10" stroke-width="2" d="M19.745 30.37c.735-1.436 1.847-2.672 3.236-3.51 4.232-2.552 10.528-1.089 13.49 3.837 3.038-4.917 9.314-6.349 13.491-3.837 1.456.875 2.553 2.166 3.252 3.65m-.95-10.856c.33 0 7.141-2.245 10.306 3.921 1.705 3.321 1.276 6.241-.076 8.808M19.736 19.654c-.33 0-7.141-2.245-10.306 3.921-1.612 3.14-1.317 5.92-.138 8.382m32.645 17.06c-.204.268-.753 6.022-6.339 6.025-4.952.002-5.441-5.677-5.705-6.025h12.044z"/><circle cx="34.056" cy="44.558" r="1"/><circle cx="37.696" cy="44.558" r="1"/><path fill="none" stroke="#000" stroke-linecap="round" stroke-linejoin="round" stroke-miterlimit="10" stroke-width="2" d="M48.849 55.022A22.893 22.893 0 0 1 35.915 59a22.893 22.893 0 0 1-12.86-3.928m-8.063-28.638C18.622 18.507 26.627 13 35.915 13c9.22 0 17.172 5.424 20.84 13.255m2.529 26.018L57.68 48.93a29.355 29.355 0 0 0 1.538-7.009c.425-4.565-.123-10.46-1.538-10.662-.555-.08-1.473.684-3.032 4.72-2.601-3.093-8.366-6.27-9-5.5-.622.757.09 2.538.01 3.503-2.655-1.207-3.95-1.404-4.266-1.05-.319.355.082 1.694 1.772 4.349-3.116-.743-4.104.118-3.943.805.608 2.586 2.7 5.93 6.437 9.606 2.097 2.063 4.741 2.573 6.4 2.914.609 5.022.346 2.868.956 7.89m-40.621-6.513 1.464-3.053a29.355 29.355 0 0 1-1.538-7.009c-.425-4.565.123-10.46 1.538-10.662.555-.08 1.473.684 3.032 4.72 2.601-3.093 8.366-6.27 9-5.5.622.757-.09 2.538-.01 3.503 2.655-1.207 3.95-1.404 4.266-1.05.319.355-.082 1.694-1.772 4.349 3.116-.743 4.104.118 3.943.805-.608 2.586-2.7 5.93-6.437 9.606-2.097 2.063-4.741 2.573-6.4 2.914l-.957 7.89"/></svg>