<svg viewBox="0 0 72 72" xmlns="http://www.w3.org/2000/svg"><path d="M41.878 29.958a2 2 0 1 1-2-2 2 2 0 0 1 2 2m-8 0a2 2 0 1 1-2-2 2 2 0 0 1 2 2"/><path fill="none" stroke="#000" stroke-linecap="round" stroke-linejoin="round" stroke-width="2" d="M34.005 37.958h4m9.932 10.449c3.85 1.178 7.068 4.547 7.068 8.551v3m-38 0v-3c0-3.975 3.172-7.324 6.984-8.524M42.56 38.403l8-7a1.414 1.414 0 0 1 2 2l-5 6m-18.111-1-8-7a1.414 1.414 0 0 0-2 2l5 6m11.558 15.503-4.002 5.052"/><path fill="none" stroke="#000" stroke-linecap="round" stroke-linejoin="round" stroke-width="2" d="m35.973 45.493 5.587-6.09 1-1 6-4.556a1.414 1.414 0 0 1 2 2l-3 3.556a39.326 39.326 0 0 1-2 6c-.633 1.264-3.556 2-3.556 2l-2.127 2M22.005 59.958l10-10.555"/><path fill="none" stroke="#000" stroke-linecap="round" stroke-linejoin="round" stroke-width="2" d="m50.005 59.958-16-16.555-3.556-4-1-1-6-4.556a1.414 1.414 0 0 0-2 2l3 3.556a39.326 39.326 0 0 0 2 6c.633 1.264 3.556 2 3.556 2l2 2 8 10.555m14.157-23.959a11.6 11.6 0 0 1-1.884 10.476m-31.656-18.47c.02-2.254-.412-4.472.56-8.086 1.48-5.5 7.277-8.966 13.709-8.966 5.4 0 8 3 8 3a8.132 8.132 0 0 1 7.405 8.037 30.746 30.746 0 0 0 .794 6.423M18.71 46.678c-2.65-4.172-1.844-7.514-.507-10.771"/><path fill="none" stroke="#000" stroke-linecap="round" stroke-linejoin="round" stroke-width="2" d="M46.89 30.953c0-5-2-8-6-12-4 4-16 9-16 11v1"/></svg>