<svg viewBox="0 0 72 72" xmlns="http://www.w3.org/2000/svg"><path d="M41.882 31.958a2 2 0 1 1-2-2 2 2 0 0 1 2 2m-8 0a2 2 0 1 1-2-2 2 2 0 0 1 2 2"/><path fill="none" stroke="#000" stroke-linecap="round" stroke-linejoin="round" stroke-width="2" d="M39.01 39.458c-1 2-5 2-6 0m14.799-.443a33.664 33.664 0 0 0 3.2-10.057c.667-3.334-5-12-5-12a3.491 3.491 0 0 0-2-1c-3 0-4-2-6-3a52.19 52.19 0 0 0-7.555-.993 1.327 1.327 0 0 1-1.403-1.324s-.042-1.479 2.079-1.445a49.99 49.99 0 0 1 9.879.762c.98.197 6.024 1.051 8 2a11.067 11.067 0 0 1 2 2s7 11 7 15v13.968"/><path fill="none" stroke="#000" stroke-linecap="round" stroke-linejoin="round" stroke-width="2" d="M39.95 14.41a.831.831 0 0 1-.94.548c-6 0-8 2-11 2h-2s-5.643 9.41-5 12.75a55.955 55.955 0 0 0 2.743 9.048"/><path fill="none" stroke="#000" stroke-linecap="round" stroke-linejoin="round" stroke-width="2" d="M14.01 41.958v-13c0-4 7-15 7-15a11.464 11.464 0 0 1 4-2 13.369 13.369 0 0 1 4.736-.187m-4.082 27.244-13.655 3.943 4 17m30.565-21.202 13.435 5.202-4 16"/><path fill="none" stroke="#000" stroke-linejoin="round" stroke-width="2" d="M24.902 33.069c-.101 7.998 4.937 14 11 14 5.937 0 11.064-6 11.064-14 0-5-3-11-3-11-8 0-10 3-16 1 0 0-3 5-3.064 10z"/></svg>