<svg viewBox="0 0 72 72" xmlns="http://www.w3.org/2000/svg"><path fill="none" stroke="#000" stroke-linecap="round" stroke-linejoin="round" stroke-width="2" d="M48.578 39.538a2.9 2.9 0 0 1-2.586 1.42m-20 0a3.553 3.553 0 0 1-3.312-1.937"/><path d="M41.865 31.958a2 2 0 1 1-2-2 2 2 0 0 1 2 2m-8 0a2 2 0 1 1-2-2 2 2 0 0 1 2 2"/><path fill="none" stroke="#000" stroke-linejoin="round" stroke-width="2" d="M24.929 32.958c0 9 4.936 14 11 14 5.936 0 11.063-5 11.063-14a12.137 12.137 0 0 0-1-5c-3-3-7-8-7-8-4 3-7 6-13 7 0 0-1.063 1-1.063 6z"/><path fill="none" stroke="#000" stroke-linecap="round" stroke-linejoin="round" stroke-width="2" d="M38.992 39.458c-1 2-5 2-6 0m15.782.002c.985-3.842 1.724-8.028 2.218-10.502.667-3.334-5-12-5-12a3.491 3.491 0 0 0-2-1c-3 0-4-2-6-3a52.19 52.19 0 0 0-7.555-.993 1.327 1.327 0 0 1-1.403-1.324s-.042-1.479 2.08-1.445a49.99 49.99 0 0 1 9.878.762c.98.197 6.024 1.051 8 2a11.067 11.067 0 0 1 2 2s7 11 7 15v13.968"/><path fill="none" stroke="#000" stroke-linecap="round" stroke-linejoin="round" stroke-width="2" d="M39.934 14.41a.831.831 0 0 1-.942.548c-6 0-8 2-11 2h-2s-5.643 9.41-5 12.75c.313 1.625.813 5.438 1.734 9.22"/><path fill="none" stroke="#000" stroke-linecap="round" stroke-linejoin="round" stroke-width="2" d="M13.992 41.958v-13c0-4 7-15 7-15a11.464 11.464 0 0 1 4-2 13.369 13.369 0 0 1 4.736-.187m-7.236 28.155-10.5 3.032 4 17m32.586-20.42 11.414 4.42-4 16"/></svg>