<svg viewBox="0 0 72 72" xmlns="http://www.w3.org/2000/svg"><path fill="none" stroke="#000" stroke-linecap="round" stroke-linejoin="round" stroke-width="2" d="M21.99 27.958c-.003-.654-.003-1.322-.003-2 0-7 5-14 14-14a13.75 13.75 0 0 1 14 14c0 .6.004 1.132.005 1.666"/><path d="M41.86 29.958a2 2 0 1 1-2-2 2 2 0 0 1 2 2m-8 0a2 2 0 1 1-2-2 2 2 0 0 1 2 2"/><path fill="none" stroke="#000" stroke-linecap="round" stroke-linejoin="round" stroke-width="2" d="M33.987 37.958h4m9.933 10.449c3.85 1.178 7.067 4.547 7.067 8.551v3m-38 0v-3c0-3.975 3.172-7.324 6.985-8.524m18.571-10.031 8-7a1.414 1.414 0 0 1 2 2l-5 6m-18.112-1-8-7a1.414 1.414 0 0 0-2 2l5 6m11.558 15.503-4.002 5.052"/><path fill="none" stroke="#000" stroke-linecap="round" stroke-linejoin="round" stroke-width="2" d="m35.956 45.493 5.587-6.09 1-1 6-4.556a1.414 1.414 0 0 1 2 2l-3 3.556a39.326 39.326 0 0 1-2 6c-.633 1.264-3.556 2-3.556 2l-2.127 2M21.987 59.958l10-10.555"/><path fill="none" stroke="#000" stroke-linecap="round" stroke-linejoin="round" stroke-width="2" d="m49.987 59.958-16-16.555-3.556-4-1-1-6-4.556a1.414 1.414 0 0 0-2 2l3 3.556a39.326 39.326 0 0 0 2 6c.633 1.264 3.556 2 3.556 2l2 2 8 10.555m6.889-29.784c-.302-4.803-2.973-10.144-2.973-10.144-8 0-10 3-16 1a23.814 23.814 0 0 0-3.042 9.394"/></svg>