<svg viewBox="0 0 72 72" xmlns="http://www.w3.org/2000/svg"><g fill="none" stroke="#000" stroke-linecap="round" stroke-width="2"><path stroke-linejoin="round" d="M25.167 43.042c-2 0-3-3-3-10s4-14 14-14 14 7 14 14-1 10-3 10"/><path stroke-linejoin="round" d="M39.167 36.042c0 4-14 2-14 6h0c0 4 4.873 8 10.936 8 5.937 0 11.064-4 11.064-10h0c0-2-7-2-8-4m-5 22a1.92 1.92 0 0 1-2 1.942c-1.103 0-6 .058-6 .058h-6s0-4 5-4h7a1.959 1.959 0 0 1 2 2zm4 0a1.92 1.92 0 0 0 2 1.942c1.102 0 6 .058 6 .058h6s0-4-5-4h-7a1.959 1.959 0 0 0-2 2zm-20-22s-4 3-4 12v4c0 3 0 6 2 8m38-24s4 3 4 12v5c0 3 0 5-2 7m-33-45 3 3m5-3-2-3m20 3-3 3m-5-3 2-3m-4 24v-7"/><path stroke-miterlimit="10" d="M33.167 43.042a2.782 2.782 0 0 1-3 0m9 0a2.966 2.966 0 0 0 3 0"/></g></svg>