<svg viewBox="0 0 72 72" xmlns="http://www.w3.org/2000/svg"><path fill="none" stroke="#000" stroke-linecap="round" stroke-linejoin="round" stroke-width="2" d="M26 38.958c-4 0-4-6-4-13s4-14 14-14 14 7 14 14 0 13-4 13m-29 21v-3c0-4.994 5.008-9 10-9q9 7.5 18 0c4.994 0 10 4.006 10 9v3"/><path fill="none" stroke="#000" stroke-linejoin="round" stroke-width="2" d="M24.936 30.958c0 9 4.937 14 11 14 5.937 0 11.064-5 11.064-14a12.137 12.137 0 0 0-1-5c-3-3-7-8-7-8-4 3-7 6-13 7 0 0-1.064 1-1.064 6z"/><path d="M41.873 29.958a2 2 0 0 1-4 0c0-1.104 2.022-2 3.127-2a3.263 3.263 0 0 1 .873 2m-7.873 0a2 2 0 0 1-4 0 3.118 3.118 0 0 1 1-2c1.105 0 3 .896 3 2"/><path fill="none" stroke="#000" stroke-linecap="round" stroke-linejoin="round" stroke-width="2" d="M39 37.958c-1-2-5-2-6 0"/></svg>