<svg viewBox="0 0 72 72" xmlns="http://www.w3.org/2000/svg"><path fill="none" stroke="#000" stroke-linecap="round" stroke-linejoin="round" stroke-width="2" d="M22.474 63.99a2.982 2.982 0 0 0-.842-2.698c-3.158-2.446-4.158-3.302-4.158-3.302l5-12"/><path d="M48.347 32.99a2 2 0 1 1-2-2 2 2 0 0 1 2 2m-8 0a2 2 0 1 1-2-2 2 2 0 0 1 2 2"/><path fill="none" stroke="#000" stroke-linecap="round" stroke-linejoin="round" stroke-width="2" d="M39.474 40.99a6.553 6.553 0 0 0 6 0M20.183 6.782c-.71 3.924-1.125 6.631-1.71 11.208m3.069 3.375c.293-2.162 1.098-6.75 1.557-11.375"/><path fill="none" stroke="#000" stroke-linecap="round" stroke-linejoin="round" stroke-width="2" d="M61.474 63.99s.09-2.25.09-3c0-7-9.09-10-9.09-10-7 2-11 2-16 1-3.276-.655-10.027-4.59-15-8 0 0-3.91-9.5-3.91-13.5 0-.583 5.552-1.994 7-6.5.782-2.431 1.811-5.674 1.811-5.674m-11.901-.326c.86-5.076 1.564-8.621 2-10m2.154 47.231c-5-4-6.588-5.12-7.154-8.231-2-11-1-14.582-1-18 0-1 .015 0 .015-6 .001-.812.508-4.394.985-7a25.278 25.278 0 0 1 1-4"/><path fill="none" stroke="#000" stroke-linecap="round" stroke-linejoin="round" stroke-width="2" d="M32.5 41.004c-3 0-4-7-4-14 0-6 5-12 14-12s14 6 14 12c0 7-1 14-4 14"/><path fill="none" stroke="#000" stroke-linejoin="round" stroke-width="2" d="M31.436 34.004c-.102 7.999 4.936 14 11 14 5.936 0 11.063-6 11.063-14 0-5-3-11-3-11-8 0-10 3-16 1 0 0-3 5-3.063 10z"/></svg>