<svg viewBox="0 0 72 72" xmlns="http://www.w3.org/2000/svg"><g fill="none" stroke="#000" stroke-linecap="round" stroke-linejoin="round"><path stroke-width="2.152" d="M62.595 50.141H9.438a2.133 2.133 0 0 1-2.133-2.132V22.91a2.898 2.898 0 0 1 2.664-3.085h52.095a2.898 2.898 0 0 1 2.664 3.085v25.1a2.132 2.132 0 0 1-2.133 2.132z"/><path stroke-width="2" d="M5.887 46h7.037V27.61a1.363 1.363 0 0 1 1.15-1.504h6.796a1.363 1.363 0 0 1 1.15 1.504V46H65.9"/><path stroke-width="2" d="M34.212 36.097h-6.12c-.572 0-1.036-.34-1.036-.76v-8.472c0-.42.464-.76 1.036-.76h6.12c.573 0 1.037.34 1.037.76v8.473c0 .419-.464.759-1.037.759zm12.212 0h-6.12c-.573 0-1.037-.34-1.037-.76v-8.472c0-.42.464-.76 1.037-.76h6.12c.572 0 1.036.34 1.036.76v8.473c0 .419-.464.759-1.036.759zm12.211 0h-6.12c-.573 0-1.037-.34-1.037-.76v-8.472c0-.42.464-.76 1.037-.76h6.12c.572 0 1.037.34 1.037.76v8.473c0 .419-.465.759-1.037.759zM23.368 50.141a5 5 0 1 1-9.854.006m45.051-.006a5 5 0 1 1-9.854.006"/><path stroke-width="2.152" d="M15.737 35.958h-2.763"/><path stroke-width="2" d="m54.321 19.826-6.194-7.451 6.56-7.019"/></g></svg>