<svg viewBox="0 0 72 72" xmlns="http://www.w3.org/2000/svg"><g fill="none" stroke="#000" stroke-linecap="round" stroke-linejoin="round" stroke-width="2"><path d="M50 48H26.121m4.788-24v-3H46v3m-7.545-3L47 11"/><circle cx="22" cy="48" r="4"/><circle cx="54" cy="48" r="4"/><path d="M18 36h7v-8.1m5.875 6.1H37v-6.125M40.875 34H47v-6.125M50.875 34H57v-6.125"/><path d="M18 48h-.085A2.923 2.923 0 0 1 15 45.085v-18.17A2.923 2.923 0 0 1 17.915 24h40.17A2.923 2.923 0 0 1 61 26.915v18.17A2.923 2.923 0 0 1 58.085 48H58"/><path d="M17 41h4v-2"/></g></svg>