<svg viewBox="0 0 72 72" xmlns="http://www.w3.org/2000/svg"><g fill="none" stroke="#000" stroke-linecap="round" stroke-linejoin="round" stroke-miterlimit="10" stroke-width="2"><path d="M31.407 25.44h4.148v4.523h-4.148zm-4.077-.41v4.92h-6.81v-4.63c0-1.32 1.08-2.4 2.41-2.4h2.29c1.17 0 2.11.94 2.11 2.11zM9.56 18.7h3.11v11.25H9.56z"/><path d="M66.23 37.56v-6.61c0-.03 0-.07-.01-.1V18.1H45.5v11.85H27.33M7.56 37.73v-6.78c0-.55.45-1 1-1h1m10.96 0h-7.85"/><path d="M53.704 14.917h4.593v3.185h-4.593zm-46 29.666v3.109a1 1 0 0 0 1 1h6.209m45.49 0H64a1 1 0 0 0 1-1V43.88m-35.176 4.812h3.167M68 41.88v.82c0 .65-.53 1.18-1.19 1.18H5.19c-.66 0-1.19-.53-1.19-1.18v-.82c0-.65.53-1.18 1.19-1.18h61.62c.66 0 1.19.53 1.19 1.18z"/><circle cx="53.296" cy="51" r="5"/><circle cx="40.273" cy="51" r="5"/><circle cx="22.333" cy="51" r="5"/><path d="M57.162 21.297v8.667h-6.917"/></g></svg>