<svg viewBox="0 0 72 72" xmlns="http://www.w3.org/2000/svg"><rect x="16" y="48.958" rx="2.621" ry="2.621" width="40" height="8" fill="none" stroke="#000" stroke-linecap="round" stroke-linejoin="round" stroke-width="2"/><rect x="18" y="56.958" rx="2" ry="2" width="6" height="4"/><rect x="48" y="56.958" rx="2" ry="2" width="6" height="4"/><path fill="none" stroke="#000" stroke-linecap="round" stroke-linejoin="round" stroke-width="2" d="M16 25.958h-3m0-3v6m43-3h3m0-3v6m-14.844-15h3.614a7.252 7.252 0 0 1 7.23 7.23v26.27a1.504 1.504 0 0 1-1.5 1.5h-35a1.504 1.504 0 0 1-1.5-1.5v-26.27a7.252 7.252 0 0 1 7.23-7.23h2.614"/><path fill="none" stroke="#000" stroke-linecap="round" stroke-linejoin="round" stroke-width="2" d="M51 21.958v11.8H21m0 11.2h6v-2m18 2h6v-2"/><path fill="none" stroke="#000" stroke-linecap="round" stroke-miterlimit="10" stroke-width="2" d="M32 41.958h9m-9 3h9"/><path fill="none" stroke="#000" stroke-linecap="round" stroke-linejoin="round" stroke-width="2" d="M26.844 13.958v-.479a2.528 2.528 0 0 1 2.521-2.52h12.27a2.528 2.528 0 0 1 2.52 2.52v.48"/></svg>