<svg viewBox="0 0 72 72" xmlns="http://www.w3.org/2000/svg"><g stroke="#000" stroke-linecap="round"><path stroke-linejoin="round" stroke-width="2" d="M3 56h64"/><path fill="none" stroke-linejoin="round" stroke-width="2" d="M21 16h46M34.358 26.392 40 21l-6-5"/><path fill="none" stroke-miterlimit="10" stroke-width="2.074" d="M23.149 50.111h-.819a.891.891 0 0 1-.888-.888V28.29a1.902 1.902 0 0 1 1.896-1.897h41.485a1.902 1.902 0 0 1 1.896 1.897v20.934a.89.89 0 0 1-.888.889h-.829m-13.031-.002H35.845m-2.096 1.253a4.245 4.245 0 1 1-8.489 0m37.456-.253a4.245 4.245 0 0 1-8.489 0"/><rect x="34.358" y="32.245" rx="1.058" ry="1.058" width="6.341" height="10.646" fill="none" stroke-miterlimit="10" stroke-width="2.074"/><rect x="21.402" y="32.245" rx="1.058" ry="1.058" width="6.341" height="10.646" fill="none" stroke-miterlimit="10" stroke-width="2.074"/><rect x="47.196" y="32.324" rx="1.058" ry="1.058" width="6.341" height="10.646" fill="none" stroke-miterlimit="10" stroke-width="2.074"/><rect x="60.379" y="32.324" rx="1.058" ry="1.058" width="6.341" height="10.646" fill="none" stroke-miterlimit="10" stroke-width="2.074"/><path fill="none" stroke-miterlimit="10" stroke-width="1.97" d="M20.384 47.031h47.368"/></g></svg>