<svg viewBox="0 0 72 72" xmlns="http://www.w3.org/2000/svg"><path fill="none" stroke="#000" stroke-linecap="round" stroke-linejoin="round" stroke-miterlimit="10" stroke-width="2" d="M54.875 34.917V18.792h4.806v16.125"/><circle cx="57.934" cy="66.021" r="2"/><path fill="none" stroke="#000" stroke-linecap="round" stroke-linejoin="round" stroke-miterlimit="10" stroke-width="2" d="M7.438 61.536H3.78v-9.625h11.031M35.078 22.5h-18a1 1 0 0 0-1 1v10a1 1 0 0 0 1 1h18a1 1 0 0 0 1-1v-10a1 1 0 0 0-1-1z"/><path fill="none" stroke="#000" stroke-linecap="round" stroke-linejoin="round" stroke-miterlimit="10" stroke-width="2" d="M31.745 25.5H20.41a1 1 0 0 0-1 1v4a1 1 0 0 0 1 1h11.334a1 1 0 0 0 1-1v-4a1 1 0 0 0-1-1zM3.781 9.167H68.25v9.625H3.781z"/><path fill="none" stroke="#000" stroke-linecap="round" stroke-linejoin="round" stroke-miterlimit="10" stroke-width="2.077" d="M14.813 51.911H10.78v-33.12h4.806v33.12h-.774"/><circle cx="44.872" cy="66.021" r="2"/><path fill="none" stroke="#000" stroke-linecap="round" stroke-linejoin="round" stroke-miterlimit="10" stroke-width="2" d="M6.094 68.019H68m-12.719-29.25s-13.687-1-23.75 5.625-16.25 11.625-16.25 11.625-1.767 1.782-1.875 3.875c-.156 3.031 6.875 3.937 6.875 3.937L35.7 64.92c.346.024.692.036 1.039.036h32.48s-.188-26.187 0-26.187H55.28z"/><path fill="none" stroke="#000" stroke-linecap="round" stroke-linejoin="round" stroke-miterlimit="10" stroke-width="2" d="m30.406 50.144 3.032 3.031h31.718"/></svg>