<svg viewBox="0 0 72 72" xmlns="http://www.w3.org/2000/svg"><g fill="none" stroke="#000" stroke-linecap="round" stroke-linejoin="round" stroke-miterlimit="10" stroke-width="2"><path d="m17.925 52.975-6.625-.017s-1.063 0-1.063-1.25-.062-3.562-.062-3.562.683-9.48 2.625-10.625c1.625-.959 46.544-.704 53.136-.578a.98.98 0 0 1 .95.813c.237 1.335.68 4.097.726 6.327.063 3.063-.125 8-.125 8l-4.764.795m-12.382.183-20.166-.054"/><path d="m11.3 40.5-4.563.313L5.3 44.124"/><circle cx="56.48" cy="53.292" r="3"/><circle cx="23.98" cy="53.292" r="3"/><path d="m45.55 43.028 18.125.16.04-.007M13.278 46.31s4.024-.949 7.71-3.498l19.5.172"/><path d="m17.925 52.975-6.625-.017s-1.063 0-1.063-1.25-.062-3.562-.062-3.562.683-9.48 2.625-10.625c1.625-.959 46.544-.704 53.136-.578a.98.98 0 0 1 .95.813c.237 1.335.68 4.097.726 6.327.063 3.063-.125 8-.125 8"/><path d="M40.487 40.318h5.063v12.667h-5.063zM11.16 50.656h2.577l1.073-1.361"/></g></svg>