<svg viewBox="0 0 72 72" xmlns="http://www.w3.org/2000/svg"><path d="M48.405 29.49c-3.276 0-5.941-2.664-5.941-5.94s2.665-5.938 5.941-5.938 5.941 2.664 5.941 5.939-2.665 5.939-5.941 5.939zm0-9.899a3.964 3.964 0 0 0-3.96 3.96 3.964 3.964 0 0 0 3.96 3.96 3.964 3.964 0 0 0 3.96-3.96 3.964 3.964 0 0 0-3.96-3.96z"/><path fill="none" stroke="#000" stroke-linecap="round" stroke-linejoin="round" stroke-miterlimit="10" stroke-width="1.949" d="M20.653 45.063a14.377 14.377 0 0 0-4.533 3.05c-3.158 3.164-4.652 7.56-3.97 11.688 4.128.676 8.522-.82 11.683-3.977a14.374 14.374 0 0 0 3.053-4.532M14.923 35.749c-.69.65-1.347 1.33-1.97 2.038a29.864 29.864 0 0 1 9.761 4.679c.227-.414.51-.794.844-1.128a4.988 4.988 0 0 1 2.542-1.36c.21-4.05 1.336-8.09 3.292-11.814l.006-.011a30.762 30.762 0 0 0-7.64 2.743 30.746 30.746 0 0 0-6.835 4.853h0zm17.05 10.09a4.985 4.985 0 0 1-1.362 2.55 4.986 4.986 0 0 1-1.145.852 29.857 29.857 0 0 1 4.695 9.75c.71-.62 1.391-1.278 2.042-1.968a30.742 30.742 0 0 0 4.852-6.832 30.743 30.743 0 0 0 2.744-7.636c-3.729 1.955-7.772 3.077-11.826 3.284h0z"/><path fill="none" stroke="#000" stroke-linecap="round" stroke-linejoin="round" stroke-miterlimit="10" stroke-width="1.949" d="M31.83 43.345c.27.886.25 1.692.137 2.525 7.076-.362 13.993-3.504 19.243-8.742 6.71-6.721 9.884-16.063 8.435-24.834-8.771-1.436-18.108 1.742-24.823 8.451-5.232 5.251-8.368 12.164-8.724 19.234a4.979 4.979 0 0 1 2.77.239"/><path fill="none" stroke="#000" stroke-linecap="round" stroke-linejoin="round" stroke-miterlimit="10" stroke-width="1.949" d="M37.072 34.196h0a30.755 30.755 0 0 0-6.7 4.584 30.743 30.743 0 0 0-5.384 6.421 29.987 29.987 0 0 0-1.392 2.47"/></svg>