<svg viewBox="0 0 72 72" xmlns="http://www.w3.org/2000/svg"><g stroke="#000" stroke-linecap="round" stroke-linejoin="round"><path fill="none" stroke-width="2.032" d="M14.146 29h41.708A1.146 1.146 0 0 1 57 30.146V52h0-44 0V30.146A1.146 1.146 0 0 1 14.146 29z"/><path stroke-width="2" d="M5 17h62v3H5z"/><path fill="none" stroke-width="2" d="m16 19 3 6m6-6-2 6m20-6 3 6m6-6-2 6m-31 0h4m23 0h4m-2 0v3m-27-3v3"/><path fill="none" stroke-width="1.988" d="M16 43h38M16 32v11m38-11v11M16 32h38m-14 1v9m-10-9v9"/><path fill="none" stroke-width="2" d="M40 32h14v11H40zm-24 0h14v11H16z"/><path fill="none" stroke-width="1.988" d="M35 32v11"/><path fill="none" stroke-width="2" d="M30 32h5v11h-5z"/><path fill="none" d="M35 32h5v11h-5z"/><path fill="none" stroke-width="2" d="M30 43v8m10-8v8"/></g></svg>