<svg viewBox="0 0 72 72" xmlns="http://www.w3.org/2000/svg"><g fill="none" stroke="#000" stroke-linecap="round" stroke-linejoin="round" stroke-miterlimit="10" stroke-width="2"><path d="m61 52.136 3.563-.074H67l-.125-4.562h-.688s.626-17.625-1.75-18.5c-2.374-.875-27.687-.563-30.812 0S27 28.625 15.75 39.938L8 42.48s-1.5.833-1.563 5.207c0 0-.875.25-.75 1.5.117 1.165-.472 3.414 4.752 3.666m12.624-.103 25.375-.443"/><circle cx="16.48" cy="52.292" r="3"/><circle cx="55" cy="52.292" r="3"/><path d="M13.29 44.476s-1.964 1.659-3.576 1.918m10.161-4.914c.375.02 9.313-.105 9.938-1.605s.625-6.5.625-6.5m4.625 7.279h21.77a1 1 0 0 0 .63-.223l2.167-1.756a1 1 0 0 0 .37-.777v-4.96m1.658 9.911v4.75l1.458.45"/></g></svg>