<svg viewBox="0 0 72 72" xmlns="http://www.w3.org/2000/svg"><g stroke="#000" stroke-linecap="round"><path stroke-linejoin="round" stroke-width="2" d="M4 56h64"/><path fill="none" stroke-linejoin="round" stroke-width="2" d="M68 22 50 9 29 24l-8-8L4 32"/><path fill="none" stroke-miterlimit="10" stroke-width="2.074" d="M23.71 50.646h-.82a.89.89 0 0 1-.888-.888V28.824a1.902 1.902 0 0 1 1.896-1.897h41.485a1.902 1.902 0 0 1 1.897 1.897v20.934a.89.89 0 0 1-.888.888h-.83m-13.03 0H36.406m-2.096 1.252a4.245 4.245 0 1 1-8.489 0m37.456-.252a4.245 4.245 0 0 1-8.49 0"/><rect x="34.919" y="32.78" rx="1.058" ry="1.058" width="6.341" height="10.646" fill="none" stroke-miterlimit="10" stroke-width="2.074"/><rect x="21.963" y="32.78" rx="1.058" ry="1.058" width="6.341" height="10.646" fill="none" stroke-miterlimit="10" stroke-width="2.074"/><rect x="47.757" y="32.859" rx="1.058" ry="1.058" width="6.341" height="10.646" fill="none" stroke-miterlimit="10" stroke-width="2.074"/><rect x="60.939" y="32.859" rx="1.058" ry="1.058" width="6.341" height="10.646" fill="none" stroke-miterlimit="10" stroke-width="2.074"/><path fill="none" stroke-miterlimit="10" stroke-width="1.97" d="M20.945 47.566h47.368"/></g></svg>