<svg viewBox="0 0 72 72" xmlns="http://www.w3.org/2000/svg"><g fill="none" stroke="#000" stroke-miterlimit="10" stroke-width="2"><path stroke-linecap="round" stroke-linejoin="round" d="M22.834 52.672c8.269-.073 17.415-.264 25.334-.434"/><circle cx="17.132" cy="52.702" r="3"/><circle cx="55.215" cy="52.702" r="3"/><path stroke-linecap="round" stroke-linejoin="round" d="M33.917 36.083v5.667l-13.417.917m3.583 6.416 25-1m-35.618-2.45s-1.965 1.66-3.577 1.918"/><path stroke-linecap="round" stroke-linejoin="round" d="m61.337 51.959.85-.022s2 .126 2.313-1.187c.041-.174.288-13.79-1.529-17.571a.987.987 0 0 0-.78-.552c-3.042-.36-19.434-1.158-32.253.31 0 0-4.641 1.204-12.75 6.876 0 0-5.5 2.25-7.875 3.874S7 48.438 7 48.438s.25 3 .75 3.938c.076.143.398.232 2.582.28"/></g></svg>