<svg viewBox="0 0 72 72" xmlns="http://www.w3.org/2000/svg"><g fill="none" stroke="#000" stroke-linecap="round" stroke-linejoin="round" stroke-width="2"><path stroke-miterlimit="10" d="M63.124 49.99h1a1 1 0 0 0 1-1v-2a.19.19 0 0 0-.165-.189l-1.71-.228c0-1.717.497-13.863-.928-19.38a.992.992 0 0 0-.932-.73l-26.808.007a1 1 0 0 0-.888.474l-4.403 9.13-16.734 1.616a1 1 0 0 0-.772.5l-3.077 6.383H7.54a1 1 0 0 0-1 1v1.583a1 1 0 0 0 1 1h1.084"/><path stroke-miterlimit="10" d="M23.666 48.157h.708l1.575 2.17a1 1 0 0 0 .81.413h19.653"/><circle cx="16.374" cy="50.74" r="5"/><circle cx="54.499" cy="50.74" r="5"/><path stroke-miterlimit="10" d="M34.186 36.51H46v-6.353m1.567 15.583 3.182-3.271h8.75m-45.125-.812h7.208l1.91 2.977m39.987-12.665c.083 0 1.375.083 1.375.083s1.666.98 1.604 5.813c-.063 4.833-1.667 5.687-1.667 5.687H64"/></g></svg>