<svg viewBox="0 0 72 72" xmlns="http://www.w3.org/2000/svg"><g fill="none" stroke="#000" stroke-linecap="round" stroke-linejoin="round" stroke-width="2"><path stroke-miterlimit="10" d="M34.9 29.2s-.1-2.1 2.4-2.2c2.4-.1 2.4 2.2 2.4 2.2"/><path d="m47.6 50.8-20.6.4m-18.9 0c-.9-.2-1.7-.5-1.8-1-.1-1-.3-3.8-.3-5.1 0-.5.1-1.1.4-1.5 1.1-2 4.8-6.8 14.9-6.4l10.3-6.9c.5-.3 1.1-.5 1.6-.5l19.6-.1c.3 0 .6 0 .9.1 2.2.6 11.7 4 10.4 12.6l1.1.6c.5.2.9.7 1 1.2.4 1.4.3 2.9-.2 4.3"/><path d="m24.9 39.7 30.2-.2V35"/><circle cx="17.3" cy="50.2" r="5"/><circle cx="57.1" cy="50.2" r="5"/><path d="m12.3 42.7-1.8 2.2-3.7-.1"/><path stroke-miterlimit="10" d="M24.1 43.2h26"/></g></svg>