<svg viewBox="0 0 72 72" xmlns="http://www.w3.org/2000/svg"><g fill="none" stroke="#000" stroke-miterlimit="10"><path stroke-linecap="round" stroke-linejoin="round" stroke-width="2" d="M24.792 51.625v1.083h17"/><path stroke-linecap="round" stroke-linejoin="round" stroke-width="2" d="M54.583 52.708h4l5.917-2.625V35l-2.458-2.458H20.333s-7.916 0-9.75.5c-1.833.5-4.541 8.916-3.583 18.583h5.904m.001-19.62s-.144-2.1 2.375-2.188c2.375-.083 2.375 2.188 2.375 2.188"/><circle cx="19" cy="53.333" r="3" stroke-width="2"/><circle cx="48.208" cy="53.333" r="3" stroke-width="2"/><path stroke-linecap="round" stroke-linejoin="round" stroke-width="2" d="m11.283 40.883 4.368-.69a1 1 0 0 0 .843-.946l.131-3.181m7.395 5.309h7.23a1 1 0 0 0 1-1v-3.75"/><path stroke-linecap="round" stroke-linejoin="round" stroke-width="1.916" d="M60.71 36.55v11.84c0 .31-.26.57-.57.57h-6.32c-.31 0-.57-.26-.57-.57v-1.22h-9.46v1.22c0 .31-.26.57-.57.57h-6.31c-.32 0-.58-.26-.58-.57V36.55c0-.51.42-.92.93-.92h22.52c.51 0 .93.41.93.92z"/><path stroke-linecap="round" stroke-linejoin="round" stroke-width="2" d="M61.25 32.542h-40m40-5h-40m5 5v-5m6 5v-5m6 5v-5m18 5v-5m-6 5v-5m-6 5v-5M11.745 46.438v1.093c0 .553-1.447 1-2 1h0"/></g></svg>