<svg viewBox="0 0 72 72" xmlns="http://www.w3.org/2000/svg"><path d="M52.98 35.59c-6.065 0-11 4.935-11 11s4.935 11 11 11 11-4.935 11-11-4.934-11-11-11zm4 11c0 2.206-1.793 4-4 4s-4-1.794-4-4 1.794-4 4-4 4 1.794 4 4zm-41.96-1c-3.309 0-6 2.691-6 6s2.691 6 6 6 6-2.691 6-6-2.691-6-6-6zm0 8c-1.103 0-2-.897-2-2s.897-2 2-2 2 .897 2 2-.897 2-2 2z"/><path fill="none" stroke="#000" stroke-linecap="round" stroke-linejoin="round" stroke-miterlimit="10" stroke-width="2" d="M26.682 32.3v-3.936h3.167v3.487m-3.167.449c-5.143.8-11.774 2.197-14.407 4.337a1.02 1.02 0 0 0-.38.886l.686 6.544"/><path fill="none" stroke="#000" stroke-linecap="round" stroke-linejoin="round" stroke-miterlimit="10" stroke-width="2" d="M29.849 31.851c-.94.121-2.017.27-3.167.449m26.137-1.833c-.346-3.695-.886-8.055-1.72-10.186 0 0-10.834-1.167-17.167.583l-.5 10.584s-1.438.128-3.583.403m-7.334 18.68h17.837m0-7.059c1.537-6.946 8.414-11.33 15.36-9.794a12.823 12.823 0 0 1 6.917 4.1"/><path fill="none" stroke="#000" stroke-linecap="round" stroke-linejoin="round" stroke-miterlimit="10" stroke-width="2" d="M48.967 23.669s-5.919-.877-11.669.29l-.284 13.463h2.501s2.875-4.641 9.523-6.85l-.07-6.903z"/><path stroke="#000" stroke-linecap="round" stroke-linejoin="round" stroke-miterlimit="10" stroke-width="2" d="M28.12 28.364s.337-3.583-1.285-3.583"/><path fill="none" stroke="#000" stroke-linecap="round" stroke-linejoin="round" stroke-miterlimit="10" stroke-width="2" d="M37.017 37.279h2.66s2.749-4.86 9.36-6.706m-31.993 7.442v2.12c0 .55-.45 1-1 1h-1"/></svg>