<svg viewBox="0 0 72 72" xmlns="http://www.w3.org/2000/svg"><path fill="none" stroke="#000" stroke-linecap="round" stroke-linejoin="round" stroke-miterlimit="10" stroke-width="2" d="M61.5 50.75H64a1 1 0 0 0 1-1V28.667a1 1 0 0 0-1-1H28.333s-5.583.416-15.666 11.541l-4.5 3.125S7 43.063 7 45.583v4.667h.917m14.833.5h22.833"/><path d="M53.33 45.75c-2.76 0-5 2.24-5 5s2.24 5 5 5 5-2.24 5-5-2.24-5-5-5zm0 8c-1.66 0-3-1.34-3-3s1.34-3 3-3 3 1.34 3 3-1.34 3-3 3zm-32.94-3.23a5.002 5.002 0 0 0-4.99-4.77c-2.61 0-4.76 2.01-4.97 4.57-.02.14-.03.28-.03.43 0 2.76 2.24 5 5 5s5-2.24 5-5c0-.08 0-.16-.01-.23zm-4.99 3.23c-1.66 0-3-1.34-3-3 0-.13.01-.26.03-.39a2.986 2.986 0 0 1 2.97-2.61c1.57 0 2.85 1.2 2.98 2.73.02.09.02.18.02.27 0 1.66-1.34 3-3 3z"/><path fill="none" stroke="#000" stroke-linecap="round" stroke-linejoin="round" stroke-miterlimit="10" stroke-width="2" d="M26.75 33.833v2.146a3 3 0 0 1-3 3H18m14.167-11.312V50.75"/></svg>