<svg viewBox="0 0 72 72" xmlns="http://www.w3.org/2000/svg"><g fill="none" stroke="#000" stroke-linecap="round" stroke-linejoin="round" stroke-width="2"><path d="m11.44 45.757-5.72-7.34 25.738-.286"/><path d="M4.766 44.804c2.86 0 8.58 2.86 14.3 2.86s9.532-2.86 15.252-2.86 10.486 2.86 15.252 2.86 6.673-2.86 14.3-2.86"/><path d="M23.832 46.71s2.955-2.097 3.813-2.86a8.313 8.313 0 0 1 4.766-1.907l12.393-10.485m9.533 15.252 8.579-8.865-20.972.286"/><circle cx="33.365" cy="21.925" r="3"/><path d="M44.804 31.458c-3.813-.953-10.581-3.05-14.3-3.813-4.766-.953-9.532 10.486-9.532 10.486m7.626-.001 3.813-6.672M29.929 19.53s-.47-.46-.906-.3c-.513.187-1.217 1.318-1.874 1.682a3.363 3.363 0 0 1-2.131.418"/></g></svg>