<svg viewBox="0 0 72 72" xmlns="http://www.w3.org/2000/svg"><g stroke="#000" stroke-linecap="round" stroke-linejoin="round" stroke-width="2"><circle cx="36" cy="36" r="30" fill="none"/><path fill="none" d="M55.66 51.44A24.99 24.99 0 0 0 20.6 16.31zM16.99 19.77a24.99 24.99 0 0 0 35.2 35.27z"/><circle cx="26.75" cy="40.25" r=".75"/><circle cx="25.25" cy="45.5" r=".75"/><circle cx="27.5" cy="52.25" r=".75"/><circle cx="20.75" cy="51.5" r=".75"/><circle cx="20.75" cy="46.25" r=".75"/><path fill="none" d="m35.04 37.83-.772 14.38s0 1.789.597 1.789 1.193 0 1.789-1.193c.405-.81 1.085-7.394 1.48-11.54m2.126 1.974c.345 4.234 1.164 9.57 1.164 9.57 0 1.59 2.386 1.59 2.386 0l-.283-6.092M32.11 35.57 31 39"/><circle cx="39.04" cy="16.54" r="1.789" fill="none"/><path fill="none" d="M45 37.09s0-8.946-.596-12.52-2.982-3.578-2.982-3.578H36.65a2.921 2.921 0 0 0-2.982 2.982s-.296 2.3-.436 4.642m9.158 9.024-.857-12.54m-5.383 6.64.307-6.63"/></g></svg>