<svg viewBox="0 0 72 72" xmlns="http://www.w3.org/2000/svg"><g fill="none" stroke="#000" stroke-linecap="round" stroke-linejoin="round" stroke-miterlimit="10" stroke-width="2"><path d="M63.146 11.55V5.873c0-.482.324-.873.724-.873h2.26c.4 0 .724.391.724.873v5.677h-3.708zm-9.423 4.804h10.654m-12.842 4.093h12.842M32 29.36s8.883 5.805 12.022 18.874m9.701-31.88h10.654m-12.842 4.093h12.842M67 25.625H32.962c-.531 0-.962.391-.962.873v2.4h35"/><path d="M66 25.625H45.742l7.151-13.566c.128-.31.406-.509.712-.509H67m-13.277 4.804h10.654m-12.842 4.093h12.842m-10.654-4.093h10.654m-12.842 4.093h12.842M5 47c3 0 9 3 15 3s10-3 16-3 11 3 16 3 7-3 15-3"/></g></svg>