<svg viewBox="0 0 72 72" xmlns="http://www.w3.org/2000/svg"><g fill="none" stroke="#000" stroke-linecap="round" stroke-linejoin="round" stroke-width="2"><path d="m11.44 45.757-5.72-7.34 25.738-.286"/><path d="M4.767 44.804c2.86 0 8.58 2.86 14.299 2.86s9.533-2.86 15.252-2.86 10.486 2.86 15.253 2.86 6.673-2.86 14.299-2.86"/><path d="M23.832 46.71s2.955-2.097 3.813-2.86a8.313 8.313 0 0 1 4.767-1.907l12.392-10.485m9.533 15.252 8.58-8.865-20.973.286"/><circle cx="33.365" cy="21.925" r="3"/><path d="M44.804 31.458c-3.813-.953-10.581-3.05-14.299-3.813-4.766-.953-9.533 10.486-9.533 10.486m7.626-.001 3.814-6.672"/></g></svg>