<svg viewBox="0 0 72 72" xmlns="http://www.w3.org/2000/svg"><g fill="none" stroke="#000" stroke-linecap="round" stroke-linejoin="round" stroke-miterlimit="10"><path stroke-width="1.86" d="M63.453 47.074a.487.487 0 0 0 .147-.333l.066-1.456c.01-.218-.117-.41-.302-.455l-1.903-.475-5.017-3.268a.354.354 0 0 0-.15-.056L25.72 37.22s-18.657.11-18.883 3.205c-.226 3.096 12.147 8.64 12.147 8.64s.31.314 3.25.674"/><path stroke-width="1.86" d="M45.734 39.715s-6.847-5.39-15.02-6.203a.367.367 0 0 0-.25.07l-5.142 3.665 20.412 2.468z"/><path stroke-width="2" d="M5 47c3 0 9 3 15 3s10-3 16-3 11 3 16 3 7-3 15-3"/></g></svg>