<svg viewBox="0 0 72 72" xmlns="http://www.w3.org/2000/svg"><g fill="none" stroke="#000" stroke-linecap="round" stroke-linejoin="round" stroke-miterlimit="10" stroke-width="2"><path d="M12.74 42.72v-6.348M16.92 50.9v6.509c0 .672-.545 1.217-1.217 1.217h-1.748a1.217 1.217 0 0 1-1.217-1.217v-6.071M16.92 36.37v6.348M12.74 28.24v-5.907m4.181 0v5.812M55.1 43.29v-6.921m4.18 14.971v6.071c0 .672-.545 1.217-1.217 1.217h-1.748a1.217 1.217 0 0 1-1.217-1.217V51.34m4.182-14.97v5.969M55.1 28.03v-5.891m4.181 0v5.796M7.95 28.33h56.1v7.612H7.95z"/><path d="M7.95 43.29h56.1v7.612H7.95z"/><ellipse cx="14.83" cy="17.97" rx="4.594" ry="4.596"/><ellipse cx="57.19" cy="17.97" rx="4.594" ry="4.596"/></g></svg>