<svg viewBox="0 0 72 72" xmlns="http://www.w3.org/2000/svg"><g fill="none" stroke="#000" stroke-miterlimit="10" stroke-width="2"><path stroke-linecap="round" stroke-linejoin="round" d="M36 26.406V12.875M51.62 33.2c0-1.14 1.06-2.07 2.35-2.07H61v-1.21c0-1.29-1.05-2.34-2.34-2.34H13.34c-1.29 0-2.34 1.05-2.34 2.34v1.21h7.03c1.29 0 2.35.93 2.35 2.07v13.14c0 1.14-1.06 2.08-2.35 2.08H11v3.33h50v-3.33h-7.03c-1.29 0-2.35-.94-2.35-2.08V33.2zM33.66 44.46c0 1.23-1.05 2.23-2.35 2.23h-4.69c-1.29 0-2.34-1-2.34-2.23V33.35c0-1.23 1.05-2.22 2.34-2.22h4.69c1.3 0 2.35.99 2.35 2.22v11.11zm14.06 0c0 1.23-1.05 2.23-2.34 2.23h-4.69c-1.3 0-2.35-1-2.35-2.23V33.35c0-1.23 1.05-2.22 2.35-2.22h4.69c1.29 0 2.34.99 2.34 2.22v11.11zm-7.03-17.43v.55h-9.38v-.55c0-.34.35-.62.78-.62h7.82c.43 0 .78.28.78.62z"/><path stroke-linecap="round" stroke-linejoin="round" d="M18.03 48.42H11V31.13h7.03c1.29 0 2.35.93 2.35 2.07v13.14c0 1.14-1.06 2.08-2.35 2.08zm6.25-3.96V33.35c0-1.23 1.05-2.22 2.34-2.22h4.69c1.3 0 2.35.99 2.35 2.22v11.11c0 1.23-1.05 2.23-2.35 2.23h-4.69c-1.29 0-2.34-1-2.34-2.23zm14.06 0V33.35c0-1.23 1.05-2.22 2.35-2.22h4.69c1.29 0 2.34.99 2.34 2.22v11.11c0 1.23-1.05 2.23-2.34 2.23h-4.69c-1.3 0-2.35-1-2.35-2.23zM61 31.13v17.29h-7.03c-1.29 0-2.35-.94-2.35-2.08V33.2c0-1.14 1.06-2.07 2.35-2.07H61zM11 51.75h50v4.73c0 1.29-1.05 2.35-2.34 2.35H13.34c-1.29 0-2.34-1.06-2.34-2.35v-4.73z"/><path stroke-linecap="round" stroke-linejoin="round" d="M20.38 33.2v6.57H11v-8.64h7.03c1.29 0 2.35.93 2.35 2.07zm0 6.57v6.57c0 1.14-1.06 2.08-2.35 2.08H11v-8.65h9.38zm40.62 0v8.65h-7.03c-1.29 0-2.35-.94-2.35-2.08v-6.57H61zm0-8.64v8.64h-9.38V33.2c0-1.14 1.06-2.07 2.35-2.07H61zM11 51.75h50v3.87H11zm22.66-12.84v5.55c0 1.23-1.05 2.23-2.35 2.23h-4.69c-1.29 0-2.34-1-2.34-2.23v-5.55h9.38z"/><path stroke-linecap="round" stroke-linejoin="round" d="M33.66 33.35v5.56h-9.38v-5.56c0-1.23 1.05-2.22 2.34-2.22h4.69c1.3 0 2.35.99 2.35 2.22z"/><path stroke-linecap="round" stroke-linejoin="round" d="M33.66 33.35v5.56h-9.38v-5.56c0-1.23 1.05-2.22 2.34-2.22h4.69c1.3 0 2.35.99 2.35 2.22zm14.06 0v5.56h-9.38v-5.56c0-1.23 1.05-2.22 2.35-2.22h4.69c1.29 0 2.34.99 2.34 2.22z"/><path stroke-linecap="round" stroke-linejoin="round" d="M47.72 38.91v5.55c0 1.23-1.05 2.23-2.34 2.23h-4.69c-1.3 0-2.35-1-2.35-2.23v-5.55h9.38zm-7-25.28c0 .04 0 .08-.01.12a1.995 1.995 0 0 1-1.99 1.88 2 2 0 0 1-2-2c0-.32.07-.62.21-.88.31-.66 1-1.12 1.79-1.12a2 2 0 0 1 2 2zm-3.79-.88-1.05-.28M68 21l-27.29-7.25m-8.69-2.31L4 4"/><path d="M35.95 11.96c0 .18-.02.35-.07.51-.22.86-1 1.49-1.93 1.49-1.1 0-2-.9-2-2 0-.18.02-.36.07-.52.23-.86 1.01-1.48 1.93-1.48 1.11 0 2 .89 2 2z"/></g></svg>