<svg viewBox="0 0 72 72" xmlns="http://www.w3.org/2000/svg"><g fill="none" stroke="#000" stroke-miterlimit="10"><path d="M54.09 46.91h-36c-3.85 0-7-3.15-7-7v-8c0-3.85 3.15-7 7-7h36c3.85 0 7 3.15 7 7v8c0 3.85-3.15 7-7 7z"/><circle cx="21.618" cy="35.91" r="5"/><circle cx="35.618" cy="35.91" r="5"/><circle cx="50.618" cy="35.91" r="5"/><path stroke-linecap="round" stroke-linejoin="round" stroke-width="2" d="M53.91 46.91h-36c-3.85 0-7-3.15-7-7v-8c0-3.85 3.15-7 7-7h36c3.85 0 7 3.15 7 7v8c0 3.85-3.15 7-7 7z"/><circle cx="21.438" cy="35.91" r="5" stroke-linecap="round" stroke-linejoin="round" stroke-width="2"/><circle cx="35.438" cy="35.91" r="5" stroke-linecap="round" stroke-linejoin="round" stroke-width="2"/><circle cx="50.438" cy="35.91" r="5" stroke-linecap="round" stroke-linejoin="round" stroke-width="2"/></g></svg>