<svg viewBox="0 0 72 72" xmlns="http://www.w3.org/2000/svg"><g fill="none" stroke="#000" stroke-width="2"><path stroke-linecap="round" stroke-linejoin="round" d="m51.525 60.693 4.981-.121L60.172 64M22.97 52.338l6.205 2.815 4.795-1.057 5.265 1.021M5.609 43.947l1.787-.721 2.949 2.14m11.343-8.998 14.304-16.691 2.944 2.11"/><circle cx="21.599" cy="36.334" r="9.723" stroke-miterlimit="10"/><circle cx="52.485" cy="48.247" r="9.723" stroke-miterlimit="10"/><circle cx="45.393" cy="8.152" r="3" stroke-miterlimit="10"/><path stroke-linecap="round" stroke-linejoin="round" d="m38.459 20.558 2.511-.547a13.299 13.299 0 0 0 3.797-1.244s.43-2.64.624-3.502a.801.801 0 0 1 .423-.68 3.121 3.121 0 0 1 3.01-.38c1.302.552 1.921 2.39 2.16 2.99a63.005 63.005 0 0 1 3.126 9.703 4.136 4.136 0 0 1-1.33 3.166l-.158.143a5.875 5.875 0 0 1-3.35 1.257l-5.715.239a1.935 1.935 0 0 0-1.874 1.932l.106 6.584a2.285 2.285 0 0 1-1.587 2.248 1.73 1.73 0 0 1-1.946-1.573L37.17 32.09a8.651 8.651 0 0 1 .372-3.332 3.666 3.666 0 0 1 2.441-1.814l5.088-.993c1.007-.223 2.491-1.707 2.316-2.863"/><path stroke-miterlimit="10" d="m40.203 42.467-1.957 2.41a2.66 2.66 0 0 1-2.788.862 1.622 1.622 0 0 1-.733-2.328l3.108-5.645m11.138-6.316-7.161 8.981"/></g></svg>