<svg viewBox="0 0 72 72" xmlns="http://www.w3.org/2000/svg"><g fill="none" stroke="#000" stroke-linecap="round" stroke-linejoin="round" stroke-miterlimit="10" stroke-width="2"><path d="M15.661 35.54s-.201 5.02 4.98 8.972l2.901 1.746s-.985 7.455-.958 11.414c.007.927.073 1.587 3.291 1.708h9.622s2.43.146 2.477-1.441c.09-3.004 0-11.846 0-11.846s2.811-2.311 3.436-3.346c0 0 2.805-3.977 1.614-7.032 0 0-.93-.12-4.138-.126l-18.816-.04-4.409-.01zm22.474-5.479h-21.64s-.932.077-.821 1.66"/><path d="M42.07 59.295h6.947c-2.69-9.263-1.783-17.388-1.783-17.388s.174-4.803 3.478-5.803c0 0 3.74-1.087 5-1.826V16.893H42.108V31.03M42 12.875h13.965"/></g></svg>