<svg viewBox="0 0 72 72" xmlns="http://www.w3.org/2000/svg"><g fill="none" stroke="#000" stroke-linecap="round" stroke-linejoin="round" stroke-miterlimit="10" stroke-width="2"><path d="M60 61H12a1 1 0 0 1-1-1V12a1 1 0 0 1 1-1h48a1 1 0 0 1 1 1v48a1 1 0 0 1-1 1z"/><path d="M47.4 40c-4.536-5.67-11.9-5.684-11.9-5.684S28.136 34.33 23.6 40"/><path d="m39 38.6 5.6 11.2s0 1.4-1.4 1.4-5.6-4.2-5.6-4.2h-2.8 1.4-2.8s-4.2 4.2-5.6 4.2c-1.4 0-1.4-1.4-1.4-1.4L32 38.6"/><path d="m33.4 47-2.8-2.8v-2.8h9.8v2.8L37.6 47z"/><circle cx="36.2" cy="27" r="4.2"/></g></svg>