<svg viewBox="0 0 72 72" xmlns="http://www.w3.org/2000/svg"><g fill="none" stroke="#000" stroke-linecap="round" stroke-linejoin="round" stroke-width="2"><circle cx="36" cy="36" r="30"/><path d="M55.66 51.44A24.99 24.99 0 0 0 20.6 16.31zM16.99 19.77a24.99 24.99 0 0 0 35.2 35.27z"/><path d="M31.83 27.25c.256-1.939.633-4.406 3.33-4.302 3.715.143 2.841 6.3 2.841 10.8M35 26v4.419m-1 6.571L33 41m-1.84-6.97L28.998 54s1 6 3 1l3-12s.273-2.401 1.28-3.623"/><path d="m38.44 41.27.56 1.735s1.486 3.892 2 5l2.408 4.539S44 58.005 41 55.005c-1.538-2.353-3.531-5.014-4.635-7.323C35.78 46.422 35 44.629 35 44.005"/><circle cx="35" cy="17" r="2"/></g></svg>