<svg viewBox="0 0 72 72" xmlns="http://www.w3.org/2000/svg"><circle cx="36" cy="36" r="30" fill="none" stroke="#000" stroke-linecap="round" stroke-linejoin="round" stroke-width="2"/><path fill="none" stroke="#000" stroke-linecap="round" stroke-linejoin="round" stroke-width="2" d="M55.66 51.44A24.99 24.99 0 0 0 20.6 16.31zM16.99 19.77a24.99 24.99 0 0 0 35.2 35.27z"/><path fill="none" stroke="#000" stroke-linecap="round" stroke-linejoin="round" d="M42 25.7h6" transform="matrix(.7371 0 0 .7297 8.857 6.124)" stroke-width="2.727"/><path fill="none" stroke="#000" stroke-linecap="round" stroke-linejoin="round" stroke-width="2" d="m24.41 39.69 1.754-5.673M41.42 28.01l4.703 9.462M36.74 28.01h4.683m2.217-3.13-3.986 6.085m2.816 2.955a7.439 7.439 0 0 1 9.826.307 7.439 7.439 0 0 1 .94 9.786M31.93 39.69a7.439 7.439 0 0 1-7.429 7.439 7.439 7.439 0 0 1-7.449-7.419 7.439 7.439 0 0 1 7.409-7.459"/></svg>