<svg viewBox="0 0 72 72" xmlns="http://www.w3.org/2000/svg"><g fill="none" stroke="#000" stroke-width="2"><path stroke-miterlimit="10" d="M49.22 32.9v-3.664a3.753 3.753 0 0 0 3.264-1.973h3.264v8.901h-3.264a3.753 3.753 0 0 0-3.264-1.973v-3.664M38.91 19.92s-3.15-.677-4.747-.89c-2.374-.297-2.374 1.483-2.374 2.67s.89 2.077 2.67 1.78a10.097 10.097 0 0 1 2.967-.297 3.47 3.47 0 0 1 2.374.594v1.484h1.78v-1.484a3.47 3.47 0 0 1 2.374-.594c.998-.048 1.998.052 2.967.297 1.78.297 2.67-.593 2.67-1.78s0-2.967-2.374-2.67c-1.597.213-4.747.89-4.747.89z"/><path stroke-linecap="round" stroke-linejoin="round" d="M25.53 53h-4.45L19 39.65h12.76l-.93 5.98L29.68 53h-4.45"/><circle cx="36" cy="36" r="30" stroke-linecap="round" stroke-linejoin="round"/><path stroke-linecap="round" stroke-linejoin="round" d="M55.66 51.44A24.99 24.99 0 0 0 20.6 16.31zM16.99 19.77a24.99 24.99 0 0 0 35.2 35.27z"/><path stroke-linecap="round" stroke-linejoin="round" d="M32.5 28H46v8l-5.136.165M28.87 31.86c-2.468.105-5.076 2.69-4.869 5.139h4c-.558-.25.751-2.916 3.264-2.666"/></g></svg>