<svg viewBox="0 0 72 72" xmlns="http://www.w3.org/2000/svg"><g fill="none" stroke="#000" stroke-width="2"><path stroke-linecap="round" stroke-linejoin="round" stroke-miterlimit="10" d="M60 61H12a1 1 0 0 1-1-1V12a1 1 0 0 1 1-1h48a1 1 0 0 1 1 1v48a1 1 0 0 1-1 1z"/><circle cx="36" cy="16.01" r="2.375" stroke-miterlimit="10"/><path stroke-linecap="round" stroke-linejoin="round" d="m40 26.36 1.52 30.4c.044.88-.46 1.6-1.12 1.6a1.66 1.66 0 0 1-1.383-1.59l-2.031-17.62c-.1-.874-.543-1.59-.983-1.59s-.88.715-.983 1.59l-2.034 17.62a1.661 1.661 0 0 1-1.383 1.59c-.66 0-1.164-.72-1.12-1.6l1.52-30.4"/><path stroke-linecap="round" stroke-linejoin="round" d="m43.2 40.76-.634-15.2a4.22 4.22 0 0 0-4.166-4h-4.8a4.218 4.218 0 0 0-4.166 4l-.633 15.2"/></g></svg>