<svg viewBox="0 0 72 72" xmlns="http://www.w3.org/2000/svg"><g fill="none" stroke="#000" stroke-linecap="round" stroke-linejoin="round" stroke-width="2"><path d="M60.399 33.496V12.598s0-7.283-6.861-1.583"/><path d="M47.205 12.492c1.689-2.216 4.539-2.85 6.333-1.477s1.9 4.327.211 6.544zM15.857 60.306 14.696 64h3.694l.739-2.111m-9.077-28.393v9.922c0 7.283 5.7 13.3 12.666 13.3H50.16c6.967 0 12.666-6.017 12.666-13.3v-9.922a350.709 350.709 0 0 1-52.774 0z"/></g><path d="M20.607 21.675h0m.914 12.358-3.025-3.914a8.273 8.273 0 0 0 3.154-8.274" fill="none" stroke="#000" stroke-linecap="round" stroke-linejoin="round" stroke-width="2"/><path fill="none" stroke="#000" stroke-linecap="round" stroke-linejoin="round" stroke-width="2" d="M17.346 33.74a6.503 6.503 0 0 1-3.9-7.482 6.613 6.613 0 0 1 8.249-4.373 6.613 6.613 0 0 1 5.018 7.873 5.891 5.891 0 0 1-.34.95m25.265 31.075.739 2.111h3.694L54.91 60.2"/></svg>