<svg viewBox="0 0 72 72" xmlns="http://www.w3.org/2000/svg"><g fill="none" stroke="#000" stroke-linecap="round" stroke-linejoin="round" stroke-miterlimit="10" stroke-width="2"><path d="M12.61 36.87v-8.385h38.94v8.274c2.138-2.907 3.386-2.824 6.768-2.824v21.36H5.848v-21.36c3.594-.509 4.265.614 6.768 2.935zM7.833 58.61v3.852h3.422V58.61m41.565 0v3.852h3.422V58.61M34.53 9.549v8.465c4.382 2.115 8.559 2.125 12.56 0V9.549c-4.033-2.29-8.197-2.384-12.56 0zM12.7 46.42h38.86m0 8.18-.011-17.84m-38.939.11.01 18.44"/><path d="M47.09 13.7s15.18-2.847 15.56 19.74c.099 5.856 0 23.43 0 23.43m-3.73 2.74h7.546"/></g></svg>