<svg viewBox="0 0 72 72" xmlns="http://www.w3.org/2000/svg"><g fill="none" stroke="#000" stroke-linecap="round" stroke-linejoin="round" stroke-miterlimit="10" stroke-width="2"><path d="M11.007 34.218v9.428c0 6.915 5.4 12.572 12 12.572h26c6.6 0 12-5.657 12-12.572v-9.428s-23 2.095-50 0zm47.661 0V14.362s0-6.946-6.5-1.5"/><path d="M46.166 14.305c1.61-2.102 4.297-2.748 6.002-1.443s1.781 4.068.172 6.17l-6.174-4.727zm7.273 45.293 1.143 3.53h-3.524l-.667-2.054m-33.857-1.476-1.143 3.53h3.524l.667-2.054m-8.575-26.856v9.428c0 6.915 5.4 12.572 12 12.572h26c6.6 0 12-5.657 12-12.572v-9.428s-23 2.095-50 0z"/></g></svg>