<svg viewBox="0 0 72 72" xmlns="http://www.w3.org/2000/svg"><g fill="none" stroke="#000"><path stroke-linecap="round" stroke-linejoin="round" stroke-width="2.356" d="M19.1 33.3a17.65 17.65 0 0 1 35.3-.1v.1"/><path stroke-linejoin="round" stroke-width="2" d="M17.3 34.3h39A1.752 1.752 0 0 1 58 36v.1a1.752 1.752 0 0 1-1.7 1.7h-39a1.752 1.752 0 0 1-1.7-1.7V36a1.627 1.627 0 0 1 1.7-1.7z"/><path stroke-linecap="square" stroke-miterlimit="10" stroke-width="2" d="M35 38.4h3.5v2.4H35z"/><path stroke-linecap="square" stroke-linejoin="round" stroke-width="2" d="M17.4 41.9h37.7v3.5H17.4zM15 45.5h42.4V49H15z"/><path stroke-linecap="round" stroke-linejoin="round" stroke-width="2" d="M35 15a2.35 2.35 0 1 1 4.7-.1h0"/></g></svg>