<svg viewBox="0 0 72 72" xmlns="http://www.w3.org/2000/svg"><g fill="none" stroke="#000" stroke-linecap="round" stroke-linejoin="round" stroke-width="2"><path d="M22 37.67h-6.768v23.815H22"/><path d="M21.841 37.67h28.202v23.815H21.841z"/><path d="m50.101 37.623 6.657.059-.212 23.814-6.657-.059"/><path d="M42.69 37.67h7.241v23.815H42.69m-2.881-46.358a9.178 9.178 0 0 1 12.774-3.902 9.303 9.303 0 0 1 3.534 11.812 8.732 8.732 0 0 1-8.554 4.603 9.56 9.56 0 0 1-8.085-6.289m-3.802-6.199-16.864-.095L15 18.925l3.936 3.912 2.242-2.276 2.779 2.762 3.139-3.186 2.547 2.531 2.966.246 2.243-2.275 1.158 1.15"/><ellipse cx="51.08" cy="18.409" rx="2.371" ry="2.381"/><path d="M6 6h60v60H6z"/><path d="M30 37v-3s0-3 3.536-3h4.714"/><path d="M42 37v-3s0-3-3.536-3H33.75"/></g></svg>