<svg viewBox="0 0 72 72" xmlns="http://www.w3.org/2000/svg"><g fill="none" stroke="#000" stroke-linecap="round" stroke-linejoin="round" stroke-width="2"><path d="M17 43.458h38v9.3H17zm0 9.301h38v10.7H17zm26.5-14.323h7.624v5.022H21.129v-5.022h7.049M27 24.408h18v4.05H27zm-2 8.205v-4.126h22v4.126m-9.483.334H50v5.022h-7.37M29.092 20.344h13.842v4.05H29.092z"/><path d="m25.311 42.651 10.751-10.752 10.752 10.752m-17.329-4.682h-6.898v-5.022h11.937M41.5 63.458h-11v-7h11v7z"/><path d="M34.062 63.458v-7h4v7m10.938-3h-2v-4m-23-7h-2v-2m28 2h-2v-2m-4.5 2h-2v-2m-4.5 2h-2v-2m-4.5 2h-2v-2m-3.5 13h-2v-4"/><circle cx="36.063" cy="12.381" r="5"/><path d="M36.063 17.669v2.386"/></g></svg>