<svg viewBox="0 0 72 72" xmlns="http://www.w3.org/2000/svg"><g fill="none" stroke="#000" stroke-linecap="round" stroke-linejoin="round" stroke-width="2"><path d="m55.986 41.23-.012 14.248a2.315 2.315 0 0 1-1.27 2.323c-2.187 1.105-7.373 2.831-18.694 3.127-11.758.307-16.898-1.786-18.935-3.082a2.3 2.3 0 0 1-1.049-2.199V41.231"/><path d="M30.044 57.816V45.269h12.149v12.547m20.564-21.858c-8.074-14.842-26.616-25-26.616-25S18.87 20.49 9.48 36"/><path d="M25.404 33.132a60.26 60.26 0 0 0-2.022 6.744m8.663 1.136s.284-3.383.97-8.026m13.903.211a60.281 60.281 0 0 1 2.022 6.744m-8.748 1.108s-.283-3.383-.97-8.025M18.4 32.927q-1.535 2.425-3.056 5.086m38.396-4.926a127.35 127.35 0 0 1 3.057 5.087"/></g></svg>