<svg viewBox="0 0 72 72" xmlns="http://www.w3.org/2000/svg"><path d="m41.719 38.509 5.062-6.476m-3.418-2.713-4.66 5.76"/><path fill="none" stroke="#000" stroke-linecap="round" stroke-linejoin="round" stroke-miterlimit="10" stroke-width="2" d="m52 58.906-11.098-15.73-3.094-2.235L27.23 26.226l-2.936 2.125L34.87 43.066l1.137 3.651 11.489 15.51zM12.51 19.79l5.792 8.029 10.323-7.446-3.31-4.588s6.882-4.963 10.831-4.324c0 0-6.59-3.093-13.312.883S12.51 19.79 12.51 19.79zm-2.578 2.943 4.665 6.523h0a3.336 3.336 0 0 1-2.993 2.177h0L6.938 24.91h0a2.617 2.617 0 0 1 2.994-2.177h0zm31.357 15.776 5.063-6.476m-3.419-2.713-4.659 5.76m8.078-3.047c3.244 2.576 8.657 1.157 12.091-3.169s3.588-9.92.344-12.495l-5.147 6.484-2.833-.051-.677-2.766 5.132-6.465c-3.244-2.576-8.658-1.157-12.092 3.169-3.434 4.325-3.587 9.92-.343 12.495M30.818 44.386 19 58.906l4 3 9.959-12.74"/></svg>