<svg viewBox="0 0 72 72" xmlns="http://www.w3.org/2000/svg"><g fill="none" stroke="#000" stroke-linecap="round" stroke-linejoin="round" stroke-miterlimit="10"><path stroke-width="2" d="M39 36.09v5.55l-15.78-1.03c.01-.02.02-.04.05-.07 1.12-1.34 5.87-6.26 14.83-5.45.51.05.9.49.9 1zm24 8.27V47"/><path stroke-width="2.121" d="M65 38.93v4.43c0 .55-.506 1-1.125 1H60.5v-.43c0-.52-.495-.96-1.125-.99L56 42.74v-3.81c0-.55.506-1 1.125-1h6.75c.619 0 1.125.45 1.125 1z"/><path stroke-width="2" d="M21.45 50s-2.2-1.54-4.62-5c-.61-.86-1.23-1.84-1.83-2.94-.1-.16-.18-.32-.27-.49-.37-.7.21-1.51 1.03-1.45l.62.04 6.84.45L39 41.64l17 1.1 3 .2c.56.03 1 .47 1 .99v3.09"/><path stroke-width="2" d="M5.042 47.02c3 0 9 3 15 3s10-3 16-3 11 3 16 3 7-3 15-3"/></g></svg>