<svg viewBox="0 0 72 72" xmlns="http://www.w3.org/2000/svg"><path d="M50 16.67H23.78m0 13.11H50M23.78 42.89H50M23.78 56H50M38.445 15.485h4.37M23.78 16.67c1.406 1.343 1.76 3.696 1.76 6.376 0 2.937-.124 5.482-1.76 6.734m0 0c1.406 1.343 1.76 3.696 1.76 6.376 0 2.937-.124 5.482-1.76 6.734m0 0c1.406 1.343 1.76 3.696 1.76 6.376 0 2.937-.124 5.482-1.76 6.734M50 16.67c-1.406 1.343-1.76 3.696-1.76 6.376 0 2.937.124 5.482 1.76 6.734m0 0c-1.406 1.343-1.76 3.696-1.76 6.376 0 2.937.124 5.482 1.76 6.734m0 0c-1.406 1.343-1.76 3.696-1.76 6.376 0 2.937.124 5.482 1.76 6.734" fill="none" stroke="#000" stroke-linecap="round" stroke-miterlimit="10" stroke-width="2"/></svg>