<svg viewBox="0 0 72 72" xmlns="http://www.w3.org/2000/svg"><path fill="none" stroke="#000" stroke-linecap="round" stroke-linejoin="round" stroke-miterlimit="10" stroke-width="1.56" d="m20.382 26.398-6.288-10.464-3.078-1.04 1.13 10.144M44.245 39.37l-18.14-16.75-2.57-.11 9.535 15.018"/><circle cx="32.453" cy="44.192" transform="rotate(-71.324 32.455 44.195)" r="2"/><circle cx="37.772" cy="45.77" transform="rotate(-71.324 37.775 45.773)" r="2"/><path fill="none" stroke="#000" stroke-linecap="round" stroke-linejoin="round" stroke-miterlimit="10" stroke-width="1.56" d="m43.26 34.33 11.434 3.285a10.836 10.836 0 0 1 3.955 2.093c2.86 2.385 7.653 6.845 4.274 7.425-4.643.798-27.549-6.019-34.245-8.128-6.695-2.109-13.907-6.09-18.41-9.464-3.94-2.953 2.244-1.917 2.244-1.917s7.116 1.048 10.042 1.8l2.941.755"/></svg>