<svg viewBox="0 0 72 72" xmlns="http://www.w3.org/2000/svg"><g fill="none" stroke="#000" stroke-miterlimit="10" stroke-width="2"><path d="M52.04 41.44c0 .31-.07.61-.2.88-.02.05-.04.09-.07.14-.35.61-1.02 1.03-1.77 1.03-.18 0-.35-.02-.51-.08-.53-.13-.99-.48-1.25-.95-.19-.3-.29-.65-.29-1.02 0-.55.22-1.06.6-1.42.24-.27.57-.46.94-.55.16-.05.33-.07.51-.07 1.12 0 2.04.92 2.04 2.04zm-13.845 0c0 .31-.07.61-.2.88-.02.05-.04.09-.07.14-.35.61-1.02 1.03-1.77 1.03-.18 0-.35-.02-.51-.08-.53-.13-.99-.48-1.25-.95-.19-.3-.29-.65-.29-1.02 0-.55.22-1.06.6-1.42.24-.27.57-.46.94-.55.16-.05.33-.07.51-.07 1.12 0 2.04.92 2.04 2.04zm-13.75 0c0 .31-.07.61-.2.88-.02.05-.04.09-.07.14-.35.61-1.02 1.03-1.77 1.03-.18 0-.35-.02-.51-.08-.53-.13-.99-.48-1.25-.95-.19-.3-.29-.65-.29-1.02 0-.55.22-1.06.6-1.42.24-.27.57-.46.94-.55.16-.05.33-.07.51-.07 1.12 0 2.04.92 2.04 2.04z"/><path stroke-linecap="round" stroke-linejoin="round" d="M61.66 46.07c-.3.3-4.65.55-10.69.73-1.62.04-3.36.08-5.17.12-1.18.02-2.4.04-3.64.05-.42 0-.83.01-1.25.01-.12.01-.23.01-.35.01-.65.01-1.3.01-1.96.02-1.01.01-2.02.02-3.04.02-3.04.02-6.08.01-8.92-.02-1.15-.01-2.27-.03-3.34-.04-.16-.01-.31-.01-.47-.01l-1.5-.03c-5.98-.15-10.32-.42-10.76-.86-.71-.72-.77-1.43-.61-1.98.17-.65.61-1.09.61-1.09l10.22-7.15h30.65L61.66 43s.29.59.4 1.28c.11.6.08 1.31-.4 1.79z"/><path stroke-linecap="round" stroke-linejoin="round" d="M42.16 46.97c-.42.01-.84.01-1.26.02.01 0 .01-.01.01-.01.42 0 .83-.01 1.25-.01z"/><path stroke-linecap="round" stroke-linejoin="round" d="M50.97 46.8c-1.63 3.04-7.43 5.3-14.38 5.39-.15.01-.31.01-.47.01-.87 0-1.73-.03-2.56-.1-.88-.07-1.73-.17-2.55-.31-4.63-.76-8.24-2.53-9.61-4.75a.673.673 0 0 1-.07-.11l1.5.03c.16 0 .31 0 .47.01 1.07.01 2.19.03 3.34.04 2.84.03 5.88.04 8.92.02 1.02 0 2.03-.01 3.04-.02.66-.01 1.31-.01 1.96-.02h.34c.42-.01.84-.01 1.26-.02 1.24-.01 2.46-.03 3.64-.05 1.81-.04 3.55-.08 5.17-.12z"/><path stroke-linecap="round" stroke-linejoin="round" d="M40.91 46.98s0 .01-.01.01h-.34c.12 0 .23 0 .35-.01z"/><path stroke-linecap="round" stroke-linejoin="round" d="M42.16 46.97c-.42.01-.84.01-1.26.02h-.34c.12 0 .23 0 .35-.01.42 0 .83-.01 1.25-.01zm9.24-11.22v.1H20.83v-.09c.19-2.67 1.07-5.16 2.46-7.28 2.3-3.5 5.98-6 10.27-6.72a15.426 15.426 0 0 1 3.02-.2c7.87.23 14.25 6.4 14.82 14.19z"/></g></svg>