<svg viewBox="0 0 72 72" xmlns="http://www.w3.org/2000/svg"><g fill="none" stroke="#000" stroke-miterlimit="10" stroke-width="2"><circle cx="16.156" cy="50.893" transform="rotate(-1.335 16.175 50.952)" r="5.476"/><circle cx="51.398" cy="50.893" r="5.476"/><path stroke-linecap="round" stroke-linejoin="round" d="M26.262 50.776a9.863 9.863 0 0 0-2.918-6.98c-3.89-3.874-10.2-3.874-14.09 0m52.443 6.98c0-5.48-4.442-9.921-9.922-9.921s-9.921 4.442-9.921 9.922m-1.418-21.261h18.426v5.67H40.436z"/><path stroke-linecap="round" stroke-linejoin="round" d="m14.923 40.855 8.505-17.009h5.67m-2.836 27.047h15.592m-1.418-15.708s-5.67 21.261-17.008 0m35.434 0s4.253 7.087 2.835 15.591"/></g></svg>