<svg viewBox="0 0 72 72" xmlns="http://www.w3.org/2000/svg"><g fill="none" stroke="#000" stroke-linecap="round" stroke-linejoin="round" stroke-width="2"><path d="m60.653 43.998 1.431 2.686c.132.247.264.27.668.275h2.772a2.005 2.005 0 0 1 2.033 2.321l-.304 1.715H60.83"/><path d="M6.052 46.978V41.89a2.237 2.237 0 0 1 1.896-2.21l12.445-2.059 6.597-8.098a6.419 6.419 0 0 1 4.976-2.365h11.239a1.17 1.17 0 0 1 1.17 1.17v9.528H65v9.123"/><path d="m10.4 43.998-1.432 2.686c-.131.247-.264.27-.668.275H6.052A2.052 2.052 0 0 0 4 49.011V51h4.063m33.16-20.183v6.512h-3.92m-3.208-6.512v6.512H24.65"/><circle cx="16" cy="51" r="5"/><circle cx="52.933" cy="51" r="5"/><path d="M23.651 51h21.21"/></g></svg>