<svg viewBox="0 0 72 72" xmlns="http://www.w3.org/2000/svg"><circle cx="51" cy="47.999" r="3"/><circle cx="21" cy="47.999" r="3"/><path d="M56.408 43H15.592c-2.86 0-5.446-3.478-5.466-3.513a1 1 0 0 1 1.696-1.054c.526.696 2.364 2.567 3.77 2.567h40.816c1.433 0 3.273-1.938 3.804-2.615a1 1 0 0 1 1.577 1.23C61.52 39.96 59.073 43 56.41 43z"/><path fill="none" stroke="#000" stroke-linecap="round" stroke-miterlimit="10" stroke-width="2" d="M52 46.267a2 2 0 1 1-2 3.464m-28-3.464a2 2 0 1 1-2 3.464"/></svg>