<svg viewBox="0 0 72 72" xmlns="http://www.w3.org/2000/svg"><g fill="none" stroke="#000" stroke-linecap="round" stroke-linejoin="round" stroke-width="2"><path d="M58.424 38.588c-.468-2.702-2.34-6.215-8.818-6.68-15.689-1.128-15.22-17.475-15.22-17.475h-16.72s-.47 13.247-2.349 17.662a20.204 20.204 0 0 0-1.41 6.494m20.888-20.136h-2.422m3.426 3.676h-2.422m4.286 3.504h-2.422m4.894 2.933h-2.421M24.097 41.772l5.559-7.792m-1.054 7.792 5.559-7.792m-1.272 7.792 5.559-7.792m-1.092 7.792 5.559-7.792M21.22 41.772h37.224a1.832 1.832 0 0 1 1.827 1.827h0a1.832 1.832 0 0 1-1.827 1.827H14.357a1.833 1.833 0 0 1-1.827-1.827h0a1.833 1.833 0 0 1 1.827-1.827h2.059m12.673 7.416H40.34m16.529-3.762 4.364 3.102-4.116 5.563-2.842-2.343"/><circle cx="22.416" cy="54.709" r="5"/><circle cx="46.669" cy="54.709" r="5"/><path d="m16.486 47.82.714 1.049m35.717-1.049-.713 1.049"/></g></svg>