<svg viewBox="0 0 72 72" xmlns="http://www.w3.org/2000/svg"><g fill="none" stroke="#000" stroke-linecap="round" stroke-linejoin="round" stroke-width="2"><path d="M31.736 42.143c-.87 2.515-1.12 4.347-1.799 5.591a2.193 2.193 0 0 1-2.582 1.023 47.197 47.197 0 0 0-6.206-1.455 2.15 2.15 0 0 1-.691-.242c-4.095-2.244-8.51-3.408-9.458-2.46a2.347 2.347 0 0 0-.776 2.965c.764 2.294 7.228 5.214 8.565 6.728l5.849 5.849s6.972 4.916 10.797 4.895C47.498 64.971 54.987 49.242 55 45.472a21.652 21.652 0 0 0-.28-3.287 19.036 19.036 0 0 0-.777-3.006m-29.439-3.485-8.51 2.031a3.431 3.431 0 0 1-4.428-2.032c-.194-1.883.462-2.405 1.858-3.39a6.011 6.011 0 0 1 1.103-.477l9.624-3.05a3.7 3.7 0 0 1 1.825-.056m5.76 13.423-7.098-6.372"/><path d="M25.01 28.613a4.333 4.333 0 0 1 2.349.63 3.404 3.404 0 0 1 .787.651l8.33 6.694m-4.039-6.666L25.01 15.208c-.875-2.078-1.511-3.546 0-4.687 1.511-1.15 2.99-.36 4.141 1.15.156.205 8.55 13.016 11.084 17.267v.01m7.858 2.447c-1.384-5.518-6.075-21.198-6.163-21.423a2.778 2.778 0 0 0-3.434-2.053c-1.784.673-2.02 2.69-1.74 4.46l.977 6.687m9.667-.56c.119-1.906.644-3.596 2.276-3.782a2.464 2.464 0 0 1 2.563 1.497 5.272 5.272 0 0 1 .556 2.177c.233 3.92 1.166 20.239 1.166 20.239a3.243 3.243 0 0 1-.03.536M39.675 28.081l3.491 5.513"/></g></svg>