<svg viewBox="0 0 72 72" xmlns="http://www.w3.org/2000/svg"><g fill="none" stroke="#000" stroke-linecap="round" stroke-linejoin="round" stroke-width="2"><path d="m44.28 43.928 3.976-8.427a1.594 1.594 0 0 0 .15-.767l-.63-11.436a1.803 1.803 0 0 0-2.055-1.699c-1.726.268-3.966 1.479-3.966 5.967v4.98a1.594 1.594 0 0 1-.156.687l-3.784 7.912a1.581 1.581 0 0 1-1.085.866c-1.9.418-6.955 1.307-10.323-.18"/><path d="M45.43 21.653c.489-3.424 2.604-4.283 4.145-4.44a1.659 1.659 0 0 1 1.81 1.51l1.503 16.727a2.616 2.616 0 0 1-.25 1.373L49.2 43.928m-18.146-8.615c4.115-3.195 7.122-10.054 7.339-10.558a.893.893 0 0 0 .024-.062c.176-.496 2.367-6.413 6.327-4.627"/><path d="M50.16 17.26a4.114 4.114 0 0 1 1.92-1.173 2.232 2.232 0 0 1 2.818 1.915l2.155 19.465a9.705 9.705 0 0 1-.501 4.318c-1.737 4.879-6.258 16.424-10.531 17.608-6.165 1.709-19.022 1.754-19.022 1.754a12.11 12.11 0 0 1-12.11-12.11c0-4.18 2.118-8.26 5.339-10.042a12.41 12.41 0 0 1 6.771-2.064"/></g></svg>