<svg viewBox="0 0 72 72" xmlns="http://www.w3.org/2000/svg"><g fill="none" stroke="#000" stroke-linecap="round" stroke-width="2"><path stroke-miterlimit="10" d="M18.771 52.956c1.142 8.6 8.54 14.985 17.214 14.857 9.667 0 17.893-6.832 17.893-16.877v-.001l-.658-11.13a4.308 4.308 0 0 0-4.236-3.992h-10a3.786 3.786 0 0 0-4 3.5 4.327 4.327 0 0 0 3.976 3.942l1.05.117c2.186.242 3.975 1.342 3.975 2.442v2.44a12.445 12.445 0 0 0-5.777 2.958m-19.437 1.744c-.39-2.89-1.063-7.873-1.063-14.873m0 0-1.937-18.515M22 17.917l.944 8.69M43.5 8.25l-.458 14.91m8.833-14.702.5 24.834M15.77 19.568c-.723-7.73 5.499-7.596 6.23-1.651M43.5 8.25c0-5.875 8.375-5.188 8.375.208"/><path stroke-linejoin="round" d="M31.318 40.639c-3.322 1.227-4.997-1.935-4.874-4v-7a3.531 3.531 0 1 1 7 0"/><path stroke-linejoin="round" d="M33.506 34.004v-5.318a3.531 3.531 0 1 1 7 0l.03 3.504"/></g></svg>