<svg viewBox="0 0 72 72" xmlns="http://www.w3.org/2000/svg"><path fill="none" stroke="#000" stroke-linecap="round" stroke-linejoin="round" stroke-miterlimit="10" stroke-width="2" d="m47.705 45.684-23.665-.089m.521.27v3.303m1.911-7.142v3.303m1.941.536v3.303m1.912-7.142v3.303m1.928.536v3.303m1.911-7.142v3.303m1.941.536v3.303m1.912-7.142v3.303m1.915.536v3.303m1.912-7.142v3.303m1.969.536v3.303m1.887-7.142v3.303"/><path fill="none" stroke="#000" stroke-linecap="round" stroke-miterlimit="10" stroke-width="2" d="M50.918 45.328a2.402 2.402 0 0 1 2.518.56l4.86 4.86a2.402 2.402 0 0 1 0 3.397l-1.946 1.946a2.402 2.402 0 0 1-3.397 0l-4.86-4.86a2.402 2.402 0 0 1-.604-2.387"/><path fill="none" stroke="#000" stroke-linecap="round" stroke-linejoin="round" stroke-miterlimit="10" stroke-width="2" d="M57.481 44.237A22.944 22.944 0 0 0 59 36c0-12.703-10.298-23-23-23S13 23.297 13 36c0 12.702 10.298 23 23 23 4.07 0 7.893-1.057 11.21-2.912"/><path d="M30 31a3.001 3.001 0 0 1-6 0c0-1.655 1.345-3 3-3s3 1.345 3 3m18 0a3.001 3.001 0 0 1-6 0c0-1.655 1.345-3 3-3s3 1.345 3 3"/></svg>