<svg viewBox="0 0 72 72" xmlns="http://www.w3.org/2000/svg"><g fill="none" stroke="#000" stroke-linecap="round" stroke-linejoin="round" stroke-width="2"><path d="M21.662 43.963a3.786 3.786 0 0 1-3.5-4v-7a3.531 3.531 0 1 1 7 0v7a3.786 3.786 0 0 1-3.5 4z"/><path d="M28.724 50.193a3.786 3.786 0 0 1-3.5-4v-15a3.531 3.531 0 1 1 7 0v15a3.786 3.786 0 0 1-3.5 4zm9.214-30.755-2.971 7.757m16.573 4.891L42.266 7.68c-2.017-4.617-9.205-1.742-7.515 2.713l3.185 9.044L42.37 31.97m4.33-12.623 3.296-9.665c.955-4.947-6.597-6.651-7.73-2.023"/><path d="M18.13 47.08s-.09 4.119 0 5.488c.572 8.656 9.688 15.089 18.363 14.961 9.667 0 17.893-6.833 17.893-16.878h0l-.658-11.13a4.308 4.308 0 0 0-4.236-3.993h-10a3.786 3.786 0 0 0-4 3.5 4.327 4.327 0 0 0 3.976 3.942l1.05.117c2.186.242 3.975 1.342 3.975 2.442v2.44a12.445 12.445 0 0 0-5.777 2.958"/></g></svg>