<svg viewBox="0 0 72 72" xmlns="http://www.w3.org/2000/svg"><g fill="none" stroke="#000" stroke-miterlimit="2" stroke-width="2"><path stroke-linecap="round" stroke-linejoin="round" d="M34 16.01V13.5a2.5 2.5 0 0 1 2.5-2.5h0a2.5 2.5 0 0 1 2.5 2.5V16"/><path stroke-linecap="round" stroke-linejoin="round" d="M47.45 56h-22.9C19.846 56 16 52.153 16 47.45v-22.9c0-4.703 3.847-8.55 8.55-8.55h22.9c4.703 0 8.55 3.847 8.55 8.55v22.9c0 4.703-3.847 8.55-8.55 8.55z"/><circle cx="44.835" cy="29.002" stroke-linecap="round" stroke-linejoin="round" r="2.834"/><circle cx="27.334" cy="29.002" stroke-linecap="round" stroke-linejoin="round" r="2.834"/><path d="M44.5 47.5h-17c-2.2 0-4-1.8-4-4s1.8-4 4-4h17c2.2 0 4 1.8 4 4s-1.8 4-4 4z"/><path stroke-linecap="round" stroke-linejoin="round" d="M13.5 41h0a2.5 2.5 0 0 1-2.5-2.5v-8a2.5 2.5 0 0 1 2.5-2.5h0a2.5 2.5 0 0 1 2.5 2.5v8a2.5 2.5 0 0 1-2.5 2.5zm45 0h0a2.5 2.5 0 0 0 2.5-2.5v-8a2.5 2.5 0 0 0-2.5-2.5h0a2.5 2.5 0 0 0-2.5 2.5v8a2.5 2.5 0 0 0 2.5 2.5zM28 40v7m5-7v7m5-7v7m5-7v7"/></g></svg>