<svg viewBox="0 0 72 72" xmlns="http://www.w3.org/2000/svg"><g fill="none" stroke="#000" stroke-linecap="round" stroke-width="2"><path stroke-linejoin="round" d="M21.4 53.648a22.996 22.996 0 1 1 21.539 4.276"/><path stroke-miterlimit="10" d="M31.635 31.735a4.615 4.615 0 0 0-6.2-2.4 4.685 4.685 0 0 0-2.4 2.4m25.8 0a4.615 4.615 0 0 0-6.2-2.4 4.685 4.685 0 0 0-2.4 2.4"/><path stroke-linejoin="round" d="M25.46 65.238c.6-3 1.1-5.2 1.3-6.1-.4-.8-.8-1.7-1.2-2.5-.2-.4-.6-1.6-1.2-8.3-.2-2-.1-3.1.5-3.8a1.563 1.563 0 0 1 1.2-.6c1.3 0 1.7 1.2 2 2.4l.1.3.2.6a39.478 39.478 0 0 1 3.5-7.5c1.8-3 3.5-.6 3.5-.6 2.2-4.1 5-.8 4 1.3a1.981 1.981 0 0 1 1.6-.1 1.416 1.416 0 0 1 .9 1.4 5.285 5.285 0 0 1-.9 2.8 2.189 2.189 0 0 1 1 .9 3.078 3.078 0 0 1-.1 2.8l-.9 1.7c-.3.9-.5 1.8-.7 2.6a20.784 20.784 0 0 1-2.3 6.3 4.744 4.744 0 0 1-1.4 1.7c-.4.4-.7.6-.8 1a42.776 42.776 0 0 0-.6 4.4"/></g></svg>