<svg viewBox="0 0 72 72" xmlns="http://www.w3.org/2000/svg"><path fill="none" stroke="#000" stroke-linecap="round" stroke-linejoin="round" stroke-width="2" d="M20.479 24.004c.037-1.191.189-2.535.627-4.161 1.479-5.5 7.277-8.966 13.708-8.966 5.4 0 8 3 8 3a8.132 8.132 0 0 1 7.406 8.037c.386 7.18 1.024 7.152 3.428 12.822a11.598 11.598 0 0 1-1.637 11.904"/><path d="M41.873 30a2 2 0 1 1-4 0 2 2 0 0 1 4 0"/><path fill="none" stroke="#000" stroke-linecap="round" stroke-linejoin="round" stroke-width="2" d="M37.438 38H39m16 22v-3c0-4.994-5.006-9-10-9-3.365 2.803-6.839 3.693-10.094 3.693-.704 0-1.441-.065-2.053-.14"/><path fill="none" stroke="#000" stroke-linecap="round" stroke-linejoin="round" stroke-miterlimit="10" stroke-width="2" d="M32.346 21.542C30.156 24.828 30.447 24.346 27 31m-5 1.602c2.25-4.332 4.11-7.81 5.531-9.602M17 60c2-9 4-17.411 4-17.411s-.586-.76-2-3.589c-2-4 0-9 2-12m14-4c-1.283 2.565-2.826 5.477-4 9m-2 28c.005-.57-.697-9.451 0-14.014.267-1.746 2.191-2.289 3-3.986 1.906-4 2.334-7.806 3.937-14"/><path fill="none" stroke="#000" stroke-linecap="round" stroke-linejoin="round" stroke-width="2" d="M37.326 19.71c.51-.56.906-1.134 1.674-1.71 0 0 4 5 7 8 0 0 1 2 1 5 0 9-5.127 14-11.063 14-.22 0-.56-.023-.937-.056"/></svg>