<svg viewBox="0 0 72 72" xmlns="http://www.w3.org/2000/svg"><path fill="none" stroke="#000" stroke-linecap="round" stroke-linejoin="round" stroke-miterlimit="10" stroke-width="2" d="M23.443 21.175c2.9-1.555 6.194-1.613 8.656 0m7.802 0c2.899-1.555 6.194-1.613 8.656 0m1.251 25.371s-1.58 8.43-13.81 8.76c-12.18-.44-13.81-8.76-13.81-8.76-.46-1.73-1.24-5.76 2.28-3.81 2.7 1.5 5.38 4.37 11.53 4.55 6.16-.18 8.83-3.05 11.53-4.55 3.52-1.95 2.75 2.08 2.28 3.81zM13.845 27.933s-2.047-1.468-.602-3.124c0 0-2.279-2.013-.428-3.904 0 0-1.238-4.073 2.138-4.309 0 0-.39-4.072 4.08-3.598 0 0 2.501-1.802 4.355.249 0 0 2.533-1.608 3.843.402"/><circle cx="36" cy="36" r="23" fill="none" stroke="#000" stroke-linecap="round" stroke-linejoin="round" stroke-miterlimit="10" stroke-width="2"/><path fill="none" stroke="#000" stroke-linecap="round" stroke-linejoin="round" stroke-miterlimit="10" stroke-width="2" d="M58.155 27.933s2.047-1.468.602-3.124c0 0 2.279-2.013.428-3.904 0 0 1.238-4.073-2.138-4.309 0 0 .39-4.072-4.08-3.598 0 0-2.501-1.802-4.355.249 0 0-2.533-1.608-3.843.402"/><ellipse cx="27.771" cy="30.818" rx="3.5" ry="6.304" fill="none" stroke="#000" stroke-miterlimit="10" stroke-width="2"/><ellipse cx="44.229" cy="30.822" rx="3.5" ry="6.304" fill="none" stroke="#000" stroke-miterlimit="10" stroke-width="2"/><circle cx="36" cy="38.978" r="2.735"/></svg>