<svg viewBox="0 0 72 72" xmlns="http://www.w3.org/2000/svg"><path d="M41.952 67.976a1 1 0 0 1-.991-1.142l.462-3.223c.016-.104.047-.206.094-.3l4.606-9.33c.487-1.26.433-2.772-.186-4.069l-2.864-5.998a6.084 6.084 0 0 1-.368-4.262c.956-3.415 2.368-9.088 2.418-10.412.04-1.048-1.613-2.675-2.8-3.495a1.043 1.043 0 0 1-.148-.126c-.025-.023-.854-.798-2.232-.507-1.663.354-5.07 2.487-9.209 12.794a1.004 1.004 0 0 1-.25.364l-2.263 2.08c-1.221 1.122-2.135 2.323-2.717 3.57-.33.709-.576 1.433-.731 2.151-.279 1.28-.277 2.452.003 3.484.4 1.468 1.38 2.709 2.914 3.686 2.182 1.39 4.712 1.75 4.738 1.752a1 1 0 0 1-.267 1.983c-.12-.017-2.98-.414-5.545-2.047-1.967-1.254-3.235-2.885-3.77-4.849-.365-1.345-.374-2.835-.029-4.432.187-.862.48-1.728.874-2.573.693-1.486 1.761-2.898 3.176-4.198l2.097-1.926c3.418-8.446 6.997-13.092 10.64-13.81 2.148-.424 3.557.678 3.917 1 .592.419 3.69 2.725 3.6 5.174-.064 1.733-1.706 8.077-2.49 10.877a4.085 4.085 0 0 0 .247 2.86l2.863 5.999a7.247 7.247 0 0 1 .21 5.736l-4.571 9.266-.439 3.064a1 1 0 0 1-.989.859z"/><path d="M32.938 67.976a1 1 0 0 1-.999-.96l-.312-7.733a1 1 0 0 1 .959-1.039c.547-.053 1.017.407 1.039.96l.313 7.732a1 1 0 0 1-.96 1.039h-.04z"/><path fill="none" stroke="#000" stroke-linecap="round" stroke-linejoin="round" stroke-miterlimit="10" stroke-width="2" d="M38.558 20.785c-3.07.59-6.36-1.6-7.59-5.2-.9-2.66-.45-5.4.98-7.22.65-.84 1.51-1.48 2.54-1.83"/><path fill="none" stroke="#000" stroke-linecap="round" stroke-linejoin="round" stroke-miterlimit="10" stroke-width="2" d="M31.948 8.355v.01c.03.35.63 6.87 9.99 5.05"/><path fill="none" stroke="#000" stroke-linecap="round" stroke-linejoin="round" stroke-miterlimit="10" stroke-width="2" d="M34.488 6.535s8.1-3.57 11.32 3.99c2.71 6.38 2.41 11.13 2.25 12.46-.03.19-.23.32-.41.25-1.24-.45-5.29-2.03-5.81-3.57l.11-6.25v-.01"/><path d="M30.918 50.71c-.71 0-1.482-.054-2.326-.168a1 1 0 1 1 .267-1.982c5.673.77 7.176-1.476 8.693-4.729 2.314-5.741 1.923-13.405 1.919-13.482a.999.999 0 0 1 .943-1.053c.537-.056 1.022.39 1.053.943.018.331.42 8.19-2.081 14.389-1.507 3.233-3.31 6.082-8.468 6.082z"/></svg>