<svg viewBox="0 0 72 72" xmlns="http://www.w3.org/2000/svg"><path fill="none" stroke="#000" stroke-linecap="round" stroke-linejoin="round" stroke-miterlimit="10" stroke-width="2" d="M39.25 50.26s-12.58.588-16.555 9.17"/><path fill="none" stroke="#000" stroke-linecap="round" stroke-linejoin="round" stroke-miterlimit="10" stroke-width="2" d="M29.236 34.93s-.966 13.668 6.2 15.837m-10.82 5.73-1.572-3.908m23.117-9.849-.35-2.537m-.027-21.233c-7.355-.297-13.7-8.062-13.7-8.062l-.001-.001c-2.375 1.882-3.94 5.095-3.94 8.742 0 5.8 3.956 10.5 8.834 10.5 4.88 0 8.834-4.7 8.834-10.5 0-.228-.006-.455-.018-.679"/><path fill="none" stroke="#000" stroke-linecap="round" stroke-linejoin="round" stroke-miterlimit="10" stroke-width="2" d="M46.954 29.536c1.09-1.097 2.225-3.145 2.505-6.962.578-7.851-2.397-16.456-12.465-16.524h-.574c-10.067.068-13.043 8.673-12.465 16.524s4.764 8.218 4.764 8.218m1.217 32.86c-16.663 2.72-12.672-6.786-12.672-6.786s5.96-16.152 7.263-20.011c.67-1.983 4.709-2.002 4.709-2.002s6.21 4.816 12.556.312c0 0 4.37-4.095 7.226-.312.692.916 1.82 3.543 2.877 6.23"/><circle cx="47.82" cy="50.957" r="7.257" fill="none" stroke="#000" stroke-linecap="round" stroke-linejoin="round" stroke-miterlimit="10" stroke-width="2"/><path fill="none" stroke="#000" stroke-linecap="round" stroke-linejoin="round" stroke-miterlimit="10" stroke-width="2" d="M40.466 64.915c8.909-2.032 13.986-5.526 13.986-5.526"/><circle cx="22.713" cy="59.331" r="1"/></svg>