<svg viewBox="0 0 72 72" xmlns="http://www.w3.org/2000/svg"><path fill="none" stroke="#000" stroke-linecap="round" stroke-linejoin="round" stroke-width="2" d="M33.58 49.785s-1.266 6.317 2.42 6.317 2.42-6.317 2.42-6.317"/><path fill="none" stroke="#000" stroke-linecap="round" stroke-linejoin="round" stroke-width="2" d="m35.108 56.153-2.534 3.836c-3.808-1.85-5.95-13.67-5.95-13.67l-5.356 7.313 3.12 1.943-1.048 3.283 9.305 1.13m4.247-3.835 2.534 3.836c3.808-1.85 5.95-13.67 5.95-13.67l5.356 7.313-3.12 1.943 1.048 3.283-9.305 1.13"/><path fill="none" stroke="#000" stroke-linecap="round" stroke-linejoin="round" stroke-width="2" d="M16.131 59.959s-2.098-13.64 10.492-13.64c3.349 2.233 6.218 3.776 9.443 3.769h-.132c3.225.007 6.094-1.536 9.443-3.769 12.59 0 10.492 13.64 10.492 13.64M17.972 44.93c-2.18-5.023.493-8.84 2.113-12.98 1.6-4.2-.2-6.5 1.3-12s7.3-9 13.7-9c5.4 0 8 3 8 3a8.123 8.123 0 0 1 7.4 8c.4 7.2 1 7.2 3.4 12.8a11.64 11.64 0 0 1-.41 10.119"/><path d="M42.085 29.95a2 2 0 1 1-2-2 2.006 2.006 0 0 1 2 2m-8 0a2 2 0 1 1-2-2 2.006 2.006 0 0 1 2 2"/><path fill="none" stroke="#000" stroke-linejoin="round" stroke-width="2" d="M25.085 30.95c0 8 5 14 11 14s11-6 11-14c0-5-2-8-6-12-4 4-16 9-16 11z"/><path fill="none" stroke="#000" stroke-linecap="round" stroke-linejoin="round" stroke-width="2" d="M33.085 38.15a6.375 6.375 0 0 0 6 0"/></svg>