<svg viewBox="0 0 72 72" xmlns="http://www.w3.org/2000/svg"><g fill="none" stroke="#000" stroke-width="2"><circle cx="32.698" cy="49.57" r="3" stroke-miterlimit="10"/><path stroke-linecap="round" stroke-linejoin="round" d="m26.937 39.63 1.469-4.317c.19-1.049-.902-4.15-1.76-4.723l-15.493-7.712a2.286 2.286 0 0 1-1.143-2.383 1.59 1.59 0 0 1 2.192-.667l9.712 3.96c.869.434 7.279 1.996 7.279 1.996 1.048.286 4.84-.713 5.602-1.38 0 0 4.671-4.29 5.148-5.147l4.766-8.103a3.233 3.233 0 0 1 2.383-1.621c.763 0 1.144.762.763 1.81 0 0-3.257 8.39-3.725 9.404-.623 1.35-4.452 5.711-5.623 7.67a14.269 14.269 0 0 0-1.309 3.596 26.687 26.687 0 0 0-.6 3.662 12.17 12.17 0 0 0 .548 3.598M23.832 57.196V49.57c0-3.241 1.716-5.243 3.813-5.72a16.245 16.245 0 0 1 9.533 0c2.097.477 3.813 2.574 3.813 5.72v7.626"/><path stroke-linecap="round" stroke-linejoin="round" d="M27.386 54.646s.658-.009.852-.43c.228-.496-.079-1.793.126-2.516a3.362 3.362 0 0 1 1.204-1.807"/></g></svg>