<svg viewBox="0 0 72 72" xmlns="http://www.w3.org/2000/svg"><g fill="none" stroke="#000" stroke-miterlimit="10" stroke-width="2"><circle cx="35.969" cy="13.094" r="3"/><path stroke-linecap="round" stroke-linejoin="round" d="m41 26 2.568 39.004c.073 1.098-.61 1.996-1.517 1.996-.908 0-1.772-.892-1.92-1.981L37.27 43.98C37.12 42.891 36.55 42 36 42s-1.121.892-1.27 1.981L31.87 65.02c-.15 1.089-1.014 1.98-1.92 1.98-.908 0-1.59-.898-1.518-1.996L31 26"/><path stroke-linecap="round" stroke-linejoin="round" d="m19 25 3.707 4.237c1.812 2.07 3.663 1.543 4.115-1.17l.356-2.135C27.63 23.22 29.8 20.775 32 20.5c2.2-.275 5.8-.275 8 0s4.37 2.72 4.822 5.432l.356 2.136C45.63 30.78 47.8 32.55 50 32l4-1"/></g></svg>