<svg viewBox="0 0 72 72" xmlns="http://www.w3.org/2000/svg"><path fill="none" stroke="#000" stroke-linecap="round" stroke-linejoin="round" stroke-width="2" d="M48.086 27.805a43.376 43.376 0 0 0-.738-7.718h0a26.09 26.09 0 0 1-21.338 0 22.928 22.928 0 0 0-1.168 7.233c-.18 8.682 4.876 15.828 11.294 15.962s11.769-6.795 11.95-15.477"/><path fill="none" stroke="#000" stroke-linecap="round" stroke-linejoin="round" stroke-width="2" d="M46.53 35.26c10.856-5.606 5.86-19.568 5.86-19.568a4.98 4.98 0 0 0-4.198-2.924 6.72 6.72 0 0 0-4.434 1.389S34.646 2.055 24.17 13.29a8.345 8.345 0 0 1-7.597 2.768s.714 4.088 3.187 4.528c0 0-3.916 3.204-.417 6.947 0 0 3.687 8.996 7.848 9.669"/><path d="M42.169 29.773a2 2 0 1 1-2-2 2 2 0 0 1 2 2m-8 0a2 2 0 1 1-2-2 2 2 0 0 1 2 2m1.999 10.002a7.652 7.652 0 0 1-3.447-.858 1 1 0 0 1 .895-1.789 5.377 5.377 0 0 0 5.105 0 1 1 0 1 1 .895 1.79 7.653 7.653 0 0 1-3.448.857z"/><path fill="none" stroke="#000" stroke-linecap="round" stroke-linejoin="round" stroke-width="2" d="M33.58 49.785s-1.266 6.317 2.42 6.317 2.42-6.317 2.42-6.317"/><path fill="none" stroke="#000" stroke-linecap="round" stroke-linejoin="round" stroke-width="2" d="m35.108 56.153-2.534 3.836c-3.808-1.85-5.95-13.67-5.95-13.67l-5.356 7.313 3.12 1.943-1.048 3.283 9.305 1.13m4.247-3.835 2.534 3.836c3.808-1.85 5.95-13.67 5.95-13.67l5.356 7.313-3.12 1.943 1.048 3.283-9.305 1.13"/><path fill="none" stroke="#000" stroke-linecap="round" stroke-linejoin="round" stroke-width="2" d="M16.131 59.959s-2.098-13.64 10.492-13.64c3.349 2.233 6.218 3.776 9.443 3.769h-.132c3.225.007 6.094-1.536 9.443-3.769 12.59 0 10.492 13.64 10.492 13.64"/></svg>