<svg viewBox="0 0 72 72" xmlns="http://www.w3.org/2000/svg"><g fill="none" stroke="#000" stroke-width="2"><circle cx="34.5" cy="12.3" r="3" stroke-miterlimit="10"/><path stroke-linecap="round" stroke-linejoin="round" d="m39.084 24.785 2.48 37.178a1.615 1.615 0 0 1-1.43 1.906 2.04 2.04 0 0 1-1.812-1.906l-2.765-20.02c-.095-1.048-.667-1.906-1.239-1.906-.476 0-1.048.858-1.24 1.907l-2.764 20.019a2.04 2.04 0 0 1-1.81 1.906 1.615 1.615 0 0 1-1.43-1.906l2.478-37.178"/><path stroke-linecap="round" stroke-linejoin="round" d="m18.113 23.832 3.527 4.003c1.716 2.002 3.527 1.43 3.908-1.143l.382-2.002c.476-2.574 2.478-4.957 4.575-5.148a34 34 0 0 1 7.627 0c2.097.286 4.194 2.574 4.575 5.148l.382 2.002c.476 2.573 2.478 4.29 4.575 3.717a91.76 91.76 0 0 0 3.813-.953"/></g></svg>