<svg viewBox="0 0 72 72" xmlns="http://www.w3.org/2000/svg"><g fill="none" stroke="#000" stroke-width="2"><circle cx="34.5" cy="12.3" r="3" stroke-miterlimit="10"/><path stroke-linecap="round" stroke-linejoin="round" d="m18.112 23.832 3.528 4.003c1.716 2.002 3.527 1.43 3.909-1.143l.38-2.002c.477-2.574 2.48-4.957 4.577-5.148a33.998 33.998 0 0 1 7.626 0c2.097.286 4.194 2.574 4.575 5.148l.382 2.002c.476 2.573 2.478 4.29 4.575 3.717a91.76 91.76 0 0 0 3.813-.953"/><path stroke-linecap="round" stroke-linejoin="round" d="M38.99 25.497c-2.289 3.391-.668 5.91 0 7.752a25.754 25.754 0 0 1 .857 5.426c.572 5.814.953 23.256.953 23.256a1.638 1.638 0 0 1-1.334 1.938 1.962 1.962 0 0 1-1.62-1.938l-2.384-21.318c-.095-1.066-.667-1.938-1.144-1.938s-1.049.872-1.144 1.938l-2.383 21.318a2.438 2.438 0 0 1-1.62 1.938 1.638 1.638 0 0 1-1.335-1.938s.477-17.248 1.049-23.062a39.168 39.168 0 0 1 .763-5.717c.572-1.841 2.287-4.554 0-7.752m8.847-14.7s.643-.14.927.227c.334.432.326 1.765.687 2.424a3.363 3.363 0 0 0 1.58 1.49"/></g></svg>