<svg viewBox="0 0 72 72" xmlns="http://www.w3.org/2000/svg"><path d="M41.88 27.03a2 2 0 1 1-4.002-.001 2 2 0 0 1 4.001.001m-7.999 0a2 2 0 1 1-4.002-.001 2 2 0 0 1 4.001.001m2 10.003c-1.152 0-2.304-.286-3.447-.858a1 1 0 1 1 .894-1.79c1.718.86 3.388.86 5.106 0a1 1 0 0 1 .894 1.79c-1.143.572-2.295.858-3.447.858z"/><path fill="none" stroke="#000" stroke-miterlimit="10" stroke-width="2" d="M24.92 24.744a17.556 17.556 0 0 0-.38 3.647c0 7.828 5.077 14.173 11.339 14.173s11.339-6.345 11.339-14.173c0-1.158-.112-2.284-.321-3.361"/><path fill="none" stroke="#000" stroke-linecap="round" stroke-linejoin="round" stroke-miterlimit="10" stroke-width="2" d="M16.82 57.883s-2-13 10-13c3.19 2.128 5.925 3.598 9 3.592h-.126c3.074.006 5.808-1.464 9-3.592 12 0 10 13 10 13M31.47 16.638l.001-9.743 3.116 2.652L36.002 6l1.468 3.41 2.845-2.516v9.743z"/><path fill="none" stroke="#000" stroke-linecap="round" stroke-linejoin="round" stroke-miterlimit="10" stroke-width="2" d="M26.707 45.513s8.353 8.108 9.185 12.661v-.04l-1.196.032c-7.989 0-5.061-4.74-5.061-4.74-8.766 0-2.85-8.26-2.85-8.26"/><path fill="none" stroke="#000" stroke-linecap="round" stroke-linejoin="round" stroke-miterlimit="10" stroke-width="2" d="M44.941 45.513s-8.353 8.108-9.184 12.661v-.04l1.196.032c7.988 0 5.06-4.74 5.06-4.74 8.767 0 2.85-8.26 2.85-8.26m-.679-29.346c2.632 2.028 4.121 5.52 4.1 8.375h-.002c-2.702 2.048-6.736-4.915-6.736-4.915l2.638-3.46zm-15.511-3.47a20.15 20.15 0 0 0-3.167 2.547s-2.837 2.382-3.92 4.035c0 0-1.688-.285-3.268-1.764 0 0-.435 6.643 7.576 7.577 0 0 2.859.306 6.192-2.536"/><path fill="none" stroke="#000" stroke-linecap="round" stroke-linejoin="round" stroke-miterlimit="10" stroke-width="2" d="M41.8 18.996c-.002-.463-4.708 5.333-15.333 1.99m17.717-5.166s.757-1.738-1.135-3.47"/></svg>