<svg viewBox="0 0 72 72" xmlns="http://www.w3.org/2000/svg"><path fill="none" stroke="#000" stroke-linecap="round" stroke-linejoin="round" stroke-width="2" d="M46 38.965c4 0 4-6 4-13s-4-14-14-14-14 7-14 14 0 13 4 13"/><path d="M41.873 29.965a2 2 0 1 1-2-2 2 2 0 0 1 2 2m-8 0a2 2 0 1 1-2-2 2 2 0 0 1 2 2"/><path fill="none" stroke="#000" stroke-linejoin="round" stroke-width="2" d="M24.936 30.965c0 9 4.937 14 11 14 5.937 0 11.064-5 11.064-14a12.133 12.133 0 0 0-1-5c-3-3-7-8-7-8-4 3-7 6-13 7 0 0-1.064 1-1.064 6z"/><path fill="none" stroke="#000" stroke-linecap="round" stroke-linejoin="round" stroke-width="2" d="M34.084 37.965a11.5 11.5 0 0 0 3.937 0m-24.053 22 2.937-11.305-.937-1.25-4-3-4-6a1.414 1.414 0 0 1 2-2l4 4c1 1 2 1 5 2s3.13 3.237 3 5c-.666 8.973-1 12.556-1 12.556"/><path fill="none" stroke="#000" stroke-linecap="round" stroke-linejoin="round" stroke-width="2" d="M19.991 42.855s-1.023-2.89-2.117-5.89c-.432-1.182-1.906-1.031-1.906-.166v3.69m42.064 19.476L55.095 48.66l.937-1.25 4-3 4-6a1.414 1.414 0 0 0-2-2l-4 4c-1 1-2 1-5 2s-3.13 3.237-3 5c.667 8.973 1 12.556 1 12.556"/><path fill="none" stroke="#000" stroke-linecap="round" stroke-linejoin="round" stroke-width="2" d="M52.01 42.855s1.022-2.89 2.116-5.89c.43-1.182 1.906-1.031 1.906-.166v3.69M23 39.965l3-1m20 0 3.444 1"/></svg>