<svg viewBox="0 0 72 72" xmlns="http://www.w3.org/2000/svg"><g fill="none" stroke="#000" stroke-miterlimit="10" stroke-width="2"><circle cx="39.969" cy="11.094" r="3"/><circle cx="14.969" cy="19.094" r="3"/><path stroke-linecap="round" stroke-linejoin="round" d="m40.136 37-4.89 7.336c-.611.915-2 1.794-3.09 1.952l-9.79 1.424c-1.09.158-2.076-.387-2.192-1.212-.116-.825.626-1.83 1.65-2.231l6.45-2.538c1.024-.402 2.146-1.585 2.495-2.629l.734-2.204a58.423 58.423 0 0 1 1.42-3.736l1.425-3.324c.433-1.01.75-2.7.705-3.755-.047-1.054-.34-2.404-.652-3L33.834 22"/><path stroke-linecap="round" stroke-linejoin="round" d="M37 42v5c0 1.1-.441 2.742-1.063 3.65l-3.872 5.7c-.622.908-.438 2.1.387 2.65.825.55 2.112.334 2.852-.481l5.484-6.038c.74-.815 1.548-2.358 1.796-3.43l2.1-9.102c.249-1.072.471-2.848.497-3.948L45.43 22m-29.555-6 7.293 3.197c1.008.442 2.686.518 3.73.17l2.205-.735c1.043-.347 2.795-.692 3.892-.765l11.01-.734c1.097-.073 2.848.152 3.892.5L64 23"/></g></svg>