<svg viewBox="0 0 72 72" xmlns="http://www.w3.org/2000/svg"><path d="M41.873 29.958a2 2 0 1 1-2-2 2 2 0 0 1 2 2m-8 0a2 2 0 1 1-2-2 2 2 0 0 1 2 2"/><path fill="none" stroke="#000" stroke-linecap="round" stroke-linejoin="round" stroke-width="2" d="M34.084 37.958a11.5 11.5 0 0 0 3.937 0m-24.053 22 2.937-11.305-.937-1.25-4-3-4-6a1.414 1.414 0 0 1 2-2l4 4c1 1 2 1 5 2s3.13 3.237 3 5c-.666 8.972-1 12.555-1 12.555"/><path fill="none" stroke="#000" stroke-linecap="round" stroke-linejoin="round" stroke-width="2" d="M19.991 42.848s-1.023-2.89-2.117-5.89c-.432-1.182-1.906-1.031-1.906-.166v3.69m42.064 19.476-2.937-11.305.937-1.25 4-3 4-6a1.414 1.414 0 0 0-2-2l-4 4c-1 1-2 1-5 2s-3.13 3.237-3 5c.667 8.972 1 12.555 1 12.555"/><path fill="none" stroke="#000" stroke-linecap="round" stroke-linejoin="round" stroke-width="2" d="M52.01 42.848s1.022-2.89 2.116-5.89c.43-1.182 1.906-1.031 1.906-.166v3.69M23 39.958l3-1m20.006-.146 3.438 1.146"/><path fill="none" stroke="#000" stroke-linejoin="round" stroke-width="2" d="M24.95 30.962c-.1 8 4.937 14 11 14 5.937 0 11.064-6 11.064-14 0-5-3-11-3-11-8 0-10 3-16 1 0 0-3 5-3.063 10z"/><path fill="none" stroke="#000" stroke-linecap="round" stroke-linejoin="round" stroke-width="2" d="M26.014 37.962c-3 0-4-7-4-14 0-6 5-12 14-12s14 6 14 12c0 7-1 14-4 14"/></svg>