<svg viewBox="0 0 72 72" xmlns="http://www.w3.org/2000/svg"><path d="M41.873 30a2 2 0 1 1-2-2 2 2 0 0 1 2 2m-8 0a2 2 0 1 1-2-2 2 2 0 0 1 2 2"/><path fill="none" stroke="#000" stroke-linecap="round" stroke-linejoin="round" stroke-width="2" d="M32.873 38.25a8.274 8.274 0 0 0 6 0M26 38c-3 0-4-7-4-14 0-6 5-12 14-12s14 6 14 12c0 7-1 14-4 14"/><path d="M41.873 30a2 2 0 1 1-2-2 2 2 0 0 1 2 2m-8 0a2 2 0 1 1-2-2 2 2 0 0 1 2 2"/><path fill="none" stroke="#000" stroke-linejoin="round" stroke-width="2" d="M24.936 31c-.101 7.999 4.937 14 11 14C41.873 45 47 39 47 31c0-5-3-11-3-11-8 0-10 3-16 1 0 0-3 5-3.064 10z"/><path fill="none" stroke="#000" stroke-linecap="round" stroke-linejoin="round" stroke-width="2" d="M32.873 38.25a8.274 8.274 0 0 0 6 0m-5.18 12.162S32.486 56.433 36 56.433s2.307-6.021 2.307-6.021"/><path fill="none" stroke="#000" stroke-linecap="round" stroke-linejoin="round" stroke-width="2" d="m35.15 56.433-2.415 3.638c-3.63-1.754-5.672-12.962-5.672-12.962l-5.105 6.935 2.974 1.842-.998 3.113 8.869 1.072m4.047-3.638 2.415 3.638c3.63-1.754 5.672-12.962 5.672-12.962l5.105 6.935-2.974 1.842.998 3.113-8.869 1.072"/><path fill="none" stroke="#000" stroke-linecap="round" stroke-linejoin="round" stroke-width="2" d="M17.063 60.109s-2-13 10-13c3.191 2.128 5.926 3.598 9 3.592h-.126c3.074.006 5.809-1.464 9-3.592 12 0 10 13 10 13"/></svg>