<svg viewBox="0 0 72 72" xmlns="http://www.w3.org/2000/svg"><g fill="none" stroke="#000" stroke-miterlimit="10" stroke-width="2"><circle cx="34.969" cy="20.094" r="3"/><path stroke-linecap="round" stroke-linejoin="round" d="M30 43v-7c0-1.1-.225-2.675-.5-3.5L29 31m13 4-1 8M5 43c3 0 9 3 15 3s10-3 16-3 11 3 16 3 7-3 15-3m-20.994 7.964C48.045 51.53 50.023 52 52 52c2.744 0 4.585-.904 7.009-1.72m-46.232.607C15.044 51.488 17.523 52 20 52c6 0 10-3 16-3m-9.999 8.959c3.208-.883 6.203-2.084 9.999-2.084 4.406 0 8.273 1.618 11.997 2.478"/><circle cx="14.969" cy="15.094" r="3"/><path stroke-linecap="round" stroke-linejoin="round" d="m17.875 16 2.469 7.11c.361 1.04 1.529 2.108 2.596 2.375l4.12 1.03a28.75 28.75 0 0 0 3.934.638l9.012.694c1.096.084 2.63.79 3.408 1.567l.172.172c.777.777 1.708 2.265 2.066 3.305l.766 2.22a62.612 62.612 0 0 0 1.447 3.726L50.75 45.5"/></g></svg>