<svg viewBox="0 0 72 72" xmlns="http://www.w3.org/2000/svg"><g fill="none" stroke="#000" stroke-width="2"><circle cx="11.964" cy="20.358" r="2.86" stroke-miterlimit="10"/><circle cx="35.796" cy="12.733" r="3" stroke-miterlimit="10"/><path stroke-linecap="round" stroke-linejoin="round" d="M35.89 37.423a90.555 90.555 0 0 1-5.922 6.864 2.968 2.968 0 0 1-1.262.696l-9.783 2.64a1.698 1.698 0 0 1-2.097-1.144 2.278 2.278 0 0 1 1.525-2.097s5.588-2.551 8.552-4.41a5.887 5.887 0 0 0 2.22-2.541 25.069 25.069 0 0 0 2.14-6.263c.284-2.277-1.075-6.735-1.075-6.735"/><path stroke-linecap="round" stroke-linejoin="round" d="M33.478 40.913s.074 1.687.05 3.522a11.907 11.907 0 0 1-2.059 6.538l-3.3 4.848a1.778 1.778 0 0 0 .381 2.478 2.372 2.372 0 0 0 2.765-.476s3.796-4.72 5.648-7.3a7.894 7.894 0 0 0 1.28-2.827l1.094-4.719a20.544 20.544 0 0 0 .465-4.204c.067-1.515.145-3.468.141-4.777 0-.601.43-6.92.43-7.146m-27.551-9.446 6.959 3.05a6.367 6.367 0 0 0 3.527.19l2.097-.667a23.358 23.358 0 0 1 3.718-.762l10.486-.667a12.448 12.448 0 0 1 3.717.476l15.348 5.052"/></g></svg>