<svg viewBox="0 0 72 72" xmlns="http://www.w3.org/2000/svg"><path d="M41.745 30a2 2 0 1 1-2-2 2 2 0 0 1 2 2m-8 0a2 2 0 1 1-2-2 2 2 0 0 1 2 2"/><path fill="none" stroke="#000" stroke-linecap="round" stroke-linejoin="round" stroke-width="2" d="M33.956 38a11.5 11.5 0 0 0 3.936 0M13.84 60l2.937-11.305-.938-1.25-4-3-4-6a1.414 1.414 0 1 1 2-2l4 4c1 1 2 1 5 2s3.131 3.237 3 5c-.665 8.973-1 12.556-1 12.556"/><path fill="none" stroke="#000" stroke-linecap="round" stroke-linejoin="round" stroke-width="2" d="M19.863 42.89S18.84 40 17.746 37c-.432-1.182-1.906-1.031-1.906-.166v3.69M57.904 60l-2.938-11.305.938-1.25 4-3 4-6a1.414 1.414 0 0 0-2-2l-4 4c-1 1-2 1-5 2s-3.13 3.237-3 5c.667 8.973 1 12.556 1 12.556"/><path fill="none" stroke="#000" stroke-linecap="round" stroke-linejoin="round" stroke-width="2" d="M51.882 42.89S52.904 40 53.998 37c.43-1.182 1.906-1.031 1.906-.166v3.69m-33.032-.523 3-1m19.901-.182 3.543 1.182M18.94 33.912A47.98 47.98 0 0 0 19.742 32c1.636-4.2-.209-6.452 1.291-12.035 1.48-5.5 7.278-8.965 13.71-8.965 5.4 0 8 3 8 3a8.132 8.132 0 0 1 7.405 8.037c.364 6.756.95 7.13 3.02 11.875"/><path fill="none" stroke="#000" stroke-linejoin="round" stroke-width="2" d="M24.743 31c0 8 5 14 11 14s11-6 11-14c0-5-2-8-6-12-4 4-16 9-16 11z"/></svg>