<svg viewBox="0 0 72 72" xmlns="http://www.w3.org/2000/svg"><g fill="none" stroke="#000" stroke-miterlimit="10" stroke-width="2"><circle cx="34.334" cy="52" r="3"/><path stroke-linecap="round" stroke-linejoin="round" d="m28 42 .717-5.02c.156-1.09-.466-2.479-1.381-3.09l-5.672-3.78a100.598 100.598 0 0 0-3.379-2.139l-6.57-3.942c-.944-.566-1.49-1.703-1.215-2.529.275-.825 1.32-1.127 2.32-.672l7.36 3.344a30.119 30.119 0 0 0 3.75 1.354l7.14 1.948c1.062.29 2.38.3 2.93.026.55-.275 1.691-1.076 2.536-1.78l2.928-2.44c.845-.704 1.99-2.057 2.544-3.008l4.984-8.544C47.547 10.778 48.675 10 49.5 10s1.197.848.827 1.883l-3.654 10.234c-.37 1.035-1.172 2.632-1.782 3.547l-3.782 5.672c-.61.915-1.236 2.555-1.392 3.644l-.434 3.04c-.156 1.09-.058 2.43.217 2.98l.5 1M25 60v-8c0-3.43 1.83-5.458 4-6 4-1 6-1 10 0 2.169.542 4 2.654 4 6v8"/></g></svg>