<svg viewBox="0 0 72 72" xmlns="http://www.w3.org/2000/svg"><g fill="none" stroke="#000" stroke-width="2"><path stroke-linecap="round" stroke-linejoin="round" d="M4.766 40.99c2.86 0 8.58 2.86 14.3 2.86s9.532-2.86 15.252-2.86 10.486 2.86 15.252 2.86 6.673-2.86 14.3-2.86m-20.02 7.627a19.97 19.97 0 0 0 5.72.953c2.574 0 4.386-.858 6.673-1.62m-44.041.572a26.51 26.51 0 0 0 6.864 1.048c5.72 0 9.532-2.86 15.252-2.86m-9.533 8.58c3.05-.858 5.91-2.002 9.533-2.002 4.194 0 7.912 1.525 11.44 2.383"/><circle cx="14.299" cy="14.395" r="2.86" stroke-miterlimit="10"/><circle cx="33.364" cy="19.161" r="3" stroke-miterlimit="10"/><path stroke-linecap="round" stroke-linejoin="round" d="M28.598 40.99v-6.672a11.732 11.732 0 0 0-.477-3.336c-.286-.763-.476-1.43-.476-1.43m12.392 3.813-.953 7.626M17.063 15.252l2.384 6.769a4.199 4.199 0 0 0 2.478 2.288l3.908.953a16.737 16.737 0 0 0 3.718.572l8.58.667a6.03 6.03 0 0 1 3.24 1.525l.192.191a11.007 11.007 0 0 1 2.001 3.146l.763 2.097c.381.953.953 2.574 1.335 3.527l2.764 6.387M37.395 18.436s.636-.168.936.186c.353.417.406 1.748.796 2.39a3.362 3.362 0 0 0 1.646 1.417"/></g></svg>