<svg viewBox="0 0 72 72" xmlns="http://www.w3.org/2000/svg"><path d="M62 55.5V17H10v38.5m52 0-9.096-9.096M20 46h33m-43 9.5 9.096-9.096M10 17l9.32 28.583m-8.568-27.5h51m-12.732 0h12.582m-44.716 21h38.866m-6.732 0h6.913m-41.181-7h42m-7.732 0h8.33M35.77 17.5v28m-7-28v28m-7-28v28m-7-28v32.949m28-32.366v27.5m7-28.067v28.067m7-27.5v31.999M42.77 21v15.167M12.768 25.083h46.984m-10.984 0h11.417M57.35 32l4.508 4.508m-2.106-11.425 2.151 2.155m-6.801 11.845 6.898 6.5m-47.313-13.5-4.424 4.424m2.505-10.727-2.608 2.607m7.011 10.433-6.834 6.439M53 46l9-28" fill="none" stroke="#000" stroke-linecap="round" stroke-linejoin="round" stroke-width="2"/></svg>