<svg viewBox="0 0 72 72" xmlns="http://www.w3.org/2000/svg"><g fill="none" stroke="#000" stroke-linecap="round" stroke-linejoin="round" stroke-miterlimit="10" stroke-width="2"><path d="M45.605 50.925c0 1.865-5.306 3.333-11.778 3.333s-11.754-1.518-11.754-3.382"/><path d="M45.605 60.106V46.364s1.268-1.163 2.413-2.333c3.77-3.853 5.615-9.886 5.615-9.886 5.022-13.353.71-17.729.71-17.729-.997-1.325-3.144-.578-3.144-.578-.336-3.065-1.217-5.036-1.217-5.036-2.309-7.095-21.907-5.08-21.907-5.08-12.968 1.795-12.129 15.81-12.129 15.81-.01 18.594 6.128 24.82 6.128 24.82v16.811c0 1.864 5.413 3.38 12.033 3.38"/><path d="M33.572 66.542c5.379 0 9.96-1 11.49-2.375l.061-.057m-3.802-50.549c4.939-4.435 9.877 2.278 9.877 2.278s-6.022 1.861-4.983 10.927"/></g></svg>