<svg viewBox="0 0 72 72" xmlns="http://www.w3.org/2000/svg"><g stroke="#000"><path fill="none" stroke-linecap="round" stroke-linejoin="round" stroke-width="2" d="M31.696 28.5v17.155"/><path stroke-miterlimit="10" stroke-width="1.5" d="M27.752 23h8M31.696 4.5v24"/><path stroke-miterlimit="10" stroke-width="1.464" d="M28.696 5v20"/><path stroke-miterlimit="10" stroke-width="1.5" d="M25.696 7.5v12.717m9-15.217v21m3-18.5v12.717M22.535 14h17.717m-16.433 3h15.866m-14.15 3h11.717m-14.067-9h17.067m-15-3h14m-5.31 0h5.252m-5.252 3h6.386m-6.386 3h6.386m-6.386 3h5.819m-5.819 3h4.118m-4.118 3h2.134m-7.541 3h5.717"/><path fill="none" stroke-linecap="round" stroke-linejoin="round" stroke-width="2" d="m30.22 48.658-.579 4.545v13.834h3.729V53.203"/><path fill="none" stroke-miterlimit="10" stroke-width="2" d="M31.752 28.684c-3.256 0-2.108-2.275-3.688-5.682C27.23 21.207 21 15 22.895 10.062 24.061 7.021 28.377 5 31.752 5m0 0c3.375 0 7.69 2.023 8.856 5.061C42.504 15 36.272 21.207 35.44 23.002c-1.58 3.407-.432 5.682-3.688 5.682"/><circle cx="43" cy="40" r="5" fill="none" stroke-linecap="round" stroke-linejoin="round" stroke-width="1.8"/></g></svg>