<svg viewBox="0 0 72 72" xmlns="http://www.w3.org/2000/svg"><g fill="none" stroke="#000" stroke-linecap="round" stroke-linejoin="round" stroke-width="2"><path stroke-miterlimit="10" d="M55.24 36.794c2.197-.989 3.094-4.581 1.786-6.73-1.253-2.058-4.811-4.232-7.009-3.243M38.48 31.213a8.7 8.7 0 0 1 6.17-2.556 8.7 8.7 0 0 1 6.171 2.556m-7.846 11.282c-4.273 3.386-9.086.15-9.936-1.916-1.35-3.279-.379-7.815 2.054-9.244m14.158 2.072c1.153 1.154.92 3.258-.522 4.7-1.442 1.441-3.546 1.675-4.7.522"/><path stroke-miterlimit="10" d="M41.069 38.529c-.821-.82-.655-2.318.371-3.344.533-.532 1.274-.793 2.003-.824 1.129-.048 2.21.645 2.602 1.705.057.154.093.308.095.452M43.571 54.86c-.184.983-1.49 1.563-2.916 1.296-1.426-.266-2.433-1.28-2.25-2.262l1.384-2.621c.888-1.517.926-1.528 1.871-1.334l.296.055c.952.159.983.183 1.267 1.918l.349 2.944m-13.62-20.678a4.363 4.363 0 1 1 2.402-8.389M55.24 36.794a6.762 6.762 0 1 1-12.265 5.7m7.042-15.673a7.796 7.796 0 1 0-14.924 4.515"/><path d="M10.374 37.432c1.542-3.181 5.673-4.365 5.673-4.365s1.63 3.976.089 7.158c-1.542 3.181-5.673 4.364-5.673 4.364s-1.628-3.976-.088-7.157zM40.44 17.148c-2.64-6.378-9.953-9.407-16.33-6.766s-9.408 9.953-6.766 16.332c0 0 10.657 22.193 9.657 32.193"/></g></svg>