<svg viewBox="0 0 72 72" xmlns="http://www.w3.org/2000/svg"><g fill="none" stroke="#000" stroke-linecap="round" stroke-linejoin="round" stroke-miterlimit="10"><path stroke-width="1.943" d="M26.51 14.13h-23"/><path stroke-width="1.974" d="m57.404 12.046-22.961 5.439"/></g><g fill="none" stroke="#000" stroke-linecap="round" stroke-linejoin="round" stroke-miterlimit="10"><path stroke-width="2" d="M15 44v23M4 67h22"/><path stroke-width="1.974" d="M3.043 5C3.017 5.941 3 6.89 3 7.85 3 27.263 8.373 43 15 43S27 27.263 27 7.85c0-.96-.017-1.909-.043-2.85"/><path stroke-width="2" d="m52.854 43.767 5.322 22.376m-10.702 2.545 21.403-5.09"/><path stroke-width="1.974" d="M32.197 8.592c.193.922.396 1.848.618 2.783 4.492 18.886 13.36 32.953 19.808 31.42s8.033-18.087 3.54-36.974a98.527 98.527 0 0 0-.7-2.762"/></g></svg>