<svg viewBox="0 0 72 72" xmlns="http://www.w3.org/2000/svg"><g fill="none" stroke="#000" stroke-miterlimit="10" stroke-width="2"><circle cx="36" cy="44.975" r="23"/><circle cx="36" cy="44.975" r="23" stroke-linecap="round" stroke-linejoin="round"/><path stroke-linecap="round" stroke-linejoin="round" d="M29 19v-2.979M43 19v-2.979m-14 0h14M25.99 13.01l-9.022-9.022M31.99 12.01l-8.007-8.006M34 8l3.921-3.983M46 13l8.999-8.978m-38.031-.034h7.015m13.938.029h17.078m-26.677 34.36A7.99 7.99 0 0 1 36.146 32h0c2.205 0 4.202.894 5.647 2.34 2.248 2.248 2.04 5.983-.069 8.362L28.16 58h15.972"/></g></svg>