<svg viewBox="0 0 72 72" xmlns="http://www.w3.org/2000/svg"><g stroke="#000"><circle cx="36" cy="36" r="23" fill="none" stroke-miterlimit="10" stroke-width="2"/><path fill="none" stroke-linecap="round" stroke-linejoin="round" stroke-width="2" d="M60 33c1.657 0 3 1.79 3 4s-1.343 4-3 4m-48-8c-1.657 0-3 1.79-3 4s1.343 4 3 4"/><path fill="none" stroke-linecap="round" stroke-linejoin="round" stroke-width="1.6" d="M30.19 45.298a4.664 4.664 0 1 0 8.733 2.338 4.695 4.695 0 0 1-.334.522M30.03 35.205a3.67 3.67 0 1 0-5.456-4.562 3.69 3.69 0 0 1 .411-.262M46.01 41.45a.921.921 0 0 0 1.134-.687l.373-1.519a7.566 7.566 0 0 0 1.768-8.645 1.68 1.68 0 0 0-1.242-1.367"/><path stroke-linecap="round" stroke-linejoin="round" stroke-width="1.6" d="M45.581 45.6a.932.932 0 0 0 .47-.612.921.921 0 0 0-.688-1.134l.448-1.822"/><path fill="none" stroke-linecap="round" stroke-linejoin="round" stroke-width="1.6" d="M38 21a3 3 0 0 1 0 6m.5 10.5a2 2 0 0 1 0-4M25 42a2 2 0 0 1 0-4"/></g></svg>