<svg viewBox="0 0 72 72" xmlns="http://www.w3.org/2000/svg"><path fill="none" stroke="#000" stroke-linecap="round" stroke-linejoin="round" stroke-width="2" d="M59.382 20.178a14.072 14.072 0 0 0 .286-3.153c-.213-3.641-2.808-5.666-6.353-4.962-5.013 1.127-8.572 5.348-11.889 8.966a123.502 123.502 0 0 1-5.37 6.476 1.774 1.774 0 0 0-.831-.213 1.792 1.792 0 0 0-1.498 2.778c-3.848 4.136-6.983 7.033-7.926 7.885a1.778 1.778 0 0 0-2.417 2.117c-3.06 2.664-6.054 5.252-8.971 7.918a8.916 8.916 0 0 0-2.558 4.651 5.753 5.753 0 0 0 3.808 7.108 6.253 6.253 0 0 0 3.262.053c4.968-1.136 10.526-4.736 15.778-9.09a1.789 1.789 0 0 0 2.577-2.215 116.92 116.92 0 0 0 2.799-2.575 1.774 1.774 0 0 0 .859.228 1.795 1.795 0 0 0 1.794-1.794 1.773 1.773 0 0 0-.205-.817 168.693 168.693 0 0 0 8.37-9.026c1.328-1.695 2.764-3.444 4.084-5.274a1.786 1.786 0 0 0 1.951-2.957 23.925 23.925 0 0 0 1.4-2.754 1.784 1.784 0 0 0 1.05-3.35z"/></svg>