<svg viewBox="0 0 72 72" xmlns="http://www.w3.org/2000/svg"><g fill="none" stroke="#000" stroke-linecap="round" stroke-linejoin="round" stroke-width="2"><path d="M50.27 28.202a5.162 5.162 0 0 1 2.98.04 5.83 5.83 0 0 1 2.56 1.689m-22.533-.702a5.829 5.829 0 0 1 2.828-1.187 5.16 5.16 0 0 1 2.937.512M17.584 30.93a5.83 5.83 0 0 1 2.56-1.689 5.161 5.161 0 0 1 2.98-.039"/><path d="M63.65 30.936a4.905 4.905 0 0 0-.55-3.536 5.097 5.097 0 0 0-5.7-2.3 2.961 2.961 0 0 0-3.3-3.7 4.978 4.978 0 0 0-8.5-4.4 3.102 3.102 0 0 0-2.1-2.2 3.44 3.44 0 0 0-2.6.5 4.956 4.956 0 0 0-4.7-3.4 4.846 4.846 0 0 0-4.8 3.8 2.803 2.803 0 0 0-2.9-.8 3.087 3.087 0 0 0-2 1.7 4.974 4.974 0 0 0-5.8-.6 5.097 5.097 0 0 0-2.3 5.7 2.961 2.961 0 0 0-3.7 3.3 5.036 5.036 0 0 0-5.3 2.4 4.755 4.755 0 0 0-.644 2.886M65 35a29 29 0 0 1-58 0z"/></g></svg>