<svg viewBox="0 0 72 72" xmlns="http://www.w3.org/2000/svg"><path fill="none" stroke="#000" stroke-linecap="round" stroke-linejoin="round" stroke-miterlimit="10" stroke-width="2" d="M59.042 27.873c0 18.29-7.596 27.208-14.675 31.541-6.185 3.804-11.992 4.107-11.992 4.107-10.807 0-19.574-8.767-19.574-19.575 0-6.65 3.733-11.43 8.376-16.073C33.247 15.804 31.94 9.508 42.83 9.508c8.956 0 16.212 7.268 16.212 16.224v2.141z"/><circle cx="39.534" cy="16.215" r="1.26"/><circle cx="38.274" cy="51.65" r="3.241" fill="none" stroke="#000" stroke-linecap="round" stroke-linejoin="round" stroke-miterlimit="10" stroke-width="2"/><path fill="none" stroke="#000" stroke-linecap="round" stroke-linejoin="round" stroke-miterlimit="10" stroke-width="2" d="M59.042 27.873c0 18.29-7.596 27.208-14.675 31.541-6.185 3.804-11.992 4.107-11.992 4.107-10.807 0-19.574-8.767-19.574-19.575 0-6.65 3.733-11.43 8.376-16.073C33.247 15.804 31.94 9.508 42.83 9.508c8.956 0 16.212 7.268 16.212 16.224v2.141z"/></svg>