<svg viewBox="0 0 72 72" xmlns="http://www.w3.org/2000/svg"><g fill="none" stroke="#000" stroke-linecap="round" stroke-linejoin="round" stroke-width="2"><path d="M43.496 46.96a.947.947 0 0 0 .549.236.868.868 0 0 0 .57-.175m-12.302-9.002a.947.947 0 0 0 .549.236.868.868 0 0 0 .57-.175m-2.742 9.014a.947.947 0 0 0 .55.237.869.869 0 0 0 .57-.175M44.16 26.86a.815.815 0 0 0 .618.29 1.058 1.058 0 0 0 .692-.334m-5.255 11.019a.816.816 0 0 0 .618.29 1.057 1.057 0 0 0 .692-.334m8.473-5.37a.815.815 0 0 0 .618.29 1.057 1.057 0 0 0 .691-.333M21.756 44.065a.946.946 0 0 0 .55.236.868.868 0 0 0 .569-.174"/><path d="M48.842 17.226a2.006 2.006 0 0 1 2.814.283 23 23 0 0 1-35.615 29.113 2.006 2.006 0 0 1 .283-2.814zM25 31c-.2-.677-.718-2.43 0-3 .882-.7 2.447 1.333 5 1m2.523.515c-1.124-3.987-.89-5.118-.424-5.369.795-.428 2.254 1.722 4.02 1.359a3.693 3.693 0 0 0 2.245-2.227"/><path d="M48.833 41.125a1.057 1.057 0 0 0 .692-.334M44.24 16.338a4.978 4.978 0 0 0-9.365 1.973 3.102 3.102 0 0 0-3.018-.375 3.44 3.44 0 0 0-1.697 2.033 4.956 4.956 0 0 0-5.79.342 4.846 4.846 0 0 0-1.312 5.98 2.803 2.803 0 0 0-2.752 1.216 3.087 3.087 0 0 0-.472 2.582 4.974 4.974 0 0 0-4.87 3.207 5.097 5.097 0 0 0 1.826 5.868m2.561-16.301a5.246 5.246 0 0 0-2.744 1.856 4.813 4.813 0 0 0-.888 3.18m11.839-11.745a5.246 5.246 0 0 1 2.365-2.32 4.812 4.812 0 0 1 3.293-.238"/></g></svg>