<svg viewBox="0 0 72 72" xmlns="http://www.w3.org/2000/svg"><g fill="none" stroke="#000" stroke-linejoin="round" stroke-miterlimit="10" stroke-width="2"><path stroke-linecap="round" d="M42.258 19.898c-1.944 1.154-4.023 3.081-5.722 5.492L18.542 50.917c-6.538 9.274-.804 13.974 7.008 5.746l21.504-22.65c1.994-2.101 3.46-4.469 4.222-6.572"/><path d="M48.384 13.636c.926-1.558 2.003-2.59 2.003-2.59s1.861 1.005 1.836 3.649c2.357-2.267 4.865-2.638 4.865-2.638s-.01 2.532-1.913 5.191a4.618 4.618 0 0 1 1.596.013c1.535.28 2.284 1.281 2.284 1.281s-2.255 3.141-5.388 4.065a5.338 5.338 0 0 1-1.726.239c-1.97-.065-5.263-2.64-4.804-5.887.174-1.226.682-2.372 1.247-3.323"/></g></svg>