<svg viewBox="0 0 72 72" xmlns="http://www.w3.org/2000/svg"><g fill="none" stroke="#000" stroke-linecap="round" stroke-linejoin="round" stroke-miterlimit="10" stroke-width="2"><path d="M45.667 15.875c-1.771-1.771-5.11-2.033-9.042-.417M14.371 40.667c-.612 2.464-.395 4.478.807 5.68"/><path d="M45.666 15.858c1.143 1.143 1.408 2.015.834 4.392-.44 1.824.875 7.5-2.701 7.182-1.77-.157-2.413 5.715-3.674 7.318-1.261 1.603-2.046-.329-3.625 1.25-1.24 1.24-3.627 2.983-5.25 4.125-.53.372.044.75-.125 1.375-.332 1.23-5.96 3.944-7.797 4.716-1.304.549-3.1-.394-4.203-.216-1.953.316-2.955 1.338-3.947.346"/><path d="M52.738 53.133a26.116 26.116 0 0 1-6.296 4.645c-.753.392-1.527.753-2.311 1.073a26.241 26.241 0 0 1-9.784 1.899 25.928 25.928 0 0 1-18.391-7.617c-10.156-10.155-4.49-20.96 5.666-31.116 10.155-10.165 20.96-15.821 31.116-5.666 1.197 1.197 2.219 2.672 3.137 4.024 6.853 10.114 5.831 23.8-3.137 32.758z"/></g></svg>