<svg viewBox="0 0 72 72" xmlns="http://www.w3.org/2000/svg"><path fill="none" stroke="#000" stroke-linecap="round" stroke-linejoin="round" stroke-width="2" d="M27.037 53.484a16.002 16.002 0 0 1-5.499-6.116 22.02 22.02 0 0 0-3.017-4.792 22.81 22.81 0 0 1-3.634-4.884 8.684 8.684 0 0 1-.507-6.337c1.482-4.574 6.846-4.201 9.41-7.622.896-1.195 1.536-2.561 2.375-3.796a9.453 9.453 0 0 1 3.67-3.33 5.744 5.744 0 0 1 4.85-.13c.896.428 1.641 1.131 2.542 1.551 1.546.722 2.84.12 4.385-.18a10.514 10.514 0 0 1 5.15.161 6.56 6.56 0 0 1 4.646 5.027c.155 1.101-.043 2.224.043 3.333.262 3.358 3.665 4.628 5.184 7.305a7.638 7.638 0 0 1 .523 5.573c-.498 2.004-1.806 3.665-2.435 5.616-.535 1.66.102 3.213-.127 4.883a5.424 5.424 0 0 1-1.25 2.614 9.483 9.483 0 0 1-9.487 3.153c-1.6-.407-3.19-1.29-4.882-1.204-1.47.073-2.77 1.083-4.268 1.317a9.544 9.544 0 0 1-4.902-.712 15.28 15.28 0 0 1-2.77-1.43z"/></svg>