<svg viewBox="0 0 72 72" xmlns="http://www.w3.org/2000/svg"><g fill="none" stroke="#000" stroke-linecap="round" stroke-linejoin="round" stroke-miterlimit="10" stroke-width="2"><path d="M32.096 13.543a18.298 18.298 0 0 0-8.783-2.234c-10.145 0-18.397 8.25-18.406 18.39v-.008.024l.001.014c.007 5.974 1.703 11.703 4.858 16.628M41.648 31.63c.047-.63.07-1.27.07-1.915 0-.635-.032-1.26-.095-1.878M29.168 42.1c-3.368 3.697-8.22 6.021-13.605 6.021a3.875 3.875 0 0 0 0 7.75A26.041 26.041 0 0 0 33 49.193"/><path d="M17.8 44.28c-3.33-4.118-5.14-9.216-5.144-14.575.007-5.871 4.784-10.646 10.657-10.646a10.6 10.6 0 0 1 4.904 1.197m9.525 32.611c-.608.051-1.22.074-1.836.074-.615 0-1.227-.023-1.836-.074m13.485 5.559c-.543.219-1.094.426-1.649.617a30.986 30.986 0 0 1-10 1.648c-3.42 0-6.785-.554-10-1.648a34.817 34.817 0 0 1-1.648-.617M54.013 44.28c3.329-4.118 5.14-9.216 5.143-14.575C59.15 23.834 54.372 19.06 48.5 19.06c-5.876 0-10.656 4.78-10.656 10.656 0 10.148 8.257 18.406 18.406 18.406a3.875 3.875 0 0 1 0 7.75c-14.423 0-26.156-11.732-26.156-26.156 0-10.148 8.257-18.406 18.406-18.406 10.145 0 18.396 8.25 18.405 18.39l.001-.008v.024l-.002.013c-.006 5.975-1.703 11.704-4.857 16.63"/></g></svg>