<svg viewBox="0 0 72 72" xmlns="http://www.w3.org/2000/svg"><g fill="none" stroke="#000" stroke-linecap="round" stroke-linejoin="round" stroke-miterlimit="10" stroke-width="2"><path d="m59.683 55.683-1.366-1.366-40.633-40.633-1.368-1.368A2.966 2.966 0 0 0 15 12a3 3 0 0 0-3 3v43a2 2 0 0 0 2 2h43a3 3 0 0 0 3-3c0-.475-.12-.918-.317-1.317zM23 53l10-10m-15 5 10-10m-11 1 7-7m8 23 7-7"/><path d="M34.514 19.768a4.957 4.957 0 0 0-.88-1.203c-1.333-1.334-3.228-1.735-4.921-1.246a2.985 2.985 0 0 0-.735-2.997 2.986 2.986 0 0 0-2.996-.734c.489-1.692.088-3.588-1.246-4.922a4.998 4.998 0 0 0-7.07 0 4.882 4.882 0 0 0-.484.594 4.998 4.998 0 0 0-7.717-.795C6.678 10.252 6.545 13.04 8.027 15A4.975 4.975 0 0 0 6 19c0 1.887 1.057 3.51 2.6 4.361C7.652 23.865 7 24.851 7 26s.652 2.135 1.6 2.639a5.064 5.064 0 0 0-2.131 2.273m42.088 5.945c.203-.958-.035-1.99-.78-2.736-.134-.135-.289-.23-.441-.332m-39.58 9.447C6.687 44.148 6 45.484 6 47c0 1.888 1.057 3.51 2.6 4.361C7.652 51.865 7 52.851 7 54s.652 2.135 1.6 2.639C7.057 57.49 6 59.113 6 61a5 5 0 0 0 5 5c1.887 0 3.51-1.058 4.361-2.6.194.366.463.686.783.944m14.476.307c.411.22.878.349 1.38.349a2.987 2.987 0 0 0 2.639-1.6c.85 1.542 2.474 2.6 4.361 2.6 1.887 0 3.51-1.058 4.361-2.6.504.948 1.49 1.6 2.639 1.6a2.987 2.987 0 0 0 2.639-1.6C49.49 64.941 51.11 66 53 66c1.643 0 3.088-.804 4-2.027 1.959 1.481 4.75 1.35 6.537-.437a5.001 5.001 0 0 0-.797-7.718c.205-.15.41-.3.594-.484a5 5 0 0 0 0-7.07c-1.336-1.335-3.23-1.735-4.924-1.246a2.987 2.987 0 0 0-.734-2.998 2.99 2.99 0 0 0-2.996-.734c.488-1.693.09-3.588-1.246-4.923-1.3-1.3-3.13-1.706-4.786-1.275m-9.2-13.53 4.766 11.99h0l-4.766-11.99a1.795 1.795 0 0 0 0 0z"/><path d="m32.898 24.233 4.22-1.678a1.792 1.792 0 0 1 2.33 1.003l4.766 11.99m-25.53 27.666.515 1.297a1.794 1.794 0 0 0 2.328 1.004l5.79-2.301M9.25 33.625l-.37.146a1.795 1.795 0 0 0-1.003 2.33l1.373 3.456"/></g></svg>