<svg viewBox="0 0 72 72" xmlns="http://www.w3.org/2000/svg"><g fill="none" stroke="#000" stroke-miterlimit="10" stroke-width="2"><path d="M26.723 45.314c-.42.048-.846.072-1.278.072-6.125 0-11.096-4.942-11.096-11.038 0-3.656 1.787-6.894 4.537-8.905.88-.643 1.445-1.612 1.711-2.67 1.734-6.897 8.008-12.002 15.473-12.002 7.579 0 13.936 5.274 15.545 12.341.233 1.026.838 1.907 1.674 2.546 2.634 2.01 4.33 5.168 4.33 8.728 0 6.077-4.952 11-11.058 11-.161 0-.321-.003-.48-.01"/><path d="M26.723 45.314c-.42.048-.846.072-1.278.072-6.125 0-11.096-4.942-11.096-11.038 0-3.656 1.787-6.894 4.537-8.905.88-.643 1.445-1.612 1.711-2.67 1.734-6.897 8.008-12.002 15.473-12.002 7.579 0 13.936 5.274 15.545 12.341.233 1.026.838 1.907 1.674 2.546 2.634 2.01 4.33 5.168 4.33 8.728 0 6.077-4.952 11-11.058 11-.161 0-.321-.003-.48-.01"/><path stroke-linecap="round" stroke-linejoin="round" d="M46.08 45.386s-.202 0-.548-.029h-.039m-18.317-.077c-.77.106-1.288.106-1.288.106"/><path stroke-linecap="round" stroke-linejoin="round" d="M25.887 45.386s5.77 0 7.693-3.846"/><path stroke-linecap="round" d="M43.195 48.27s-.961 1.924-.961 4.808v5.73a1.963 1.963 0 0 1-1.963 1.963h-7.613a1.963 1.963 0 0 1-1.963-1.963v-5.73c0-2.884-.961-4.807-.961-4.807"/><path stroke-linecap="round" stroke-linejoin="round" d="M46.08 45.386s-5.77 0-7.692-3.846"/><path d="M26.723 45.314c-.42.048-.846.072-1.278.072-6.125 0-11.096-4.942-11.096-11.038 0-3.656 1.787-6.894 4.537-8.905.88-.643 1.445-1.612 1.711-2.67 1.734-6.897 8.008-12.002 15.473-12.002 7.579 0 13.936 5.274 15.545 12.341.233 1.026.838 1.907 1.674 2.546 2.634 2.01 4.33 5.168 4.33 8.728 0 6.077-4.952 11-11.058 11-.161 0-.321-.003-.48-.01"/><path stroke-linecap="round" stroke-linejoin="round" d="M46.08 45.386s-.202 0-.548-.029h-.039m-18.317-.077c-.77.106-1.288.106-1.288.106"/></g></svg>