<svg viewBox="0 0 72 72" xmlns="http://www.w3.org/2000/svg"><g fill="none" stroke="#000" stroke-linecap="round" stroke-linejoin="round" stroke-width="2"><path d="M24.595 60.91a11.069 11.069 0 0 1-7.016-2.511A28.941 28.941 0 0 1 7 36h58a28.943 28.943 0 0 1-10.658 22.464 11.074 11.074 0 0 1-7.031 2.49l-17.569-.034"/><path d="M24.595 60.91v2.431A1.659 1.659 0 0 0 26.254 65h19.74a1.659 1.659 0 0 0 1.658-1.659v-2.388m3.645-32.121c5.059 0 9.159-2.61 9.159-5.832s-4.1-5.832-9.159-5.832c-4.698 0-8.566 1.355-9.093 4.257h0l-28.413-.811a2 2 0 0 0 0 4l28.418-.029h0c.535 2.897 4.396 4.247 9.088 4.247z"/></g></svg>