<svg viewBox="0 0 72 72" xmlns="http://www.w3.org/2000/svg"><g fill="none" stroke="#000" stroke-linecap="round" stroke-linejoin="round" stroke-width="2"><path d="M47.69 14c4.425 2.432 8.184 6.36 9.094 11.385a17.627 17.627 0 0 1-1.573 10.175 27.142 27.142 0 0 1-8.898 10.929c-3.105 2.24-6.751 3.892-9.171 6.83-2.287 2.779-3.516 6.703-6.854 8.14a8.43 8.43 0 0 1-5.2.253c-16.06-3.728-13.852-27.132-6.404-37.107l.024-.033A21.53 21.53 0 0 1 23 20M41 8.5V14"/><path d="M40 11.453s-3.899 6.133-9.468 7.904S18 18.676 18 18.676s3.899-6.133 9.468-7.905S40 11.453 40 11.453z"/></g></svg>