<svg viewBox="0 0 72 72" xmlns="http://www.w3.org/2000/svg"><g fill="none" stroke="#000" stroke-linecap="round" stroke-linejoin="round" stroke-width="2"><path d="M38.089 37.047a25.402 25.402 0 0 0-5.68 1.228 29.259 29.259 0 0 0-10.8 7.09l-.005.005c-.078.086-.236.26-.242.27a14.506 14.506 0 0 0 2.372 2.855 19.399 19.399 0 1 0 1.789-24.545 20.132 20.132 0 0 0-4.161 4.505c.006.01.163.184.242.27l.005.005C26.132 33.678 34 37 34 37"/><path d="m17.847 38.124-5.117-3.248 3.386-5.335 8.178 5.191"/></g></svg>