<svg viewBox="0 0 72 72" xmlns="http://www.w3.org/2000/svg"><g fill="none" stroke="#000" stroke-linecap="round" stroke-linejoin="round" stroke-width="2"><path d="M60.06 34.847c.05-.06.1-.118.148-.18.1-.131.196-.264.283-.405a5.08 5.08 0 0 0 .278-.511c.054-.116.105-.232.15-.353a4.992 4.992 0 0 0 .203-.651c.02-.087.04-.173.055-.261a4.556 4.556 0 0 0 0-1.818 5.023 5.023 0 0 0-.055-.262 4.992 4.992 0 0 0-.202-.65 5.178 5.178 0 0 0-.151-.353 5.091 5.091 0 0 0-.278-.512 5.12 5.12 0 0 0-.283-.405c-.048-.062-.098-.12-.149-.18a5.111 5.111 0 0 0-1.421-1.181h0a5.065 5.065 0 0 0 .067-.674 5.116 5.116 0 0 0-3.863-4.952c.002-.06.018-.115.018-.175a5.127 5.127 0 0 0-5.127-5.127 5.075 5.075 0 0 0-1.396.216 5.095 5.095 0 0 0-8.313-2.828 5.088 5.088 0 0 0-8.78 0 5.095 5.095 0 0 0-8.313 2.828 5.075 5.075 0 0 0-1.396-.216 5.127 5.127 0 0 0-5.127 5.127c0 .06.016.116.018.175a4.91 4.91 0 0 0-3.795 5.626h0a5.111 5.111 0 0 0-1.422 1.18c-.05.06-.101.12-.149.18a5.36 5.36 0 0 0-.283.406 5.071 5.071 0 0 0-.278.512 5.046 5.046 0 0 0-.15.352 5.007 5.007 0 0 0-.203.651c-.02.087-.04.173-.055.262a4.556 4.556 0 0 0 0 1.818c.016.088.035.174.055.26a5.007 5.007 0 0 0 .202.652c.046.12.097.237.151.353a5.06 5.06 0 0 0 .278.511 4.97 4.97 0 0 0 .432.585 5.111 5.111 0 0 0 1.421 1.182h0a4.91 4.91 0 0 0 3.796 5.625c-.002.06-.018.115-.018.176a5.127 5.127 0 0 0 5.127 5.127 5.075 5.075 0 0 0 1.396-.217 5.095 5.095 0 0 0 8.313 2.828 5.088 5.088 0 0 0 8.78 0 5.095 5.095 0 0 0 8.313-2.828 5.075 5.075 0 0 0 1.396.217 5.127 5.127 0 0 0 5.127-5.127c0-.06-.016-.116-.018-.176a5.116 5.116 0 0 0 3.863-4.95 5.065 5.065 0 0 0-.068-.675h0a5.111 5.111 0 0 0 1.422-1.182z"/><path d="M10.881 40.934c.003.263.005.413.008.413q.024.235.066.463c.016.087.034.171.054.256a4.89 4.89 0 0 0 .198.638c.045.117.094.231.148.345a4.952 4.952 0 0 0 .272.5 4.61 4.61 0 0 0 .423.574 5.007 5.007 0 0 0 1.392 1.157 4.954 4.954 0 0 0-.067.66 5.009 5.009 0 0 0 3.783 4.848c-.002.058-.017.113-.017.172a5.02 5.02 0 0 0 5.02 5.02 4.964 4.964 0 0 0 1.366-.212 4.989 4.989 0 0 0 8.14 2.77 4.982 4.982 0 0 0 8.597 0 4.989 4.989 0 0 0 8.14-2.77 4.965 4.965 0 0 0 1.366.212 5.02 5.02 0 0 0 5.02-5.02c0-.059-.015-.114-.017-.172a5.009 5.009 0 0 0 3.782-4.848 5.086 5.086 0 0 0-.066-.66 5.005 5.005 0 0 0 1.392-1.157c.05-.058.099-.116.146-.176.098-.129.192-.259.277-.397a4.935 4.935 0 0 0 .761-2.507v-.632"/></g></svg>