<svg viewBox="0 0 72 72" xmlns="http://www.w3.org/2000/svg"><g fill="none" stroke="#000" stroke-linecap="round" stroke-linejoin="round" stroke-width="2"><path d="M61 28.076c-4.303-2.108-14.584-4.052-25.032-3.817-10.448-.235-20.729 1.709-25.03 3.817a3.643 3.643 0 0 0-2.025 3.327l.069 5.424c0 5.898 2.47 14.307 18.049 11.737a6.924 6.924 0 0 0 5.551-5.166l.9-3.164a2.43 2.43 0 0 1 .701-1.197 2.76 2.76 0 0 1 2.923-.415 2.66 2.66 0 0 1 1.393 1.743l.855 3.033a6.924 6.924 0 0 0 5.552 5.166c15.579 2.57 18.049-5.84 18.049-11.737l.069-5.424a3.643 3.643 0 0 0-2.025-3.327z"/><path d="m9.503 29.17-4.335 2.781.381 8.487 4.529 2.658M62.405 29.17l4.335 2.781-.381 8.487-4.529 2.658"/></g></svg>