<svg viewBox="0 0 72 72" xmlns="http://www.w3.org/2000/svg"><g fill="none" stroke="#000" stroke-linecap="round" stroke-linejoin="round" stroke-width="2"><path d="M36.45 42.118s10.55 3.108.046 5.564c0 0 10.482 2.901.04 4.912M21.02 27.355a6.306 6.306 0 0 1 3.365-3.028 6.304 6.304 0 0 1 4.527-.459m21.717 3.242a7.19 7.19 0 0 0-7.937-3.366M23.454 34.379a8.941 8.941 0 0 1 8-.067m9.249-.076a8.941 8.941 0 0 1 8-.067"/><path d="M45.947 15.294c11.45 5.503 16.27 19.245 10.768 30.694S37.47 62.258 26.02 56.755 9.75 37.51 15.253 26.061a23.1 23.1 0 0 1 1.291-2.33m18.412-10.679a22.907 22.907 0 0 1 10.991 2.242"/></g><path d="m17.384 20.98-2.821-15m19 9.266-19-9.266m2.821 15 16.179-5.734m28.383-3.633a4.876 4.876 0 0 1-.455 1.484 5.279 5.279 0 0 1-6.908 2.392M66.427 43.35a4.879 4.879 0 0 1-1.442-.576 5.28 5.28 0 0 1-1.82-7.081m-1.219 27.275a4.876 4.876 0 0 0-.455-1.484 5.279 5.279 0 0 0-6.908-2.392M24.74 55.925a4.876 4.876 0 0 0-1.158-1.034 5.28 5.28 0 0 0-7.15 1.527" fill="none" stroke="#000" stroke-linecap="round" stroke-linejoin="round" stroke-width="2"/><path d="M62.212 25.46a1.5 1.5 0 0 0 0-3 1.5 1.5 0 0 0 0 3zm0 25a1.5 1.5 0 0 0 0-3 1.5 1.5 0 0 0 0 3zm-33 16a1.5 1.5 0 0 0 0-3 1.5 1.5 0 0 0 0 3zm-9-18a1.5 1.5 0 0 0 0-3 1.5 1.5 0 0 0 0 3zm24 16a1.5 1.5 0 0 0 0-3 1.5 1.5 0 0 0 0 3z"/><path fill="none" stroke="#000" stroke-linecap="round" stroke-linejoin="round" stroke-width="2" d="M38.563 47.98h5.5s5.5 0 5.5-3c0-2.232-1.522-2.803-3.434-2.95"/></svg>