<svg viewBox="0 0 72 72" xmlns="http://www.w3.org/2000/svg"><path fill="none" stroke="#000" stroke-linecap="round" stroke-linejoin="round" stroke-width="2" d="M19.875 46.59 9.329 28.985l5.41-3.374L25.91 43.573"/><path fill="none" stroke="#000" stroke-linecap="round" stroke-linejoin="round" stroke-width="2" d="m14.206 30.088-.698 5.873 8.621 1.532m-2.059 3.132-.623 5.233"/><path d="M42.745 24.944a2 2 0 1 1-2-2 2 2 0 0 1 2 2m-8 0a2 2 0 1 1-2-2 2 2 0 0 1 2 2"/><path fill="none" stroke="#000" stroke-linecap="round" stroke-linejoin="round" stroke-width="2" d="M17.393 59.916v-5.081c-.044-3.635.96-11.365 10.288-11.365h2.415a1.14 1.14 0 0 0 1.125-.953l.277-1.661m24.439 19.06v-5.081c.044-3.635-.96-11.365-10.288-11.365h-2.415a1.14 1.14 0 0 1-1.125-.953l-.277-1.661"/><ellipse cx="36.667" cy="25.62" rx="14.551" ry="16.295" fill="none" stroke="#000" stroke-linecap="round" stroke-linejoin="round" stroke-width="2"/><path fill="none" stroke="#000" stroke-linecap="round" stroke-linejoin="round" stroke-width="2" d="M23.448 32.435s8.196-2.66 13.22-2.66c5.752 0 13.374 2.273 13.374 2.273m-27.813-4.396s-1.07-8.555 14.439-8.555c16.087 0 14.436 8.555 14.436 8.555M30.096 43.47s.743 8.223 14.174 16.446M20.662 45.78c.78 3.177 3.091 9.074 9.89 14.137"/><path fill="none" stroke="#000" stroke-linecap="round" stroke-linejoin="round" stroke-width="2" d="M43.32 43.47s-.432 4.792-6.611 10.717m16.031-8.344a25.17 25.17 0 0 1-9.244 13.59"/></svg>