<svg viewBox="0 0 72 72" xmlns="http://www.w3.org/2000/svg"><g fill="none" stroke="#000" stroke-linecap="round" stroke-linejoin="round" stroke-width="2"><path d="M11.886 52.278c-.369-6.263 1.582-16.992 2.122-18.043l.038-13.511S24.738 20.6 27.9 19.133c1.372-.637 3.634-1.903 5.177-2.786a1.07 1.07 0 0 1 1.604.95c-.068 3.667-.062 11.524 1.161 13.682 1.119 1.973 4.347 4.112 6.336 5.612 5.335 4.025 13.035 4.505 16.485 5.005 7.728 1.12 6.928 9.932 4.546 11.576-3.741 2.581-16.59 1.15-16.59 1.15-3.124-.17-9.908-1.571-13.39-1.761"/><path d="M11.84 52.278h17.221v3.435H11.84zm20.378-26.393-2.837-.014m3.359 5.123-2.758.662m5.108 3.098-2.35 1.59m-16.217 12.03s30.323 2.903 34.496 2.008"/></g></svg>