<svg viewBox="0 0 72 72" xmlns="http://www.w3.org/2000/svg"><g fill="none" stroke="#000" stroke-linecap="round" stroke-width="2"><path stroke-linejoin="round" d="M45.815 44.804a15.43 15.43 0 0 1-19.63 0m25.855 5.562a4.05 4.05 0 0 0-3.462 6.15l.232.343 7.191 9.218 7.233-9.275a4.048 4.048 0 1 0-6.916-4.142.351.351 0 0 1-.633 0 4.021 4.021 0 0 0-3.645-2.294zm-45-18a4.05 4.05 0 0 0-3.462 6.15l.232.343 7.191 9.218 7.233-9.275a4.048 4.048 0 1 0-6.916-4.142.351.351 0 0 1-.633 0 4.021 4.021 0 0 0-3.645-2.294zm37-27a4.05 4.05 0 0 0-3.462 6.15l.232.343 7.191 9.218 7.233-9.275a4.048 4.048 0 1 0-6.916-4.142.351.351 0 0 1-.633 0 4.021 4.021 0 0 0-3.645-2.294zm-1.232 52.61A22.993 22.993 0 0 1 36 59c-7.94 0-14.939-4.022-19.072-10.14m36.82-27.49A22.905 22.905 0 0 1 59 36c0 3.603-.829 7.013-2.306 10.05M14.732 27.227C18.181 18.877 26.404 13 36 13"/><path stroke-miterlimit="10" d="M31.694 32.404a4.726 4.726 0 0 0-8.638 0m25.888 0a4.726 4.726 0 0 0-8.638 0"/></g></svg>