<svg viewBox="0 0 72 72" xmlns="http://www.w3.org/2000/svg"><g fill="none" stroke="#000" stroke-linecap="round" stroke-linejoin="round" stroke-miterlimit="1.5" stroke-width="1.675"><path d="m34.12 28.28 9.204-1.935c4.835 15.8-.241 26.69.518 36.97-4.84 4.621-14.38 4.644-19.64 2.324 0 0-1.18-16.79-.873-24.95"/><path d="M26.9 33.53c2.46-3.197 2.192-6.129 5.968-8.683 3.873-2.389 5.794-4.137 7.71-7.544 1.915-3.407 2.476-8.7 1.864-11.71-1.895-1.427-6.964-.485-8.14.32-10.55 11.17-4.249 13.38-9.171 24.61-2.089 4.769-1.515 6.559-1.8 10.17.083-2.994 2.288-5.338 3.569-7.162z"/><path d="M36.6 22.48c5.541.143 6.414-.962 7.361-3.341m3.101 2.29 2.734-.723c-.846-3.426-2.25-8.306-4.428-11.31M27.27 21.99c-1.27-.552-2.236-1.788-2.462-2.738m-5.15 1.473c-.066-.936.221-1.965.221-1.965 1.313-7.245 5.705-13.48 8.444-12.36l1.667.592m-7.935 14.41-2.398-.67M48.07 38.86c5.159 1.14 4.208-5.481 4.208-5.481-4.155.945-5.636-4.081-6.251-8.601M38.93 40.04l.452 1.319c.52 1.738.94 3.426 1.066 5.257.273 4.04-.924 8.002-.205 12.03.229 1.28 1.848 4.207 2.41 5.351.37.754-.421-.72 0 0"/></g></svg>