<svg viewBox="0 0 72 72" xmlns="http://www.w3.org/2000/svg"><g fill="none" stroke="#000" stroke-linecap="round" stroke-linejoin="round" stroke-miterlimit="10" stroke-width="2"><path d="M43.69 14.76c0-4.487-3.366-6.73-3.366-6.73-6.73 4.487-6.73 17.946-7.851 24.676-.42 2.524-.684 3.628-1.321 4.12-1.063.822-3.166-.054-8.774 1.114-8.973 1.87-5.608 11.59-5.608 11.59 6.73-6.73 8.973-2.243 8.973-2.243 3.365 10.095 10.095 8.973 10.095 8.973 1.121 4.487 0 6.73 0 6.73 3.365 3.365 26.919-3.365 15.235-4.113C39.389 58.13 40.324 48.41 40.324 48.41c4.14-2.3 7.61-4.685 10.516-7.087 0 0 .7-1.886-1.543-7.494"/><path d="M31.351 37.193c1.122-7.852 13.46-17.946 13.46-17.946S57.149 10.274 65 10.274c0 0 0 16.824-10.095 28.04 0 0 0-6.73-2.243-8.973M30.02 54.227l-.912 5.398s-3.377-1.134-4.487 0m4.487 0s2.243 0 2.243 1.122"/></g></svg>