<svg viewBox="0 0 72 72" xmlns="http://www.w3.org/2000/svg"><g fill="none" stroke="#000" stroke-linecap="round" stroke-linejoin="round" stroke-miterlimit="10" stroke-width="2"><path d="m28.169 67.02 1.178-3.452-3.429-15.461c-12.323-3.858-10.393-17.686-10.393-17.686-.192-1.766-3.323-1.817-3.323-1.817l-2.65.212a1.771 1.771 0 0 1-1.812-1.175l-.21-.595a1.604 1.604 0 0 1 .795-1.969l9.02-4.51s2.217-.856 3.168 1.519c0 0 1.119-2.698 6.477-.555 0 0-.429 4.072-5.144 4.072m11.18 14.145.536 5.68s-3 3.019-2.143 9.064"/><path d="m23.096 51.184.965 11.479-1.822 4.18m1.545-38.188s.67 3.227 4.877 1.865c.955-.31 1.983-.296 2.96-.064 2.454.584 10.06 1.442 13.873.783a8.4 8.4 0 0 0 1.637-.463c1.56-.61 6.717-2.108 11.707 2.308 2.004 1.774 1.788 4.751 1.03 7.229-.01.033-.868 2.71.544 3.773"/><path d="m47.636 37.391-.858 9.193 4.072 6.666-3.382 10.641-2.35 3.13m11.007-29.63s.972 4.995-2.078 9.73c0 0 .107 3.88 1.393 6.237l-2.036 4.155M18.203 20.245s.857-4.125 7.554-2.464c0 0 6.001.482 7.984-5.144s-2.179-7.698-2.179-7.698m6.288 3.216s2.862 1.934.29 4.865c-2.501 2.85-4.849 2.022-4.849 2.022"/><path d="M14.505 11.03s-1.215 4.996 1.286 6.965 2.411 2.563 2.411 2.563m9.645-9.904s-1.316 1.711.13 4.18c0 0 .638 1.618-.657 2.872m-6.814 0s-1.928-2.39.697-5.015M36.24 48.924c4.753.51 8.886.528 11.624-.562"/></g></svg>