<svg viewBox="0 0 72 72" xmlns="http://www.w3.org/2000/svg"><g fill="none" stroke="#000" stroke-linecap="round" stroke-linejoin="round" stroke-miterlimit="10" stroke-width="2"><path d="m29.755 43.094 4.225 7.148 1.057 4.613-.563 1.986c-.287 1.012.435 2.029 1.44 2.029h2.874c.902 0 1.6-.83 1.49-1.77l-1.175-10.104s8.445 5.775 15.773-5.21M18.904 31.748c5.122-1.908 1.784-7.724 1.784-7.724-3.334-.384-4.776 4.593-4.776 4.593L12.73 30.53l-.094 2.8s-.563 2.566-2.939 1.77"/><path d="M20.043 36.139s1.768 2.68-.55 6.342c-2.73 4.316-7.791 2.465-7.791 2.465-2.602.983-6.22-1.323-6.22-1.323-1.992-2.392.854-5.724.854-5.724S4.14 31.621 8.53 27.82m12.98-1.715s5.6-8.15 13.749-6.187h0a4.23 4.23 0 0 0 2.27.738c2.514.074 8.156.072 11.413-1.236 1.418-.57 2.902-.98 4.43-.965 1.49.015 3.355.285 5.346 1.176 3.7 1.656 6.389 4.946 7.675 8.79 1.283 3.834 2.165 9.523-1.475 13.963l-1.748 2.562s-6.505 4.955-8.294-3.16c0 0-.69-5.49 1.342-11.586"/><path d="M37.842 29.613c2.878 4.687 3.018 8.975.497 13.481-2.04-2.603-5.497-1.265-5.497-1.265l-3.334 1.366c-4.309.171-5.285-3.246-5.285-3.246l2.846-12.813 3.903-2.392m26.672 24.68.16 2.997-1.837 2.775c-.752 1.136.022 2.692 1.34 2.692h3.522c.715 0 1.347-.49 1.558-1.208l1.921-6.523-1.138-5.21m-36.06 1.982 2.683 4.053-.203 3.702-1.042 2.68c-.231.597.186 1.25.8 1.25h1.38"/></g></svg>