<svg viewBox="0 0 72 72" xmlns="http://www.w3.org/2000/svg"><path d="M29.045 41.681s-3.039 1.6-4.509 1.017c-1.47-.583-2.231-2.14-1.7-3.478.53-1.339 2.152-1.952 3.622-1.37 1.47.583 2.587 3.831 2.587 3.831z"/><path fill="none" stroke="#000" stroke-linecap="round" stroke-linejoin="round" stroke-miterlimit="10" stroke-width="2" d="M35.994 56.93c-1.513-.235-2.735-.913-3.64-2.076v-.698M16.916 10.288s7.751 5.915 5.324 13.667"/><path fill="none" stroke="#000" stroke-linecap="round" stroke-linejoin="round" stroke-miterlimit="10" stroke-width="2" d="M23.607 58.094c-1.488-3.289-4.481-4.385-5.186-4.228l-3.523.548c-2.663-2.662-3.132-10.18-3.132-10.18-.434-4.77 1.03-8.075 2.422-10.075l-.387-.73c-2.505-6.185-1.017-15.66-.47-21.689.398-4.372 2.607-5.916 3.792-6.434a.995.995 0 0 1 1.179.294c1.295 1.621 5.316 6.574 9.124 10.447 1.682 1.71 2.45 3.222 2.748 4.452"/><path d="M42.955 41.681s3.039 1.6 4.509 1.017c1.47-.583 2.231-2.14 1.7-3.478s-2.152-1.952-3.622-1.37c-1.47.583-2.587 3.831-2.587 3.831z"/><path fill="none" stroke="#000" stroke-linecap="round" stroke-linejoin="round" stroke-miterlimit="10" stroke-width="2" d="M36.073 61.708V56.93c1.513-.234 2.736-.912 3.641-2.075v-.698"/><path fill="none" stroke="#000" stroke-linecap="round" stroke-linejoin="round" stroke-miterlimit="10" stroke-width="2" d="m43.747 50.156 1.174 5.837s0 6.655-7.438 6.107h-2.898c-7.438.548-7.438-6.107-7.438-6.107l1.174-5.837m26.763-39.868s-7.751 5.915-5.324 13.667"/><path fill="none" stroke="#000" stroke-linecap="round" stroke-linejoin="round" stroke-miterlimit="10" stroke-width="2" d="M48.393 58.094c1.488-3.289 4.481-4.385 5.186-4.228l3.523.548c2.662-2.662 3.132-10.18 3.132-10.18.434-4.768-1.03-8.073-2.421-10.073l.385-.732c2.506-6.185 1.018-15.66.47-21.689-.397-4.372-2.607-5.916-3.79-6.434a.995.995 0 0 0-1.18.294c-1.295 1.621-5.316 6.574-9.124 10.447-1.732 1.762-2.496 3.312-2.773 4.56m-.134 44.843c-3.804 2.05-7.418 2.088-10.805 0m-1.844-47.498s6.055-3.184 13.78-.104"/></svg>