<svg viewBox="0 0 72 72" xmlns="http://www.w3.org/2000/svg"><path fill="none" stroke="#000" stroke-linecap="round" stroke-linejoin="round" stroke-miterlimit="10" stroke-width="2" d="M58.455 37.783C60.223 40.144 65 44.465 64.5 54.02m-32-12.135s8.478 6.783 0 18.765m-7.691-41.516L10.25 11.75l10.925 12.245"/><path fill="none" stroke="#000" stroke-linecap="round" stroke-linejoin="round" stroke-miterlimit="10" stroke-width="2" d="M35.196 30.87c.55 8.355-9.322 9.703-11.954 10.334-.332.08-.632.25-.873.492l-2.223 2.223c-.35.35-.824.546-1.318.546h-3.512a2.795 2.795 0 0 1-2.651-1.911l-.531-1.593a2.795 2.795 0 0 1 .255-2.322l8.786-14.644 4.724-4.724-2.116-6.905s7.803-.699 8.414 5.33c0 0 16.928 2.442 10.553 19.384 0 0-1.625 5.949 2.375 11.184"/><path fill="none" stroke="#000" stroke-linecap="round" stroke-linejoin="round" stroke-miterlimit="10" stroke-width="2" d="M30.917 14.02S53.16 10 50.875 33.98"/><path fill="none" stroke="#000" stroke-linecap="round" stroke-linejoin="round" stroke-miterlimit="10" stroke-width="2" d="M49.919 23.155s14.766 6.587 5.456 22.22c0 0-5.375 6.563.625 13.604"/><circle cx="24.417" cy="28.93" r="2"/></svg>