<svg viewBox="0 0 72 72" xmlns="http://www.w3.org/2000/svg"><g fill="none" stroke="#000" stroke-linecap="round" stroke-linejoin="round" stroke-miterlimit="10" stroke-width="2"><path d="M31.168 30.731c-.667 6.917-6.75 12.667-6.75 12.667 2.21 4.826-1.597 14.143-3.076 17.413a1.992 1.992 0 0 1-1.82 1.17h-3.326a2.023 2.023 0 0 1-1.848-1.225c-4.98-11.447 1.903-17.941 1.903-17.941C13.835 33.98 18.69 30.94 18.69 30.94l2.896-6.334c2.25-7.166 10.041-2.75 10.041-2.75s2.625.834 5.188 3.771c0 0 3.436 4.208 13.497-.629 1.405-.675 3.117.078 4.433.914l1.614 1.025c3.079 1.955 5.255 5.154 5.632 8.78.244 2.34-.184 5.004-2.176 7.535l-.438 5s1.66 6.855-.522 11.939c-.312.729-1.054 1.181-1.848 1.172l-2.823-.031a1.995 1.995 0 0 1-1.928-1.554c-.783-3.49-2.344-12 .059-15.776l-2.5-1s-4.125 6.875-13.125 5.375c0 0-6.271-.937-7.23-5.062"/><path d="m28.735 17.69-1.525-1.667c-6.917-7.542-11.292-.708-11.292-.708l-.5 2.333c-3.208 3-.833 5.75-.833 5.75s-4.417 4.167.833 8.167h2.083m10.313 16.979s2.25 3.375 0 7.375l1.509 3.017a2.187 2.187 0 0 1-1.004 2.947l-3.328.54"/></g></svg>