<svg viewBox="0 0 72 72" xmlns="http://www.w3.org/2000/svg"><g fill="none" stroke="#000" stroke-linecap="round" stroke-linejoin="round" stroke-miterlimit="10"><path stroke-width="2" d="M40 44c7 1 9 1 9 1 3 0 1 6 1 6 4-2 5-7 5-7 14-2 14-6 14-6l-12.32-3.79a6.239 6.239 0 0 1-1.3-.568C49.115 29.996 50.845 29.877 46 26c-5-4-10-4-10-4 4 4 3 9 3 9-4 7-21 6-21 6-4-5-14-5-14-5s7 5 8 9-1 8-1 8c4-3 7.25-8.667 7.25-8.667L27 42"/><path stroke-width="2" d="M37 43s-2.928 1.668-3.478 3.836c0 0-2.594-2.504-4.548-2.078l4.458-3.02"/><path d="M45 37s2 2 0 5m2-5s2 2 0 5m2-5s2 2 0 5"/></g></svg>