<svg viewBox="0 0 72 72" xmlns="http://www.w3.org/2000/svg"><g fill="none" stroke="#000" stroke-linecap="round" stroke-linejoin="round" stroke-miterlimit="10" stroke-width="2"><path d="M47.947 46.212c6.976 5.708 0 6.342 0 6.342-17.122 1.902-21.561-16.488-21.561-16.488"/><path d="M34.017 54.46c10.796 2.908 29.29 3.308 25.345-.638-4.44-4.439-5.073-6.341-5.707-10.146S47.947 32.26 39.069 30.358c-8.878-1.902 0-13.951-6.342-19.658s-13.951-.635-13.951 2.536-3.17 5.073-3.17 5.073c-1.27.635-9.513 3.805 1.268 3.805s10.146 2.537 6.975 4.44c0 0-10.808 4.585-7.85 14.446 3 10 17.997 13.456 17.997 13.456s-.635 1.269 0 2.537-.366 1.634-1.635 3.537c-1.268 1.902-4.073.268-6.61.902-1.945.486-3.17 2.537.635 2.537h10.78s3.805.634-.634-3.805c0 0 .634-1.269.634-1.903s1.374-1.268 1.004-2.536"/><path d="M34.602 63.93h8.582s3.028.505-.505-3.028c0 0 .505-1.01.505-1.514s1.093-1.01.799-2.02"/><path d="M40.66 56.359s-.505 1.01 0 2.019c.505 1.01.505.505-.505 2.019-.408.612-1.225.883-2.354 1.035"/></g></svg>