<svg viewBox="0 0 72 72" xmlns="http://www.w3.org/2000/svg"><circle cx="28.778" cy="31.566" transform="rotate(-58.962 28.78 31.567)" r="2"/><circle cx="43.463" cy="31.566" transform="rotate(-31.038 43.462 31.566)" r="2"/><path fill="none" stroke="#000" stroke-linecap="round" stroke-linejoin="round" stroke-miterlimit="10" stroke-width="2" d="M40.393 43.066s-1.87-1.334-2.94 2.083l-1.425 1.083-1.425-1.083c-1.069-3.417-2.94-2.083-2.94-2.083"/><path fill="none" stroke="#000" stroke-linecap="round" stroke-linejoin="round" stroke-miterlimit="10" stroke-width="2" d="m42.947 39.982 2.148 3.52c.194.317.323.665.38 1.026l.325 2.078a2.747 2.747 0 0 1-.235 1.607l-1.14 2.407c-.417.88-1.271 1.52-2.292 1.714h0a3.46 3.46 0 0 1-1.927-.183l-1.302-.52c-.317-.126-.61-.3-.868-.512l-1.375-1.137h-1.266L34.02 51.12c-.257.213-.55.386-.868.513l-1.301.52a3.464 3.464 0 0 1-1.928.182h0c-1.02-.195-1.875-.834-2.292-1.714l-1.14-2.407a2.749 2.749 0 0 1-.235-1.607l.326-2.078c.057-.36.185-.709.38-1.027l2.147-3.519m6.919 6.249v2.75m-5.491 6.542.77.794a4.675 4.675 0 0 0 3.145 1.414l3.017.136a4.675 4.675 0 0 0 3.186-1.066l.865-.714M17.74 26.829c-10-4.04-4.795-14.18-4.795-14.18 7.583-4.583 13.833 4.75 13.833 4.75s4.886-4.647 12.305-1.378"/><path fill="none" stroke="#000" stroke-linecap="round" stroke-linejoin="round" stroke-miterlimit="10" stroke-width="2" d="M24.028 23.149s-17.333 6.083-13.75 25m9.178-2.962c-2.601 3.74-3.585 9.99 4.489 19.462m.083-36.917s-5.611 8.41 2.153 17.789m-.821-34.602s12.706-9.5 19.862 5.333m0 .238s6.25-9.333 13.833-4.75c0 0 5.204 10.14-4.794 14.18"/><path fill="none" stroke="#000" stroke-linecap="round" stroke-linejoin="round" stroke-miterlimit="10" stroke-width="2" d="M47.972 22.24s17.333 6.084 13.75 25m-8.099-1.006c1.608 3.832 1.235 9.525-5.568 17.506m-.083-36.916s5.611 8.41-2.153 17.788"/></svg>