<svg viewBox="0 0 72 72" xmlns="http://www.w3.org/2000/svg"><path fill="none" stroke="#000" stroke-linecap="round" stroke-linejoin="round" stroke-width="2" d="M51.38 48.037c-.702 1.378-2.366 2.769-5.814 3.803 0 0-6 1-9-2 0 0-3 4-11 1a6.968 6.968 0 0 1-3.762-2.746m1.846-8.337 3.916-3.917c2-2 5-5 9-4 0 0 5-1 9 4a36.489 36.489 0 0 0 3.624 4.046"/><path fill="none" stroke="#000" stroke-linecap="round" stroke-linejoin="round" stroke-width="2" d="M25.566 50.84a3.699 3.699 0 0 0-2 3m6.084-1.917a3.882 3.882 0 0 0-1.084 2.917m16-2.917a3.882 3.882 0 0 1 1.083 2.917"/><ellipse cx="32.566" cy="27.34" rx="1" ry="2.5"/><ellipse cx="40.566" cy="27.34" rx="1" ry="2.5"/><path fill="none" stroke="#000" stroke-linecap="round" stroke-linejoin="round" stroke-width="2" d="M48.901 50.592s1.719 1.221 1.33 2.496M21.73 44.231s-5 4-8-3 1-7 1-7 4 0 4 2-1.666 5 2.668 6.5zm-8.238-11.188s-8.311-8.242 3.497-16.024c0 0 4.522-2.134 6.706.153-14.021 5.683 3.996 14.617-10.203 15.871z"/><path fill="none" stroke="#000" stroke-linecap="round" stroke-linejoin="round" stroke-width="2" d="M18.966 26.029a8.945 8.945 0 0 0 5.274-5.909 7.817 7.817 0 0 1 .957 9.227 9.385 9.385 0 0 1-8.45 4.33 3.077 3.077 0 0 1-1.498-.375m35.353 9.429c4.334-1.5 2.667-4.5 2.667-6.5s4-2 4-2 4 0 1 7-8 3-8 3zm-2.297-25.559c2.184-2.287 6.706-.153 6.706-.153 11.808 7.783 3.497 16.024 3.497 16.024-14.199-1.254 3.818-10.188-10.203-15.871z"/><path fill="none" stroke="#000" stroke-linecap="round" stroke-linejoin="round" stroke-width="2" d="M53.034 26.029a8.945 8.945 0 0 1-5.274-5.909 7.817 7.817 0 0 0-.957 9.227 9.385 9.385 0 0 0 8.45 4.33 3.077 3.077 0 0 0 1.498-.375"/></svg>