<svg viewBox="0 0 72 72" xmlns="http://www.w3.org/2000/svg"><g fill="none" stroke="#000" stroke-linecap="round" stroke-linejoin="round" stroke-width="2"><path d="m60.66 37.43-1.868-2.339c-.873-8.886-18.46-7.821-28.36-6.022-2.322.435-6.446-9.261-8.223-13.67-.274-.68-1.317-3.758-2.636-3.758-1.128 0-1.043 1.632-1.55 2.196-.431.48-2.718.638-3.768.958-.365.11.13 1.608-.23 1.722-1.336.421-2.757.814-2.7 1.644.049.71.11 2.779.808 2.934 1.55.346 2.62-.455 3.447.278 3.578 3.18 4 15.15 6.763 19.06 1.3 1.544 2.992 2.71 4.98 3.433l2.344 5.148c1.045 2.673 1.01 5.618 1.009 8.373l-.462 1.021c-.424.938.359 1.958 1.503 1.958v0c.68 0 1.286-.375 1.52-.939l.712-1.722a2.92 2.92 0 0 0 .162-1.73l-.229-6.014"/><path d="M33.02 45.22c3.575 1.759 13.64.043 18.2-1.392.49 5.819 2.003 5.739 3.923 7.774l.874 5.754-.461 1.021c-.424.938.358 1.958 1.503 1.958v0c.68 0 1.286-.375 1.52-.939l.712-1.722a2.92 2.92 0 0 0 .161-1.73l-1.269-5.97"/><path d="M49.05 44.7c-1.155 3.33-1.013 3.448-1.017 4.312-.004.79.276 1.276.673 2.694.325 1.161-2.755 4.226-3.8 5.376l-.797.788c-.732.724-.367 1.956.702 2.366v0c.634.244 1.335.111 1.756-.331l1.282-1.352M24.77 42.73c-1.323 2.21-3.516 4.47-4.241 6.28-.32.819.673 9.041.673 9.041l.111 1.115c.102 1.024 1.29 1.516 2.281.943v0c.589-.34.926-.968.847-1.573l-.246-1.847"/></g></svg>