<svg viewBox="0 0 72 72" xmlns="http://www.w3.org/2000/svg"><g fill="none" stroke="#000" stroke-width="2"><path stroke-miterlimit="10" d="M29.802 32.588c-.011-3.585 1.62-7.117 5.183-8.583a7.196 7.196 0 0 1 5.507-.004c2.973 1.276 4.603 4.463 5.713 7.502a66.701 66.701 0 0 1 2.61 9.38c.264 1.276.436 2.577.645 3.863.16.982 1.122 3.675.745 4.595-.55 1.342-5.791-.475-6.967-.941a25.49 25.49 0 0 1-6.906-4.2 19.448 19.448 0 0 1-5.6-7.05 11.771 11.771 0 0 1-.93-4.562z"/><path stroke-linecap="round" stroke-linejoin="round" d="m27.848 16.864-4.768 1.915a7.48 7.48 0 0 1-.08-1.038 6.646 6.646 0 0 1 5.725-6.822m24.044 42.502a24.871 24.871 0 0 1 .927 4.295c-.762.38-1.523 1.903-2.285 2.284a50.422 50.422 0 0 0-2.282-5.829c-.723-1.623-1.649-2.755-2.433-4.171"/><path stroke-linecap="round" stroke-linejoin="round" d="M29.558 19.068a3.47 3.47 0 0 1-5.34-.749M34.696 45v7m22.391 0H61m-48 .172h29.989"/><path stroke-linecap="round" stroke-linejoin="round" d="M34.28 44.01c-4.416 0-7.996-5.37-7.996-11.992 0-5.16 2.176-9.544 5.223-11.237a7.41 7.41 0 0 1 4.485-13.32 7.577 7.577 0 0 1 7.419 7.114c.12 2.217.073 4.46.035 6.695-.015.922-.03 1.843-.03 2.76v1.706"/><path stroke-linecap="round" stroke-linejoin="round" d="M31.697 20.781c-.087.047-.171.103-.257.154A8.128 8.128 0 0 0 37 18a6.596 6.596 0 0 0 1-2c-.376-.783-2.664-5.37-7-6-.125-.018-.273-.02-.408-.031M40.696 48v4"/></g></svg>