<svg viewBox="0 0 72 72" xmlns="http://www.w3.org/2000/svg"><path fill="none" stroke="#000" stroke-linecap="round" stroke-linejoin="round" stroke-miterlimit="10" stroke-width="2" d="M32.688 49.688S33 54 31 57m11-2 1.813 7.5M38 48s4 18 1 20m-2-10v4m-1-14s-1 8-2 10 1 8 1 8"/><circle cx="32.222" cy="42" r="1.222"/><circle cx="40.778" cy="42" r="1.222"/><path fill="none" stroke="#000" stroke-linecap="round" stroke-linejoin="round" stroke-miterlimit="10" stroke-width="2" d="M34.378 10c-6.681 15-4.009 26-4.009 26s5.346 2 12.027 0c0 0 2.673-15-6.681-31 0 0-4.715 4-9.715 9 0 0-5.682 6 1 10"/><path fill="none" stroke="#000" stroke-linecap="round" stroke-linejoin="round" stroke-miterlimit="10" stroke-width="2" d="M42 22s6-4 3-8l-4-6m-9.937 29.313s-1.688 4.062-.375 6.874C32 47 25 62 24 62m18-24.687s1.688 4.062.375 6.874S48.063 62 49.063 62"/></svg>