<svg viewBox="0 0 72 72" xmlns="http://www.w3.org/2000/svg"><g fill="none" stroke="#000" stroke-linecap="round" stroke-linejoin="round" stroke-width="2"><path d="m32.933 29-5.62-1.704a2.306 2.306 0 0 1-1.649-1.819c-.323-2.21 1.338-4.84-.647-6.477a5.271 5.271 0 0 0-2.638-1m25.054 0a5.271 5.271 0 0 0-2.639 1c-1.985 1.636-.323 4.266-.646 6.478a2.306 2.306 0 0 1-1.65 1.818L36.879 29"/><ellipse cx="34.933" cy="26" rx="4" ry="3"/><path d="M34.933 22v-6m-3.639 22.651-5.196 5.456a3.935 3.935 0 0 0-1.044 1.957c-.81 4.203 1.028 9.793-.676 13.106a3.388 3.388 0 0 1-2 1.788m25.055 0a3.389 3.389 0 0 1-2-1.788c-1.703-3.313.135-8.903-.675-13.106a3.935 3.935 0 0 0-1.044-1.957l-5.021-5.157m-5.76-6.763S12.742 35.513 14.34 41.72c1.078 4.188 9.16-1.61 14.308-5.83m8.12-3.703s20.191 3.326 18.594 9.534c-1.078 4.188-9.16-1.61-14.308-5.83"/><path d="M38.693 32.548A4.212 4.212 0 0 0 34.843 29a4.213 4.213 0 0 0-3.853 3.553m1.474 5.217c-5.107 2.36-.517 14.4 1.488 19.044a.902.902 0 0 0 1.701.031c2.142-4.602 7.078-16.613 1.554-19.061"/></g></svg>