<svg viewBox="0 0 72 72" xmlns="http://www.w3.org/2000/svg"><g fill="none" stroke="#000" stroke-linecap="round" stroke-linejoin="round" stroke-miterlimit="10" stroke-width="2"><path d="M18.154 25.408s1.396 4.97-2.513 6.087-4.858 3.742-4.858 3.742-3.91 1.899-4.691-1.899 3.686-8.377 3.686-8.377l2.569-2.568-1.955-1.676s2.877-5.42 8.275-3.242 10.667 4.36 10.667 4.36 2.056 1.73 1.665 4.187c0 0 8.068 2.094 17.856-.75a7.915 7.915 0 0 1 4.11-.059c2.371.588 5.63 2.12 7.073 6.115 2.402 6.645-3.015 12.677-3.015 12.677l1.954 4.635-1.507 8.99-1.8 3.093a1.134 1.134 0 0 1-.998.594h-1.05a1.134 1.134 0 0 1-.982-1.7l1.367-2.377a12.699 12.699 0 0 0 .259-9.284c-1.52-4.225-4.335-8.56-4.335-8.56s-3.072 7.289-12.713 4.42"/><path d="M19.093 33.647s.85 1.464 2.089 2.525c1.197 1.025 2.14 2.315 2.843 3.726.815 1.635 2.245 3.47 4.628 3.827l.614 7.204s-.031 6.342-.943 9.217a.892.892 0 0 0 .847 1.17h1.95a.893.893 0 0 0 .893-.883l.437-9.224.73-6.646s-.39-4.412.783-6.087m13.143 4.475s-.94 1.468 1.153 6.75c-.814 3.356-1.899 6.98-4.467 9.94-.337.596.209 1.34.893 1.34h1.362c.777 0 1.49-.428 1.856-1.115l.803-1.51 2.43-5.423M62.43 27.251s4.97-1.452 3.182 14.576m-25.11-15.129s5.665 4.304 1.998 14.304m-5.409 2.83s2.546-6.7.465-12.617m9.857-5.557s3.67 5.594 1.004 10.51"/><path d="M24.988 40.824s2.888-8.448 0-13.948"/></g></svg>