<svg viewBox="0 0 72 72" xmlns="http://www.w3.org/2000/svg"><g fill="none" stroke="#000" stroke-width="2"><path stroke-linecap="round" stroke-linejoin="round" d="M13.596 54.756h.01c.663.168 1.374-.917 1.852-1.656m-3.19-28.306v-.01"/><path stroke-miterlimit="10" d="M61.108 33.194c0-.019-.01-.028-.01-.047a1.085 1.085 0 0 1-.037-.168"/><path stroke-miterlimit="10" d="M57.03 29.957c.27.037.42.047.42.047a4.659 4.659 0 0 1 3.648 3.143v.01a3.129 3.129 0 0 1 .178.72v.009"/><path stroke-linecap="round" stroke-linejoin="round" d="m57.347 29.995 4.575-2.816-.936 5.65v.028m-10.263.023 1.394-5.004.515-1.824.982 2.348 1.123 2.694M49.58 42.285l1.347 2.36a13.064 13.064 0 0 0 4.65 4.741l2.272 1.356-1.249.646M16.01 34.614c-.75 5.408 4.045 9.122 7.416 10.182a1.287 1.287 0 0 1 .867.911l.245.956 1.53 5.904a1.293 1.293 0 0 0 1.132.963l8.138.763a1.293 1.293 0 0 0 1.356-1.671h0a1.293 1.293 0 0 0-1.074-.899l-2.483-.312a1.293 1.293 0 0 1-1.12-1.464l1.174-8.317"/><path stroke-linecap="round" stroke-miterlimit="10" d="M21.796 53.156c.783 0 1.367-.057 1.367-.057s2.32-1.768-1.431-2.526l2.806-3.91.01-.009m6.457-7.698 2.189 2.675 1.188 1.45.065.075.066.094 1.094 1.833 4.715 7.895.066.094.233.402a.797.797 0 0 0 .674.384h5.37a.815.815 0 0 0 .654-.337l.384-.561.018-.028.131-.187a.63.63 0 0 0 .094-.216.74.74 0 0 0-.066-.626s.01 0 0-.01a.321.321 0 0 0-.084-.112.751.751 0 0 0-.496-.271l-3.442-.421a.984.984 0 0 1-.159-.038.579.579 0 0 1-.112-.046.864.864 0 0 1-.318-.318.742.742 0 0 1-.094-.253 1.081 1.081 0 0 1-.01-.178l.29-4.958.094-1.665a.725.725 0 0 1 .02-.14.864.864 0 0 1 .196-.365.58.58 0 0 1 .177-.13.607.607 0 0 1 .309-.103c.327-.028.655-.047.973-.056.084 0 .168-.01.252-.01.15-.01.3-.01.45-.019.243 0 .505-.018.766-.028l.627-.056c.215-.019.43-.047.655-.084.234-.028.477-.075.73-.13a3.05 3.05 0 0 0 .374-.085c.131-.028.272-.066.412-.103a.388.388 0 0 0 .093-.037.343.343 0 0 0 .103-.047 2.436 2.436 0 0 1 .225-.122 1.965 1.965 0 0 1 .243-.121 1.58 1.58 0 0 1 .253-.122 11.38 11.38 0 0 1 3.133-.664c.178-.019.346-.038.524-.047 1.965-.15 4.163-.103 6.09-.075 1.085.01 2.086.019 2.9-.019h.038c.262-.009.505-.028.72-.056a3.048 3.048 0 0 0 .327-.046 1.75 1.75 0 0 0 .253-.047 1.016 1.016 0 0 0 .196-.047.886.886 0 0 0 .515-.28.377.377 0 0 0 0-.45.56.56 0 0 0-.085-.14l-.009-.009a.568.568 0 0 0-.122-.14 1.21 1.21 0 0 0-.215-.224h-.009a10.915 10.915 0 0 1-1.188-1.3 10.05 10.05 0 0 1-.374-.496q-.253-.379-.477-.758c-.103-.178-.206-.355-.3-.533a2.406 2.406 0 0 1-.103-.225c-.084-.168-.159-.336-.233-.495a13.816 13.816 0 0 1-.562-1.45c-.046-.15-.093-.3-.13-.44-.01-.02-.01-.038-.02-.057 0-.018-.009-.037-.009-.056"/><path stroke-linecap="round" stroke-linejoin="round" d="M57.45 30.004a.806.806 0 0 1-.103-.01c-.075-.009-.178-.018-.318-.037-.084-.01-.178-.019-.28-.037s-.206-.028-.328-.047h-.01c-.12-.019-.261-.047-.402-.066a17.623 17.623 0 0 1-1.047-.215 4.572 4.572 0 0 1-.459-.103c-.159-.037-.327-.075-.486-.121m-2.123-.683a13.21 13.21 0 0 1-3.246-1.768.07.07 0 0 1-.038-.019.029.029 0 0 0-.019-.01 20.2 20.2 0 0 0-.748-.626 14.227 14.227 0 0 0-4.36-2.45h-.008a21.196 21.196 0 0 0-1.058-.983c-.215-.187-.43-.365-.654-.533a21.14 21.14 0 0 0-10.187-4.472c-.019 0-.028-.009-.047-.009a21.076 21.076 0 0 0-3.19-.243 21.46 21.46 0 0 0-16.071 7.212v.01a21.221 21.221 0 0 0-2.984 4.312.206.206 0 0 0-.028.047 20.693 20.693 0 0 0-1.272 2.956c-.038.103-.066.196-.103.299l-.197.645c-.046.169-.093.328-.13.496a21.15 21.15 0 0 0-.73 5.538 21.372 21.372 0 0 0 .336 3.817c.047.262.094.524.15.776a21.073 21.073 0 0 0 1.6 4.659 2.394 2.394 0 0 1 .103.224c0 .01.01.01.01.019.158.309.317.627.486.926.01.01.01.01.01.019.15.252.29.505.448.748.197.337.402.655.627.973a20.292 20.292 0 0 0 2.31 2.825c.216.224.43.43.655.645l.038.038h.009"/></g></svg>