<svg viewBox="0 0 72 72" xmlns="http://www.w3.org/2000/svg"><g fill="none" stroke="#000" stroke-linecap="round" stroke-linejoin="round" stroke-width="2"><path d="M47.631 23.55c-.38-.14-.77-.28-1.16-.4m-26.98 18.68a9.989 9.989 0 0 0 2.41 6.2h.01c2.55-.11 2.77 1.57 2.75 2.24a1.52 1.52 0 0 1-.02.27m21.86 0c-1.93-1.51-3.11-4.2-3.39-8.32a2.08 2.08 0 0 0-.95-1.25 2.449 2.449 0 0 0-1.13-.35"/><path d="M42.601 50.54h8.86a.7.7 0 0 0 .32-1.32c-.18-.09-.35-.19-.53-.3-1.44-.84-2.76-2.02-2.86-3.49-.21-3.3.99-4.08.99-4.08l1.39 1.43 1.95 2.01a1.409 1.409 0 0 0 .63.38l.92.27a1.376 1.376 0 0 1 .67.41l2.81 3.11a7.19 7.19 0 0 0 4.96 2.47 3.94 3.94 0 0 0 2.95-.9 3.563 3.563 0 0 0 .83-3.9l-2.23-6.04c2.28-1.11 1.44-1.76 1.44-1.76-2.88-2.04-.84-3.74-.84-3.74a4.299 4.299 0 0 1-.47.09 2.842 2.842 0 0 1-1.92-.45l-2.57-1.67a4.985 4.985 0 0 1-1.3-1.25 23.058 23.058 0 0 0-7.04-6.33 28.048 28.048 0 0 0-3.93-1.93c-.38-.14-.77-.28-1.16-.4a19.419 19.419 0 0 0-5.87-1 2.62 2.62 0 0 0-.28-.01c-.22-.01-.43-.01-.65-.01a23.172 23.172 0 0 0-2.51.14c-8.64.69-12.81-1.44-17.2-1.73-6.66-.44-12.02 3.74-14.27 10.36a4.08 4.08 0 0 0-.43 1.65s.16 1.54 1.61.41a8.25 8.25 0 0 0-.04.86 9.167 9.167 0 0 0 2.74 6.54 10.021 10.021 0 0 0-.9 4.14 9.829 9.829 0 0 0 2.05 6.04h5.02s0-1.84-1.48-2.1a1.646 1.646 0 0 1-1.42-1.57v-.63a4.108 4.108 0 0 1 1.2-2.79 5.11 5.11 0 0 1 .62-.61c.01 0 .01-.01.02-.02a5.436 5.436 0 0 1 4.81-.99 5.098 5.098 0 0 1 .63.2 22.503 22.503 0 0 0 7.72 1.63c.12 0 .24.01.36.01.16.01.31.01.47.01a22.76 22.76 0 0 0 7.46-1.24 1.458 1.458 0 0 0 .19-.07 21.966 21.966 0 0 0 3.22-1.41 2.794 2.794 0 0 1 1.49-.34 2.48 2.48 0 0 1 1.13.35"/></g></svg>