<svg viewBox="0 0 72 72" xmlns="http://www.w3.org/2000/svg"><g fill="none" stroke="#000" stroke-width="2"><path stroke-miterlimit="10" d="M34.049 32.794v.009"/><path stroke-linecap="round" stroke-linejoin="round" d="m14.725 35.105-.359 2.227"/><path stroke-linecap="round" stroke-miterlimit="10" d="M22.496 41.5c-.34-.2-.68-.41-1-.62a18.313 18.313 0 0 1-3.97-3.18m-5.25-14.18c0 .29 0 .58.02.86 0 .38.03.75.06 1.12.02.24.04.48.07.72a26.061 26.061 0 0 0 .69 4.09 26.748 26.748 0 0 0 1.61 4.61v.01c.09.2.18.41.28.61"/><path stroke-linecap="round" stroke-linejoin="round" d="m18.836 30.821.59 4.06-1.77 2.63-.13.19-1.67 2.47-.52 4.73h-2v-4.73l1.03-2.84v-.01l.64-1.78.75-2.05.28-2.76m-2.677 9.35-2.1-.09.26-6.04 1.6-3.64"/><path stroke-linecap="round" stroke-miterlimit="10" d="M26.656 33.91a9.082 9.082 0 0 0-4.16 7.59v.05a9.03 9.03 0 0 0 1.02 4.18 9.124 9.124 0 0 0 .6 1l.27 6.46.04.94a1.483 1.483 0 0 1-.27.94 1.57 1.57 0 0 1-1.21.73l-3.26.26-5.6.46a1.807 1.807 0 0 0-1.2.6.903.903 0 0 0 .68 1.5h13.06a2.642 2.642 0 0 0 .29-.02 1.978 1.978 0 0 0 1.53-1.18l.15-.37a2.06 2.06 0 0 0 .15-1.15l-.67-4.43a2.128 2.128 0 0 1 1.17-2.22 8.551 8.551 0 0 0 2.6-2.18c.01-.02.02-.03.03-.05a3.259 3.259 0 0 0 .72-2.07"/><path stroke-linecap="round" stroke-linejoin="round" d="M8.228 22.278a1.599 1.599 0 0 1-1.08-1.4 1.466 1.466 0 0 1 .49-1.33l1.58-.977v-.7a1.065 1.065 0 0 1 .38-.82l.66-.56-1.88-2.5a.381.381 0 0 1 .43-.59l2.25.76 2.31 1.46 2.5-1.31a3.724 3.724 0 0 1 1.76-.43h.66a.48.48 0 0 1 .28.87l-2.91 2.14a1.781 1.781 0 0 0-.68 1.91c.08.29.16.58.26.86a8.01 8.01 0 0 0 6.1 5.14 20.78 20.78 0 0 1 6.01 2.18 21.034 21.034 0 0 1 6.7 5.81v.01c.1.12.19.27.29.41 0 .01.01.01.01.02a11.321 11.321 0 0 1 1.13 2.22 12.21 12.21 0 0 1 .75 4.8c-.01.14-.01.27-.01.39a20.307 20.307 0 0 0 .3 3.52 19.465 19.465 0 0 0 1.03 3.81 3.423 3.423 0 0 0 .13.34 4.407 4.407 0 0 0 .23.56l.01.02a5.546 5.546 0 0 0 1.04 1.87 5.363 5.363 0 0 0 2.65 1.76 36.564 36.564 0 0 0 4.51.81l18.51 2.78"/><path stroke-linecap="round" stroke-miterlimit="10" d="M31.058 48.03c-.47.47.59 3.74.7 4.42l.76 3.43a2.06 2.06 0 0 1-.15 1.15l-.15.37a1.977 1.977 0 0 1-1.82 1.2h-3.48"/></g></svg>