<svg viewBox="0 0 72 72" xmlns="http://www.w3.org/2000/svg"><g fill="none" stroke="#000" stroke-linecap="round" stroke-linejoin="round" stroke-miterlimit="10" stroke-width="2"><path d="M43 41s2-3.833 4.5-1.417C50 42 47 43 46 42s-2 2-2 2"/><path d="M39 48s6.125-2.68 6.651.837c.15 1.006-.243 2.018-.915 2.781L40 57s6.43 1.91 5.167 3.417C43 63 34 61 34 61l1-5c-16 4-20-11-20-11s14.167 11.667 20.083 1.833 3.084-29.666 15.5-29.25c8.358.28 9.844 4.715 9.923 7.583.038 1.393-.256 2.417-.256 2.417a9.884 9.884 0 0 1-.319 1.53c-1.154 3.836-4.26 3-7.098 3.97-3.166 1.084-2.083 4.417-2.083 4.417C56.5 36 56 43 54 41s-3.167 1.333-3.167 1.333S51 49 49 51"/><path d="M54.5 44.833c3.5 2.834-3.917 9.5-3.917 9.5S62 57 52.667 57.333C43.333 57.667 46 55 46 55"/></g></svg>