<svg viewBox="0 0 72 72" xmlns="http://www.w3.org/2000/svg"><g fill="none" stroke="#000" stroke-linecap="round" stroke-linejoin="round" stroke-miterlimit="10" stroke-width="2"><path d="m29.876 66.27 1.938-2.312 2.75-10.187-.625-11.5c-3.5-4-1.435-8.663-1.435-8.663-9.875-5.25-12.065-16.4-12.065-16.4l-6.44.983c-.883 0-1.33-1.063-.713-1.694l2.778-2.289 1.187-1.687 2.625-.625-.062-2.875m17.25 31.249s-.125 3 2.375 3.938l3.312 9.438 1.75 10.187-1.312 2.438m.067-22.938H46.5s3.063-.562 3.375-3.937"/><path d="M49.126 41.565s.938 4.768 6.375 8.206l.813 13.79-.5 2.71m2.375-18.813c-2.571-1.824-3.134-5.218-3.221-7.295a17.307 17.307 0 0 0-.68-4.184l-.1-.333c-1.895-5.4-8.663-4.21-12-5.563-2.548-1.033-4.813-3.926-5.125-3.926-8.087 0-14.175-12.3-14.175-12.3"/></g></svg>