<svg viewBox="0 0 72 72" xmlns="http://www.w3.org/2000/svg"><g fill="none" stroke="#000" stroke-linecap="round" stroke-linejoin="round" stroke-miterlimit="10" stroke-width="2"><path d="M35 35s5.888-1.552 7.129-8.44"/><path d="M24.67 16.302c-4.015 5.373.728 7.243.728 7.243S31.088 20.771 41 25c8.815 3.76 7.84 3.784 7.84 3.784-1.595 8.858-9.646 8.424-9.646 8.424s-3.716-2.871-8.255-2.588c-4.539.283-6.703-10.268-6.703-10.268s-7.164-5.355-4.309-9.921M41.658 41.5s10.349-3.832 9.897-10.559c0 0 4.823 4.41.706 10.76 0 0-4.95 4.277-9.77 1.875l-.833-2.075zM41 53s9.833.667 12.417-7.667C53.417 45.333 52 48 43 48l-2 5zm-7 2s-5-1-5-4c0-2.813 7.91.527 8.899 2.604A.93.93 0 0 1 38 54c0 2-1 6-7 7s3-6 3-6z"/></g></svg>