<svg viewBox="0 0 72 72" xmlns="http://www.w3.org/2000/svg"><g fill="none" stroke="#000" stroke-linecap="round" stroke-linejoin="round" stroke-width="2"><path d="M22.437 33.219C25.487 41.071 16 42.257 16 42.257s-9.267 1.526-9.267-7.06 8.812-8.136 8.812-8.136m15.074-5.368a2.78 2.78 0 0 1 1.87-.801c1.122 0 3.511 2.35 3.511 8.014s-3.091 2.572-3.091 2.572-1.183 3.75-4.112.22h-1.564"/><path d="M16.676 35.37c0-6.126 5.855-11.304 9.971-16.118 4.638-3.102 7.632-1.297 10.296 1.64 2.103 3.604 10.673 2.945 13.367 6.165 6.088 5.937 10.421 2.65 12.003 13.828M23.785 53.227l-2.266.701a32.658 32.658 0 0 1-4.265-11.93"/><path d="M59.794 40.885c.082 5.947 2.976 13.773 3.662 15.115h-6.101c-.698-6.581-3.674-13.913-8.593-9.304C43.155 51.75 34.991 38.4 35.14 56h-5.768c2.873-14.782-.519-19.583-.519-19.583"/><path d="M36.192 48.422s2.405 4.92 2.405 7.578h4.625m4.949-8.845s.597 6.132.597 8.845h5.507"/></g></svg>