<svg viewBox="0 0 72 72" xmlns="http://www.w3.org/2000/svg"><g fill="none" stroke="#000" stroke-linecap="round" stroke-linejoin="round" stroke-width="2"><path d="M21.77 42.808c.83 4.001 3.426 9.203 10.258 9.203"/><path d="M41.129 55c7.812-2.224 7.812-13.735 7.812-13.735.01-11.222-12.814-13.149-17.337-13.48a3.056 3.056 0 0 1-2.207-1.236c-.977-1.294-3.292-3.198-8.453-3.198a7.127 7.127 0 0 0-6.07 3.906c-1.266 2.581-2.25 1.158-2.03 2.833a5.979 5.979 0 0 0 5.913 5.514s2.677.597 2.677 4.133q0 .165.005.345h-1.437a1.598 1.598 0 0 0-1.598 1.598h0m-5.559-12.338v6.114"/><path d="M38.682 40.592s-7.6.667-7.6 7.6 6.727 6.858 6.727 6.858h-9.7m-3.639-31.5 1.515-2.568a1.31 1.31 0 0 1 2.33.146 4.068 4.068 0 0 1-.534 3.666m21.159 6.898c1.438-3.841 4.229-8.974 8.869-8.974 7.415 0 5 16.065 5 16.065S60.865 55 41.129 55m-16.238 0s-.556-3.677 3.218-3.677"/></g></svg>