<svg viewBox="0 0 72 72" xmlns="http://www.w3.org/2000/svg"><path fill="none" stroke="#000" stroke-miterlimit="10" stroke-width="2" d="M48.127 18.358a13.242 13.242 0 0 1 1.722.32c1.562.48 2.272 1.823 2.633 3.456a11.798 11.798 0 0 1-.116 5.172c-.498 2.207-1.105 4.386-1.712 6.56a14.1 14.1 0 0 0-.312 4.373 22.593 22.593 0 0 1-.025 4.527 3.432 3.432 0 0 1-.87 1.784 11.858 11.858 0 0 1-1.006.994 5.053 5.053 0 0 0-1.633 2.883 16.513 16.513 0 0 1-.57 2.003 5.683 5.683 0 0 1-2.434 3.007 2.787 2.787 0 0 1-1.987.243 1.812 1.812 0 0 0-1.762.534 10.752 10.752 0 0 1-2.771 2.202 3.013 3.013 0 0 1-2.28.39 2.222 2.222 0 0 1-.804-.443 3.868 3.868 0 0 0-2.908-.875c-.93.05-1.862.105-2.794.104a5.566 5.566 0 0 1-5.235-3.48 25.295 25.295 0 0 1-1.306-3.551 5.018 5.018 0 0 0-1.691-2.604 8.33 8.33 0 0 1-1.126-1.084 4.993 4.993 0 0 1-1.129-2.998 6.649 6.649 0 0 1 2.44-5.896 5.097 5.097 0 0 1 .495-.411 3.393 3.393 0 0 0 1.444-2.141 3.043 3.043 0 0 1 1.475-1.96c.555-.33 1.135-.61 1.671-.974a4.194 4.194 0 0 0 1.19-1.026 13.348 13.348 0 0 1 4.201-3.92 66.184 66.184 0 0 1 10.463-5.58 23.35 23.35 0 0 1 5.188-1.473c.442-.064.89-.08 1.55-.136z"/><path fill="none" stroke="#000" stroke-miterlimit="10" stroke-width="2" d="M51.943 13.393a20.529 20.529 0 0 1 2.418.403c2.194.602 3.19 2.292 3.697 4.346a13.328 13.328 0 0 1-.162 6.504c-.7 2.776-1.551 5.516-2.405 8.25a15.933 15.933 0 0 0-.437 5.5 25.466 25.466 0 0 1-.035 5.694 4.156 4.156 0 0 1-1.222 2.244 15.905 15.905 0 0 1-1.413 1.25 6.231 6.231 0 0 0-2.294 3.626 19.127 19.127 0 0 1-.8 2.518 7.371 7.371 0 0 1-3.418 3.783 4.323 4.323 0 0 1-2.79.305 2.739 2.739 0 0 0-2.475.672 14.958 14.958 0 0 1-3.892 2.769 4.652 4.652 0 0 1-3.202.491 3.243 3.243 0 0 1-1.129-.558 5.878 5.878 0 0 0-4.085-1.1c-1.306.064-2.615.132-3.922.13a7.888 7.888 0 0 1-7.352-4.375 29.761 29.761 0 0 1-1.835-4.466 6.299 6.299 0 0 0-2.376-3.275 11.248 11.248 0 0 1-1.58-1.363 5.912 5.912 0 0 1-1.586-3.771 7.979 7.979 0 0 1 3.426-7.415 7.08 7.08 0 0 1 .695-.517 4.286 4.286 0 0 0 2.03-2.693 3.906 3.906 0 0 1 2.072-2.464c.778-.416 1.593-.77 2.346-1.226a5.757 5.757 0 0 0 1.67-1.29 18.107 18.107 0 0 1 5.9-4.93 97.006 97.006 0 0 1 14.694-7.02 35.79 35.79 0 0 1 7.285-1.851c.622-.08 1.252-.1 2.177-.171z"/><path fill="none" stroke="#000" stroke-linecap="round" stroke-linejoin="round" stroke-width="2.127" d="M44.1 24.516a92.913 92.913 0 0 0-10.802 8.065m-6.443 7.237c-1.577 2.67-1.948 5.212.003 7.163C38.451 58.573 48.28 26.867 48.28 26.867"/><circle cx="31.001" cy="37.023" r="5" fill="none" stroke="#000" stroke-linecap="round" stroke-linejoin="round" stroke-width="2.435"/></svg>