<svg viewBox="0 0 72 72" xmlns="http://www.w3.org/2000/svg"><g fill="none" stroke="#000" stroke-linecap="round" stroke-linejoin="round" stroke-width="2"><path d="M27.199 41.088c3.045-.91 8.483-7.14 19.811-2.8 8.249 3.161 12.984-2.844 12.984-2.844s-2.102 22.349-12.59 24.917c-7.262 1.778-22.724 2.176-28.035 0-9.18-3.761-8.225-15.492-5.396-20.54 2.911-5.194 10.142-8.579 10.268-19.302"/><path d="M23.77 43.508c.71-12.082 7.066-20.416 6.16-26.307-.694-4.527-3.773-7.76-8.291-6.337-3.147.99-7.035 9.249-7.035 9.249 2.947 1.17 7.426-2.124 7.426-2.124M49.612 44.31c-2.133 3.499-11.9 5.306-16.652 5.425"/></g></svg>