<svg viewBox="0 0 72 72" xmlns="http://www.w3.org/2000/svg"><path d="m50.431 27.414 2.358 2.99a3.108 3.108 0 0 1 .37 2.896c-.147.326.292 1.153.5 1.444l1.543 2.934m-5.952-4.961c-4.371 1.733-4.59 4.577-4.275 6.234m5.456-11.537a2.372 2.372 0 1 0-3.704 2.925 29.163 29.163 0 0 0 2.524 2.378m2.241-3.972c-.26-.328-.777-.972-1.06-1.33" fill="none" stroke="#000" stroke-linecap="round" stroke-miterlimit="10" stroke-width="2.079"/><path fill="none" stroke="#000" stroke-miterlimit="10" stroke-width="2.079" d="M17.852 37.731q-.312-.08-.613-.178a8.976 8.976 0 0 1-1.03-.41 7.475 7.475 0 0 1-3.636-3.543c-2.018-4.247.522-9.673 5.672-12.12s10.96-.987 12.978 3.26a7.682 7.682 0 0 1 .118 6.113m-3.115 4.29a12.348 12.348 0 0 1-2.674 1.717 12.497 12.497 0 0 1-2.008.752"/><path fill="none" stroke="#000" stroke-miterlimit="10" stroke-width="2.079" d="M23.087 19.584a2.532 2.532 0 0 1 2.853-2.106 2.532 2.532 0 0 1 1.51 3.208m-16.123 9.141A2.464 2.464 0 0 1 9.48 26.9a2.464 2.464 0 0 1 3.18-1.37m35.437 13.218c-2.32.779-8.234-.322-11.46-1.67 0 0-1.57-.57-3.666-3.22m21.424 14.733a18.06 18.06 0 0 1-10.277 5.488c-12.206 1.724-17.602-.7-21.625-4.417a16.52 16.52 0 0 1-2.336-2.678 28.252 28.252 0 0 1-3.339-10.046"/><path fill="none" stroke="#000" stroke-linecap="round" stroke-miterlimit="10" stroke-width="2.079" d="M53.318 31.611c-.368-1.432-1.81-6.354-1.98-7.162a4.355 4.355 0 0 1 1.687-4.391 4.088 4.088 0 0 1 3.09-.91 4.288 4.288 0 0 1 3.57 2.153h0a24.458 24.458 0 0 1 1.706 12.557m-6.996 14.733c.695-.854 2.112-2.654 3.213-4.314"/><g fill="none" stroke="#000" stroke-linecap="round" stroke-miterlimit="10" stroke-width="2.079"><path d="m63.34 38.407-2.043 3.677a3.434 3.434 0 0 1-2.796 1.61c-.394-.01-1.051.79-1.259 1.125l-1.81 2.463m2-7.82c-5.363-5.497-9.335-.714-9.335-.714a4.53 4.53 0 0 0-.798 2.75"/><path d="M57.432 39.462a32.24 32.24 0 0 1 1.35-3.587 2.62 2.62 0 1 1 4.56 2.532"/><path d="M62.436 40.055c.224-.404.66-1.206.905-1.648"/></g><path fill="none" stroke="#000" stroke-linecap="round" stroke-miterlimit="10" stroke-width="2.079" d="M32.97 33.858c-1.391-1.514-1.6-2.95-2.456-3.344a2.209 2.209 0 0 0-2.466.653c-.67.8-.183 2.69.174 3.39h0a9.77 9.77 0 0 0 2.267 3.67c.03.02.144.114.284.23a3.33 3.33 0 0 0 2.158.81m-13.545.708c-1.41-1.674-1.603-2.763-1.517-3.702a1.967 1.967 0 0 1 1.543-1.827c1.028-.182 2.522 1.105 2.95 1.764h0a9.77 9.77 0 0 1 2.048 3.796c.003.036.028.181.059.36a3.33 3.33 0 0 1-.377 2.275 22.219 22.219 0 0 1-1.3 1.94"/><path d="M24.773 29.078a1.041 1.041 0 0 1 .17 1.093l-.677 1.394a.832.832 0 0 1-.886.477l-1.298-.176a1.448 1.448 0 0 1-1.158-1.178.726.726 0 0 1 .426-.763l2.239-1.163a.976.976 0 0 1 1.184.316z"/><circle cx="17.852" cy="28.745" r="1"/><circle cx="23.913" cy="25.391" r="1"/></svg>