<svg viewBox="0 0 72 72" xmlns="http://www.w3.org/2000/svg"><g fill="none" stroke="#000" stroke-linecap="round" stroke-width="2"><path stroke-miterlimit="10" d="M42.84 14.51a17.71 17.71 0 0 1 1.31 4.28 19.084 19.084 0 0 1 .28 3.22 13.755 13.755 0 0 1-.06 1.44m-5.78-11.81a2.339 2.339 0 0 1 1.71-.22M11 65.157l11.946-21.801m-.938 9.187-.125.221-6.837 12.393m17.051-38.623L42.783 6.843M41.11 17.684l5.928-10.841"/><path stroke-linejoin="round" d="M26.041 47.74a18.988 18.988 0 0 0 .21-2.804c0-.532-.025-1.056-.073-1.58a7.054 7.054 0 0 0-.056-.58 21.677 21.677 0 0 0-.838-3.498l-.186-.612a10.713 10.713 0 0 0-.628-1.548 4.659 4.659 0 0 1-.315-.797 3.827 3.827 0 0 1-.12-1.056 4.055 4.055 0 0 1 3.005-3.812 3.96 3.96 0 0 1 2.216.056c.008 0 .024.008.032.008a4.18 4.18 0 0 1 1.282.685l.008.008a7.312 7.312 0 0 1 1.007 1.193c.25.322.5.653.717.991a18.118 18.118 0 0 1 2.273 4.578 16.74 16.74 0 0 1 .628 2.425c.025.097.04.202.057.299a18.068 18.068 0 0 1 .242 4.029 16.214 16.214 0 0 1-.137 1.523 18.608 18.608 0 0 1-.742 3.282m-.233 9.483a11.757 11.757 0 0 1-2.434-.806c-.008 0-.016-.008-.024-.008l-.096-.048A10.67 10.67 0 0 1 26.04 47.74m19.72-22.275a8.03 8.03 0 0 1 1.274-1.821 7.847 7.847 0 0 1 1.676-1.37.008.008 0 0 1 .008-.008A8.051 8.051 0 0 1 61 29.124a10.397 10.397 0 0 1-1.563 4.65c-1.878 2.603-2.756 4.593-2.724 7.809v.161a18.527 18.527 0 0 1-9.687 16.291"/><path stroke-linejoin="round" d="M38.178 45.975a.048.048 0 0 1-.008-.032 18.066 18.066 0 0 1-1.201-5.553 8.609 8.609 0 0 1 .5-3.207c.089-.282.177-.573.258-.863v-.008c.008-.04.024-.072.032-.112a18.79 18.79 0 0 0 .5-2.636l.024-.169a18.093 18.093 0 0 0 .105-1.99c0-.178-.008-.387-.016-.613a7.042 7.042 0 0 0-.822-2.966 4.39 4.39 0 0 1-.62-1.861 3.703 3.703 0 0 1 1.12-2.7 4.781 4.781 0 0 1 3.924-1.209 3.833 3.833 0 0 1 2.402 1.394l.008.008c.153.162.282.33.427.516a5.796 5.796 0 0 1 .363.508 10.244 10.244 0 0 1 .588.983 30.373 30.373 0 0 1 2.957 12.04 18.402 18.402 0 0 1-2.829 9.84v.008"/><path stroke-miterlimit="10" d="M36 33.233a18.659 18.659 0 0 1 1.76 2.962v.008c-.008.04-.024.073-.032.113-.08.29-.17.58-.258.863v.008c-.016.056-.04.12-.065.193m-2.199 4.013a16.74 16.74 0 0 0-.63-2.425 18.12 18.12 0 0 0-2.272-4.578 14.044 14.044 0 0 0-.717-.991 7.312 7.312 0 0 0-1.007-1.193l-.008-.008a4.176 4.176 0 0 0-1.281-.685"/></g></svg>