<svg viewBox="0 0 72 72" xmlns="http://www.w3.org/2000/svg"><g fill="none" stroke="#000" stroke-miterlimit="10" stroke-width="2"><path stroke-linecap="round" d="M40.914 41.419c.211.623 1.752 4.76 1.883 5.115a2.291 2.291 0 0 1 .14.899c-.264 5.498-1.66 6.986-2.016 7.278-.022.017.022-.018 0 0m2.226 2.819c3.873-3.454 3.543-13.176 3.543-13.176"/><path d="M40.921 54.71a2.222 2.222 0 0 0-.742 1.298 1.875 1.875 0 0 0 1.68 1.996 1.715 1.715 0 0 0 1.457-.628l.003.002M29.174 46.33l.896 2.64c1.192 3.389.69 4.975.165 5.684l-.61.528a1.827 1.827 0 0 0-.308 1.886 1.999 1.999 0 0 0 2.686.846 2.22 2.22 0 0 0 1.196-1.253c.002-.009.008-.019.01-.028a1.802 1.802 0 0 0 .103-.673 69.346 69.346 0 0 0 .161-7.313 10.111 10.111 0 0 0-.112-2.304 9.876 9.876 0 0 0-.96-2.987"/><g stroke-linecap="round"><path d="M18.561 47.603a3.506 3.506 0 0 0 .204 2.508 1.893 1.893 0 0 0 2.436 1.084c.885-.406.864-1.798.56-2.826m-.045-.15a4.585 4.585 0 0 1 3.71-1.612 1.994 1.994 0 0 1 .547.083 3.027 3.027 0 0 0 3.67-1.374m23.872-12.408-.296 5.633s-.21 3.692.808 4.541a7.093 7.093 0 0 1 1.271 4.753s.537 5.758.698 7.991"/><path d="M48.541 23.677c2.544-6.456 5.181-3.19 5.181-3.19 3.178 3.94-.992 6.363-2.83 7.189a1.763 1.763 0 0 1-1.39-.02c-2.562-1.03-8.826.179-8.826.179a16.076 16.076 0 0 1-6.396-.47q-.132-.042-.257-.086a7.035 7.035 0 0 1-1.704-.857 3.533 3.533 0 0 1-1.121-1.143 48.824 48.824 0 0 1-3.064-7.228 1.842 1.842 0 0 0-1.048-1.163 20.72 20.72 0 0 0-5.153-1.034c-3.137-.36-3.515 1.65-3.515 1.65-.532 1.37-1.437 1.325-1.437 1.325l-1.864.007c-2.311.128-1.331 2.502-1.331 2.502-.586 3.089 3.088 3.728 3.088 3.728a4.77 4.77 0 0 1 3.195 1.33 18.138 18.138 0 0 1 2.929 7.828c.213 3.675 1.734 4.962 1.734 4.962 2.855 2.77 0 3.82 0 3.82-4.208 1.525-5.75 3.232-6.143 4.606m37.407 8.214c.185 1.666-.983 2.091-2.085 2.019a1.893 1.893 0 0 1-1.88-1.89 9.114 9.114 0 0 1 .338-1.459"/><path d="M55.996 55.826c.01.146.02.277.026.39M52.22 55.11c.373-1.245 1.089-4.493-.628-7.016a1.726 1.726 0 0 0-.481-.466c-1.13-.742-5.418-3.654-7.326-6.34a1.524 1.524 0 0 0-1.12-.623c-2.489-.218-10.334-.441-13.209 4.982"/></g></g></svg>