<svg viewBox="0 0 72 72" xmlns="http://www.w3.org/2000/svg"><path fill="none" stroke="#000" stroke-linecap="round" stroke-linejoin="round" stroke-width="2" d="M66.688 44.68c.955-4.139.782-24.461-15.856-24.513-5.43-.017-16.085 2.823-21.512 2.97-1.397.038-4.435.048-5.532-.819-.618-.49-.213-2.004-1.843-2.56-1.133-.388-2.542.944-3.38 1.28a23.315 23.315 0 0 0-8.298 4.968S5.45 28.09 5.453 29.488c.006 2.59 7.273 3.586 7.273 3.586s7.096 1.942 9.116 3.278c3.162 2.09 10.39 10.71 10.142 11.268-.126.28-4.894.333-4.815 2.868.054 1.74 2.766 1.741 2.766 1.741h5.02c.943-.627 1.334-3.173 1.43-4.302.085-1.007-1.576-3.695-.611-3.995 2.478-.77 4.77.4 10.653.615.845.03 0 3.38 0 3.38s-4.673 1.512-4.61 2.868c.067 1.434 2.356 1.434 2.356 1.434h5.634s4.017-7.588 4.712-8.195c2.654-2.317 4.994-1.83 9.117-4.507"/><path fill="none" stroke="#000" stroke-linecap="round" stroke-linejoin="round" stroke-width="2" d="m55.896 43.044 3.229 3.969c-.629.92-7.115.482-6.003 4.723.135.513 1.536.49 2.067.492 1.058.003 4.23 0 4.23 0M22.55 36.88s2.112 7.22.823 9.108c-.63.92-7.115.483-6.003 4.723.135.514 1.536.49 2.067.493 1.057.003 4.23 0 4.23 0"/><path d="m7.918 27.25.275 4.787c-.944.379-3.314-2.357-3.314-2.357s2.151-2.827 3.04-2.43z"/></svg>