<svg viewBox="0 0 72 72" xmlns="http://www.w3.org/2000/svg"><g fill="none" stroke="#000" stroke-linecap="round" stroke-linejoin="round" stroke-width="2"><path d="M14.95 22.16s-5.188-1.601-5.188 4.019c0 0 0 3.01 1.908 3.443 0 0 .718-2.498 3.054-2.498M27.83 45.04c1.548 2.594 4.795 5.32 8.18 5.109h0s1.704 3.712 5.066 3.95 6.724-4.807 6.724-4.807 7.921-.381 7.921-7.853c0 0-.945-11.578-11.52-11.905 0 0-4.572-.1-7.653 1.864s-5.742-1.06-5.742-1.06a5.377 5.377 0 0 1-1.154-3.413 5.188 5.188 0 0 1 1.234-3.413 4.633 4.633 0 0 0 1.233-2.756s.279-6.99-7.202-6.538a5.34 5.34 0 0 0-4.793 2.754"/><path d="M26.892 21.306c.16-5.141-7.189-6.616-8.964-1.917l-.002-.003a3.98 3.98 0 0 1-2.976 2.774l.004.006a1.807 1.807 0 0 0 .053 3.4c-1.553 2.165 2.123 3.982 3.6 2.272a10.386 10.386 0 0 0 .757-.816s5.066-1.24 4.086 7.13 3.445 8.37 3.445 8.37m27.219-6.552c1.089-.01 8.551-.521 7.004 6.123M39.462 53.691a24.477 24.477 0 0 0 .524 2.865 1.015 1.015 0 0 1-.727 1.26 31.67 31.67 0 0 1-5.533.65c-2.607 0-2.896 1.603-2.896 2.466h17.973s.213-2.406-1.94-2.406a8.601 8.601 0 0 1-3.622-.502 1.4 1.4 0 0 1-.705-1.226M38.06 36.703c2.418 1.999.161 4.772.161 4.772 2.8 2.155 1.495 4.425 1.495 4.425-2.94 1.72-4.96-1.88-4.96-1.88a7.646 7.646 0 0 0-1.58-1.98 3.149 3.149 0 0 1-.72-3.019"/><path d="M59.532 40.739s4.478 2.965 2.541 5.656c-2.016 2.802-4.498-.015-4.498-.015s.21 2.28-1.736 2.453c-1.374.123-1.969-1.52-2.188-2.022"/></g></svg>