<svg viewBox="0 0 72 72" xmlns="http://www.w3.org/2000/svg"><g fill="none" stroke="#000" stroke-linecap="round" stroke-linejoin="round" stroke-width="2"><path d="M24.426 43.411c-12.21-3.036-10.066-17.27-10.066-17.27 2.18-12.094 10.452-14.536 10.452-14.536a7.785 7.785 0 0 1 7.08 1.265h0A5.84 5.84 0 0 0 36 14.06h0l.743-.06a1.46 1.46 0 0 1 1.535 1.095h0a3.767 3.767 0 0 1-1.592 4.087l-1.075.701a6.11 6.11 0 0 0-1.74 8.514h0a3.524 3.524 0 0 0 2.267 1.502S51 31.436 56 37.77a11.152 11.152 0 0 1 .911 12.667s1.102 8.282-5.83 10.522a5.348 5.348 0 0 0-.448-3.753 2.048 2.048 0 0 1 .235-2.539 4.43 4.43 0 0 0 1.493-2.452 28.069 28.069 0 0 0-2.973.931 3.708 3.708 0 0 1-3.745-.722 6.717 6.717 0 0 0-5.155-1.987s1.707-2.914 7.465-2.132 4.408-2.63 4.408-2.63-.366-2.104-4.733-1.896"/><path d="M23.905 38.832s7.542 13.288 19.883 6.535c0 0 2.55-1.471-1.476-2.676a11.048 11.048 0 0 1-5.522-4.516s-1.415-3.434-4.715-3.704M16.89 38.367a7.146 7.146 0 0 1-4.577 7.252.529.529 0 0 0 .01.997c1.51.537 4.945.661 12.103-3.205"/></g></svg>