<svg viewBox="0 0 72 72" xmlns="http://www.w3.org/2000/svg"><ellipse cx="34.736" cy="31.907" rx="4.865" ry="6.52" fill="none" stroke="#000" stroke-miterlimit="10" stroke-width="1.6"/><circle cx="32.286" cy="21.467" r="1.042"/><circle cx="36.73" cy="21.467" r="1.042"/><path fill="none" stroke="#000" stroke-linecap="round" stroke-miterlimit="10" stroke-width="1.6" d="M32.62 33.604a7.024 7.024 0 0 0 4.234-.041"/><g fill="none" stroke="#000" stroke-width="2"><path stroke-linecap="round" stroke-miterlimit="10" d="m19.504 49.835-5.78-4.076a2.463 2.463 0 0 1-.819-3.039l6.756-14.726a2.462 2.462 0 0 1 1.303-1.252l2.094-.858"/><path stroke-linecap="round" stroke-linejoin="round" d="M48.617 44.882c-.252-1.883 2.146-8.817 6.494-14.524h0l3.398-4.967a2.42 2.42 0 0 0 .337-2.04c-.695-2.438-3.17-8.268-11.623-13.402a6.047 6.047 0 0 0-1.052-.633 4.784 4.784 0 0 0-2.422-1.634 3.74 3.74 0 0 0-2.621.02 4.31 4.31 0 0 0-.986.41c-1.52.877-2.247 2.462-1.625 3.54s2.358 1.24 3.877.361c.016-.009-.015.01 0 0a.887.887 0 0 1 1.158.154 2.449 2.449 0 0 0 .415 1.31l4.049 5.973a2.463 2.463 0 0 1 .361 1.933l-.222.966a2.463 2.463 0 0 1-1.912 1.863"/><path stroke-linecap="round" stroke-miterlimit="10" d="M34.716 43.174c-6.366 0-11.526-6.917-11.526-15.448s5.16-15.448 11.526-15.448 11.526 6.916 11.526 15.448a18.652 18.652 0 0 1-2.91 10.261m-19.416 5.771L22.2 39.864"/><path stroke-linecap="round" stroke-linejoin="round" d="M20.462 52.966a67.615 67.615 0 0 0 2.987 8.48.687.687 0 0 1-.168.8 4.393 4.393 0 0 0-.692.763 1.59 1.59 0 0 0 1.304 2.5h10.074a2.047 2.047 0 0 0 1.928-2.796 2.895 2.895 0 0 0-1.154-1.3 1.06 1.06 0 0 1-.509-.734c-.524-3.655-1.275-9.66-1.275-9.66-.34-4.018-2.925-7.26-6.47-7.26-3.504 0-6.347 3.201-6.415 6.929a7.255 7.255 0 0 0 .39 2.279l-.397-2.144c0-.045.006-.09.007-.135 0-.025-.007-.049-.007-.074"/><ellipse cx="34.716" cy="27.726" rx="8.335" ry="11.171" stroke-miterlimit="10"/><path d="M36.44 61.684c.244-.202.926-.908.931-1.225.061-3.692.05-9.744.05-9.744-.168-4.028 1.99-7.57 5.507-8.015 3.476-.44 6.699 2.378 7.235 6.068a7.715 7.715 0 0 1-.101 2.31l.124-2.176c-.006-.045-.017-.089-.023-.134-.003-.025 0-.05-.003-.074m-.098 2.384c-.669 4.332-1.43 8.702-1.863 10.157a.686.686 0 0 0 .268.773 4.399 4.399 0 0 1 .782.67 1.59 1.59 0 0 1-.98 2.643l-10.028-.103a4.193 4.193 0 0 1-1.447-.18" stroke-linecap="round" stroke-linejoin="round"/></g></svg>