<svg viewBox="0 0 72 72" xmlns="http://www.w3.org/2000/svg"><g fill="none" stroke="#000" stroke-linecap="round" stroke-miterlimit="10" stroke-width="1.64"><path d="M43.369 47.097a4.299 4.299 0 0 0-2.3 5.6 5.51 5.51 0 0 0 1.7 2l-.1 3s-6.3 4.2 1.1 3.3l4-3.8v-2.7"/><path d="M49.771 39.5a.572.572 0 0 0-.07-.08c-.01-.02-.03-.03-.04-.05-6.351-6.925-16.525-2.538-17.39-.87a2.62 2.62 0 0 0-.28-.01 1.927 1.927 0 0 0-.24.01 4.512 4.512 0 0 0-1.27.22.354.354 0 0 0-.06.01c-.15.05-.29.11-.43.17a3.548 3.548 0 0 0-.44.21 5.081 5.081 0 0 0-1 .72c-.06.05-.12.11-.18.17 0 0-.04-.04-.12-.11-.08-.06-.19-.14-.33-.25a9.967 9.967 0 0 0-1.57-.95c-.28-.13-.58-.26-.9-.38-.17-.06-.33-.11-.51-.17a7.52 7.52 0 0 0-2.78-.32 1.841 1.841 0 0 0-.33.03 6.746 6.746 0 0 0-.86.15l-.9.31-1.8.63-.87.31-.43.15s-2.6 4-5.2 4.9a1.18 1.18 0 0 0-.43.24.802.802 0 0 0-.23.86c.23.93 1.63 2.15 3.7 2.87.21.07.42.14.64.19.22.06.45.12.68.16q.33.074.69.12a11.095 11.095 0 0 0 3.95-.14s.13.05.37.15a2.784 2.784 0 0 1 .26.12c1.62.71 5.9 2.81 7.92 5.9a5.859 5.859 0 0 1 .46.79 5.521 5.521 0 0 1 .59 3.24s-2.51 1.62-1.52 2.21c.38.23 1.27.31 3.02.09l2-3.9m8.898-29.303a9.916 9.916 0 0 1 13.2-14.8 11.602 11.602 0 0 1 2 2.4"/><path d="M35.069 53.397s3.3-1.3 5.9-.7m9.2 3.4.5 2.3s-5.3 2.9 1 2.2l2.6-4.5.7-6.9a9.963 9.963 0 0 0 4.5-13.3 10.24 10.24 0 0 0-4.6-4.6m-30.2 22.1v3.6s-5 2.5-3.4 3.7h4l3-3.1"/></g></svg>