<svg viewBox="0 0 72 72" xmlns="http://www.w3.org/2000/svg"><path d="m41.84 16.692-2.412 7.517M28.69 15.836l2.467 8m-14.008-.784 7.392 5.247m-9.831 7.935 7.895-.029m-4.193 12.491 6.369-4.664m4.354 11.276 2.912-8.017m10.238 8.873-1.967-7m12.521-.847-5.904-4.616m10.83-7.935-8.895.029m4.694-12.491-7.37 5.164" fill="none" stroke="#000" stroke-linecap="round" stroke-miterlimit="10" stroke-width="2"/><path fill="none" stroke="#000" stroke-linecap="round" stroke-linejoin="round" stroke-width="2" d="M50.488 36a15 15 0 1 1-15-15 15 15 0 0 1 15 15z"/><path d="m38.983 15.497 5.915 1.923h-3.292l-2.623-1.923zm-8.391-.869-4.622 1.326 2.834.161 1.788-1.487zm-15.289 10.7 3.181-5.186-.559 3.454-2.622 1.732zm-1.37 12.838.025-4.065 1.191 2.033-1.216 2.032zm5.616 12.898-3.184-3.754 2.564 1.007.62 2.747zm12.063 5.944-5.915-1.922 3.456.233 2.459 1.689zm13.393-1.462-5.121 1.826 2.258-1.643 2.863-.183zm9.377-8.732-2.68 3.686.827-2.425 1.853-1.261zm3.636-7.915.024-6.065-.855 2.932.831 3.133zm-6.002-18.112 3.449 4.628-2.302-1.833-1.147-2.795z" fill="none" stroke="#000" stroke-linecap="round" stroke-linejoin="round" stroke-width="1.5"/><circle cx="42.654" cy="32.49" r="1.25"/><circle cx="28.654" cy="29.49" r="1.25"/><circle cx="35.654" cy="28.49" r="1.25"/><circle cx="37.654" cy="44.49" r="1.25"/><circle cx="31.654" cy="34.74" r="2"/><circle cx="31.154" cy="41.74" r="2"/><circle cx="39.654" cy="37.74" r="3"/></svg>