<svg viewBox="0 0 72 72" xmlns="http://www.w3.org/2000/svg"><g fill="none" stroke="#000" stroke-linecap="round" stroke-linejoin="round" stroke-width="2"><path d="M12.729 33.385a8.529 8.529 0 0 0 .634 1.4 8.967 8.967 0 0 1 .478 7.684 4.555 4.555 0 0 0 0 4.485V54.5a1.5 1.5 0 0 0 1.5 1.5h3.117s.143-3.725-2.086-3.725v-4.961s5.177-3.308 5.177-7.406a10.694 10.694 0 0 0 6.975 2.804 8.92 8.92 0 0 0 4.266-1.228"/><path d="M19.415 48.73a4.78 4.78 0 0 0 .883 1.36C21.57 51.362 22.217 56 22.217 56h4.212s.435-3.741-2.378-3.741l-1.958-4.63s3.141-2.749 3.141-5.504m2.363-20.073S4.516 27.142 8.62 41.03m40.838-4.876v9.233c3.494-3.494 6.357-4.466 8.2-4.646a3.829 3.829 0 0 0 3.253-2.458l2.659-7.172a4.804 4.804 0 0 0-.632-4.513l-2.485-3.383a3.178 3.178 0 0 0-2.561-1.297l-5.466-.003c-3.436-4.529-11.488-10.595-26.7-2.754"/><path d="M38.133 33.979a15.277 15.277 0 0 0-.993 1.979c-1.02 2.415-2.165 6.6.121 10.017s2.299 10.117 2.299 10.117h5.466c.005-3.751-2.312-3.881-2.312-3.881l-1.87-6.823c0-3.276 3.302-6.035 5.817-7.661m5.145-12.224a4.645 4.645 0 0 1-4.354-2.731s-1.181 5.502 2.51 7.253"/><path d="M44.965 56.092h3.177c0-5.639-3.115-5.371-3.115-5.371l-1.28-5.685"/></g></svg>