<svg viewBox="0 0 72 72" xmlns="http://www.w3.org/2000/svg"><g fill="none" stroke="#000" stroke-width="2"><path stroke-linecap="round" stroke-linejoin="round" d="m44.04 46.24.684-.456a2.55 2.55 0 0 1 3.218.319l1.65 1.65a2.55 2.55 0 0 1 .185 3.399l-.832 1.038a2.55 2.55 0 0 1-2.126.95l-1.501-.081a2.55 2.55 0 0 1-2.412-2.546v-2.151a2.55 2.55 0 0 1 1.135-2.122z"/><path stroke-miterlimit="10" d="m23.59 46.21.792-.705a2.55 2.55 0 0 1 1.694-.644h13.48a2.55 2.55 0 0 1 1.695.644l.793.705a2.55 2.55 0 0 1 .855 1.905V51.1a2.55 2.55 0 0 1-.855 1.905l-.793.705a2.55 2.55 0 0 1-1.695.644h-13.48a2.55 2.55 0 0 1-1.694-.644l-.792-.705a2.55 2.55 0 0 1-.855-1.905v-2.985a2.55 2.55 0 0 1 .855-1.905zm26.27 1.85-2.37-2.37a2.55 2.55 0 0 1-.736-2.034l.963-10.6q.01-.113.031-.225L49.7 22.1a2.55 2.55 0 0 1 1.094-1.665l4.443-2.962a2.55 2.55 0 0 1 2.42-.222l4.76 2.04a2.55 2.55 0 0 1 1.545 2.344V25.9a2.55 2.55 0 0 1-.224 1.046l-9.057 20.13a2.55 2.55 0 0 1-1.52 1.373l-.69.23a2.55 2.55 0 0 1-2.61-.616z"/><path stroke-linecap="round" stroke-linejoin="round" d="M11.656 50.893H9.694m1.695-3.557-1.594.128m7.969 7.306c.492 0 .973-.143 1.386-.41l3.12-2.023v-4.5l-2.077-4.038a2.552 2.552 0 0 1-.256-.8l-.926-6.373c-.342-1.139-2.517-1.244-3.19-.117a17.16 17.16 0 0 0-.437 4.492 2.6 2.6 0 0 1-2.356 2.68l-3.124.233c-2.168.129-2.267 3.284-.113 3.55-2.194.837-1.906 3.082-.099 3.435-1.936.408-1.879 3.185.072 3.523l2.22.348z"/></g></svg>