<svg viewBox="0 0 72 72" xmlns="http://www.w3.org/2000/svg"><path d="M42.17 30.096a2 2 0 1 1-2-2 2 2 0 0 1 2 2m-8 0a2 2 0 1 1-2-2 2 2 0 0 1 2 2"/><path fill="none" stroke="#000" stroke-linecap="round" stroke-linejoin="round" stroke-width="2" d="M33.17 38.346a8.274 8.274 0 0 0 6 0m-12.874-.25c-3 0-4-7-4-14 0-6 5-12 14-12s14 6 14 12c0 7-1 14-4 14"/><path fill="none" stroke="#000" stroke-linejoin="round" stroke-width="2" d="M25.233 31.096c-.102 7.999 4.936 14 11 14 5.936 0 11.063-6 11.063-14 0-5-3-11-3-11-8 0-10 3-16 1 0 0-3 5-3.063 10z"/><path fill="none" stroke="#000" stroke-linecap="round" stroke-linejoin="round" stroke-width="2" d="M33.17 38.346a8.274 8.274 0 0 0 6 0"/><path d="M42.17 30.096a2 2 0 1 1-2-2 2 2 0 0 1 2 2m-8 0a2 2 0 1 1-2-2 2 2 0 0 1 2 2"/><path fill="none" stroke="#000" stroke-linecap="round" stroke-miterlimit="10" stroke-width="2" d="M20.587 53.601a11.896 11.896 0 0 1 4.048-3.359 11.752 11.752 0 0 1 3.307-1.087m1.304.485a10.357 10.357 0 0 0-6.77 7.526m29.201-3.321a11.896 11.896 0 0 0-4.048-3.36 11.752 11.752 0 0 0-3.307-1.087m-1.304.486a10.357 10.357 0 0 1 6.77 7.526M29.98 50.583a21.015 21.015 0 0 0-4.294 6.281 20.57 20.57 0 0 0-1.042 2.962"/><path fill="none" stroke="#000" stroke-linecap="round" stroke-linejoin="round" stroke-width="2" d="M16.97 59.937v-3c0-4.995 5.009-9 10-9q9 7.5 18 0c4.995 0 10 4.005 10 9v3"/><path fill="none" stroke="#000" stroke-linecap="round" stroke-miterlimit="10" stroke-width="2" d="M42.392 50.583a26.435 26.435 0 0 1 4.19 6.312 26.104 26.104 0 0 1 1.195 2.999"/><path fill="none" stroke="#000" stroke-linecap="round" stroke-linejoin="round" stroke-width="2" d="m31.143 59.446-1.027-1.894a2.36 2.36 0 0 0 1.977-2.048h7.854a2.36 2.36 0 0 0 1.977 2.048l-.995 1.835"/><path fill="none" stroke="#000" stroke-linejoin="round" stroke-width="2" d="M25.296 29.33a6.47 6.47 0 0 0 3.817-1.102c1.407-1.19 3.11-2.175 5.565-.4a3.157 3.157 0 0 0 1.528.601 3.157 3.157 0 0 0 1.527-.6c2.456-1.776 4.158-.79 5.566.399a6.47 6.47 0 0 0 3.817 1.103l-.073 1.53a6.47 6.47 0 0 0-3.817 1.103c-1.408 1.189-3.11 2.174-5.565.399a3.156 3.156 0 0 0-1.528-.6 3.157 3.157 0 0 0-1.528.6c-2.455 1.775-4.157.79-5.565-.4a6.47 6.47 0 0 0-3.817-1.102z"/></svg>