<svg viewBox="0 0 72 72" xmlns="http://www.w3.org/2000/svg"><g fill="none" stroke="#000" stroke-width="2"><path stroke-miterlimit="10" d="M31.12 27.744a.796.796 0 0 1-.385-1.214l10.1-15.638a2.522 2.522 0 0 1 1.532-.986l3.948-.583a2.447 2.447 0 0 1 1.738.518l2.746 2.434a2.541 2.541 0 0 1 .748 1.663v3.773a2.092 2.092 0 0 1-.832 1.554L36.222 28.91a2.13 2.13 0 0 1-1.76.18zm2.843 23.678h-1.736a2.197 2.197 0 0 1-1.988-1.984l-1.812-14.312a1.73 1.73 0 0 1 1.748-1.991l2.572-.01a3.595 3.595 0 0 1 2.917 1.77l.159.309a9.198 9.198 0 0 1 .859 3.777l-.023.805a20.158 20.158 0 0 1-.586 3.928l-2.11 7.708"/><path stroke-linejoin="round" d="M35.542 56.977a1.874 1.874 0 0 0 1.078-1.344l.048-.335a2.466 2.466 0 0 0-.52-1.739l-1.226-1.387a2.535 2.535 0 0 0-1.662-.75h-1.05a2.736 2.736 0 0 0-1.7.715l-4.82 4.93a117.1 117.1 0 0 1-1.413 1.414l-.729.716a1.495 1.495 0 0 0-.365 1.513 1 1 0 0 0 1.283.458z"/><path stroke-miterlimit="10" d="M28.159 30.256a2.618 2.618 0 0 1 .726-1.65l.58-.55a1.702 1.702 0 0 1 1.655-.313l3.342 1.348a1.381 1.381 0 0 1 .808 1.366l-.202 1.668a1.166 1.166 0 0 1-1.12.997l-3.773.016a1.82 1.82 0 0 1-1.467-.88l-.082-.156a4.704 4.704 0 0 1-.468-1.846z"/></g></svg>