<svg viewBox="0 0 72 72" xmlns="http://www.w3.org/2000/svg"><g fill="none" stroke="#000" stroke-linecap="round" stroke-linejoin="round" stroke-width="2"><path d="M47.39 16.635c1.097 1.92 8.167-1.983 10.24-.116a5.378 5.378 0 0 1 1.967 3.958c-.086 2.48-2.358 3.975-3.525 4.742a10.317 10.317 0 0 1-6.1 1.602c-7.278 6.2-13.998 17.304-16.54 21.914a5.9 5.9 0 0 0-.38 4.37 8.98 8.98 0 0 1-.016 5.23c-.177.553-1.505 4.717-4.863 5.22a5.599 5.599 0 0 1-4.794-1.805c-1.577-1.777-2.284-6.77-5.322-6.387"/><path d="M24.61 54.937c-1.097-1.92-8.168 1.983-10.24.116a5.378 5.378 0 0 1-1.967-3.958c.085-2.48 2.358-3.975 3.525-4.742a10.228 10.228 0 0 1 6.025-1.645A57.348 57.348 0 0 0 38.66 23.342a7.26 7.26 0 0 0 .287-4.875 8.98 8.98 0 0 1 .016-5.23c.177-.552 1.505-4.717 4.863-5.22a5.599 5.599 0 0 1 4.794 1.805c1.577 1.777 2.284 6.77 5.322 6.387"/></g></svg>