<svg viewBox="0 0 72 72" xmlns="http://www.w3.org/2000/svg"><g fill="none" stroke="#000" stroke-linecap="round" stroke-width="2"><path stroke-linejoin="round" d="M44.032 68h4.938a7.51 7.51 0 0 0 7.51-7.51V9.516C56.48 5 52.2 4 50.92 4h-1.41a1.28 1.28 0 0 0-1.086.602l-9.81 16.264a4.232 4.232 0 0 0-.598 1.9l-.007.09Q38 23 38 23.145v38.824A6.033 6.033 0 0 0 44.032 68z"/><path stroke-miterlimit="10" d="M48 5S38 6 36 6 25 5 25 5m7 62s3.257.108 4.38.1c1.06-.007 4.12-.1 4.12-.1"/><path stroke-linejoin="round" d="M28.448 68H23.51A7.51 7.51 0 0 1 16 60.49V9.516C16 5 20.28 4 21.56 4h1.41a1.28 1.28 0 0 1 1.086.602l9.81 16.264a4.232 4.232 0 0 1 .598 1.9l.007.09q.01.144.01.288v38.824A6.033 6.033 0 0 1 28.447 68z"/></g></svg>