<svg viewBox="0 0 72 72" xmlns="http://www.w3.org/2000/svg"><path fill="none" stroke="#000" stroke-linecap="round" stroke-linejoin="round" stroke-width="2" d="M18.931 46.697c-3.723-5.856-.628-10.08 1.18-14.724 1.636-4.2-.209-6.451 1.291-12.034 1.48-5.5 7.277-8.966 13.71-8.966 5.4 0 8 3 8 3a8.132 8.132 0 0 1 7.404 8.037c.387 7.18 1.025 7.152 3.429 12.822a11.599 11.599 0 0 1-1.446 11.663"/><path fill="none" stroke="#000" stroke-linecap="round" stroke-linejoin="round" stroke-width="2" d="M33.11 38.223a6.375 6.375 0 0 0 6 0"/><path fill="none" stroke="#000" stroke-linejoin="round" stroke-width="2" d="M25.11 30.973c0 8 5 14 11 14s11-6 11-14c0-5-2-8-6-12-4 4-16 9-16 11z"/><path d="M42.11 29.973a2 2 0 1 1-2-2 2 2 0 0 1 2 2m-8 0a2 2 0 1 1-2-2 2 2 0 0 1 2 2"/><path fill="none" stroke="#000" stroke-linecap="round" stroke-miterlimit="10" stroke-width="2" d="M20.587 53.601a11.896 11.896 0 0 1 4.048-3.359 11.752 11.752 0 0 1 3.307-1.087m1.304.485a10.357 10.357 0 0 0-6.77 7.526m29.201-3.321a11.896 11.896 0 0 0-4.048-3.36 11.752 11.752 0 0 0-3.307-1.087m-1.304.486a10.357 10.357 0 0 1 6.77 7.526M29.98 50.583a21.015 21.015 0 0 0-4.294 6.281 20.57 20.57 0 0 0-1.042 2.962"/><path fill="none" stroke="#000" stroke-linecap="round" stroke-linejoin="round" stroke-width="2" d="M16.97 59.937v-3c0-4.995 5.009-9 10-9q9 7.5 18 0c4.995 0 10 4.005 10 9v3"/><path fill="none" stroke="#000" stroke-linecap="round" stroke-miterlimit="10" stroke-width="2" d="M42.392 50.583a26.435 26.435 0 0 1 4.19 6.312 26.104 26.104 0 0 1 1.195 2.999"/><path fill="none" stroke="#000" stroke-linecap="round" stroke-linejoin="round" stroke-width="2" d="m31.123 59.38-1.027-1.894a2.36 2.36 0 0 0 1.977-2.047h7.854a2.36 2.36 0 0 0 1.977 2.047l-.994 1.835"/><path fill="none" stroke="#000" stroke-linejoin="round" stroke-width="2" d="M25.126 29.208a6.47 6.47 0 0 0 3.817-1.103c1.408-1.19 3.11-2.175 5.566-.4a3.157 3.157 0 0 0 1.527.601 3.157 3.157 0 0 0 1.528-.6c2.456-1.776 4.158-.79 5.566.399a6.47 6.47 0 0 0 3.817 1.103l-.073 1.53a6.47 6.47 0 0 0-3.817 1.103c-1.408 1.189-3.11 2.174-5.566.399a3.157 3.157 0 0 0-1.527-.6 3.157 3.157 0 0 0-1.528.6c-2.455 1.775-4.158.79-5.566-.4a6.47 6.47 0 0 0-3.817-1.102z"/></svg>