<svg viewBox="0 0 72 72" xmlns="http://www.w3.org/2000/svg"><path fill="none" stroke="#000" stroke-linecap="round" stroke-linejoin="round" stroke-width="2" d="M54.78 40.776a11.586 11.586 0 0 0-.873-5.944c-2.405-5.67-3.042-5.642-3.429-12.822a8.132 8.132 0 0 0-7.405-8.037s-2.6-3-8-3c-6.432 0-12.23 3.466-13.71 8.966-1.5 5.583.345 7.834-1.29 12.034-1.218 3.127-3.018 6.064-2.928 9.437"/><path fill="none" stroke="#000" stroke-linejoin="round" stroke-width="2" d="M25.185 33.665C26.153 40.296 30.68 45 35.993 45c5.337 0 9.882-4.746 10.822-11.424"/><path fill="none" stroke="#000" stroke-linecap="round" stroke-linejoin="round" stroke-width="2" d="M46.288 26.191c-.923-2.519-2.662-4.665-5.215-7.218-2.118 2.117-7.283 4.816-10.916 6.9M39 38.973c-1.875-1-4.125-1-6 0"/><path d="M42 29.973a2 2 0 1 1-4 0 2 2 0 0 1 4 0m-8 0a2 2 0 1 1-4 0 2 2 0 0 1 4 0"/><path fill="none" stroke="#000" stroke-linecap="round" stroke-linejoin="round" stroke-width="2" d="m28.773 41.605-15.382-.022c1.694 2.678 4.644 8.943 5.144 10.79"/><path fill="none" stroke="#000" stroke-linecap="round" stroke-miterlimit="10" stroke-width="2" d="M20.55 53.667a11.894 11.894 0 0 1 4.048-3.359 11.748 11.748 0 0 1 3.307-1.088m1.304.487a10.357 10.357 0 0 0-6.771 7.525m7.506-6.632a21.016 21.016 0 0 0-4.293 6.282c-.423.96-.771 2.106-1.043 3.118"/><path fill="none" stroke="#000" stroke-linejoin="round" stroke-width="2" d="M36 32.706c-.49.913-2.936 2.556-5.89 2.566-2.494.008-5.35-1.146-7.701-4.883-.85-1.336-2.422-5.038-2.422-8.068 1.991 6.75 6.304 3.506 10.636 3.53 1.848.012 3.7.617 5.377 2.846 1.677-2.229 3.529-2.834 5.377-2.845 4.332-.025 8.645 3.22 10.636-3.53 0 3.029-1.572 6.73-2.422 8.067-2.35 3.737-5.207 4.891-7.7 4.883-2.955-.01-5.4-1.653-5.891-2.566z"/><path fill="none" stroke="#000" stroke-linecap="round" stroke-linejoin="round" stroke-width="2" d="M17 60v-3c0-4.994 5.008-9 10-9 6 5 12 5 18 0 4.994 0 10 4.006 10 9v3"/><path fill="none" stroke="#000" stroke-linecap="round" stroke-linejoin="round" stroke-width="2" d="M53.465 52.373c.5-1.847 3.45-8.112 5.144-10.79l-15.382.022"/><path fill="none" stroke="#000" stroke-linecap="round" stroke-miterlimit="10" stroke-width="2" d="M44.095 49.22c1.15.197 2.265.563 3.307 1.088a11.894 11.894 0 0 1 4.048 3.36m-1.888 3.564a10.357 10.357 0 0 0-6.77-7.525M47.392 60c-.272-1.012-.62-2.159-1.043-3.118a21.016 21.016 0 0 0-4.292-6.281"/></svg>