<svg viewBox="0 0 72 72" xmlns="http://www.w3.org/2000/svg"><path fill="none" stroke="#000" stroke-linecap="round" stroke-linejoin="round" stroke-width="2" d="M49.55 34.193 45.902 58.35a3.067 3.067 0 0 1-3.032 2.61H27.25a3.067 3.067 0 0 1-3.034-2.609l-3.653-24.157"/><circle cx="28.806" cy="55.731" r="2"/><circle cx="39.117" cy="56.566" r="2"/><circle cx="27.877" cy="47.217" r="2"/><circle cx="42.267" cy="43.979" r="2"/><circle cx="25.877" cy="41.002" r="2"/><circle cx="34.404" cy="52.052" r="2"/><circle cx="42.267" cy="50.452" r="2"/><path fill="none" stroke="#000" stroke-linecap="round" stroke-linejoin="round" stroke-width="2" d="M52.902 28.904a2.516 2.516 0 0 0-2.509-2.51H19.76a2.516 2.516 0 0 0-2.509 2.51v2.112h35.652z"/><path fill="none" stroke="#000" stroke-linecap="round" stroke-linejoin="round" stroke-width="2" d="m34.64 26.395.76-3.347c1.224-4.62 2.928-6.801 7.366-9.603l7.488-4.774 2.614 3.97-8.015 5.17a11.595 11.595 0 0 0-4.398 5.237l-.796 3.347m-1.288-9.427 3.649 3.425m-.875-5.862 2.585 4.105m-7.338 1.473 4.466 2.084m-7.918 12-.843 12.682m5.774-12.682L36.71 46.98"/></svg>