<svg viewBox="0 0 72 72" xmlns="http://www.w3.org/2000/svg"><g fill="none" stroke="#000" stroke-linecap="round" stroke-linejoin="round" stroke-width="2.069"><path d="M36.601 29.234v22.644a2.1 2.1 0 0 1-2.627 2.032l-1.144-.297-.164-.043-14.515-3.768a4.693 4.693 0 0 1-3.384-4.613v-22.54a2.1 2.1 0 0 1 2.576-2.045l17.721 4.133a6.838 6.838 0 0 0 3.105 0l17.725-4.133a2.1 2.1 0 0 1 2.576 2.045v24.65a2.1 2.1 0 0 1-1.572 2.032l-19.574 5.082a2.97 2.97 0 0 1-1.384.026l-1.966-.529"/><path d="m14.745 24.41.017-3.426a1.272 1.272 0 0 1 .954-1.225L34.83 14.82a7.093 7.093 0 0 1 3.926.109l18.526 5.013a1.608 1.608 0 0 1 1.188 1.553v2.666"/></g></svg>