<svg viewBox="0 0 72 72" xmlns="http://www.w3.org/2000/svg"><g fill="none" stroke="#000" stroke-width="2"><circle cx="37.969" cy="18.094" r="3" stroke-miterlimit="10"/><path stroke-linecap="round" stroke-linejoin="round" d="M29 51.042c4.042 0 6.95-.114 9.028-.264a5.492 5.492 0 0 0 5.1-5.855l-.203-5.3-.632-10.538A4.367 4.367 0 0 0 38 25.042h0a4.631 4.631 0 0 0-4.446 4.017L33 34.021l-.7 7.021"/><path stroke-linecap="round" stroke-linejoin="round" d="m31.89 44.762-8.75 2.443a4.495 4.495 0 0 0-1.75.962l-.074.067a3.988 3.988 0 0 0 .31 6.327 8.12 8.12 0 0 0 4.413 1.23 145.205 145.205 0 0 0 15.94-.745m-3.864-25.054-.746 10.313-10.524 2.943m14.509-28.039s.579-.27.925.017c.408.338.686 1.6 1.168 2.145a3.261 3.261 0 0 0 1.813 1.072"/></g></svg>