<svg viewBox="0 0 72 72" xmlns="http://www.w3.org/2000/svg"><path fill="none" stroke="#000" stroke-linecap="round" stroke-linejoin="round" stroke-width="2" d="M58.099 60v-3c0-4.994-5.006-9-10-9-6 5-12 5-18 0"/><path d="M18.566 29.334a4.447 4.447 0 0 1-.058 5.385m-3.524-7.644s2.57 4.949-.68 9.395" fill="none" stroke="#000" stroke-linecap="round" stroke-miterlimit="10" stroke-width="2"/><path d="M26.104 45.121c2.96-3.002-2.9-5.063-2.9-5.063l3.226-3.27a2.864 2.864 0 0 0 .928-2.28c-.183-1.477-2.15-.484-2.15-.484l-5.629 5.709a1.534 1.534 0 0 0-.394.704L17.92 45.48a6.377 6.377 0 0 0 .071 3.362l.22.742-4.647 10.445m13.507-13.993-.006.819a3.099 3.099 0 0 1-1.21 2.45 8.065 8.065 0 0 1-3.433 1.639m0 0-3.265 9.057" fill="none" stroke="#000" stroke-linecap="round" stroke-linejoin="round" stroke-width="2"/><path fill="none" stroke="#000" stroke-linecap="round" stroke-linejoin="round" stroke-width="2" d="M20.83 37.926c-.205-3.01 2.083-6.874 2.083-6.874 1.635-4.2-.21-6.451 1.29-12.034 1.48-5.5 7.278-8.966 13.71-8.966 5.4 0 8 3 8 3a8.132 8.132 0 0 1 7.405 8.037c.387 7.18 1.024 7.153 3.429 12.823A11.599 11.599 0 0 1 55.3 45.575"/><path d="M44.913 29.052a2 2 0 1 1-4 0 2 2 0 0 1 4 0m-8 0a2 2 0 1 1-4 0 2 2 0 0 1 4 0"/><path fill="none" stroke="#000" stroke-linejoin="round" stroke-width="2" d="M27.913 30.052c0 8 5 14 11 14s11-6 11-14c0-5-2-8-6-12-4 4-16 9-16 11v1z"/><path fill="none" stroke="#000" stroke-linecap="round" stroke-linejoin="round" stroke-width="2" d="M35.895 37.12a6.554 6.554 0 0 1 6 0v.273a6.554 6.554 0 0 1-6 0v-.273z"/></svg>