<svg viewBox="0 0 72 72" xmlns="http://www.w3.org/2000/svg"><g fill="none" stroke="#000" stroke-linecap="round" stroke-linejoin="round" stroke-width="2"><path d="m34.417 14.631 4.304-6.134a20.026 20.026 0 0 0-1.22 2.24c-2.787 6.103 2.123 6.374 2.123 6.374C51.11 18.61 59.936 27.59 59.936 38.444c0 11.903-10.615 21.552-23.71 21.552s-23.709-9.65-23.709-21.552c0-8.232 5.077-15.386 12.54-19.016a24.831 24.831 0 0 1 3.088-1.252l.248-.08q.162-.052.325-.101a25.486 25.486 0 0 1 3.283-.762m3.992 42.971-5.797 2.59zm4.938 2.59-4.938-2.59v2.59"/><path d="M32.376 53.455c-2.33-2.343-3.983-8.237-3.983-15.137 0-5.805 1.17-10.897 2.928-13.763m-7.595 25.337c-1.755-1.765-3-6.206-3-11.405 0-4.373.88-8.21 2.205-10.369M49.28 49.892c1.755-1.765 3-6.206 3-11.405 0-4.373-.881-8.21-2.205-10.369m-10.86 25.337c2.33-2.343 3.983-8.237 3.983-15.137 0-5.805-1.17-10.897-2.928-13.763"/></g></svg>