<svg viewBox="0 0 72 72" xmlns="http://www.w3.org/2000/svg"><g fill="none" stroke="#000" stroke-width="2"><circle cx="35.404" cy="10.651" r="2.969" stroke-miterlimit="10"/><path stroke-linecap="round" stroke-linejoin="round" d="m40.37 23.59 1.9 38c.055 1.1-.575 2-1.4 2a2.076 2.076 0 0 1-1.729-1.988l-2.542-22.03c-.129-1.094-.679-1.988-1.229-1.988s-1.103.894-1.229 1.987l-2.539 22.031a2.076 2.076 0 0 1-1.729 1.987c-.825 0-1.455-.9-1.4-2l1.9-38"/><path stroke-linecap="round" stroke-linejoin="round" d="m26.373 41.59.792-19a5.274 5.274 0 0 1 5.208-5h6"/><path stroke-linecap="round" stroke-linejoin="round" d="M38.3 17.589a5.274 5.274 0 0 1 5.208 5l.792 19"/></g></svg>