<svg viewBox="0 0 72 72" xmlns="http://www.w3.org/2000/svg"><g fill="none" stroke="#000" stroke-linecap="round" stroke-width="2"><path stroke-linejoin="round" d="M23 17h26M19 28h34M19 56h34M19.895 17H19v50h34V17h-.895M40 14l2.765-4.978A7.82 7.82 0 0 1 49.602 5H60"/><path stroke-miterlimit="10" d="M27.716 49.891a2.168 2.168 0 0 1-.403-2.406c-1.684-3.303-.663-8.017 2.752-11.431s8.128-4.436 11.431-2.752a2.175 2.175 0 0 1 2.883 2.883c1.688 3.306.663 8.016-2.752 11.43s-8.124 4.44-11.431 2.753a2.168 2.168 0 0 1-2.443-.44l-.037-.037"/></g></svg>