<svg viewBox="0 0 72 72" xmlns="http://www.w3.org/2000/svg"><path fill="none" stroke="#000" stroke-linecap="round" stroke-linejoin="round" stroke-width="2" d="M29.099 39a2.878 2.878 0 0 1-2.494-1.283c-.724-1.023 4.625-4.803-1.295-4.527 0 0-.211-4.565-.211-7.19 0-7 4-14 14-14s14 7 14 14 0 13-4 13m9 21v-3c0-4.994-5.006-9-10-9q-9 7.5-18 0"/><path d="M44.971 30a2 2 0 1 1-2-2 2 2 0 0 1 2 2m-8 0a2 2 0 1 1-2-2 2 2 0 0 1 2 2"/><path fill="none" stroke="#000" stroke-linejoin="round" stroke-width="2" d="M28.035 31c0 9 4.936 14 11 14 5.936 0 11.063-5 11.063-14a12.137 12.137 0 0 0-1-5c-3-3-7-8-7-8-4 3-7 6-13 7 0 0-1.063 1-1.063 6z"/><path fill="none" stroke="#000" stroke-linecap="round" stroke-linejoin="round" stroke-width="2" d="M36.099 37.727a6.553 6.553 0 0 1 6 0V38a6.553 6.553 0 0 1-6 0z"/><path fill="none" stroke="#000" stroke-linecap="round" stroke-miterlimit="10" stroke-width="2" d="M19.884 29.334a4.447 4.447 0 0 1-.058 5.385m-4.1-7.219s2.57 4.948-.679 9.394"/><path fill="none" stroke="#000" stroke-linecap="round" stroke-linejoin="round" stroke-width="2" d="M26.104 45.121c2.96-3.002-2.9-5.063-2.9-5.063l3.226-3.27a2.864 2.864 0 0 0 .928-2.28c-.183-1.477-2.15-.484-2.15-.484l-5.629 5.709a1.535 1.535 0 0 0-.394.704L17.92 45.48a6.378 6.378 0 0 0 .071 3.362l.22.742-4.647 10.445m13.507-13.993-.006.819a3.099 3.099 0 0 1-1.21 2.45 8.064 8.064 0 0 1-3.433 1.639m0 0-3.265 9.057"/></svg>