<svg viewBox="0 0 72 72" xmlns="http://www.w3.org/2000/svg"><path d="m34.134 16.5 1.732-1m-8 10-1.732-1m10.732 11-1.732-1M45.5 26.866l-1-1.732m-10 2.732 1-1.732m6-7.268-1-1.732m-17 18.732-1-1.732M29 40h2m16.5-3.134 1-1.732M41.134 39.5l1.732-1" fill="none" stroke="#000" stroke-linecap="round" stroke-linejoin="round" stroke-width="2"/><g fill="none" stroke="#000" stroke-linecap="round" stroke-linejoin="round" stroke-width="2"><path d="M39 5c-.127 6.663-12.672 7.832-12.672 12.245 0 2.207 3.413 2.207 5.69 2.207m9.102-8.827c0 3.31 6.828 5.517 6.828 7.724s-4.49 4.634-11.379 4.31M24.052 20.66c-2.276 0-4.552 2.46-4.552 4.31 0 2.206 1.138 5.413 10.241 5.413m10.242.104c10.241 0 12.517-2.104 12.517-4.31s-3.414-3.207-3.414-3.207M56 46c-4 0-8 13-8 21H24c0-8-4-21-8-21"/><path d="m21 46 2.168 1.445a1.627 1.627 0 0 0 1.664 0l1.336-.89a1.627 1.627 0 0 1 1.664 0l1.336.89a1.627 1.627 0 0 0 1.664 0l1.336-.89a1.627 1.627 0 0 1 1.664 0l1.336.89a1.627 1.627 0 0 0 1.664 0l1.336-.89a1.627 1.627 0 0 1 1.664 0l1.336.89a1.627 1.627 0 0 0 1.664 0l1.336-.89a1.627 1.627 0 0 1 1.664 0l1.336.89a1.627 1.627 0 0 0 1.664 0L51 46M18 30s-3 0-3 4c0 3 3 8 9 8m33.031-1.835a2 2 0 1 1 2 3.464M14.99 40.165a2.15 2.15 0 0 0-2.732.732 2.15 2.15 0 0 0 .732 2.732M53 31s3 1 3 4-2 7-6 7"/></g></svg>