<svg viewBox="0 0 72 72" xmlns="http://www.w3.org/2000/svg"><path fill="none" stroke="#000" stroke-linecap="round" stroke-linejoin="round" stroke-width="2" d="M17.534 26.878 49.178 38.01M32.361 24.15l26.532 9.333m-36.219-8.119 31.48 11.151m-41.457-6.327 25.722 9.048m13.445-13.178L19.949 37.285m21.214-12.569-27.402 9.64m44.211-5.436L29.363 38.984"/><path d="M41.188 29.732c-2.443-1.336-4.692-2.63-8.018-1.349-2.413.93-3.365 1.847-3.435 2.67h-.012l.003.093c0 .019 0 .038.002.058l.026.918c-.469 2.023 4.507 3.527 6.909 3.35 1.167-.085 5.056-1.6 5.31-3.183v-1.35a1.397 1.397 0 0 0-.785-1.207z"/><path d="M33.164 28.384c3.326-1.282 5.576.012 8.018 1.348 2.928 1.94-3.031 4.393-4.525 4.503-3.326.245-11.587-2.733-3.493-5.851z"/><path fill="none" stroke="#000" stroke-linecap="round" stroke-linejoin="round" stroke-width="2" d="m49.179 43.442-17.173 6.124m22.059-7.446 4.977 1.707m-38.647 4.284 11.232-3.497m-10.854-1.64-6.604 2.161m30.495-.983 8.935 3.254m-25.541-3.182 15.216 5.353"/><g fill="none" stroke="#000" stroke-linecap="round" stroke-linejoin="round"><path stroke-width="2" d="m21.085 28.127 1.59-2.763a63.555 63.555 0 0 1 13.232-1.3c13.068 0 23.662 3.406 23.662 7.607 0 1.84-2.033 3.528-5.415 4.844l-2.487 3.401-2.489-1.946a63.488 63.488 0 0 1-13.272 1.308c-13.068 0-23.662-3.405-23.662-7.607 0-1.817 1.983-3.485 5.29-4.794"/><path stroke-width="2.054" d="M12.244 31.672a4.36 4.36 0 0 0-1.39 5.598c2.137 4.056 11.18 7.344 24.97 7.344h.351a65.915 65.915 0 0 0 13.004-1.172 45.245 45.245 0 0 0 4.886-1.322c3.571-1.374 6.101-2.991 7.08-4.85a4.36 4.36 0 0 0-1.39-5.598"/><path stroke-width="2" d="M13.486 39.916a3.42 3.42 0 0 0-1.242 2.439c0 1.84 2.033 3.527 5.415 4.843a28.766 28.766 0 0 0 4.975 1.455 66.425 66.425 0 0 0 13.272 1.309c13.069 0 23.663-3.406 23.663-7.607a3.33 3.33 0 0 0-1.128-2.327"/><path stroke-width="2.054" d="M12.244 42.355a4.36 4.36 0 0 0-1.39 5.598c2.137 4.056 11.18 7.344 24.97 7.344h.351a65.915 65.915 0 0 0 13.004-1.172s2.917-.643 4.886-1.322c3.617-1.248 6.101-2.992 7.08-4.85a4.36 4.36 0 0 0-1.39-5.598"/></g></svg>