<svg viewBox="0 0 72 72" xmlns="http://www.w3.org/2000/svg"><g fill="none" stroke="#000" stroke-width="2"><circle cx="37.809" cy="18.053" r="3" stroke-miterlimit="10"/><path stroke-linecap="round" stroke-linejoin="round" d="M28.84 51.001c4.042 0 6.95-.113 9.028-.264a5.492 5.492 0 0 0 5.1-5.855l-.203-5.3-.632-10.538A4.367 4.367 0 0 0 37.84 25h0a4.631 4.631 0 0 0-4.446 4.017l-.554 4.962-.7 7.021"/><path stroke-linecap="round" stroke-linejoin="round" d="m31.438 44.853-8.458 2.311a4.495 4.495 0 0 0-1.75.962l-.075.067a3.988 3.988 0 0 0 .31 6.327 8.12 8.12 0 0 0 4.413 1.23 145.205 145.205 0 0 0 15.94-.745m-3.863-25.053-.746 10.313-10.524 2.942"/></g></svg>