<svg viewBox="0 0 72 72" xmlns="http://www.w3.org/2000/svg"><g fill="none" stroke="#000" stroke-width="2"><path stroke-linecap="round" stroke-miterlimit="10" d="M15.235 34.304c7.326-2.569 6.312-8.996 10.882-8.996h9.971c4.571 0 5.774 7.549 7.406 15.246"/><path stroke-linecap="round" stroke-miterlimit="10" d="m24.736 31.095-.387 9.868a21.666 21.666 0 0 0 9.563 17.804s7.698 6.61 19.438-5.503M39.471 40.397l-2.266-9.302"/><path stroke-linecap="round" stroke-miterlimit="10" d="M53.233 53.401c-10.73 1.05-13.762-13.06-13.762-13.06"/><path stroke-linecap="round" stroke-linejoin="round" d="M14.953 63.308v-52"/><path stroke-linecap="round" stroke-miterlimit="10" d="M8.954 16.314c0 3.8 2.628 6.882 5.87 6.882s5.87-3.082 5.87-6.882l-.265-4.891"/><path stroke-linecap="round" stroke-miterlimit="10" d="M20.695 16.314c0 3.8-2.628 6.882-5.87 6.882s-5.87-3.082-5.87-6.882l.264-4.891M53.428 53.13s-.856-7.077 6.143-9.604"/><path stroke-linecap="round" stroke-miterlimit="10" d="M59.536 43.525s.858 7.076-6.14 9.605"/><path stroke-linecap="round" stroke-miterlimit="10" d="M54.591 53.865s4.755-5.312 11.27-1.717"/><path stroke-linecap="round" stroke-miterlimit="10" d="M65.838 52.123s-4.753 5.31-11.27 1.716M39.53 40.805c0 1.445-4.007 2.624-8.595 2.624-4.591 0-6.586-1.063-6.586-2.507m7.205-33.074s-7.453-.312-7.617 7.171c0 0-.425 3.57.414 4.832a4.982 4.982 0 0 1 .414 2.806"/><path stroke-linecap="round" stroke-miterlimit="10" d="M37.533 22.68a5.4 5.4 0 0 1 .516-2.829c.663-1.013.414-4.832.414-4.832-.164-7.483-7.617-7.17-7.617-7.17M22.099 37.26s-2.928 5.123-.318 7.805"/><path stroke-linejoin="round" d="M32.55 13.005c1.563-2.056 3.918 2.365 3.206 4.847a4.676 4.676 0 0 1-5.784 3.207h-.001s-2.997-1.065-3.232-3.48c.001 0 2.093-.394 5.811-4.574z"/></g></svg>