<svg viewBox="0 0 72 72" xmlns="http://www.w3.org/2000/svg"><g fill="none" stroke="#000" stroke-width="2"><path stroke-linecap="round" stroke-linejoin="round" d="m45.968 30.771 6.469 2.315m.095.191 2.955.953-1.24 3.622-2.954-.953M40.69 14.453l1.217-5.042m-22.835 45.6 6.673-10.486-2.086-4.282 5.888-10.959 5.073-3.503-.31-2.661"/><circle cx="53.39" cy="16.022" r="3" stroke-miterlimit="10"/><path stroke-linecap="round" stroke-linejoin="round" d="m44.41 33.167-8.274-2.369a3.05 3.05 0 0 0-3.05.953l-6.145 7.697a2.073 2.073 0 0 0-.305 2.535c.44.51 1.72.165 2.482-.598l4.825-5.058a2.59 2.59 0 0 1 3.05-.381l5.243 2.955a9.264 9.264 0 0 0 3.527.953h.954a5.297 5.297 0 0 0 3.24-1.43l.477-.477a7.32 7.32 0 0 0 1.716-3.145c.19-.954.381-1.716.381-1.716"/><path stroke-linecap="round" stroke-linejoin="round" d="m50.626 37.948-1.621 9.437a12.166 12.166 0 0 0 .095 3.718l1.907 7.721a1.805 1.805 0 0 1-.954 2.288 1.782 1.782 0 0 1-2.097-1.335l-3.432-8.865a12.201 12.201 0 0 1-.667-3.718v-6.673m8.58-7.435 1.81-5.91c.573-2.002-.19-4.1-1.81-4.576a54.171 54.171 0 0 0-6.673-1.43h-.096c-2.097-.286-5.242-.858-7.15-1.334a85.442 85.442 0 0 1-3.335-.954m22.223-2.231s.658-.023.871.39c.252.484.008 1.794.247 2.506a3.363 3.363 0 0 0 1.29 1.747"/></g></svg>