<svg viewBox="0 0 72 72" xmlns="http://www.w3.org/2000/svg"><path fill="none" stroke="#000" stroke-linecap="round" stroke-linejoin="round" stroke-width="2" d="m20.6 57.2-.1-8.3c0-1 .1-2.6.7-3.2a7.494 7.494 0 0 1 1.6-.5c.9-.3 1.4-2.8 2.1-2.9.6-.1 2.9 2.8 3.1 2.9a5.367 5.367 0 0 1 .1 2.2 24.776 24.776 0 0 0-.2 6.1c.1.9.8 3.7.8 3.7m19.3 0 .1-8.3c0-1-.1-2.6-.7-3.2a7.494 7.494 0 0 0-1.6-.5c-.9-.3-1.4-2.8-2.1-2.9-.6-.1-2.9 2.8-3.1 2.9a5.367 5.367 0 0 0-.1 2.2 24.776 24.776 0 0 1 .2 6.1c-.1.9-.8 3.7-.8 3.7"/><path fill="none" stroke="#000" stroke-linecap="round" stroke-linejoin="round" stroke-width="2" d="M28.2 47.5a11.305 11.305 0 0 0 7.8 1.7h0a11.948 11.948 0 0 0 4-1.4m-23.7 9.4v-2.9a6.264 6.264 0 0 1 .6-2.7c.4-1.3 1.1-2.3 3.2-3.6m32.4 9.2v-2.9a6.264 6.264 0 0 0-.6-2.7c-.4-1.3-1.1-2.3-3.2-3.6M24.5 37.5c-4 0-4-6-4-13s4-14 14-14 14 7 14 14 0 13-4 13"/><path d="M40.4 28.5a2 2 0 1 1-2-2 2.006 2.006 0 0 1 2 2m-8 0a2 2 0 1 1-2-2 2.006 2.006 0 0 1 2 2"/><path fill="none" stroke="#000" stroke-linejoin="round" stroke-width="2" d="M23.4 29.5c0 9 4.9 14 11 14 5.9 0 11.1-5 11.1-14a12.133 12.133 0 0 0-1-5c-3-3-7-8-7-8-4 3-7 6-13 7 0 0-1.1 1-1.1 6z"/><path fill="none" stroke="#000" stroke-linecap="round" stroke-linejoin="round" stroke-width="2" d="M31.5 36.5a6.671 6.671 0 0 0 6 0"/></svg>