<svg viewBox="0 0 72 72" xmlns="http://www.w3.org/2000/svg"><g fill="none" stroke="#000" stroke-linecap="round" stroke-linejoin="round" stroke-width="2.007"><path d="M48.509 53.786c.244 1.631 1.028 2.338 2.173 2.338m0 0c1.207 0 2.01-1.182 2.01-2.957 0 0-.554-10.219-.744-12.668s-2.342-3.947-5.733-3.947m-19.64 10.541a5.544 5.544 0 1 0 5.614-5.472h0M30.283 31.7h1.604a14.075 14.075 0 0 1 7.446 2.06l-.598-4.254-.599-3.922a2.965 2.965 0 0 0-2.46-2.66l-4.226-.532c-1.662-.2-2.788.05-3.258.997l-3.295 7.455a1.246 1.246 0 0 0-.107.503v7.309c0 1.522.728 2.178 1.69 2.178"/><circle cx="34.254" cy="15.736" r="3.556"/><path d="M22.497 39.537a12.285 12.285 0 1 0 7.494-4.382"/></g></svg>