<svg viewBox="0 0 72 72" xmlns="http://www.w3.org/2000/svg"><g fill="none" stroke="#000" stroke-miterlimit="10" stroke-width="2"><circle cx="35.969" cy="19.094" r="3"/><path stroke-linecap="round" stroke-linejoin="round" d="m16 50 5.796-4.108c2.243-1.591 4.247-5.136 4.453-7.878l.377-5.028c.206-2.742 2.4-5.436 4.874-5.986s6.525-.55 9 0 4.668 3.244 4.874 5.986l.377 5.028c.206 2.742 2.21 6.287 4.453 7.878L56 50"/><path stroke-linecap="round" stroke-linejoin="round" d="m29 46 .5-.969c.275-.533.574-1.865.665-2.962L31 32m-2 24.454-1.5.273c-.825.15-2.4.273-3.5.273h-5c-1.1 0-2-.9-2-2h0c0-1.1.79-2.43 1.756-2.958L22.5 50M41 32l.847 11.006C41.93 44.102 42.45 45.45 43 46s1.79 1.43 2.756 1.958l7.488 4.084C54.21 52.569 55 53.9 55 55h0c0 1.1-.9 2-2 2h-5c-1.1 0-2.879-.195-3.952-.434l-5.096-1.132c-1.073-.239-2.82-.67-3.882-.96l-7.14-1.948c-1.062-.29-1.78-1.2-1.597-2.026.184-.825 1.232-1.459 2.331-1.41l20.002.91"/></g></svg>