<svg viewBox="0 0 72 72" xmlns="http://www.w3.org/2000/svg"><path fill="none" stroke="#000" stroke-linecap="round" stroke-linejoin="round" stroke-width="2" d="m20.635 57.23-.08-8.291c0-.955.078-2.634.713-3.164a5.278 5.278 0 0 1 1.573-.502c.9-.314 1.384-2.763 2.098-2.868.578-.085 2.92 2.764 3.064 2.9a6.032 6.032 0 0 1 .115 2.168 28.117 28.117 0 0 0-.226 6.056c.1.879.837 3.7.837 3.7m19.286.001.08-8.291c0-.955-.078-2.634-.713-3.164a5.278 5.278 0 0 0-1.573-.502c-.9-.314-1.384-2.763-2.098-2.868-.579-.085-2.921 2.764-3.064 2.9a6.032 6.032 0 0 0-.115 2.168 28.117 28.117 0 0 1 .226 6.056c-.1.879-.837 3.7-.837 3.7M31.506 36.5a7.796 7.796 0 0 0 6 0"/><path d="M40.086 28.907A1.907 1.907 0 1 1 38.178 27a1.912 1.912 0 0 1 1.907 1.907m-7.625 0A1.907 1.907 0 1 1 30.553 27a1.912 1.912 0 0 1 1.907 1.907"/><path fill="none" stroke="#000" stroke-linejoin="round" stroke-width="2" d="M23.88 29.585c0 7.627 4.766 13.346 10.486 13.346s10.486-5.72 10.486-13.345c0-4.767-1.907-7.627-5.72-11.44-3.813 3.813-15.252 8.58-15.252 10.486z"/><path fill="none" stroke="#000" stroke-linecap="round" stroke-linejoin="round" stroke-width="2" d="M28.22 47.532A11.388 11.388 0 0 0 36 49.236h0a12.336 12.336 0 0 0 3.967-1.394M16.253 57.23v-2.86a8.921 8.921 0 0 1 .576-2.737C17.276 50.306 17.936 49.366 20 48m-2.03-3.448c-3.528-5.624-.573-9.628 1.143-14.013 1.526-4.004-.19-6.197 1.24-11.44s6.958-8.579 13.06-8.579c5.147 0 7.626 2.86 7.626 2.86a7.744 7.744 0 0 1 7.054 7.626c.381 6.864.953 6.864 3.241 12.202A11.187 11.187 0 0 1 50 44.361m2.453 12.869v-2.86a8.921 8.921 0 0 0-.576-2.737c-.447-1.327-1.107-2.267-3.171-3.633"/></svg>