<svg viewBox="0 0 72 72" xmlns="http://www.w3.org/2000/svg"><g fill="none" stroke="#000" stroke-width="2"><circle cx="33.886" cy="18.881" r="2.86" stroke-miterlimit="10"/><path stroke-linecap="round" stroke-linejoin="round" d="M22.798 44.179s2.402-5.504 2.972-7.656a16.884 16.884 0 0 0 .446-5.256c-.08-2.113 1.19-5.236 3.08-5.808a14.049 14.049 0 0 1 3.021-.354c.196-.004.496-.01.692-.008.195-.003 2.362.004 2.558.008a14.05 14.05 0 0 1 3.021.354c1.89.572 3.16 3.695 3.08 5.808a16.86 16.86 0 0 0 .446 5.256c.57 2.152 2.445 6.62 2.445 6.62"/><path stroke-linecap="round" stroke-linejoin="round" d="M27.993 42.772a28.224 28.224 0 0 0 1.559-3.789 20.66 20.66 0 0 0 .084-3.623m-2.222 16.583s-.583.08-1.25.24c-.667.08-2 .16-2.917.16h-4.168a1.639 1.639 0 0 1-1.667-1.6 3.075 3.075 0 0 1 1.5-2.398l3.084-1.6M38.522 35.36a20.642 20.642 0 0 0 .085 3.623 28.216 28.216 0 0 0 1.559 3.79c.42 1.118 2.324 1.894 3.157 2.373l6.25 3.278a2.955 2.955 0 0 1 1.501 2.399 1.64 1.64 0 0 1-1.666 1.6s-5.04-.31-7.502-.744c-3.487-.613-13.22-3.278-13.22-3.278-.916-.24-1.264-.576-1.098-1.215s.566-.745 1.483-.755l10.026.013"/></g></svg>