<svg viewBox="0 0 72 72" xmlns="http://www.w3.org/2000/svg"><g fill="none" stroke="#000" stroke-linecap="round" stroke-width="2"><path stroke-miterlimit="10" d="M33.16 12.014a4.663 4.663 0 1 1-6.123 3.038"/><path stroke-linejoin="round" d="M33.101 11.993c-1.556-.025-2.555 2.905-6.012 2.958"/><path stroke-miterlimit="10" d="M38.024 20.05a10.949 10.949 0 0 0 1.191-5.303C38.71 7.338 32.543 7.478 31.5 7.46c-.118.03-7.66-.162-7.678 7.285a10.245 10.245 0 0 0 .979 4.612m-9.557 15.045c7.326-2.57 6.312-8.996 10.883-8.996h9.97c4.571 0 5.775 7.548 7.406 15.246"/><path stroke-miterlimit="10" d="m24.746 31.193-.388 9.867a21.666 21.666 0 0 0 9.563 17.805s7.698 6.61 19.438-5.503M39.48 40.495l-2.266-9.302"/><path stroke-miterlimit="10" d="M53.242 53.499c-10.73 1.05-13.762-13.06-13.762-13.06"/><path stroke-linejoin="round" d="M14.962 63.406v-52"/><path stroke-miterlimit="10" d="M8.963 16.411c0 3.8 2.628 6.882 5.87 6.882s5.87-3.081 5.87-6.882l-.265-4.89"/><path stroke-miterlimit="10" d="M20.704 16.411c0 3.8-2.628 6.882-5.87 6.882s-5.87-3.081-5.87-6.882l.264-4.89m44.209 41.707s-.856-7.077 6.143-9.604"/><path stroke-miterlimit="10" d="M59.545 43.623s.858 7.076-6.14 9.604"/><path stroke-miterlimit="10" d="M54.6 53.962s4.755-5.311 11.27-1.716"/><path stroke-miterlimit="10" d="M65.847 52.22s-4.753 5.31-11.27 1.716M39.54 40.903c0 1.444-4.007 2.624-8.595 2.624-4.592 0-6.586-1.063-6.586-2.508"/></g></svg>