<svg viewBox="0 0 72 72" xmlns="http://www.w3.org/2000/svg"><path fill="none" stroke="#000" stroke-linecap="round" stroke-linejoin="round" stroke-miterlimit="10" stroke-width="2" d="M62.618 60.962H48.01V42.326h11.826v2.112h2.782z"/><path fill="none" stroke="#000" stroke-linecap="round" stroke-linejoin="round" stroke-miterlimit="10" stroke-width="2" d="M51.214 38.863H66.04V57.5m-6.204-15.174 2.782 2.112m-11.663 4.097h8.433m-8.433 4.096h8.433m-8.433 3.584h8.433m-25.933-7.68s-1.206 6.021 2.307 6.021 2.308-6.021 2.308-6.021m6.63 7.094-5.74 2.178"/><path fill="none" stroke="#000" stroke-linecap="round" stroke-linejoin="round" stroke-miterlimit="10" stroke-width="2" d="M16.825 57.886s-2-13 10-13c3.192 2.128 5.926 3.598 9 3.592H35.7c3.074.006 5.808-1.464 9-3.592"/><path fill="none" stroke="#000" stroke-linecap="round" stroke-linejoin="round" stroke-miterlimit="10" stroke-width="2" d="m34.912 54.556-2.415 3.245-5.672-12.915-3.957 8.484 9.457 4.431M44.7 44.886l-5.672 12.915-2.415-3.245"/><path d="M41.953 27.047a2 2 0 1 1-4 0 2 2 0 0 1 4 0m-8 0a2 2 0 1 1-4 0 2 2 0 0 1 4 0m2 10.003a7.652 7.652 0 0 1-3.448-.859 1 1 0 0 1 .895-1.789c1.593.86 3.512.86 5.106 0a1 1 0 0 1 .894 1.79 7.653 7.653 0 0 1-3.447.857z"/><path fill="none" stroke="#000" stroke-linecap="round" stroke-linejoin="round" stroke-width="2" d="M26 36.58c-4 0-4-6-4-13s4-14 14-14 14 7 14 14 0 13-4 13"/><path fill="none" stroke="#000" stroke-linejoin="round" stroke-width="2" d="M24.936 28.58c0 9 4.937 14 11 14 5.937 0 11.064-5 11.064-14a12.137 12.137 0 0 0-1-5c-3-3-7-8-7-8-4 3-7 6-13 7.001 0 0-1.064.999-1.064 6z"/></svg>