<svg viewBox="0 0 72 72" xmlns="http://www.w3.org/2000/svg"><path d="M41.945 27.04a2 2 0 1 1-4.002-.002 2 2 0 0 1 4.002.002m-8 0a2 2 0 1 1-4.002-.002 2 2 0 0 1 4.002.002m1.999 10.002c-1.151 0-2.303-.286-3.447-.858a1 1 0 1 1 .895-1.79c1.717.86 3.387.86 5.105 0a1 1 0 0 1 .895 1.79c-1.144.572-2.296.858-3.448.858z"/><path fill="none" stroke="#000" stroke-linecap="round" stroke-linejoin="round" stroke-miterlimit="10" stroke-width="2" d="M54.26 51.392c1 3.25.5 6.5.5 6.5m-37.876 0s-1.097-7.134 3.212-10.832m15.971-29.449h-.245S22.591 25.04 25.635 34.29c0 0 2.334 8.284 10.31 8.284 7.975 0 10.309-8.284 10.309-8.284 3.044-9.25-10.187-16.678-10.187-16.678z"/><path fill="none" stroke="#000" stroke-linecap="round" stroke-linejoin="round" stroke-miterlimit="10" stroke-width="2" d="M35.944 11.67s-13.689-.632-14.81 14.782c-1.12 15.413 2.037 18.952 2.037 18.952s3.901 10.133 13.648 11.307 15.59-8.788 15.59-8.788 1.914-4.864-5.7-5.35c-1.598 1.007-6.199 4.247-10.764 0m.213-30.903s13.69-.632 14.81 14.782c.308 4.246.293 7.59.108 10.208l-.365 2.84M31.944 55.233v2.647m15.458-4.409v4.409"/><path fill="none" stroke="#000" stroke-linecap="round" stroke-linejoin="round" stroke-miterlimit="10" stroke-width="2" d="M48.602 46.342s-3.47 5.666-10.842 4.706c-5.816-.758-15.81-8.077-16.86-17.522"/></svg>