<svg viewBox="0 0 72 72" xmlns="http://www.w3.org/2000/svg"><path fill="none" stroke="#000" stroke-linecap="round" stroke-linejoin="round" stroke-width="2" d="M55 60v-3c0-5-5-9-10-9-6 5-12 5-18 0-5 0-10 4-10 9v3"/><path d="M40 26.7a2 2 0 1 1 0 4 2 2 0 0 1 0-4zm-.1 9.8a.992.992 0 0 1-.5 1.3 7.19 7.19 0 0 1-3.5.8 8.075 8.075 0 0 1-3.4-.8.992.992 0 0 1-.5-1.3.883.883 0 0 1 1.3-.4c1.58.9 3.52.9 5.1 0a1.103 1.103 0 0 1 1.5.4zM32 26.7a2 2 0 1 1 0 4 2 2 0 0 1 0-4z"/><path fill="none" stroke="#000" stroke-linecap="round" stroke-linejoin="round" stroke-width="2" d="M24.3 29c0 .4 0 1.4-.1 2.4a16.138 16.138 0 0 0 1.9 8.9c.561 1 1.269 1.91 2.1 2.7a10.513 10.513 0 0 0 7.4 2.5"/><path fill="none" stroke="#000" stroke-linecap="round" stroke-linejoin="round" stroke-width="2" d="M47.2 28.7v.4a27.526 27.526 0 0 1-2.1 5.8s-1.9 3-2.7-1.2a24.279 24.279 0 0 0-13.1 0c-.8 4.2-2.7 1.2-2.7 1.2a27.526 27.526 0 0 1-2.1-5.8c0-.1-.2-1.3-.2-1.5"/><path fill="none" stroke="#000" stroke-linecap="round" stroke-linejoin="round" stroke-width="2" d="M47.2 29c0 .4.1 1.4.1 2.4a16.138 16.138 0 0 1-1.9 8.9 9.342 9.342 0 0 1-2.1 2.7 10.384 10.384 0 0 1-7.4 2.5h-.3M24.3 29a16.567 16.567 0 0 1 2-13.2c3.2-4.9 12.9-2.4 12.9-2.4l3.1-2.4 1.1 3.1 3.4-2.5a4.834 4.834 0 0 1-1.2 5.3 12.066 12.066 0 0 1-3.5 2.5 4.46 4.46 0 0 1-1.2.5c-5.8 2.2-6.1 1.9-10.6 0 0 0-3.3-2.5-6.1 8.6M42 19.9h.2c1.2.1 3.2 1.5 5 8.7"/><path fill="none" stroke="#000" stroke-linecap="round" stroke-linejoin="round" stroke-width="2" d="M45.8 17.1A18.325 18.325 0 0 1 47.2 29"/></svg>