<svg viewBox="0 0 72 72" xmlns="http://www.w3.org/2000/svg"><g fill="none" stroke="#000" stroke-width="2"><path stroke-linecap="round" stroke-miterlimit="10" d="M15.237 34.36c7.326-2.57 6.312-8.997 10.883-8.997h9.97c4.571 0 5.774 7.548 7.406 15.246"/><path stroke-linecap="round" stroke-miterlimit="10" d="m24.739 31.15-.388 9.867a21.666 21.666 0 0 0 9.564 17.805s7.697 6.61 19.437-5.503M39.473 40.452l-2.265-9.302"/><path stroke-linecap="round" stroke-miterlimit="10" d="M53.236 53.456c-10.73 1.05-13.763-13.06-13.763-13.06"/><path stroke-linecap="round" stroke-linejoin="round" d="M14.956 63.363v-52"/><path stroke-linecap="round" stroke-miterlimit="10" d="M8.957 16.368c0 3.8 2.627 6.882 5.87 6.882s5.87-3.081 5.87-6.882l-.266-4.89"/><path stroke-linecap="round" stroke-miterlimit="10" d="M20.697 16.368c0 3.8-2.628 6.882-5.87 6.882s-5.87-3.081-5.87-6.882l.264-4.89M53.43 53.185s-.856-7.077 6.143-9.604"/><path stroke-linecap="round" stroke-miterlimit="10" d="M59.539 43.58s.857 7.076-6.141 9.604"/><path stroke-linecap="round" stroke-miterlimit="10" d="M54.593 53.92s4.755-5.311 11.27-1.717"/><path stroke-linecap="round" stroke-miterlimit="10" d="M65.84 52.178s-4.753 5.31-11.27 1.715M39.533 40.86c0 1.444-4.007 2.624-8.595 2.624-4.592 0-6.586-1.063-6.586-2.508"/><path stroke-miterlimit="10" d="M36.194 16.644a4.665 4.665 0 1 1-4.666-4.665h.001a4.666 4.666 0 0 1 4.665 4.665z"/></g></svg>