<svg viewBox="0 0 72 72" xmlns="http://www.w3.org/2000/svg"><path fill="none" stroke="#000" stroke-linecap="round" stroke-linejoin="round" stroke-width="2" d="M25.5 39.2C20.7 39.2 22 33 22 26s4-14 14-14 14 7 14 14 .9 13.4-4 13M17 60v-3c0-5 5-9 10-9 6 5 12 5 18 0 5 0 10 4 10 9v3"/><path d="M41.9 29a2 2 0 1 1-4 0 2 2 0 0 1 4 0m-8 0a2 2 0 1 1-4 0 2 2 0 0 1 4 0"/><path fill="none" stroke="#000" stroke-linejoin="round" stroke-width="2" d="M47 31a12.408 12.408 0 0 0-1-5c-3-3-7-8-7-8-4 3-7 6-13 7 0 0-1.1 1-1.1 6"/><path d="M39.9 36.5a.992.992 0 0 1-.5 1.3 7.19 7.19 0 0 1-3.5.8 8.075 8.075 0 0 1-3.4-.8.992.992 0 0 1-.5-1.3.883.883 0 0 1 1.2-.5c.1 0 .1 0 .1.1 1.58.9 3.52.9 5.1 0a1.129 1.129 0 0 1 1.5.4z"/><path fill="none" stroke="#000" stroke-linecap="round" stroke-linejoin="round" stroke-width="2" d="M24.9 31c-.2 3.1-.3 6.6 1.2 9.3a13.95 13.95 0 0 0 2.1 2.7 10.582 10.582 0 0 0 7.4 2.5"/><path fill="none" stroke="#000" stroke-linecap="round" stroke-linejoin="round" stroke-width="2" d="M47 31a8.389 8.389 0 0 1-1.9 3.9s-1.9 3-2.7-1.2a24.285 24.285 0 0 0-13.1 0c-.8 4.2-2.7 1.2-2.7 1.2A11.1 11.1 0 0 1 25 31"/><path fill="none" stroke="#000" stroke-linecap="round" stroke-linejoin="round" stroke-width="2" d="M47 31.4a16.113 16.113 0 0 1-1.6 8.9 8.972 8.972 0 0 1-2.1 2.7 9.996 9.996 0 0 1-7.4 2.5h-.3"/></svg>