<svg viewBox="0 0 72 72" xmlns="http://www.w3.org/2000/svg"><path fill="none" stroke="#000" stroke-linecap="round" stroke-linejoin="round" stroke-width="2" d="m20.635 57.23-.08-8.291c0-.955.078-2.634.713-3.164a5.278 5.278 0 0 1 1.573-.502c.9-.314 1.384-2.763 2.098-2.868.578-.085 2.92 2.764 3.064 2.9a6.032 6.032 0 0 1 .115 2.168 28.117 28.117 0 0 0-.226 6.056c.1.879.837 3.7.837 3.7m19.286.001.08-8.291c0-.955-.078-2.634-.713-3.164a5.278 5.278 0 0 0-1.573-.502c-.9-.314-1.384-2.763-2.098-2.868-.579-.085-2.921 2.764-3.064 2.9a6.032 6.032 0 0 0-.115 2.168 28.117 28.117 0 0 1 .226 6.056c-.1.879-.837 3.7-.837 3.7M31.506 36.5a7.796 7.796 0 0 0 6 0"/><path d="M32.46 28.907A1.907 1.907 0 1 1 30.551 27a1.912 1.912 0 0 1 1.907 1.907m7.627 0A1.907 1.907 0 1 1 38.178 27a1.912 1.912 0 0 1 1.907 1.907"/><path fill="none" stroke="#000" stroke-linejoin="round" stroke-width="2" d="M23.376 28.216c0 7.626 5.365 14.715 11.085 14.715s10.486-5.72 10.486-13.345c0-4.767-.756-6.296-2.581-10.886 0 0-5.447.486-6.508.734-1.697.392-4.049 1.129-6.068.942a20.196 20.196 0 0 1-3.424-.676c-1.85 4-2.99 7.599-2.99 8.516z"/><path fill="none" stroke="#000" stroke-linecap="round" stroke-linejoin="round" stroke-width="2" d="M28.22 47.532A11.388 11.388 0 0 0 36 49.236h0a12.337 12.337 0 0 0 3.968-1.394M16.26 57.23v-2.86a8.921 8.921 0 0 1 .576-2.737c.447-1.327 1.107-2.268 3.172-3.634M24.366 36.7c-3 0-4-7-4-14 0-6 5-12 14-12s14 6 14 12c0 7-1 14-4 14m8.087 20.53v-2.86a8.918 8.918 0 0 0-.576-2.737c-.447-1.327-1.106-2.267-3.171-3.633"/></svg>