<svg viewBox="0 0 72 72" xmlns="http://www.w3.org/2000/svg"><g fill="none" stroke="#000" stroke-width="2"><circle cx="33.886" cy="18.881" r="2.86" stroke-miterlimit="10"/><path stroke-linecap="round" stroke-linejoin="round" d="M22.798 44.179s2.402-5.504 2.971-7.656a16.887 16.887 0 0 0 .446-5.256c-.08-2.113 1.19-5.236 3.08-5.808a14.05 14.05 0 0 1 3.021-.354c.196-.004.496-.01.692-.008.196-.003 2.362.004 2.558.008a14.051 14.051 0 0 1 3.022.354c1.89.572 3.16 3.695 3.08 5.808a16.862 16.862 0 0 0 .445 5.256c.57 2.152 2.445 6.62 2.445 6.62"/><path stroke-linecap="round" stroke-linejoin="round" d="M27.992 42.772a28.224 28.224 0 0 0 1.56-3.789 20.66 20.66 0 0 0 .084-3.623m-2.222 16.583s-.584.08-1.25.24c-.667.08-2 .16-2.918.16H19.08a1.639 1.639 0 0 1-1.667-1.6 3.075 3.075 0 0 1 1.5-2.398l3.084-1.6M38.522 35.36a20.642 20.642 0 0 0 .085 3.623 28.206 28.206 0 0 0 1.558 3.79c.42 1.118 2.325 1.894 3.158 2.373l6.25 3.278a2.955 2.955 0 0 1 1.5 2.399 1.64 1.64 0 0 1-1.666 1.6s-5.04-.31-7.5-.744c-3.488-.613-13.22-3.278-13.22-3.278-.918-.24-1.266-.576-1.1-1.215s.566-.745 1.483-.755l10.027.013m-1.245-28.927s.625-.207.946.129c.378.394.51 1.72.939 2.337a3.363 3.363 0 0 0 1.728 1.316"/></g></svg>