<svg viewBox="0 0 72 72" xmlns="http://www.w3.org/2000/svg"><path d="M42.016 28.588a2 2 0 1 1-2-2 2 2 0 0 1 2 2m-8 0a2 2 0 1 1-2-2 2 2 0 0 1 2 2m2 10.002a7.653 7.653 0 0 1-3.447-.857 1 1 0 0 1 .894-1.79 5.377 5.377 0 0 0 5.106 0 1 1 0 1 1 .894 1.79 7.652 7.652 0 0 1-3.447.858z"/><path fill="none" stroke="#000" stroke-linecap="round" stroke-linejoin="round" stroke-width="2" d="M50.964 24.15C46.49 10.529 36.016 11.928 36.016 11.928s-10.353-1.383-14.869 11.987"/><circle cx="36.016" cy="22.15" r="1.5"/><path fill="none" stroke="#000" stroke-linecap="round" stroke-linejoin="round" stroke-width="2" d="m25.461 24.735-11.317-1.617s6.189 9.736 10.366 8.698m11.506-16.04a20.458 20.458 0 0 1-3.08 5.06m13.635 3.918 11.45-1.636s-6.268 9.85-10.494 8.8M36.016 15.776a20.456 20.456 0 0 0 3.08 5.06m12.12 10.197v13.503m-33.128 7.572v-9.565h7.085v3.565m-5.151-3.603v-4.744m3.371 4.782v-3.441"/><path fill="none" stroke="#000" stroke-linecap="round" stroke-linejoin="round" stroke-width="2" d="M54.954 59.95s2-13-10-13c-3.192 2.127-5.927 3.598-9 3.591h.125c-3.074.007-5.809-1.464-9-3.592-12 0-10 13-10 13m9.361-35.402-.983.229a17.29 17.29 0 0 0-.78 5.173c0 7.828 5.077 14.173 11.34 14.173s11.338-6.345 11.338-14.173a17.29 17.29 0 0 0-.78-5.173l-.812-.324"/><path fill="none" stroke="#000" stroke-linecap="round" stroke-linejoin="round" stroke-width="2" d="m46.571 24.754 11.45-1.636s-6.268 9.85-10.494 8.8m-27.58-1.585v3.168m27.948 26.505C29.397 54.87 27.08 46.949 27.08 46.949s-4.2.205-5.678 1.354c3.116 6.429 5.69 8.639 13.86 11.769m11.462-38.778c-2.642-.693-3.24 2.473-6.127 1.786m-9.21 0c-2.886.688-2.876-2.763-5.519-2.07"/></svg>