<svg viewBox="0 0 72 72" xmlns="http://www.w3.org/2000/svg"><path fill="none" stroke="#000" stroke-linecap="round" stroke-linejoin="round" stroke-width="2" d="M35.185 17.206c-5.876.529-10.516 6.64-10.516 14.121 0 7.828 5.077 14.173 11.339 14.173s11.339-6.345 11.339-14.173a17.26 17.26 0 0 0-.768-5.094 9.918 9.918 0 0 1-11.394-9.027z"/><path fill="none" stroke="#000" stroke-linecap="round" stroke-linejoin="round" stroke-width="2" d="M45.392 25.313a2 2 0 0 0-1.329-2.18 1.975 1.975 0 0 0 .377-.891 1.993 1.993 0 0 0-2.79-2.114 1.992 1.992 0 0 0-3.39-1.306 1.992 1.992 0 0 0-2.772-.481"/><path fill="none" stroke="#000" stroke-linecap="round" stroke-linejoin="round" stroke-width="2" d="M35.185 17.206q.041.48.126.946a9.998 9.998 0 0 0 9.422 8.188q.204.008.41.008a10.016 10.016 0 0 0 1.436-.115M32.008 38.348s8-3.11 8 0c0 6.242-8 0-8 0zm7.433 1.716h-4.299"/><path fill="none" stroke="#000" stroke-linecap="round" stroke-linejoin="round" stroke-width="1.5" d="M36.952 40.064v-2.925"/><path fill="none" stroke="#000" stroke-linecap="round" stroke-linejoin="round" stroke-width="2" d="M26.66 48.974c2.674 4.687 6.011 6.99 9.348 6.97l2 4.018 2.003-5.178a15.638 15.638 0 0 0 5.345-5.81m-1.798 8.315-.756 2.663m-22.578-.032 2.084-3.563 1.528 3.563"/><path d="M55.008 60.966a1 1 0 0 1-1-1v-3c0-4.452-4.496-7.81-8.652-7.992-6.205 5.012-12.491 5.012-18.696 0-4.156.182-8.652 3.54-8.652 7.992v3a1 1 0 0 1-2 0v-3c0-5.325 5.14-9.997 11-10a1 1 0 0 1 .64.232c5.625 4.688 11.095 4.688 16.72 0a1 1 0 0 1 .64-.232c5.86.003 11 4.675 11 10v3a1 1 0 0 1-1 1z"/><path fill="none" stroke="#000" stroke-miterlimit="10" stroke-width="1.5" d="M42.008 29.966a2 2 0 1 1-2-2 2 2 0 0 1 2 2m-8 0a2 2 0 1 1-2-2 2 2 0 0 1 2 2"/><path fill="none" stroke="#000" stroke-linecap="round" stroke-linejoin="round" stroke-width="2" d="M48.535 22.829c5.038.18 3.458 6.735 3.03 7.205a4.474 4.474 0 0 0 4.683 2.528c-.314 3.553-3.68 3.294-4.757 3.27a9.396 9.396 0 0 0 2.899 4.683 5.02 5.02 0 0 1 .595 7.731m-36.833-1.023c-3.109-2.938-3.695-8.093-.218-11.147a7.265 7.265 0 0 0 2.114-5.204c-2.657 1.247-5.176-.637-5.91-1.68 1.586-.394 4.183-3.793 4.617-5.89 1.48-5.5 5.188-9.77 11.563-10.62 4.282-.57 6.484.408 7.667 2.161"/></svg>