<svg viewBox="0 0 72 72" xmlns="http://www.w3.org/2000/svg"><path d="M41.97 26.995a2 2 0 1 1-4.001-.001 2 2 0 0 1 4.001.001m-8 0a2 2 0 1 1-4.001-.001 2 2 0 0 1 4.001.001m2 10.003c-1.152 0-2.304-.287-3.447-.858a1 1 0 1 1 .894-1.79c1.718.86 3.388.86 5.106 0a1 1 0 0 1 .894 1.79c-1.143.571-2.295.858-3.447.858z"/><path fill="none" stroke="#000" stroke-linecap="round" stroke-linejoin="round" stroke-miterlimit="10" stroke-width="2" d="m27.033 45.05 5.803 8.886 3.197-5.294m9-3.592-5.804 8.886-3.196-5.294M53.48 23.795s-2.376 15.416 7.085 15.658V23.795m7.085 0s2.376 15.416-7.085 15.658V23.795m-2.653 15.658h5.48v4.245h-5.48zm4.74 18.617V43.74h-4v14.32"/><path fill="none" stroke="#000" stroke-linecap="round" stroke-linejoin="round" stroke-miterlimit="10" stroke-width="2" d="M54.97 58.05s2-13-10-13c-3.192 2.127-5.926 3.598-9 3.592h.125c-3.073.006-5.808-1.465-9-3.593-12 0-10 13-10 13m5.067-12.048v12.034m27.491-12.034v12.063"/><path fill="none" stroke="#000" stroke-linecap="round" stroke-linejoin="round" stroke-miterlimit="10" stroke-width="2" d="M27.301 45.305v12.73l17.448-.014V45.284"/><path fill="none" stroke="#000" stroke-miterlimit="10" d="M24.724 24.994a17.756 17.756 0 0 0-.169 5.69l-.473-.523s-4.653-6.851 2.553-13.89h18.213c7.206 7.039 2.554 13.89 2.554 13.89l-5.66-12.625s-1.478 3.806-5.654 3.493c0 0 1.064-4.759-.284-4.759 0 0-5.183 6.217-11.073 8.725"/><path fill="none" stroke="#000" stroke-miterlimit="10" stroke-width="2" d="M24.953 24.994a17.608 17.608 0 0 0-.321 3.362c0 7.828 5.076 14.173 11.338 14.173 5.97 0 10.862-5.767 11.306-13.087"/><path fill="none" stroke="#000" stroke-linecap="round" stroke-linejoin="round" stroke-miterlimit="10" stroke-width="2" d="M45.077 16.27c7.206 7.04 2.553 13.89 2.553 13.89l-5.66-12.624s-1.478 3.806-5.654 3.493c0 0 1.065-4.759-.283-4.759 0 0-5.184 6.217-11.073 8.725"/><path fill="none" stroke="#000" stroke-linecap="round" stroke-linejoin="round" stroke-miterlimit="10" stroke-width="2" d="M24.31 30.16s-4.652-6.85 2.553-13.89m.322 0V8.068l8.785 1.418 8.785-1.418v8.202m-17.57-3.505h17.57M19.513 16.27h32.568"/></svg>