<svg viewBox="0 0 72 72" xmlns="http://www.w3.org/2000/svg"><path d="M42.019 28.544a2 2 0 1 1-2-2 2 2 0 0 1 2 2m-8 0a2 2 0 1 1-2-2 2 2 0 0 1 2 2m2 10.002a7.653 7.653 0 0 1-3.447-.858 1 1 0 0 1 .894-1.789 5.377 5.377 0 0 0 5.106 0 1 1 0 1 1 .894 1.79 7.652 7.652 0 0 1-3.447.857z"/><path fill="none" stroke="#000" stroke-linecap="round" stroke-linejoin="round" stroke-width="2" d="M50.966 24.105C46.493 10.485 36.02 11.884 36.02 11.884S25.666 10.5 21.15 23.87"/><path fill="none" stroke="#000" stroke-linecap="round" stroke-linejoin="round" stroke-width="2" d="M26.838 21.538a6.553 6.553 0 0 0 6.098 1.536m12.263-1.536a6.553 6.553 0 0 1-6.098 1.536"/><circle cx="36.019" cy="22.105" r="1.5"/><path fill="none" stroke="#000" stroke-linecap="round" stroke-linejoin="round" stroke-width="2" d="m25.464 24.691-11.318-1.617s6.19 9.735 10.367 8.697m11.506-16.039a20.458 20.458 0 0 1-3.08 5.059m13.635 3.919 11.45-1.636s-6.268 9.849-10.494 8.799M36.019 15.732a20.456 20.456 0 0 0 3.08 5.059m12.119 10.197v13.503M18.09 52.064v-9.565h7.085v3.564m-5.151-3.603v-4.743m3.372 4.782v-3.442"/><path fill="none" stroke="#000" stroke-linecap="round" stroke-linejoin="round" stroke-width="2" d="M54.956 59.905s2-13-10-13c-3.192 2.128-5.926 3.598-9 3.592h.125c-3.073.006-5.808-1.464-9-3.592-12 0-10 13-10 13m9.361-35.403-.983.23a17.29 17.29 0 0 0-.779 5.173c0 7.827 5.077 14.173 11.339 14.173s11.338-6.346 11.338-14.173a17.29 17.29 0 0 0-.779-5.174l-.812-.324"/><path fill="none" stroke="#000" stroke-linecap="round" stroke-linejoin="round" stroke-width="2" d="m46.574 24.71 11.45-1.636s-6.268 9.849-10.494 8.799m-27.581-1.585v3.169m27.949 26.504C29.4 54.826 27.081 46.905 27.081 46.905s-4.2.204-5.677 1.353c3.116 6.43 5.69 8.64 13.86 11.77"/></svg>