<svg viewBox="0 0 72 72" xmlns="http://www.w3.org/2000/svg"><path fill="none" stroke="#000" stroke-linecap="round" stroke-linejoin="round" stroke-width="2" d="M18.8 46.6c-3.7-5.9-.6-10.1 1.2-14.7 1.6-4.2-.2-6.5 1.3-12s7.3-9 13.7-9c5.4 0 8 3 8 3a8.051 8.051 0 0 1 7.4 8c.4 7.2 1 7.2 3.4 12.8a11.736 11.736 0 0 1-1.4 11.7M17 59.9v-3c0-5 5-9 10-9 6 5 12 5 18 0 5 0 10 4 10 9v3"/><path d="M42 29.3a2 2 0 1 1-4 0 2 2 0 0 1 4 0m-8 0a2 2 0 1 1-4 0 2 2 0 0 1 4 0"/><path fill="none" stroke="#000" stroke-linejoin="round" stroke-width="2" d="M47 30.9c0-5-2-8-6-12-4 4-16 9-16 11v1"/><path d="M39.9 36.5a.992.992 0 0 1-.5 1.3 7.19 7.19 0 0 1-3.5.8 8.075 8.075 0 0 1-3.4-.8.992.992 0 0 1-.5-1.3.883.883 0 0 1 1.2-.5c.1 0 .1 0 .1.1 1.58.9 3.52.9 5.1 0a1.129 1.129 0 0 1 1.5.4z"/><path fill="none" stroke="#000" stroke-linecap="round" stroke-linejoin="round" stroke-width="2" d="M24.9 31c-.2 3.1-.3 6.6 1.2 9.3a13.95 13.95 0 0 0 2.1 2.7 10.582 10.582 0 0 0 7.4 2.5"/><path fill="none" stroke="#000" stroke-linecap="round" stroke-linejoin="round" stroke-width="2" d="M47 31a8.389 8.389 0 0 1-1.9 3.9s-1.9 3-2.7-1.2a24.285 24.285 0 0 0-13.1 0c-.8 4.2-2.7 1.2-2.7 1.2A11.1 11.1 0 0 1 25 31"/><path fill="none" stroke="#000" stroke-linecap="round" stroke-linejoin="round" stroke-width="2" d="M47 31.4a16.113 16.113 0 0 1-1.6 8.9 8.972 8.972 0 0 1-2.1 2.7 9.996 9.996 0 0 1-7.4 2.5h-.3"/></svg>