<svg viewBox="0 0 72 72" xmlns="http://www.w3.org/2000/svg"><path d="M42.01 28.552a2 2 0 1 1-2-2 2 2 0 0 1 2 2m-8 0a2 2 0 1 1-2-2 2 2 0 0 1 2 2m2 10.002a7.653 7.653 0 0 1-3.447-.858 1 1 0 0 1 .894-1.789 5.377 5.377 0 0 0 5.106 0 1 1 0 1 1 .894 1.79 7.652 7.652 0 0 1-3.447.857z"/><path fill="none" stroke="#000" stroke-linecap="round" stroke-linejoin="round" stroke-width="2" d="M50.958 24.113C46.484 10.493 36.01 11.892 36.01 11.892s-10.353-1.384-14.869 11.986m4.315.821-11.318-1.617s6.189 9.735 10.366 8.697"/><path fill="none" stroke="#000" stroke-linecap="round" stroke-linejoin="round" stroke-width="2" d="m46.565 24.718 11.45-1.636s-6.268 9.848-10.494 8.799"/><circle cx="36.01" cy="22.113" r="1.5"/><path fill="none" stroke="#000" stroke-linecap="round" stroke-linejoin="round" stroke-width="2" d="M36.01 15.74a20.458 20.458 0 0 1-3.08 5.058m3.08-5.058a20.456 20.456 0 0 0 3.08 5.058M18.082 52.072v-9.566h7.085v3.565m-5.151-3.603v-4.744m3.371 4.783v-3.442"/><path fill="none" stroke="#000" stroke-linecap="round" stroke-linejoin="round" stroke-width="2" d="M54.948 59.912s2-13-10-13c-3.192 2.128-5.927 3.599-9 3.592h.125c-3.074.007-5.808-1.464-9-3.592-12 0-10 13-10 13m9.36-35.402-.982.23a17.29 17.29 0 0 0-.78 5.173c0 7.827 5.077 14.173 11.34 14.173s11.338-6.346 11.338-14.174a17.29 17.29 0 0 0-.78-5.173l-.811-.324"/><path fill="none" stroke="#000" stroke-linecap="round" stroke-linejoin="round" stroke-width="2" d="m46.565 24.718 11.45-1.636s-6.268 9.848-10.494 8.799m.369 28.089c-18.5-5.137-20.817-13.058-20.817-13.058s-4.2.205-5.678 1.354c3.117 6.429 5.69 8.639 13.86 11.769m-15.62-29.744s-.06 3.717-2.712 5.145c-2.542 1.44-2.752 4.518-2.243 7.07.748 3.536.408 5.711-2.244 8.023-3.12 2.72-2.192 7.751-.9 9.383M26.83 21.54a6.553 6.553 0 0 0 6.097 1.535M45.19 21.54a6.553 6.553 0 0 1-6.098 1.535M52.2 30.291s.06 3.717 2.712 5.145c2.541 1.44 2.752 4.518 2.243 7.07-.748 3.536-.408 5.711 2.244 8.023 3.12 2.72 2.192 7.751.9 9.383"/></svg>