<svg viewBox="0 0 72 72" xmlns="http://www.w3.org/2000/svg"><path fill="none" stroke="#000" stroke-linecap="round" stroke-linejoin="round" stroke-width="2" d="M53.368 40.59a5 5 0 1 1 4.287-.188m-.341 19.649V40.605h-4v19.446"/><path fill="none" stroke="#000" stroke-linecap="round" stroke-linejoin="round" stroke-width="2" d="M17 60v-3c0-4.994 5.008-9 10-9 6 5 12 5 18 0 3.212 0 6.43 1.657 8.316 4.169M19.086 25.8 16.9 31.4a2.54 2.54 0 0 0-.2 1.9l1.425 5.445M26.9 17.5a15.942 15.942 0 0 0-.9 3.4h0l-12 4.9h44l-11.9-4.9c-.2-4.3-2.2-11.3-10.9-11.6-13 0-15.2 13.5-15.2 13.5m30.717 3c.149 1.202.335 2.11.587 2.95"/><path fill="none" stroke="#000" stroke-linecap="round" stroke-linejoin="round" stroke-width="2" d="M19.665 46.6c-3.7-5.9-.6-10.1 1.2-14.7.886-2.327.729-4.071.667-6.1"/><path d="M42 29.9c0 1.1-.9 2-2 2s-2-.9-2-2 .9-2 2-2 2 .9 2 2m-8 0c0 1.1-.9 2-2 2s-2-.9-2-2 .9-2 2-2 2 .9 2 2"/><path fill="none" stroke="#000" stroke-linecap="round" stroke-linejoin="round" stroke-width="2" d="M25.907 25.8c-.605 1.515-.907 3.156-.907 5.1 0 8 5 14 11 14s11-6 11-14c0-1.944-.302-3.585-.906-5.1"/><path fill="none" stroke="#000" stroke-linecap="round" stroke-linejoin="round" stroke-width="2" d="M33 38.1c1.9 1 4.1 1 6 0"/></svg>