<svg viewBox="0 0 72 72" xmlns="http://www.w3.org/2000/svg"><g fill="none" stroke="#000" stroke-linecap="round" stroke-linejoin="round" stroke-width="2"><path d="M21.315 46.327c1.233-3.416 2.414-6.607 3.035-8.058.943-1.924 2.432-1.781 3.676-1.929a2.682 2.682 0 0 1 1.715.383A11.903 11.903 0 0 0 36 38.5h.975a11.903 11.903 0 0 0 6.259-1.777 2.682 2.682 0 0 1 1.714-.383c1.245.148 2.733.004 3.677 1.928 1.65 3.86 6.47 17.689 6.47 17.689s1.965 4.68-2.62 6.533l-.025.01c-4.399 1.191-9.874-10.963-11.65-15.235m2.67-26.671a32.96 32.96 0 0 0-1.58-5.676h0c-11.672 7.853-15.406 2.947-15.406 2.947a11.81 11.81 0 0 0-.47 5.46c1.02 6.52 5.755 11.195 10.575 10.44s7.901-6.65 6.88-13.17"/><circle cx="25.332" cy="52.385" r="7.257"/><path d="M18.7 60.817a42.848 42.848 0 0 0 12.8 5.241m9.714-17.803-4.338 1.506a1.7 1.7 0 0 1-2.158-1.046l-.79-2.276a1.7 1.7 0 0 1 1.046-2.157l8.583-2.98a1.7 1.7 0 0 1 2.158 1.046l.79 2.276m-13.953 7.028a25.7 25.7 0 0 1 4.25.404 23.532 23.532 0 0 1 7.526 2.642m2.229-3.54a49.612 49.612 0 0 0 4.929 6.767"/><path d="M31.326 48.293a2.002 2.002 0 0 1 2.512-2.359m1.042 3.118a2 2 0 0 1-2.972.26m11.39-22.932c7.377-5.64 1.78-15.422 1.78-15.422a3.785 3.785 0 0 0-3.53-1.629 5.106 5.106 0 0 0-3.133 1.63s-8.429-7.842-14.77 1.959A6.342 6.342 0 0 1 18.328 16s1.078 2.964 2.986 2.964c0 0-2.503 2.918.613 5.253 0 0 3.957 6.24 7.16 6.19"/></g></svg>