<svg viewBox="0 0 72 72" xmlns="http://www.w3.org/2000/svg"><path fill="none" stroke="#000" stroke-linecap="round" stroke-linejoin="round" stroke-width="2" d="M40.014 63.766a23.967 23.967 0 0 0 14.937-4.112s2-13-10-13c-3.192 2.127-5.926 3.598-9 3.592h.125c-3.074.006-5.808-1.465-9-3.592-12 0-10 13-10 13 9.978 6.02 14.368 3.708 28.119-1.562l.617-3.521-24.068 1.35"/><path fill="none" stroke="#000" stroke-linecap="round" stroke-linejoin="round" stroke-width="2" d="m45.532 50.617.797 2.48-1.134 4.994M25.716 36.072a17.002 17.002 0 0 1-1.04-5.92 18.705 18.705 0 0 1 .11-2m22.46.051a17.918 17.918 0 0 1 .11 1.95 17.018 17.018 0 0 1-1.06 5.97"/><path d="M42.014 28.793a2 2 0 1 1-2-2 2 2 0 0 1 2 2m-8 0a2 2 0 1 1-2-2 2 2 0 0 1 2 2m1.999 10.002a7.653 7.653 0 0 1-3.447-.858 1 1 0 0 1 .895-1.789 5.377 5.377 0 0 0 5.105 0 1 1 0 0 1 .895 1.79 7.653 7.653 0 0 1-3.448.857z"/><path fill="none" stroke="#000" stroke-linecap="round" stroke-linejoin="round" stroke-width="2" d="M36.042 46.938c5.018-.125 9.507-6.046 10.3-10.896-3.247 5.68-8.615 4.61-8.615 4.61L36.02 38.02l-1.706 2.634s-5.368 1.07-8.616-4.61c.794 4.85 5.283 10.77 10.3 10.896m-1.982-25.167c-1.28.77-2.47 1.53-3.53 2.24-3.13 2.09-5.21 3.75-5.7 4.14-.07.06-.11.09-.11.09s-3.96-5.34-2.24-10.72c0 0 2.24-8.08 13.04-8.08 7.7 0 11.59 3.17 13.71 5.29 5.58 7.91-.72 12.65-1.94 13.47-.13.09-.2.13-.2.13s-4.41-3.38-9.03-7.75"/><path fill="none" stroke="#000" stroke-linecap="round" stroke-linejoin="round" stroke-width="2" d="M37.986 19.512a66.431 66.431 0 0 1 11.2-4.78"/><path fill="none" stroke="#000" stroke-linecap="round" stroke-linejoin="round" stroke-width="2" d="M36.014 25.82h0a2 2 0 0 1-2-2v-4a2 2 0 0 1 2-2h0a2 2 0 0 1 2 2v4a2 2 0 0 1-2 2zm4.769 29.151v4.748"/></svg>