<svg viewBox="0 0 72 72" xmlns="http://www.w3.org/2000/svg"><path fill="none" stroke="#000" stroke-linecap="round" stroke-linejoin="round" stroke-width="2" d="M26 38c-3 0-4-7-4-14 0-6 5-12 14-12s14 6 14 12c0 7-1 14-4 14"/><path fill="none" stroke="#000" stroke-linejoin="round" stroke-width="2" d="M24.9 31c-.1 8 4.9 14 11 14 6 0 11.1-6 11.1-14 0-5-3-11-3-11-8 0-10 3-16 1 0 0-3 5-3.1 10z"/><path fill="none" stroke="#000" stroke-linecap="round" stroke-linejoin="round" stroke-width="2" d="M37.793 51.449a24.542 24.542 0 0 1 4.25-6.833c1.982-2.23 2.903-2.25 16.866-10.248 2.225-1.275 4.066-2.321 5.309-3.026A175.422 175.422 0 0 0 63.26 36m-4.13 22.755c.096-.188.761-1.511.906-1.88.483-1.186.807-2.43.965-3.699m-47.986 5.579c-.097-.188-.761-1.511-.907-1.88-1.587-4.025-.647-6.937-3.015-19.76-.458-2.483-.886-4.5-1.166-5.773 1.243.705 3.084 1.751 5.308 3.025 13.964 7.999 14.884 8.02 16.867 10.249a24.447 24.447 0 0 1 4.15 6.598m25.182-3.472-8.429 14.141"/><path fill="none" stroke="#000" stroke-linecap="round" stroke-linejoin="round" stroke-width="2" d="m61.95 50.163-2.15-3.649-4.225-.296 2.805-3.173-1.024-4.11 3.885 1.687 3.592-2.244-.404 4.216 3.244 2.723-4.134.919zm-44.874 9.905v-3c0-4.994 5.008-9 10-9 6 5 12 5 18 0a10.65 10.65 0 0 1 8.105 3.915"/><path fill="none" stroke="#000" stroke-linecap="round" stroke-linejoin="round" stroke-width="2" d="M24.41 48.643s.736 1.17.687 5.667c-.015 1.353-.2 3.742-.397 5.69m22.89-11.595s-.741 1.408-.693 5.905c.015 1.353.2 3.742.397 5.69"/><path d="M42 29.942a2 2 0 1 1-4 0 2 2 0 0 1 4 0m-8 0a2 2 0 1 1-4 0 2 2 0 0 1 4 0"/><path fill="none" stroke="#000" stroke-linecap="round" stroke-linejoin="round" stroke-width="2" d="M33 38.192c1.875 1 4.125 1 6 0"/></svg>