<svg viewBox="0 0 72 72" xmlns="http://www.w3.org/2000/svg"><path fill="none" stroke="#000" stroke-linecap="round" stroke-linejoin="round" stroke-width="2" d="M39.993 63.82a23.967 23.967 0 0 0 14.937-4.113s2-13-10-13c-3.192 2.128-5.926 3.598-9 3.592h.125c-3.074.006-5.808-1.464-9-3.592-12 0-10 13-10 13 9.978 6.02 14.368 3.708 28.119-1.562l.617-3.52-24.068 1.35"/><path fill="none" stroke="#000" stroke-linecap="round" stroke-linejoin="round" stroke-width="2" d="m45.511 50.67.797 2.48-1.134 4.995"/><path d="M41.993 28.846a2 2 0 1 1-2-2 2 2 0 0 1 2 2m-8 0a2 2 0 1 1-2-2 2 2 0 0 1 2 2m2 10.003a7.653 7.653 0 0 1-3.448-.858 1 1 0 0 1 .895-1.79 5.377 5.377 0 0 0 5.105 0 1 1 0 0 1 .895 1.79 7.653 7.653 0 0 1-3.447.858z"/><path fill="none" stroke="#000" stroke-linecap="round" stroke-linejoin="round" stroke-width="2" d="M40.762 55.024v4.749M33.83 20.696c-2.969 3.918-8.29.2-9.098 7.693a17.83 17.83 0 0 0-.095 1.842c0 7.827 5.077 14.173 11.339 14.173s11.338-6.346 11.338-14.174a17.826 17.826 0 0 0-.1-1.9c-1.402-7.133-7.51-4.548-9.29-7.99m1.91-10.103s3.738-5.147-3.548-5.184l-.032.007c-7.286.038-3.548 5.184-3.548 5.184"/><path fill="none" stroke="#000" stroke-linecap="round" stroke-linejoin="round" stroke-width="2" d="M32.632 11.965c-1.145-3.766 8.418-4.172 7.2 0M24.71 31.742C18.538 19.706 27.072 12.86 36.02 12.86m11.455 18.843c2.365-1.42 5.775-18.526-11.25-18.843m-.32 11.86h0a2 2 0 0 1-2-2v-4a2 2 0 0 1 2-2h0a2 2 0 0 1 2 2v4a2 2 0 0 1-2 2z"/></svg>