<svg viewBox="0 0 72 72" xmlns="http://www.w3.org/2000/svg"><path fill="none" stroke="#000" stroke-linecap="round" stroke-linejoin="round" stroke-width="2" d="M35.177 17.157c-5.876.528-10.516 6.64-10.516 14.12 0 7.829 5.077 14.174 11.339 14.174s11.339-6.345 11.339-14.173a17.26 17.26 0 0 0-.768-5.094 9.918 9.918 0 0 1-11.394-9.027z"/><path fill="none" stroke="#000" stroke-linecap="round" stroke-linejoin="round" stroke-width="2" d="M45.384 25.264a2 2 0 0 0-1.329-2.18 1.975 1.975 0 0 0 .378-.891 1.993 1.993 0 0 0-2.79-2.114 1.992 1.992 0 0 0-3.391-1.306 1.992 1.992 0 0 0-2.772-.482"/><path fill="none" stroke="#000" stroke-linecap="round" stroke-linejoin="round" stroke-width="2" d="M35.177 17.157q.041.48.127.946a9.998 9.998 0 0 0 9.42 8.188q.205.008.41.008a10.016 10.016 0 0 0 1.437-.115M32 38.299s8-3.11 8 0c0 6.242-8 0-8 0zm7.433 1.716h-4.299"/><path fill="none" stroke="#000" stroke-linecap="round" stroke-linejoin="round" stroke-width="1.5" d="M36.944 40.015V37.09"/><path fill="none" stroke="#000" stroke-linecap="round" stroke-linejoin="round" stroke-width="2" d="M26.652 48.925c2.674 4.687 6.011 6.99 9.348 6.97l2 4.017 2.003-5.177a15.638 15.638 0 0 0 5.345-5.81M43.55 57.24l-.756 2.663m-22.578-.032 2.084-3.563 1.528 3.563"/><path d="M55 60.917a1 1 0 0 1-1-1v-3c0-4.452-4.496-7.81-8.652-7.992-6.205 5.012-12.491 5.012-18.696 0-4.156.182-8.652 3.54-8.652 7.992v3a1 1 0 1 1-2 0v-3c0-5.325 5.14-9.998 11-10a1 1 0 0 1 .64.232c5.625 4.688 11.095 4.688 16.72 0a1 1 0 0 1 .64-.232c5.86.003 11 4.675 11 10v3a1 1 0 0 1-1 1z"/><path fill="none" stroke="#000" stroke-miterlimit="10" stroke-width="1.5" d="M42 29.917a2 2 0 1 1-2-2 2 2 0 0 1 2 2m-8 0a2 2 0 1 1-2-2 2 2 0 0 1 2 2"/></svg>