<svg viewBox="0 0 72 72" xmlns="http://www.w3.org/2000/svg"><path fill="none" stroke="#000" stroke-linejoin="round" stroke-width="2" d="M25 30.934c0 8 5 14 11 14s11-6 11-14c0-5-2-8-6-12-4 4-16 9-16 11v1z"/><path fill="none" stroke="#000" stroke-linecap="round" stroke-linejoin="round" stroke-width="2" d="M17.248 39.138c.495-2.48 1.786-4.785 2.727-7.204 1.636-4.2-.209-6.451 1.291-12.034 1.48-5.5 7.277-8.966 13.71-8.966 5.4 0 8 3 8 3a8.132 8.132 0 0 1 7.404 8.037c.387 7.18 1.025 7.153 3.429 12.822a11.58 11.58 0 0 1 .943 4.14"/><path fill="none" stroke="#000" stroke-linejoin="round" stroke-width="2" d="M26.5 39.4H13.4a55.456 55.456 0 0 1 4.3 8.4c.507 1.24.941 2.509 1.3 3.8m34-.2c.4-1.2.8-2.4 1.3-3.6a51.128 51.128 0 0 1 4.3-8.4H44.7"/><path d="M42 30.1a2 2 0 1 1-4 0 2 2 0 0 1 4 0m-8 0a2 2 0 1 1-4 0 2 2 0 0 1 4 0"/><path fill="none" stroke="#000" stroke-linecap="round" stroke-linejoin="round" stroke-width="2" d="M33 39c1.875-1 4.125-1 6 0"/><path fill="none" stroke="#000" stroke-linecap="round" stroke-linejoin="round" d="M38 38.5c.24.082.475.182.7.3"/><path fill="none" stroke="#000" stroke-linecap="round" stroke-linejoin="round" stroke-width="2" d="M17 60v-3c0-5 5-9 10-9 6 5 12 5 18 0 5 0 10 4 10 9v3"/><path stroke="#000" stroke-linecap="round" stroke-linejoin="round" d="m34 38.7.3 2.4.8-2.3-.1-.1zm3.9 0-.2 2.4-.8-2.3-.1-.1z"/></svg>