<svg viewBox="0 0 72 72" xmlns="http://www.w3.org/2000/svg"><path fill="none" stroke="#000" stroke-linecap="round" stroke-linejoin="round" stroke-width="2" d="M25.52 24.348a27.753 27.753 0 0 0-.298 3.747c-.172 8.26 4.639 15.06 10.746 15.188s11.197-6.466 11.37-14.727m0 0a27.46 27.46 0 0 0-.235-4.208"/><path d="M42 29.773a2 2 0 1 1-2-2 2 2 0 0 1 2 2m-8 0a2 2 0 1 1-2-2 2 2 0 0 1 2 2m2 10.002a7.652 7.652 0 0 1-3.447-.858 1 1 0 0 1 .894-1.789 5.377 5.377 0 0 0 5.106 0 1 1 0 1 1 .894 1.79 7.653 7.653 0 0 1-3.447.857z"/><path fill="none" stroke="#000" stroke-linecap="round" stroke-linejoin="round" stroke-width="2" d="M47.27 19.372a23.783 23.783 0 0 0-.36-2.75"/><path fill="none" stroke="#000" stroke-linecap="round" stroke-linejoin="round" stroke-width="2" d="M47.195 19.352H25.55a1.077 1.077 0 0 0-1.178.933v3.135a1.077 1.077 0 0 0 1.178.932h21.644a1.077 1.077 0 0 0 1.178-.932v-3.135a1.077 1.077 0 0 0-1.178-.933z"/><path fill="none" stroke="#000" stroke-linecap="round" stroke-linejoin="round" stroke-width="2" d="M25.476 19.372c.506-6.644 5.897-11.02 10.897-11.02 6 0 9.002 1.39 10.881 2.38 10.493 5.524 8.78 17.345 7.973 22.64.05-.004.095-.02.146-.02a1.992 1.992 0 0 1 1.727 1.009 1.983 1.983 0 0 1 1.727 2.991 1.983 1.983 0 0 1-1.727 2.992 1.984 1.984 0 0 1-3.455 0 1.983 1.983 0 0 1-1.727-2.992 1.991 1.991 0 0 1-.01-2 1.917 1.917 0 0 1 .194-.25l-1.031-.482"/><path fill="none" stroke="#000" stroke-linecap="round" stroke-linejoin="round" stroke-width="2" d="M25.476 19.372c.506-6.644 5.897-11.02 10.897-11.02 6 0 9.002 1.39 10.881 2.38 10.493 5.524 8.78 17.345 7.973 22.64.05-.004.095-.02.146-.02a1.992 1.992 0 0 1 1.727 1.009 1.983 1.983 0 0 1 1.727 2.991 1.983 1.983 0 0 1-1.727 2.992 1.984 1.984 0 0 1-3.455 0 1.983 1.983 0 0 1-1.727-2.992 1.991 1.991 0 0 1-.01-2 1.917 1.917 0 0 1 .194-.25l-1.031-.482M38.582 59.958v-5.225c5.863-.362 10.13-2.969 11.684-7.47"/><path fill="none" stroke="#000" stroke-linecap="round" stroke-linejoin="round" stroke-width="2" d="M55.48 59.958c.993-2.674-.775-14.758-10.64-13.834a15.132 15.132 0 0 1-8.565 3.591l-1.004.006a15.112 15.112 0 0 1-8.65-3.597c-9.866-.924-11.633 11.16-10.641 13.834"/><path fill="none" stroke="#000" stroke-linecap="round" stroke-linejoin="round" stroke-width="2" d="M21.194 47.263c1.554 4.501 5.82 7.108 11.684 7.47v5.225M24.373 23.42a14.258 14.258 0 0 1-5.298 1.433s.818 3.288 2.649 4.236c0 0 .386 10.687 7.33 10.687M48.381 23.42a14.258 14.258 0 0 0 5.298 1.433s-.818 3.288-2.65 4.236c0 0-.385 10.687-7.33 10.687"/></svg>