<svg viewBox="0 0 72 72" xmlns="http://www.w3.org/2000/svg"><path fill="none" stroke="#000" stroke-linecap="round" stroke-linejoin="round" stroke-width="2" d="M40.004 63.711A23.967 23.967 0 0 0 54.94 59.6s2-13-10-13c-3.192 2.128-5.926 3.598-9 3.592h.125c-3.074.006-5.808-1.464-9-3.592-12 0-10 13-10 13 9.978 6.02 14.368 3.708 28.119-1.562l.617-3.52-24.068 1.35"/><path fill="none" stroke="#000" stroke-linecap="round" stroke-linejoin="round" stroke-width="2" d="m45.522 50.562.797 2.48-1.134 4.995"/><path d="M42.004 28.738a2 2 0 1 1-2-2 2 2 0 0 1 2 2m-8 0a2 2 0 1 1-2-2 2 2 0 0 1 2 2m2 10.002a7.653 7.653 0 0 1-3.448-.858 1 1 0 0 1 .895-1.789 5.377 5.377 0 0 0 5.105 0 1 1 0 0 1 .895 1.79 7.653 7.653 0 0 1-3.447.857z"/><path fill="none" stroke="#000" stroke-linecap="round" stroke-linejoin="round" stroke-width="2" d="M34.006 21.718c-1.28.77-2.47 1.53-3.53 2.24-3.13 2.09-5.21 3.75-5.7 4.14-.07.06-.11.09-.11.09s-3.96-5.34-2.24-10.72c0 0 2.24-8.08 13.04-8.08 7.7 0 11.59 3.17 13.71 5.29 5.58 7.91-.72 12.65-1.94 13.47-.13.09-.2.13-.2.13s-4.41-3.38-9.03-7.75"/><path fill="none" stroke="#000" stroke-linecap="round" stroke-linejoin="round" stroke-width="2" d="M37.976 19.458a66.431 66.431 0 0 1 11.2-4.78"/><path fill="none" stroke="#000" stroke-linecap="round" stroke-linejoin="round" stroke-width="2" d="M36.004 25.765h0a2 2 0 0 1-2-2v-4a2 2 0 0 1 2-2h0a2 2 0 0 1 2 2v4a2 2 0 0 1-2 2zm4.769 29.151v4.748M24.743 28.28a17.861 17.861 0 0 0-.095 1.842c0 7.828 5.077 14.173 11.339 14.173s11.338-6.345 11.338-14.173a17.826 17.826 0 0 0-.1-1.9"/></svg>