<svg viewBox="0 0 72 72" xmlns="http://www.w3.org/2000/svg"><g fill="none" stroke="#000" stroke-width="2"><path stroke-miterlimit="10" d="M58.532 26.287c-.553-3.29-3.206-3.565-5.06-4.053a1.65 1.65 0 0 1-1.164-2.075 9.307 9.307 0 0 0 .349-4.987c-.84-2.723-4.504-4.472-5.076-4.017a20.754 20.754 0 0 1-11.608 4.017 20.754 20.754 0 0 1-11.608-4.017c-.572-.455-4.236 1.294-5.075 4.017a9.497 9.497 0 0 0 .394 5.134 1.472 1.472 0 0 1-.978 1.865c-1.856.533-4.715.686-5.292 4.116-1.198 7.114 3.925 8.466 6.665 8.807 7.886.98 23.886.84 31.788 0 2.746-.292 7.863-1.693 6.666-8.807z"/><path stroke-linecap="round" stroke-linejoin="round" d="M56.056 54.711V37.337M42.8 56.118V38.743m9.419 21.236v-6.014m-2.666 6.342v-6.014m-2.666 6.343v-6.015"/><path stroke-linecap="round" stroke-miterlimit="10" d="M22.98 23.431c3.707 1.675 7.57 2.176 12.993 2.176a25.135 25.135 0 0 0 7.165-1.088"/></g></svg>