<svg viewBox="0 0 72 72" xmlns="http://www.w3.org/2000/svg"><g fill="none" stroke="#000" stroke-width="2"><path stroke-linecap="round" stroke-linejoin="round" d="M43.939 13.218c.984 3.914 2.502 19.078 3.438 22.707.779 3.017 5.008 9.68.827 12.977-1.743 1.374-7.106-1.257-18.01 3.89-2.05.967-7.753 3.692-11.877 3-2.174-.366-2.694-3.919-1.047-5.677 2.55-2.721 7.802-4.449 10.457-6.484 3.656-2.804 5.113-4.407 6.407-7.211.727-1.576.016-13.862-3.31-19.765a1.013 1.013 0 0 1 .724-1.355 54.774 54.774 0 0 1 9.274-1.74"/><path stroke-linecap="round" stroke-linejoin="round" d="M47.288 14.468c1.246 3.838 3.785 18.865 4.964 22.422.98 2.958 5.65 9.321 1.7 12.892-1.646 1.489-7.174-.774-17.704 5.097-1.982 1.104-7.487 4.208-11.648 3.795-1.46-.145-2.156-1.475-2.095-3.08"/><path stroke-linecap="round" stroke-linejoin="round" d="M32.645 51.859a11.494 11.494 0 0 1 1.974 3.907M36.63 23.39a48.123 48.123 0 0 1 6.161-1.788"/><path stroke-miterlimit="10" d="M52.703 39.789a18.116 18.116 0 0 0-2.681 2.368"/><path stroke-linecap="round" stroke-linejoin="round" d="M22.818 46.922a6.604 6.604 0 0 1 3.875 2.441 13.333 13.333 0 0 1 1.817 4.204"/><path stroke-miterlimit="10" d="M47.631 38.847a14.598 14.598 0 0 0-4.28 3.933c-1.632 2.754-.93 6.528-.93 6.528"/><path stroke-linecap="round" stroke-linejoin="round" d="M45.37 21.793c.334-.08.647-.145.927-.191"/></g></svg>