<svg viewBox="0 0 72 72" xmlns="http://www.w3.org/2000/svg"><circle cx="35.9" cy="39.9" r=".9"/><circle cx="35.9" cy="43.9" r=".9"/><circle cx="35.9" cy="47.9" r=".9"/><path d="M26.944 35 24 60h24.158l-2.944-25m-22.768-8.628v10.57h-5.279v-18.95a1.452 1.452 0 0 1 .843-1.28L27 11m3 24h12m3.167-24 8.99 5.713A1.452 1.452 0 0 1 55 17.991v18.95h-5.279V26.372" fill="none" stroke="#000" stroke-linecap="round" stroke-linejoin="round" stroke-width="2"/><path fill="none" stroke="#000" stroke-linecap="round" stroke-linejoin="round" stroke-width="2" d="m29 10.539 5.376 4.681L31.627 17c-6.099-6.47-4.037-6.286-4.037-6.286a14.676 14.676 0 0 1 16.923 0s2.147-.256-4.037 6.213l-2.75-1.78L43 10.54"/><circle cx="35.9" cy="21.9" r=".9"/><circle cx="35.9" cy="25.9" r=".9"/><circle cx="35.9" cy="29.9" r=".9"/></svg>