<svg viewBox="0 0 72 72" xmlns="http://www.w3.org/2000/svg"><path d="M12.983 55.15h15.533c4.647-3.796 6.78-10.24 5.556-21.582a1.653 1.653 0 0 0-2.157-1.444 5.79 5.79 0 0 0-2.94 3.053l.001-10.437a7.355 7.355 0 0 0-2.8-5.83c-6.598-5.1-15.039.614-15.564 7.15-.836 10.387-2.482 23.688 2.371 29.09zm46.034 0H43.484c-4.647-3.796-6.78-10.24-5.556-21.582a1.653 1.653 0 0 1 2.157-1.444 5.79 5.79 0 0 1 2.94 3.053l-.001-10.437a7.355 7.355 0 0 1 2.8-5.83c6.598-5.1 15.039.614 15.564 7.15.836 10.387 2.482 23.688-2.371 29.09zM43.484 41.882l-.458-6.705m-14.51 6.705.458-6.705" fill="none" stroke="#000" stroke-linecap="round" stroke-linejoin="round" stroke-width="2"/></svg>