<svg viewBox="0 0 72 72" xmlns="http://www.w3.org/2000/svg"><g fill="none" stroke="#000" stroke-width="2"><path stroke-linecap="round" stroke-linejoin="round" d="M42.06 16.937v35.43a6.8 6.8 0 0 1-6.51 7.063 6.8 6.8 0 0 1-6.51-7.063V17.286"/><ellipse cx="35.543" cy="15.224" rx="7.393" ry="3.137" stroke-miterlimit="10"/><path stroke-linecap="round" stroke-linejoin="round" d="M42.06 29.84v23.08a6.506 6.506 0 0 1-6.51 6.51 6.308 6.308 0 0 1-1.775-.249 6.5 6.5 0 0 1-4.735-6.261V29.84"/><path stroke-linecap="round" stroke-linejoin="round" d="M29.277 30.894a14.053 14.053 0 0 0 6.273 1.314 15.907 15.907 0 0 0 2.959-.26l.225-.036a11.551 11.551 0 0 0 3.089-1.018"/></g></svg>