<svg viewBox="0 0 72 72" xmlns="http://www.w3.org/2000/svg"><g fill="none" stroke="#000" stroke-linecap="round" stroke-linejoin="round" stroke-width="2"><path d="M14.402 33.524V19.513h15.226M28 57.882H14.402V43.871m38.368 0v14.011H38.348m1.628-38.369H52.77v14.011m-38.368 0c2.68-2.341 11.631-3.287 11.631 5.174m-11.631 5.173c2.68 2.342 11.631 3.288 11.631-5.173M28 57.882C25.66 55.2 24.713 46.25 33.175 46.25"/><path d="M38.348 57.882c2.341-2.681 3.287-11.631-5.174-11.631m-3.546-26.738c-2.341-2.681-3.287-11.631 5.174-11.631m5.173 11.631c2.342-2.681 3.288-11.631-5.173-11.631M52.77 43.871c2.681 2.342 11.631 3.288 11.631-5.173M52.77 33.524c2.681-2.341 11.631-3.287 11.631 5.174"/></g></svg>