<svg viewBox="0 0 72 72" xmlns="http://www.w3.org/2000/svg"><g fill="none" stroke="#000"><path stroke-linecap="round" stroke-linejoin="round" stroke-width="2" d="M12.092 58.874v-46m36.559 6.863 10.895-.001m-18.523.001h.869m-7.748 0h.263m-10.821 0h3.887m-14.614 0h4.032m43.017 39.137v-46"/><circle cx="20.197" cy="19.736" r="2.724" stroke-miterlimit="10" stroke-width="1.362"/><circle cx="30.834" cy="19.736" r="2.724" stroke-miterlimit="10" stroke-width="1.362"/><circle cx="37.697" cy="19.736" r="2.724" stroke-miterlimit="10" stroke-width="1.362"/><circle cx="45.246" cy="19.736" r="2.724" stroke-miterlimit="10" stroke-width="1.362"/><path stroke-linecap="round" stroke-linejoin="round" stroke-width="2" d="M58.075 30.374h.784m-8.302 0h.985m-17.062 0h9.442m-16.739 0h.702m-15.026 0h7.775"/><circle cx="23.931" cy="30.374" r="2.724" stroke-miterlimit="10" stroke-width="1.362"/><circle cx="31.137" cy="30.374" r="2.724" stroke-miterlimit="10" stroke-width="1.362"/><circle cx="47.264" cy="30.374" r="2.724" stroke-miterlimit="10" stroke-width="1.362"/><circle cx="54.814" cy="30.374" r="2.724" stroke-miterlimit="10" stroke-width="1.362"/><path stroke-linecap="round" stroke-linejoin="round" stroke-width="2" d="M54.76 41.011h4.099m-14.419 0h3.631m-13.613 0h3.333m-10.539 0h.56m-14.953 0h7.747"/><circle cx="23.931" cy="41.011" r="2.724" stroke-miterlimit="10" stroke-width="1.362"/><circle cx="31.137" cy="41.011" r="2.724" stroke-miterlimit="10" stroke-width="1.362"/><circle cx="41.088" cy="41.011" r="2.724" stroke-miterlimit="10" stroke-width="1.362"/><circle cx="51.423" cy="41.011" r="2.724" stroke-miterlimit="10" stroke-width="1.362"/></g></svg>