<svg viewBox="0 0 72 72" xmlns="http://www.w3.org/2000/svg"><path d="M30 22.034a2 2 0 1 0 2-2 2 2 0 0 0-2 2m8 0a2 2 0 1 0 2-2 2 2 0 0 0-2 2"/><path fill="none" stroke="#000" stroke-linecap="round" stroke-linejoin="round" stroke-width="2" d="M32.762 34.142a4.997 4.997 0 0 0 6.475 0"/><path fill="none" stroke="#000" stroke-miterlimit="10" stroke-width="2" d="M21 24.045a15 15 0 1 0 15-15 15.005 15.005 0 0 0-15 15"/><path fill="none" stroke="#000" stroke-miterlimit="10" stroke-width="2" d="M30.561 10.066a7.5 7.5 0 1 0-8.965 9.788M11 52.142c0 4.786 3.362 8.666 7.5 8.666s7.5-3.88 7.5-8.666c0-4.781-3.362-8.666-7.5-8.666S11 47.361 11 52.142m35 0c0 4.786 3.362 8.666 7.5 8.666s7.5-3.88 7.5-8.666c0-4.781-3.362-8.666-7.5-8.666S46 47.361 46 52.142"/><path fill="none" stroke="#000" stroke-linecap="round" stroke-miterlimit="10" stroke-width="2" d="M14.414 53.425a4.002 4.002 0 0 0 4 4m35.586 0a4.002 4.002 0 0 0 4-4"/><path fill="none" stroke="#000" stroke-miterlimit="10" stroke-width="2" d="M28.5 32.931c0 3.376 3.362 6.114 7.5 6.114s7.5-2.738 7.5-6.114c0-3.373-3.362-6.114-7.5-6.114s-7.5 2.74-7.5 6.114m21.904-13.077a7.5 7.5 0 1 0-8.964-9.79"/><path fill="none" stroke="#000" stroke-linecap="round" stroke-linejoin="round" stroke-width="2" d="M36 32.333v3m0-3.42s-3.237-.88-3.237-3.128c0-1.544 1.53-1.86 2.486-1.907l1.264-.007c.913.007 2.725.233 2.725 1.914 0 2.247-3.237 3.128-3.237 3.128M20.282 43.725c1.128-5.233 5.848-8.393 5.848-8.393m19.87.001s4.661 3.12 5.826 8.295M24.952 41.95l3.548 6.06a3.22 3.22 0 0 0 4.258 1.323h0a3.22 3.22 0 0 0 1.426-4.347l-1.016-1.984m14.267-1.052-3.791 6.06a3.22 3.22 0 0 1-4.258 1.323h0a3.22 3.22 0 0 1-1.426-4.346l1.016-1.985m-14.69 15.076s9.454 6.581 23.428 0"/></svg>