<svg viewBox="0 0 72 72" xmlns="http://www.w3.org/2000/svg"><path fill="none" stroke="#000" stroke-linecap="round" stroke-linejoin="round" stroke-width="2" d="M11.674 11.633h48.652v24.366H11.674z"/><path fill="none" stroke="#000" stroke-linecap="round" stroke-linejoin="round" stroke-width="2.001" d="M20.334 35.999V28.74l-.496-.165a5.04 5.04 0 0 1-3.23-3.932v-.048a4.574 4.574 0 0 1 1.245-4.135 5.474 5.474 0 0 1 1.489-1.002.429.429 0 0 1 .584.38v3.103l.827 1.246h2.9l.827-1.246v-3.104a.416.416 0 0 1 .584-.38 5.679 5.679 0 0 1 1.488 1.003 4.429 4.429 0 0 1 1.314 3.25 7.037 7.037 0 0 1-.069.885 4.91 4.91 0 0 1-3.152 3.941l-.584.205v7.258"/><path fill="none" stroke="#000" stroke-linecap="round" stroke-linejoin="round" stroke-width="2" d="M44.368 35.999h15.958v24.287H11.674V35.999h8.66"/><path fill="none" stroke="#000" stroke-miterlimit="10" stroke-width="2" d="M41.809 35.999H24.061m8.362 4.424h7.154v3.613h-7.154z"/><path d="m44.368 35.999.039-6.938h-2.559l-.039 6.938m-3.22-13.959v7.021h9.007V25.02s6.028 0 8.014 1.986a10.653 10.653 0 0 0-8.014-5.036 39.628 39.628 0 0 0-9.007.071zm-2.306.638v5.674h0a2.236 2.236 0 0 1-2.624 0h0v-5.674h0a1.884 1.884 0 0 1 2.624 0z" fill="none" stroke="#000" stroke-linecap="round" stroke-linejoin="round" stroke-width="2.001"/></svg>