<svg viewBox="0 0 72 72" xmlns="http://www.w3.org/2000/svg"><path d="m40.701 37.652 2.598 1.5-1 1.732-2.598-1.5 1-1.732m-.365-2.366a1 1 0 0 0-.867.5l-2 3.464a1 1 0 0 0 .366 1.366l4.33 2.5a1 1 0 0 0 1.366-.366l2-3.464a1 1 0 0 0-.366-1.366l-4.33-2.5a.994.994 0 0 0-.5-.135zm-9.839-6.019a1.002 1.002 0 1 1-.497.135.993.993 0 0 1 .497-.135m0-2a3 3 0 1 0 2.601 1.5 2.987 2.987 0 0 0-2.6-1.5zm28 15.001a1 1 0 1 1-.497.135.992.992 0 0 1 .497-.135m0-2a3 3 0 1 0 2.601 1.5 2.987 2.987 0 0 0-2.6-1.5zm-25.198 7.384 1 1.732-2.598 1.5-1-1.732 2.598-1.5m.365-2.366a.995.995 0 0 0-.499.134l-4.33 2.5a1 1 0 0 0-.366 1.366l2 3.464a1 1 0 0 0 1.366.366l4.33-2.5a1 1 0 0 0 .366-1.366l-2-3.464a1 1 0 0 0-.867-.5zM15 38.5v3h-2v-3h2m1-2h-4a1 1 0 0 0-1 1v5a1 1 0 0 0 1 1h4a1 1 0 0 0 1-1v-5a1 1 0 0 0-1-1z"/><g fill="none" stroke="#000" stroke-width="2"><path stroke-linejoin="round" d="M33.5 22v-2a1 1 0 0 1 1-1h3a1 1 0 0 1 1 1v2h3v-3.8a2.2 2.2 0 0 0-2.2-2.2h-6.6a2.2 2.2 0 0 0-2.2 2.2V22z"/><path stroke-miterlimit="10" d="M53 56h7a3 3 0 0 0 3-3V25a3 3 0 0 0-3-3h-7m-34 0h-7a3 3 0 0 0-3 3v28a3 3 0 0 0 3 3h7"/><path stroke-linecap="round" stroke-linejoin="round" d="m40.067 40.75-1.732-1 2-3.464 3.031 1.75"/><path stroke-linecap="round" stroke-miterlimit="10" d="M31.5 32a2 2 0 1 1-2-3.463m28 12.999a2 2 0 1 1 2 3.465"/><path stroke-linecap="round" stroke-linejoin="round" d="m31.067 47.786-1.732 1 2 3.464 3.031-1.75M12 39.5v-2h4V41"/><rect x="19" y="20" rx="1" width="4" height="38" stroke-miterlimit="10"/><rect x="49" y="20" rx="1" width="4" height="38" stroke-miterlimit="10"/><path stroke-miterlimit="10" d="M23 22h26m0 34H23"/></g></svg>