<svg viewBox="0 0 72 72" xmlns="http://www.w3.org/2000/svg"><g fill="none" stroke="#000" stroke-linecap="round" stroke-linejoin="round"><path stroke-width="2" d="m49.224 17.187 4.667-4.827H17.207l4.668 4.827"/><path stroke-width="2.158" d="M21.875 17.187h27.349m-27.022 37.52h27.03"/><path stroke-width="2" d="m49.224 54.707 4.667 4.827H17.207l4.668-4.827m.159-37.52h27.031m-27.053 5.36h27.075m-27.098 5.36H49.11m-27.144 5.36h27.167m-27.19 5.36h27.213m-27.236 5.36h27.259m-27.282 5.36h27.304m-27.326 5.36h27.349M22.202 43.983h27.03a9.528 9.528 0 0 1 5.646 2.592c3.237 3.236 5.935 5.934 11.33 5.394"/></g></svg>