<svg viewBox="0 0 72 72" xmlns="http://www.w3.org/2000/svg"><g fill="none" stroke="#000" stroke-width="2"><path stroke-miterlimit="10" d="M21.236 27.257a11.392 11.392 0 0 0-3.903 3.81m14.166-5.392h14.322a11.44 11.44 0 0 1 11.418 11.408v3.664A11.44 11.44 0 0 1 45.82 52.154H27.023a11.44 11.44 0 0 1-11.418-11.408v-2.31"/><path stroke-linecap="round" stroke-linejoin="round" d="M24.948 35.896h22.948m-22.948 6.039h22.948"/><circle cx="14.779" cy="34.353" r="4.163" stroke-miterlimit="10"/><path stroke-linecap="round" stroke-linejoin="round" d="M23.675 21.87a5.135 5.135 0 0 0-.49.364 4.108 4.108 0 0 0-.178-.498 4.163 4.163 0 1 0-1.98 5.545c.067-.031.122-.077.186-.111a5.199 5.199 0 1 0 2.462-5.3z"/></g></svg>