<svg viewBox="0 0 72 72" xmlns="http://www.w3.org/2000/svg"><circle cx="34.003" cy="46.754" r="4.56" fill="none" stroke="#000" stroke-miterlimit="10" stroke-width="2"/><path fill="none" stroke="#000" stroke-miterlimit="10" stroke-width="2" d="m26.472 44.915 1.664-.171a48.879 48.879 0 0 1 1.859-.171m-16.872-9.93c-.023-1.8 0-3.602.046-5.414a8.994 8.994 0 0 1 9.86-8.562 112.12 112.12 0 0 0 16.93.798c2.644-.114 5.277-.399 7.9-.695a9.973 9.973 0 0 1 7.135 1.357 8.79 8.79 0 0 1 4.013 7.295c.034 1.186.057 6.783-.148 8.345a8.878 8.878 0 0 1-9.439 7.455c-2.713-.216-5.426-.57-8.15-.706a109.686 109.686 0 0 0-3.352-.114"/><circle cx="53.124" cy="33.26" r="1.432"/><circle cx="26.606" cy="34.37" r="1.432"/><circle cx="33.48" cy="27.692" r="1.432"/><circle cx="46.523" cy="39.304" r="1.432"/><circle cx="44.387" cy="28.94" r="1.946" fill="none" stroke="#000" stroke-miterlimit="10" stroke-width="2"/><circle cx="21.587" cy="27.692" r="1.946" fill="none" stroke="#000" stroke-miterlimit="10" stroke-width="2"/><circle cx="35.425" cy="37.452" r="1.946" fill="none" stroke="#000" stroke-miterlimit="10" stroke-width="2"/><path fill="none" stroke="#000" stroke-linecap="round" stroke-linejoin="round" stroke-width="2" d="M19.403 38.678a5.622 5.622 0 0 0-.628.232 4.504 4.504 0 0 0-.033-.579 4.56 4.56 0 1 0-3.783 5.223c.08-.013.15-.044.228-.06a5.694 5.694 0 1 0 4.216-4.816z"/></svg>