<svg viewBox="0 0 72 72" xmlns="http://www.w3.org/2000/svg"><g stroke="#000" stroke-miterlimit="10"><path stroke-linecap="round" d="M41.203 9.905c1.155.667 1.883 1.087 1.279 2.133s-1.332.626-2.487-.041-2.092-1.208-1.488-2.254 1.54-.505 2.696.162z"/><path fill="none" stroke-linecap="round" stroke-width="2" d="M31.5 11.5c-2 1-5 2-3.861 6.957.958 4.17 3.543 21.043 8.861 21.043 5.251 0 8-18 8.86-21.057.854-3.038-1.86-5.943-3.86-6.943"/><path fill="none" stroke-width="2" d="M47.5 49.5c-5-6-5 8-10 12-11.713 9.37-21-9-7-11 5.94-.849 6-11 6-11"/><circle cx="49.5" cy="51.5" r="3" fill="none"/><path stroke-linecap="round" d="M32.331 9.967c1.11-.404 1.81-.658 2.175.347s-.333 1.26-1.443 1.663-2.01.732-2.376-.273.534-1.333 1.644-1.737z"/></g></svg>