<svg viewBox="0 0 72 72" xmlns="http://www.w3.org/2000/svg"><g fill="none" stroke="#000" stroke-linecap="round" stroke-linejoin="round" stroke-width="2"><path d="M33.045 28.718a50.949 50.949 0 0 0-2.657-7.783.761.761 0 0 1-.065-.276c-.058-1.376-.626-12.282-4.044-12.122-3.23.15-2.812 9.65-2.674 11.824a.758.758 0 0 1-.348.686l-9.345 6.078a2.958 2.958 0 0 0-1.432 2.533v2.994a3.725 3.725 0 0 0 3.217 3.69l5.726.788c2.171.21 2.366 3.531 2.367 6.141 0 .019.001.036.003.055l1.255 15.78a1.853 1.853 0 0 0 1.852 1.852h4.004a1.852 1.852 0 0 0 1.853-1.852l.435-8.338a.767.767 0 0 1 .76-.664h5.686a.767.767 0 0 1 .758.651l.607 8.35a1.853 1.853 0 0 0 1.852 1.853h3.233a1.853 1.853 0 0 0 1.852-1.852l2.184-19.922a4.97 4.97 0 0 0-4.912-5.169l-9.63-.106a1.956 1.956 0 0 1-1.902-1.757 28.405 28.405 0 0 0-.635-3.434"/><path d="M30.469 21.121h-1.134l-1.508-2.031-1.781 2.031m1.754 6.148h-2.418l-1.507-2.032-1.781 2.032h-1.915M15.7 33.416l1.563-2.031 1.745 2.031h1.915l1.781-2.031 1.507 2.031h2.419l1.563-2.031 1.745 2.031m1.393 6.42 1.781-2.031 1.508 2.031h2.418l1.563-2.031 1.745 2.031h2.362l1.564-2.031 1.745 2.031m-19.131 5.852 1.564-2.032 1.745 2.032h1.915l1.781-2.032 1.507 2.032h2.419l1.563-2.032 1.745 2.032m18.399-1.122a10.004 10.004 0 0 1-6.75-9.46m6.751 15.312a10.017 10.017 0 0 1-6.547-7.445"/></g></svg>