<svg viewBox="0 0 72 72" xmlns="http://www.w3.org/2000/svg"><path fill="none" stroke="#000" stroke-linecap="round" stroke-linejoin="round" stroke-width="2" d="M48.7 39.87C36 39.56 36 35.053 36 35.053c0 3.742-8.025 4.595-12.87 4.769m-3.59.024a20.18 20.18 0 0 1 1.484-3.682 82.679 82.679 0 0 0 1.907-3.924 8.948 8.948 0 0 0 .302-4.814c-.236-2.07-.65-4.128-.757-6.203a12.46 12.46 0 0 1 11.73-13.29 16.13 16.13 0 0 1 8.45 1.28 12.94 12.94 0 0 1 6.79 13.21c-.282 2.007-.526 4.02-.793 6.029a8.69 8.69 0 0 0 1.112 5.352 56.49 56.49 0 0 1 2.124 4.476 14.78 14.78 0 0 1 .564 1.56m3.497 3.55a14.31 14.31 0 0 1-.583 5.404c-1.545 5.068-3.266 10.08-4.962 15.11l-28.83.101c-1.638-5.112-3.436-10.17-4.979-15.31a14.04 14.04 0 0 1-.543-5.29z"/><circle cx="36" cy="21.75" r="10" fill="none" stroke="#000" stroke-linecap="round" stroke-linejoin="round" stroke-width="2"/><path fill="none" stroke="#000" stroke-linecap="round" stroke-linejoin="round" stroke-width="2" d="M23.76 60.11h24.48m-3.13-12.96a10 10 0 0 1-19.91.1M46 21.75a10.11 10.11 0 0 1-10.07-9.999h0a10.17 10.17 0 0 1-9.934 9.997"/><circle cx="32.83" cy="23.61" r="2"/><circle cx="38.98" cy="23.61" r="2"/></svg>