<svg viewBox="0 0 72 72" xmlns="http://www.w3.org/2000/svg"><g fill="none" stroke="#000" stroke-linecap="round" stroke-linejoin="round" stroke-width="2"><path d="M60.982 32.606 38.666 59.773m22.043-30.782A24.603 24.603 0 0 0 36.142 8.417c-13.72 0-24.841 10.88-24.841 24.3 0 0 3.057-1.882 5.11-.289a.715.715 0 0 0 .745.078 11.63 11.63 0 0 1 10.176.063.713.713 0 0 0 .547.06c1.578-.486 9.606-2.708 16.68-.035a.75.75 0 0 0 .616-.04 11.642 11.642 0 0 1 10.144-.05.725.725 0 0 0 .757-.084c2.035-1.592 4.906.186 4.906.186"/><path d="M16.76 32.57C21.225 7.075 36.143 8.417 36.143 8.417s-7.565.734-8.535 24.238l6.78 25.04M44.872 32.64l-7.626 25.713"/><path d="M55.72 32.568C51.256 7.073 36.142 8.417 36.142 8.417s7.76.72 8.73 24.223m-28.111.02L33.5 58.353M55.72 32.69 37.246 58.353M11.301 32.718l20.78 27.055"/><rect x="32.081" y="58.353" rx="1.42" width="6.586" height="6.586"/></g></svg>