<svg viewBox="0 0 72 72" xmlns="http://www.w3.org/2000/svg"><circle cx="56.882" cy="44.306" r="1"/><circle cx="60.702" cy="38.72" r="1"/><circle cx="59.772" cy="42.927" r="1"/><circle cx="57.873" cy="40.056" r="1"/><circle cx="61.661" cy="34.395" r="1"/><circle cx="58.855" cy="35.607" r="1"/><circle cx="59.827" cy="31.322" r="1"/><circle cx="19.912" cy="45.562" r="1"/><circle cx="18.062" cy="41.609" r="1"/><circle cx="16.082" cy="37.506" r="1"/><circle cx="14.194" cy="33.538" r="1"/><g fill="none" stroke="#000" stroke-linecap="round" stroke-linejoin="round" stroke-width="2"><path d="m43.915 21.386 4.503-1.213-1.421 26.61-3.882-2.412m10.549-19.197 4.889-.469-5.494 24.762-2.882-3.244M33.866 19.708l4.246-1.784 2.213 27.459-3.952-1.687M23.952 21.272l3.882-2.337 6.146 26.987-4.007-1.033M14.73 27.043l3.734-3.204L28.35 47.44h-4.513M9.331 31.789 7.727 28.39l5.773-2.725 12.072 25.581-5.774 2.724-1.349-2.858"/><path d="m19.147 50.783-3.678 1.735a.89.89 0 0 1-1.184-.425L5.926 34.38a.89.89 0 0 1 .425-1.184l3.678-1.736m48.903-8.337 7.411 1.628-6.069 27.628-7.411-1.629zM9.886 35.642l-2.774 1.294m4.349 1.798-2.774 1.294m4.367 1.833-2.774 1.293m4.277 1.878-2.773 1.293m4.333 1.872-2.774 1.294"/></g></svg>