<svg viewBox="0 0 72 72" xmlns="http://www.w3.org/2000/svg"><g fill="none" stroke="#000" stroke-linecap="round" stroke-linejoin="round" stroke-width="2"><path d="M17.156 46.594a21.539 21.539 0 1 1 38.77-18.688m1.751 9.258a21.555 21.555 0 0 1-34.892 16.164"/><path d="M52.794 22.755c7.674-.926 13.138-.024 14.191 2.849C68.825 30.622 56.51 39.754 39.478 46S7.146 53.242 5.306 48.224c-1.07-2.919 2.647-7.228 9.296-11.552"/><path d="M53.776 24.05c3.147.15 5.259.96 5.811 2.467 1.434 3.91-8.16 11.023-21.428 15.888s-25.185 5.642-26.619 1.733c-.576-1.572.63-3.66 3.138-5.913"/></g></svg>