<svg viewBox="0 0 72 72" xmlns="http://www.w3.org/2000/svg"><g fill="none" stroke="#000" stroke-width="2"><path stroke-linecap="round" stroke-linejoin="round" d="M17.76 8.273a.464.464 0 0 0-.153.524c4 11.06 9.848 30.864 4.893 48.703l-1.72 6.877a.903.903 0 0 0 .877 1.123h1.16a1.032 1.032 0 0 0 .953-.625c1.244-2.904 5.385-15.143 5.713-19.924a.474.474 0 0 1 .47-.451H48.09a.472.472 0 0 1 .468.406l1.816 19.714a1.025 1.025 0 0 0 1.015.88h1.176a.935.935 0 0 0 .935-.935v-19.95a.493.493 0 0 1 .05-.213c.22-.46 1.032-2.573-.05-6.902-1-4-1.75-4.03-3-4-4.734.113-17.986.834-20.563.976a.465.465 0 0 1-.487-.418c-.367-3.161-2.708-22.316-5.95-25.558a4.04 4.04 0 0 0-5.74-.227z"/><path stroke-miterlimit="10" d="M30 44.5h-5.5m29.5 0h-7"/></g></svg>