<svg viewBox="0 0 72 72" xmlns="http://www.w3.org/2000/svg"><path d="m39.843 24.552 3.634 5.099m-8.653-4.439 7.98 11.194" fill="none" stroke="#000" stroke-linecap="round" stroke-linejoin="round" stroke-width="2"/><g fill="none" stroke="#000" stroke-linecap="round" stroke-linejoin="round" stroke-width="2"><ellipse cx="36" cy="36.156" rx="13.588" ry="18.773"/><path d="M24.19 18.863v-4.551h-3.428v6.522m24.142-2.886a4.572 4.572 0 0 1-1.903-2.15c-.684-2.763-3.628-4.84-7.156-4.84-3.41 0-6.265 1.942-7.072 4.564a4.863 4.863 0 0 1-2.065 2.378m24.22 2.94v-6.528h-3.43v4.578m5.74 30.931a8.028 8.028 0 0 0 1.796-5.324 8.77 8.77 0 0 0-1.05-4.283l.008-.05a12.387 12.387 0 0 1 0-8.4l-.007-.048a8.77 8.77 0 0 0 1.05-4.282 8.028 8.028 0 0 0-1.796-5.325m-5.74 30.913v4.247h3.429v-6.178m-24.222 2.923a4.872 4.872 0 0 1 2.067 2.38c.807 2.623 3.663 4.564 7.072 4.564 3.528 0 6.472-2.077 7.156-4.839a4.55 4.55 0 0 1 1.829-2.105m-24.068-2.918v6.173h3.429v-4.22m-5.709-31.052a7.934 7.934 0 0 0-1.9 5.436 8.737 8.737 0 0 0 1.08 4.331v0a12.387 12.387 0 0 1 0 8.4v.001a8.737 8.737 0 0 0-1.08 4.332 7.929 7.929 0 0 0 1.9 5.437"/></g></svg>