<svg viewBox="0 0 72 72" xmlns="http://www.w3.org/2000/svg"><g fill="none" stroke="#000" stroke-linecap="round" stroke-linejoin="round" stroke-width="2"><path d="M10.288 34.989v-7.715s.383-20.225 23.326-20.225c17.93 0 21.073 11.622 21.59 16.7a2.14 2.14 0 0 0 1.263 1.757c1.19.523 3.472 1.506 4.448 2.986"/><path d="M41.28 10.624a3.236 3.236 0 0 1 .03.62 1.64 1.64 0 0 1-.636 1.183c-1.09.868-2.504 1.461-3.1 2.757-.602 1.217-.568 3.18-2.113 3.642-1.833.304-2.68-1.442-3.015-3.067-.447-2.16-3.417-1.92-4.501-3.5a5.483 5.483 0 0 1-.067-4.736m-8.716 7.455a2.838 2.838 0 0 1 .793 1.208c.288.793.276 1.743.865 2.346a4.343 4.343 0 0 0 1.205.71 5.174 5.174 0 0 1 2.722 3.77c.483 2.782-2.243 2.207-3.447 3.802-.807 1.184-.378 3.19-1.777 3.97a4.122 4.122 0 0 1-2.707.076c-.676-.307-1.04-1.04-1.606-1.52-1.088-.922-2.702-.774-4.042-1.26a1.227 1.227 0 0 1-.864-.77m41.588-12.612c-1.28.727-1.838 2.46-2.297 4.17a8.51 8.51 0 0 1-2.348 3.937c-4.723 4.509.49 6.27 5.352 4.954M39.53 24.756c.017.192.033.384.061.573a2.405 2.405 0 0 0 .333.87c1.896 3.173-.076 3.636-2.787 4.32a2.498 2.498 0 0 0-1.18.686c-.929.957-1.685 2.15-3.141 2.38-2.162.811-5.435-.342-5.104-3.011.13-.773.648-1.431.832-2.193.249-1.032-.128-2.185.188-3.17a1.93 1.93 0 0 1 .345-.604c1.984-2.471 6.2-3.122 9.068-1.853a2.407 2.407 0 0 1 1.385 2.002z"/><path d="M22.766 39.242q-.07-.082-.148-.157a8.429 8.429 0 0 0-1.725-1.067c-.99-.575-1.807-1.401-2.758-2.036a3.961 3.961 0 0 0-3.233-.75 4.371 4.371 0 0 0-1.283.702 15.49 15.49 0 0 0-2.901 2.749 1.984 1.984 0 0 0-.43 1.253h0a2.018 2.018 0 0 0 2.018 2.018h9.353a18.912 18.912 0 0 0 12.026-4.316l2.61-2.15a18.911 18.911 0 0 1 12.025-4.316h13.26"/><path d="M42.116 32.089s.399 10.865-5.818 15.562m-5.042 1.331q-.518-.008-1.084.013c-5.644.213-10.778-6.463-11.212-7.04m17.338 5.696a10.826 10.826 0 0 1 8.565 4.739s2.266 3.116 5.724 2.115 3.013 2.058 3.013 2.058-.78 4.483-5.732 2.09c0 0-5.431-3.01-7.739-5.317a15.665 15.665 0 0 0-3.944-3.286"/><rect x="31.28" y="46.335" rx="1.679" width="5.014" height="5.014" transform="rotate(-174.74 33.787 48.842)"/></g></svg>