<svg viewBox="0 0 72 72" xmlns="http://www.w3.org/2000/svg"><g fill="none" stroke="#000" stroke-linecap="round" stroke-linejoin="round" stroke-width="2"><path d="m36.23 52.105 1.602-2.973-3.272-.834 1.603-2.972-3.273-.834 1.603-2.973-3.273-.834 1.604-2.973-3.273-.834 1.603-2.972-3.272-.834 1.603-2.973-3.273-.834 1.603-2.972-3.272-.834 1.603-2.973-3.273-.834 1.604-2.972-3.273-.834 1.604-2.972-3.273-.835 1.603-2.973 6.036-3.57L47.87 42.49m-9.56 12.098 4.806-7.53a2.104 2.104 0 0 1 1.499-.955l5.768-.761a2.002 2.002 0 0 1 1.985.965l4.747 8.027a1.044 1.044 0 0 1-.367 1.43l-.628.37a1.044 1.044 0 0 1-1.43-.366l-.525-.889-10.089 5.968.526.888a1.044 1.044 0 0 1-.367 1.43l-.659.39a1.044 1.044 0 0 1-1.43-.367l-3.872-6.548a1.96 1.96 0 0 1 .035-2.052z"/><path d="m52.21 51.568-1.009-1.707-9.231 5.46 1.009 1.707"/></g></svg>