<svg viewBox="0 0 72 72" xmlns="http://www.w3.org/2000/svg"><g fill="none" stroke="#000" stroke-width="2"><path stroke-miterlimit="10" d="M53.237 12.777q.762.501 1.483 1.082c10.08 8.124 10.052 24.883-.061 37.43S28.175 67.424 18.095 59.3a19.09 19.09 0 0 1-2.172-2.05"/><ellipse cx="34.153" cy="34.635" rx="29.033" ry="22.118" transform="rotate(-51.131 34.153 34.635)" stroke-miterlimit="10"/><path stroke-miterlimit="10" d="m51.373 48.515 3.286 2.775m-6.743.97 2.896 3.113m-6.555-.069 2.378 3.322m-6.392-.644 1.872 3.344m11.921-16.551 3.489 2.414"/><path stroke-linecap="round" stroke-linejoin="round" d="M20.652 44.72c.073-.232.61-2.214.681-2.446 5.918.106 6.21-.091 7.089-3.008 1.66-5.508 2.144-6.494 3.805-12.002.583-1.932.48-2.354-2.29-2.882l-1.687-.311c.063-.204.441-2.075.504-2.278a94.249 94.249 0 0 0 12.214-.789l-5.499 19c-.858 2.966-.752 3.204 4.93 4.302-.066.234-.6 2.218-.665 2.453z"/></g></svg>