<svg viewBox="0 0 72 72" xmlns="http://www.w3.org/2000/svg"><g fill="none" stroke="#000" stroke-linecap="round" stroke-linejoin="round" stroke-width="2"><path d="m49.18 38.23-2.374 19.19a2.836 2.836 0 0 1-2.802 2.504h-16.57a2.836 2.836 0 0 1-2.805-2.532l-2.179-19.17m28.52-3.382a1.145 1.145 0 0 0 1.138-1.153v-.793a4.428 4.428 0 0 0-4.4-4.456h-23.5a4.428 4.428 0 0 0-4.4 4.456v.793a1.145 1.145 0 0 0 1.138 1.152zM40.73 14.042h-9.552V8.887h9.552z"/><path d="M40.71 11.54A20.7 20.7 0 0 1 56 31.8h-1.01M31.18 11.57A20.7 20.7 0 0 0 16 31.8h1.156"/></g></svg>