<svg viewBox="0 0 72 72" xmlns="http://www.w3.org/2000/svg"><path d="m56 43.783 1.336-1.336a2.154 2.154 0 0 1 3.038 0h0a2.154 2.154 0 0 1 0 3.038L45.526 60.332a2.154 2.154 0 0 1-3.037 0h0a2.154 2.154 0 0 1 0-3.038L43.783 56zm-20-5.058L16.612 19.338a1.963 1.963 0 0 1 0-2.767h0a1.963 1.963 0 0 1 2.768 0l19.387 19.387m16.666 4.566a10.874 10.874 0 0 0-10.572-.261l-2.893-2.894-4.557 4.557 2.893 2.893a10.875 10.875 0 0 0 .24 10.534" fill="none" stroke="#000" stroke-linecap="round" stroke-linejoin="round" stroke-width="2"/></svg>