<svg viewBox="0 0 72 72" xmlns="http://www.w3.org/2000/svg"><g fill="none" stroke="#000" stroke-linecap="round" stroke-linejoin="round" stroke-width="2"><path d="m39.179 35.642 15.018-17.26a3.989 3.989 0 0 0-6.38-4.788L18.579 59.193l16.39-18.727"/><path d="M49.908 19.66c-.743.516-1.472.675-1.915.343-.703-.527-.416-2.098.642-3.507s2.485-2.123 3.188-1.595a.907.907 0 0 1 .311.45"/><path d="M49.005 16.048a10.527 10.527 0 0 1 1.542.975 13.165 13.165 0 0 1 5.21 13.203s-1.613 8.934-10.897 9.209c-8.505.252-21.409-8.633-33.86 2.798m23.59-23.669s6.029-4.803 12.183-3.343"/></g></svg>