<svg viewBox="0 0 72 72" xmlns="http://www.w3.org/2000/svg"><path d="m31.591 39.341.009-.011c-.013-.025-.034-.043-.049-.067a1.081 1.081 0 0 0-.086-.12 1.103 1.103 0 0 0-.128-.13 1.03 1.03 0 0 0-.105-.08 1.09 1.09 0 0 0-.206-.109c-.018-.006-.031-.02-.05-.025-.008-.003-.016-.002-.025-.005a.96.96 0 0 0-.254-.042c-.029-.002-.056-.007-.084-.007-.012.001-.023-.003-.035-.002l-8.672.38a1.1 1.1 0 0 0-1.051 1.099v2.401a1.106 1.106 0 0 0 .01.147 4.6 4.6 0 0 0 1.788 3.173 7.16 7.16 0 0 0 4.239 1.215 8.025 8.025 0 0 0 1.037-.06v-.025a1.08 1.08 0 0 0 .725-.4l2.85-3.766a1.103 1.103 0 0 0 .221-.663V39.84a1.083 1.083 0 0 0-.134-.499zm-7.6 1.291c-.466 0-.845-.226-.845-.506s.379-.506.845-.506.845.226.845.506-.379.507-.845.507zm3.387 1.196c-1.061 0-1.922-.516-1.922-1.153s.86-1.152 1.922-1.152 1.922.516 1.922 1.152-.86 1.153-1.922 1.153z"/><g fill="none" stroke="#000" stroke-linecap="round" stroke-linejoin="round" stroke-width="2"><path d="M29.311 31.934 9.849 42.95v4.406l21.035 9.608 33.965-19.911v-4.79l-6.574 3.743"/><path d="m31.863 30.123 10.203-8.595a3.656 3.656 0 0 1 4.101-.524l13.342 5.769a2.62 2.62 0 0 1 .288 4.362l-11.881 9.678"/><path d="m33.449 39.846 16.052-13.403s-1.31-2.673 1.055-3.017M38.822 47.109l-7.974 4.554-6.857-2.845m8.389-11.774s1.35-3.13 3.866-1.425m-7.136-.053s1.349-3.13 3.865-1.425m8.609 7.105s1.35-3.13 3.866-1.425m-7.137-.053s1.35-3.129 3.866-1.425"/></g></svg>