<svg viewBox="0 0 72 72" xmlns="http://www.w3.org/2000/svg"><path d="M18.299 47.037s.17 2.168 4.537 2.876m2.198-14.429a5.464 5.464 0 0 1 4.523.516m-2.699-7.766a7.516 7.516 0 0 1 5.227-.694m.185-8.419s3.074.374 2.608 4.286m13.268 11.586s4.736 1 5.626-3.318m-12.376 8.97a6 6 0 0 0 6.679 1.471m-14.477 3.095s4.343-.38 5.458 1.594M23.789 56.957s2.577-2.81 6.076-1.884m14.227-40.464s2.336 2.296 1.168 7.143m-6.204-1.118s.718 2.958-1.898 6.687M21.367 32.03s-.429 5.567 3.185 6.183m-2.623 6.969s3.76 1.077 4.49-2.313M31 52.545s6.314-.912 5.559-4.233m7.907-17.967s.781 4.948 3.069 5.655m.957-13.018s-.508 3.986 1.657 6.151" fill="none" stroke="#000" stroke-linecap="round" stroke-linejoin="round" stroke-width="2"/><g fill="none" stroke="#000" stroke-linecap="round" stroke-width="2"><path stroke-miterlimit="10" d="M41.964 17.936a11.175 11.175 0 0 0 2.822-5.753M35.49 22.982a24.811 24.811 0 0 0 6.474-5.046m4.473 25.124a17.736 17.736 0 0 1-3.447 6.535 10.652 10.652 0 0 1-9.998 3.52 16.406 16.406 0 0 1-6.901-3.4 21.166 21.166 0 0 1-5.077-5.999 11.217 11.217 0 0 1 2.21-13.87 20.331 20.331 0 0 1 3.948-2.702m27.932-2.447c-3.772 1.156-5.47 4.594-6.488 8.873m-6.564 6.684c.36-1.325.669-2.735.984-4.175 1.42-6.488 3.03-13.842 10.603-16.162M24.692 36.82a6.234 6.234 0 0 0 .672 4.431 16.179 16.179 0 0 0 3.885 4.577 11.38 11.38 0 0 0 4.742 2.387 5.297 5.297 0 0 0 3.676-.649M49.712 13.04c-1.526 8.773-8.587 12.308-14.817 15.427-1.327.664-2.622 1.313-3.843 1.994"/><path stroke-linejoin="round" d="M46.579 20.244q.324.24.641.496M24.657 36.813q.387-1.311.759-2.767c1.214-4.727 2.041-9.96 4.905-13.186a10.649 10.649 0 0 1 9.999-3.52 13.648 13.648 0 0 1 1.746.481M16.9 47.61a8.483 8.483 0 0 0 4.467-3.295m3.08 3.917a12.253 12.253 0 0 1-6.082 4.158m17.487-29.616a6.274 6.274 0 0 0-1.791 1.405c-2.06 2.32-3.164 6.614-4.232 10.766a59.69 59.69 0 0 1-2.741 8.77m18.916-17.23a15.99 15.99 0 0 0-1.942-1.86q-.56-.45-1.134-.827m-11.927 23.24a64.014 64.014 0 0 1 7.723-4.864 44.08 44.08 0 0 0 7.988-5.254 6.285 6.285 0 0 0 1.92-3.346M23.342 58.88a17.154 17.154 0 0 1 3.86-8.258m4.26 2.079a14.91 14.91 0 0 0-3.194 7.037m23.847-33.314q.093.157.182.315a11.217 11.217 0 0 1-2.21 13.87c-2.547 2.33-6.405 3.642-9.537 5.41a47.024 47.024 0 0 0-2.87 1.573m9.54-26.85h0a20.45 20.45 0 0 1 1.853 1.692"/></g></svg>