<svg viewBox="0 0 72 72" xmlns="http://www.w3.org/2000/svg"><circle cx="31.592" cy="45.623" r="1"/><circle cx="30.159" cy="41.739" r="1"/><circle cx="32.814" cy="39.749" r="1"/><circle cx="40.428" cy="45.623" r="1"/><circle cx="41.861" cy="41.739" r="1"/><circle cx="39.206" cy="39.749" r="1"/><g fill="none" stroke="#000" stroke-linecap="round" stroke-linejoin="round" stroke-width="2"><path d="M31.746 51.68c-4.445-2.452-5.312-8.293-5.312-13.663 0-7.17 9.566-5.054 9.566-5.054V50.25l-1.288 2.441M36 50.249l1.288 2.441"/><path d="M40.254 51.68c4.445-2.452 5.312-8.293 5.312-13.663 0-7.17-9.566-5.054-9.566-5.054m-9.183 10.38-3.772 2.958 3.047 5.844m-.965-1.85s-3.006 6.004-.882 11.21m2.875-26.304-6.241-1.084.245 4.574"/><path d="M18.35 46.24a9.707 9.707 0 0 1 2.66-9.681m5.87-5.103a6.071 6.071 0 0 1-.772-3.713 2.212 2.212 0 0 1 .409-1.125c.543-.67 1.537-.672 2.362-.92a10.472 10.472 0 0 0 2.869-1.776 3.933 3.933 0 0 1 3.154-.906 3.106 3.106 0 0 0 2.196 0c1.043-.438 2.232.252 3.154.906a10.472 10.472 0 0 0 2.869 1.776c.825.248 1.82.25 2.362.92a2.212 2.212 0 0 1 .409 1.125 6.071 6.071 0 0 1-.773 3.713m.064 11.887 3.772 2.958-3.047 5.844m.965-1.85s3.006 6.004.882 11.21M44.88 35.201l6.241-1.084-.245 4.574"/><path d="M53.65 46.24a9.707 9.707 0 0 0-2.66-9.681M31.57 10.958 36 15.106l4.43-4.148M36 15.106v8.112m-9.892 4.525-2.587-3.902m-3.137-8.735s-3.082 8.29 4.265 10.436m21.245 2.201 2.587-3.902m3.137-8.735s3.082 8.29-4.265 10.436"/></g></svg>