<svg viewBox="0 0 72 72" xmlns="http://www.w3.org/2000/svg"><g fill="none" stroke="#000" stroke-linecap="round" stroke-width="2"><path stroke-linejoin="round" d="M39.396 54.421s-1.962 3.15-3.396 3.15-3.322-3.15-3.322-3.15m-1.46-23.505c2.12 8.026 4.14 21.694-5.068 25.865-13.309 6.028-14.224-1.844-14.224-1.844S9.405 47.58 29.272 24.932m11.541 5.83c-2.134 8.004-4.241 21.821 5.027 26.019 13.308 6.028 14.223-1.844 14.223-1.844s2.522-7.356-17.346-30.006m-16.703-5.833a4.167 4.167 0 1 1 8.112-1.795m10.854 1.795a4.167 4.167 0 1 0-8.11-1.795"/><path stroke-miterlimit="10" d="m29.469 54.421.508 3.058-4.102 6.328m16.799-9.221-.48 2.893 4.101 6.328"/><path stroke-linejoin="round" d="M34.01 33.334a3.964 3.964 0 0 1-1.59-1.015c-1.91-1.745-3.095-5.268-3.533-10.534a3.456 3.456 0 0 1 .78-2.559c1.665-1.99 5.42-2.047 5.843-2.047h.97c.422 0 4.177.057 5.842 2.047a3.457 3.457 0 0 1 .78 2.56c-.438 5.256-1.62 8.777-3.524 10.525a5.896 5.896 0 0 1-1.598 1.023"/><path stroke-miterlimit="10" d="m15.545 15.444 4.213 8.444 6.688 4.341m29.881-12.785-4.214 8.444-6.61 4.291"/></g></svg>