<svg viewBox="0 0 72 72" xmlns="http://www.w3.org/2000/svg"><g fill="none" stroke="#000" stroke-miterlimit="10" stroke-width="2"><path stroke-linecap="round" d="M36.31 42.283c.534 1.519 1.905 2.528 4.7 2.362 0 0 4.645-.954 9.482-8.909 0 0 2.633-3.978 7.17-3.697s7.013 5.068 6.844 9.967c0 0-.225 7.096-4.11 6.476s-2.366-5.631-2.366-5.631.948-3.578-1.713-3.854c0 0-2.11-.305-5.505 4.894s-7.347 7.86-12.083 7.248c-3.553-.459-7.46-1.941-9.337-5.35m2.822-14.761a6.216 6.216 0 0 0 1.196-3.031c.208-1.795-1.194-.53-1.194-.53a8.727 8.727 0 0 1-7.373 2.563c-4.837-.472-11.28-2.69-11.936-9.963 0 0-.286-2.38.955-2.425 0 0 .746-.072.802 1.103 0 0 .19 10.628 16.673 2.864 0 0 4.029-2.1 7.392.573s0 9.545 0 9.545a29.138 29.138 0 0 0-1.408 3.083"/><path d="M30.961 33.997a13.628 13.628 0 0 1 5.617.28 1.37 1.37 0 0 1 .876 1.882 9.866 9.866 0 0 0-.97 5.171 1.565 1.565 0 0 1-1.013 1.682 10.725 10.725 0 0 1-4.566.505 3.425 3.425 0 0 1-3.075-3.254 13.338 13.338 0 0 1 .342-3.739 3.352 3.352 0 0 1 2.789-2.527z"/></g></svg>