<svg viewBox="0 0 72 72" xmlns="http://www.w3.org/2000/svg"><g fill="none" stroke="#000" stroke-linecap="round" stroke-linejoin="round" stroke-width="2"><path d="M23.181 39.931h24.583v5.147H23.181zm3.497 7.922 1.997 12.276h13.594l1.997-12.276M38.138 37.22a3.004 3.004 0 0 0-1.666-2.14 2 2 0 1 0-2.563 0 3.004 3.004 0 0 0-1.667 2.15"/><path d="M41.886 31.709a61.916 61.916 0 0 1 7.279 1.451 6.595 6.595 0 0 0-5.427-4.713c-4.499-.714-8.525 3.113-8.525 3.113m.045-.213s-.227-11.089-8.594-15.007a11.15 11.15 0 0 0-9.51.653 132.235 132.235 0 0 1 11.617 7.678"/><path d="M35.195 31.556s-5.96-5.984-12.838-3.225c0 0-3.622 1.624-3.67 5.443a84.036 84.036 0 0 1 10.71-2.11m5.815-1.341c3.466-6.421 19.55-7.904 19.55-7.904s-3.207-5.12-9.957-2.79"/><path d="M35.42 29.772c-.305-8.14 14.112-17.762 14.112-17.762a8.785 8.785 0 0 0-10.998 2.268 12.964 12.964 0 0 0-2.637 4.84"/></g></svg>