<svg viewBox="0 0 72 72" xmlns="http://www.w3.org/2000/svg"><g fill="none" stroke="#000" stroke-linecap="round" stroke-linejoin="round" stroke-width="2"><path d="M26.198 8.966s7.37 5.93 7.37 12.174m-1.571 8.836c-.971-.271-1.374-1.461-2.272-1.917a6.225 6.225 0 0 0-2.383-.244 20.604 20.604 0 0 1-2.824-.716 12.5 12.5 0 0 0-4.06.003m9.752 7.503c-1.64.232-2.821-1.814-4.477-1.868-1.582-.052-2.554 1.644-3.889 2.482-2.156 1.354-5.205.38-7.393 1.683m14.751 4.517a9.824 9.824 0 0 0-3.517-.11c-1.153.245-2.357.624-2.655 1.748a6.825 6.825 0 0 0 .249 2.735 37.667 37.667 0 0 1 .151 15.453m16.573-31.269c.971-.271 1.374-1.461 2.272-1.917a6.225 6.225 0 0 1 2.383-.244 20.604 20.604 0 0 0 2.824-.716 12.5 12.5 0 0 1 4.06.003m-9.752 7.503c1.64.232 2.821-1.814 4.477-1.868 1.582-.052 2.554 1.644 3.889 2.482 2.156 1.354 5.205.38 7.393 1.683m-14.751 4.517a9.824 9.824 0 0 1 3.517-.11c1.153.245 2.357.624 2.655 1.748a6.825 6.825 0 0 1-.249 2.735 37.667 37.667 0 0 0-.15 15.453M45.773 8.966s-7.37 5.93-7.37 12.174"/><path d="M31.947 25.794a3.884 3.884 0 0 1-.098-.868 4.16 4.16 0 0 1 8.315 0 3.888 3.888 0 0 1-.085.808m-1.12 2.719c2.287 2.711 3.865 8.475 3.865 15.146 0 9.278-3.052 16.799-6.818 16.799s-6.818-7.521-6.818-16.799c0-6.672 1.579-12.435 3.866-15.146a8.705 8.705 0 0 0 5.905 0"/><path d="M30.884 32.517a64.055 64.055 0 0 1 7.904 18.201m2.328-18.201a55.188 55.188 0 0 0-3.55 6.38"/></g></svg>