<svg viewBox="0 0 72 72" xmlns="http://www.w3.org/2000/svg"><g fill="none" stroke="#000" stroke-miterlimit="10" stroke-width="2"><circle cx="35.287" cy="7.96" r="3"/><path stroke-linecap="round" stroke-linejoin="round" d="M30.18 12.574a3.001 3.001 0 0 1-1.291-5.86m3.647 23.92L28.313 64.88c-.134 1.091.526 1.985 1.467 1.985s1.949-.869 2.238-1.93l5.487-20.115c.29-1.062 1.043-2.667 1.674-3.568l2.199-3.139c.63-.9 1.104-2.537 1.05-3.636l-.492-10.12"/><path stroke-linecap="round" stroke-linejoin="round" d="m41.453 38.006 1.82 11.526c.172 1.086.524 2.85.783 3.92l2.422 10.006c.26 1.07-.204 2.394-1.029 2.944-.825.55-1.773.143-2.107-.905l-2.893-9.08a76.587 76.587 0 0 0-1.334-3.77l-2.203-5.652m5.025-22.636-.457-5.385m-4.332 1.068-3.96 4.836c-.697.85-2.135 1.788-3.195 2.082l-10.677 2.96m3.083-4.354.896-5.377c.362-2.17 1.862-3.762 3.333-3.538 1.472.224 4.453.121 6.625-.23l9.117-1.472M22.172 39.734l.186-6.951m-.186 6.951-1.06 9.76c-.066 1.699-.616 3.366-1.012 5.02l-2.382 9.95a1.844 1.844 0 0 0 1.663 2.27h0a1.844 1.844 0 0 0 1.829-1.12l4.872-13.756"/></g></svg>