<svg viewBox="0 0 72 72" xmlns="http://www.w3.org/2000/svg"><g fill="none" stroke="#000" stroke-linecap="round" stroke-linejoin="round"><path stroke-width="2" d="M43.873 12.146 28.3 15.9a8.06 8.06 0 0 0-3.602-.286m.73 3.211s2.488-1.081 2.873-2.924"/><path stroke-width="1.883" d="m19.948 15.419 2.774-.668a1.617 1.617 0 0 1 1.95 1.195l.695 2.883"/><path stroke-width="1.883" d="m19.948 15.419 2.774-.668a1.617 1.617 0 0 1 1.95 1.195l.695 2.883"/><path stroke-width="2" d="M19.27 30.292c2.217-5.212-.225-11.71-.225-11.71l-.292-1.212a1.617 1.617 0 0 1 1.195-1.95s3.873-1.07 5.418 3.41a1.739 1.739 0 0 1-.906 2.202l-.26.245c-1.033 1.23-3.56 4.633.172 9.21"/></g><g fill="none" stroke="#000" stroke-linecap="round" stroke-linejoin="round" stroke-width="2"><path d="M10.381 31.265h39.407a2.461 2.461 0 0 1 2.427 2.868l-.437 2.608a9.39 9.39 0 0 1-9.26 7.838H17.666a9.39 9.39 0 0 1-9.251-7.787l-.459-2.646a2.461 2.461 0 0 1 2.425-2.881z"/><path d="m52.123 34.682 2.476 1.003a3.397 3.397 0 0 0 1.275.249h.722a3.397 3.397 0 0 0 1.25-.238l3.427-1.356a3.397 3.397 0 0 1 4.647 3.159v.84a3.397 3.397 0 0 1-4.66 3.153l-3.128-1.252a3.398 3.398 0 0 0-1.263-.243h-1.556a3.394 3.394 0 0 0-.479.033l-4.715.672M43.523 11.96h0a1.55 1.55 0 0 1 1.084-1.814l7.763-2.244a2.113 2.113 0 0 1 2.653 1.586h0a2.113 2.113 0 0 1-1.766 2.536l-8 1.145a1.55 1.55 0 0 1-1.734-1.208zM19.585 58.005l1.406-10.438h18.187l1.407 10.438m-24.915.985h0a1.913 1.913 0 0 0 1.913 1.914h25.003a1.913 1.913 0 0 0 1.913-1.913h0"/><path d="M30.085 60.904s-5.4.073-5.4-4.885a10.46 10.46 0 0 1 3.498.683s1.077-3.007 1.902-3.381a4.982 4.982 0 0 1 1.479 3.338 6.356 6.356 0 0 1 3.937-.64s-.954 4.885-5.416 4.885z"/></g></svg>