<svg viewBox="0 0 72 72" xmlns="http://www.w3.org/2000/svg"><g fill="none" stroke="#000" stroke-linecap="round" stroke-linejoin="round" stroke-width="2"><path d="M26.91 31.33a56.83 56.83 0 0 0 11.38 1.055c2.161 0 4.236-.1 6.165-.284l2.299 19.29"/><path d="M32.29 22.65c-7.285.674-12.52 2.539-12.52 4.735l-2.545 22.98a2.426 2.426 0 0 0 1.106 2.319c2.148 1.368 7.571 3.575 19.97 3.252 11.94-.312 17.41-2.133 19.72-3.298a2.442 2.442 0 0 0 1.339-2.451l-2.538-22.8c0-2.155-5.043-3.992-12.12-4.696"/><path d="M44.72 22.74c4.001.514 6.723 1.525 6.723 2.69 0 1.684-5.693 3.049-12.72 3.049s-12.71-1.365-12.71-3.049c0-1.123 2.532-2.104 6.302-2.633"/><path d="M32.62 25.12v-1.476a3.614 3.614 0 0 1 3.614-3.614h4.987a3.614 3.614 0 0 1 3.614 3.614v1.782M17.86 44.54l-6.463-11.59a14.77 14.77 0 0 0-1.062-1.787l-3.14-2.687a.19.19 0 0 1 .047-.329l4.192-.56 7.678 5.663"/></g></svg>