<svg viewBox="0 0 72 72" xmlns="http://www.w3.org/2000/svg"><g fill="none" stroke="#000" stroke-linecap="round" stroke-linejoin="round" stroke-width="2"><path d="M30.602 30.098c-.756-1.026-3.047-3.682-6.51-3.682-4.29 0-5.17 4.906-5.17 4.906s-1.962 16.43 4.45 25.573c4.559 6.5 7.417 3.757 8.688 1.628m8.952-28.027s2.492-4.08 6.783-4.08 5.171 4.906 5.171 4.906 1.961 16.43-4.45 25.573c-4.154 5.923-6.896 4.172-8.311 2.203"/><path d="M41.635 29.214a7.635 7.635 0 0 0-5.777-2.798c-4.116.175-5.855 4.906-5.855 4.906a37.922 37.922 0 0 0-1.808 12.366m2.162 13.622c.818 0 1.702 1.213 1.702 1.213 3.636 4.106 6.408 2.356 8.148.573 0 0 1.272-1.786 2.38-1.786M30.458 25.9a7.793 7.793 0 0 1 4.366-2.226S33.92 14.971 40.822 16a11.351 11.351 0 0 1 4.219 1.625 1.991 1.991 0 0 1 .224 3.076h0a2.012 2.012 0 0 1-2.408.262c-1.695-.984-4.536-2.085-4.606 2.951a18.998 18.998 0 0 1 3.535 1.85"/></g></svg>