<svg viewBox="0 0 72 72" xmlns="http://www.w3.org/2000/svg"><path d="M38.655 10.841h-15.92a2 2 0 0 0-2 2v3.42a2 2 0 0 0 2 2h15.92c9.382 0 14.14 5.56 14.14 16.526 0 10.569-4.416 15.492-13.896 15.492H26.21l1.76-1.617a2 2 0 0 0 .121-2.826l-2.03-2.21a2 2 0 0 0-2.826-.12l-9.801 9.01a2 2 0 0 0 .001 2.946l9.801 8.992c.384.353.869.527 1.352.527.54 0 1.08-.218 1.473-.647l2.03-2.209a2.002 2.002 0 0 0-.12-2.826l-1.743-1.6H38.9c13.545 0 21.314-8.352 21.314-22.912 0-14.994-8.059-23.946-21.558-23.946zm.244 44.857H21.092l5.525 5.074-2.03 2.209-9.8-8.993 9.8-9.01 2.03 2.21-5.543 5.09H38.9c10.548 0 15.896-5.884 15.896-17.491 0-15.313-8.777-18.527-16.14-18.527h-15.92v-3.419h15.92c12.43 0 19.559 8 19.559 21.946 0 13.485-6.86 20.91-19.315 20.91z"/></svg>