<svg viewBox="0 0 72 72" xmlns="http://www.w3.org/2000/svg"><g fill="none" stroke="#000" stroke-miterlimit="10" stroke-width="2"><path d="M25 21V9a1 1 0 0 1 1-1h20a1 1 0 0 1 1 1v12"/><path stroke-linecap="round" stroke-linejoin="round" d="M35.844 26.188v10h8.312M47 55v9H25v-9m0-38V8h22v9m6.996 14.37h.699c1.1 0 2 .9 2 2v5.153c0 1.1-.9 2-2 2h-.7"/><path stroke-linecap="round" stroke-linejoin="round" d="M48 51H24c-1.1 0-2-.9-2-2V23c0-1.1.9-2 2-2h24c1.1 0 2 .9 2 2v26c0 1.1-.9 2-2 2z"/><path stroke-linecap="round" stroke-linejoin="round" d="M35.844 26.188v10h8.312"/></g></svg>