<svg viewBox="0 0 72 72" xmlns="http://www.w3.org/2000/svg"><circle cx="36.821" cy="36.294" r="23" fill="none" stroke="#000" stroke-linecap="round" stroke-linejoin="round" stroke-miterlimit="10" stroke-width="2"/><path fill="none" stroke="#000" stroke-linecap="round" stroke-linejoin="round" stroke-miterlimit="10" stroke-width="2" d="m56.366 17.717 1.976-1.53 3.06 3.954-1.832 1.418M32.321 9.727V7h9v2.893"/><circle cx="36.347" cy="16.982" r="1"/><circle cx="36.347" cy="55.024" r="1"/><ellipse cx="49.797" cy="22.553" rx=".988" ry="1.012" transform="rotate(-45.001 49.797 22.553)"/><ellipse cx="22.898" cy="49.453" rx=".988" ry="1.012" transform="rotate(-45.001 22.897 49.453)"/><circle cx="55.369" cy="36.003" r="1"/><circle cx="17.326" cy="36.003" r="1"/><path stroke="#000" stroke-linecap="round" stroke-linejoin="round" stroke-miterlimit="10" stroke-width="2" d="M36.84 35.91h-15.4m15.445.015-10.89 10.89"/><ellipse cx="49.797" cy="49.453" rx="1.012" ry=".988" transform="rotate(-45.001 49.797 49.454)"/><ellipse cx="22.898" cy="22.553" rx="1.012" ry=".988" transform="rotate(-45.001 22.897 22.553)"/></svg>