<svg viewBox="0 0 72 72" xmlns="http://www.w3.org/2000/svg"><path d="M31 34c-7.272-1.91-10-9.545-10-14.318V13m0 46v-6.682C21 47.546 23.727 39.91 31 38m0 0c1-.272 2-.894 2-2 0-1.105-1-1.728-2-2m10 0c7.272-1.91 10-9.545 10-14.318V13m0 46v-6.682C51 47.546 48.273 39.91 41 38m0 0c-1-.272-2-.894-2-2 0-1.105 1-1.728 2-2M25 55c6.074 0 11-4.926 11-11 0 6.074 4.926 11 11 11m8-44c0 1.1-.9 2-2 2H19c-1.1 0-2-.9-2-2v-1c0-1.1.9-2 2-2h34c1.1 0 2 .9 2 2v1zm-8 7H25m30 44c0 1.1-.9 2-2 2H19c-1.1 0-2-.9-2-2v-1c0-1.1.9-2 2-2h34c1.1 0 2 .9 2 2v1zM36 39v5" fill="none" stroke="#000" stroke-linecap="round" stroke-linejoin="round" stroke-miterlimit="10" stroke-width="2"/></svg>