<svg viewBox="0 0 72 72" xmlns="http://www.w3.org/2000/svg"><path fill="none" stroke="#000" stroke-linecap="round" stroke-linejoin="round" stroke-miterlimit="10" stroke-width="2" d="M15.934 30.255a.905.905 0 0 1-.802.813C9.97 31.618 6 36.7 6 42.885c0 6.553 4.545 11.865 10.15 11.865h38.698C61.008 54.75 66 49.136 66 42.211c0-6.638-4.587-12.07-10.392-12.51a.964.964 0 0 1-.885-.78c-1.296-6.656-7.276-11.658-14.346-11.658-4.597 0-8.691 2.082-11.349 5.393-.258.322-.69.47-1.07.31-1.025-.431-2.107-.64-3.318-.64-4.567 0-8.316 3.486-8.706 7.93z"/></svg>