<svg viewBox="0 0 72 72" xmlns="http://www.w3.org/2000/svg"><g fill="none" stroke="#000" stroke-linecap="round" stroke-linejoin="round" stroke-miterlimit="10" stroke-width="2"><path d="M66.666 32.453C64.401 17.628 51.314 6.358 35.506 6.358 18.107 6.358 4 20.157 4 37.178c0 0 3.878-2.387 6.482-.366a.907.907 0 0 0 .944.099c1.711-.797 7.271-2.914 12.907.08a.904.904 0 0 0 .694.075c2.001-.616 12.183-3.434 21.155-.043a.951.951 0 0 0 .782-.053c5.616-2.96 11.15-.86 12.866-.063a.92.92 0 0 0 .96-.105c2.581-2.019 6.223.235 6.223.235"/><path d="M45.352 62.54c0 3.015-2.204 5.46-4.923 5.46s-4.923-2.445-4.923-5.46V35.393m.001-29.035V4M10.925 36.992C16.586 4.655 35.507 6.358 35.507 6.358s-9.594.93-10.825 30.741m35.656-.109C54.677 4.653 35.507 6.358 35.507 6.358s9.841.912 11.072 30.723"/></g></svg>