<svg viewBox="0 0 72 72" xmlns="http://www.w3.org/2000/svg"><path fill="none" stroke="#000" stroke-linecap="round" stroke-linejoin="round" stroke-width="1.49" d="m28.054 44.314 1.033 2.742.312 2.05-1.016 2.793-.979 1.171-1.6.703-1.082.596-2.495.693-.757-.165-1.964-.025-2.03-.911-1.612-2.042-.749-2.004-.974-2.012.448-1.285.325-1.23.5-2.333 3.81-2.037L21.56 41s.936.42 1.258.56c.112.049 1.054.38 1.173.408z"/><path fill="none" stroke="#000" stroke-linecap="round" stroke-linejoin="round" stroke-width="2" d="m26.841 36.759 19.435-19.436M31.782 37.982l23.6-23.6M35.171 40.229l15.964-15.964m-10.964-6.036L43.7 14.7M25.171 33.229 28.7 29.7m4.471 16.529L36.7 42.7m19.471-23.471L59.7 15.7"/><path d="M22.608 30.496a1.126 1.126 0 0 0 0-2.25 1.126 1.126 0 0 0 0 2.25zm8 28a1.126 1.126 0 0 0 0-2.25 1.126 1.126 0 0 0 0 2.25z"/><path fill="none" stroke="#000" stroke-linecap="round" stroke-linejoin="round" stroke-width="2" d="M40 41h2l.75-2.25.75 2.25h2L44 42.25l.5 2L42.75 43 41 44.25l.75-2L40 41zM28 20h2l.75-2.25.75 2.25h2L32 21.25l.5 2L30.75 22 29 23.25l.75-2L28 20z"/><path d="M53.608 28.496a1.126 1.126 0 0 0 0-2.25 1.126 1.126 0 0 0 0 2.25z"/></svg>