<svg viewBox="0 0 72 72" xmlns="http://www.w3.org/2000/svg"><circle cx="30" cy="35" r="2"/><circle cx="30" cy="41" r="2"/><circle cx="30" cy="47" r="2"/><circle cx="36" cy="35" r="2"/><circle cx="36" cy="41" r="2"/><circle cx="36" cy="47" r="2"/><circle cx="42" cy="35" r="2"/><circle cx="42" cy="41" r="2"/><circle cx="42" cy="47" r="2"/><path fill="none" stroke="#000" stroke-linecap="round" stroke-linejoin="round" stroke-miterlimit="10" stroke-width="2" d="M26 24v5s-3.5.5-7 4-4 10-4 10v13h42V43.125S56.5 36.5 53 33s-7-4-7-4v-5h-3l-1 3H29.813L29 24h-3z"/><path fill="none" stroke="#000" stroke-linecap="round" stroke-linejoin="round" stroke-miterlimit="10" stroke-width="2" d="M61.984 16.452c-8-6-44-6-52 0 0 0-4 4-2 10h13v-5c6-4 24-4 30 0v5h13c2-6-2-10-2-10z"/></svg>