<svg viewBox="0 0 72 72" xmlns="http://www.w3.org/2000/svg"><path d="m39.06 20.618-.705-.71-.002.003.707.707zm.011-7.082-.707.707.707-.707zm-7.778-.708a1 1 0 0 0 1.415 1.415l-1.415-1.415zm4.95.708-.707.707.707-.707zm0 4.242-.707-.707.707.707zm-3.453 3.454.704.709.003-.002-.707-.707zm-.012.01.707.708-.707-.707zm0 7.072-.707.707.707-.707zm7.778.707a1 1 0 0 0-1.414-1.414l1.414 1.414zm-4.95-.707.708-.707-.707.707zm0-4.243.708.707-.707-.707zm4.159-2.744.014-.013-1.415-1.415-.009.01 1.41 1.418zm.014-.013a6 6 0 0 0 0-8.486l-1.415 1.415a4 4 0 0 1 0 5.656l1.415 1.415zm0-8.486a6 6 0 0 0-8.486 0l1.415 1.415a4 4 0 0 1 5.656 0l1.415-1.415zm-7.072 1.415a2 2 0 0 1 2.829 0l1.414-1.415a4 4 0 0 0-5.657 0l1.415 1.415zm2.829 0a2 2 0 0 1 0 2.828l1.414 1.414a4 4 0 0 0 0-5.657l-1.414 1.415zm0 2.828-3.453 3.453 1.414 1.415 3.453-3.454-1.414-1.414zm-3.451 3.451-.014.014 1.414 1.414.01-.01-1.41-1.418zm-.014.014a6 6 0 0 0 0 8.485l1.414-1.414a4 4 0 0 1 0-5.657l-1.414-1.414zm0 8.485a6 6 0 0 0 8.485 0l-1.414-1.414a4 4 0 0 1-5.657 0l-1.414 1.414zm7.071-1.414a2 2 0 0 1-2.828 0L34.9 29.02a4 4 0 0 0 5.656 0l-1.414-1.414zm-2.828 0a2 2 0 0 1 0-2.828L34.9 23.364a4 4 0 0 0 0 5.657l1.414-1.414zm0-2.828 3.453-3.454-1.414-1.414-3.453 3.453 1.414 1.415z"/><path fill="none" stroke="#000" stroke-linecap="round" stroke-linejoin="round" stroke-width="2" d="M24 47.417A17.955 17.955 0 0 1 18 34h36a17.96 17.96 0 0 1-6 13.417"/><path d="m56.861 54.676-.744-.667.745.667zm2.479-3.203.833.553-.833-.553zm-44.202 3.203-.744.668.744-.668zm.745-.667a27.121 27.121 0 0 1-2.39-3.09l-1.666 1.107a29.11 29.11 0 0 0 2.567 3.318l1.49-1.335zM13.48 51h45.04v-2H13.48v2zm45.027-.08a27.134 27.134 0 0 1-2.39 3.09l1.49 1.334a29.11 29.11 0 0 0 2.566-3.318l-1.666-1.106zM56.13 54H15.87v2h40.26v-2zm-.013.01a.034.034 0 0 1 .01-.01h.003v2a1.98 1.98 0 0 0 1.476-.656l-1.49-1.335zM58.52 51h.005a.03.03 0 0 1-.018-.014.067.067 0 0 1-.007-.033c0-.01.002-.018.004-.026l.003-.007 1.666 1.106C61.072 50.673 60.032 49 58.52 49v2zm-45.027-.08.003.007a.094.094 0 0 1 .004.026.067.067 0 0 1-.007.033.029.029 0 0 1-.01.01.03.03 0 0 1-.008.004h.005v-2c-1.512 0-2.552 1.673-1.653 3.026l1.666-1.106zm.9 4.424A1.98 1.98 0 0 0 15.87 56v-2h.002a.034.034 0 0 1 .011.01l-1.49 1.334z"/><path fill="none" stroke="#000" stroke-linecap="round" stroke-width="2" d="M51 45h4.5a5.5 5.5 0 1 0 0-11H53"/></svg>