<svg viewBox="0 0 72 72" xmlns="http://www.w3.org/2000/svg"><g fill="none" stroke="#000" stroke-linecap="round" stroke-width="2"><path stroke-linejoin="round" d="M24.312 40.898a3.786 3.786 0 0 1-3.5-4v-7a3.531 3.531 0 1 1 7 0v7a3.786 3.786 0 0 1-3.5 4z"/><path stroke-miterlimit="10" d="M53.31 51.072V40.729c-.164-2.228-1.784-4.537-4.814-4.537m0 .006h-8.29c-1.711-.12-3.188 1.413-3.315 3.442.151 2.076 1.546 3.716 3.296 3.878l.87.115c1.812.238 3.295 1.32 3.295 2.401v2.4c-1.785.45-3.437 1.454-4.788 2.91"/><path stroke-miterlimit="10" d="M20.78 53.06c1.059 8.458 7.913 14.737 15.95 14.612 8.957 0 16.58-6.72 16.58-16.6l-.002-.001m-9-42.699v14.989M52.683 8.58v24.819M44.308 8.372c0-5.875 8.375-5.188 8.375.208"/><path stroke-linejoin="round" d="M32.749 40.76c-3.322 1.228-4.997-1.934-4.875-4v-7a3.531 3.531 0 1 1 7 0"/><path stroke-linejoin="round" d="M34.937 34.126v-5.318a3.531 3.531 0 1 1 7 0l.03 3.504"/><path stroke-miterlimit="10" d="M20.78 53.06c-.08-1.512 0-8.94 0-8.94"/></g></svg>