<svg viewBox="0 0 72 72" xmlns="http://www.w3.org/2000/svg"><path d="M58.874 25.607a25.133 25.133 0 0 0-5.249-7.655 24.84 24.84 0 0 0-7.616-5.21.514.514 0 0 0-.174-.067 24.379 24.379 0 0 0-7.18-1.914 23.992 23.992 0 0 0-2.775-.154c-.058 0-.106 0-.154.01-.252 0-.493.01-.687.019-.058 0-.116 0-.174.01a18.13 18.13 0 0 0-1.778.144C20.92 12.124 11.292 22.272 10.78 34.663a.913.913 0 0 0-.01.28c-.019.271-.019.532-.019.803 0 3.421.686 6.736 2.03 9.858.029.087.067.184.116.26a24.707 24.707 0 0 0 3.557 5.78c.106.146.212.281.338.407.406.493.85.966 1.305 1.42a19.9 19.9 0 0 0 1.41 1.325 24.55 24.55 0 0 0 6.244 3.923 24.75 24.75 0 0 0 10.13 2.146c.048 0 .096-.01.145-.01.183 0 .357-.01.512-.019a25.19 25.19 0 0 0 15.706-6.05 24.882 24.882 0 0 0 2.841-2.87c.01-.01.02-.01.02-.02.028-.039.057-.068.087-.116.01-.02.028-.039.038-.058 3.557-4.292 5.616-9.694 5.76-15.3.01-.232.01-.464.01-.696 0-3.518-.715-6.93-2.126-10.119zm-3.876 24.897-.01-.01.03-.028-.02.038zm4.06-14.169a23.173 23.173 0 0 1-3.712 11.966 17.783 17.783 0 0 1-1.112 1.575 19.955 19.955 0 0 1-1.246 1.488c-.435.484-.89.948-1.373 1.383a17.53 17.53 0 0 1-.628.57 23.288 23.288 0 0 1-14.536 5.596c-.165.01-.348.01-.522.01-.068 0-.136 0-.203.01-.735 0-1.46-.04-2.185-.117a22.797 22.797 0 0 1-7.016-1.865 22.628 22.628 0 0 1-5.76-3.624 12.158 12.158 0 0 1-.668-.59c-.203-.203-.415-.406-.628-.628a17.933 17.933 0 0 1-.725-.764 19.84 19.84 0 0 1-1.247-1.479 19.448 19.448 0 0 1-1.111-1.585 21.329 21.329 0 0 1-1.75-3.238c0-.019-.01-.029-.01-.038a.316.316 0 0 0-.038-.087 22.803 22.803 0 0 1-1.904-9.172c0-.252 0-.493.02-.803 0-.019.01-.048.01-.067v-.02c.405-11.375 9.152-20.731 20.267-22.113a18.198 18.198 0 0 1 1.933-.155c.029-.01.058-.01.087-.01.02 0 .048 0 .077-.01.242-.019.483-.019.725-.019.077 0 .155 0 .222-.01.28 0 .551.01.822.03a18.31 18.31 0 0 1 1.933.154c2.165.261 4.272.841 6.282 1.72.02.01.058.02.087.03a22.917 22.917 0 0 1 7.114 4.852 23.122 23.122 0 0 1 4.842 7.065 22.884 22.884 0 0 1 1.952 9.945z"/><path d="m54.988 50.495.01.01.02-.04-.03.03zM32.98 14.685c-10.07 1.373-17.947 9.878-18.334 20.21 0 .068-.01.145-.01.213-.019.164-.019.396-.019.638 0 2.919.59 5.74 1.75 8.399l.058.145a20.762 20.762 0 0 0 2.57 4.359l1.499-1.237L32.98 37.225l1.933-1.585V14.52a20.83 20.83 0 0 0-1.933.164zm0 20.046L19.402 45.817a19.35 19.35 0 0 1-1.188-2.262c-.03-.068-.049-.126-.078-.184a18.915 18.915 0 0 1-1.585-7.625c0-.184 0-.387.01-.484.01-.106.01-.203.02-.309.357-9.298 7.383-16.962 16.4-18.306v18.084zM16.792 52.05a.767.767 0 0 1-.338-.405c.106.145.212.28.338.406zm38.399-.27-.058.087-.029.029c.03-.039.058-.068.087-.116z"/><path d="m55.017 50.466-.019.038-.01-.01.03-.028zm-20.683-11.84-1.353 1.092L21.74 48.9l-1.499 1.227c.194.213.387.416.59.619.27.28.532.522.783.754.135.126.26.241.396.348a20.966 20.966 0 0 0 5.287 3.334 20.724 20.724 0 0 0 5.683 1.614 16.01 16.01 0 0 0 1.933.174V38.143l-.58.483zm-1.353 16.208a18.713 18.713 0 0 1-4.92-1.43c-1.7-.735-3.305-1.75-4.803-3.035-.039-.039-.087-.068-.126-.116l9.849-8.041v12.622zm17.011-5.914L38.78 39.765l-1.401-1.14-.532-.445v18.78a18.4 18.4 0 0 0 1.933-.175 21.468 21.468 0 0 0 10.95-4.938c.126-.107.252-.223.377-.339.493-.435.957-.898 1.382-1.372l-1.497-1.218zm-1.518 1.459a19.516 19.516 0 0 1-9.694 4.455V42.26l9.81 8.012c-.039.039-.077.068-.116.107zm6.862-23.206a21.135 21.135 0 0 0-4.446-6.486 21.04 21.04 0 0 0-6.456-4.417 87.56 87.56 0 0 1-.145-.058 20.785 20.785 0 0 0-5.509-1.536 16.122 16.122 0 0 0-1.933-.174v21.186l1.933 1.575L51.248 47.44l1.498 1.218c.387-.512.764-1.044 1.092-1.595a21.082 21.082 0 0 0 3.286-10.776v-.097c.01-.145.01-.31.01-.464 0-2.977-.61-5.857-1.798-8.553zm-.135 8.91c-.01.05-.01.098-.01.156a19.29 19.29 0 0 1-2.851 9.597L38.78 34.77V16.628a18.63 18.63 0 0 1 4.745 1.363c.059.02.117.048.175.068 2.174.956 4.136 2.3 5.827 3.991a19.403 19.403 0 0 1 4.04 5.906 19.091 19.091 0 0 1 1.634 7.77v.358z"/></svg>