<svg viewBox="0 0 72 72" xmlns="http://www.w3.org/2000/svg"><path d="M32.261 26.836 31 28.906l-10-6 2.994-5.047a5.002 5.002 0 0 1 6.206-1.414c.49.247.889.645 1.172 1.115L37 26.906l-1.904 1.252 8.904.748 5-8-2 1-3-5-.097-.163c-.487-.817-1.121-.83-1.86-.83l-7.092-.006M14.734 35.766c-1.014 2.229-.262 4.76 1.876 5.715 0 0 .748-.005.757-.001h.091l9.908.03 3.601-.03.174 11.661-5.927.02h-1.776c-.772 0-1.338.033-1.795-.801l-.09-.167-3.662-6.784m-3.157-9.643 3.026-4.984-1.817-1.304 9.409.696L28 37.906l-2-1-.463.66m16.79.184-1.212-2.108 10.072-5.88 2.984 5.053a5.002 5.002 0 0 1-1.747 6.122c-.452.31-.994.468-1.541.49l-11.27.064v-2.214l-4.753 7.76 4.607 8.234.048-2.126 5.748.008h.289c.95-.035 1.285-.93 1.64-1.578l3.336-6.067" fill="none" stroke="#000" stroke-linecap="round" stroke-linejoin="round" stroke-miterlimit="10" stroke-width="2"/></svg>