<svg viewBox="0 0 72 72" xmlns="http://www.w3.org/2000/svg"><path fill="none" stroke="#000" stroke-linecap="round" stroke-linejoin="round" stroke-miterlimit="10" stroke-width="2" d="M24.13 44.848h-1.8a1.957 1.957 0 1 1 0-3.915h12.444a6.291 6.291 0 1 0 0-12.583h-2.937"/><path fill="none" stroke="#000" stroke-linecap="round" stroke-linejoin="round" stroke-miterlimit="10" stroke-width="2" d="M31.837 32.544h3.076a1.957 1.957 0 1 1 0 3.915H22.05a6.291 6.291 0 1 0 0 12.583h2.08"/><path fill="none" stroke="#000" stroke-linecap="round" stroke-linejoin="round" stroke-width="2" d="M24.066 32.544h-4.77c-3.444 0-6.448-2.654-6.551-6.097a6.292 6.292 0 0 1 6.288-6.485H35.88a2.072 2.072 0 0 0 1.89-1.609 6.573 6.573 0 0 1 6.397-5.062"/><path fill="none" stroke="#000" stroke-linecap="round" stroke-linejoin="round" stroke-width="2" d="M53.129 19.883c0 4.333-7.5 4.5-7.5 4.5l-9.034.048-.212.004H19.417c-.975 0-1.878.667-2.035 1.629a1.959 1.959 0 0 0 1.93 2.286h4.754"/><path fill="none" stroke="#000" stroke-linecap="round" stroke-linejoin="round" stroke-width="1.8" d="M44.167 13.291c3.628 0 8.962 2.964 8.962 6.592"/><path fill="none" stroke="#000" stroke-linecap="round" stroke-miterlimit="10" stroke-width="2" d="M50.98 23.838s3.794 4.054 7.586 4.577m-.497 0 4.838-2.223m-3.792 6.8-1.046-4.577"/><path fill="none" stroke="#000" stroke-linecap="round" stroke-linejoin="round" stroke-width="2" d="M28.065 58.237v4.725m0-21.104v10.019m0-26.479v10.178m0-20.538v3.843"/><circle cx="28.065" cy="12.038" r="3"/><path fill="none" stroke="#000" stroke-linecap="round" stroke-linejoin="round" stroke-miterlimit="10" stroke-width="2" d="M32.02 44.848h.269c3.411 0 6.317 2.653 6.438 6.062a6.292 6.292 0 0 1-6.288 6.52H21.394h0a6.104 6.104 0 0 1 3.063-4.161h0a2.557 2.557 0 0 1 1.225-.312h6.256c1.072 0 2.006-.826 2.038-1.897a1.957 1.957 0 0 0-1.956-2.018"/></svg>