<svg viewBox="0 0 72 72" xmlns="http://www.w3.org/2000/svg"><g fill="none" stroke="#000" stroke-miterlimit="10" stroke-width="2"><path stroke-linejoin="round" d="M18.412 36c-6.16-4.8-9.46-9.53-8.077-12.435 1.57-3.3 8.693-3.405 17.792-.802M54.565 36c6.16 4.8 9.46 9.53 8.077 12.435-1.57 3.3-8.693 3.405-17.804.802a76.329 76.329 0 0 1-8.344-2.952 75.65 75.65 0 0 1-4.044-1.79 89.359 89.359 0 0 1-5.171-2.673"/><path stroke-linecap="round" stroke-linejoin="round" d="M44.092 53c-1.7 7.251-4.474 11.96-7.61 11.96-3.648 0-6.81-6.38-8.355-15.723l-.484-2.346m1.284-28.101c1.709-7.132 4.451-11.75 7.556-11.75 3.649 0 6.798 6.38 8.355 15.724"/><path stroke-linejoin="round" d="M28.127 22.764c2.65.755 5.462 1.743 8.367 2.951m8.344 23.521a76.329 76.329 0 0 1-8.344-2.951 75.65 75.65 0 0 1-4.044-1.79 89.359 89.359 0 0 1-5.171-2.673"/><path stroke-linecap="round" stroke-linejoin="round" d="M45.868 34.35a85.73 85.73 0 0 1-.181 7.484c-.054.857-.12 1.7-.2 2.528m-21.769 5.955c-6.937 1.394-12.078.854-13.383-1.882-1.106-2.323.782-5.812 4.731-9.57"/><path stroke-linejoin="round" d="M27.134 41.74c-3.289-1.846-6.237-3.793-8.722-5.74m8.867 5.822a94.588 94.588 0 0 1-.145-.081"/><path stroke-linecap="round" stroke-linejoin="round" d="M44.838 22.764c.138.803.263 1.63.375 2.477m3.917-3.535c7-1.426 12.2-.902 13.512 1.86 1.063 2.234-.644 5.549-4.292 9.144M54.565 36c-2.522-1.964-5.52-3.94-8.878-5.822"/><path stroke-linejoin="round" d="M45.687 30.178c3.358 1.882 6.356 3.858 8.878 5.822"/><path stroke-linecap="round" stroke-linejoin="round" d="M41.666 43.947c-.282.14-.568.279-.858.415"/><path stroke-linejoin="round" d="M36.494 25.715a91.833 91.833 0 0 1 4.033 1.802 82.302 82.302 0 0 1 5.16 2.66"/><path stroke-linecap="round" stroke-linejoin="round" d="M27.09 36.722a152.3 152.3 0 0 1 .189-9.427"/><path stroke-linejoin="round" d="M36.494 46.285a75.65 75.65 0 0 1-4.044-1.79 89.359 89.359 0 0 1-5.171-2.673"/><circle cx="36.826" cy="36.327" r="3.263"/><path stroke-linecap="round" stroke-linejoin="round" d="M31.61 48.364s.338-.06.97-.329m17.122-8.068s1.404-.897 1.646-1.103M31.707 27.295c-.283.143-.566.291-.849.443m-8.637 5.029s.228-.238.814-.589m16.717-8.976s1.615-.59 1.945-.661"/></g></svg>