<svg viewBox="0 0 72 72" xmlns="http://www.w3.org/2000/svg"><g fill="none" stroke="#000" stroke-linecap="round" stroke-linejoin="round" stroke-width="1.908"><path d="M38.36 53.301c.719 2.888 1.936 3.03 1.936 6.216 0 4.522-4.213 6.974-4.213 6.974l-.016.009-.015-.009s-4.213-2.452-4.213-6.974c0-3.185 1.216-3.328 1.936-6.214m.005-10.405c-1.782-7.103-7.612-13.29-7.612-19.588 0-7.433 9.884-17.794 9.884-17.794l.015-.016.016.016s9.884 10.36 9.884 17.794c0 6.298-5.83 12.485-7.612 19.588"/><path d="M42.398 42.898c2.107-3.01 5.677-5.88 8.498-5.88 4.28 0 5.43 1.93 5.43 3.77a19.467 19.467 0 0 1-1.303 5.138s8.64-.46 8.64-6.9-5.113-9.282-10.787-9.282c-4.877 0-12.547 4.299-14.521 13.154m.005 10.403c2.18 6.604 9.302 5.157 9.302 5.157a5.732 5.732 0 0 0 4.6-6.21 10.232 10.232 0 0 1-5.98 1.917 6.105 6.105 0 0 1-3.322-.861m-9.185-.001c-2.18 6.601-9.202 5.155-9.202 5.155a5.732 5.732 0 0 1-4.6-6.21 10.232 10.232 0 0 0 5.98 1.917 6.106 6.106 0 0 0 3.321-.86m.563-10.407c-2.107-3.01-5.678-5.88-8.498-5.88-4.28 0-5.43 1.93-5.43 3.77a19.467 19.467 0 0 0 1.303 5.138s-8.641-.46-8.641-6.9 5.114-9.282 10.788-9.282c4.877 0 12.447 4.298 14.42 13.153m11.893 7.099H26.589m0-3.543h19.083"/></g></svg>