<svg viewBox="0 0 72 72" xmlns="http://www.w3.org/2000/svg"><g fill="none" stroke="#000" stroke-linecap="round" stroke-linejoin="round" stroke-miterlimit="10" stroke-width="2"><circle cx="36" cy="35.958" r="29"/><path d="M56.494 56.518c-5.28-5.252-8.548-12.524-8.548-20.56 0-8.008 3.246-15.258 8.494-20.506m-40.907 0c5.248 5.248 8.494 12.498 8.494 20.506a28.852 28.852 0 0 1-8.517 20.528"/><path d="m45.946 35.458 2 1 2-1m-23.919 1-2-1-2 1m3.176 6.874-1.779-1.356-2.151.61m1.728 6.869-1.478-1.678-2.23.176m.305 6.694-.773-2.099-2.143-.64m3.588-34.112-2.15.615-.798 2.089m6.166 3.043-2.199.109-1.286 1.854m5.472 4.249-2.205-.374-1.622 1.539m25.122-2.336 1.78 1.356 2.15-.61m-1.728-6.869 1.478 1.678 2.23-.176m-.18-6.845.772 2.098 2.143.64m-3.87 34.056 2.15-.615.797-2.09m-6.01-2.778 2.234-.11 1.251-1.854m-5.468-4.304 2.204.374 1.622-1.539"/></g></svg>