<svg viewBox="0 0 72 72" xmlns="http://www.w3.org/2000/svg"><path fill="none" stroke="#000" stroke-miterlimit="10" stroke-width="2" d="M43.29 9.108v14.547a15.278 15.278 0 0 1-14.858 0V8.888"/><path fill="none" stroke="#000" stroke-linecap="round" stroke-miterlimit="10" stroke-width="2" d="M16.825 30.71c0-8.379 4.7-18.365 11.425-21.517a17.873 17.873 0 0 1 7.611-1.698c10.514 0 19.037 9.146 19.037 20.43 0 .437.025 2.354 0 2.785m-36.68 10.68s.929 21.357 17.643 21.357S53.505 41.39 53.505 41.39"/><g fill="none" stroke="#000" stroke-linecap="round" stroke-miterlimit="10" stroke-width="2"><path d="M59.67 30.311c.026.004 3.86-.21 4.05 2.72.066 1.04-.503 2.633-3.12 3.255A136.346 136.346 0 0 1 35.9 38.6"/><path d="M12.144 30.311c-.025.004-3.86-.21-4.048 2.72-.067 1.04.502 2.633 3.12 3.255a136.346 136.346 0 0 0 24.7 2.315"/></g><path fill="none" stroke="#000" stroke-linecap="round" stroke-linejoin="round" stroke-width="2" d="M27.504 32.103a86.418 86.418 0 0 0 16.715 0"/><path fill="none" stroke="#000" stroke-linecap="round" stroke-miterlimit="10" stroke-width="4" d="M28.433 60.922s7.428 4.675 14.857 0"/><path d="M28.948 8.888s8.354-3.382 14.134.166l.208 14.692s-7.429 4.643-14.858 0z"/></svg>