<svg viewBox="0 0 72 72" xmlns="http://www.w3.org/2000/svg"><g fill="none" stroke="#000" stroke-linecap="round" stroke-linejoin="round" stroke-miterlimit="10" stroke-width="2"><path d="M39.547 57.998a4.247 4.247 0 1 1-8.494 0v-2.183a4.247 4.247 0 0 1 8.494 0v2.184z"/><path d="M42.693 58.807a7.392 7.392 0 1 1-14.785 0v-3.802a7.392 7.392 0 1 1 14.785 0v3.802zm-3.146-21.623a4.247 4.247 0 1 1-8.494 0v-2.183a4.247 4.247 0 0 1 8.494 0v2.184z"/><path d="M42.693 37.993a7.392 7.392 0 1 1-14.785 0v-3.802a7.392 7.392 0 1 1 14.785 0v3.802zM39.547 16.37a4.247 4.247 0 1 1-8.494 0v-2.184a4.247 4.247 0 0 1 8.494 0v2.184z"/><path d="M42.693 17.18a7.392 7.392 0 1 1-14.785 0v-3.802a7.392 7.392 0 1 1 14.785 0v3.801zM35.5 38.892V54m0-36.069v15.108"/></g></svg>