<svg viewBox="0 0 72 72" xmlns="http://www.w3.org/2000/svg"><g fill="none" stroke="#000" stroke-width="2"><path stroke-linecap="round" stroke-linejoin="round" d="M11.573 26.675s12.653-19.233 34.283-8.642 9.68 38.397 8.642 34.283-4.293-2.564-4.293-2.564-2.408-3.769-8.584-5.128"/><path stroke-miterlimit="10" d="M17.582 30.265a11.97 11.97 0 0 1 9.444 5.64c10.123 2.553 14.595 8.719 14.595 8.719"/><path stroke-linecap="round" stroke-linejoin="round" d="M27.026 35.906a33.14 33.14 0 0 1 18.76-17.85c.026-.009.018-.044-.007-.055C33.065 12.77 18.312 29.43 17.61 30.235c-.01.012-.024.001-.024-.014.083-2.204-6.012-3.546-6.012-3.546M41.62 44.624c10.197-15.867 5.053-25.274 4.32-26.464a.022.022 0 0 1 .033-.027c1.367 1.213 14.11 13.237 4.233 31.618"/><path stroke-linecap="round" stroke-miterlimit="10" d="m22.099 59.754 12.479-20.89M47.74 16.829l-1.026 1.717"/></g></svg>