<svg viewBox="0 0 72 72" xmlns="http://www.w3.org/2000/svg"><g fill="none" stroke="#000" stroke-linecap="round" stroke-linejoin="round" stroke-width="2"><path d="M67.015 66.713H4.985V53.32A75.625 75.625 0 0 0 36 60.016a75.504 75.504 0 0 0 31.015-6.696zM16 38.867a58.01 58.01 0 0 0 20.41 3.367A57.997 57.997 0 0 0 56 38.484m-27.43-7.01a21.163 21.163 0 0 0 14.617-.14"/><path d="M16 38.867a22.456 22.456 0 0 1 15.025 20.408M56 38.484a22.456 22.456 0 0 0-15.025 20.408M28.57 31.498a13.081 13.081 0 0 1 2.643 3.383 13.33 13.33 0 0 1 1.585 6.554m10.292-9.937a13.084 13.084 0 0 0-2.643 3.383 13.332 13.332 0 0 0-1.585 6.554"/><path d="M54.232 35.82v-3.673a4.088 4.088 0 0 1 8.176 0V50.91M39.182 26.727v-9.971a4.088 4.088 0 0 1 8.176 0v18.763m-29.905.301v-3.673a4.088 4.088 0 1 0-8.177 0V50.91m23.227-24.183v-9.971a4.088 4.088 0 1 0-8.177 0v18.763"/></g></svg>