<svg viewBox="0 0 72 72" xmlns="http://www.w3.org/2000/svg"><g fill="none" stroke="#000" stroke-linecap="round" stroke-linejoin="round" stroke-miterlimit="10" stroke-width="2"><path d="M17.003 68c0-5.625-.541-10.332 8.162-11.632.192 2.517 2.272 3.507 4.838 3.507s4.647-.99 4.838-3.507c8.704 1.3 8.412 6.007 8.412 11.632h-26.25zm15-61.118V6c0-1.1-.9-2-2-2h0c-1.1 0-2 .9-2 2v.882"/><path d="M28.003 28.75v30.883s1.847.547 4 0V28.75m-3.998-4.01h3.998l21.064-4.991h-.001c1.082-.33 1.937-.867 1.937-1.937s-.914-1.643-1.937-1.938l-21.063-4.99h-4l.002 13.857z"/></g></svg>