<svg viewBox="0 0 72 72" xmlns="http://www.w3.org/2000/svg"><g fill="none" stroke="#000" stroke-linecap="round" stroke-linejoin="round"><path stroke-width="2.152" d="M64.8 18v6.6h-3.7V18z"/><path stroke-width="2" d="M56.8 18.9v5.7h-3.7v-5.7z"/><path stroke-width="2.904" d="M47 36.241h18.4"/><path stroke-width="2" d="M32 44.4s10.4 6.8 12.7 22.2a1.077 1.077 0 0 0 1 .8H67m0-26.8H33l-1 3.3h35m-1.397-3.3-18.482-.092a1.47 1.47 0 0 1-.965-.273l-7.136-7.33 28 .14"/><path stroke-width="3" d="M46 28.662h18.4"/><path stroke-width="2" d="M67 33H42v-8h25"/><path stroke-miterlimit="10" stroke-width="2" d="M5 55.003c1.548.386 4.99.95 6.972.95 1.982 0 5.827-2.072 10.33-2.204s7.022 2.124 10.208 2.45c3.186.327 5.691-1.237 7.697-1.237"/></g></svg>