<svg viewBox="0 0 72 72" xmlns="http://www.w3.org/2000/svg"><g fill="none" stroke="#000" stroke-linecap="round" stroke-linejoin="round" stroke-width="2.185"><path d="M15.949 53.914a5.265 5.265 0 0 1-3.43 2.467m26.347-1.424a3.491 3.491 0 0 1-2.506 1.29H25.863A4.134 4.134 0 0 1 21.75 53.8m26.857-15.048A12.992 12.992 0 0 1 41.36 34.5l-2.79 2.219 2.79-2.22a23.986 23.986 0 0 1-3.08-4.19l-3.651 1.68 3.65-1.68a28.424 28.424 0 0 1-2.258-4.826l-4.413.99 4.414-.99a19.63 19.63 0 0 1-.246-.728c-.974-3.112-2.333-12.83-2.333-12.83l-18.662 3.499s1.167 8.164 0 12.83-3.499 8.164-2.332 12.83l10.497 2.333s13.996 5.831 16.329 5.831c4.665 0 19.828-1.166 19.828-1.166 0-6.998-3.5-8.165-10.497-9.331zm7.15 15.589a2.59 2.59 0 0 1-2.485 1.906H47.44a3.868 3.868 0 0 1-3.22-1.313"/><path d="M7.784 59.746h44.322c5.831 0 6.752-1.581 7.29-2.257a4.476 4.476 0 0 0 .633-3.96 8.639 8.639 0 0 0-.174-.617m-46.812-7.336.591 4.73h9.331v-2.552"/></g></svg>