<svg viewBox="0 0 72 72" xmlns="http://www.w3.org/2000/svg"><g fill="none" stroke="#000" stroke-width="2"><circle cx="17.506" cy="40.286" r="4.766" stroke-miterlimit="10"/><circle cx="27.247" cy="13.324" r="3" stroke-miterlimit="10"/><path stroke-linecap="round" stroke-linejoin="round" d="M31.883 29.317s.39.982.643 1.874a6.99 6.99 0 0 1-.102 4.432s-3.94 7.846-3.94 8.895l-.519 11.748a1.745 1.745 0 0 0 1.62 1.906 2.216 2.216 0 0 0 1.907-1.906l1.334-9.533c.191-1.049 3.623-6.292 4.385-6.959l2.765-2.288a5.81 5.81 0 0 0 1.038-3.039 5.985 5.985 0 0 0-.48-3.526l-4.848-8.973"/><path stroke-linecap="round" stroke-linejoin="round" d="M41.085 34.874s3.691 8.448 4.878 9.534c1.26 1.152 8.217 5.185 8.217 5.185a2.286 2.286 0 0 1 1.144 2.383 1.52 1.52 0 0 1-2.193.667s-10.177-4.718-11.153-5.529c-1.087-.903-4.742-6.36-4.742-6.36m-1.549-18.806c-1.907-3.813-4.29-4.044-5.815-3.472a2.24 2.24 0 0 0-1.17 1.9m2.218 1.572s-1.514 6.384-1.797 6.697c-.241.266-7.294 3.903-7.294 3.903m8.418-22.096s.425-.503.874-.385c.528.138 1.335 1.198 2.024 1.5a3.363 3.363 0 0 0 2.16.215"/></g></svg>