<svg viewBox="0 0 72 72" xmlns="http://www.w3.org/2000/svg"><g fill="none" stroke="#000" stroke-linecap="round" stroke-linejoin="round" stroke-miterlimit="10" stroke-width="2"><path d="M29.584 39.621c3.058-6.88 6.652-14.644 7.8-16.865 2.07-4.012 5.733-10.19 12.54-11.194l-12.66 30.554"/><path d="M41.462 50.976a9.082 9.082 0 0 0-5.791-5.034l1.593-3.826-7.68-2.495c-2.506 5.64-4.88 11.216-5.092 12.265-.362 1.787-.617 4.374.338 6.513a9.107 9.107 0 0 0 16.632-7.423zm-3.55 4.736a4.553 4.553 0 1 1-8.878-2.027 4.553 4.553 0 0 1 8.878 2.027zM26.373 38.237a9.077 9.077 0 0 0-4.915-5.41 9.107 9.107 0 0 0-7.423 16.633c2.14.955 4.726.7 6.513.338.293-.059.898-.27 1.742-.597m-3.541-3.945a4.553 4.553 0 1 1-2.027-8.878 4.553 4.553 0 0 1 2.027 8.878zm27.876-14.909 14.247-5.982c-1.004 6.808-7.182 10.47-11.194 12.542-1.312.677-3.311 1.693-7.165 3.463"/></g></svg>