<svg viewBox="0 0 72 72" xmlns="http://www.w3.org/2000/svg"><g fill="none" stroke="#000" stroke-linejoin="round" stroke-width="2"><path stroke-linecap="round" d="m48.372 36.082 3.243 19.472a7 7 0 0 1-1.955 6.1l-3.578 3.578-6.534-20.824M27.223 32.2 6.564 25.718l3.578-3.578a7 7 0 0 1 6.1-1.955l19.472 3.243"/><path d="m56.142 18.469-.158-.585a3.05 3.05 0 0 0-2.119-2.142l-.579-.159a5.142 5.142 0 0 0-5.24 1.074L19.191 45.465l-6.339-.842L7.6 49.935l9.964 4.3 4.117 10.206 5.371-5.428-.747-6.428 28.8-28.795a5.314 5.314 0 0 0 1.037-5.321z"/></g></svg>