<svg viewBox="0 0 72 72" xmlns="http://www.w3.org/2000/svg"><g fill="none" stroke="#000" stroke-linecap="round" stroke-width="2"><path stroke-linejoin="round" d="M43.741 34.99v-2.334c0-1.1-1.789-2.2-3.976-2.44l-1.049-.118c-2.187-.242-3.976-1.85-3.976-3.774s1.8-3.334 4-3.334h10a4.164 4.164 0 0 1 4.235 3.826l.657 11.213m-15.669.026c1.63-1.48 3.624-2.5 5.777-2.958"/><path stroke-miterlimit="10" d="M16.776 39.479c1.199 9.03 8.965 15.732 18.073 15.598 10.149 0 18.785-7.174 18.785-17.72"/><path stroke-linejoin="round" d="M16.776 39.479v-3.521m3.532-2.993a3.786 3.786 0 0 1-3.5-4v-7a3.531 3.531 0 1 1 7 0v7a3.786 3.786 0 0 1-3.5 4z"/><path stroke-linejoin="round" d="M28.744 31.827c-3.322 1.227-4.997-1.934-4.874-4v-7a3.531 3.531 0 1 1 7 0"/><path stroke-linejoin="round" d="M30.932 24.466v-5.318a3.531 3.531 0 1 1 7 0"/><path stroke-linejoin="round" d="M37.995 19.148a3.531 3.531 0 1 1 7 0"/></g></svg>