<svg viewBox="0 0 72 72" xmlns="http://www.w3.org/2000/svg"><g fill="none" stroke="#000" stroke-linecap="round" stroke-linejoin="round" stroke-width="2"><path stroke-miterlimit="10" d="m10.632 52.621 2.324-20.396c0-.842.187-1.591 1.07-2.07l17.179-8.72"/><path stroke-miterlimit="10" d="m19.542 39.496.66-3.954c.066-.542.606-1.35.998-1.509l2.108-.844m2.755 2.599L45.9 6.237l4.301 2.847-16.47 25.105M15.552 56.775l-2.036 2.764-4.776 5.334L11.494 58l2.04-3.039m30.17-28.709s12.626 6.014 16.35 8.781c6.417 4.77 5.653 14.82 0 20.472-4.527.495-8.148 2.034-18.217 2.034"/><path d="M29.078 55.939c.607 3.229-4.422 4.787-5.094.133"/><path d="M34.011 55.79c.639 3.215-4.287 4.133-4.933.149"/><path d="M39.05 55.395c.66 3.216-4.363 3.651-5.039.396"/><path stroke-miterlimit="10" d="m39.05 55.395-.594-2.782m-4.445 3.178-1.002-4.557m-3.931 4.705-.623-3.077m-4.471 3.21-.093-.677m32.906-3.156c-13.047 2.788-14.96-3.412-21.214-4.352-5.087-1.055-10.79 2.25-12.74 3.86-4.443 4.284-10.263-1.57-4.764-5.688 0 0 5.009-4.692 7.255-5.73 2.183-1.007 9.551-2.124 9.551-2.124"/></g></svg>