<svg viewBox="0 0 72 72" xmlns="http://www.w3.org/2000/svg"><g fill="none" stroke="#000" stroke-linecap="round" stroke-linejoin="round"><path stroke-width="1.869" d="M15.1 56.846c5.985-5.985 5.319-23.441 5.319-23.441s10.043-2.446 16.094-6.729"/><path stroke-width="1.869" d="M15.1 56.846c5.985-5.985 23.441-5.319 23.441-5.319s2.446-10.043 6.728-16.095"/><circle cx="36.07" cy="35.876" r="3" stroke-width="1.974"/><path stroke-width="2" d="m15.1 56.846 18.851-18.851M48.972 10.28l-9.557 9.557a1.745 1.745 0 0 0-.155 2.29l-1.134 1.131a.795.795 0 0 0 .03 1.123l9.409 9.409a.795.795 0 0 0 1.123.03l1.13-1.135a1.745 1.745 0 0 0 2.29-.154l9.557-9.557"/></g></svg>