<svg viewBox="0 0 72 72" xmlns="http://www.w3.org/2000/svg"><g fill="none" stroke="#000" stroke-width="2"><path stroke-linecap="round" stroke-linejoin="round" d="M51.055 38.55a8 8 0 0 0-15.04-3.802 8 8 0 1 0-13.267 8.819l-.003.002 2.946 3.651m8.771 10.87 1.553 1.925 6.285-7.79"/><path stroke-linecap="round" stroke-linejoin="round" d="M19.63 32.184a20.773 20.773 0 0 1 3.124-10.434c.372 5.052 2.761 5.242 4.132 5.242 1.023 0 2.301-1.906 2.435-4.012a10.242 10.242 0 0 1 3.245-6.35 1.883 1.883 0 0 0 .823.198c1.15 0 3.004-1.075 1.483-9.128 0 0 11.302 6.575 10.877 17.463a1.425 1.425 0 0 0 1.441 1.409h.018a1.813 1.813 0 0 0 .207-.002 4.181 4.181 0 0 0 3.189-1.85 12.724 12.724 0 0 1 1.731 6.704"/><path stroke-miterlimit="10" d="M32.462 54.23a4.458 4.458 0 0 0 .926-3.814c-.244-1.92-1.758-4.84-3.725-5.268-.486-.106.71 2.374-.329 4.153-1.126 1.93-2.057 2.9-1.533 4.881.538 2.035 3.744 3.785 3.874 3.218a1.534 1.534 0 0 0-.05-.545 3.469 3.469 0 0 1 .837-2.625m13.761-17.959c.6-.225-.54 2.822 1.047 4.593 1.721 1.92 3.05 2.808 2.686 5.147-.373 2.403-4.17 5.068-4.422 4.46a1.557 1.557 0 0 1-.02-.623 3.504 3.504 0 0 0-1.458-2.765 4.513 4.513 0 0 1-1.754-4.081c.017-2.21 1.492-5.819 3.921-6.73z"/></g></svg>