<svg viewBox="0 0 72 72" xmlns="http://www.w3.org/2000/svg"><g fill="none" stroke="#000" stroke-linecap="round" stroke-linejoin="round"><path stroke-width="2" d="M24.187 45.693 36 60.335l19.377-24.017m-4.911-21.535A12.042 12.042 0 0 0 47 14.295a12.497 12.497 0 0 0-11 6.56 12.497 12.497 0 0 0-11-6.56c-5.583 0-9.99 2.77-11.595 7.822"/><path stroke-width="2.066" d="m42.668 33.947 15.558-1.49a1.848 1.848 0 0 0 1.496-1.035 12.401 12.401 0 0 0 1.268-5.167M40.712 22.51l-28.21 3.657a1.673 1.673 0 0 0-1.456 1.817 12.944 12.944 0 0 0 2.515 6.605"/><path stroke-width="2.166" d="M15.157 33.88 54.98 16.163a1.851 1.851 0 0 1 2.063.373 13.21 13.21 0 0 1 3.93 8.37 1.873 1.873 0 0 1-1.15 1.838l-38.21 16.042a1.864 1.864 0 0 1-2.2-.583l-4.787-6.23a1.376 1.376 0 0 1 .532-2.095z"/></g></svg>