<svg viewBox="0 0 72 72" xmlns="http://www.w3.org/2000/svg"><g fill="none" stroke="#000" stroke-linecap="round" stroke-linejoin="round" stroke-miterlimit="10" stroke-width="2"><path d="M16.31 22.62c-.264 3.606-4.312 4.375-4.312 4.375l-1 1c-1.304 2.826-5.312.625-5.312-1.438 1.508-3.415 3.062-5.75 3.062-5.75-.125-2.792 3.312-4.625 3.312-4.625l-1.278-1.772c-.436-.568-2.498-4.348-1.785-4.416 1.253-.119 6.042 2.815 7 4.938 0 0 8.865.933 13.96 10.43.238.444 9.877 2.308 16.07.442 4.284-1.29 17.05-2.062 17.28 10.5.117 6.406-.562 9.268 3.688 13.69"/><path d="M59.19 37.02c-.442 1.631-1.221 3.426-2.589 4.642 0 0 1.096 4.786 3.172 6.804l-2.71 9.167-1.062 1.927a1.737 1.737 0 0 1-1.522.899v0c-1.252 0-2.096-1.276-1.594-2.423.968-2.212 2.16-2.956 2.389-8.301 0 0-6.612-3.94-5.632-9.837M17.78 27.49l2.668 5.633s-1.153 6.343 3.287 9.168l2.422 1.557 2.513 9.234.917 3.833-.484 1.213a1.696 1.696 0 0 0 1.576 2.325v0c.712 0 1.349-.445 1.594-1.115l.746-2.045c.24-.658.299-1.368.17-2.056l-1.331-4.089-.16-8.684s7.634 6.18 15.02 2.145M23.51 47.21l.604 4.42-1.74 4.287-.368.92a1.837 1.837 0 0 0 1.706 2.518h0c.734 0 1.397-.436 1.687-1.11l.79-1.83m21.881.805-1.459 1.647a1.738 1.738 0 0 1-1.682.543v0c-1.221-.275-1.764-1.705-1.023-2.714 1.43-1.946 2.756-2.41 4.153-7.574"/></g></svg>