<svg viewBox="0 0 72 72" xmlns="http://www.w3.org/2000/svg"><ellipse cx="17.99" cy="47.92" rx="3.383" ry="3.384" transform="rotate(-24.119)"/><path stroke="#000" stroke-linecap="round" stroke-linejoin="round" stroke-width="2" d="M36 53.88v10.11"/><path fill="none" stroke="#000" stroke-linecap="round" stroke-linejoin="round" stroke-width="1.6" d="M44.48 22.27c1.163-1.679.693-2.78.616-4.199 3.166.363 4.261-1.02 4.414-3.267 2.437.383 6.16-1.887 6.16-1.887s-.836 4.279-.331 6.426c-2.67.526-2.788 2.225-2.438 4.51-1.756-.02-2.938.007-4.015.513"/><path fill="none" stroke="#000" stroke-linecap="round" stroke-linejoin="round" stroke-miterlimit="10" stroke-width="2" d="M35.11 23.08c-8.409-3.817-18.04 6.391-15.28 17.42 2.729 10.89 11.99 10.59 15.47 9.446m3.54-24.516c6.852-3.328 15.7 4.769 13.45 14.38-2.224 9.497-9.767 9.231-12.61 8.241"/></svg>