<svg viewBox="0 0 72 72" xmlns="http://www.w3.org/2000/svg"><g fill="none" stroke="#000" stroke-linecap="round" stroke-linejoin="round" stroke-miterlimit="10" stroke-width="2"><path d="m30.24 67.02 1.179-3.453-3.429-15.46c-8.506 1.177-6.194-11.73-9.872-18.03-1.055-1.766-3.844-1.47-3.844-1.47l-2.65.213a1.772 1.772 0 0 1-1.812-1.175l-.21-.595a1.604 1.604 0 0 1 .795-1.97l9.02-4.51s2.217-.856 3.168 1.52c0 0 1.118-2.698 6.476-.555 0 0-.429 4.072-5.144 4.072M34.92 44.6l.536 4.18s-2.677 3.045-2.143 7.364"/><path d="m25.168 51.18.96 11.48-1.82 4.18m1.542-34.99s.303 1.456 1.776 1.999c15.26-1.156 28.85-1.296 33.28 2.43 2.003 1.773 1.788 4.751 1.03 7.228-.01.034-.868 2.71.544 3.773"/><path d="m49.7 40.59-.857 6.537 4.072 6.122-3.383 10.64-2.35 3.129M58.19 40.59s.972 2.495-2.078 7.229c0 0 .107 3.18 1.393 5.538l-2.036 4.155"/><path d="M38.31 48.92c4.753.51 8.797.815 11.54-.276"/></g></svg>