<svg viewBox="0 0 72 72" xmlns="http://www.w3.org/2000/svg"><g fill="none" stroke="#000" stroke-linecap="round" stroke-linejoin="round" stroke-width="2"><path d="M15.888 31.573 5.405 20.201m27.398 16.431c3.694 3.336 6.496 5.824 16.144 5.396 3.994-.178.854-4.642 3.09-6.684.818-.747 3.475-2.576 4.078-2.176.04.027.072.064.093.11.076.176.013.5-.249 1.022-.69 2.473 2.274 4.48 1.903 6.754-.15.915-.71 1.562-1.136 2.036.856.165 2.503.187 3.21 1.039 1.175 1.514 2 4.147 5.706 4.12-2.966 2.42-6.16 3.106-10.613.062-1.495-.886-2.9-1.024-4.258-.935-14.778.968-23.977 2.78-30.553-1.843m-3.027-3.129a23.55 23.55 0 0 1-2.141-3.089c-3.096-5.26 2.655-12.438 10.354-8.187 1.339.74 2.48 1.487 3.487 2.227"/><path d="M17.281 42.342c-2.972 1.903-4.202 5.12-4.567 9.027-.12 1.293 1.396 2.18 2.565 1.688 3.387-.86 6.392-5.045 4.891-7.527m8.86-12.01c2.416-3.207 6.05-4.001 10.309-3.642 1.294.11 1.9 1.759 1.209 2.822-1.444 3.183-6.094 5.402-8.273 3.487"/></g></svg>