<svg viewBox="0 0 72 72" xmlns="http://www.w3.org/2000/svg"><g fill="none" stroke="#000" stroke-linecap="round" stroke-linejoin="round" stroke-miterlimit="10" stroke-width="2"><path d="M36.334 38c1.284.596 3.032 2.077 2.887 4.904-.201 3.904 3.839.552 3.64-4.904h-6.528z"/><path d="M29.429 39.379C26.431 40.652 23 43.09 20.5 47.75a7.813 7.813 0 0 0-.628 1.736c-1.047 4.048 5.548 2.433 6.65 5.254.403 1.032 1.154 4.168.564 4.587a.254.254 0 0 1-.137.047c-.191.009-.47-.167-.863-.599-2.06-1.534-4.998.511-6.987-.653-.8-.468-1.202-1.224-1.491-1.792-.462.74-1.075 2.269-2.124 2.623-1.836.55-4.589.375-5.897 3.841-1.191-3.636-2.383-6.23 2.06-9.292 1.56-1.057 3.95-2.687 4.008-4.125.009-.183-.416-10.673 5.973-19.1l.008-.004c-1.002-2.04-1.197-4.084-1.453-7.09-.102-1.195 5.764-1.168 9.348.576 16.544-7.191 27.801.326 28.15 6.96 0 0 2.266.86 2.322 3.215.014.558.529 4.067-16.002 4.067h-8s-.132-.007-.373-.003"/><path d="M28.156 35.945c.76.661 2.492 3.56.225 6.503-3.31 4.296 8.064 1.793 7.599-9.2"/></g></svg>