<svg viewBox="0 0 72 72" xmlns="http://www.w3.org/2000/svg"><g fill="none" stroke="#000" stroke-linecap="round" stroke-linejoin="round" stroke-miterlimit="10" stroke-width="2"><path d="M38.29 46.13c28.36-.915 18.3-37.51 17.38-32.93S28.23 44.3 25.48 40.64c-2.744-3.659-6.404-4.574-8.233-1.83-1.83 2.744-2.744 3.659-2.744 3.659s5.489-.915 6.404.915 3.816 7.833 9.148 8.233c0 0 1.821.621 5.489 8.233 4.277 8.876 21.96 0 16.47-4.574-5.489-4.574-9.148-2.744-11.89-4.574-2.744-1.83-1.83-4.574-1.83-4.574z"/><path d="M38.37 26.51c.314-7.019-3.262-24.11-6.481-16.06C28.23 19.598 26.4 22.34 26.4 22.34c-4.348 4.13-5.957 7.228-6.529 9.162"/></g></svg>