<svg viewBox="0 0 72 72" xmlns="http://www.w3.org/2000/svg"><g fill="none" stroke="#000" stroke-linecap="round" stroke-linejoin="round" stroke-width="2"><path stroke-miterlimit="10" d="M34.98 24.01a7.195 7.195 0 0 1 5.507-.004c5.245 2.136 10.97 20.55 9.796 26.09-3.318-.235-8.878-4.857-11.38-6.965a19.448 19.448 0 0 1-5.599-7.051c-1.473-4.584-1.456-10.68 1.68-12.07z"/><path d="m27.85 16.86-4.768 1.915a7.48 7.48 0 0 1-.08-1.038 6.646 6.646 0 0 1 5.725-6.822M52.77 53.42c.435 1.401 1.492 9.806 1.673 11.26.053 1.684-.774 3.102-2.284 2.284-1.291-3.902-3.765-14.54-7.046-16.26M29.56 19.07a3.469 3.469 0 0 1-5.339-.749M34.82 45.62l-.124 6.378M57.09 52H61m-48 .17h29.99"/><path d="M34.82 45.62c-4.047-3.036-6.24-5.806-7.062-11.87-.694-5.112.702-11.28 3.749-12.97-5.671-4.292-2.626-13.33 4.486-13.32a7.576 7.576 0 0 1 7.418 7.114c.12 2.217.073 4.46.035 6.694-.015.923-.03 1.844-.03 2.761v1.705"/><path d="M31.7 20.78c-.087.047-.171.103-.258.154 4.347-.828 5.867-2.954 7.147-6.93-.376-.782-3.25-3.376-7.586-4.006-.125-.018-.274-.02-.408-.03M40.7 48v4"/></g></svg>