<svg viewBox="0 0 72 72" xmlns="http://www.w3.org/2000/svg"><g fill="none" stroke="#000" stroke-miterlimit="10" stroke-width="2"><path d="M45.619 62h12.155A3.226 3.226 0 0 0 61 58.774V15.226A3.226 3.226 0 0 0 57.774 12H14.226A3.226 3.226 0 0 0 11 15.226v43.548A3.226 3.226 0 0 0 14.226 62h23.476"/><path stroke-linecap="round" stroke-linejoin="round" d="M45.618 62V42.208h7.125l.792-7.917h-7.917v-4.75c0-3.167 2.375-3.167 3.167-3.167h4.75V19.25c-3.2-.324-15.834-3.166-15.834 10.292v4.75h-6.333v7.917h6.333V62"/></g></svg>