<svg viewBox="0 0 72 72" xmlns="http://www.w3.org/2000/svg"><g fill="none" stroke="#000" stroke-linecap="round" stroke-width="2"><path stroke-linejoin="round" d="M34 44.5V58h-8.905M23 27H12v31h3.143M36 32v-9h8v9"/><path d="M47 19.5V30"/><path stroke-linejoin="round" d="M37 41v17h5V41m3-.347V58h8V36m4-6h3v28h-4V33"/><path stroke-linejoin="round" stroke-miterlimit="10" d="M52.537 32.067c4.307-6.568 2.327-15.289-4.423-19.48-6.75-4.19-15.712-2.263-20.02 4.304-4.306 6.568-2.326 15.289 4.424 19.48 6.75 4.19 15.712 2.263 20.02-4.304z"/><path stroke-linejoin="round" stroke-miterlimit="10" d="M49.639 30.267c3.285-5.01 1.774-11.663-3.374-14.86-5.15-3.196-11.986-1.726-15.271 3.284-3.286 5.01-1.775 11.662 3.373 14.859 5.15 3.197 11.986 1.727 15.272-3.283zm-21.862 8.177 4.364 2.709-10.396 15.853c-.743 1.133-2.322 1.444-3.526.696-1.205-.748-1.58-2.272-.838-3.405l10.396-15.853z"/><path d="M33 21v8"/></g></svg>