<svg viewBox="0 0 72 72" xmlns="http://www.w3.org/2000/svg"><path fill="none" stroke="#000" stroke-linecap="round" stroke-linejoin="round" stroke-width="2" d="m21 13-2 5 5 2 2 9-5 5 2 3-3 2v1l5 7 4-2m5.5 11 1.5-3 3-2 7 4 5-1v-4l-2-2 1.5-3.5"/><g fill="none" stroke="#000" stroke-linecap="round" stroke-linejoin="round" stroke-width="2"><path stroke-miterlimit="10" d="M59.537 35.067c4.307-6.568 2.327-15.289-4.423-19.48-6.75-4.19-15.712-2.263-20.02 4.304-4.306 6.568-2.325 15.289 4.424 19.48 6.75 4.19 15.712 2.263 20.02-4.304z"/><path stroke-miterlimit="10" d="M56.639 33.267c3.285-5.01 1.774-11.663-3.374-14.86-5.15-3.196-11.986-1.726-15.272 3.284-3.285 5.01-1.774 11.662 3.374 14.859 5.15 3.197 11.986 1.727 15.272-3.283zm-21.862 8.177 4.364 2.709-10.396 15.853c-.743 1.133-2.322 1.444-3.526.696-1.205-.748-1.58-2.272-.838-3.405l10.396-15.853z"/><path d="M40 12.333 36 12l-11 1-13-1v12l.997 11.04L12 47v12l9 .692m33.266-47.214L60 12v4.5m-.625 23L60 47v12l-12 1-12-1-3.5.318"/></g></svg>