<svg viewBox="0 0 72 72" xmlns="http://www.w3.org/2000/svg"><g fill="none" stroke="#000" stroke-linecap="round" stroke-width="2"><path stroke-linejoin="round" d="M52 37.85c0-5.799-4.701-10.5-10.5-10.5-.861 0-1.699.104-2.5.3 4.592 1.121 8 5.263 8 10.2 0 4.938-3.408 9.028-8 10.15-4 .977-11.5-.5-14.5-7"/><path stroke-linejoin="round" d="M55.054 22.904A27.595 27.595 0 0 1 43.827 9.378a22.038 22.038 0 0 0-7.874 11.197M35 31.39c-2.24-.494-4.068-2.57-5.793-4.528a52.41 52.41 0 0 0-1.367-1.514c-.443-1.994-.77-5.276.66-6.348-1.978 0-4.318 2.264-5.733 3.994a10.537 10.537 0 0 0-1.851.006l.001-.005a13.969 13.969 0 0 1-.884-5.966C14.508 21.707 11 28.694 11 36.5a23.921 23.921 0 0 0 0 .339c0 14.083 11.417 25.5 25.5 25.5S62 50.922 62 36.839a31.854 31.854 0 0 0 0-.339c0-7.552-3.283-14.338-8.5-19.007"/><path d="M30 24.464A12.944 12.944 0 0 1 36 23c2.368 0 4.588.633 6.5 1.74"/></g></svg>