<svg viewBox="0 0 72 72" xmlns="http://www.w3.org/2000/svg"><g fill="none" stroke="#000" stroke-width="2"><path stroke-miterlimit="10" d="M58 11H14a3 3 0 0 0-3 3v44a3 3 0 0 0 3 3h44a3 3 0 0 0 3-3V14a3 3 0 0 0-3-3z"/><path stroke-linecap="round" stroke-linejoin="round" d="M40 39 28 25v17a2 2 0 0 0 2 2h1v3h-9v-3h1a2 2 0 0 0 2-2V25a2 2 0 0 0-2-2h-2v-3h8l17 19V24a2 2 0 0 0-2-2h-1v-3h9v3h-1a2 2 0 0 0-2 2v16"/><path stroke-linecap="round" d="M61 46.247C53.353 42.873 44.895 41 36 41c-1.683 0-3.35.067-5 .199m-20 5.048a61.53 61.53 0 0 1 9-3.163"/></g></svg>