<svg viewBox="0 0 72 72" xmlns="http://www.w3.org/2000/svg"><path fill="none" stroke="#000" stroke-linecap="round" stroke-linejoin="round" stroke-width="2" d="M17.88 50.167C22.09 55.544 28.64 59 36 59c10.64 0 19.593-7.225 22.22-17.037H45.244A10.991 10.991 0 0 1 36 47c-5.738 0-10.45-4.394-10.955-10h33.934c.014-.332.021-.665.021-1 0-7.435-3.528-14.045-9-18.25M13.194 33C14.492 23.032 22.172 15.07 32 13.347M36 25a11 11 0 0 1 9.8 6H26.2a11 11 0 0 1 9.8-6z"/><path d="m56.807 18.578-.707.707.707-.707zm3.192 6.788-.991.134a1 1 0 0 0 1.99-.124l-1-.01zm-34.047.54.707.708-.707-.707zm-7.329 30.855-.707.707.707-.707zm7.098 3.231.028 1a1 1 0 0 0 .086-1.993l-.114.993zm-10.158-3.555.707-.707-.707.707zm7.86-33.014.708.708-.708-.708zm33.014-7.86-.707.707.707-.707zm-.337 3.722c1.605 1.605 2.571 3.727 2.908 6.215l1.982-.268c-.386-2.85-1.513-5.399-3.476-7.361L56.1 19.285zm-29.44 7.329c5.162-5.163 11.093-8.512 16.469-9.79 5.394-1.28 10.06-.45 12.97 2.46l1.415-1.413c-3.585-3.585-9.075-4.363-14.848-2.992-5.791 1.376-12.04 4.939-17.421 10.32l1.414 1.415zm-7.33 29.44c-2.911-2.911-3.74-7.577-2.46-12.971 1.277-5.376 4.627-11.307 9.79-16.47L25.244 25.2c-5.382 5.381-8.945 11.63-10.32 17.42-1.372 5.774-.594 11.264 2.991 14.848l1.414-1.414zm6.505 2.944c-2.613-.299-4.838-1.277-6.505-2.944l-1.414 1.414c2.039 2.04 4.71 3.176 7.69 3.517l.23-1.985zm-.143-.006c-3.86.11-7.134-.975-9.422-3.262l-1.414 1.414c2.771 2.771 6.633 3.97 10.893 3.848l-.057-2zM16.27 55.73c-3.136-3.136-4.019-8.155-2.641-13.94 1.373-5.767 4.967-12.125 10.502-17.66l-1.415-1.414c-5.753 5.753-9.561 12.429-11.033 18.61-1.467 6.164-.637 12.008 3.173 15.818l1.414-1.414zm7.86-31.6c5.535-5.534 11.893-9.128 17.66-10.501 5.785-1.378 10.804-.495 13.94 2.641l1.414-1.414c-3.81-3.81-9.654-4.64-15.817-3.173-6.182 1.472-12.858 5.28-18.61 11.033l1.414 1.415zm31.6-7.86c2.22 2.221 3.308 5.372 3.269 9.085l2 .021c.043-4.112-1.165-7.83-3.855-10.52L55.73 16.27z"/></svg>