<svg viewBox="0 0 72 72" xmlns="http://www.w3.org/2000/svg"><path fill="none" stroke="#000" stroke-linecap="round" stroke-linejoin="round" stroke-width="2" d="M11.34 60.324v-1.955c0-3.23 1.91-5.45 5.14-5.45 1.913 1.615 4.176 2.422 6.11 2.422 1.934 0 4.198-.807 6.11-2.422 3.23 0 5.14 2.22 5.14 5.45v1.955m4.302 0v-1.955c0-3.23 1.91-5.45 5.14-5.45 1.913 1.615 4.176 2.422 6.11 2.422 1.933 0 4.197-.807 6.11-2.422 3.23 0 5.14 2.22 5.14 5.45v1.955"/><path fill="none" stroke="#000" stroke-miterlimit="10" stroke-width="2" d="M35.937 42.821c-.677 0-1.29-.42-1.82-1.25-8.226-12.681-8.368-19.878-8.37-20.178 0-6.02 4.607-10.913 10.271-10.913s10.271 4.894 10.271 10.91c.004.286.004 7.3-8.274 19.989-.08.133-.89 1.442-2.078 1.442z"/><path fill="none" stroke="#000" stroke-miterlimit="10" stroke-width="2" d="M36.018 25.784c-2.522 0-4.574-2.052-4.574-4.574s2.052-4.574 4.574-4.574 4.574 2.052 4.574 4.574-2.052 4.574-4.574 4.574z"/><circle cx="22.59" cy="45.397" r="5" fill="none" stroke="#000" stroke-linecap="round" stroke-linejoin="round" stroke-width="2"/><circle cx="49.392" cy="45.397" r="5" fill="none" stroke="#000" stroke-linecap="round" stroke-linejoin="round" stroke-width="2"/></svg>