<svg viewBox="0 0 72 72" xmlns="http://www.w3.org/2000/svg"><g fill="none" stroke="#000" stroke-linecap="round" stroke-linejoin="round" stroke-width="2"><path d="m44.045 53.365.963 4.242m-17.501-5.251-.963 5.251m17.501-4.242.963 4.242m-17.501-5.251-.963 5.251m15.864-9.752h0m-10.42-2.78h5.375c2.76 0 4.39.893 5.045 2.78"/><path d="M23.942 35.904v1.7a9.54 9.54 0 0 0 5.278 8.98c1.534.668 2.368 1.332 2.368 2.887a2.637 2.637 0 0 1-2.813 2.559c-5.155 0-11.442-6.468-11.442-15.14 0-8.804 5.344-11.692 8.095-11.692h7.014a5.173 5.173 0 0 1 5.147 4.991v1.423m10.181 6.69v.69a9.539 9.539 0 0 1-5.278 8.98c-1.533.668-2.367 1.332-2.367 2.887a2.607 2.607 0 0 0 2.812 2.558c5.155 0 11.443-6.467 11.443-15.14 0-8.218-5.345-11.019-8.096-11.019H40.28"/><circle cx="29.515" cy="18.195" r="3.543"/><circle cx="35.254" cy="38.648" r="3.543"/><circle cx="42.738" cy="20.054" r="3.543"/></g></svg>