<svg viewBox="0 0 72 72" xmlns="http://www.w3.org/2000/svg"><g fill="none" stroke="#000" stroke-linecap="round" stroke-width="2"><path stroke-miterlimit="10" d="M40.28 31.93h17.47a1.189 1.189 0 0 1 1.256 1.063c0 1.74-1.741 4.157-3.674 4.254l-12.98.774M15.03 56.3c-1.42 0-2.221-1.822-1.988-3.309l2.691-15.13c.67-3.949 2.275-5.932 5.802-5.932"/><path stroke-linejoin="round" d="m20.61 47.31.918-15.38h4.085a5.731 5.731 0 0 0 4.554 2.02m.713-13.21h4.7m3.707.474-3.71-.47v-1.8l1.33-1.23-.1-2.75-10.7 1.89-.88 1.71v2.18m15.25 11.18h-2.32l.66 15.25M22.42 51.09l-1.93 5.54m9.64-5.54-1.93 5.54m9.77-5.54-1.96 5.54"/><path stroke-miterlimit="10" d="M25.63 24.21a4.54 4.54 0 0 0 9.051 0"/></g></svg>