<svg viewBox="0 0 72 72" xmlns="http://www.w3.org/2000/svg"><g fill="none" stroke="#000" stroke-linecap="round" stroke-linejoin="round" stroke-width="2"><path d="M30.044 47.82v.966l-4.907.66h-3.169c-2.141 0-3.187.817-3.187 2.651v2.242h11.263c3.211-.153 5.835-2.253 5.835-5.235m2.726-11.43 3.439 7.366c1.222 2.829 2.063 4.052 4.433 4.052l12.284-.465c1.678-.082 2.71-.655 2.71-2.337 0-1.376-1.153-2.09-2.911-2.09H47.395l-3.159-6.806c-1.209-2.844-3.035-4.015-6.479-3.737l-1.443.071-9.252.99c-4.817.536-6.704 3.541-6.704 5.836a5.327 5.327 0 0 0 3.417 5.351"/><path d="M11.158 23.222v31.117h4.285V23.222h41.241v17.456m7.482-17.456v-4.285H7.657v4.285m53.312 17.589V23.222m-4.285 25.484v5.633h4.285v-3.141"/><path d="M28.04 42.9c4.57 0 9.856-1.875 11.913-2.339m5.644-7.543a3.543 3.543 0 1 1 3.544 3.543"/></g></svg>