<svg viewBox="0 0 72 72" xmlns="http://www.w3.org/2000/svg"><g fill="none" stroke="#000" stroke-linecap="round" stroke-linejoin="round" stroke-width="2"><path d="M23.23 58.699a17.3 17.3 0 0 0 12.384 4.865c4.511 0 9.795-1.44 12.89-4.535M34.729 7.767s14.109 9.51 13.578 25.255c0 1.15.518 2.034 1.768 2.034a5.295 5.295 0 0 0 4.292-2.344 22.008 22.008 0 0 1 2.293 9.827 19.31 19.31 0 0 1-4.174 12.505m-6.043 4.881V48.379m-21.483 0v11.546"/><path d="m21.706 43.501 13.884-9.66 14.107 9.66M31.479 62.565V50.664h8.116"/><path d="M19.82 54.7a20.078 20.078 0 0 1-3.926-11.83 33.584 33.584 0 0 1 3.899-15.092c.465 7.305 3.581 9.257 5.292 9.257 1.278 0 2.453-1.302 2.453-3.426.088-2.742.506-6.117 4.174-12.905"/></g></svg>