<svg viewBox="0 0 72 72" xmlns="http://www.w3.org/2000/svg"><g fill="none" stroke="#000" stroke-linecap="round" stroke-width="2"><path stroke-linejoin="round" d="m39.632 55.881 7.425.538-5.556-8.816 3.512.154-4.796-7.256 3.02-.169-6.84-9.362-6.571 9.577 3.081-.376-5.341 7.586 3.727-.154-5.556 8.816 6.603-.814"/><path stroke-miterlimit="10" d="M36.397 57.226v5.994"/><path stroke-linejoin="round" d="M20.349 55.888a20.195 20.195 0 0 1-4.86-13.02 33.583 33.583 0 0 1 3.899-15.09c.465 7.305 3.91 10.247 5.621 10.247 1.278 0 2.453-1.302 2.453-3.426.089-2.742.177-7.107 3.845-13.895m15.564 39.732a20.638 20.638 0 0 1-10.812 2.82 20.288 20.288 0 0 1-10.324-2.825m9.11-52.971s13.78 9.51 13.248 25.254a1.932 1.932 0 0 0 2.08 2.035 5.14 5.14 0 0 0 3.981-2.674 20.72 20.72 0 0 1 2.162 9.695 23.467 23.467 0 0 1-3.787 13.28"/></g></svg>