<svg viewBox="0 0 72 72" xmlns="http://www.w3.org/2000/svg"><g fill="none" stroke="#000" stroke-linecap="round" stroke-linejoin="round"><path stroke-width="2" d="M55.667 43.758h-5.403l-3.811-4.246m.097-3.533s-5.382.91-6.532 1.733c-1.469 1.052-4.134 6.245-4.134 6.245m2.265 6.267-2.642 3.585-2.072 1.344"/><path stroke-width="2" d="M46.484 43.99v2.145l3.66 4.368a4.346 4.346 0 0 1 .668 2.388l.396 8.66c.048 1.81-.991 2.4-1.797 2.4-.789 0-1.44-.599-1.704-2.196l-.748-8.105-6.018-5.45a2.955 2.955 0 0 1-.923-2.174 3.966 3.966 0 0 1 .615-2.192l2.907-5.249c1.043-1.947 2.034-2.623 3.406-2.623a2.454 2.454 0 0 1 2.32 2.337"/><path stroke-width="1.821" d="M26.543 55.543A18.805 18.805 0 0 1 9.876 37.094a30.58 30.58 0 0 1 3.55-13.741c.424 6.652 3.562 9.33 5.12 9.33 1.163 0 2.233-1.185 2.233-3.12.08-2.497.462-6.772 3.801-12.952m1.71-11.76s12.85 8.659 12.366 22.997A1.76 1.76 0 0 0 40.55 29.7a4.68 4.68 0 0 0 3.625-2.435 13.841 13.841 0 0 1 1.28 3.377"/><path stroke-width="2" d="m42.375 52.447-2.642 3.585-6.744 4.375M48.74 33.151a3.135 3.135 0 1 1 3.135 3.135"/></g></svg>