<svg viewBox="0 0 72 72" xmlns="http://www.w3.org/2000/svg"><g fill="none" stroke="#000" stroke-linecap="round" stroke-linejoin="round" stroke-width="2"><path d="m54.717 43.955 5.112 10.152a4.462 4.462 0 0 1 .575 1.916 3.891 3.891 0 0 1-3.832 3.888H15.578a3.81 3.81 0 0 1-3.832-3.792 3.454 3.454 0 0 1 .575-1.916l12.116-23.954a27.572 27.572 0 0 1 5.824-1.055c6.27 0 11.27 3.468 11.27 9.024a7.234 7.234 0 0 1-.27 1.808c-1.144 4.375-5.875 6.352-7.876 4.384a5.485 5.485 0 0 0 .345-1.681 1.618 1.618 0 0 0-1.806-1.858c-2.077 0-3.045 1.802-3.045 3.466 0 2.247.987 5.034 5.937 5.034s12.75-5.8 17.72-5.793a9.32 9.32 0 0 1 2.18.377z"/><path d="M32.674 13.965a3.892 3.892 0 0 1 6.706 0l20.45 40.142a4.462 4.462 0 0 1 .574 1.916 3.891 3.891 0 0 1-3.832 3.888H15.578a3.81 3.81 0 0 1-3.832-3.792 3.454 3.454 0 0 1 .575-1.916l20.353-40.238"/></g></svg>