<svg viewBox="0 0 72 72" xmlns="http://www.w3.org/2000/svg"><g fill="none" stroke="#000" stroke-linecap="round" stroke-width="2"><path stroke-linejoin="round" d="M32.406 14.478a3.892 3.892 0 0 1 6.707 0L59.562 54.62a4.462 4.462 0 0 1 .575 1.916 3.927 3.927 0 0 1-3.833 3.928H15.311a3.843 3.843 0 0 1-3.832-3.832 3.455 3.455 0 0 1 .574-1.916l20.353-40.238"/><path stroke-miterlimit="10" d="m18.412 60.455 7.34-7.787 2.271-4.795 6.733-4.831 2.348.526 2.299-.526 2.657 3.381 4.943 2.141 6.358 11.891"/><path stroke-miterlimit="10" d="m31.835 45.138 2.204 2.975-1.056 4.269.771 3.997"/><path stroke-linejoin="round" d="M32.403 32.836a3.476 3.476 0 0 0 3.147 2.017 1.373 1.373 0 0 0 .565-.08 2.525 2.525 0 0 0-1.05 2.017 2.635 2.635 0 0 0 2.664 2.663 2.518 2.518 0 0 0 2.421-1.775m2.42-6.698a2.585 2.585 0 0 0-2.581-2.502 2.253 2.253 0 0 0-1.776.727 3.405 3.405 0 0 0-2.663-1.292 3.516 3.516 0 0 0-2.34.888 2.578 2.578 0 0 0-1.937-.888 2.687 2.687 0 0 0-2.663 2.663"/></g></svg>