<svg viewBox="0 0 72 72" xmlns="http://www.w3.org/2000/svg"><g fill="none" stroke="#000" stroke-linecap="round" stroke-linejoin="round" stroke-width="2"><path d="M29.547 52.622a8.294 8.294 0 0 0 5.937 2.332 8.836 8.836 0 0 0 6.02-2.332M27.69 50.224s-4.452-4.75-.212-11.025c0 0 .856 1.088 1.508 2.132.486.56 1.367 1.515 1.833 1.515a1.004 1.004 0 0 0 1.018-1.103v-.381a15.477 15.477 0 0 1 1.526-7.293s2.969 1.611 1.697-6.191c0 0 6.763 4.558 6.509 12.106 0 .551.248.975.847.975.59 0 2.388-.572 2.388-1.124.042.043 2.671 5.555-1.06 10.389"/><path d="M33.079 45.118h0s-.298 1.641-1.488 1.527a2.674 2.674 0 0 1-.61-.245c-.328-.36-.674.084-.624.39a10.963 10.963 0 0 0 3.02 4.472s.93.685.98.685m2.609.063a12.345 12.345 0 0 0 1.547-1.048 6.84 6.84 0 0 0 1.806-2.487.335.335 0 0 0-.297-.458.782.782 0 0 1-.496-.458h0s-.1-.305.297-.992a1.604 1.604 0 0 0 .199-.916.469.469 0 0 0-.645-.267.96.96 0 0 1-1.29-.42s-.312-.153-.014-1.64a5.996 5.996 0 0 0-1.425-4.428.546.546 0 0 0-.377-.133.395.395 0 0 0-.417.286"/><path d="M32.294 14.233a3.892 3.892 0 0 1 6.706 0l20.12 40.142a4.462 4.462 0 0 1 .574 1.916 3.885 3.885 0 0 1-3.832 3.88H15.528a3.803 3.803 0 0 1-3.832-3.784 3.454 3.454 0 0 1 .575-1.916l20.023-40.238"/></g></svg>