<svg viewBox="0 0 72 72" xmlns="http://www.w3.org/2000/svg"><g fill="none" stroke="#000" stroke-linecap="round" stroke-width="2"><path stroke-linejoin="round" d="M27.31 10.34a13.416 13.416 0 0 1 6.933-2.147c4.542 0 8.438 3.937 14.334 3.937.87 0 1.304-.391 2.182-.391.727 0 1.017.52 1.017 1.438v13.605c0 .717-.783 1.531-3.081 1.531-6.91 0-10.806-3.908-14.815-3.908a11.739 11.739 0 0 0-6.649 2.219v-4.267"/><path stroke-miterlimit="10" d="M23.972 8.347v30.686"/><path stroke-linejoin="round" d="M63.325 65.852H8.314m3-3.513h49.011M11.784 43.15h48.071v3.512H11.784zM58.95 62.339H12.689m1-3.512H57.95M17.383 46.663h5.429v12.164h-5.429zm15.722 0h5.429v12.164h-5.429zm15.722 0h5.429v12.164h-5.429zm6.334-3.513L35.82 33.04 16.478 43.15h38.683z"/></g></svg>