<svg viewBox="0 0 72 72" xmlns="http://www.w3.org/2000/svg"><path fill="none" stroke="#000" stroke-linecap="round" stroke-linejoin="round" stroke-width="2" d="M45.366 37.468v16.555a.919.919 0 0 1-.973.973h-26.38a.975.975 0 0 1-.972-.973V15.117a.975.975 0 0 1 .973-.973h13.558"/><circle cx="31.203" cy="59.252" r="1.945"/><path fill="none" stroke="#000" stroke-linecap="round" stroke-linejoin="round" stroke-width="2" d="M33.334 11.226H26.34m21.885 25.635v23.38a3.69 3.69 0 0 1-3.68 3.68H17.862a3.69 3.69 0 0 1-3.68-3.68V11.659a3.69 3.69 0 0 1 3.68-3.68H36.97"/><path fill="none" stroke="#000" stroke-linecap="round" stroke-linejoin="round" stroke-width="2.5" d="M46.892 26.339v-5.745h-2.903m5.663 5.745h-5.729"/><circle cx="46.589" cy="15.602" r="1.909"/><path fill="none" stroke="#000" stroke-linecap="round" stroke-linejoin="round" stroke-width="2" d="M46.285 7.675A13.026 13.026 0 0 0 37.256 30.1l-2.604 8.36 7.077-5.548a13.03 13.03 0 1 0 4.556-25.236z"/></svg>