<svg viewBox="0 0 72 72" xmlns="http://www.w3.org/2000/svg"><path fill="none" stroke="#000" stroke-linecap="round" stroke-linejoin="round" stroke-width="2" d="M46.36 39.547v14.49a.919.919 0 0 1-.972.972h-26.38a.975.975 0 0 1-.972-.972V15.13a.975.975 0 0 1 .973-.973h26.38a.975.975 0 0 1 .972.973v3.902"/><circle cx="32.198" cy="59.266" r="1.945"/><path fill="none" stroke="#000" stroke-linecap="round" stroke-linejoin="round" stroke-width="2" d="M27.335 11.24h9.727-9.727zM49.22 39.547v20.707a3.69 3.69 0 0 1-3.68 3.68H18.857a3.69 3.69 0 0 1-3.68-3.68V11.672a3.69 3.69 0 0 1 3.68-3.68H45.54a3.69 3.69 0 0 1 3.68 3.68v7.36"/><path fill="none" stroke="#000" stroke-miterlimit="10" stroke-width="2" d="M31.137 22.073a3.69 3.69 0 0 0-3.68 3.68V40.75a.31.31 0 0 0 .46.276l4.6-4.048a.676.676 0 0 1 .552-.184h25.484a3.69 3.69 0 0 0 3.68-3.68v-7.36a3.69 3.69 0 0 0-3.68-3.68z"/></svg>