<svg viewBox="0 0 72 72" xmlns="http://www.w3.org/2000/svg"><g fill="none" stroke="#000" stroke-linecap="round" stroke-width="2"><path stroke-miterlimit="10" d="M24.283 51.188h-7.58a2.14 2.14 0 0 0-2.122 2.121h0a2.14 2.14 0 0 0 2.122 2.122h7.58m0-14.851h-7.58a2.14 2.14 0 0 0-2.122 2.12h0a2.14 2.14 0 0 0 2.122 2.122h7.58"/><path stroke-linejoin="round" d="M24.347 59.931h7.394a11.701 11.701 0 0 0 0-23.402h-7.394z"/><path stroke-linejoin="round" d="m42.735 52.473 3.986-1.093v-6.365l-3.986-1.028m13.194 6.815h-9.208v-5.208h9.208m-2.261-28.383V12.51a.617.617 0 0 0-.653-.653h-34.81a.617.617 0 0 0-.654.653v16.327a.617.617 0 0 0 .654.653h34.81a.617.617 0 0 0 .653-.653v-4.375H57v-7.25z"/><path stroke-linejoin="round" d="M21.441 15.157h5.584v11.096h-5.584z"/></g></svg>