<svg viewBox="0 0 72 72" xmlns="http://www.w3.org/2000/svg"><g fill="none" stroke="#000" stroke-linecap="round" stroke-linejoin="round" stroke-width="2"><path d="M60.063 61.464V20.129M35.794 9.247 63.8 28.098M11.462 61.464V20.129m5.867 41.335V32.857l18.408-12.419h.051l18.408 12.419v28.607M35.73 9.247 7.725 28.098"/><path d="m30.058 50.166-1.238 11.21c-.048.51-.81.99-1.391.99a1.268 1.268 0 0 1-1.12-1.093l1.26-18.86"/><path d="M23.876 51.354s.643-3.763.742-5c.1-1.14.149-4.605.149-4.605a2.424 2.424 0 0 1 2.405-2.476h7.224m9.674 3.015a5.986 5.986 0 0 0-.891 3.224c0 1.562 1.34 3.482 1.34 4.51.299 2.994.815 11.17.815 11.17a1.256 1.256 0 0 1-1.184 1.168 1.369 1.369 0 0 1-1.335-1.167L41.569 50.07"/><path d="M36.637 41.459a2.328 2.328 0 0 1 2.594-2.165h4.644a2.891 2.891 0 0 1 2.911 2.495s-.15 3.492-.05 4.64a46 46 0 0 0 1.098 4.889M34.268 62.987l.24-6.293m2.457 0 .238 6.364m-.171-13.513h.31a1.502 1.502 0 0 1 1.669 1.63l.484 5.205m-5.129-6.835h-.236a1.502 1.502 0 0 0-1.669 1.63l-.484 5.205m2.031-9.274a1.671 1.671 0 0 1-.39-1.173 2.025 2.025 0 1 1 3.676 1.173"/><circle cx="31.206" cy="33.873" r="2.717"/><circle cx="40.702" cy="33.873" r="2.717"/></g></svg>