<svg viewBox="0 0 72 72" xmlns="http://www.w3.org/2000/svg"><g fill="none" stroke="#000" stroke-linecap="round" stroke-linejoin="round" stroke-width="2"><path d="m8.406 63.629 13.054-19.24 9.749-7.234 6.263 1.473 5.316-1.473 5.128 6.412 8.347 5.824 6.356 14.388"/><path d="m25.377 41.481 1.654 3.531-1.614 6.284.916 7.313m21.583-15.042-3.505 6.079 3.116 2.505-1.673 5.173M32.952 23.75a5.637 5.637 0 0 0-.264 9.528m11.804-22.307a4.386 4.386 0 0 0-8.658-.997 5.912 5.912 0 0 0-9.116 1.554 4.549 4.549 0 0 0-7.7 3.289m37.047 7.211a5.064 5.064 0 0 0-7.891-4.202m-9.631 15.719a5.65 5.65 0 0 0 2.806-3.758 7.812 7.812 0 0 0 5.806-3.571m-14.283-5.598a7.823 7.823 0 0 1 14.626-2.247"/></g></svg>