<svg viewBox="0 0 72 72" xmlns="http://www.w3.org/2000/svg"><path fill="none" stroke="#000" stroke-linecap="round" stroke-miterlimit="10" stroke-width="2" d="m8.244 62.609 13.053-19.24 9.749-7.234 6.263 1.473 5.316-1.473 5.128 6.411 8.347 5.825 6.356 14.388"/><path fill="none" stroke="#000" stroke-linecap="round" stroke-linejoin="round" stroke-width="2" d="m25.214 40.46 1.654 3.532-1.614 6.284.916 7.313m21.583-15.043-3.504 6.08 3.115 2.505-1.578 4.934M32.251 22.279a5.643 5.643 0 1 0 8.947 6.69 7.787 7.787 0 0 0 2.752.507M40.738 8.137a4.86 4.86 0 0 0-4.325 2.665 6.57 6.57 0 0 0-10.83 3.644 5.058 5.058 0 0 0-7.94 4.162m26.307-4.774a7.821 7.821 0 0 1 7.822 7.821"/><path fill="none" stroke="#000" stroke-linecap="round" stroke-linejoin="round" stroke-width="2" d="M51.758 21.246a4.883 4.883 0 0 1 6.19 4.7"/><circle cx="64.01" cy="11.748" r="1.48"/><circle cx="58.679" cy="18.6" r="1.48"/><circle cx="46.448" cy="18.6" r="1.48"/><circle cx="64.34" cy="26.451" r="1.48"/><circle cx="58.679" cy="32.963" r="1.48"/><circle cx="64.01" cy="40.145" r="1.48"/><circle cx="58.679" cy="45.996" r="1.48"/><circle cx="64.01" cy="52.518" r="1.48"/><circle cx="57.359" cy="60.359" r="1.48"/><circle cx="52.916" cy="11.748" r="1.48"/><circle cx="41.514" cy="11.748" r="1.48"/><circle cx="52.916" cy="26.451" r="1.48"/><circle cx="47.448" cy="32.963" r="1.48"/><circle cx="52.916" cy="40.145" r="1.48"/><circle cx="52.256" cy="52.518" r="1.48"/><circle cx="48.108" cy="60.359" r="1.48"/><circle cx="41.514" cy="40.145" r="1.48"/></svg>