<svg viewBox="0 0 72 72" xmlns="http://www.w3.org/2000/svg"><g fill="none" stroke="#000" stroke-linecap="round" stroke-width="2"><path stroke-miterlimit="10" d="M46.34 23.897v-3.758"/><path stroke-linejoin="round" d="M42.601 34.922V26.92m19.261.011v9.64m-20.746-8.556 11.077-8.347 11.154 8.347"/><path stroke-linejoin="round" d="M50.232 27.741h4.315v5.602M15.886 32.33c1.028-5.61 4.928-9.132 9.104-9.132 3.775 0 6.922 2.147 7.74 5.639M62.786 49.87a17.523 17.523 0 0 0-9.14-2.712c-11.465 0-14.015 6.836-24.103 6.836m1.933-19.826a2.932 2.932 0 0 0-2.964-2.776c-1.862 0-3.346 1.662-3.346 4.342 0 3.625 3.33 6.565 7.5 6.565 9.91 0 11.785-3.778 19.917-3.778a8.155 8.155 0 0 1 6.754 3.465"/><path stroke-linejoin="round" d="M8.504 32.71c1.243-10.429 8.438-16.322 16.12-16.322A12.586 12.586 0 0 1 37.14 28.705a16.452 16.452 0 0 1-.71 4.938"/></g></svg>