<svg viewBox="0 0 72 72" xmlns="http://www.w3.org/2000/svg"><path fill="none" stroke="#000" stroke-linecap="round" stroke-linejoin="round" stroke-width="2" d="m49.452 47.493 2.633.161 9.327 8.262"/><path fill="none" stroke="#000" stroke-linecap="round" stroke-miterlimit="10" stroke-width="2" d="m9.08 58.591 3.936-33.229 1.281-6.114 6.404-5.821 5.647 5.475 1.861 6.522m-7.302 8.891 6.873 24.454"/><path fill="none" stroke="#000" stroke-linecap="round" stroke-miterlimit="10" stroke-width="2" d="m21.963 30.046-2.864-11.883-1.469-1.967m17.021 18.273a2.552 2.552 0 1 1 2.552 2.552"/><circle cx="34.743" cy="22.327" r="2.552" fill="none" stroke="#000" stroke-linecap="round" stroke-miterlimit="10" stroke-width="2"/><path fill="none" stroke="#000" stroke-linecap="round" stroke-miterlimit="10" stroke-width="2" d="M49.451 28.081a2.552 2.552 0 1 1-2.552 2.552M58.864 43.11a4.802 4.802 0 0 1 2.554 8.45M48.777 35.928a4.802 4.802 0 0 1 5.326 7.967"/><circle cx="44.334" cy="47.187" r="2.552" fill="none" stroke="#000" stroke-linecap="round" stroke-miterlimit="10" stroke-width="2"/><circle cx="32.83" cy="39.743" r="2.552" fill="none" stroke="#000" stroke-linecap="round" stroke-miterlimit="10" stroke-width="2"/><circle cx="45.433" cy="26.877" r="1.278"/><circle cx="42.125" cy="31.038" r="1.278"/><circle cx="38.08" cy="27.414" r="1.278"/><circle cx="29.857" cy="19.738" r="1.278"/><circle cx="33.105" cy="30.459" r="1.278"/></svg>