<svg viewBox="0 0 72 72" xmlns="http://www.w3.org/2000/svg"><path d="M55.185 50.435V25.201m-38.578 0v25.745M16.6 25.201 35.686 8.917l19.506 16.284H16.6zm12.322-10.527v-4.665h-5.931v9.734l5.931-5.069zm1.819 26.536V31.123h10.31v13.074M61.795 56.4c-5.155 0-5.155-3.183-10.31-3.183s-5.154 3.184-10.308 3.184-5.155-3.184-10.309-3.184-5.155 3.184-10.46 3.184-5.155-3.184-10.46-3.184m51.847-4.281c-5.155 0-5.155-3.184-10.31-3.184s-5.154 3.184-10.308 3.184-5.155-3.184-10.309-3.184-5.154 3.184-10.46 3.184-5.155-3.184-10.461-3.184m51.848 18.114c-5.155 0-5.155-3.183-10.31-3.183s-5.154 3.183-10.308 3.183-5.155-3.183-10.309-3.183-5.155 3.183-10.46 3.183-5.155-3.183-10.46-3.183" fill="none" stroke="#000" stroke-linecap="round" stroke-linejoin="round" stroke-width="2"/></svg>