<svg viewBox="0 0 72 72" xmlns="http://www.w3.org/2000/svg"><path d="M47.822 40.572v22.014a.89.89 0 0 1-.932.86h-9.536a1.544 1.544 0 0 1-1.291-.86l-5.64-15.704h-.541l.66 15.703a.89.89 0 0 1-.933.861h-4.876a.829.829 0 0 1-.86-.86V40.572a.829.829 0 0 1 .86-.86h9.537a1.66 1.66 0 0 1 1.362.86l5.39 15.918h.462l-.33-15.918a.829.829 0 0 1 .86-.86h4.876a.89.89 0 0 1 .932.86zm1.331-8.223v1.992l-13.305-7.649-13.306 7.649v-1.992L35.848 8.288l13.305 24.061z" fill="none" stroke="#000" stroke-linecap="round" stroke-width="2"/></svg>