<svg viewBox="0 0 72 72" xmlns="http://www.w3.org/2000/svg"><g fill="none" stroke="#000" stroke-linecap="round" stroke-linejoin="round"><path stroke-width="2" d="M48.304 56V21.078H23.456v8.09M4.951 55.814h14.603l3.902.038v-2.581m43.593-37.085H4.951m40.502 40.428h21.596"/><path stroke-width="1.635" d="M42.728 38.041h-4.332l-3.799-4.36m-.202-3.267s-4.73 1.107-5.795 1.87c-1.361.974-4.64 5.856-4.64 5.856m-4.548 11.838a1.01 1.01 0 0 0 1.31.669l4.934-1.513a4.391 4.391 0 0 0 1.789-1.138l4.18-4.231m-4.53-.475-1.822 2.755-5.177 2.51a1.16 1.16 0 0 0-.684 1.423"/><path stroke-width="1.635" d="M34.578 37.934v1.81l3.402 4.19a5.415 5.415 0 0 1 .618 2.212l.332 7.482c.07 1.456-.674 2.224-1.42 2.224-.793 0-1.406-.746-1.54-2.152l-.86-7.08-5.655-4.819a2.63 2.63 0 0 1-.91-1.934 4.43 4.43 0 0 1 .625-2.11l2.693-4.863c.933-1.865 1.844-2.528 3.076-2.528a2.22 2.22 0 0 1 2.191 2.263m-.596-5.417a2.67 2.67 0 1 1 2.67 2.67"/></g></svg>