<svg viewBox="0 0 72 72" xmlns="http://www.w3.org/2000/svg"><g fill="none" stroke="#000" stroke-linecap="round" stroke-width="2"><path stroke-miterlimit="10" d="M31.302 26.203V12.636a3.032 3.032 0 0 0-3.005-3.005h0a3.031 3.031 0 0 0-3.005 3.005h0v13.567m22.222 0V12.636A3.031 3.031 0 0 0 44.51 9.63h0a3.032 3.032 0 0 0-3.005 3.005h0v13.567"/><path stroke-linejoin="round" d="M19.512 26.294v10.472a16.572 16.572 0 0 0 33.145 0V26.294z"/><path stroke-linejoin="round" d="m30.075 52.337 1.548 5.645h9.015l1.457-5.645m-9.653 12.13v-6.485h7.376v6.485"/></g></svg>