<svg viewBox="0 0 72 72" xmlns="http://www.w3.org/2000/svg"><path fill="none" stroke="#000" stroke-linecap="round" stroke-linejoin="round" stroke-width="2" d="M22.089 28.077a37.87 37.87 0 0 1-.12-4.009c0-6.013 5.011-12.026 14.031-12.026s14.03 6.013 14.03 12.026a37.326 37.326 0 0 1-.119 4.009"/><path d="M41.913 30.081a2.004 2.004 0 1 1-2.004-2.004 2.01 2.01 0 0 1 2.004 2.004m-8.018 0a2.004 2.004 0 1 1-2.004-2.004 2.01 2.01 0 0 1 2.004 2.004"/><path d="M41.913 30.081a2.004 2.004 0 1 1-2.004-2.004 2.01 2.01 0 0 1 2.004 2.004m-8.018 0a2.004 2.004 0 1 1-2.004-2.004 2.01 2.01 0 0 1 2.004 2.004"/><path fill="none" stroke="#000" stroke-linecap="round" stroke-linejoin="round" stroke-width="2" d="M16.958 60.147v-3.006c0-5.011 5.011-9.02 10.022-9.02q9.02 7.516 18.04 0c5.01 0 10.022 4.008 10.022 9.02v3.006m-8.873-24.791 3.308-2.633M25.63 35.356l-3.3-3.048m24.72-2.645c0-5-3-11-3-11-8 0-10 3-16 1 0 0-3 5-3.1 10m7.646 15.382c-1.333.011-3.625-1.851-4.497-3.07a14.785 14.785 0 0 1-2.434-5.818l-.139-.45 8.91-2.297a5.601 5.601 0 0 1 2.879.018l8.408 2.28h.543a14.486 14.486 0 0 1-1.84 5.796c-.877 1.416-3.28 3.456-4.743 3.468z"/></svg>