<svg viewBox="0 0 72 72" xmlns="http://www.w3.org/2000/svg"><path d="M42.035 28.832a2 2 0 1 1-2-2 2 2 0 0 1 2 2m-8 0a2 2 0 1 1-2-2 2 2 0 0 1 2 2"/><path fill="none" stroke="#000" stroke-linecap="round" stroke-linejoin="round" stroke-width="2" d="M18.581 35.772c.615-1.774 1.498-3.494 2.192-5.276 1.635-4.2-.21-6.45 1.29-12.034 1.48-5.5 7.278-8.966 13.71-8.966 5.4 0 8 3 8 3a8.132 8.132 0 0 1 7.405 8.037c.387 7.18 1.024 7.153 3.429 12.823a11.599 11.599 0 0 1-1.447 11.663"/><path fill="none" stroke="#000" stroke-linejoin="round" stroke-width="2" d="M46.29 34.831a17.717 17.717 0 0 0 .745-5.153c0-5-2-8-6-12-4 4-16 9-16 11v1a17.9 17.9 0 0 0 .574 4.55"/><path fill="none" stroke="#000" stroke-linecap="round" stroke-linejoin="round" stroke-width="2" d="M16.958 59.956V56.95c0-5.01 5.011-9.02 10.022-9.02q9.02 7.517 18.04 0c5.01 0 10.022 4.009 10.022 9.02v3.007m-8.873-24.792 3.308-2.633M25.63 35.165l-3.3-3.048m10.246 12.171c-1.333.011-3.624-1.852-4.497-3.07a14.784 14.784 0 0 1-2.433-5.818l-.14-.45 8.91-2.297a5.602 5.602 0 0 1 2.88.018l8.407 2.279h.544a14.486 14.486 0 0 1-1.84 5.796c-.878 1.416-3.28 3.456-4.743 3.468z"/></svg>