<svg viewBox="0 0 72 72" xmlns="http://www.w3.org/2000/svg"><path fill="none" stroke="#000" stroke-linecap="round" stroke-linejoin="round" stroke-width="2" d="M22.089 27.886a37.872 37.872 0 0 1-.12-4.009c0-6.013 5.011-12.026 14.031-12.026s14.03 6.013 14.03 12.026a37.328 37.328 0 0 1-.119 4.01"/><path d="M41.913 29.89a2.004 2.004 0 1 1-2.004-2.004 2.01 2.01 0 0 1 2.004 2.004m-8.018 0a2.004 2.004 0 1 1-2.004-2.004 2.01 2.01 0 0 1 2.004 2.004"/><path d="M41.913 29.89a2.004 2.004 0 1 1-2.004-2.004 2.01 2.01 0 0 1 2.004 2.004m-8.018 0a2.004 2.004 0 1 1-2.004-2.004 2.01 2.01 0 0 1 2.004 2.004"/><path fill="none" stroke="#000" stroke-linecap="round" stroke-linejoin="round" stroke-width="2" d="M16.958 59.956V56.95c0-5.01 5.011-9.02 10.022-9.02q9.02 7.517 18.04 0c5.01 0 10.022 4.009 10.022 9.02v3.007M32.7 44.733c-1.334.011-3.625-1.852-4.497-3.07a14.784 14.784 0 0 1-2.434-5.818l-.14-.45 8.91-2.298a5.602 5.602 0 0 1 2.88.019l8.408 2.279h.543a14.486 14.486 0 0 1-1.84 5.796c-.878 1.416-3.28 3.456-4.743 3.468zm13.469-9.568 3.308-2.633M25.63 35.165l-3.3-3.048m24.644-2.864a11.658 11.658 0 0 0-.962-3.998c-3-3-7-8-7-8-4 3-7 6-13 7 0 0-.93.873-1.05 5.069"/></svg>