<svg viewBox="0 0 72 72" xmlns="http://www.w3.org/2000/svg"><g fill="none" stroke="#000" stroke-linecap="round" stroke-width="2"><path stroke-linejoin="round" d="M48.083 46.697c3.85 1.178 7.067 4.547 7.067 8.551v5.423"/><path stroke-miterlimit="10" d="M55.062 36.748 40.63 45.76a58.464 58.464 0 0 1-11.937 5.69c-2.438.84-4.646 1.597-4.646 1.597"/><path stroke-miterlimit="10" d="m59.632 33.335 1.815 1.106a2.737 2.737 0 0 0 3.21-.262h0a2.732 2.732 0 0 0 .339-3.808 12.152 12.152 0 0 0-5.365-3.535 6.147 6.147 0 0 0-4.934.378h0a3.38 3.38 0 0 0-.7.497l-.502.465a3.386 3.386 0 0 0-.73.972l-.583 1.166a4.699 4.699 0 0 1-1.97 2.034h0a80.926 80.926 0 0 0-13.933 4.055l-13.513 5.054a8.124 8.124 0 0 0-5.237 6.619 91.665 91.665 0 0 0-.467 11.672m12.92-30.539s2.53 1.511 4.041 0m4.291-.227s2.53 1.51 4.041 0"/><path stroke-linejoin="round" d="M24.046 35.02a18.736 18.736 0 0 1-1.759-6.08 16.51 16.51 0 0 1-.134-1.692c-.001-.654-.003-1.322-.003-2 0-7 5-14 14-14a13.75 13.75 0 0 1 14 13.496q.005.252 0 .504c0 .6.004 1.132.005 1.666"/><path stroke-miterlimit="10" d="M29.982 42.223s-.006 2.553 2.02 3.447"/><path stroke-linejoin="round" d="M37.09 50.795q5.265.735 10.53-3.652m-.57-17.48c0-5-3-11-3-11-8 0-10 3-16 1a30.602 30.602 0 0 0-2.263 10"/></g></svg>