<svg viewBox="0 0 72 72" xmlns="http://www.w3.org/2000/svg"><g fill="none" stroke="#000" stroke-linecap="round" stroke-width="2"><path stroke-linejoin="round" d="M47.181 46.985c3.85 1.178 7.068 4.547 7.068 8.55v5.423"/><path stroke-miterlimit="10" d="m54.16 37.036-14.432 9.011a58.459 58.459 0 0 1-11.938 5.69c-2.438.84-4.646 1.597-4.646 1.597"/><path stroke-miterlimit="10" d="m58.73 33.622 1.815 1.107a2.737 2.737 0 0 0 3.21-.263h0a2.732 2.732 0 0 0 .339-3.807 12.152 12.152 0 0 0-5.365-3.535 6.147 6.147 0 0 0-4.935.377h0a3.387 3.387 0 0 0-.698.498l-.503.464a3.385 3.385 0 0 0-.73.972l-.583 1.167a4.7 4.7 0 0 1-1.97 2.033h0a80.915 80.915 0 0 0-13.934 4.055l-13.512 5.054a8.123 8.123 0 0 0-5.237 6.62 91.684 91.684 0 0 0-.467 11.672m12.92-30.539s2.53 1.51 4.042 0m4.29-.227s2.53 1.51 4.042 0"/><path stroke-miterlimit="10" d="M29.08 42.51s-.006 2.554 2.02 3.447"/><path stroke-linejoin="round" d="M36.188 51.083q5.266.735 10.53-3.653m7.625-7.645a11.589 11.589 0 0 1-2.253 5.234m-34.829-5.382c-.389-3.637 1.748-7.359 2.442-9.14 1.636-4.2-.21-6.451 1.29-12.034 1.48-5.5 7.278-8.966 13.71-8.966 5.4 0 8 3 8 3a8.132 8.132 0 0 1 7.405 8.037 32.04 32.04 0 0 0 .747 6.244"/><path stroke-linejoin="round" d="M45.949 30.489q.017-.402.017-.81c0-5-2-8-6-12-4 4-16 9-16 11v1a17.9 17.9 0 0 0 .574 4.55"/></g></svg>