<svg viewBox="0 0 72 72" xmlns="http://www.w3.org/2000/svg"><g fill="none" stroke="#000" stroke-linecap="round" stroke-width="2"><path stroke-linejoin="round" d="M21.252 27.536c-.003-.655-.003-1.323-.003-2 0-7 5-14 14-14a13.75 13.75 0 0 1 14 13.495q.004.252 0 .505c0 .6.004 1.131.005 1.666"/><path stroke-linejoin="round" d="M46.212 29.534a11.66 11.66 0 0 0-.963-3.998c-3-3-7-8-7-8-4 3-7 6-13 7 0 0-.929.873-1.05 5.069m22.982 17.38c3.85 1.178 7.068 4.547 7.068 8.55v5.423"/><path stroke-miterlimit="10" d="m54.16 37.036-14.432 9.011a58.459 58.459 0 0 1-11.938 5.69c-2.438.84-4.646 1.597-4.646 1.597"/><path stroke-miterlimit="10" d="m58.73 33.622 1.815 1.107a2.737 2.737 0 0 0 3.21-.263h0a2.732 2.732 0 0 0 .339-3.807 12.152 12.152 0 0 0-5.365-3.535 6.147 6.147 0 0 0-4.935.377h0a3.387 3.387 0 0 0-.698.498l-.503.464a3.385 3.385 0 0 0-.73.972l-.583 1.167a4.7 4.7 0 0 1-1.97 2.033h0a80.915 80.915 0 0 0-13.934 4.055l-13.512 5.054a8.123 8.123 0 0 0-5.237 6.62 91.684 91.684 0 0 0-.467 11.672m12.92-30.539s2.53 1.51 4.042 0m4.29-.227s2.53 1.51 4.042 0"/><path stroke-linejoin="round" d="M26.324 37.59s-3.981 1.022-4.528-5.516"/><path stroke-miterlimit="10" d="M29.08 42.51s-.006 2.554 2.02 3.447"/><path stroke-linejoin="round" d="M36.188 51.083q5.266.735 10.53-3.653"/></g></svg>