<svg viewBox="0 0 72 72" xmlns="http://www.w3.org/2000/svg"><path fill="none" stroke="#000" stroke-linecap="round" stroke-linejoin="round" stroke-width="2" d="m28.256 54.586-2.102 1.341-14.266-22.366L49.753 9.409l14.266 22.367-3.802 2.425"/><path fill="none" stroke="#000" stroke-linecap="round" stroke-linejoin="round" stroke-width="1.733" d="m40.64 39.901-.003-15.878"/><path fill="none" stroke="#000" stroke-linecap="round" stroke-linejoin="round" stroke-width="2" d="m46.35 38.515-.151-16.177v.665c-.001-3.052 5.629-3.873 5.63.72l.052 5.574.099 10.604-.114-12.193c0-2.749 4.897-2.842 4.897.703l.003 21.122c.001 4.145-.514 6.871-2.68 10.339v2.213H35.032V59.87c-1.856-2.198-3.031-5.335-4.274-9.006-.815-2.534-2.533-6.73-4.502-12.543 1.18-2.388 4.862-.91 6.636 1.089l2.004 4.096-.003-19.982c0-3.175 5.744-3.411 5.745.5v-2.531c0-3.419 5.56-4.61 5.56 1.51M40.64 39.901l-.003-15.878"/><circle cx="27.766" cy="10.958" r="2"/><circle cx="37.085" cy="10.958" r="2"/><circle cx="15.128" cy="16" r="2"/><circle cx="19.128" cy="20" r="2"/><circle cx="15.383" cy="25.338" r="2"/><circle cx="23.362" cy="24.669" r="2"/><circle cx="28.256" cy="20.669" r="2"/><circle cx="23.766" cy="16" r="2"/><circle cx="31.808" cy="16" r="2"/><circle cx="19.128" cy="10.958" r="2"/><path fill="none" stroke="#000" stroke-linecap="round" stroke-linejoin="round" stroke-width="2" d="M35.032 62.085v4.621l19.054.039v-4.66"/></svg>