<svg viewBox="0 0 72 72" xmlns="http://www.w3.org/2000/svg"><path fill="none" stroke="#000" stroke-linecap="round" stroke-linejoin="round" stroke-width="2.224" d="m13.902 14.702 21.105 2.301.355 44.05h3.744l-.233-47.501L13.902 11"/><g fill="none" stroke="#000" stroke-width="2"><circle cx="55.047" cy="23.097" r="2.075" stroke-miterlimit="10"/><path stroke-linecap="round" stroke-linejoin="round" d="m58.518 32.14 1.328 26.557c.038.77-.402 1.398-.979 1.398a1.45 1.45 0 0 1-1.208-1.389L55.882 43.31c-.09-.764-.474-1.389-.859-1.389s-.77.625-.859 1.389L52.39 58.706a1.45 1.45 0 0 1-1.208 1.389c-.577 0-1.017-.63-.979-1.398l1.328-26.557"/><path stroke-linecap="round" stroke-linejoin="round" d="m48.736 44.72.553-13.28a3.686 3.686 0 0 1 3.64-3.494h4.193"/><path stroke-linecap="round" stroke-linejoin="round" d="M57.071 27.946a3.686 3.686 0 0 1 3.64 3.494l.554 13.28"/></g><g fill="none" stroke="#000" stroke-width="2"><circle cx="16.609" cy="23.163" r="2.075" stroke-miterlimit="10"/><path stroke-linecap="round" stroke-linejoin="round" d="m20.08 32.206 1.328 26.557c.038.769-.402 1.398-.979 1.398a1.45 1.45 0 0 1-1.208-1.389l-1.777-15.397c-.09-.764-.474-1.389-.859-1.389s-.77.625-.859 1.39l-1.774 15.396a1.45 1.45 0 0 1-1.208 1.389c-.577 0-1.017-.63-.979-1.398l1.328-26.557"/><path stroke-linecap="round" stroke-linejoin="round" d="m10.297 44.785.554-13.278a3.686 3.686 0 0 1 3.64-3.495h4.193"/><path stroke-linecap="round" stroke-linejoin="round" d="M18.633 28.012a3.686 3.686 0 0 1 3.64 3.495l.554 13.278"/></g><circle cx="26.113" cy="29.338" r="2"/><circle cx="9.297" cy="19.003" r="2"/><circle cx="7" cy="26.023" r="2"/><circle cx="22.826" cy="20" r="2"/><circle cx="28.113" cy="23.784" r="2"/></svg>