<svg viewBox="0 0 72 72" xmlns="http://www.w3.org/2000/svg"><path fill="none" stroke="#000" stroke-linecap="round" stroke-linejoin="round" stroke-width="2" d="M32.197 60.149H15.922V30.696h7.987a105.344 105.344 0 0 1 7.255 9.608c3.113 4.945 1.033 19.845 1.033 19.845z"/><path fill="none" stroke="#000" stroke-linecap="round" stroke-linejoin="round" stroke-width="2" d="M32.266 43.944h-9.615l.064 13.453h9.583M15.922 30.696V22.49S18.334 16 24.252 16h8.844v3.727l-8.487 3.113v5.901l-.7 1.955"/><path fill="none" stroke="#000" stroke-linecap="round" stroke-linejoin="round" stroke-width="2" d="M27.351 22.51c-.352 2.144 3.813 8.574 3.813 8.574l.422-.116a1.232 1.232 0 0 0 .86-1.55 38.272 38.272 0 0 1-.94-7.477l.166-1.692"/><path d="M33.032 14.995h2.978v5.601h-2.978z"/><circle cx="54.043" cy="17.791" r="2"/><circle cx="54.043" cy="8.791" r="2"/><circle cx="47.836" cy="13.791" r="2"/><circle cx="47.836" cy="21.791" r="2"/><circle cx="54.043" cy="26.956" r="2"/><circle cx="40.87" cy="17.791" r="2"/></svg>