<svg viewBox="0 0 72 72" xmlns="http://www.w3.org/2000/svg"><g fill="none" stroke="#000" stroke-linecap="round" stroke-linejoin="round"><path stroke-width="1.697" d="M51.282 11.254h8.475M55.52 16.05v-4.796m5.05 4.796H49.953c-6.32 0-6.837 5.03-6.837 6.837a.61.61 0 0 0 .645.645h3.225a.686.686 0 0 0 .645-.58 2.493 2.493 0 0 1 2.386-2.45h9.78"/><path stroke-width="2" d="m22.306 43.46-2.197-.018 4.221-10.685s.216-2.33-2.385-1.388L11.858 44.22a12.058 12.058 0 0 0-2.595 6.262 9.87 9.87 0 0 0 .668 4.768c1.97 4.713 9.05 4.72 10.963 4.625"/><path stroke-width="2" d="M22.085 43.467h13.256s2.368.784.99 3.239m-11.744.842h11.54s1.513.523 1.513 1.871-1.512 1.913-1.512 1.913m-11.573.502h10.786s1.624-.371 1.624 1.624a2.06 2.06 0 0 1-1.554 2.25H24.873m7.944.356a2.506 2.506 0 0 1 .63 2.173 1.692 1.692 0 0 1-1.444 1.638h-6.635m.382-30.061a5.972 5.972 0 0 1 5.765.197c1.654.827 3.463 3.494 2.911 5.862a10.308 10.308 0 0 1-1.949 3.425 3.162 3.162 0 0 1 1.894 1.761"/><path stroke-width="2" d="M30.49 33.218a4.51 4.51 0 0 0-3.69.288m10.362-1.005 7.231-3.136s1.998-.374 1.981 1.183a2.255 2.255 0 0 1-.842 1.658L37.64 38.91l4.223 2.392m-.416-.226 8.903 4.848a1.954 1.954 0 0 1 1.066 1.652 1.732 1.732 0 0 1-.18.79c-.536 1.088-2.214 1.056-2.214 1.056"/><path stroke-width="2" d="m39.656 44.503 9.365 4.92a2.749 2.749 0 0 1 1.416 1.7 1.832 1.832 0 0 1-.233 1.524c-.918 1.39-2.9 1.003-2.9 1.003"/><path stroke-width="2" d="m39.75 49.851 7.348 3.669a1.839 1.839 0 0 1 .698 2.851 1.618 1.618 0 0 1-2.285.543l-6.73-2.98"/><path stroke-width="2" d="M43.019 55.81s.547 1.948-.349 2.74a2.187 2.187 0 0 1-.693.416 2.375 2.375 0 0 1-1.8-.113l-3.416-1.558"/><circle cx="38.74" cy="26.445" r="2.197" stroke-width="2"/><circle cx="29.797" cy="22.294" r="2.865" stroke-width="2"/></g></svg>