<svg viewBox="0 0 72 72" xmlns="http://www.w3.org/2000/svg"><g fill="none" stroke="#000" stroke-width="2"><g stroke-linecap="round" stroke-linejoin="round"><path d="M30.488 40.676a12.6 12.6 0 0 1-2.417.189c-1.59 0-2.88-.186-2.88-.414m5.297 5.698a12.6 12.6 0 0 1-2.417.189c-1.59 0-2.88-.186-2.88-.414m4.569-10.611a13.156 13.156 0 0 1-2.285.07c-1.59 0-2.283-.177-2.283-.405m5.296-5.248a12.6 12.6 0 0 1-2.417.189c-1.59 0-2.88-.185-2.88-.414"/><path d="M32.42 37.888v10.831a2.167 2.167 0 0 0 .923 1.599 7.225 7.225 0 1 1-11.086 2.573"/><path d="M24.285 50.31a2.103 2.103 0 0 0 .907-1.59V21.283a3.614 3.614 0 0 1 7.227 0l.011 8.428"/><path d="M30.488 24.257a12.6 12.6 0 0 1-2.417.189c-1.59 0-2.88-.185-2.88-.414"/></g><path stroke-miterlimit="10" d="M37.266 22.206a2.456 2.456 0 0 0-2.217 2.628l-.52 6.708-2.32 3.509a.227.227 0 0 0 .147.34s5.963-2.673 6.074-2.673h15.353A2.456 2.456 0 0 0 56 30.09v-5.256a2.456 2.456 0 0 0-2.217-2.628z"/></g></svg>