<svg viewBox="0 0 72 72" xmlns="http://www.w3.org/2000/svg"><g fill="none" stroke="#000" stroke-linecap="round" stroke-linejoin="round" stroke-width="2"><path d="m21.223 26.275-.001-6.519m-4.029 4.521v-4.872c0-2.227 4.03-2.393 4.03.35V17.98c0-2.398 3.9-3.234 3.9 1.06"/><path d="m25.23 29.922-.107-11.348v.466c0-2.14 3.949-2.717 3.95.505l.036 3.91.07 7.439-.08-8.553c0-1.929 3.435-1.994 3.436.493l.002 14.817a9.671 9.671 0 0 1-.62 3.426l-.375.858s-2.522 9.655-3.245 12.97H17.482c-.679-2.957-3.244-12.97-3.244-12.97l-.323-1.353a9.68 9.68 0 0 1 .398-5.755c.62-1.596 1.392-3.59 2.377-5.918 1.01-.41 1.854.268 2.38 1.276a4.308 4.308 0 0 1 .053 3.658l-.13.307a6.204 6.204 0 0 0-.492 2.42v1.172m32.206-17.795-.002 11.138m4.285 4.308 1.357-4.911a2.537 2.537 0 0 1 .639-1.128c1.09-1.088 2.782-1.834 3.749-1.027a.798.798 0 0 1 .241.793c-.967 3.983-1.854 6.89-2.248 8.653l-1.037 4.353s-2.185 8.386-3.109 12.375a.77.77 0 0 1-.754.595H44.24a.767.767 0 0 1-.751-.584c-.9-3.655-3.101-12.386-3.101-12.386l-.375-.858a9.669 9.669 0 0 1-.62-3.426l.002-14.816c0-2.487 3.436-2.422 3.435-.494l-.08 8.553.07-7.438.037-3.91c0-3.222 3.95-2.646 3.95-.505v-.467L46.7 30.114"/><path d="M46.806 19.232c0-4.294 3.901-3.458 3.9-1.06v1.775c0-2.744 4.03-2.578 4.03-.35v5.68m-25.01 22.635H16.122m39.7.191H42.218"/></g></svg>