<svg viewBox="0 0 72 72" xmlns="http://www.w3.org/2000/svg"><g stroke="#000" stroke-linejoin="round" stroke-width="2"><circle cx="36" cy="36" r="2.403" fill-rule="evenodd" stroke-miterlimit="10"/><path fill="none" d="m28.46 17.87 15.07 36.39m-25.8-10.72L54.1 28.47m-36.35-.03 36.31 15.04M43.43 17.96 28.46 54.09"/></g><g fill="none" stroke="#000" stroke-miterlimit="10" stroke-width="2"><path d="M62 36a26 26 0 0 1-26 26 26 26 0 0 1-26-26 26 26 0 0 1 26-26 26 26 0 0 1 26 26"/><path d="M55.63 36A19.63 19.63 0 0 1 36 55.63 19.63 19.63 0 0 1 16.37 36 19.63 19.63 0 0 1 36 16.37 19.63 19.63 0 0 1 55.63 36"/></g></svg>