<svg viewBox="0 0 72 72" xmlns="http://www.w3.org/2000/svg"><g fill="none" stroke="#000"><g stroke-width="2"><path stroke-miterlimit="10" d="M53.116 49.04a5.445 5.445 0 0 1-3.018.42c-1.744-.164-9.25-1.746-12.976-1.792S26.73 49.164 25.2 49.155a33.594 33.594 0 0 1-6.276-.553m1.301-24.501a23.18 23.18 0 0 1 3.921-.355c1.723 0 8.314 1.201 12.976 1.155a123.736 123.736 0 0 0 12.994-.826 7.916 7.916 0 0 1 3.261-.08"/><path stroke-linecap="round" stroke-linejoin="round" d="M53.377 23.994s-2.37 17.853-.261 25.047"/><path stroke-linecap="round" stroke-miterlimit="10" d="M20.365 24.286s2.23 19.325.25 23.428"/><path stroke-miterlimit="10" d="M19.364 48.702a2.971 2.971 0 0 1-2.352-1.834"/></g><path stroke-linecap="round" stroke-linejoin="round" stroke-width="1.6" d="M26.067 31.666h4.345a3.402 3.402 0 0 1 2.28.86 3.806 3.806 0 0 0 2.573 1.112c1.903-.069 1.757-1.825 7.027-1.972m-14.556 6.076h5.584c.84 0 2.366 1.946 4.463 2.093s4.073-2.228 5.121-2.266c1.903-.07.915.138 6.185-.009"/><path stroke-miterlimit="10" stroke-width="2" d="M17.078 47.022a5.867 5.867 0 0 1-.258-1.636 1.932 1.932 0 0 1 .184-.676 1.642 1.642 0 0 0-.37-1.458 1.398 1.398 0 0 1-.246-.889 2.982 2.982 0 0 1 .525-1.642 1.928 1.928 0 0 0 .2-1.799 5.51 5.51 0 0 0-.25-.53c-.647-1.21-.212-1.648.026-2.403s-1.191-.62-.5-2.175q.053-.12.101-.235a2.508 2.508 0 0 0-.432-2.374c-.101-.153-.085-.413.178-.845.124-.202.235-.404.336-.602.41-.801.567-1.473-.042-2.135-.203-.22-.004-.796.16-1.58.33-1.575 3.808-1.982 3.808-1.982m32.248 25.086s4.867-1.104 4.047-3.77a1.93 1.93 0 0 0-.184-.675 1.642 1.642 0 0 1 .37-1.458 1.398 1.398 0 0 0 .246-.889 2.983 2.983 0 0 0-.525-1.642 1.928 1.928 0 0 1-.2-1.8 5.535 5.535 0 0 1 .25-.53c.647-1.21.212-1.647-.027-2.403s1.192-.62.501-2.174q-.053-.12-.101-.235a2.508 2.508 0 0 1 .431-2.375c.102-.152.086-.412-.178-.844a9.02 9.02 0 0 1-.335-.602c-.41-.802-.567-1.473.042-2.135.203-.22.004-.796-.16-1.58-.33-1.575-3.899-2.102-3.899-2.102"/></g></svg>