<svg viewBox="0 0 72 72" xmlns="http://www.w3.org/2000/svg"><g fill="none" stroke="#000" stroke-width="2"><path stroke-linecap="round" stroke-linejoin="round" d="M35.088 53.375c1.467 3.77 3.686 6.172 6.168 6.172 4.231 0 7.687-6.986 7.972-15.824a9.998 9.998 0 0 0-.011-18.357 8.998 8.998 0 0 0-9.429-9.806m-5.896 2.623a8.949 8.949 0 0 0 1.144 13.684 30.603 30.603 0 0 0-1.78 10.68 35.54 35.54 0 0 0 .224 4.017A15.383 15.383 0 0 0 34 49m-9.5-26a4.159 4.159 0 0 0-1.5 3c.024 1.592 1.368 2.279 1.5 4a4.606 4.606 0 0 1-1 3m-5.762-2.197a4.158 4.158 0 0 0 .219 3.347c.824 1.362 2.33 1.277 3.313 2.697a4.605 4.605 0 0 1 .65 3.094m7.781-7.472a4.159 4.159 0 0 0-2.764 1.9c-.75 1.404.094 2.655-.623 4.226a4.606 4.606 0 0 1-2.327 2.141M30.5 40a4.159 4.159 0 0 0-1.5 3c.024 1.592 1.368 2.279 1.5 4a4.606 4.606 0 0 1-1 3m-6.7-6.296a4.159 4.159 0 0 0-.456 3.323c.534 1.5 2.027 1.719 2.705 3.306a4.605 4.605 0 0 1 .018 3.162"/><path stroke-linecap="round" stroke-linejoin="round" d="M38.614 51.895a4.158 4.158 0 0 0-3.222.93c-1.155 1.097-.75 2.55-1.926 3.814a4.606 4.606 0 0 1-2.883 1.297M24.68 13.814a4.159 4.159 0 0 0 .256 3.345c.84 1.353 2.345 1.25 3.344 2.66a4.606 4.606 0 0 1 .684 3.087"/><path stroke-miterlimit="10" d="M45.677 41.508a2.465 2.465 0 0 1-3.06-2.73 21.96 21.96 0 0 0-2.458-13.956 24.883 24.883 0 0 0-9.406-9.351 2.442 2.442 0 0 1-.892-3.356 2.485 2.485 0 0 1 3.38-.898 29.771 29.771 0 0 1 11.254 11.228 26.8 26.8 0 0 1 3.013 17.037 2.475 2.475 0 0 1-1.83 2.026z"/><circle cx="36" cy="36" r="28" stroke-linecap="round" stroke-linejoin="round"/></g></svg>