<svg viewBox="0 0 72 72" xmlns="http://www.w3.org/2000/svg"><path d="M33.25 20.94c1.554.236 2.192-.152 2.773-.58m-7.873 4.32c1.554.236 2.192-.152 2.773-.58m-7.713 5.29c1.554.236 2.192-.152 2.773-.58m2.727-.01c1.554.236 2.192-.152 2.773-.58M19.81 34.05c1.554.236 2.192-.152 2.773-.58m3.047.24c1.554.236 2.192-.152 2.773-.58M15.55 41.42c1.554.236 2.192-.152 2.773-.58m1.477-2.96c1.554.236 2.192-.152 2.773-.58M40.86 20.34c1.145 1.077 1.891 1.12 2.611 1.098M40.54 24.33c1.145 1.077 1.891 1.12 2.611 1.098m-7.571.432c1.145 1.077 1.891 1.12 2.611 1.098m-.931 3.462c1.145 1.077 1.891 1.12 2.611 1.098m-7.751.412c1.145 1.077 1.891 1.12 2.611 1.098M32.82 36.46c1.145 1.077 1.891 1.12 2.611 1.098m-8.001.062c1.145 1.077 1.891 1.12 2.611 1.098M26.62 41.67c1.145 1.077 1.891 1.12 2.611 1.098m-7.981-.308c1.145 1.077 1.891 1.12 2.611 1.098M17.83 45.31c1.145 1.077 1.891 1.12 2.611 1.098" fill="none" stroke="#000" stroke-linecap="round" stroke-linejoin="round" stroke-width="2"/><g fill="none" stroke="#000" stroke-linecap="round" stroke-width="2"><path d="M15.18 46.36c2.177 2.331 4.22 2.526 4.347 2.538 11.82 1.074 27.92-16.01 26.88-28.63-.184-1.538-.99-2.714-2.387-3.445"/><path stroke-linejoin="round" stroke-miterlimit="10" d="M53.26 55.35a26.109 26.109 0 0 1-6.296 4.644c-.753.392-1.527.753-2.312 1.073a26.243 26.243 0 0 1-9.784 1.899 25.93 25.93 0 0 1-18.39-7.616c-10.16-10.16-4.489-20.96 5.666-31.12 7.42-7.428 15.19-12.45 22.79-10.65.538.127 3.531-1.687 3.003-4.498-.025-.131 1.098-.228 2.761.303 1.805.576 2.682 1.57 3.53 2.933-2.569.903-2.981 4.066-2.748 4.32l1.776 1.927c1.147 1.245 2.219 2.672 3.137 4.024 6.853 10.11 5.831 23.8-3.137 32.76z"/></g></svg>