<svg viewBox="0 0 72 72" xmlns="http://www.w3.org/2000/svg"><path d="M45 42H26m19-18H25.5m20-7H25.14" fill="none" stroke="#000" stroke-linecap="round" stroke-width="2"/><path d="m22.034 13.033-1 .033 1-.033zm26.928.003L47.963 13l1 .036zM48.856 16l-1-.036L47.82 17h1.037v-1zm0 0 1 .036.037-1.036h-1.037v1zM47.34 58.072l.999.036-1-.036zm-23.816-.006-1 .033 1-.033zM22.132 16l1-.033L23.1 15h-.968v1zm0 0-1 .033.033.967h.967v-1zm.901-5a2 2 0 0 0-1.998 2.066L23.033 13v-2zm24.93 0h-24.93v2h24.93v-2zm1.999 2.072A2 2 0 0 0 47.963 11v2l1.999.072zm-.107 2.964.107-2.964L47.963 13l-.107 2.964 2 .072zm-1 .964v-2 2zm-.998-1.036L46.34 58.036l1.999.072 1.516-42.072-1.998-.072zM46.34 58.036a1 1 0 0 1-1 .964v2a3 3 0 0 0 2.999-2.892l-1.999-.072zm-1 .964H25.524v2h19.818v-2zm-19.817 0a1 1 0 0 1-1-.967l-1.998.066A3 3 0 0 0 25.523 61v-2zm-1-.967-1.391-42.066-2 .066L22.526 58.1l1.999-.066zM22.134 17v-2 2zm-1.098-3.934.098 2.967 1.999-.066-.1-2.967-1.998.066z"/><path fill="none" stroke="#000" stroke-linecap="round" stroke-width="2" d="M34 57h9.535a1 1 0 0 0 1-.964L46 15"/></svg>