<svg viewBox="0 0 72 72" xmlns="http://www.w3.org/2000/svg"><path fill="none" stroke="#000" stroke-linecap="round" stroke-linejoin="round" stroke-width="2" d="M46.188 18.367C42.97 23.263 41 31.007 41 34c0-2.408 3.12-7.637 7.396-12M34.2 17.037C30.976 21.733 29 29.3 29 32.895c0-3.02 3.406-8.558 7.977-12.878m-16.087.307C18.45 24.93 17 30.921 17 34c0-3.048 3.47-8.663 8.108-13"/><path fill="none" stroke="#000" stroke-width="2" d="M64 41c0 10.493-12.536 14-28 14S8 51.493 8 41s8-24 28-24 28 13.507 28 24z"/></svg>