<svg viewBox="0 0 72 72" xmlns="http://www.w3.org/2000/svg"><g fill="none" stroke="#000" stroke-linecap="round" stroke-linejoin="round" stroke-miterlimit="10" stroke-width="2"><path d="M33.79 23.71c4.13-1.45 7.09-5.39 7.09-10.02 0-5.87-4.75-10.63-10.62-10.63S19.64 7.82 19.64 13.69c0 4.65 2.99 8.6 7.15 10.04"/><path d="M33.79 20.57a7.733 7.733 0 0 0 4.2-6.88c0-4.28-3.46-7.74-7.73-7.74s-7.74 3.46-7.74 7.74c0 3.02 1.74 5.64 4.27 6.91m28.026 30.174c0 9.089-7.367 16.456-16.456 16.456s-16.455-7.367-16.455-16.456m32.911-.873v-12m-6.992-.294a3.5 3.5 0 1 1 6.994.294m-13.991-.527a3.5 3.5 0 1 1 6.994.294"/><path d="M40.831 37.24a3.5 3.5 0 1 1 6.978.562m-14.019-.906a3.5 3.5 0 0 1 6.985.448M16.836 39.12a3.5 3.5 0 1 1 5.035-4.863m4.919-19.733a3.5 3.5 0 1 1 7 0m-.001 22.335V14.524m-6.999 0v27.791m-2.961-5.844-1.958-2.214m-3.268 7.183c1.953 2.143 3.374 5.167 3.302 9.521M16.836 39.12l1.821 2.38m36.174 9.26c0 9.087-7.367 16.455-16.455 16.455S21.92 59.847 21.92 50.759"/></g></svg>