<svg viewBox="0 0 72 72" xmlns="http://www.w3.org/2000/svg"><g stroke="#000" stroke-linecap="round" stroke-linejoin="round" stroke-miterlimit="10" stroke-width="2"><path d="M40.568 11.595s7.21 0 14.42 4.807m-28.84-4.807s-7.21 0-14.42 4.807"/><path fill="none" d="m54.624 10 1.307 7.239m-7.239 1.307 7.239-1.307M12.343 10l-1.307 7.239m7.239 1.307-7.239-1.307M55.02 50.547c0 7.806-6.328 14.135-14.135 14.135S26.75 58.353 26.75 50.547m28.271-.751V39.488m-6.007-.252a3.006 3.006 0 1 1 6.008.252"/><path fill="none" d="M43.004 39.036a3.006 3.006 0 0 1 6.008.252"/><path fill="none" d="M43.008 38.921a3.006 3.006 0 0 1 5.993.482m-12.041-.777a3.007 3.007 0 0 1 6 .384m-20.564 1.525a3.006 3.006 0 0 1 4.325-4.177m4.225-16.95a3.006 3.006 0 1 1 6.013 0m0 19.186V19.408m-6.013 0V43.28m-2.543-5.02-1.682-1.902m-2.806 6.17c1.677 1.842 2.897 4.439 2.835 8.18m-4.354-10.173 1.565 2.045m11.566-28.962a3 3 0 1 0-4.648.503"/></g></svg>