<svg viewBox="0 0 72 72" xmlns="http://www.w3.org/2000/svg"><g fill="none" stroke="#000" stroke-linecap="round" stroke-linejoin="round" stroke-miterlimit="10" stroke-width="2"><path d="M38.83 54.501h-5.537c-4.97 0-9.035-4.065-9.035-9.034V26.38c0-4.969 4.066-9.034 9.035-9.034h5.536c4.97 0 9.035 4.065 9.035 9.034v19.087c0 4.969-4.066 9.034-9.035 9.034z"/><path d="M36.145 32.155h-.168a2.035 2.035 0 0 1-2.03-2.03V24.08c0-1.116.914-2.029 2.03-2.029h.168c1.116 0 2.03.913 2.03 2.03v6.046c0 1.116-.914 2.03-2.03 2.03zm-21.113 2.036-5.215-5.216m5.215-5.258-5.215 5.216m47.339-5.216 5.216 5.216m-5.216 5.258 5.216-5.216"/></g></svg>