<svg viewBox="0 0 72 72" xmlns="http://www.w3.org/2000/svg"><g fill="none" stroke="#000" stroke-linecap="round" stroke-linejoin="round" stroke-miterlimit="10" stroke-width="2"><path d="M57.855 39.586c5.98 5.018 6.76 13.934 1.742 19.914s-13.934 6.76-19.914 1.743M57.28 39.104l-7.896-6.626m-4.054 4.439a3.006 3.006 0 1 1 4.055-4.44m-8.071 8.916a3.006 3.006 0 1 1 4.054-4.44"/><path d="M41.228 41.316a3.006 3.006 0 1 1 4.222-4.281m-8.337 8.725a3.006 3.006 0 0 1 4.152-4.35m-12.05 16.733a3.006 3.006 0 0 1-.42-5.998M18.527 38.013a3.007 3.007 0 0 1 3.865-4.606m14.697 12.332L22.392 33.407m-3.865 4.606 18.286 15.344m-5.48-1.278-2.538.066m2.923 6.115c2.489-.1 5.263.634 8.088 3.086m-10.591-3.203 2.572.116M17.09 30.817a3 3 0 1 0-2.602 3.884m-1.022-10.149V7.466m-5.173 3.871 5.201-5.201m5.202 5.201-5.202-5.201"/></g></svg>