<svg viewBox="0 0 72 72" xmlns="http://www.w3.org/2000/svg"><g fill="none" stroke="#000" stroke-linecap="round" stroke-linejoin="round" stroke-miterlimit="10" stroke-width="2"><path d="M16.004 21.435c0-7.463 6.05-13.513 13.513-13.513s13.514 6.05 13.514 13.513m-27.027.718v9.854m5.742.241a2.874 2.874 0 1 1-5.743-.241"/><path d="M27.492 32.44a2.874 2.874 0 1 1-5.744-.242"/><path d="M27.488 32.55a2.874 2.874 0 1 1-5.73-.462m11.512.744a2.874 2.874 0 1 1-5.736-.368m19.659-1.458a2.874 2.874 0 1 1-4.135 3.993M39.02 51.204a2.874 2.874 0 1 1-5.75 0m.001-18.342v18.342m5.748 0V28.383m2.432 4.798 1.608 1.818m-.029-13.717c-.059 3.575 1.108 6.059 2.712 7.819m-.045-.05 1.496 1.955M20 65h8m16 0h8m-21 0v-5m10 5v-5m-11 0h12"/></g></svg>