<svg viewBox="0 0 72 72" xmlns="http://www.w3.org/2000/svg"><path fill="none" stroke="#000" stroke-linecap="round" stroke-linejoin="round" stroke-miterlimit="10" stroke-width="2" d="M58 61H14a3 3 0 0 1-3-3V14a3 3 0 0 1 3-3h44a3 3 0 0 1 3 3v44a3 3 0 0 1-3 3z"/><path fill="none" stroke="#000" stroke-linecap="round" stroke-linejoin="round" stroke-miterlimit="10" stroke-width="2" d="M46.605 25.391A14.953 14.953 0 0 1 51 36v0c0 8.284-6.716 15-15 15h0a14.953 14.953 0 0 1-10.599-4.385"/><circle cx="29.75" cy="36" r="3.75"/><circle cx="42.25" cy="36" r="3.75"/><circle cx="36" cy="36" r="15" fill="none" stroke="#000" stroke-linecap="round" stroke-linejoin="round" stroke-miterlimit="10" stroke-width="2"/></svg>