<svg viewBox="0 0 72 72" xmlns="http://www.w3.org/2000/svg"><g fill="none"><path stroke="#000" stroke-linecap="round" stroke-linejoin="round" stroke-width="1.6" d="M27.49 31.454h.07l17.53.85c10.46.2 11.28.15 12.05.1a15.28 15.28 0 0 0 0-1.54c-6.94-.21-10.46-.36-11.98-.42-1.53-.05-17.6-2.93-18.85-2.93-1.31 0-12.14.05-12.43.4s-.11 8.65-.11 8.65c-5.55 0-5.92.05-5.92.05s-.01 1.37 0 1.96c4.42-.04 4.35-.03 4.83-.05.16-.01 1.37-.01 3.23-.01"/><path stroke="#000" stroke-linecap="round" stroke-linejoin="round" stroke-width="1.6" d="M27.5 38.514c6.39.01 13 .04 15.63.07 4.9.06 11.78.11 14.01-.05.03-.63.02-1.26 0-1.83-3.11-.15-5.76-.1-13.41-.1a87.34 87.34 0 0 1-15.95-1.63"/><g stroke="#000" stroke-miterlimit="10" stroke-width="1.6"><path d="M19.646 41.914a18.582 18.582 0 0 0 7.91-.789m-11.607.287c-.003 0 .935.128 2.066.319"/><path d="M16.137 31.447c.311-.53 6.438-3.117 11.42 0 0 0 .042 8.947-.234 9.798-.004.011-.018.013-.03.01-1.199-.289-.076-1.344-5.48-1.515-4.81.23-5.817 1.032-5.864 1.672s-.123-9.436.188-9.965z"/></g><path d="M24.116 31.132s2.645.315 2.934 1.087c.002.77-.172 7.584-.172 7.584a6.339 6.339 0 0 0-2.762-.881z"/><path stroke="#000" stroke-linecap="round" stroke-linejoin="round" stroke-width="1.6" d="M24.438 44.164s4.198 1.927 0 4.258c-1.183.657 0 1.931 0 1.931"/><path d="M23.76 52.395a.798.798 0 0 1-.586-.256 2.56 2.56 0 0 1-.718-1.946 1.688 1.688 0 0 1 .916-1.23c.939-.521 1.468-1.052 1.454-1.458-.018-.5-.847-1.116-1.4-1.374a.8.8 0 0 1 .668-1.454c.232.107 2.267 1.088 2.33 2.766.042 1.075-.724 2.057-2.275 2.919a.348.348 0 0 0-.116.088 1.23 1.23 0 0 0 .314.6.8.8 0 0 1-.586 1.344z"/><path stroke="#000" stroke-linecap="round" stroke-linejoin="round" stroke-width="1.6" d="M20.39 40.83a9.259 9.259 0 0 1-.645 2.887c-.552 1.16.644 3.272.644 3.272"/></g></svg>