<svg viewBox="0 0 72 72" xmlns="http://www.w3.org/2000/svg"><g fill="none" stroke="#000" stroke-width="2"><path stroke-linecap="round" stroke-linejoin="round" d="M40.502 20.647H63.89a3.41 3.41 0 0 1 3.41 3.41v31.886a3.41 3.41 0 0 1-3.41 3.41H8.11a3.41 3.41 0 0 1-3.41-3.41V24.057a3.41 3.41 0 0 1 3.41-3.41h23.286"/><rect x="11.474" y="31.367" rx="2.918" ry="2.918" width="48" height="19.731" stroke-linecap="round" stroke-linejoin="round"/><path stroke-linecap="round" stroke-linejoin="round" d="M52.396 38.141h-4v7h4m-4-3.5h3m-17 3.5-3-7-3 7m1-1.676h4m-14 1.676v-7l5 7v-7m20 7v-7l-3 6-3-6v7"/><rect x="31.499" y="10.237" rx="1.557" ry="1.557" width="9.003" height="15.673" stroke-miterlimit="10"/></g></svg>