<svg viewBox="0 0 72 72" xmlns="http://www.w3.org/2000/svg"><rect x="26" y="18.5" rx="1" ry="1" width="20" height="3"/><path fill="none" stroke="#000" stroke-linecap="round" stroke-linejoin="round" stroke-width="2" d="M38 54.01v5.986h6.986M27 54.01v5.986h6.986M38 44v6h7m-18-5.99v5.986h6.986M38 34.01v5.986h6.986M27 34.01v5.986h6.986M38 24.01v5.986h6.986M27 24.01v5.986h6.986"/><rect x="23" y="16" rx="1" width="26" height="48" fill="none" stroke="#000" stroke-width="2"/><path fill="none" stroke="#000" stroke-width="2" d="M34 12V9.6c0-.884.895-1.6 2-1.6s2 .716 2 1.6V12m-13 4v-3a1 1 0 0 1 1-1h19a1 1 0 0 1 1 1v3"/></svg>