<svg viewBox="0 0 72 72" xmlns="http://www.w3.org/2000/svg"><g stroke="#000" stroke-width="2"><rect x="12" y="12" rx="1" width="48" height="48" fill="none" stroke-linejoin="round"/><path fill="none" d="M12 26h12"/><path fill="none" stroke-linecap="round" d="M56 26h4"/><path d="M12 55h48"/><path fill="none" stroke-linecap="round" stroke-linejoin="round" d="M40.5 26H24l2 8h18"/><circle cx="35" cy="19" r="4" fill="none"/><path fill="none" stroke-linecap="round" stroke-linejoin="round" d="M30.2 49c-.754-1.671-1.2-3.749-1.2-6h12c0 2.251-.446 4.329-1.2 6"/><path fill="none" d="M18.152 15.358a1 1 0 0 1 1.696 0l.37.593a1 1 0 0 0 .814.47l.698.024a1 1 0 0 1 .848 1.469l-.328.616a1 1 0 0 0 0 .94l.328.616a1 1 0 0 1-.848 1.47l-.698.024a1 1 0 0 0-.814.47l-.37.592a1 1 0 0 1-1.696 0l-.37-.593a1 1 0 0 0-.814-.47l-.698-.024a1 1 0 0 1-.848-1.469l.328-.616a1 1 0 0 0 0-.94l-.328-.616a1 1 0 0 1 .848-1.47l.698-.024a1 1 0 0 0 .814-.47l.37-.592zM39 28c0 2.21 7.79 4 10 4a4 4 0 0 0 0-8c-2.21 0-10 1.79-10 4z"/><path fill="none" stroke-linecap="round" d="M53.5 21a2.5 2.5 0 0 1 0-5"/><path fill="none" stroke-linejoin="round" d="M25 52h20l-2 3H27l-2-3z"/></g></svg>