<svg viewBox="0 0 72 72" xmlns="http://www.w3.org/2000/svg"><path fill="none" stroke="#000" stroke-linejoin="round" stroke-width="2" d="M22 15a3 3 0 0 1 3-3h22a3 3 0 0 1 3 3v41a4 4 0 0 1-4 4H26a4 4 0 0 1-4-4V21.5L17.5 18l4.5-2.5V15z" clip-rule="evenodd"/><path d="M50 50h-1v1h1v-1zm0-4v-1h-1v1h1zm0-24v-1h-1v1h1zm0 4h-1v1h1v-1zm1 24v-4h-2v4h2zm12-14c0 7.18-5.82 13-13 13v2c8.284 0 15-6.716 15-15h-2zM50 23c7.18 0 13 5.82 13 13h2c0-8.284-6.716-15-15-15v2zm1 3v-4h-2v4h2zm-1 1a9 9 0 0 1 9 9h2c0-6.075-4.925-11-11-11v2zm9 9a9 9 0 0 1-9 9v2c6.075 0 11-4.925 11-11h-2z"/><path fill="none" stroke="#000" stroke-linecap="round" stroke-width="2" d="M22 15.5h25M32.337 10a3.5 3.5 0 1 1 6.326 0M34 16v8"/><path stroke="#000" stroke-linecap="round" stroke-width="2" d="M37 16v10m-14-4h8"/><path fill="none" stroke="#000" stroke-linecap="round" stroke-width="2" d="M40 22h10"/></svg>