<svg viewBox="0 0 72 72" xmlns="http://www.w3.org/2000/svg"><path d="M12 12v-1a1 1 0 0 0-.996.91L12 12zm2.772 10.334.93-.368-.93.368zM18 34h-1a1 1 0 0 0 1 1v-1zm.667-.009.997.083a1 1 0 0 0-1.023-1.082l.026 1zm-1.716 20.594-.996-.083.996.083zm37.717.103-.998.063.998-.063zM52.313 17l.998-.062-.998.062zm-.02-.312-.998.063.998-.063zm-.234-3.75.998-.063-.998.063zM12 13h9.42v-2H12v2zm3.701 8.966c-.778-1.96-1.515-3.821-2.031-5.528-.52-1.72-.78-3.18-.674-4.347l-1.992-.181c-.141 1.557.21 3.315.751 5.106.545 1.804 1.317 3.747 2.087 5.687l1.86-.737zM19 34c0-3.763-1.748-8.127-3.299-12.034l-1.859.737C15.442 26.733 17 30.702 17 34h2zm-.36-1.008A26.71 26.71 0 0 1 18 33v2c.235 0 .466-.003.694-.01l-.053-1.998zm-.97.916-1.715 20.594 1.993.166 1.716-20.594-1.993-.166zm-1.715 20.594A6 6 0 0 0 21.934 61v-2a4 4 0 0 1-3.986-4.332l-1.993-.166zM21.934 61h27.744v-2H21.934v2zm27.744 0a6 6 0 0 0 5.988-6.374l-1.996.125A4 4 0 0 1 49.678 59v2zm5.988-6.374-2.355-37.688-1.996.124 2.355 37.689 1.996-.125zm-2.355-37.688-.02-.312-1.996.125.02.311 1.996-.125zm-.02-.312-.234-3.75L51.06 13l.234 3.75 1.996-.124zm-.234-3.75A2 2 0 0 0 51.06 11v2l1.996-.125zM51.06 11h-3.758v2h3.758v-2zm-3.758 0H30.5v2h16.803v-2zM30.5 11h-5.4v2h5.4v-2zm-5.4 0h-3.68v2h3.68v-2z"/><path fill="none" stroke="#000" stroke-linecap="round" stroke-width="2" d="m20.25 15-1.542 18.5"/><path fill="none" stroke="#000" stroke-linecap="round" stroke-linejoin="round" stroke-width="2" d="m54.5 21.5-.07-1.927a2 2 0 0 1 1.998-2.073h8.26a2 2 0 0 1 1.98 2.287l-3.92 27A2 2 0 0 1 60.77 48.5H58a2 2 0 0 1-2-2v-1.562"/></svg>