<svg viewBox="0 0 72 72" xmlns="http://www.w3.org/2000/svg"><path fill="none" stroke="#000" stroke-linecap="round" stroke-linejoin="round" stroke-width="2" d="M44 21h8v6.5c0 3.238-3.277 14.013-4.525 18M44 23.5h5.5v4c0 1.48-1.927 5.938-3.5 9.33m-23.5 8.59C21.234 41.371 18 30.717 18 27.5V21h4v4c0 1.667 1.778 3.778 2.963 5"/><path d="M43 17h-1c0 .05.004.099.011.148L43 17zm-16 0 .989.148A.998.998 0 0 0 28 17h-1zm-5 33.5-.989-.148a.998.998 0 0 0 .035.45L22 50.5zm3 9.5-.954.301A1 1 0 0 0 25 61v-1zm20 0v1a1 1 0 0 0 .954-.699L45 60zm3-9.5.954.301a.998.998 0 0 0 .035-.449L48 50.5zM35 13c2.052 0 3.862.522 5.127 1.313C41.407 15.111 42 16.087 42 17h2c0-1.85-1.197-3.373-2.813-4.383C39.557 11.597 37.367 11 35 11v2zm-7 4c0-.912.594-1.888 1.873-2.688C31.138 13.523 32.948 13 35 13v-2c-2.367 0-4.557.598-6.187 1.617C27.197 13.627 26 15.15 26 17h2zm-1.989-.148-5 33.5 1.978.296 5-33.5-1.978-.296zm-4.965 33.95 3 9.5 1.908-.603-3-9.5-1.908.602zM25 61h10v-2H25v2zm10 0h10v-2H35v2zm10.954-.699 3-9.5-1.908-.602-3 9.5 1.908.602zm3.035-9.949-5-33.5-1.978.296 5 33.5 1.978-.296z"/><path fill="none" stroke="#000" stroke-linecap="round" stroke-width="2" d="M35.5 57a2 2 0 1 1 0-4"/><path fill="none" stroke="#000" stroke-linecap="round" stroke-linejoin="round" stroke-width="2" d="M23 50h21.5"/><path fill="none" stroke="#000" stroke-linecap="round" stroke-width="2" d="M27 17h13"/><path fill="none" stroke="#000" stroke-linejoin="round" stroke-width="2" d="M33 8h4v4h-4z"/></svg>