<svg viewBox="0 0 72 72" xmlns="http://www.w3.org/2000/svg"><g stroke="#000" stroke-width="2"><path fill="none" stroke-linecap="round" stroke-linejoin="round" d="m41 53.794 11-2.588"/><path fill="none" d="M38 21a2 2 0 0 1 2-2h13a2 2 0 0 1 2 2v37a2 2 0 0 1-2 2H40a2 2 0 0 1-2-2V21z"/><path fill="none" stroke-linejoin="round" d="M44 14h5v5h-5zm0 2h-6l-15 9h-6v-3"/><path fill="none" d="M22 13.528C22 16.556 19.761 22 17 22s-5-5.444-5-8.472c0-3.027 2.239-2.491 5-2.491s5-.536 5 2.491z"/><path stroke-linecap="round" d="M39 41h13"/></g></svg>