<svg viewBox="0 0 72 72" xmlns="http://www.w3.org/2000/svg"><g fill="none" stroke="#000" stroke-miterlimit="10" stroke-width="2"><circle cx="36.969" cy="8.094" r="3"/><path stroke-linecap="round" stroke-linejoin="round" d="m44 21 2.036 16.89c.132 1.091.153 2.88.048 3.976l-.877 9.143c-.105 1.096-.456 2.851-.78 3.902L41.289 65.09c-.324 1.049-1.331 1.91-2.238 1.91-.908 0-1.5-.888-1.315-1.972l1.713-10.056c.185-1.084.359-2.871.386-3.971l.215-8.602c.027-1.1-.445-1.999-1.05-1.999s-1.307.876-1.56 1.947l-5.38 22.707C31.808 66.124 30.858 67 29.95 67c-.908 0-1.547-.894-1.42-1.986L33.5 22"/><path stroke-linecap="round" stroke-linejoin="round" d="m18 36 1.5-1c.825-.55 2.64-2.94 4.035-5.31l4.93-8.38C29.859 18.94 32.8 16.55 35 16s5.8-1 8-1 4.318 2.228 4.707 4.95l.586 4.1c.389 2.722 1.325 7.113 2.081 9.758L53 43m-34-4s.625 1 1 2v3l4.125 6L27 48l-3.333-4.999"/></g></svg>