<svg viewBox="0 0 72 72" xmlns="http://www.w3.org/2000/svg"><g fill="none" stroke="#000" stroke-miterlimit="10" stroke-width="2"><circle cx="54.969" cy="8.094" r="3"/><path stroke-linecap="round" stroke-linejoin="round" d="m49 35-3.048 30.01c-.111 1.094.569 1.99 1.51 1.99s1.95-.868 2.238-1.93l5.486-20.115c.29-1.061 1.044-2.667 1.674-3.567l2.2-3.14c.63-.9 1.103-2.537 1.05-3.636l-.492-10.119"/><path stroke-linecap="round" stroke-linejoin="round" d="m59.135 38.14 1.82 11.526c.171 1.087.78 2.745 1.35 3.685l4.824 7.94c.57.94.363 2.16-.462 2.709-.825.55-2.034.276-2.688-.61l-5.268-7.135c-.653-.886-1.515-2.448-1.914-3.473l-2.203-5.653m5.331-17.548-.633-10.546C59.16 16.839 57.252 15 55.052 15H55c-2.2 0-4.2 1.83-4.446 4.017l-.47 4.213"/><path stroke-linecap="round" stroke-linejoin="round" d="m55.167 20-3.068 6.444c-.473.993-1.627 2.276-2.566 2.849l-7.595 4.644M13 57l5-5s17-6 23.938-18.063"/><path stroke-linecap="round" stroke-linejoin="round" d="M40 47c2 5-4 8-7 6-.771-.514-3.853-1.315-7-1l-8.328.328L16 51.312M27 58c0 2 1.25 4.501 1.25 4.501S28.633 63.735 28 65c-1 2 2 3 3 1s.832-3.664 1-4c.403-.807 1.999-1.917 2-4v-1m-7 3c-2.041 2.001-4.625 2-8 2m-5-3c-1.016.929-2 1-3 2s-1 3 0 4"/><path stroke-linecap="round" stroke-linejoin="round" d="m14 48-1 2s-2.244.3-3 1c-.58.537-1 3-1 3s-2.878 1.593-3 2c-.094.313 1.293 2 2 2 1 0 4-1 4-1 2 0 2 3 3 4 .41.41 0 3-.334 3.959-.68 1.954 2.334 3.041 3.168.875C18.139 65.04 19 63 19 61"/></g></svg>