<svg viewBox="0 0 72 72" xmlns="http://www.w3.org/2000/svg"><path fill="none" stroke="#000" stroke-linecap="round" stroke-linejoin="round" stroke-width="2" d="M47.54 38.189c1.81.623 6.21 2.31 8.356 4.628 2.968 3.205 3.479 13.024 3.534 14.32m-47.341 0c.303-1.177 3.406-13.074 5.481-15.478 1.938-2.246 10.925-5.9 10.925-5.9l1.526.181m15.931 15.764-.769 5.433m-14.325 0-.532-5.575m-10.011 5.575v-9.811m33.19 9.811v-8.921m-9.391-.89 2.91.607-.202-9.13"/><path fill="none" stroke="#000" stroke-linecap="round" stroke-linejoin="round" stroke-width="2" d="m31.14 47.326-2.439.83.955-13.288m10.027 7.719s1.314.755 1.314 2.308-1.402 3.246-1.402 3.246l1.85 8.996m-6.499 0 1.624-8.981s-1.15-1.78-1.15-3.284 1.51-2.467 1.51-2.467m13.424-21.829c.353 3.562.705 8.402.115 8.784l-1.148.75"/><path fill="none" stroke="#000" stroke-linecap="round" stroke-linejoin="round" stroke-width="2" d="M46.921 20.967a16.02 16.02 0 0 1 1.47 6.057 38.288 38.288 0 0 1-.15 6.433 10.783 10.783 0 0 1-3.865 7.534 9.795 9.795 0 0 1-6.057 1.6c-4.079-.043-8.179-4.6-9.522-10.453-.23-1.006-1.316-.801-2.1-2.143a8.402 8.402 0 0 1-.862-4.525"/><circle cx="43.199" cy="26.436" r="2"/><circle cx="35.149" cy="26.436" r="2"/><path fill="none" stroke="#000" stroke-linecap="round" stroke-linejoin="round" stroke-miterlimit="10" stroke-width="2" d="M50.035 15.557c-3.029-1.27-6.474-3.82-10.58-4.834-2.849-.7-6.005-.811-8.979 1.267-2.518 1.754-5.229 8.09-4.64 13.479 0 0 .947-2.771 2.89-.291l.6 2.725a19.034 19.034 0 0 1-.229-3.1c.138-.815.387-.87 1.16-2.545 1.122-2.431.958-3.65.313-4.268.2.052.376.1.51.146 2.97.974 3.671 1.442 4.53 1.734 3.088 1.047 11.113 1.707 14.641.277 2.64-1.068 3.971-4.854 3.971-4.854a5 5 0 0 1-4.187.264z"/><path fill="none" stroke="#000" stroke-linecap="round" stroke-linejoin="round" stroke-width="2" d="M39.72 33.137h0A1.57 1.57 0 0 1 40.93 35l-.253 1.189a1.57 1.57 0 0 1-1.863 1.209h0a1.57 1.57 0 0 1-1.21-1.863l.252-1.19a1.572 1.572 0 0 1 1.864-1.208zm-13.885-7.668s.948-2.771 2.891-.291l.6 2.725a19.034 19.034 0 0 1-.229-3.1c.138-.815.387-.87 1.16-2.545 1.122-2.431.958-3.65.313-4.268.2.052.376.1.51.146 2.326.974 3.671 1.442 4.53 1.734 3.088 1.047 11.113 1.707 14.641.277 2.64-1.068 3.971-4.854 3.971-4.854a5 5 0 0 1-4.187.264c-3.029-1.27-6.474-3.82-10.58-4.834-2.849-.7-6.005-.811-8.979 1.267-2.518 1.754-5.229 8.09-4.64 13.479"/></svg>