<svg viewBox="0 0 72 72" xmlns="http://www.w3.org/2000/svg"><g fill="none" stroke="#000" stroke-miterlimit="10" stroke-width="2"><circle cx="28.386" cy="13.063" r="2.969"/><path stroke-linecap="round" stroke-linejoin="round" d="m25 28 5.077-1.45a2.005 2.005 0 0 0 1.373-2.473l-.9-3.154a1.818 1.818 0 0 1 1.41-2.315l1.08-.216c1.077-.216 2.473.348 3.099 1.252l6.722 9.711c.626.905.737 2.45.245 3.434l-.211.422c-.493.984-1.682 2.226-2.643 2.76l-5.504 3.057c-.96.535-1.394 1.8-.963 2.81l1.847 4.323c.432 1.01.016 2.29-.923 2.839-.94.55-2.151.216-2.691-.742l-2.927-5.19c-.54-.958-.961-2.265-.935-2.905.028-.64.632-1.848 1.344-2.687l4.205-4.952c.712-.838 1.07-2.199.795-3.024L34 28"/><path stroke-linecap="round" stroke-linejoin="round" d="M27 35c-1-1-3.451-4.45-6-7-1-1-3-2-3-2l-2-3m30 17s-1 3 0 5c1.188 2.377 5.791 8 5.791 9L49 57s-1.138.748-1.124 1.376C47.917 60.293 49.791 60 49.791 60s6.378-5.564 6.209-6c-.51-1.32-1.367-3.735-2-5-1-2 4-5 4-8 0-1.6-1-6-5-7-1.725-.432-3.773-.491-5.958-.349M24 64c-1.8-.76-3.957-1.957-5-3-.353-.353-.633-1.735 0-3l3-6s-1.419-.419-3-2c-1-1-.887-5.003-1-7-.102-1.817-2-8-2-8s-4 0-8 1c-.685.172-2.553-1.558-2-2 5-4 5-4 8-6m12 33 1.23 1.166a1.69 1.69 0 0 1 .042 2.397c-.655.675-1.657.825-2.23.332L24 64"/><path stroke-linecap="round" stroke-linejoin="round" d="M47 48s-7.385 3.36-10 4c-2.44.598-9 1-9 1-4 4-5 6-5 6s1.629 1.342 3 2m22-12s-2.143 6.79-3 9c-.47 1.213-.618 1.922-1.542 3.958-.824 1.816-.91 2.118-.91 2.118-.302 1.059.127 2.149.952 2.424.825.275 1.9-.307 2.389-1.292l1.048-2.114M15 62v2c0 1.1-.675 2-1.5 2s-1.5-.7-1.5-1.557v-2.401M18 50s-5 3-6 4-1 2.21-1 3c0 .518.483 2.853 1 5.042M56 35h2c3 0 7 3 6 7-.728 2.91-5 6 0 11m-49 5v4"/></g></svg>