<svg viewBox="0 0 72 72" xmlns="http://www.w3.org/2000/svg"><path fill="none" stroke="#000" stroke-linejoin="round" stroke-width="2" d="M32.968 15.3c-6.063 0-11 5-11 14 0 6.646 3.397 14.1 11 14.1 7.556 0 11.064-7.483 11.064-14.1 0-9-5.127-14-11.064-14z"/><path d="M39 27.9c0 1.1-.9 2-2 2s-2-.9-2-2 .9-2 2-2 2 .9 2 2zm-8 0c0 1.1-.9 2-2 2s-2-.9-2-2 .9-2 2-2 2 .9 2 2z"/><path fill="none" stroke="#000" stroke-linecap="round" stroke-linejoin="round" stroke-width="2" d="M30 36.1c1.9 1 4.1 1 6 0"/><path fill="none" stroke="#000" stroke-width="2" d="M30.5 15.452c-.915-.459-1.5-1.162-1.5-1.952 0-1.38 1.79-2.5 4-2.5s4 1.12 4 2.5c0 .79-.586 1.493-1.5 1.952"/><path fill="none" stroke="#000" stroke-linecap="round" stroke-linejoin="round" stroke-width="2" d="M22 28.5c0-7.5 7-10.5 11-8 4-2.5 11 .5 11 8"/><g fill="none" stroke="#000" stroke-width="2"><path stroke-linecap="round" stroke-linejoin="round" d="M14 58v-3c0-5 5-9 10-9 6 5 12 5 18 0 .502 0 1.003.04 1.5.118"/><path stroke-linejoin="round" d="m23.5 46.6.5 7.5h18l.5-7.5"/><path stroke-linecap="round" d="M20 47.1v11"/><path stroke-linecap="round" stroke-linejoin="round" d="M46.2 54.1c-.754-1.671-1.2-3.749-1.2-6h12c0 2.251-.446 4.329-1.2 6"/><path stroke-linejoin="round" d="M41 57.1h20l-2 3H43l-2-3z"/></g></svg>