<svg viewBox="0 0 72 72" xmlns="http://www.w3.org/2000/svg"><path fill="none" stroke="#000" stroke-linejoin="round" stroke-width="2" d="M21.936 29.58c0 9 4.937 14 11 14 5.937 0 11.064-5 11.064-14a12.137 12.137 0 0 0-1-5c-3-3-7-8-7-8-4 3-7 6-13 7.001 0 0-1.064.999-1.064 6z"/><path d="M38.953 28.047a2 2 0 1 1-4 0 2 2 0 0 1 4 0zm-8 0a2 2 0 1 1-4 0 2 2 0 0 1 4 0z"/><path fill="none" stroke="#000" stroke-linecap="round" stroke-linejoin="round" stroke-width="2" d="M16.5 40c-3.5 0-1-3.08-1-14 0-9.08 7.5-15.42 17.5-15.42s13.5 7 13.5 14c0 4.493-1.235 8.573-3.178 10.92"/><path d="M32.953 38.05a7.652 7.652 0 0 1-3.448-.859 1 1 0 0 1 .895-1.789c1.593.86 3.512.86 5.105 0a1 1 0 0 1 .895 1.79 7.653 7.653 0 0 1-3.447.857z"/><path fill="none" stroke="#000" stroke-linecap="round" stroke-width="2" d="M24 58v-5.5c0-5.247-2.015-9.5-4.5-9.5S15 47.253 15 52.5V58"/><path fill="none" stroke="#000" stroke-width="2" d="M17.238 44.29C16.481 43.74 16 42.918 16 42c0-1.657 1.567-3 3.5-3s3.5 1.343 3.5 3c0 .918-.48 1.74-1.238 2.29"/><path fill="none" stroke="#000" stroke-linecap="round" stroke-linejoin="round" stroke-width="2" d="M43.5 46.118A9.731 9.731 0 0 0 42 46c-5.324 4.437-10.648 4.937-15.971 1.5"/><path d="M27 53a1 1 0 1 0 0 2v-2zm15 1v1a1 1 0 0 0 .998-.934L42 54zm-15 1h15v-2H27v2zm15.998-.934.5-7.5-1.996-.133-.5 7.5 1.996.133z"/><path fill="none" stroke="#000" stroke-linecap="round" stroke-linejoin="round" stroke-width="2" d="M46.2 54.1c-.754-1.671-1.2-3.749-1.2-6h12c0 2.251-.446 4.329-1.2 6"/><path fill="none" stroke="#000" stroke-linejoin="round" stroke-width="2" d="M41 57.1h20l-2 3H43l-2-3z"/></svg>