<svg viewBox="0 0 72 72" xmlns="http://www.w3.org/2000/svg"><path fill="none" stroke="#000" stroke-linecap="round" stroke-linejoin="round" stroke-width="2" d="M36 20c8-3 12 5 12 10 .6-9-3-15.5-12-15.5m0 5.5c-8-3-12 5-12 10-.6-9 3-15.5 12-15.5"/><path d="M41.6 29a1.8 1.8 0 1 1-1.8-1.8 1.792 1.792 0 0 1 1.8 1.8m-8 0a1.8 1.8 0 1 1-1.8-1.8 1.792 1.792 0 0 1 1.8 1.8m4.9 22a1.5 1.5 0 1 1-1.5-1.5 1.538 1.538 0 0 1 1.5 1.5"/><path fill="none" stroke="#000" stroke-linecap="round" stroke-linejoin="round" stroke-width="2" d="M33 36.5a6.671 6.671 0 0 0 6 0"/><path fill="none" stroke="#000" stroke-miterlimit="10" stroke-width="2" d="M26.8 22.3A15.652 15.652 0 0 0 25 30c0 7.2 3.7 13 11 13s11-5.8 11-13a16.326 16.326 0 0 0-1.8-7.8"/><path fill="none" stroke="#000" stroke-linecap="round" stroke-linejoin="round" stroke-width="2" d="M43.6 40a1.33 1.33 0 0 0 .3.8 2.252 2.252 0 0 0 .5.5c-.5 1-1.1 2.3-.4 3.4a7.365 7.365 0 0 0 .5.6c-.5 1.1-1.1 2.3-.4 3.4a2.651 2.651 0 0 0 .5.6h0c-.5 1.1-1.1 2.3-.4 3.4a1.698 1.698 0 0 0 .6.6v.1c-.5 1-1.1 2.2-.4 3.3a1.698 1.698 0 0 0 .6.6c0 .1-.1.1-.1.2-.5 1-1.1 2.2-.5 3.2a1.966 1.966 0 0 0 1.7.9 1.367 1.367 0 0 0 1.4-1.4.975.975 0 0 0-.4-.9c.1-.2.2-.3.2-.4.5-1 1.1-2.2.5-3.2-.1-.2-.3-.3-.5-.5 0-.1.1-.2.1-.3.5-1 1.1-2.2.4-3.3a2.252 2.252 0 0 0-.5-.5c0-.1.1-.1.1-.2.5-1.1 1.1-2.3.4-3.4-.1-.1-.2-.3-.4-.5a.098.098 0 0 1 .1-.1c.5-1.1 1.2-2.3.4-3.5-.1-.1-.2-.3-.4-.4v-.1c.5-1 1.2-2.4.4-3.5-.1-.1-.2-.3-.3-.4.5-1.1 1.2-2.4.4-3.6-.1-.1-.1-.2-.2-.3.6-1.1 1.2-2.5.4-3.8a2.56 2.56 0 0 0-1.3-1M28.4 40a1.33 1.33 0 0 1-.3.8 2.252 2.252 0 0 1-.5.5c.5 1 1.1 2.3.4 3.4a7.365 7.365 0 0 1-.5.6c.5 1.1 1.1 2.3.4 3.4a2.651 2.651 0 0 1-.5.6h0c.5 1.1 1.1 2.3.4 3.4a1.698 1.698 0 0 1-.6.6v.1c.5 1 1.1 2.2.4 3.3a1.698 1.698 0 0 1-.6.6c0 .1.1.1.1.2.5 1 1.1 2.2.5 3.2a1.966 1.966 0 0 1-1.7.9 1.367 1.367 0 0 1-1.4-1.4.975.975 0 0 1 .4-.9c-.1-.2-.2-.3-.2-.4-.5-1-1.1-2.2-.5-3.2.1-.2.3-.3.5-.5 0-.1-.1-.2-.1-.3-.5-1-1.1-2.2-.4-3.3a2.252 2.252 0 0 1 .5-.5c0-.1-.1-.1-.1-.2-.5-1.1-1.1-2.3-.4-3.4.1-.1.2-.3.4-.5a.098.098 0 0 0-.1-.1c-.5-1.1-1.2-2.3-.4-3.5.1-.1.2-.3.4-.4v-.1c-.5-1-1.2-2.4-.4-3.5.1-.1.2-.3.3-.4-.5-1.1-1.2-2.4-.4-3.6.1-.1.1-.2.2-.3-.6-1.1-1.2-2.5-.4-3.8a2.56 2.56 0 0 1 1.3-1"/><path fill="none" stroke="#000" stroke-linecap="round" stroke-linejoin="round" stroke-width="2" d="M20.3 47.4a8.094 8.094 0 0 1 3.3-11.7m4.1 9.8a16.066 16.066 0 0 0 5.3 2.8"/><path fill="none" stroke="#000" stroke-linecap="round" stroke-linejoin="round" stroke-width="2" d="M17 58v-4c0-4 3.1-7.3 6.9-8.5m20.4-.4L33 47v11m22 0v-4c0-4-3.1-7.3-6.9-8.5"/><path fill="none" stroke="#000" stroke-linecap="round" stroke-linejoin="round" stroke-width="2" d="M51.7 47.4A7.578 7.578 0 0 0 53 43a8.143 8.143 0 0 0-4.6-7.3"/></svg>