<svg viewBox="0 0 72 72" xmlns="http://www.w3.org/2000/svg"><g fill="none" stroke="#000" stroke-linecap="round" stroke-linejoin="round" stroke-width="2"><path d="m47.6 51-20.6.4m-18.9 0c-.9-.2-1.7-.5-1.8-1-.1-1-.3-3.8-.3-5.1 0-.5.1-1.1.4-1.5 1.1-2 4.8-6.8 14.9-6.4l10.3-6.9c.5-.3 1.1-.5 1.6-.5l19.6-.1c.3 0 .6 0 .9.1 2.2.6 11.7 4 10.4 12.6l1.1.6c.5.2.9.7 1 1.2.4 1.4.3 2.9-.2 4.3"/><path d="m24.9 39.9 30.2-.2v-4.5"/><circle cx="17.3" cy="50.4" r="5"/><circle cx="57.1" cy="50.4" r="5"/><path d="m12.3 42.9-1.8 2.2-3.7-.1m11.467-17.137c1.686-4.7 5.609-8.502 10.815-9.811a15.469 15.469 0 0 1 12.975 2.552"/><path d="M14.182 26.854c1.956-6.006 6.862-10.905 13.44-12.56 5.937-1.493 11.926-.013 16.393 3.5"/><path d="M22.217 28.734a11.484 11.484 0 0 1 7.841-6.803 11.477 11.477 0 0 1 9.627 1.894"/></g></svg>