<svg viewBox="0 0 72 72" xmlns="http://www.w3.org/2000/svg"><g fill="none" stroke="#000" stroke-miterlimit="10" stroke-width="2"><path stroke-linecap="round" stroke-linejoin="round" d="M55.4 33.8c1.2 2.7 2.2 5.2 2.2 5.2l-4.1 1.4s2 9.5-.8 10.9-8.7.8-13.2-.5M15.9 22c1.4-5 4.6-9.3 9.4-11.1C36.5 6.4 47.6 9.7 51 14.7c.7 1 1.1 2 1.4 2.9"/><path stroke-linecap="round" stroke-linejoin="round" d="M15.3 30.1c.5 4.5 2.6 8.9 6.3 12 5.1 4.3 5.3 15.5 5.3 15.5v5.8h17.2s1-6.8 1.1-10.8m14-34.6v15.7H44.7s-8.7-7.5 0-16.2h14.5v.5z"/><path stroke-linecap="round" stroke-linejoin="round" d="M41.6 22H14.5s-2 6.1 0 8.1H42"/><path d="M54.8 17.6v16"/></g></svg>