<svg viewBox="0 0 72 72" xmlns="http://www.w3.org/2000/svg"><circle cx="36" cy="36" r="15" fill="none" stroke="#000" stroke-linecap="round" stroke-linejoin="round" stroke-miterlimit="10" stroke-width="2"/><path fill="none" stroke="#000" stroke-linecap="round" stroke-linejoin="round" stroke-miterlimit="10" stroke-width="2" d="M29 22V5m14 17V5M29 67V50m14 17V50M33 34h-4a1 1 0 0 1-1-1v-4a1 1 0 0 1 1-1h4a1 1 0 0 1 1 1v4a1 1 0 0 1-1 1zm10 0h-4a1 1 0 0 1-1-1v-4a1 1 0 0 1 1-1h4a1 1 0 0 1 1 1v4a1 1 0 0 1-1 1zm0 10h-4a1 1 0 0 1-1-1v-4a1 1 0 0 1 1-1h4a1 1 0 0 1 1 1v4a1 1 0 0 1-1 1zm-10 0h-4a1 1 0 0 1-1-1v-4a1 1 0 0 1 1-1h4a1 1 0 0 1 1 1v4a1 1 0 0 1-1 1z"/><circle cx="36" cy="66" r="2"/></svg>