<svg viewBox="0 0 72 72" xmlns="http://www.w3.org/2000/svg"><path d="M36 20.763a1.05 1.05 0 0 1-1.049-1.048v-9.43a1.048 1.048 0 0 1 2.097 0v9.43c0 .579-.469 1.048-1.048 1.048z"/><path d="M39.824 15.157h-7.647a1.048 1.048 0 0 1 0-2.097h7.647a1.048 1.048 0 0 1 0 2.097z"/><path fill="none" stroke="#000" stroke-linecap="round" stroke-linejoin="round" stroke-miterlimit="10" stroke-width="2" d="M49 41.711 36 30 23 41.711V61h26zM23 36.13l-8-7.207-8 7.207V48h16m26 11h17V46.388l-8.5-7.657-4.643 4.126"/><path fill="none" stroke="#000" stroke-linecap="round" stroke-linejoin="round" stroke-miterlimit="10" stroke-width="2" d="M41.6 35v-9.624L36 20l-5.6 5.376V35"/></svg>