<svg viewBox="0 0 72 72" xmlns="http://www.w3.org/2000/svg"><g fill="none" stroke="#000" stroke-width="2"><path stroke-linecap="round" stroke-linejoin="round" d="M27.44 43.224h17.12l-1.041 5.5H28.385l-.945-5.5zM5.019 62.528h61.962v4.5H5.019z"/><path stroke-miterlimit="10" d="M29.786 62.028c0-5.314 2.845-9.622 6.356-9.622s6.356 4.308 6.356 9.622"/><path stroke-linecap="round" stroke-linejoin="round" d="M42.877 49.528a17.042 17.042 0 0 0 3.03 5.826 25.029 25.029 0 0 0 8.354 6.674M28.832 49.353a17.874 17.874 0 0 1-3.364 7.001 18.536 18.536 0 0 1-7.691 5.538M31.14 42.594a156.778 156.778 0 0 0 4.484-25.802q.356-4.034.495-7.857"/><path stroke-linecap="round" stroke-linejoin="round" d="M41.028 42.594a156.768 156.768 0 0 1-4.483-25.802q-.357-4.034-.495-7.857"/></g></svg>