<svg viewBox="0 0 72 72" xmlns="http://www.w3.org/2000/svg"><g fill="none" stroke="#000" stroke-linejoin="round" stroke-width="2"><path stroke-linecap="round" d="m46.949 18.484-2.871-.049-2.871-.049 1.478-2.513 1.478-2.514 1.393 2.562 1.393 2.563zM40.7 19.691v-4.489l-1.05-1.849h-4.2l-1.05 1.849v4.489"/><path stroke-linecap="round" d="m40.998 14.283-3.57-.061-3.571-.061 1.838-3.08L37.532 8l1.733 3.141 1.733 3.142zM26 22.86h10.5V63H26zm10.5 0H47V63H36.5zm3.15 4.225v2.113m3.15 8.45v2.113m-3.15 10.563v2.113m-12.6-34.858v4.225"/><path d="m33.484 17.449-3.489-.06-3.488-.059 1.795-3.01 1.796-3.009 1.693 3.069 1.693 3.069z"/><path stroke-linecap="round" d="M45.95 22.86v-4.225M30.2 37.648v2.113m3.15 10.563v2.113m4.2-34.858h.01"/></g></svg>