<svg viewBox="0 0 72 72" xmlns="http://www.w3.org/2000/svg"><g fill="none" stroke="#000" stroke-width="2"><path stroke-linecap="round" stroke-linejoin="round" d="M39 26v-8h-1v-3h-1v-2h-2v2h-1v3h-1v8"/><rect x="34" y="52" rx="1.409" width="5" height="8" stroke-linecap="round" stroke-linejoin="round"/><path stroke-linecap="round" stroke-linejoin="round" d="M36 8v5m-2.35 29.085v2.113m3-2.113v2.113m3-2.113v2.113m-6 2.887v2.113m3-2.113v2.113m3-2.113v2.113m-16-8.113v2.113m3-2.113v2.113m-3 2.887v2.113m3-2.113v2.113m19-7.113v2.113m3-2.113v2.113m-3 2.887v2.113m3-2.113v2.113m-15-11.113v2.113m3-2.113v2.113m3-2.113v2.113m-16 13.887v2.113m3-2.113v2.113m19-2.113v2.113m3-2.113v2.113M43 38l2-6h-2.049l-3.475-4L36 24l-3.476 4-3.475 4H27l2 6h-9v22h32V38h-9z"/><circle cx="36" cy="32" r="2" stroke-miterlimit="10"/><path stroke-linecap="round" stroke-linejoin="round" d="M33.666 26.686h-2.295l-9.258 5.143a13.341 13.341 0 0 1-1.028 3.085 4.99 4.99 0 0 1-3.086 2.057H18V38h2m32 0h2v-1.029a4.99 4.99 0 0 1-3.086-2.057 13.344 13.344 0 0 1-1.028-3.085l-9.257-5.143h-2.295"/></g></svg>