<svg viewBox="0 0 72 72" xmlns="http://www.w3.org/2000/svg"><rect x="32.66" y="15.16" rx=".887" ry=".887" width="6.858" height="4.837"/><path fill="none" stroke="#000" stroke-linecap="round" stroke-linejoin="round" stroke-width="2" d="M37.489 32.657H34.22l-1.34 29.861h5.806l-1.197-29.861zm-7.554-13.514a16.383 16.383 0 0 0 11.766 0s.051.025.118.061a24.71 24.71 0 0 1-1.013 11.227 4.895 4.895 0 0 1-1.12 1.629c-.052-.022.042 0 .042 0"/><path fill="none" stroke="#000" stroke-linecap="round" stroke-linejoin="round" stroke-width="2" d="M41.801 19.143a16.383 16.383 0 0 1-11.766 0l-.118.061a24.712 24.712 0 0 0 1.013 11.227 4.898 4.898 0 0 0 1.121 1.629c.051-.022-.043 0-.043 0"/><path fill="none" stroke="#000" stroke-linecap="round" stroke-linejoin="round" stroke-width="2" d="M41.384 27.535s-6.01 2.786-10.855 0m9.165 4.568a12.729 12.729 0 0 1-7.707-.064m10.026-8.896s-6.186 2.66-12.1-.133"/><path fill="none" stroke="#000" stroke-miterlimit="10" stroke-width="1.6" d="M37.631 7.747V5.818c0-.629-.706-1.137-1.58-1.137s-1.58.508-1.58 1.137v11.886h3.163V7.747z"/><path fill="none" stroke="#000" stroke-linecap="round" stroke-linejoin="round" stroke-width="2" d="M5.135 62.528h61.962v4.5H5.135z"/><ellipse cx="35.832" cy="18.92" rx="6.777" ry="1.704"/></svg>