<svg viewBox="0 0 72 72" xmlns="http://www.w3.org/2000/svg"><g fill="none" stroke="#000" stroke-linecap="round" stroke-linejoin="round" stroke-miterlimit="10" stroke-width="1.949"><path d="m45.43 17.26 2.27-4.12 2.41 4.67v32.17m-28.36.11V17.68l2.42-4.67 2.27 4.12m16.65 25.73c-.31-9.52-.63-20.96-.49-25.32.24-7.63-6.64-11.46-6.64-11.46s-6.88 3.83-6.64 11.46c.14 4.38-.18 15.9-.49 25.45.31-.49.41-.75.41-.75l3.36-9.01v-.01c.07-3.32.18-6.01.34-7.39.66-5.91 3.02-6.79 3.02-6.79s2.37.88 3.04 6.79c.15 1.36.26 3.99.34 7.23.18 7.54.19 18.41.17 24.38"/><path d="m40.173 59.813 15.435-1.196c.185-3.174-3.268-6.958-3.268-6.958-8.25-5.937-9.583-9.42-9.583-9.42l-3.417-9.182M32.43 57.44c-.02-5.92-.01-16.68.17-24.21l-3.36 9.01s-.1.26-.41.75V43m3.83-9.94-.06.16v.01M28.83 43c-.73 1.16-2.61 3.61-7.08 7.09-.64.5-1.34 1.03-2.09 1.57 0 0-3.45 3.78-3.27 6.96l15.44 1.19"/><path d="M40.03 65.78c-.01.06-.01.1-.01.1h-8.11s0-.04-.01-.11c-.05-.68-.27-4.18.53-5.93v-2.4c-.02-5.92-.01-16.68.17-24.21v-.01c.07-3.32.18-6.01.34-7.39.66-5.91 3.02-6.79 3.02-6.79s2.37.88 3.04 6.79c.15 1.36.26 3.99.34 7.23.18 7.54.19 18.41.17 24.38v2.43c.78 1.76.56 5.25.52 5.91z"/></g></svg>