<svg viewBox="0 0 72 72" xmlns="http://www.w3.org/2000/svg"><path fill="none" stroke="#000" stroke-linecap="round" stroke-width="2" d="M18 54h14"/><path d="M15 27v-1a1 1 0 0 0-1 1h1zm20 0h1a1 1 0 0 0-1-1v1zM20 38a1 1 0 1 0-2 0h2zm4 0a1 1 0 1 0-2 0h2zm4 0a1 1 0 1 0-2 0h2zm4 0a1 1 0 1 0-2 0h2zM15 28h20v-2H15v2zm1 10V27h-2v11h2zm1 1a1 1 0 0 1-1-1h-2a3 3 0 0 0 3 3v-2zm1-1a1 1 0 0 1-1 1v2a3 3 0 0 0 3-3h-2zm3 1a1 1 0 0 1-1-1h-2a3 3 0 0 0 3 3v-2zm1-1a1 1 0 0 1-1 1v2a3 3 0 0 0 3-3h-2zm3 1a1 1 0 0 1-1-1h-2a3 3 0 0 0 3 3v-2zm1-1a1 1 0 0 1-1 1v2a3 3 0 0 0 3-3h-2zm3 1a1 1 0 0 1-1-1h-2a3 3 0 0 0 3 3v-2zm1-1a1 1 0 0 1-1 1v2a3 3 0 0 0 3-3h-2zm3 1a1 1 0 0 1-1-1h-2a3 3 0 0 0 3 3v-2zm1-1a1 1 0 0 1-1 1v2a3 3 0 0 0 3-3h-2zm0-11v11h2V27h-2z"/><path stroke="#000" stroke-linecap="round" stroke-width="2" d="M35 59V43M15 59V43"/><path d="M56 60h1a1 1 0 0 1-1 1v-1zm-14 0v1a1 1 0 0 1-1-1h1zm7-27a6 6 0 0 0-6 6h-2a8 8 0 0 1 8-8v2zm6 6a6 6 0 0 0-6-6v-2a8 8 0 0 1 8 8h-2zm0 21V39h2v21h-2zm-13-1h14v2H42v-2zm1-20v21h-2V39h2z"/><path fill="none" stroke="#000" stroke-linejoin="round" stroke-width="2" d="M12 13h48v47H12z"/><path fill="none" stroke="#000" stroke-linecap="round" stroke-linejoin="round" stroke-miterlimit="10" stroke-width="2" d="M50.03 16h-4v7h4m-4-3.5h3m8-3.5h-4v7h4m-4-3.5h3m-27 3.5-3-7-3 7m1-1.68h4m7-1.82h-3V23v-7h4m6.17 3.5h-3V23v-7h4M16 16v7m.02-2.461 4-4.539m-2.034 2.357 2.397 4.647"/></svg>