<svg viewBox="0 0 72 72" xmlns="http://www.w3.org/2000/svg"><path fill-rule="evenodd" d="M20.4 32.431A16.054 16.054 0 0 0 20 36c0 8.837 7.163 16 16 16 1.227 0 2.421-.138 3.569-.4-3.336-2.435-6.844-5.437-10.288-8.881S22.835 35.767 20.4 32.43zM46.617 47.97c-3.326-.69-8.54-4.08-13.523-9.064-4.984-4.983-8.375-10.197-9.064-13.523A15.961 15.961 0 0 1 36 20c8.837 0 16 7.163 16 16 0 4.763-2.08 9.039-5.383 11.97z" clip-rule="evenodd"/><path d="m28.85 43.15-.707.707.707-.707zm30.03 15.73-.707-.707.707.707zm-1.124-10.727.899-.438-.899.438zm-29.613-4.296c6.37 6.37 12.97 11.358 18.516 14.264 2.768 1.45 5.325 2.408 7.492 2.733 2.142.322 4.12.05 5.436-1.267l-1.414-1.414c-.657.658-1.842.986-3.725.704-1.86-.28-4.194-1.131-6.861-2.528-5.323-2.788-11.763-7.639-18.03-13.906l-1.414 1.414zm-15.73-31.444c-1.318 1.316-1.59 3.294-1.267 5.436.325 2.167 1.284 4.724 2.733 7.492 2.906 5.546 7.894 12.147 14.264 18.516l1.414-1.414c-6.267-6.267-11.118-12.707-13.906-18.03-1.397-2.667-2.248-5.001-2.528-6.86-.283-1.885.046-3.069.704-3.726l-1.415-1.415zm11.872.932c-2.529-1.232-4.863-2.026-6.852-2.255-1.973-.226-3.788.09-5.02 1.322l1.414 1.415c.615-.615 1.688-.944 3.378-.75 1.676.193 3.78.885 6.204 2.066l.876-1.798zM36 15c-.372 0-.742.01-1.11.029l.105 1.997A20.93 20.93 0 0 1 36 17v-2zm21 21c0-11.598-9.402-21-21-21v2c10.493 0 19 8.507 19 19h2zm-.029 1.11c.02-.368.029-.738.029-1.11h-2c0 .337-.009.672-.026 1.005l1.997.104zm2.617 22.477c1.232-1.232 1.548-3.047 1.322-5.02-.229-1.989-1.023-4.323-2.255-6.852l-1.798.877c1.181 2.422 1.873 4.527 2.066 6.203.194 1.69-.135 2.763-.75 3.378l1.414 1.414zm-4.614-22.582c-.201 3.858.116 7.962 1.883 11.587l1.798-.877c-1.553-3.186-1.877-6.897-1.684-10.606l-1.997-.104zM23.409 15.143c3.624 1.767 7.728 2.084 11.586 1.883l-.104-1.997c-3.709.193-7.42-.131-10.606-1.684l-.877 1.798z"/><path fill="none" stroke="#000" stroke-linecap="round" stroke-width="2" d="M16.224 33A20.16 20.16 0 0 0 16 36c0 11.046 8.954 20 20 20 1.194 0 2.364-.105 3.5-.305"/></svg>