<svg viewBox="0 0 72 72" xmlns="http://www.w3.org/2000/svg"><path fill="none" stroke="#000" stroke-linecap="round" stroke-linejoin="round" stroke-width="2" d="m27 31 3-1 2 2 3-2 2 1 2-1 2 2 1-1"/><g fill="none" stroke="#000" stroke-linecap="round" stroke-width="2"><path stroke-linejoin="round" d="M61.2 34.43a6.428 6.428 0 0 1 5.797 6.763c0 4.83-3.864 5.797-5.797 5.797a3.539 3.539 0 0 1-3.864-3.864M21.59 28.63s-3.864-.966-6.763 0-4.83 2.898-4.83 7.729a11.57 11.57 0 0 0 2.898 7.729m3.865.972 2.9-10.63 1.93 4.83 5.8-15.46 2.49 3 5.43-14.35 2.71 5.56 2.9 9.66 1.93-3.87 2.9 12.56 2.89-6.76L51 40"/><path stroke-linejoin="round" d="M19.66 44.09a6.428 6.428 0 0 0-5.797 6.763c0 4.83 3.864 5.797 5.797 5.797a3.539 3.539 0 0 0 3.864-3.864m1.936 3.864a7.246 7.246 0 0 0 5.797 2.898c3.864 0 6.763-3.864 6.763-4.83m1.93 2.902a4.186 4.186 0 0 0 3.864 1.932 5.175 5.175 0 0 0 4.83-4.83M23.53 45.06c-1.932-1.932.966-8.695 6.763-8.695 2.898 0 8.695.966 8.695 6.763m2.892-2.898s3.864-1.932 6.763-.966a8.76 8.76 0 0 1 5.797 8.695 11.57 11.57 0 0 1-2.898 7.729"/><path stroke-miterlimit="10" d="M57.34 35.4c1.932-1.932-.966-8.695-6.763-8.695a10.77 10.77 0 0 0-6.6 1.993"/></g></svg>