<svg viewBox="0 0 72 72" xmlns="http://www.w3.org/2000/svg"><g fill="none" stroke="#000" stroke-linejoin="round" stroke-width="2"><path stroke-linecap="round" stroke-miterlimit="10" d="M18.613 6.683c0-.673.373-1.219.834-1.219h35.897c.46 0 .834.546.834 1.219v52.466c0 .672-.373 1.218-.834 1.218"/><path stroke-linecap="round" stroke-miterlimit="10" d="M51.18 66.452H15.284c-.46 0-.834-.545-.834-1.218V12.768c0-.673.374-1.218.834-1.218H51.18c.46 0 .833.545.833 1.218v52.466c0 .673-.373 1.218-.834 1.218zM12.356 20.501h7.272m-7.272 7.363h7.272M11 35.319h7.272m0 7.364H11m0 7.363h7.272M11 57.41h7.272"/><path stroke-linecap="round" d="M42.818 45.637s0-.743-.371-2.23c-.45-1.8-1.487-2.972-3.716-2.972h-8.174c-2.229 0-3.265 1.172-3.715 2.973-.372 1.486-.372 2.229-.372 2.229"/><path d="M30.929 33.004c0 1.384.2 2.902.743 3.716.691 1.038 1.864 1.486 2.972 1.486 1.15 0 2.28-.449 2.972-1.486.543-.814.744-2.332.744-3.716 0-1.038-.372-4.458-3.716-4.458s-3.715 2.729-3.715 4.458z"/></g></svg>