<svg viewBox="0 0 72 72" xmlns="http://www.w3.org/2000/svg"><path d="M23.649 13.422a7.735 7.735 0 1 1 12.06 6.414c-.78.527-.413-4.99-1.825-7.656-.823-1.554-3.493-.825-4.083-.825-1.51 0-1.337 9.37-2.527 8.621a7.73 7.73 0 0 1-3.625-6.554z"/><path fill="none" stroke="#000" stroke-linecap="round" stroke-linejoin="round" stroke-miterlimit="10" stroke-width="2" d="M55.816 50.774c0 9.089-7.367 16.456-16.456 16.456s-16.455-7.367-16.455-16.456m32.911-.873v-12m-6.992-.294a3.5 3.5 0 1 1 6.994.294m-13.991-.527a3.5 3.5 0 1 1 6.994.294"/><path fill="none" stroke="#000" stroke-linecap="round" stroke-linejoin="round" stroke-miterlimit="10" stroke-width="2" d="M41.831 37.24a3.5 3.5 0 1 1 6.978.562m-14.019-.906a3.5 3.5 0 0 1 6.985.448M17.836 39.12a3.5 3.5 0 1 1 5.035-4.863m4.919-19.733a3.5 3.5 0 1 1 7 0m-.001 22.335V14.524m-6.999 0v27.791m-2.961-5.844-1.958-2.214m-3.268 7.183c1.953 2.143 3.374 5.167 3.302 9.521M17.836 39.12l1.821 2.38"/></svg>