<svg viewBox="0 0 72 72" xmlns="http://www.w3.org/2000/svg"><path d="M59 25H25a1 1 0 0 1-1-1v-5a1 1 0 0 1 1-1h34a1 1 0 0 1 1 1v5a1 1 0 0 1-1 1zm0 15H25a1 1 0 0 1-1-1v-5a1 1 0 0 1 1-1h34a1 1 0 0 1 1 1v5a1 1 0 0 1-1 1zm0 15H25a1 1 0 0 1-1-1v-5a1 1 0 0 1 1-1h34a1 1 0 0 1 1 1v5a1 1 0 0 1-1 1zM18 25h-5a1 1 0 0 1-1-1v-5a1 1 0 0 1 1-1h5a1 1 0 0 1 1 1v5a1 1 0 0 1-1 1zm0 15h-5a1 1 0 0 1-1-1v-5a1 1 0 0 1 1-1h5a1 1 0 0 1 1 1v5a1 1 0 0 1-1 1zm0 15h-5a1 1 0 0 1-1-1v-5a1 1 0 0 1 1-1h5a1 1 0 0 1 1 1v5a1 1 0 0 1-1 1z" fill="none" stroke="#000" stroke-linecap="round" stroke-linejoin="round" stroke-miterlimit="10" stroke-width="2"/></svg>