<svg viewBox="0 0 72 72" xmlns="http://www.w3.org/2000/svg"><g fill="none" stroke="#000" stroke-linecap="round" stroke-linejoin="round" stroke-miterlimit="10" stroke-width="2"><path d="M49.042 27H62c3.3 0 6 2.7 6 6v6c0 3.3-2.7 6-6 6H33c-3.3 0-6-2.7-6-6v-2"/><path d="M49 33h11c1.105 0 2 .737 2 1.647v2.706c0 .91-.895 1.647-2 1.647H35c-1.104 0-2-.738-2-1.647v-.374"/><path d="M22.988 45H10c-3.3 0-6-2.7-6-6v-6c0-3.3 2.7-6 6-6h29c3.3 0 6 2.7 6 6v2"/><path d="M23 39H12c-1.105 0-2-.737-2-1.647v-2.706c0-.91.895-1.647 2-1.647h25c1.104 0 2 .738 2 1.647v.346"/></g></svg>