<svg viewBox="0 0 72 72" xmlns="http://www.w3.org/2000/svg"><g fill="none" stroke="#000" stroke-linecap="round" stroke-linejoin="round"><path stroke-width="2" d="M36.336 49.778H5.013v-26.86h61.949v26.86H36.655m-.001 0h-.31m.31.061h6.76V60m-14 0V49.839h6.93"/><path stroke-width="2" d="M29.414 16.228h14v6.69h-14z"/><path stroke-width="1.6" d="M34.151 10.992a3.889 3.889 0 0 1-1.454 1.868 1.65 1.65 0 0 1-1.492.227c-1.01-.4-1.331-1.986-.715-3.543s1.935-2.494 2.946-2.094 1.331 1.985.715 3.542zm-1.83 5.234v-3.174m15.593 9.861V10.268h7.625m-4.666-1.625v3.125m3-3.125v3.125M19.482 22.445v-5.241h-3.84v-5.759"/><path stroke-width="1.6" d="M19.107 17.204h3.84v-5.759m-3.449 1.386v4.656m-5.467 16.798H9.562v8.325"/><path stroke-width="2" d="M6.998 50.366V60m11-10.161V60m32-10.161V60m12-10.161V60"/><path stroke-width="1.6" d="M18.733 33.718v-4.53h43.729m-43.729 13.33v-5.33h43.729"/></g></svg>