<svg viewBox="0 0 72 72" xmlns="http://www.w3.org/2000/svg"><g fill="none" stroke="#000" stroke-linecap="round" stroke-linejoin="round"><path stroke-width="2" d="m44.021 57 2.187-13.365-.958-11.902-1.5-2.906 1.5-5.219-1.5-5.958 10.833 1.319 5.899-.355 3.601.855 4 .75"/><path stroke-width="2" d="m54.333 57-1.25-2.656 1.25-5.375.25-4.125-1.5-4.75v-4.875l5.25-1.667 10.375 1.177"/><path stroke-width="2" d="m61.708 39.958 1.125 4.75-.945 5.012M39.613 57l-3.466-12.381-1.492-11.641-1.852-2.695.834-5.366-2.235-5.723m0 0-13.027 3.858 5.851 15.167-5.768-.292 3.584 4.75 2 1.875 1.125 2.667v4.541l3.541 2.917 1 2.323m-18.46 0H67M5 57h1.098M43.75 17.65l-6.604 3.631 2.467 7.125v9.028l1.97 9.41L39.708 57"/><path stroke-width="1.6" d="M11.708 43v5.333l3.417-4.833zm-4 10.583-1.583 2.75L8.458 60.5l4.959-.5z"/></g></svg>