<svg viewBox="0 0 72 72" xmlns="http://www.w3.org/2000/svg"><g fill="none" stroke="#000" stroke-linecap="round" stroke-linejoin="round"><path stroke-width="1.6" d="M29.29 42.66s7.512-10.081 16.284.028"/><path d="M26.14 35.318c1.046 6.588 5.737 11.56 11.37 11.56s10.324-4.972 11.37-11.56m-.403-7.39c-1.554-5.652-5.871-9.724-10.967-9.724s-9.413 4.072-10.967 9.724" stroke-width="2"/><path stroke-width="1.644" d="M27.443 48.903a9.459 9.459 0 0 0-9.458 9.657v3.351m38.628 0V58.56a9.796 9.796 0 0 0-9.856-9.657"/><path stroke-width="2" d="M57.372 32.654c-1.115-1.227-.154-1.991.392-2.795a.629.629 0 0 0-.014-.724 4.062 4.062 0 0 1-.848-1.471c-.15-.75-.31-1.11-1.14-1.21-1.04-.12-1.2-.68-.6-1.52.17-.23.36-.44.63-.76-1.47-1.45-3.2-2.72-2.52-5.08a10.307 10.307 0 0 1-1.52-.1 1.337 1.337 0 0 1-.35-.1.56.56 0 0 1-.15-.1c-.192-.175-.127-.475.091-.97a.632.632 0 0 0-.088-.629c-.385-.505-.694-.923-1.003-1.341-.14-.19-.32-.56-.43-.54-1.38.24-1.28-.69-1.39-1.58-.1-.77-.35-1.39-1.44-.91-1.5.66-2.28.36-2.98-1.16a1.66 1.66 0 0 0-1.93-.89c-1.43.59-1.57-.16-1.68-1.2a7.257 7.257 0 0 0-.26-.98c-.21.11-.43.21-.64.3s-.42.18-.62.27a3.941 3.941 0 0 0-.54.29 1.83 1.83 0 0 0-.41.37 1.907 1.907 0 0 1-.72.63c-.56.25-1.07-.08-1.6-.48-.06-.04-.11-.09-.17-.13a5.074 5.074 0 0 1-.72-.9c-.14.13-.27.19-.32.3-.83 1.77-.82 1.75-2.89 1.52-.36-.04-1.02.16-1.11.4-.51 1.45-1.63 1.55-2.78 1.42a1.961 1.961 0 0 0-.34.8c-.02.11-.05.23-.07.34-.02.05-.03.11-.05.16a1.011 1.011 0 0 1-.13.3 1.048 1.048 0 0 1-1.05.47 6.373 6.373 0 0 0-2.23.91 3.858 3.858 0 0 0-1.21.91c-.34.39-.95.94-.86 1.27.54 2.046-.998 3.011-1.987 4.27a.619.619 0 0 0-.073.616c.211.509.258.75-.06.934a1.535 1.535 0 0 1-.18.09 10.78 10.78 0 0 1-1.47.37c.44 1.02.65 1.5.4 1.82a.637.637 0 0 1-.15.13 1.944 1.944 0 0 1-.21.12 1.484 1.484 0 0 1-.28.11 2.595 2.595 0 0 1-.36.11c-.13.04-.27.08-.43.12-.16.05-.622.006-.51.14a9.486 9.486 0 0 1 .74.67c.6.65.95 1.39.29 2.1-1.13 1.2.46 2.48-.48 3.5.87.89-.05 1.48-.38 2.15a10.03 10.03 0 0 1-.81 1.19 2.051 2.051 0 0 1 .65.46c.672.704.183 1.579-.01 2.424a.624.624 0 0 0 .533.763c.79.095 1.476.295.876 1.583a1.049 1.049 0 0 1 .446 1.655.621.621 0 0 0 .497.915 2.228 2.228 0 0 1 2.296 1.726.636.636 0 0 0 .52.4c.543.055 1.073.046 1.282.304a25.428 25.428 0 0 1 1.85 2.95c.22-.16.51-.57.82-.58.7-.02 1.63-.08 2.06.31a3.225 3.225 0 0 0 .99.63 2.999 2.999 0 0 0 .58.18 2.046 2.046 0 0 0 1.63-.23 3.595 3.595 0 0 1 .4-.23c.57-.23.9.1 1.08.82.04.16.07.33.11.5l.09.48h.01a2.463 2.463 0 0 0 .27.04c.17.02.32.05.46.07h.01a3.575 3.575 0 0 0 2.48-.35c.24-.1.5-.22.82-.37a8.456 8.456 0 0 1 .99-.39 7.938 7.938 0 0 1 .843-.213c.062-.011.126-.028.187-.037.02 0 .04-.01.06-.01a1.462 1.462 0 0 1 .86.49 4.234 4.234 0 0 1 .54.98c.82-.04 1.71.24 2.04-.87.04-.13.45-.21.69-.22.75-.03 1.5-.01 2.24-.01-.04-.1-.09-.19-.14-.29.45-.35.89-.99 1.35-1.01l1.06-.03a5.024 5.024 0 0 0 1.25-.18 2.727 2.727 0 0 0 .47-.19 3.571 3.571 0 0 0 .44-.28 1.771 1.771 0 0 0 .2-.19 2.55 2.55 0 0 0 .39-.46.529.529 0 0 1 .1-.11 1.526 1.526 0 0 1 .28-.19 3.748 3.748 0 0 1 .5-.21 3.315 3.315 0 0 0 .33-.14c.16-.08.43-.1.47-.22.6-1.56 1.45-2.72 3.38-2.52.24.02.5-.19.73-.28-.36-.78-1.07-1.6-.89-2.1a16.642 16.642 0 0 1 1.921-3.227.603.603 0 0 0 .083-.191c.062-.26.154-.655.206-1.042a1.181 1.181 0 0 0-.01-.46.298.298 0 0 0-.04-.1l-.02-.02c-.49-.56-.31-.96.16-1.43.2-.2.29-.86.15-.98-.81-.71-.65-1.3.07-1.85zm-29.61-8.34"/><g stroke-width="2"><path d="M37.573 32.31c-3.498.194-1.065 4.663-5.7 4.697-5.053.036-6.38-1.07-6.834-5.41-.539-5.154 6.862-5.473 6.862-5.473h5.672"/><path d="M37.448 32.31c3.498.194 1.065 4.663 5.7 4.697 5.053.036 6.38-1.07 6.834-5.41.539-5.154-6.862-5.473-6.862-5.473h-5.672"/></g></g></svg>