<svg viewBox="0 0 72 72" xmlns="http://www.w3.org/2000/svg"><path fill="none" stroke="#000" stroke-linecap="round" stroke-linejoin="round" stroke-width="1.6" d="M40.503 8.03v5.12s-.47 1.12-1.12 0v-2.04h-6.76v2.08c-.65 1.12-1.12 0-1.12 0V8.03a.734.734 0 0 1 .73-.73h7.54a.734.734 0 0 1 .73.73z"/><g fill="none" stroke="#000" stroke-linecap="round" stroke-linejoin="round" stroke-width="1.6"><path d="M38.973 12.08a2.97 2.97 0 1 1-5.94 0m7.938 12.436s-.275 4.5-.2 6c.069 1.372.775 5.487.775 5.487l1.325 26.513c.055 1.1-.575 2-1.4 2a2.076 2.076 0 0 1-1.729-1.987L37.2 40.498c-.129-1.093-.679-1.987-1.229-1.987s-1.103.894-1.229 1.987l-2.539 22.031a2.076 2.076 0 0 1-1.729 1.987c-.825 0-1.455-.9-1.4-2L30.4 36.002c.109-2.173.704-4.07.774-5.474.075-1.503-.2-6.012-.2-6.012"/><path d="m26.974 42.516.792-19a5.274 5.274 0 0 1 5.208-5h6"/><path d="M38.901 18.516a5.274 5.274 0 0 1 5.208 5l.792 19"/></g></svg>