<svg viewBox="0 0 72 72" xmlns="http://www.w3.org/2000/svg"><g fill="none" stroke="#000" stroke-linecap="round" stroke-linejoin="round" stroke-width="2"><path d="m37.838 51.446-15.54.302m-14.258 0c-.679-.151-1.282-.377-1.358-.755-.075-.754-.226-2.866-.226-3.847-.017-.4.088-.794.302-1.132.83-1.508 3.62-5.13 11.24-4.828l7.77-5.205a2.504 2.504 0 0 1 1.207-.377l14.786-.075a2.07 2.07 0 0 1 .678.075c1.66.453 8.827 3.017 7.846 9.505l.83.453c.382.164.662.5.754.905a5.31 5.31 0 0 1-.15 3.244"/><path d="m20.714 43.072 22.782-.151v-3.833"/><circle cx="14.98" cy="50.993" r="3.772"/><circle cx="45.005" cy="50.993" r="3.772"/><path d="m11.208 45.335-1.358 1.66-2.791-.075m33.378-24.029a5.258 5.258 0 0 1 9.058-3.885 4.195 4.195 0 0 1 7.745 2.07l.021-.003a4.222 4.222 0 0 1 .387 8.435h-.005c-.068.003-.133-.01-.2-.01a3.115 3.115 0 0 1-1.763 4.143c.009.063.042.116.045.181a2.111 2.111 0 1 1-4.217.195v-.004a2.085 2.085 0 0 1 .484-1.411 3.148 3.148 0 0 1-.469-.935 3.143 3.143 0 0 1-4.407-2.292 4.199 4.199 0 0 1-6.313-4.844 5.227 5.227 0 0 1-.366-1.64z"/></g></svg>