<svg viewBox="0 0 72 72" xmlns="http://www.w3.org/2000/svg"><g fill="none" stroke="#000" stroke-linecap="round" stroke-linejoin="round" stroke-width="2"><path d="M22.87 30c-.01 0-.02-.02-.02-.02a4.397 4.397 0 0 1-.52-.36c-.01-.01-.02-.01-.03-.02a6.098 6.098 0 0 1-1.83-2.6 5.998 5.998 0 0 1 3.16-7.51 3.977 3.977 0 0 1 6.76-2.13 5.015 5.015 0 0 1 2.72-2.41 4.924 4.924 0 0 1 3.28-.02 4.975 4.975 0 0 1 7.3-5.21 7.943 7.943 0 0 1 2.83-1.77 7.846 7.846 0 0 1 2.67-.48 5.88 5.88 0 0 1 2.03-1.23 6.003 6.003 0 0 1 7.69 3.58c.06.17.11.34.16.52a3.529 3.529 0 0 1 .56.14 3.948 3.948 0 0 1 2.53 2.42 4.002 4.002 0 0 1-2.39 5.12 3.942 3.942 0 0 1-2.91-.08 7.982 7.982 0 0 1-9.79 5.21 4.96 4.96 0 0 1-8.71 2.36 4.942 4.942 0 0 1-6.82 1.99 5.914 5.914 0 0 1-2.06 2.41M44.197 66c-5-6.171-8-26.743-5-36H16c3 9.257 0 29.829-5 36zM53 66h4V27h-6v22.721"/><path d="M44.197 66H53V55a8 8 0 0 0-14.187-5.07"/></g></svg>