<svg viewBox="0 0 72 72" xmlns="http://www.w3.org/2000/svg"><g stroke="#000" stroke-linecap="round" stroke-linejoin="round"><path d="M24.754 45.133a.629.629 0 1 1-.315-.545.629.629 0 0 1 .315.545zm-3.146 0a2.515 2.515 0 0 1 1.258-2.18l-1.258-2.18a5.03 5.03 0 0 0-2.516 4.36zm3.775 2.18a2.52 2.52 0 0 1-2.517 0l-1.258 2.18a5.04 5.04 0 0 0 5.033 0zm0-4.36a2.515 2.515 0 0 1 1.258 2.18h2.516a5.03 5.03 0 0 0-2.516-4.359z"/><rect x="16" y="12" rx="6" width="36" height="49" fill="none" stroke-width="2"/><path fill="none" stroke-width="2" d="M42.347 31.5a9.992 9.992 0 0 0-16.695 0M29 23l1.797 4.494"/><path fill="none" stroke-width="2" d="M36 35.8a10 10 0 1 0-4 0m0 14.755a4 4 0 1 0 4 0"/><rect x="32" y="31" rx="1" width="4" height="25" fill="none" stroke-width="2"/></g></svg>