<svg viewBox="0 0 72 72" xmlns="http://www.w3.org/2000/svg"><circle cx="36.204" cy="10.432" r="2.969" fill="none" stroke="#000" stroke-linecap="round" stroke-linejoin="round" stroke-width="2"/><path fill="none" stroke="#000" stroke-linecap="round" stroke-linejoin="round" stroke-width="2" d="m41.17 23.37 1.9 38c.055 1.1-.575 2-1.4 2a2.076 2.076 0 0 1-1.729-1.987l-2.542-22.031c-.129-1.093-.679-1.987-1.229-1.987s-1.103.894-1.229 1.987l-2.539 22.031a2.076 2.076 0 0 1-1.729 1.987c-.825 0-1.455-.9-1.4-2l1.9-38"/><path fill="none" stroke="#000" stroke-linecap="round" stroke-linejoin="round" stroke-width="2" d="m27.173 41.37.792-19a5.274 5.274 0 0 1 5.208-5h6"/><path fill="none" stroke="#000" stroke-linecap="round" stroke-linejoin="round" stroke-width="2" d="M39.1 17.37a5.274 5.274 0 0 1 5.208 5l.792 19"/><circle cx="39.63" cy="20.585" r="1"/><ellipse cx="38.704" cy="13.521" rx="1.134" ry=".757" transform="rotate(-50 38.704 13.521)" stroke="#000" stroke-miterlimit="10"/><ellipse cx="33.704" cy="13.521" rx=".757" ry="1.134" transform="rotate(-40 33.704 13.521)" stroke="#000" stroke-miterlimit="10"/><circle cx="36.204" cy="13.401" r="1.5" stroke="#000" stroke-miterlimit="10"/></svg>