<svg viewBox="0 0 72 72" xmlns="http://www.w3.org/2000/svg"><circle cx="36.344" cy="10.432" r="2.969" fill="none" stroke="#000" stroke-linecap="round" stroke-linejoin="round" stroke-width="2"/><path fill="none" stroke="#000" stroke-linecap="round" stroke-linejoin="round" stroke-width="2" d="M31.477 24.252c2.352 3.533.677 6.107.032 8a33.377 33.377 0 0 0-.898 5.613c-.6 5.977-1.002 24.005-1.002 24.005-.055 1.1.575 2 1.4 2a2.076 2.076 0 0 0 1.729-1.987l2.539-22.031c.126-1.093.679-1.987 1.229-1.987s1.1.894 1.229 1.987l2.542 22.031a2.076 2.076 0 0 0 1.73 1.987c.824 0 1.454-.9 1.4-2 0 0-.524-17.841-1.074-23.762a35.871 35.871 0 0 0-.827-5.856c-.617-1.902-2.416-4.739-.029-8"/><path fill="none" stroke="#000" stroke-linecap="round" stroke-linejoin="round" stroke-width="2" d="m27.38 41.842.792-19a5.274 5.274 0 0 1 5.208-5h5.927a5.274 5.274 0 0 1 5.208 5l.792 19"/><ellipse cx="38.844" cy="13.521" rx="1.134" ry=".757" transform="rotate(-50 38.844 13.521)" stroke="#000" stroke-linecap="round" stroke-linejoin="round"/><ellipse cx="33.844" cy="13.521" rx=".757" ry="1.134" transform="rotate(-40 33.843 13.521)" stroke="#000" stroke-linecap="round" stroke-linejoin="round"/><circle cx="36.344" cy="13.401" r="1.5" stroke="#000" stroke-linecap="round" stroke-linejoin="round"/><circle cx="39.63" cy="20.875" r="1"/></svg>