<svg viewBox="0 0 72 72" xmlns="http://www.w3.org/2000/svg"><path d="M46.034 10.04a.978.978 0 0 0-.73-.27c-.14 0-.31.01-.5.01-2-.01-6.2-.4-7.85-2.26a.755.755 0 0 0-.15-.16.895.895 0 0 0-.36-.19.267.267 0 0 0-.12-.03.468.468 0 0 0-.17-.02.496.496 0 0 0-.17.02.267.267 0 0 0-.12.03.907.907 0 0 0-.47.31c-.01.01-.02.03-.04.04a7.156 7.156 0 0 1-3.79 1.83 20.83 20.83 0 0 1-4.07.42c-.18 0-.35 0-.49-.01a1.062 1.062 0 0 0-.74.28 1.022 1.022 0 0 0-.3.72v8.47c0 .02.01.05.01.07a1.197 1.197 0 0 0 .03.42.896.896 0 0 0 .13.28 1.024 1.024 0 0 0 .83.44.982.982 0 0 0 .29-.05 29.974 29.974 0 0 1 17.79 0 .998.998 0 0 0 1.18-.49.763.763 0 0 0 .07-.16.564.564 0 0 0 .03-.18.756.756 0 0 0 0-.26.144.144 0 0 0 .02-.07v-8.47a.992.992 0 0 0-.31-.72zm-1.69 8.09a31.698 31.698 0 0 0-16.38.01v-6.38c.22 0 .48-.01.76-.03 2.04-.12 5.36-.57 7.43-2.24 2.07 1.67 5.39 2.12 7.43 2.24.28.02.54.03.76.03z"/><path d="M36.63 11.712v1.442h1.442v1.015H36.63v1.442h-1.015V14.17h-1.442v-1.015h1.442v-1.442h1.015m0-1h-1.015a1 1 0 0 0-1 1v.442h-.442a1 1 0 0 0-1 1v1.015a1 1 0 0 0 1 1h.442v.442a1 1 0 0 0 1 1h1.015a1 1 0 0 0 1-1v-.442h.442a1 1 0 0 0 1-1v-1.015a1 1 0 0 0-1-1h-.442v-.442a1 1 0 0 0-1-1zm5.625 18.357a2 2 0 1 1-2-2 2 2 0 0 1 2 2zm-8 0a2 2 0 1 1-2-2 2 2 0 0 1 2 2zm2 10.002a7.652 7.652 0 0 1-3.447-.857 1 1 0 1 1 .895-1.79 5.378 5.378 0 0 0 5.105 0 1 1 0 1 1 .895 1.79 7.653 7.653 0 0 1-3.448.857z"/><path d="M36.255 45.605c-6.803 0-12.338-6.807-12.338-15.174l-.12-1.372a1 1 0 0 1 .911-1.082.99.99 0 0 1 1.081.912l.124 1.457c.004 7.35 4.642 13.259 10.342 13.259s10.339-5.91 10.339-13.174q0-.7-.057-1.385a1 1 0 0 1 1.994-.16q.062.762.063 1.545c0 8.367-5.535 15.174-12.34 15.174z"/><path d="M47.307 30.28a1.972 1.972 0 0 1-1.223-.436 5.245 5.245 0 0 1-1.462-2.58 2.313 2.313 0 0 1-.328.145c-1.466.513-3.244-.634-4.486-1.695a1.615 1.615 0 0 1-.166.134c-1.05.745-2.924.052-4.66-.933a1.281 1.281 0 0 1-.102.098c-.361.313-1.177 1.013-4.942-1.306-1.012 2.091-2.972 5.72-4.71 6.463a1.026 1.026 0 0 1-1.355-.51 11.657 11.657 0 0 1-.394-1.072 9.21 9.21 0 0 1 1.937-9.284 7.22 7.22 0 0 1 .76-.69 1 1 0 0 1 1.235 1.573 5.287 5.287 0 0 0-.553.503 7.158 7.158 0 0 0-1.582 6.904 28.922 28.922 0 0 0 3.326-5.754 1 1 0 0 1 1.465-.423 21.199 21.199 0 0 0 3.06 1.708 1 1 0 0 1 1.551-.747 12.996 12.996 0 0 0 3.624 1.78 1.619 1.619 0 0 0-.027-.119 1 1 0 0 1 1.702-.929c1.33 1.433 3.094 2.607 3.652 2.413.115-.04.349-.369.417-1.324a.999.999 0 0 1 .98-.928 1.017 1.017 0 0 1 1.012.895 11.214 11.214 0 0 0 1.018 3.804 5.977 5.977 0 0 0-.026-5.433 5.888 5.888 0 0 0-1.448-1.871 4.323 4.323 0 0 0-.433-.321 1 1 0 1 1 1.07-1.69 6.587 6.587 0 0 1 .642.473 8.107 8.107 0 0 1 1.514 10.548l-.064.095a1.196 1.196 0 0 1-.722.489 1.982 1.982 0 0 1-.282.02zm-22.39 30.525a4 4 0 1 1 4-4 4.004 4.004 0 0 1-4 4zm0-6a2 2 0 1 0 2 2 2.003 2.003 0 0 0-2-2z"/><path d="M24.916 54.805a1 1 0 0 1-.97-.764c-.06-.245-1.413-6.04 2.53-10.132a1 1 0 1 1 1.44 1.389c-3.188 3.307-2.039 8.221-2.027 8.27a1 1 0 0 1-.973 1.236zm30.156 6.117a.996.996 0 0 1-.99-1.15c.012-.08 1.16-8.126-4.313-10.876a1 1 0 1 1 .898-1.788c6.78 3.406 5.451 12.578 5.392 12.967a1 1 0 0 1-.987.847zm-18.9-9.407h-.104l-.041-.001c-2.372-.032-4.674-.83-7.651-2.647a1 1 0 0 1 1.04-1.707c2.685 1.639 4.699 2.345 6.715 2.355a12.265 12.265 0 0 0 6.29-2.099 1 1 0 0 1 1.016 1.723 14.364 14.364 0 0 1-7.196 2.375h-.07zm-18.979 9.407a1 1 0 0 1-.986-.847c-.063-.412-1.468-10.134 6.02-13.255a1 1 0 0 1 .77 1.846c-6.037 2.517-4.826 11.02-4.813 11.107a.996.996 0 0 1-.99 1.149z"/><path d="M45.37 61.852a1.1 1.1 0 0 1-.1-.004 1 1 0 0 1-.897-1.091l.07-.747a2.273 2.273 0 0 1-.665-.507c-1.363-1.484-1.016-4.892-.901-5.756-.017-1.45.63-3.934 3.05-4.638a10.698 10.698 0 0 0-1.887-3.811 1 1 0 1 1 1.44-1.389c1.758 1.822 2.646 5.628 2.683 5.79a1 1 0 0 1-.942 1.222c-2.285.076-2.352 2.394-2.343 2.858a1.008 1.008 0 0 1-.01.163 11.459 11.459 0 0 0 .019 3.304.977.977 0 0 1 .861-.351 1 1 0 0 1 .9 1.09l-.115 1.205a1.053 1.053 0 0 1-.004.148l-.165 1.616a1 1 0 0 1-.995.898z"/><path d="M49.412 61.852a1 1 0 0 1-.994-.899l-.164-1.616a.997.997 0 0 1-.004-.144l-.115-1.209a.999.999 0 0 1 .9-1.09.974.974 0 0 1 .86.351 11.448 11.448 0 0 0 .018-3.303 1.076 1.076 0 0 1-.01-.168c.01-.459-.058-2.777-2.343-2.853a1 1 0 1 1 .066-1.998c3.437.113 4.297 3.154 4.278 4.824.114.864.462 4.271-.9 5.757a2.303 2.303 0 0 1-.667.506l.071.748a1 1 0 0 1-.897 1.09 1.133 1.133 0 0 1-.099.005zm-13.498-.929a1.002 1.002 0 0 1-.893-.547l-5.657-11.133a1 1 0 1 1 1.783-.906l5.658 11.133a1 1 0 0 1-.89 1.453z"/><path d="M35.912 60.923a1 1 0 0 1-.887-1.461l5.658-10.902a1 1 0 0 1 1.775.922l-5.657 10.902a1 1 0 0 1-.889.539z"/></svg>