<svg viewBox="0 0 72 72" xmlns="http://www.w3.org/2000/svg"><path d="M16.927 61.185a1 1 0 0 1-.987-.847 17.145 17.145 0 0 1 .644-7.291c.071-.204 1.728-4.876 5.658-6.073a15.452 15.452 0 0 1 4.687-.788.996.996 0 0 1 .549.164c3.04 1.996 5.63 3.344 8.384 3.437 2.753 0 5.173-1.274 8.206-3.329a.903.903 0 0 1 .12-.07 1.107 1.107 0 0 1 .641-.202c3.656 0 6.484 1.135 8.407 3.377 3.554 4.142 2.622 10.505 2.581 10.775a1 1 0 0 1-1.976-.303c.008-.057.827-5.741-2.13-9.178-1.48-1.722-3.71-2.62-6.624-2.67l-.018.008c-3.292 2.22-5.981 3.591-9.14 3.591h-.133c-3.137-.105-5.945-1.508-9.16-3.597a13.929 13.929 0 0 0-3.81.698c-2.969.904-4.336 4.77-4.35 4.808a15.339 15.339 0 0 0-.56 6.34.996.996 0 0 1-.99 1.15zm27.702-14.899z"/><path d="M30.629 57.086a1.002 1.002 0 0 1-.924-.616l-3.7-8.9a1 1 0 1 1 1.848-.768l3.114 7.491 4.041-4.2a1 1 0 1 1 1.441 1.387l-5.1 5.3a.998.998 0 0 1-.72.306z"/><path d="M38.33 54.386a.997.997 0 0 1-.708-.293l-2.6-2.6a1 1 0 1 1 1.413-1.414l2.601 2.6a1 1 0 0 1-.707 1.707z"/><path d="M40.929 57.086a.998.998 0 0 1-.721-.307l-2.6-2.7a1 1 0 1 1 1.442-1.387l1.546 1.606 3.04-7.23a1 1 0 0 1 1.993.117v.1a1 1 0 0 1-.078.388l-3.7 8.8a1.002 1.002 0 0 1-.738.596 1.063 1.063 0 0 1-.184.017zm9.907 2.5h-5.8a1 1 0 0 1 0-2h5.8a.945.945 0 0 1 1 1 1.002 1.002 0 0 1-1 1zM46.22 10.04a.978.978 0 0 0-.73-.27c-.14 0-.31.01-.5.01-2-.01-6.2-.4-7.85-2.26a.752.752 0 0 0-.15-.16.897.897 0 0 0-.36-.19.266.266 0 0 0-.12-.03.468.468 0 0 0-.17-.02.495.495 0 0 0-.17.02.266.266 0 0 0-.12.03.907.907 0 0 0-.47.31c-.01.01-.02.03-.04.04a7.156 7.156 0 0 1-3.79 1.83 20.828 20.828 0 0 1-4.07.42c-.18 0-.35 0-.49-.01a1.062 1.062 0 0 0-.74.28 1.022 1.022 0 0 0-.3.72v8.47c0 .02.01.05.01.07a1.194 1.194 0 0 0 .03.42.898.898 0 0 0 .13.28 1.024 1.024 0 0 0 .83.44.982.982 0 0 0 .29-.05 29.975 29.975 0 0 1 17.79 0 .998.998 0 0 0 1.18-.49.774.774 0 0 0 .07-.16.566.566 0 0 0 .03-.18.756.756 0 0 0 0-.26.144.144 0 0 0 .02-.07v-8.47a.992.992 0 0 0-.31-.72zm-1.69 8.09a31.698 31.698 0 0 0-16.38.01v-6.38c.22 0 .48-.01.76-.03 2.04-.12 5.36-.57 7.43-2.24 2.07 1.67 5.39 2.12 7.43 2.24.28.02.54.03.76.03z"/><path d="M36.816 11.712v1.442h1.442v1.015h-1.442v1.442H35.8V14.17h-1.44v-1.015h1.44v-1.442h1.015m0-1H35.8a1 1 0 0 0-1 1v.442h-.441a1 1 0 0 0-1 1v1.015a1 1 0 0 0 1 1h.442v.442a1 1 0 0 0 1 1h1.015a1 1 0 0 0 1-1v-.442h.441a1 1 0 0 0 1-1v-1.015a1 1 0 0 0-1-1h-.441v-.442a1 1 0 0 0-1-1zm5.626 18.357a2 2 0 1 1-2-2 2 2 0 0 1 2 2zm-8 0a2 2 0 1 1-2-2 2 2 0 0 1 2 2zm2 10.002a7.652 7.652 0 0 1-3.447-.857 1 1 0 1 1 .894-1.79 5.378 5.378 0 0 0 5.106 0 1 1 0 1 1 .894 1.79 7.653 7.653 0 0 1-3.447.857z"/><path d="M36.441 45.605c-6.803 0-12.339-6.807-12.339-15.174l-.12-1.372a1 1 0 1 1 1.993-.17l.124 1.457c.004 7.35 4.641 13.258 10.342 13.258S46.78 37.695 46.78 30.431q0-.7-.056-1.385a1 1 0 0 1 1.994-.16q.061.762.062 1.545c0 8.367-5.535 15.174-12.338 15.174z"/><path d="M47.492 30.28a1.972 1.972 0 0 1-1.223-.436 5.254 5.254 0 0 1-1.461-2.58 2.22 2.22 0 0 1-.329.145c-1.46.514-3.244-.634-4.486-1.695a1.616 1.616 0 0 1-.166.134c-1.048.745-2.924.052-4.659-.933a1.266 1.266 0 0 1-.103.098c-.36.313-1.177 1.013-4.942-1.306-1.01 2.089-2.967 5.712-4.703 6.46a1.026 1.026 0 0 1-1.36-.506 11.478 11.478 0 0 1-.395-1.074 9.21 9.21 0 0 1 1.937-9.284 7.187 7.187 0 0 1 .762-.691 1 1 0 1 1 1.233 1.575 5.126 5.126 0 0 0-.553.502 7.158 7.158 0 0 0-1.582 6.904 28.921 28.921 0 0 0 3.326-5.753 1 1 0 0 1 1.465-.423 21.194 21.194 0 0 0 3.06 1.708 1 1 0 0 1 1.551-.747 12.995 12.995 0 0 0 3.624 1.78 1.623 1.623 0 0 0-.027-.119 1 1 0 0 1 1.702-.929c1.33 1.432 3.108 2.607 3.652 2.413.116-.04.35-.369.418-1.324a.999.999 0 0 1 .98-.928h.017a1 1 0 0 1 .994.895 11.234 11.234 0 0 0 1.017 3.804 5.972 5.972 0 0 0-.025-5.433 5.89 5.89 0 0 0-1.448-1.871 4.334 4.334 0 0 0-.433-.321 1 1 0 1 1 1.07-1.69 6.6 6.6 0 0 1 .642.473 8.11 8.11 0 0 1 1.515 10.548l-.064.094a1.211 1.211 0 0 1-.724.49 1.98 1.98 0 0 1-.282.02z"/></svg>