<svg viewBox="0 0 72 72" xmlns="http://www.w3.org/2000/svg"><g fill="none" stroke="#000"><path stroke-miterlimit="10" stroke-width="2" d="M40.718 21.797h4.487a2.335 2.335 0 0 1 2.32 2.351v26.924a1.926 1.926 0 0 1-2.012 1.935l-8.627-.486a12.878 12.878 0 0 0-1.542 0l-8.628.486a1.926 1.926 0 0 1-2.012-1.935V24.148a2.34 2.34 0 0 1 2.32-2.351h4.557"/><circle cx="36.302" cy="56.56" r="1.102" stroke-miterlimit="10"/><path stroke-linecap="round" stroke-linejoin="round" stroke-width="2.001" d="M36.15 10.736a14.445 14.445 0 0 0-6.52 1.647l1.454 7.994a5.633 5.633 0 0 0 10.133 0l1.453-7.994a14.445 14.445 0 0 0-6.52-1.647z"/><path stroke-linecap="round" stroke-linejoin="round" stroke-width="2.001" d="M41.699 17.714h3.608a5.638 5.638 0 0 1 5.633 5.633v30.889a4.972 4.972 0 0 1-3.764 4.822l-2.205.549a36.9 36.9 0 0 1-17.942 0l-2.205-.55a4.972 4.972 0 0 1-3.764-4.821V23.347a5.638 5.638 0 0 1 5.633-5.633h3.903"/></g></svg>