<svg viewBox="0 0 72 72" xmlns="http://www.w3.org/2000/svg"><path d="M54.982 41.128a8.649 8.649 0 0 0-.083-.652 5.01 5.01 0 0 1-.092-.844 4.41 4.41 0 0 0-1.821-3.692c-.1-.075-.117-.1-.084-.259l.042-.217a10.246 10.246 0 0 0 .242-1.838 3.378 3.378 0 0 1 .401-1.922 1.756 1.756 0 0 0 .226-.635 13.729 13.729 0 0 0 .259-5.296 5.987 5.987 0 0 0-1.42-3.133 5.357 5.357 0 0 0-4.988-1.57 9.148 9.148 0 0 0-1.278.284c-.3.083-.61.167-.91.225a8.892 8.892 0 0 1-3.51-.125l-.133-.025a6.787 6.787 0 0 1-2.247-.743 9.572 9.572 0 0 0-7.252-1.196 9.23 9.23 0 0 1-2.13.242 2.119 2.119 0 0 1-1.562-.626 2.078 2.078 0 0 1-.518-1.57c.008-.11.008-.218.025-.335a1.492 1.492 0 0 1 .016-.184 1.03 1.03 0 0 0-.016-.159.91.91 0 0 0-1.788 0c0 .117.008.234.008.351v.017a7.378 7.378 0 0 0 .092 1.353 3.527 3.527 0 0 0 3.191 2.866 9.12 9.12 0 0 0 2.966-.226 7.49 7.49 0 0 1 5.731.794 9.503 9.503 0 0 0 3.125 1.145 11.05 11.05 0 0 0 4.62.091l.401-.091a17.332 17.332 0 0 1 1.963-.385 4.373 4.373 0 0 1 1.387.142 2.943 2.943 0 0 1 1.938 1.546 5.312 5.312 0 0 1 .652 2.556A26.047 26.047 0 0 1 52.2 30.1a4.2 4.2 0 0 1-.41 1.22 4.41 4.41 0 0 0-.384 1.788 9.642 9.642 0 0 1-.225 2.088 2.2 2.2 0 0 1-2.172 1.73 3.114 3.114 0 0 1-2.573-.71 3.55 3.55 0 0 1-.368-.418c-.008-.008-.008-.017-.017-.017.05-.025.109-.05.159-.075a5.394 5.394 0 0 0 .752-.41 3.36 3.36 0 0 0 .576-.5.842.842 0 0 0 .059.777.815.815 0 0 0 .919.384.953.953 0 0 0 .484-.276 10.796 10.796 0 0 0 2.456-4.327 4.608 4.608 0 0 0-.025-1.855c-.033-.217-.066-.426-.083-.643a7.995 7.995 0 0 1-.05-1.053 4.019 4.019 0 0 0-.802-2.774 3.068 3.068 0 0 0-2.139-1.052 7.716 7.716 0 0 0-2.606.3 1.066 1.066 0 0 1-.602-.033 9.492 9.492 0 0 0-3.918-.668 3.43 3.43 0 0 0-1.972.727c-.1.083-.117.075-.3-.017l-.368-.2c-.952-.493-1.93-1.01-2.916-1.479a2.994 2.994 0 0 0-3.032.268 3.76 3.76 0 0 1-3.309.426 10.727 10.727 0 0 1-2.807-1.203 3.36 3.36 0 0 1-1.37-1.888 13.495 13.495 0 0 1-.61-3.35h-.008a.88.88 0 0 0-1.73 0 .231.231 0 0 0-.008.108c.009.1.017.209.034.31a26.166 26.166 0 0 0 .51 3.023 5.175 5.175 0 0 0 2.89 3.668 22.052 22.052 0 0 0 2.523.977 6.703 6.703 0 0 0 1.57.318 4.847 4.847 0 0 0 3.1-.827 1.551 1.551 0 0 1 1.646-.192c.794.4 1.58.81 2.364 1.228a5.835 5.835 0 0 0-4.929 1.42 8.903 8.903 0 0 0-3.492-1.822c-.209-.066-.417-.108-.635-.158a4.313 4.313 0 0 1-.843-.242 6.996 6.996 0 0 0-4.136-.393 2.415 2.415 0 0 1-2.08-.485 2.197 2.197 0 0 0-2.28-.376c-.326.126-.66.26-.986.385l-.092.041a2.966 2.966 0 0 0-1.938 3.61 8.764 8.764 0 0 0 .651 1.762 2.065 2.065 0 0 1 .234 1.337 7.935 7.935 0 0 0 .109 3.266.769.769 0 0 1-.067.452 11.565 11.565 0 0 0-1.37 3.517 3.79 3.79 0 0 0 .877 3.55 1.249 1.249 0 0 1 .342 1.562 2.444 2.444 0 0 0 .803 3.075.892.892 0 0 1 .275.35 6.335 6.335 0 0 0 2.456 2.883l-.852.551c-.743.485-.835.794-.468 1.588.117.259.243.526.36.785l.208.451a.994.994 0 0 0 .61.61 1.047 1.047 0 0 0 .853-.175 2.385 2.385 0 0 1 1.737-.334 6.33 6.33 0 0 1 3.45 1.904 8.53 8.53 0 0 0 3.141 2.106 9.368 9.368 0 0 0 3.284.643 6.949 6.949 0 0 0 4.578-1.721c.284-.234.551-.485.827-.735.083-.084.167-.167.259-.25a3.947 3.947 0 0 0 3.442.058 8.835 8.835 0 0 0 2.656-1.763 1.947 1.947 0 0 1 .911-.451 7.973 7.973 0 0 0 1.922-.694 6.664 6.664 0 0 0 3.174-4.269 1.815 1.815 0 0 1 1.345-1.478c1.98-.602 2.715-2.281 3.166-3.843a2.818 2.818 0 0 0 .042-1.062zm-5.99-15.121a1.556 1.556 0 0 1 .518 1.311 15.023 15.023 0 0 0 .142 2.047c.042.36.076.719.109 1.078a2.436 2.436 0 0 1-.292 1.261c-.41.735-.878 1.446-1.337 2.139a4.473 4.473 0 0 0 .209-2.189 7.009 7.009 0 0 0-.184-.852 9.61 9.61 0 0 1-.159-.677l-.025-.15a2.252 2.252 0 0 1-.042-.935 3.334 3.334 0 0 0-.5-3.283 1.95 1.95 0 0 1 1.561.25zm-16.925 6.34a9.113 9.113 0 0 0 .534 1.254 5.831 5.831 0 0 0 1.011 1.253.795.795 0 0 0 .543.226h.025a.873.873 0 0 0 .627-.31.802.802 0 0 0-.017-1.194 4.479 4.479 0 0 1-1.236-2.69 10.714 10.714 0 0 1-.134-1.53 1.734 1.734 0 0 1 1.086-1.753 3.938 3.938 0 0 1 3.71-.042 1.74 1.74 0 0 1 .935 1.37 6.434 6.434 0 0 0 .35 1.203c.06.167.118.334.168.501.067.2.134.401.209.602a10.99 10.99 0 0 1 .384 1.261 3.672 3.672 0 0 0 1.688 2.44.88.88 0 0 0 1.178-.251.906.906 0 0 0 .15-.685.733.733 0 0 0-.318-.476 2.595 2.595 0 0 1-1.077-1.955 5.97 5.97 0 0 0-.335-1.011 6.443 6.443 0 0 1-.2-.518c-.041-.117-.083-.243-.133-.368a8.048 8.048 0 0 1-.343-1.161 3.51 3.51 0 0 0-.935-1.863.372.372 0 0 1-.05-.267 1.367 1.367 0 0 1 .61-.827 1.318 1.318 0 0 1 .384-.15 1.699 1.699 0 0 1 .217-.034 7.139 7.139 0 0 1 1.462-.008 7.437 7.437 0 0 1 .86.15 4.808 4.808 0 0 1 .494.15 6.861 6.861 0 0 1 1.913.994 1.297 1.297 0 0 1 .476 1.554 4.306 4.306 0 0 0 .025 2.556 8.112 8.112 0 0 1 .259 1.888 1.28 1.28 0 0 1-.31.903 5.986 5.986 0 0 0-1.277-3.2.91.91 0 0 1-.084-.853 3.269 3.269 0 0 0-.56-3.057 1.028 1.028 0 0 0-.677-.468.82.82 0 0 0-.651.167.878.878 0 0 0-.118 1.312 1.775 1.775 0 0 1 .276 1.704 2.775 2.775 0 0 0 .434 2.34 8.3 8.3 0 0 1 .827 1.787 1.84 1.84 0 0 1-.35 1.68 5.323 5.323 0 0 1-3.117 2.063 1.316 1.316 0 0 1-1.261-.326c-.26-.25-.368-.426-.26-.76a2.24 2.24 0 0 0-.359-1.896 7.435 7.435 0 0 0-1.06-1.412 1.79 1.79 0 0 1-.551-1.395 3.314 3.314 0 0 0-.652-1.947 1.77 1.77 0 0 1-.25-.852c-.06-.835-.552-.994-.836-1.01a.888.888 0 0 0-.952.918 3.006 3.006 0 0 0 .568 1.98 2.05 2.05 0 0 1 .334.92 3.691 3.691 0 0 0 1.144 2.681 3.51 3.51 0 0 1 .669.994c.066.134.133.26.208.393.059.083.084.209-.1.4-.359.385-.71.77-1.06 1.145-.26.276-.51.56-.769.836-.092.092-.125.117-.15.117a7.924 7.924 0 0 1-3.626.242 2.651 2.651 0 0 1-2.223-2.682 8.294 8.294 0 0 1 .034-1.286l.016-.16a.224.224 0 0 1 .084-.125 3.753 3.753 0 0 0 2.088-1.595c.017.05.034.092.05.134zm-13.56-6.825a7.573 7.573 0 0 1 1.187-.46.82.82 0 0 1 .142-.017.576.576 0 0 1 .342.092 4.164 4.164 0 0 0 3.668.86 5.184 5.184 0 0 1 3.058.318 7.58 7.58 0 0 0 1.194.368 6.645 6.645 0 0 1 1.028.3 11.078 11.078 0 0 1 2.005 1.07 1.587 1.587 0 0 1 .526 1.763.483.483 0 0 1-.067.075l-.1.1a4.2 4.2 0 0 1-.259.284 3.082 3.082 0 0 0-.568.744 2.237 2.237 0 0 1-1.838 1.244l-.426.05a4.18 4.18 0 0 0-1.854.552 3.677 3.677 0 0 1-2.331.576l-.009-.008a6.66 6.66 0 0 0-2.44.4 7.092 7.092 0 0 1-1.846.41c-.685.042-1.053-.259-1.203-.986a6.316 6.316 0 0 1-.058-2.464 3.524 3.524 0 0 0-.318-2.23 6.862 6.862 0 0 1-.61-1.705 1.105 1.105 0 0 1 .778-1.336zm9.867 11.546a5.998 5.998 0 0 1-2.632-1.93l2.273-.97a7.01 7.01 0 0 0 .359 2.9zm-8.764 8.797a7.262 7.262 0 0 0-1.028-1.362.686.686 0 0 1-.208-.618 4.457 4.457 0 0 1 .208-.735 2.469 2.469 0 0 0-.584-2.74 2.168 2.168 0 0 1-.66-2.306c.167-.643.4-1.278.626-1.888.067-.2.142-.401.21-.593l1.82.442v.009a4.045 4.045 0 0 0-.919 3.183 3.993 3.993 0 0 0 .92 1.83 1.114 1.114 0 0 1 .225 1.077 5.393 5.393 0 0 0 .86 4.696c.226.359.476.693.727 1.027l.075.1c-.109-.033-.2-.075-.3-.117a4.352 4.352 0 0 1-1.972-2.005zm9.215 7.636a3.495 3.495 0 0 1-2.047-.777 7.52 7.52 0 0 0-3.868-1.805 4.926 4.926 0 0 0-.585-.042 4.827 4.827 0 0 0-1.453.251l-.059-.125c.292-.176.576-.368.852-.552a5.428 5.428 0 0 1 2.465-1.12 2.768 2.768 0 0 1 2.356.81 3.795 3.795 0 0 0 3.943 1.061 3.442 3.442 0 0 0 2.181-2.02l.075-.184a3.14 3.14 0 0 1 .343-.669 1.866 1.866 0 0 1 .618-.518.923.923 0 0 0 .501-1.06.875.875 0 0 0-1.02-.619 2.304 2.304 0 0 0-.459.159c-.058.025-.108.05-.167.075a2.55 2.55 0 0 1 .017-1.796 1.637 1.637 0 0 1 1.01-.927.86.86 0 0 0 .636-1.003.812.812 0 0 0-.802-.718 1.615 1.615 0 0 0-.71.192c-.142.075-.192.067-.334-.042a6.476 6.476 0 0 0-2.657-1.387 3.887 3.887 0 0 0-2.774.326 4.959 4.959 0 0 0-1.913-3.007.882.882 0 1 0-1.11 1.353 3.028 3.028 0 0 1 1.22 3.333 4.139 4.139 0 0 1-.36.827c-.092.184-.192.368-.268.56a.942.942 0 0 0 .042.86.734.734 0 0 0 .577.36 1.116 1.116 0 0 0 .234-.008 1.182 1.182 0 0 0 .476-.184.78.78 0 0 0 .15-.134 3.648 3.648 0 0 0 .593-1.027 2.596 2.596 0 0 1 1.395-1.479 2.483 2.483 0 0 1 1.963.15 9.744 9.744 0 0 1 .978.56c.092.058.192.117.284.175a4.927 4.927 0 0 0-.117 4.336 1.026 1.026 0 0 1-.075.86 1.703 1.703 0 0 1-1.58 1.07c-.041.025-.158-.042-.183-.059a7.692 7.692 0 0 1-.96-3.509 1.907 1.907 0 0 1 1.144-1.871 1.057 1.057 0 0 0 .551-.576.839.839 0 0 0-.067-.66.9.9 0 0 0-1.236-.351 3.462 3.462 0 0 0-2.139 3.258 12.33 12.33 0 0 0 .159 1.854l.05.393a4.228 4.228 0 0 0-2.456-.518.62.62 0 0 1-.585-.25 7.875 7.875 0 0 1-1.646-2.54 3.153 3.153 0 0 1-.092-2.14 2.725 2.725 0 0 0-.476-2.572c-.894-1.187-.894-1.88.017-2.983a14.488 14.488 0 0 1 1.629-1.57l.259-.218a.418.418 0 0 1 .259-.142c.042.009.125.05.25.284a7.305 7.305 0 0 0 4.019 3.309.872.872 0 0 0 .819-.075.929.929 0 0 0 .325-.46 4.62 4.62 0 0 0 3.484 1.68 2.906 2.906 0 0 1 2.13 1.078 2.868 2.868 0 0 1 .585 2.247.283.283 0 0 1-.009.084v.058a4.823 4.823 0 0 0-.275 2.665c.033.292.058.593.067.886.025 1.069-.009 2.163-.034 3.224l-.008.21a1.953 1.953 0 0 1-.41.985 5.067 5.067 0 0 1-4.277 2.189 8.24 8.24 0 0 1-1.445-.025zm5.063 1.863a5.16 5.16 0 0 1-3.442-.075c.1-.017.192-.034.292-.05.735-.134 1.487-.268 2.239-.468a3.803 3.803 0 0 0 1.495-.827 15.57 15.57 0 0 0 1.705-1.838 2.363 2.363 0 0 0 .342-.66.89.89 0 0 0 .034-.084l1.37.902a6.513 6.513 0 0 1-4.035 3.1zm5.563-2.172.009-.009a4.736 4.736 0 0 1 .317-.476.625.625 0 0 1 .2-.075c.426-.125.86-.25 1.287-.368a.934.934 0 0 1 .359-.025c.209.042.418.092.635.15a3.34 3.34 0 0 1-2.806.802zm7.402-3.25a4.436 4.436 0 0 1-3.132.885 23.42 23.42 0 0 0 4.419-3.8h.602a5.775 5.775 0 0 1-1.888 2.915zm4.57-5.665c-.685.293-1.386.56-2.072.827l-.267.1a.973.973 0 0 1-.242.042l-.15.025a.394.394 0 0 1-.2 0c-.068-.025-.093-.083-.118-.209a.874.874 0 0 0-1.036-.718.887.887 0 0 0-.576.368.946.946 0 0 0-.125.726.963.963 0 0 1-.218.844 3.75 3.75 0 0 1-.492.568l-.36.3c-.601.527-1.228 1.07-1.88 1.555a7.031 7.031 0 0 1-.977.585c-.2.108-.393.209-.585.325l-.259.15a7.238 7.238 0 0 0-1.01.66 1.955 1.955 0 0 1-2.282.168l-.551-.377c-.334-.225-.677-.459-1.02-.676a.348.348 0 0 1-.191-.343c-.025-.743-.067-1.487-.1-2.23-.034-.644-.067-1.295-.092-1.938a1.329 1.329 0 0 1 .108-.502 4.594 4.594 0 0 0-.66-4.595c-.083-.1-.175-.2-.284-.309a2.848 2.848 0 0 0 1.721-1.17l.16-.175c.15-.167.3-.334.467-.51l.083-.084a3.177 3.177 0 0 0 2.523 1.145 4.733 4.733 0 0 1-1.445 4.378.342.342 0 0 1-.209.008.897.897 0 0 0-1.22.36.823.823 0 0 0-.075.65 1.013 1.013 0 0 0 .551.585c.36.184.736.351 1.112.518l.417.193a.644.644 0 0 1 .385.35.339.339 0 0 1-.067.285.595.595 0 0 1-.368.183 4.043 4.043 0 0 0-2.272 1.021.871.871 0 0 0-.15 1.278.89.89 0 0 0 1.32.034 2.414 2.414 0 0 1 2.99-.15c.067.041.134.083.193.125.083.058.159.117.242.167a.882.882 0 0 0 1.203-.242.898.898 0 0 0 .15-.66.866.866 0 0 0-.376-.552 10.354 10.354 0 0 0-.919-.56c-.092-.058-.184-.108-.276-.167l.11-.5a2.203 2.203 0 0 1 .233.007c.3 0 .61.009.919-.016a4.152 4.152 0 0 0 3.667-2.966 2.67 2.67 0 0 1 2.306-1.437 1.435 1.435 0 0 1 1.061.794c.159.25.644.994 1.37.543a.85.85 0 0 0 .393-.518 1.368 1.368 0 0 0-.284-.994 3.115 3.115 0 0 0-4.186-1.245c-.075.025-.142.058-.217.092a.866.866 0 0 0-.96-.694c-.268.025-.71.176-.794.903l-.009.142a10.337 10.337 0 0 1-.208 1.336 2.655 2.655 0 0 1-3.593 2.18 7.17 7.17 0 0 1-.676-.183.063.063 0 0 0-.034-.008c.075-.126.159-.243.234-.36a13.133 13.133 0 0 0 .777-1.328 6.288 6.288 0 0 0 .51-3.567c-.05-.343.017-.46.35-.635.477-.26.928-.56 1.396-.877.15-.1.292-.2.451-.301a5.093 5.093 0 0 0 7.227.384 2.607 2.607 0 0 1 1.052 1.98c.034.418.084.836.126 1.253.025.192.05.393.066.585l.026.134a.895.895 0 0 1 .016.192 3.438 3.438 0 0 1-1.83 2.748z"/><path d="M18.85 27.644a3.928 3.928 0 0 1 1.662 1.73.404.404 0 0 1-.016.459 14.823 14.823 0 0 0-.827 1.754 1.035 1.035 0 0 0-.017.82.853.853 0 0 0 .526.442.936.936 0 0 0 .293.05c.35 0 .635-.242.86-.719a12.504 12.504 0 0 1 1.052-1.913c.351-.484.727-.56 1.337-.259a2.946 2.946 0 0 0 3.2-.267c.368-.259.56-.276.827-.059a.762.762 0 0 0 .568.16.941.941 0 0 0 .618-.368.849.849 0 0 0-.15-1.187 2.543 2.543 0 0 0-.71-.417 2.242 2.242 0 0 0-2.18.442 1.223 1.223 0 0 1-1.395.117 2.709 2.709 0 0 0-2.514-.066c-.05-.076-.092-.15-.142-.226a5.243 5.243 0 0 0-2.232-2.063.873.873 0 1 0-.76 1.57z"/></svg>