<svg viewBox="0 0 72 72" xmlns="http://www.w3.org/2000/svg"><g fill="none" stroke="#000" stroke-linecap="round" stroke-linejoin="round" stroke-width="2"><path d="M21.12 9.747v9.366a8.224 8.224 0 0 1-1.214 4.308c-2.603 4.24-7.748 16.491 1.784 37.533m29.197 0s12.76-18.873 2.305-37.59a8.246 8.246 0 0 1-1.05-4.018V9.747m-17.25 31.762v19.445m3.079-19.445v19.445m-.001-17.905a13.04 13.04 0 0 0 9.752 1.112m-23.313-.506a13.04 13.04 0 0 0 9.813-.096"/><path d="M19.56 24.012s14.316 3.03 33.984 0l1.545 3.362s-7.966 11.74-17.118 14.135h-3.08S23.59 37.59 17.908 27.66zm22.836-3.186 1.983-4.037 2.026 2.152 2.491-5.072m-19.588 7.149-2.625-3.651 2.853-.773-3.299-4.588m10.536 7.745.63-4.453-2.886.64.792-5.595"/></g></svg>