<svg viewBox="0 0 72 72" xmlns="http://www.w3.org/2000/svg"><g fill="none" stroke="#000" stroke-linecap="round" stroke-linejoin="round" stroke-width="2"><path d="M50.226 10.082c.627 1.097 4.666-1.133 5.851-.066a3.072 3.072 0 0 1 1.123 2.261c-.049 1.417-1.347 2.27-2.014 2.71a5.894 5.894 0 0 1-3.484.914c-4.159 3.543-7.998 9.886-9.45 12.52a3.371 3.371 0 0 0-.218 2.497 5.13 5.13 0 0 1-.009 2.988c-.1.316-.86 2.695-2.778 2.982a3.198 3.198 0 0 1-2.739-1.03c-.9-1.017-1.304-3.869-3.04-3.65"/><path d="M37.212 31.964c-.627-1.097-4.666 1.133-5.85.066a3.072 3.072 0 0 1-1.124-2.26c.049-1.418 1.347-2.271 2.014-2.71a5.843 5.843 0 0 1 3.442-.94 32.764 32.764 0 0 0 9.546-12.206 4.148 4.148 0 0 0 .164-2.785 5.13 5.13 0 0 1 .01-2.988c.1-.316.859-2.695 2.777-2.982A3.199 3.199 0 0 1 50.93 6.19c.9 1.016 1.305 3.868 3.04 3.65M32.286 40.174c.627 1.097 4.666-1.133 5.851-.066a3.072 3.072 0 0 1 1.123 2.261c-.049 1.417-1.347 2.27-2.014 2.71a5.894 5.894 0 0 1-3.484.914c-4.159 3.543-7.998 9.886-9.45 12.52a3.371 3.371 0 0 0-.218 2.497 5.13 5.13 0 0 1-.009 2.988c-.1.316-.86 2.695-2.778 2.982a3.198 3.198 0 0 1-2.739-1.03c-.9-1.016-1.304-3.869-3.04-3.65"/><path d="M19.272 62.056c-.627-1.097-4.666 1.133-5.85.066a3.073 3.073 0 0 1-1.124-2.26c.049-1.418 1.347-2.271 2.014-2.71a5.844 5.844 0 0 1 3.442-.94 32.765 32.765 0 0 0 9.545-12.207 4.147 4.147 0 0 0 .164-2.784 5.13 5.13 0 0 1 .01-2.988c.1-.316.86-2.695 2.778-2.982a3.198 3.198 0 0 1 2.739 1.03c.9 1.016 1.305 3.869 3.04 3.65m-8.025-13.273-2.944-3.4 2.771-1.027-3.699-4.271m.388 17.106-4.494.179 1.147 2.724-5.646.225m10.133-7.641-3.855-2.316-.536 2.906-4.843-2.91"/></g></svg>