<svg viewBox="0 0 72 72" xmlns="http://www.w3.org/2000/svg"><path d="M41.864 31.01a2 2 0 1 1-2-2 2 2 0 0 1 2 2m-8 0a2 2 0 1 1-2-2 2 2 0 0 1 2 2m2 10.002a7.654 7.654 0 0 1-3.447-.858 1 1 0 0 1 .894-1.789 5.377 5.377 0 0 0 5.106 0 1 1 0 1 1 .894 1.79 7.654 7.654 0 0 1-3.447.857z"/><path fill="none" stroke="#000" stroke-linecap="round" stroke-linejoin="round" stroke-width="2" d="M16.987 62.063s-2-13 10-13c3.15 2.1 5.86 3.56 8.88 3.59h.12c3.02-.03 5.73-1.49 8.88-3.59.19 0 .38 0 .56.01m6.073 2.4c5.581 4.09 3.367 10.59 3.367 10.59M22.056 50.627V62.05m27.491-8.881v8.909"/><path fill="none" stroke="#000" stroke-linecap="round" stroke-linejoin="round" stroke-width="2" d="M27.195 49.319V62.05l17.448-.015V49.298"/><path fill="none" stroke="#000" stroke-miterlimit="10" d="M24.627 29.013c5.89-2.51 11.07-8.73 11.07-8.73"/><path fill="none" stroke="#000" stroke-miterlimit="10" stroke-width="2" d="M24.846 29.008a17.608 17.608 0 0 0-.32 3.362c0 7.828 5.076 14.174 11.338 14.174 5.97 0 10.862-5.767 11.306-13.088"/><g fill="none" stroke="#000" stroke-linecap="round" stroke-linejoin="round" stroke-width="2"><path d="M50.07 47.673c1.697 2.075 1.192 5.293 1.192 5.293s-3.253-.147-4.95-2.222-1.19-5.294-1.19-5.294 3.253.15 4.949 2.223zm4.003 4.502c-1.46 1.507-2.36 5.579-1.575 10.034m4.305-22.189a2.124 2.124 0 0 1 4.245-.147m2.432 6.825a2.124 2.124 0 1 0 .148-4.245m0 0a1.84 1.84 0 0 0-2.58-2.58"/><path d="M60.9 49.277a1.84 1.84 0 0 0 2.58-2.58"/><path d="M60.9 49.276a2.124 2.124 0 0 1-4.246.147m-2.577-2.583a1.84 1.84 0 0 0 2.58 2.58m.146-9.4c-1.653-1.245-4.144.7-2.879 2.578m.149 4.246a2.124 2.124 0 1 1-.147-4.245"/></g><circle cx="58.777" cy="44.81" r="1.89" fill="none" stroke="#000" stroke-miterlimit="10" stroke-width="1.5"/><path fill="none" stroke="#000" stroke-linecap="round" stroke-linejoin="round" stroke-width="2" d="M24.204 34.175s-4.653-6.851 2.553-13.89c0 0 9.453-8.71 18.213 0 7.206 7.039 2.554 13.89 2.554 13.89l-5.66-12.624a5.713 5.713 0 0 1-5.654 3.493s1.065-4.76-.283-4.76c0 0-5.184 6.218-11.073 8.726z"/><circle cx="58.777" cy="44.81" r="1.89" fill="none" stroke="#000" stroke-miterlimit="10" stroke-width="1.5"/></svg>