<svg viewBox="0 0 72 72" xmlns="http://www.w3.org/2000/svg"><path d="M41.837 29.424a2 2 0 1 1-2-2 2 2 0 0 1 2 2m-8 0a2 2 0 1 1-2-2 2 2 0 0 1 2 2m2 10.002a7.653 7.653 0 0 1-3.447-.858 1 1 0 1 1 .894-1.789 5.378 5.378 0 0 0 5.106 0 1 1 0 0 1 .894 1.79 7.653 7.653 0 0 1-3.447.857z"/><path fill="none" stroke="#000" stroke-linecap="round" stroke-linejoin="round" stroke-width="2" d="M16.895 60.281s-2-13 10-13c3.16 2.09 5.86 3.56 8.88 3.59h.12c3.02-.03 5.73-1.5 8.88-3.59.15 0 .29 0 .43.01m5.85 1.76c4.9 3.55 3.72 11.23 3.72 11.23M21.967 48.23v12.204m27.491-9.518v9.518"/><path fill="none" stroke="#000" stroke-linecap="round" stroke-linejoin="round" stroke-width="2" d="M27.105 47.533v12.901l17.449-.014V47.513M16.223 38.88c-1.223-.775-1.218-2.11-.443-3.333s1.908-1.688 3.131-.913"/><path fill="none" stroke="#000" stroke-linecap="round" stroke-linejoin="round" stroke-width="2" d="M18.791 41.447a2.568 2.568 0 1 1-2.568-2.568M9.579 49.06c6.352-.394 4.558-5.676 4.558-5.676s-5.545-.612-4.558 5.676zm13.578-10.502s.873 2.585-1.079 3.547c-1.298.64-2.605.62-3.287-.658m.12-6.813c-4.662-9.1 7.338-17.851 7.338-17.851s9.708-7.337 19.983.446c2.392 1.811 10.81 9.517 6.768 17.405m0 0a2.498 2.498 0 0 1 3.765 1.936m-5.111 5.598a2.33 2.33 0 0 1-1.82-.062c-1.952-.963-1.08-3.548-1.08-3.548"/><path fill="none" stroke="#000" stroke-linecap="round" stroke-linejoin="round" stroke-width="2" d="M35.715 19.791c5.82 0 10.55 5.63 10.55 12.58s-4.73 12.59-10.55 12.59c-5.83 0-10.55-5.64-10.55-12.59a14.982 14.982 0 0 1 .29-2.95M49.85 45.887c1.695 2.075 1.19 5.294 1.19 5.294s-3.253-.148-4.95-2.223-1.19-5.294-1.19-5.294 3.253.15 4.95 2.223zm4.001 4.502c-1.46 1.507-2.36 5.579-1.575 10.034m4.305-22.189a2.124 2.124 0 1 1 4.245-.147m2.433 6.825a2.124 2.124 0 1 0 .147-4.245m0 0a1.84 1.84 0 0 0-2.58-2.58m-.148 9.404a1.84 1.84 0 0 0 2.58-2.58m-2.581 2.579a2.124 2.124 0 0 1-4.245.147"/><path fill="none" stroke="#000" stroke-linecap="round" stroke-linejoin="round" stroke-width="2" d="M53.855 45.055a1.84 1.84 0 0 0 2.58 2.58m.146-9.401c-1.653-1.244-4.144.7-2.879 2.578m.149 4.247a2.124 2.124 0 0 1-.147-4.246"/><circle cx="58.555" cy="43.024" r="1.89" fill="none" stroke="#000" stroke-miterlimit="10" stroke-width="1.5"/><path fill="none" stroke="#000" stroke-linecap="round" stroke-linejoin="round" stroke-width="2" d="M25.452 29.424s5.13-2.638 10.26-9.636h0"/></svg>