<svg viewBox="0 0 72 72" xmlns="http://www.w3.org/2000/svg"><path fill="none" stroke="#000" stroke-linecap="round" stroke-linejoin="round" stroke-width="2" d="M7.95 7.957s19.41 5.496 25.24 26.36m-.03.103h21.05a1.868 1.872 0 0 1 1.868 1.872v6.288a1.868 1.872 0 0 1-1.868 1.872H34.37a1.868 1.872 0 0 1-1.868-1.872v-7.494a.664.665 0 0 1 .664-.665zm20.16 20.61H35.89"/><path transform="matrix(1.549 0 0 1.552 -16.13 -26.71)" fill="none" stroke="#000" stroke-linecap="round" stroke-linejoin="round" stroke-width="1.29" d="M33.64 49.24h1.42v-3.37h8.22v3.37h2.14l1.35-.01v.09"/><ellipse cx="28.65" cy="52.23" rx="7.764" ry="7.776" fill="none" stroke="#000" stroke-linecap="round" stroke-linejoin="round" stroke-width="2"/><ellipse cx="58.68" cy="54.63" rx="5.37" ry="5.379" fill="none" stroke="#000" stroke-linecap="round" stroke-linejoin="round" stroke-width="2"/><rect x="45.58" y="30.7" rx="1.201" ry="1.201" width="6.725" height="3.728"/></svg>