<svg viewBox="0 0 72 72" xmlns="http://www.w3.org/2000/svg"><g fill="none" stroke-linecap="round" stroke-linejoin="round" stroke-width="2" stroke="#000"><path d="m7.95 20.5 9.409 4.316 1.505 12.74 35.49 17.15"/><path d="M19.99 38.31s-.642 14.85-.12 16.16c.42 1.06 4.496 2.403 5.831.848 1.466-1.708 4.697-12.84 4.697-12.84M59.66 54.71a5.302 5.392 0 0 1-5.302 5.392 5.302 5.392 0 0 1-5.302-5.392 5.302 5.392 0 0 1 5.302-5.392 5.302 5.392 0 0 1 5.302 5.392"/><path d="m64.05 33.49-42.22-7.064v1.892l1.628.379.04 10.6 23.14 10.85z"/></g></svg>