<svg viewBox="0 0 72 72" xmlns="http://www.w3.org/2000/svg"><g fill="none"><path stroke="#000" stroke-linecap="round" stroke-linejoin="round" stroke-width="2" d="m40.8 11.51.057-3.538-9.34.027-.03 3.41 1.478 1.91a3.383 3.297 0 0 1 .66 1.985l-.068 27.75h4.792l.268-27.58a3.328 3.243 0 0 1 .857-2.174z"/><path d="m36.16 43.43-.004 20.27s-6.522-.663-7.042-1.74c-.52-1.077-.583-18.33-.583-18.33z"/><path d="m43.45 43.82.077 17.61s-6.788 3.69-7.303 2.612c-.02-1.633-.483-20.46-.483-20.46z"/><path stroke="#000" stroke-linecap="round" stroke-linejoin="round" stroke-width="2" d="M43.61 61.02V43.48l-15.23.001.247 17.42.506.466c3.928 3.495 9.924 3.555 13.92.138z"/><path stroke="#000" stroke-linecap="round" stroke-linejoin="round" stroke-width="2" d="m31.84 43.48 2.733 6.094c.653.965 2.095.998 2.793.063l2.801-6.157"/></g></svg>