<svg viewBox="0 0 72 72" xmlns="http://www.w3.org/2000/svg"><g fill="none"><path d="m8.252 17.56 18.03-4.217s.216 2.499.539 4.217a19.09 19.1 0 0 0 3.542 6.444c.75.537-7.393 12.25-10.18 12.36-2.79.107-11.93-18.8-11.93-18.8z"/><path stroke="#000" stroke-linecap="round" stroke-linejoin="round" stroke-width="2" d="M34.66 24.76c-.04.204-.002.45.138.767a7.1 7.1 0 0 1 .432 1.29c.499 2.163 1.495 3.659 5.317 5.82 3.394 1.919 10.32 15.51 11.83 18.53.195.388.3.816.31 1.25l.128 5.815a2.95 2.95 0 0 0 .66 1.794l1.852 2.283a2.946 2.946 0 0 0 4.11.457l3.483-2.744a2.95 2.95 0 0 0 .7-3.842L42.48 21.44c-.315-.52-.525-.808-.732-.918"/><rect x="14.32" y="25.04" rx="2.359" ry="2.359" width="13.56" height="13.46" transform="rotate(-30.014) skewX(-.028)" stroke="#000" stroke-linecap="round" stroke-linejoin="round" stroke-width="2"/><path stroke="#000" stroke-linecap="round" stroke-linejoin="round" stroke-width="2" d="m31.02 24.98-9.465 11.24c-3.463 4.049-17.14-17.64-12.65-19.27l17.34-3.026"/></g></svg>