<svg viewBox="0 0 72 72" xmlns="http://www.w3.org/2000/svg"><g fill="none" stroke="#000" stroke-linecap="round" stroke-linejoin="round"><circle cx="36" cy="36" r="30" stroke-width="2"/><path stroke-width="2" d="M55.66 51.44A24.99 24.99 0 0 0 20.6 16.31zM16.99 19.77a24.99 24.99 0 0 0 35.2 35.27z"/><path stroke-width="2" d="M49.56 41.4s3.254-2.857 4.074-4.273c2.565-4.413-.554-11.5-6.097-12.68M34.83 41.37l-7.53 4.08m10.36-1.29-7.596 3.776M23.46 42.96l2.978-2.532 4.835-2.519"/><path stroke-width="2" d="M35.54 49.1c-5.007 3.176-6.302-.172-5.482-1.159-1.597.944-3.626-.3-2.763-2.489-2.245 1.073-4.101-.6-3.842-2.489-1.942.343-3.151-1.245-2.59-3.133-3.925-2.664-4.518-9.921-1.516-13.6m7.81 7.928-2.492 1.418c-1.468.987-3.496 3.391-3.799 4.249"/><path stroke-width="2" d="M39.08 47.85c-.647-.858-1.597-.987-2.46-.515-.82.472-1.424 1.373-.863 2.361 0 0 .647 1.03.82 1.373.043.129.13.3.216.43.647.858 1.856.986 2.676.385a1.909 1.909 0 0 0 .388-2.66l-.777-1.374z"/><path stroke-width="2" d="M39.33 45.97c-.446.495-.656 1.17-.247 1.89 0 0 .604.987.777 1.373.086.129.13.3.259.43.604.815 1.813.986 2.676.343.083-.061.159-.128.228-.2"/><path stroke-width="1.819" d="m33.11 24.57 2.495-.774 5.474-1.356a2.335 2.335 0 0 1 2.791 1.472c.44 1.636.979 2.889 2.102 4.868a2.053 2.053 0 0 1-1.093 2.666c-1.114.277-1.623-.224-2.605-.98-1.282-1.22-1.535-1.74-2.222-2.658l-3.029.86"/></g></svg>