<svg viewBox="0 0 72 72" xmlns="http://www.w3.org/2000/svg"><g fill="none" stroke="#000" stroke-linejoin="round" stroke-width="2"><path stroke-miterlimit="10" d="M59.035 60h-46.07a.968.968 0 0 1-.965-.965v-46.07a.968.968 0 0 1 .965-.965h46.07a.968.968 0 0 1 .965.965v46.07a.968.968 0 0 1-.965.965z"/><path stroke-linecap="round" d="M29 47.5a4.5 4.5 0 1 1-9 0 4.5 4.5 0 0 1 9 0z"/><path d="M41 52c0-11.598-9.402-21-21-21v6c8.284 0 15 6.716 15 15h6z" clip-rule="evenodd"/><path d="M52 52c0-17.673-14.327-32-32-32v6.001c14.106.134 25.5 11.611 25.5 25.749l-.001.25H52z" clip-rule="evenodd"/></g></svg>