<svg viewBox="0 0 72 72" xmlns="http://www.w3.org/2000/svg"><path fill="none" stroke="#000" stroke-linecap="round" stroke-linejoin="round" stroke-width="2" d="M35.156 22.097a7.99 7.99 0 0 1-.059-.97c0-2.457 1.067-5.088 2.962-7.238.946-1.09 2.149-1.994 3.608-2.717 1.456-.711 2.833-1.105 4.128-1.172.038.342.053.684.053 1.024 0 2.56-.932 4.95-2.791 7.163-.83.973-1.725 1.795-2.672 2.431m15.314 30.223a27.854 27.854 0 0 1-2.745 4.948c-1.443 2.063-2.625 3.492-3.535 4.285-1.412 1.302-2.925 1.968-4.544 2.006-1.163 0-2.565-.331-4.197-1.005-1.638-.67-3.143-1.001-4.52-1.001-1.442 0-2.99.332-4.646 1.002-1.658.673-2.994 1.023-4.015 1.058-1.553.066-3.101-.62-4.647-2.06-.986-.863-2.22-2.342-3.697-4.436-1.586-2.238-2.89-4.832-3.911-7.79-1.094-3.194-1.642-6.288-1.642-9.282 0-3.43.74-6.39 2.22-8.87 1.164-1.99 2.712-3.562 4.65-4.715a12.482 12.482 0 0 1 6.285-1.779c1.234 0 2.852.383 4.862 1.135 2.005.754 3.292 1.137 3.856 1.137.422 0 1.852-.448 4.276-1.34 2.293-.827 4.228-1.17 5.813-1.034 4.295.347 7.521 2.045 9.667 5.104-3.84 2.334-5.741 5.602-5.703 9.796.034 3.266 1.216 5.984 3.538 8.142a11.626 11.626 0 0 0 3.536 2.326 38.37 38.37 0 0 1-.901 2.373z"/></svg>